<?xml version="1.0" encoding="UTF-8"?>
<svg version="1.1" xmlns="http://www.w3.org/2000/svg" width="500" height="500">
<path d="M0 0 C31.68 0 63.36 0 96 0 C96 9.9 96 19.8 96 30 C97.98 29.505 97.98 29.505 100 29 C101.91979614 28.9361407 103.8418598 28.93040214 105.76245117 28.96240234 C106.92012497 28.97927094 108.07779877 28.99613953 109.27055359 29.01351929 C111.13789909 29.0493663 111.13789909 29.0493663 113.04296875 29.0859375 C114.96197746 29.11779648 114.96197746 29.11779648 116.91975403 29.15029907 C119.6222764 29.19570928 122.3246952 29.24492867 125.02709961 29.296875 C128.49741573 29.36329986 131.96781165 29.42049248 135.43833447 29.47490501 C138.74413271 29.52792198 142.04979021 29.58847864 145.35546875 29.6484375 C146.60643845 29.66828705 147.85740814 29.6881366 149.14628601 29.70858765 C150.29450333 29.73176056 151.44272064 29.75493347 152.62573242 29.77880859 C153.64181076 29.79736908 154.6578891 29.81592957 155.70475769 29.83505249 C158 30 158 30 159 31 C159.08783542 33.21855264 159.10694609 35.43988496 159.09765625 37.66015625 C159.09553383 38.65685585 159.09553383 38.65685585 159.09336853 39.6736908 C159.08775518 41.80333899 159.07520054 43.93288339 159.0625 46.0625 C159.05748671 47.50325369 159.05292351 48.94400903 159.04882812 50.38476562 C159.03778145 53.92321102 159.02050792 57.46159539 159 61 C160.16289047 60.99777939 161.32578094 60.99555878 162.52391052 60.99327087 C173.45769368 60.97304088 184.39147306 60.95802855 195.32527065 60.94818783 C200.94707962 60.94295864 206.56887353 60.93586034 212.19067383 60.92456055 C217.61118277 60.91373294 223.0316772 60.90772344 228.45219612 60.90512276 C230.52514945 60.90326828 232.59810194 60.89964723 234.67104912 60.89426994 C237.56383893 60.8870612 240.45656796 60.88600899 243.34936523 60.88647461 C244.64840034 60.8810817 244.64840034 60.8810817 245.97367859 60.87557983 C251.88594784 60.88594784 251.88594784 60.88594784 253 62 C253.08783542 64.21855264 253.10694609 66.43988496 253.09765625 68.66015625 C253.09553383 69.65685585 253.09553383 69.65685585 253.09336853 70.6736908 C253.08775518 72.80333899 253.07520054 74.93288339 253.0625 77.0625 C253.05748671 78.50325369 253.05292351 79.94400903 253.04882812 81.38476562 C253.03778145 84.92321102 253.02050792 88.46159539 253 92 C253.76199203 91.99777939 254.52398407 91.99555878 255.30906677 91.99327087 C262.47551712 91.97326843 269.64195401 91.95802612 276.80842495 91.94818783 C280.49314498 91.94295992 284.17784203 91.93586395 287.86254883 91.92456055 C291.41570831 91.91372838 294.96884563 91.90772247 298.52202034 91.90512276 C299.88045666 91.9032691 301.23889171 91.89964962 302.59731865 91.89426994 C304.49382223 91.88705525 306.39034793 91.88659191 308.28686523 91.88647461 C309.36830307 91.884254 310.44974091 91.88203339 311.56394958 91.87974548 C314 92 314 92 315 93 C315.08790975 95.29151417 315.10694038 97.58572524 315.09765625 99.87890625 C315.09553383 100.90889992 315.09553383 100.90889992 315.09336853 101.95970154 C315.08775479 104.16067801 315.07520007 106.36155409 315.0625 108.5625 C315.05748676 110.05143083 315.05292355 111.54036324 315.04882812 113.02929688 C315.03778093 116.68623075 315.02050713 120.34310558 315 124 C315.93384521 123.99476318 316.86769043 123.98952637 317.82983398 123.98413086 C321.28312796 123.9671238 324.73637767 123.95456698 328.18969727 123.94506836 C329.68644918 123.94002879 331.18319616 123.93319713 332.67993164 123.92456055 C334.82699807 123.91247841 336.97399962 123.90676809 339.12109375 123.90234375 C340.4145874 123.89710693 341.70808105 123.89187012 343.04077148 123.88647461 C346 124 346 124 347 125 C347.08783542 127.21855264 347.10694609 129.43988496 347.09765625 131.66015625 C347.09515869 132.87582275 347.09266113 134.09148926 347.09008789 135.34399414 C347.07643188 137.67965454 347.07643188 137.67965454 347.0625 140.0625 C347.041875 144.991875 347.02125 149.92125 347 155 C357.23 155 367.46 155 378 155 C378 175.79 378 196.58 378 218 C388.23 218 398.46 218 409 218 C409.95037732 221.80150927 410.04328688 224.424798 409.87890625 228.296875 C409.81425171 229.92641113 409.81425171 229.92641113 409.74829102 231.58886719 C409.68697998 232.96204102 409.62566895 234.33521484 409.5625 235.75 C409.376875 240.1225 409.19125 244.495 409 249 C418.9 249 428.8 249 439 249 C439 259.89 439 270.78 439 282 C429.1 282 419.2 282 409 282 C409.33 284.31 409.66 286.62 410 289 C410.19459683 292.58319803 410.18501175 296.16193734 410.1875 299.75 C410.19974609 300.69488281 410.21199219 301.63976562 410.22460938 302.61328125 C410.22654297 303.51949219 410.22847656 304.42570312 410.23046875 305.359375 C410.23457764 306.17889648 410.23868652 306.99841797 410.24291992 307.84277344 C410 310 410 310 408 313 C405.00964694 313.28606944 402.22734562 313.37798899 399.23583984 313.34057617 C398.32846573 313.34101425 397.42109161 313.34145233 396.48622131 313.34190369 C393.47757686 313.33980839 390.46948498 313.31644244 387.4609375 313.29296875 C385.37871607 313.28737543 383.2964907 313.28310409 381.21426392 313.28010559 C375.72653353 313.26863603 370.23904031 313.23915067 364.75140381 313.20599365 C359.15461435 313.17533823 353.55778667 313.16160995 347.9609375 313.14648438 C336.97385397 313.11428301 325.98694669 313.06306119 315 313 C315.00785522 314.30203369 315.00785522 314.30203369 315.01586914 315.63037109 C315.03289862 318.84700273 315.04544408 322.06361141 315.05493164 325.28027344 C315.0599643 326.67318477 315.06679098 328.0660908 315.07543945 329.45898438 C315.08755152 331.45961246 315.09270412 333.46027888 315.09765625 335.4609375 C315.10551147 337.26763916 315.10551147 337.26763916 315.11352539 339.11083984 C315 342 315 342 314 344 C304.1 344 294.2 344 284 344 C284.01160156 348.38023437 284.02320313 352.76046875 284.03515625 357.2734375 C284.04158478 360.76057914 284.04700845 364.2477191 284.05175018 367.73486328 C284.05703628 371.41895736 284.06410319 375.10302852 284.07543945 378.78710938 C284.08628493 382.3337896 284.09228037 385.88044757 284.09487724 389.4271431 C284.09672849 390.78196183 284.10034338 392.13677931 284.10573006 393.49158859 C284.11296238 395.38549365 284.11340824 397.27942098 284.11352539 399.17333984 C284.115746 400.25255707 284.11796661 401.33177429 284.12025452 402.44369507 C284 405 284 405 283 407 C273.1 407.33 263.2 407.66 253 408 C253 417.57 253 427.14 253 437 C248.95832327 439.02083837 247.35917366 439.2474674 242.9921875 439.23046875 C241.84105469 439.22853516 240.68992187 439.22660156 239.50390625 439.22460938 C238.30636719 439.21236328 237.10882813 439.20011719 235.875 439.1875 C234.66972656 439.18685547 233.46445312 439.18621094 232.22265625 439.18554688 C223.28077168 439.14038584 223.28077168 439.14038584 221 438 C221 448.23 221 458.46 221 469 C217.12012573 469.77597485 214.1140062 470.13039762 210.23168945 470.14526367 C208.53016472 470.15483345 208.53016472 470.15483345 206.79426575 470.16459656 C205.57954086 470.16570938 204.36481598 470.1668222 203.11328125 470.16796875 C201.85992477 470.17129715 200.6065683 470.17462555 199.31523132 470.17805481 C196.66999752 470.18311211 194.02486656 470.18589662 191.37963867 470.18530273 C187.98661803 470.18520069 184.59380467 470.19890547 181.20083332 470.21607494 C177.96332357 470.22983866 174.72581631 470.22928241 171.48828125 470.23046875 C170.26748367 470.23765427 169.0466861 470.24483978 167.78889465 470.25224304 C166.66400131 470.24916641 165.53910797 470.24608978 164.38012695 470.24291992 C163.38705032 470.24434494 162.39397369 470.24576996 161.37080383 470.24723816 C159 470 159 470 157 468 C156.81168527 465.04725086 156.74832729 462.18897147 156.77294922 459.23583984 C156.77265717 458.32846573 156.77236511 457.42109161 156.77206421 456.48622131 C156.77346102 453.47769714 156.78903872 450.46941858 156.8046875 447.4609375 C156.80841638 445.37871435 156.81126394 443.29648945 156.81326294 441.21426392 C156.82090923 435.72659483 156.84056625 430.23903116 156.8626709 424.75140381 C156.88310791 419.15459621 156.89226006 413.55777163 156.90234375 407.9609375 C156.92381122 396.9739045 156.95900146 385.9869775 157 375 C167.56 375 178.12 375 189 375 C189 364.77 189 354.54 189 344 C168.87 344 148.74 344 128 344 C128 354.23 128 364.46 128 375 C106.88 375 85.76 375 64 375 C64 385.23 64 395.46 64 406 C74.56 406 85.12 406 96 406 C96 416.23 96 426.46 96 437 C106.15713092 436.96040178 106.15713092 436.96040178 116.31420898 436.90991211 C117.57048096 436.90741455 118.82675293 436.90491699 120.12109375 436.90234375 C122.06133423 436.89448853 122.06133423 436.89448853 124.04077148 436.88647461 C127 437 127 437 128 438 C128.09396057 439.93306498 128.11743517 441.86958838 128.11352539 443.80493164 C128.11340454 445.06358032 128.11328369 446.322229 128.11315918 447.61901855 C128.10812272 448.96606495 128.10295608 450.31311087 128.09765625 451.66015625 C128.09664917 452.87795776 128.09564209 454.09575928 128.09460449 455.35046387 C128.08935295 459.92115209 128.07539185 464.49182694 128.0625 469.0625 C128.041875 479.271875 128.02125 489.48125 128 500 C96.32 500 64.64 500 32 500 C32 490.1 32 480.2 32 470 C22.1 470 12.2 470 2 470 C2 479.9 2 489.8 2 500 C-18.79 500 -39.58 500 -61 500 C-61 468.98 -61 437.96 -61 406 C-51.1 406 -41.2 406 -31 406 C-31 375.31 -31 344.62 -31 313 C-40.9 313 -50.8 313 -61 313 C-61 281.65 -61 250.3 -61 218 C-51.1 218 -41.2 218 -31 218 C-31.03480469 211.42964844 -31.03480469 211.42964844 -31.0703125 204.7265625 C-31.08316956 201.23942174 -31.09401688 197.75228765 -31.10350037 194.26513672 C-31.11407267 190.58100651 -31.1282064 186.89696793 -31.15087891 183.21289062 C-31.17256991 179.66620345 -31.18456067 176.11960528 -31.18975449 172.5728569 C-31.193457 171.21802748 -31.20068689 169.86320306 -31.21146011 168.50841141 C-31.22592448 166.61454243 -31.22681649 164.72058436 -31.22705078 162.82666016 C-31.231492 161.74744293 -31.23593323 160.66822571 -31.24050903 159.55630493 C-31 157 -31 157 -29 155 C-26.20263672 154.77294922 -26.20263672 154.77294922 -22.6796875 154.8046875 C-20.79443359 154.81435547 -20.79443359 154.81435547 -18.87109375 154.82421875 C-16.89302734 154.84935547 -16.89302734 154.84935547 -14.875 154.875 C-13.53516279 154.88503017 -12.19531848 154.89415596 -10.85546875 154.90234375 C-7.57013427 154.92597925 -4.28515535 154.95892766 -1 155 C-0.96241577 153.64467163 -0.96241577 153.64467163 -0.92407227 152.26196289 C-0.82912683 148.9203572 -0.72988379 145.57893748 -0.62768555 142.23754883 C-0.5842837 140.7893576 -0.54261256 139.34111346 -0.50268555 137.89282227 C-0.44510938 135.81510441 -0.38137972 133.73765427 -0.31640625 131.66015625 C-0.27974854 130.40855713 -0.24309082 129.15695801 -0.20532227 127.86743164 C0 125 0 125 1 124 C11.23 124 21.46 124 32 124 C32 103.54 32 83.08 32 62 C21.77 62 11.54 62 1 62 C0 61 0 61 -0.12025452 58.56394958 C-0.11803391 57.48251175 -0.11581329 56.40107391 -0.11352539 55.28686523 C-0.11340454 54.04851929 -0.11328369 52.81017334 -0.11315918 51.53430176 C-0.10804321 50.22231812 -0.10292725 48.91033447 -0.09765625 47.55859375 C-0.09664917 46.36045044 -0.09564209 45.16230713 -0.09460449 43.92785645 C-0.08935305 39.4310613 -0.07539195 34.93427974 -0.0625 30.4375 C-0.041875 20.393125 -0.02125 10.34875 0 0 Z " fill="#01BAEF" transform="translate(61,0)"/>
<path d="M0 0 C31.68 0 63.36 0 96 0 C96 9.9 96 19.8 96 30 C97.98 29.505 97.98 29.505 100 29 C101.91979614 28.9361407 103.8418598 28.93040214 105.76245117 28.96240234 C106.92012497 28.97927094 108.07779877 28.99613953 109.27055359 29.01351929 C111.13789909 29.0493663 111.13789909 29.0493663 113.04296875 29.0859375 C114.96197746 29.11779648 114.96197746 29.11779648 116.91975403 29.15029907 C119.6222764 29.19570928 122.3246952 29.24492867 125.02709961 29.296875 C128.49741573 29.36329986 131.96781165 29.42049248 135.43833447 29.47490501 C138.74413271 29.52792198 142.04979021 29.58847864 145.35546875 29.6484375 C146.60643845 29.66828705 147.85740814 29.6881366 149.14628601 29.70858765 C150.29450333 29.73176056 151.44272064 29.75493347 152.62573242 29.77880859 C153.64181076 29.79736908 154.6578891 29.81592957 155.70475769 29.83505249 C158 30 158 30 159 31 C159.08783542 33.21855264 159.10694609 35.43988496 159.09765625 37.66015625 C159.09553383 38.65685585 159.09553383 38.65685585 159.09336853 39.6736908 C159.08775518 41.80333899 159.07520054 43.93288339 159.0625 46.0625 C159.05748671 47.50325369 159.05292351 48.94400903 159.04882812 50.38476562 C159.03778145 53.92321102 159.02050792 57.46159539 159 61 C160.16289047 60.99777939 161.32578094 60.99555878 162.52391052 60.99327087 C173.45769368 60.97304088 184.39147306 60.95802855 195.32527065 60.94818783 C200.94707962 60.94295864 206.56887353 60.93586034 212.19067383 60.92456055 C217.61118277 60.91373294 223.0316772 60.90772344 228.45219612 60.90512276 C230.52514945 60.90326828 232.59810194 60.89964723 234.67104912 60.89426994 C237.56383893 60.8870612 240.45656796 60.88600899 243.34936523 60.88647461 C244.64840034 60.8810817 244.64840034 60.8810817 245.97367859 60.87557983 C251.88594784 60.88594784 251.88594784 60.88594784 253 62 C253.08783542 64.21855264 253.10694609 66.43988496 253.09765625 68.66015625 C253.09553383 69.65685585 253.09553383 69.65685585 253.09336853 70.6736908 C253.08775518 72.80333899 253.07520054 74.93288339 253.0625 77.0625 C253.05748671 78.50325369 253.05292351 79.94400903 253.04882812 81.38476562 C253.03778145 84.92321102 253.02050792 88.46159539 253 92 C253.76199203 91.99777939 254.52398407 91.99555878 255.30906677 91.99327087 C262.47551712 91.97326843 269.64195401 91.95802612 276.80842495 91.94818783 C280.49314498 91.94295992 284.17784203 91.93586395 287.86254883 91.92456055 C291.41570831 91.91372838 294.96884563 91.90772247 298.52202034 91.90512276 C299.88045666 91.9032691 301.23889171 91.89964962 302.59731865 91.89426994 C304.49382223 91.88705525 306.39034793 91.88659191 308.28686523 91.88647461 C309.36830307 91.884254 310.44974091 91.88203339 311.56394958 91.87974548 C314 92 314 92 315 93 C315.08790975 95.29151417 315.10694038 97.58572524 315.09765625 99.87890625 C315.09553383 100.90889992 315.09553383 100.90889992 315.09336853 101.95970154 C315.08775479 104.16067801 315.07520007 106.36155409 315.0625 108.5625 C315.05748676 110.05143083 315.05292355 111.54036324 315.04882812 113.02929688 C315.03778093 116.68623075 315.02050713 120.34310558 315 124 C315.93384521 123.99476318 316.86769043 123.98952637 317.82983398 123.98413086 C321.28312796 123.9671238 324.73637767 123.95456698 328.18969727 123.94506836 C329.68644918 123.94002879 331.18319616 123.93319713 332.67993164 123.92456055 C334.82699807 123.91247841 336.97399962 123.90676809 339.12109375 123.90234375 C340.4145874 123.89710693 341.70808105 123.89187012 343.04077148 123.88647461 C346 124 346 124 347 125 C347.08783542 127.21855264 347.10694609 129.43988496 347.09765625 131.66015625 C347.09515869 132.87582275 347.09266113 134.09148926 347.09008789 135.34399414 C347.07643188 137.67965454 347.07643188 137.67965454 347.0625 140.0625 C347.041875 144.991875 347.02125 149.92125 347 155 C357.23 155 367.46 155 378 155 C378 175.79 378 196.58 378 218 C388.23 218 398.46 218 409 218 C409.95037732 221.80150927 410.04328688 224.424798 409.87890625 228.296875 C409.81425171 229.92641113 409.81425171 229.92641113 409.74829102 231.58886719 C409.68697998 232.96204102 409.62566895 234.33521484 409.5625 235.75 C409.376875 240.1225 409.19125 244.495 409 249 C418.9 249 428.8 249 439 249 C439 259.89 439 270.78 439 282 C429.1 282 419.2 282 409 282 C409.33 284.31 409.66 286.62 410 289 C410.19459683 292.58319803 410.18501175 296.16193734 410.1875 299.75 C410.19974609 300.69488281 410.21199219 301.63976562 410.22460938 302.61328125 C410.22654297 303.51949219 410.22847656 304.42570312 410.23046875 305.359375 C410.23457764 306.17889648 410.23868652 306.99841797 410.24291992 307.84277344 C410 310 410 310 408 313 C405.00964694 313.28606944 402.22734562 313.37798899 399.23583984 313.34057617 C398.32846573 313.34101425 397.42109161 313.34145233 396.48622131 313.34190369 C393.47757686 313.33980839 390.46948498 313.31644244 387.4609375 313.29296875 C385.37871607 313.28737543 383.2964907 313.28310409 381.21426392 313.28010559 C375.72653353 313.26863603 370.23904031 313.23915067 364.75140381 313.20599365 C359.15461435 313.17533823 353.55778667 313.16160995 347.9609375 313.14648438 C336.97385397 313.11428301 325.98694669 313.06306119 315 313 C315.00785522 314.30203369 315.00785522 314.30203369 315.01586914 315.63037109 C315.03289862 318.84700273 315.04544408 322.06361141 315.05493164 325.28027344 C315.0599643 326.67318477 315.06679098 328.0660908 315.07543945 329.45898438 C315.08755152 331.45961246 315.09270412 333.46027888 315.09765625 335.4609375 C315.10551147 337.26763916 315.10551147 337.26763916 315.11352539 339.11083984 C315 342 315 342 314 344 C304.1 344 294.2 344 284 344 C284.01160156 348.38023437 284.02320313 352.76046875 284.03515625 357.2734375 C284.04158478 360.76057914 284.04700845 364.2477191 284.05175018 367.73486328 C284.05703628 371.41895736 284.06410319 375.10302852 284.07543945 378.78710938 C284.08628493 382.3337896 284.09228037 385.88044757 284.09487724 389.4271431 C284.09672849 390.78196183 284.10034338 392.13677931 284.10573006 393.49158859 C284.11296238 395.38549365 284.11340824 397.27942098 284.11352539 399.17333984 C284.115746 400.25255707 284.11796661 401.33177429 284.12025452 402.44369507 C284 405 284 405 283 407 C273.1 407.33 263.2 407.66 253 408 C253 417.57 253 427.14 253 437 C248.95832327 439.02083837 247.35917366 439.2474674 242.9921875 439.23046875 C241.84105469 439.22853516 240.68992187 439.22660156 239.50390625 439.22460938 C238.30636719 439.21236328 237.10882813 439.20011719 235.875 439.1875 C234.66972656 439.18685547 233.46445312 439.18621094 232.22265625 439.18554688 C223.28077168 439.14038584 223.28077168 439.14038584 221 438 C221 448.23 221 458.46 221 469 C217.12012573 469.77597485 214.1140062 470.13039762 210.23168945 470.14526367 C208.53016472 470.15483345 208.53016472 470.15483345 206.79426575 470.16459656 C205.57954086 470.16570938 204.36481598 470.1668222 203.11328125 470.16796875 C201.85992477 470.17129715 200.6065683 470.17462555 199.31523132 470.17805481 C196.66999752 470.18311211 194.02486656 470.18589662 191.37963867 470.18530273 C187.98661803 470.18520069 184.59380467 470.19890547 181.20083332 470.21607494 C177.96332357 470.22983866 174.72581631 470.22928241 171.48828125 470.23046875 C170.26748367 470.23765427 169.0466861 470.24483978 167.78889465 470.25224304 C166.66400131 470.24916641 165.53910797 470.24608978 164.38012695 470.24291992 C163.38705032 470.24434494 162.39397369 470.24576996 161.37080383 470.24723816 C159 470 159 470 157 468 C156.81168527 465.04725086 156.74832729 462.18897147 156.77294922 459.23583984 C156.77265717 458.32846573 156.77236511 457.42109161 156.77206421 456.48622131 C156.77346102 453.47769714 156.78903872 450.46941858 156.8046875 447.4609375 C156.80841638 445.37871435 156.81126394 443.29648945 156.81326294 441.21426392 C156.82090923 435.72659483 156.84056625 430.23903116 156.8626709 424.75140381 C156.88310791 419.15459621 156.89226006 413.55777163 156.90234375 407.9609375 C156.92381122 396.9739045 156.95900146 385.9869775 157 375 C167.56 375 178.12 375 189 375 C189 364.77 189 354.54 189 344 C168.87 344 148.74 344 128 344 C128 354.23 128 364.46 128 375 C106.88 375 85.76 375 64 375 C64 385.23 64 395.46 64 406 C74.56 406 85.12 406 96 406 C96 416.23 96 426.46 96 437 C106.15713092 436.96040178 106.15713092 436.96040178 116.31420898 436.90991211 C117.57048096 436.90741455 118.82675293 436.90491699 120.12109375 436.90234375 C122.06133423 436.89448853 122.06133423 436.89448853 124.04077148 436.88647461 C127 437 127 437 128 438 C128.09396057 439.93306498 128.11743517 441.86958838 128.11352539 443.80493164 C128.11340454 445.06358032 128.11328369 446.322229 128.11315918 447.61901855 C128.10812272 448.96606495 128.10295608 450.31311087 128.09765625 451.66015625 C128.09664917 452.87795776 128.09564209 454.09575928 128.09460449 455.35046387 C128.08935295 459.92115209 128.07539185 464.49182694 128.0625 469.0625 C128.041875 479.271875 128.02125 489.48125 128 500 C96.32 500 64.64 500 32 500 C32 490.1 32 480.2 32 470 C22.1 470 12.2 470 2 470 C2 479.9 2 489.8 2 500 C-18.79 500 -39.58 500 -61 500 C-61 489.77 -61 479.54 -61 469 C-40.54 469 -20.08 469 1 469 C1 458.77 1 448.54 1 438 C11.56 438 22.12 438 33 438 C33 448.23 33 458.46 33 469 C53.46 469 73.92 469 95 469 C95 458.77 95 448.54 95 438 C84.77 438 74.54 438 64 438 C64 427.77 64 417.54 64 407 C53.44 407 42.88 407 32 407 C32 385.88 32 364.76 32 343 C41.24 343 50.48 343 60 343 C61.32 342.67 62.64 342.34 64 342 C66.46237767 341.91757806 68.92688768 341.89256701 71.390625 341.90234375 C72.44754547 341.90446617 72.44754547 341.90446617 73.52581787 341.90663147 C75.76725584 341.91221067 78.00859243 341.92475927 80.25 341.9375 C81.77343605 341.94251769 83.29687368 341.94708013 84.8203125 341.95117188 C88.54690772 341.96217326 92.27344396 341.97942354 96 342 C95.75660889 340.43644775 95.75660889 340.43644775 95.50830078 338.84130859 C95.08959857 335.67711039 94.87127261 332.72136525 94.8671875 329.5390625 C94.86589844 328.57355469 94.86460937 327.60804688 94.86328125 326.61328125 C94.86714844 325.62714844 94.87101563 324.64101563 94.875 323.625 C94.87113281 322.61566406 94.86726562 321.60632813 94.86328125 320.56640625 C94.86521484 319.12974609 94.86521484 319.12974609 94.8671875 317.6640625 C94.86831543 316.79217285 94.86944336 315.9202832 94.87060547 315.02197266 C95 313 95 313 96 312 C98.92194665 311.90474633 101.82020329 311.87447264 104.74243164 311.88647461 C106.11790413 311.88625557 106.11790413 311.88625557 107.52116394 311.8860321 C110.56751836 311.8867316 113.61381245 311.89452572 116.66015625 311.90234375 C118.76622993 311.9042078 120.87230403 311.90563176 122.9783783 311.90663147 C128.53342883 311.91045769 134.08845341 311.92028886 139.64349365 311.93133545 C145.3072474 311.94154733 150.97100533 311.94612861 156.63476562 311.95117188 C167.75652369 311.96191104 178.87825563 311.97950868 190 312 C190 322.23 190 332.46 190 343 C194.66125 342.979375 199.3225 342.95875 204.125 342.9375 C220.10780259 342.90340202 236.02602968 343.38561653 252 344 C252 333.44 252 322.88 252 312 C262.23 312 272.46 312 283 312 C283 301.77 283 291.54 283 281 C324.58 281 366.16 281 409 281 C409 270.77 409 260.54 409 250 C388.21 250 367.42 250 346 250 C346 218.98 346 187.96 346 156 C335.44 156 324.88 156 314 156 C314 145.77 314 135.54 314 125 C293.54 125 273.08 125 252 125 C252 114.44 252 103.88 252 93 C220.98 93 189.96 93 158 93 C158 82.77 158 72.54 158 62 C137.54 62 117.08 62 96 62 C95.67 51.77 95.34 41.54 95 31 C74.21 30.67 53.42 30.34 32 30 C32.33 40.23 32.66 50.46 33 61 C43.23 61.33 53.46 61.66 64 62 C64 72.23 64 82.46 64 93 C74.23 93 84.46 93 95 93 C95 103.23 95 113.46 95 124 C74.54 124.33 54.08 124.66 33 125 C32.67 134.9 32.34 144.8 32 155 C21.77 155 11.54 155 1 155 C1 144.77 1 134.54 1 124 C11.23 124 21.46 124 32 124 C32 103.54 32 83.08 32 62 C21.77 62 11.54 62 1 62 C0 61 0 61 -0.12025452 58.56394958 C-0.11803391 57.48251175 -0.11581329 56.40107391 -0.11352539 55.28686523 C-0.11340454 54.04851929 -0.11328369 52.81017334 -0.11315918 51.53430176 C-0.10804321 50.22231812 -0.10292725 48.91033447 -0.09765625 47.55859375 C-0.09664917 46.36045044 -0.09564209 45.16230713 -0.09460449 43.92785645 C-0.08935305 39.4310613 -0.07539195 34.93427974 -0.0625 30.4375 C-0.041875 20.393125 -0.02125 10.34875 0 0 Z " fill="#021D2E" transform="translate(61,0)"/>
<path d="M0 0 C8.19690561 -0.0231271 16.39379768 -0.04091696 24.59072781 -0.05181217 C28.39651577 -0.0570402 32.20228148 -0.06413638 36.00805664 -0.07543945 C39.67792544 -0.0862712 43.34777278 -0.09227744 47.01765633 -0.09487724 C48.42074992 -0.09673097 49.82384229 -0.1003506 51.2269268 -0.10573006 C53.1856968 -0.11294419 55.1444882 -0.11340809 57.10327148 -0.11352539 C58.22023911 -0.115746 59.33720673 -0.11796661 60.48802185 -0.12025452 C63 0 63 0 64 1 C64 11.23 64 21.46 64 32 C84.46 32 104.92 32 126 32 C126.33 52.46 126.66 72.92 127 94 C141.85 94.495 141.85 94.495 157 95 C157 105.23 157 115.46 157 126 C167.23 126 177.46 126 188 126 C188 136.23 188 146.46 188 157 C177.77 157 167.54 157 157 157 C157 167.23 157 177.46 157 188 C136.54 188 116.08 188 95 188 C95 198.56 95 209.12 95 220 C63.65 220 32.3 220 0 220 C0 230.23 0 240.46 0 251 C-20.46 251 -40.92 251 -62 251 C-62 230.54 -62 210.08 -62 189 C-51.77 189 -41.54 189 -31 189 C-31.0721875 184.81183594 -31.144375 180.62367188 -31.21875 176.30859375 C-31.27656302 172.86717207 -31.33384903 169.42574247 -31.39079285 165.98430634 C-31.45010869 162.40788872 -31.51024844 158.83149037 -31.57275391 155.25512695 C-31.9229763 135.1679659 -32.0688563 115.09028305 -32 95 C-31.67 95 -31.34 95 -31 95 C-31 104.9 -31 114.8 -31 125 C-20.77 125 -10.54 125 0 125 C-0.03959728 115.17196975 -0.03959728 115.17196975 -0.09008789 105.34399414 C-0.09258545 104.12832764 -0.09508301 102.91266113 -0.09765625 101.66015625 C-0.10289307 100.40855713 -0.10812988 99.15695801 -0.11352539 97.86743164 C0 95 0 95 1 94 C2.93306498 93.90603943 4.86958838 93.88256483 6.80493164 93.88647461 C8.04614273 93.88655014 9.28735382 93.88662567 10.56617737 93.88670349 C11.9308374 93.89181089 13.29549702 93.8970269 14.66015625 93.90234375 C16.04878183 93.904208 17.43740807 93.90563187 18.82603455 93.90663147 C22.48721115 93.91045613 26.1483483 93.92028597 29.80950928 93.93133545 C33.54292253 93.94155068 37.27634233 93.94618403 41.00976562 93.95117188 C48.33987863 93.9613781 55.6698832 93.98094974 63 94 C63 83.77 63 73.54 63 63 C52.77 63 42.54 63 32 63 C32 52.77 32 42.54 32 32 C21.84286908 32.03959822 21.84286908 32.03959822 11.68579102 32.09008789 C10.42951904 32.09258545 9.17324707 32.09508301 7.87890625 32.09765625 C5.93866577 32.10551147 5.93866577 32.10551147 3.95922852 32.11352539 C1 32 1 32 0 31 C-0.08790975 28.70848583 -0.10694038 26.41427476 -0.09765625 24.12109375 C-0.0962413 23.4344313 -0.09482635 22.74776886 -0.09336853 22.04029846 C-0.08775479 19.83932199 -0.07520007 17.63844591 -0.0625 15.4375 C-0.05748676 13.94856917 -0.05292355 12.45963676 -0.04882812 10.97070312 C-0.03778093 7.31376925 -0.02050713 3.65689442 0 0 Z " fill="#3BD5F2" transform="translate(93,30)"/>
<path d="M0 0 C0.87537415 0.00359528 1.75074829 0.00719055 2.65264893 0.01089478 C4.02812141 0.01067574 4.02812141 0.01067574 5.43138123 0.01045227 C8.47773564 0.01115177 11.52402973 0.01894589 14.57037354 0.02676392 C16.67644721 0.02862796 18.78252132 0.03005193 20.88859558 0.03105164 C26.44364612 0.03487786 31.99867069 0.04470903 37.55371094 0.05575562 C43.21746469 0.0659675 48.88122262 0.07054878 54.54498291 0.07559204 C65.66674097 0.08633121 76.78847291 0.10392884 87.91021729 0.12442017 C87.91021729 10.35442017 87.91021729 20.58442017 87.91021729 31.12442017 C97.0901839 31.08577042 97.0901839 31.08577042 106.27008057 31.03433228 C120.82609697 31.00464176 135.36613496 31.58978656 149.91021729 32.12442017 C149.93334465 40.19094191 149.95113438 48.25744989 149.96202946 56.32399654 C149.96725743 60.06925054 149.9743535 63.81448192 149.98565674 67.5597229 C149.99648869 71.17123704 150.00249477 74.78272937 150.00509453 78.3942585 C150.00694822 79.77502346 150.01056778 81.15578717 150.01594734 82.53654289 C150.02316175 84.46417969 150.02362537 86.39183823 150.02374268 88.31948853 C150.02596329 89.41869125 150.0281839 90.51789398 150.0304718 91.65040588 C149.91021729 94.12442017 149.91021729 94.12442017 148.91021729 95.12442017 C146.61870311 95.21232992 144.32449204 95.23136055 142.03131104 95.22207642 C140.77503906 95.21957886 139.51876709 95.2170813 138.22442627 95.21450806 C136.6151123 95.20540405 135.00579834 95.19630005 133.34771729 95.18692017 C128.25334229 95.16629517 123.15896729 95.14567017 117.91021729 95.12442017 C117.91021729 105.35442017 117.91021729 115.58442017 117.91021729 126.12442017 C107.68021729 126.12442017 97.45021729 126.12442017 86.91021729 126.12442017 C86.91021729 95.10442017 86.91021729 64.08442017 86.91021729 32.12442017 C66.78021729 32.12442017 46.65021729 32.12442017 25.91021729 32.12442017 C25.91021729 42.35442017 25.91021729 52.58442017 25.91021729 63.12442017 C4.79021729 63.12442017 -16.32978271 63.12442017 -38.08978271 63.12442017 C-38.08978271 73.35442017 -38.08978271 83.58442017 -38.08978271 94.12442017 C-27.52978271 94.12442017 -16.96978271 94.12442017 -6.08978271 94.12442017 C-6.08978271 104.35442017 -6.08978271 114.58442017 -6.08978271 125.12442017 C4.0673482 125.08482194 4.0673482 125.08482194 14.22442627 125.03433228 C15.48069824 125.03183472 16.73697021 125.02933716 18.03131104 125.02676392 C19.97155151 125.01890869 19.97155151 125.01890869 21.95098877 125.01089478 C24.91021729 125.12442017 24.91021729 125.12442017 25.91021729 126.12442017 C26.00417786 128.05748515 26.02765246 129.99400855 26.02374268 131.92935181 C26.02362183 133.18800049 26.02350098 134.44664917 26.02337646 135.74343872 C26.01834 137.09048512 26.01317337 138.43753103 26.00787354 139.78457642 C26.00686646 141.00237793 26.00585938 142.22017944 26.00482178 143.47488403 C25.99957023 148.04557226 25.98560913 152.61624711 25.97271729 157.18692017 C25.95209229 167.39629517 25.93146729 177.60567017 25.91021729 188.12442017 C-5.76978271 188.12442017 -37.44978271 188.12442017 -70.08978271 188.12442017 C-70.08978271 178.22442017 -70.08978271 168.32442017 -70.08978271 158.12442017 C-79.98978271 158.12442017 -89.88978271 158.12442017 -100.08978271 158.12442017 C-100.08978271 168.02442017 -100.08978271 177.92442017 -100.08978271 188.12442017 C-120.87978271 188.12442017 -141.66978271 188.12442017 -163.08978271 188.12442017 C-163.08978271 177.89442017 -163.08978271 167.66442017 -163.08978271 157.12442017 C-142.62978271 157.12442017 -122.16978271 157.12442017 -101.08978271 157.12442017 C-101.08978271 146.89442017 -101.08978271 136.66442017 -101.08978271 126.12442017 C-90.52978271 126.12442017 -79.96978271 126.12442017 -69.08978271 126.12442017 C-69.08978271 136.35442017 -69.08978271 146.58442017 -69.08978271 157.12442017 C-48.62978271 157.12442017 -28.16978271 157.12442017 -7.08978271 157.12442017 C-7.08978271 146.89442017 -7.08978271 136.66442017 -7.08978271 126.12442017 C-17.31978271 126.12442017 -27.54978271 126.12442017 -38.08978271 126.12442017 C-38.08978271 115.89442017 -38.08978271 105.66442017 -38.08978271 95.12442017 C-48.64978271 95.12442017 -59.20978271 95.12442017 -70.08978271 95.12442017 C-70.08978271 74.00442017 -70.08978271 52.88442017 -70.08978271 31.12442017 C-60.84978271 31.12442017 -51.60978271 31.12442017 -42.08978271 31.12442017 C-40.76978271 30.79442017 -39.44978271 30.46442017 -38.08978271 30.12442017 C-35.62740504 30.04199822 -33.16289504 30.01698718 -30.69915771 30.02676392 C-29.64223724 30.02888634 -29.64223724 30.02888634 -28.56396484 30.03105164 C-26.32252687 30.03663083 -24.08119029 30.04917943 -21.83978271 30.06192017 C-20.31634666 30.06693786 -18.79290904 30.0715003 -17.26947021 30.07559204 C-13.542875 30.08659342 -9.81633876 30.1038437 -6.08978271 30.12442017 C-6.33317383 28.56086792 -6.33317383 28.56086792 -6.58148193 26.96572876 C-7.00018415 23.80153055 -7.2185101 20.84578542 -7.22259521 17.66348267 C-7.22388428 16.69797485 -7.22517334 15.73246704 -7.22650146 14.73770142 C-7.22263428 13.7515686 -7.21876709 12.76543579 -7.21478271 11.74942017 C-7.2186499 10.74008423 -7.22251709 9.73074829 -7.22650146 8.69082642 C-7.22456787 7.25416626 -7.22456787 7.25416626 -7.22259521 5.78848267 C-7.22146729 4.91659302 -7.22033936 4.04470337 -7.21917725 3.14639282 C-6.93808523 -1.24606766 -3.64401532 0.00632244 0 0 Z " fill="#036995" transform="translate(163.08978271484375,311.8755798339844)"/>
<path d="M0 0 C1.72476563 0.00616333 1.72476563 0.00616333 3.484375 0.01245117 C4.7321875 0.01438477 5.98 0.01631836 7.265625 0.01831055 C9.23015625 0.03667969 9.23015625 0.03667969 11.234375 0.05541992 C12.5440625 0.05606445 13.85375 0.05670898 15.203125 0.05737305 C24.95393965 0.10270225 24.95393965 0.10270225 27.234375 1.24291992 C27.234375 22.03291992 27.234375 42.82291992 27.234375 64.24291992 C17.004375 64.24291992 6.774375 64.24291992 -3.765625 64.24291992 C-3.765625 94.93291992 -3.765625 125.62291992 -3.765625 157.24291992 C6.464375 157.24291992 16.694375 157.24291992 27.234375 157.24291992 C27.234375 188.59291992 27.234375 219.94291992 27.234375 252.24291992 C17.004375 252.24291992 6.774375 252.24291992 -3.765625 252.24291992 C-3.765625 262.47291992 -3.765625 272.70291992 -3.765625 283.24291992 C-13.995625 283.24291992 -24.225625 283.24291992 -34.765625 283.24291992 C-34.765625 272.68291992 -34.765625 262.12291992 -34.765625 251.24291992 C-24.865625 251.24291992 -14.965625 251.24291992 -4.765625 251.24291992 C-4.765625 220.55291992 -4.765625 189.86291992 -4.765625 158.24291992 C-14.665625 158.24291992 -24.565625 158.24291992 -34.765625 158.24291992 C-34.765625 126.89291992 -34.765625 95.54291992 -34.765625 63.24291992 C-24.865625 63.24291992 -14.965625 63.24291992 -4.765625 63.24291992 C-4.80042969 56.67256836 -4.80042969 56.67256836 -4.8359375 49.96948242 C-4.84879456 46.48234166 -4.85964188 42.99520757 -4.86912537 39.50805664 C-4.87969767 35.82392643 -4.8938314 32.13988786 -4.91650391 28.45581055 C-4.93819491 24.90912337 -4.95018567 21.3625252 -4.95537949 17.81577682 C-4.959082 16.4609474 -4.96631189 15.10612298 -4.97708511 13.75133133 C-4.99154948 11.85746235 -4.99244149 9.96350428 -4.99267578 8.06958008 C-4.997117 6.99036285 -5.00155823 5.91114563 -5.00613403 4.79922485 C-4.65666185 1.08478034 -3.68189283 0.32340072 0 0 Z " fill="#011D2E" transform="translate(34.765625,154.757080078125)"/>
<path d="M0 0 C10.23 0 20.46 0 31 0 C31 10.23 31 20.46 31 31 C41.56 31 52.12 31 63 31 C63 41.23 63 51.46 63 62 C73.15713092 61.96040178 73.15713092 61.96040178 83.31420898 61.90991211 C84.57048096 61.90741455 85.82675293 61.90491699 87.12109375 61.90234375 C89.06133423 61.89448853 89.06133423 61.89448853 91.04077148 61.88647461 C94 62 94 62 95 63 C95.09396057 64.93306498 95.11743517 66.86958838 95.11352539 68.80493164 C95.11340454 70.06358032 95.11328369 71.322229 95.11315918 72.61901855 C95.10812272 73.96606495 95.10295608 75.31311087 95.09765625 76.66015625 C95.09664917 77.87795776 95.09564209 79.09575928 95.09460449 80.35046387 C95.08935295 84.92115209 95.07539185 89.49182694 95.0625 94.0625 C95.041875 104.271875 95.02125 114.48125 95 125 C63.32 125 31.64 125 -1 125 C-1 115.1 -1 105.2 -1 95 C-10.9 95 -20.8 95 -31 95 C-31 104.9 -31 114.8 -31 125 C-51.79 125 -72.58 125 -94 125 C-94 114.77 -94 104.54 -94 94 C-73.54 94 -53.08 94 -32 94 C-32 83.77 -32 73.54 -32 63 C-21.44 63 -10.88 63 0 63 C0 73.23 0 83.46 0 94 C20.46 94 40.92 94 62 94 C62 83.77 62 73.54 62 63 C51.77 63 41.54 63 31 63 C30.67 52.77 30.34 42.54 30 32 C15.15 31.505 15.15 31.505 0 31 C0 20.77 0 10.54 0 0 Z " fill="#011B2C" transform="translate(94,375)"/>
<path d="M0 0 C10.56 0 21.12 0 32 0 C32 31.02 32 62.04 32 94 C52.79 94 73.58 94 95 94 C95 104.23 95 114.46 95 125 C53.42 125 11.84 125 -31 125 C-31 135.23 -31 145.46 -31 156 C-41.23 156 -51.46 156 -62 156 C-62 166.56 -62 177.12 -62 188 C-71.9 188 -81.8 188 -92 188 C-92 187.67 -92 187.34 -92 187 C-82.43 187 -72.86 187 -63 187 C-63 176.77 -63 166.54 -63 156 C-72.9 156 -82.8 156 -93 156 C-93 148.08 -93 140.16 -93 132 C-92.67 132 -92.34 132 -92 132 C-91.67 139.26 -91.34 146.52 -91 154 C-61.795 154.495 -61.795 154.495 -32 155 C-32.020625 151.143125 -32.04125 147.28625 -32.0625 143.3125 C-32.10336832 126.0600869 -31.7935253 108.81173928 -31.5 91.5625 C-31.48804218 90.85960972 -31.47608437 90.15671944 -31.46376419 89.43252945 C-31.31347043 80.62160708 -31.1572856 71.81080243 -31 63 C-20.77 63 -10.54 63 0 63 C0.33 73.23 0.66 83.46 1 94 C10.9 94 20.8 94 31 94 C31 83.44 31 72.88 31 62 C20.77 62 10.54 62 0 62 C0 41.54 0 21.08 0 0 Z " fill="#05A0D2" transform="translate(375,156)"/>
<path d="M0 0 C31.02 0 62.04 0 94 0 C94 10.23 94 20.46 94 31 C104.23 31 114.46 31 125 31 C125 41.23 125 51.46 125 62 C104.54 62 84.08 62 63 62 C63 51.77 63 41.54 63 31 C52.44 31 41.88 31 31 31 C31 41.23 31 51.46 31 62 C10.54 62 -9.92 62 -31 62 C-31 51.77 -31 41.54 -31 31 C-20.77 31 -10.54 31 0 31 C0 20.77 0 10.54 0 0 Z " fill="#00BBEF" transform="translate(31,407)"/>
<path d="M0 0 C8.19690561 -0.0231271 16.39379768 -0.04091696 24.59072781 -0.05181217 C28.39651577 -0.0570402 32.20228148 -0.06413638 36.00805664 -0.07543945 C39.67792544 -0.0862712 43.34777278 -0.09227744 47.01765633 -0.09487724 C48.42074992 -0.09673097 49.82384229 -0.1003506 51.2269268 -0.10573006 C53.1856968 -0.11294419 55.1444882 -0.11340809 57.10327148 -0.11352539 C58.22023911 -0.115746 59.33720673 -0.11796661 60.48802185 -0.12025452 C63 0 63 0 64 1 C64 11.23 64 21.46 64 32 C84.46 32 104.92 32 126 32 C126 42.23 126 52.46 126 63 C105.54 63 85.08 63 64 63 C64 73.56 64 84.12 64 95 C53.44 95 42.88 95 32 95 C32 105.23 32 115.46 32 126 C11.29037884 126.76348834 -9.27654174 127.09549981 -30 127 C-30 147.13 -30 167.26 -30 188 C-30.33 188 -30.66 188 -31 188 C-31.13358676 180.45165002 -31.26408909 172.9032513 -31.39115143 165.35478878 C-31.45030425 161.84579375 -31.51033594 158.33681945 -31.57275391 154.82788086 C-31.92666419 134.88310975 -32.06813503 114.94797195 -32 95 C-31.67 95 -31.34 95 -31 95 C-31 104.9 -31 114.8 -31 125 C-20.77 125 -10.54 125 0 125 C-0.03959728 115.17196975 -0.03959728 115.17196975 -0.09008789 105.34399414 C-0.09383423 103.52049438 -0.09383423 103.52049438 -0.09765625 101.66015625 C-0.10289307 100.40855713 -0.10812988 99.15695801 -0.11352539 97.86743164 C0 95 0 95 1 94 C2.93306498 93.90603943 4.86958838 93.88256483 6.80493164 93.88647461 C8.66674828 93.88658791 8.66674828 93.88658791 10.56617737 93.88670349 C11.9308374 93.89181089 13.29549702 93.8970269 14.66015625 93.90234375 C16.04878183 93.904208 17.43740807 93.90563187 18.82603455 93.90663147 C22.48721115 93.91045613 26.1483483 93.92028597 29.80950928 93.93133545 C33.54292253 93.94155068 37.27634233 93.94618403 41.00976562 93.95117188 C48.33987863 93.9613781 55.6698832 93.98094974 63 94 C63 83.77 63 73.54 63 63 C52.77 63 42.54 63 32 63 C32 52.77 32 42.54 32 32 C21.84286908 32.03959822 21.84286908 32.03959822 11.68579102 32.09008789 C10.42951904 32.09258545 9.17324707 32.09508301 7.87890625 32.09765625 C5.93866577 32.10551147 5.93866577 32.10551147 3.95922852 32.11352539 C1 32 1 32 0 31 C-0.08790975 28.70848583 -0.10694038 26.41427476 -0.09765625 24.12109375 C-0.0962413 23.4344313 -0.09482635 22.74776886 -0.09336853 22.04029846 C-0.08775479 19.83932199 -0.07520007 17.63844591 -0.0625 15.4375 C-0.05748676 13.94856917 -0.05292355 12.45963676 -0.04882812 10.97070312 C-0.03778093 7.31376925 -0.02050713 3.65689442 0 0 Z " fill="#03BAEE" transform="translate(93,30)"/>
<path d="M0 0 C10.23 0 20.46 0 31 0 C31 20.46 31 40.92 31 62 C41.23 62 51.46 62 62 62 C64.50620146 72.02480583 62.38245383 82.67374672 62 93 C41.54 93 21.08 93 0 93 C0 62.31 0 31.62 0 0 Z " fill="#011B2C" transform="translate(408,156)"/>
<path d="M0 0 C31.02 0 62.04 0 94 0 C94 10.56 94 21.12 94 32 C81.89157724 32.02254957 69.78316831 32.04091424 57.67472935 32.05181217 C52.05292038 32.05704136 46.43112647 32.06413966 40.80932617 32.07543945 C35.38881723 32.08626706 29.9683228 32.09227656 24.54780388 32.09487724 C22.47485055 32.09673172 20.40189806 32.10035277 18.32895088 32.10573006 C15.43616107 32.1129388 12.54343204 32.11399101 9.65063477 32.11352539 C8.78461136 32.11712067 7.91858795 32.12071594 7.02632141 32.12442017 C1.11405216 32.11405216 1.11405216 32.11405216 0 31 C0 20.77 0 10.54 0 0 Z " fill="#03A0D3" transform="translate(219,93)"/>
<path d="M0 0 C8.19690561 -0.0231271 16.39379768 -0.04091696 24.59072781 -0.05181217 C28.39651577 -0.0570402 32.20228148 -0.06413638 36.00805664 -0.07543945 C39.67792544 -0.0862712 43.34777278 -0.09227744 47.01765633 -0.09487724 C48.42074992 -0.09673097 49.82384229 -0.1003506 51.2269268 -0.10573006 C53.1856968 -0.11294419 55.1444882 -0.11340809 57.10327148 -0.11352539 C58.22023911 -0.115746 59.33720673 -0.11796661 60.48802185 -0.12025452 C63 0 63 0 64 1 C64.10108842 2.92754634 64.13082641 4.85886826 64.1328125 6.7890625 C64.13474609 8.02712646 64.13667969 9.26519043 64.13867188 10.54077148 C64.13455182 11.90218238 64.12998382 13.26359199 64.125 14.625 C64.12367065 15.64728195 64.12367065 15.64728195 64.12231445 16.69021606 C64.09886468 32.1415852 63.56927683 47.55836604 63 63 C52.77 63 42.54 63 32 63 C32 52.77 32 42.54 32 32 C21.84286908 32.03959822 21.84286908 32.03959822 11.68579102 32.09008789 C10.42951904 32.09258545 9.17324707 32.09508301 7.87890625 32.09765625 C5.93866577 32.10551147 5.93866577 32.10551147 3.95922852 32.11352539 C1 32 1 32 0 31 C-0.08790975 28.70848583 -0.10694038 26.41427476 -0.09765625 24.12109375 C-0.0962413 23.4344313 -0.09482635 22.74776886 -0.09336853 22.04029846 C-0.08775479 19.83932199 -0.07520007 17.63844591 -0.0625 15.4375 C-0.05748676 13.94856917 -0.05292355 12.45963676 -0.04882812 10.97070312 C-0.03778093 7.31376925 -0.02050713 3.65689442 0 0 Z " fill="#03A0D2" transform="translate(93,30)"/>
<path d="M0 0 C30.69 0 61.38 0 93 0 C93 10.23 93 20.46 93 31 C62.31 31 31.62 31 0 31 C0 20.77 0 10.54 0 0 Z " fill="#01A0D4" transform="translate(157,281)"/>
<path d="M0 0 C10.23 0 20.46 0 31 0 C31 10.23 31 20.46 31 31 C40.9 31 50.8 31 61 31 C61 41.23 61 51.46 61 62 C40.87 62 20.74 62 0 62 C0 41.54 0 21.08 0 0 Z " fill="#3BD5F2" transform="translate(251,281)"/>
<path d="M0 0 C23 0 23 0 30 2 C30 32.36 30 62.72 30 94 C20.18874709 95.96225058 10.00555401 95 0 95 C0 63.65 0 32.3 0 0 Z " fill="#011C2D" transform="translate(0,218)"/>
<path d="M0 0 C0.33 0 0.66 0 1 0 C1 10.23 1 20.46 1 31 C10.9 31 20.8 31 31 31 C31 52.12 31 73.24 31 95 C20.77 95 10.54 95 0 95 C0 63.65 0 32.3 0 0 Z " fill="#039FD2" transform="translate(62,312)"/>
<path d="M0 0 C20.79 0 41.58 0 63 0 C63 10.23 63 20.46 63 31 C42.21 31 21.42 31 0 31 C0 20.77 0 10.54 0 0 Z " fill="#001A2B" transform="translate(125,344)"/>
<path d="M0 0 C21.12 0 42.24 0 64 0 C64 9.9 64 19.8 64 30 C61.74800781 30.06058594 59.49601562 30.12117188 57.17578125 30.18359375 C54.98475088 30.24547541 52.7937675 30.30882476 50.6027832 30.37231445 C49.08492245 30.41551548 47.56701774 30.45720048 46.04907227 30.49731445 C43.86200741 30.55537812 41.67516082 30.61896656 39.48828125 30.68359375 C38.17384033 30.72025146 36.85939941 30.75690918 35.50512695 30.79467773 C32.13698901 30.90785644 32.13698901 30.90785644 29.43164062 31.52734375 C26.41735144 32.11325378 23.67221681 32.00971541 20.60546875 31.87890625 C19.52160889 31.83580322 18.43774902 31.7927002 17.32104492 31.74829102 C15.9569751 31.68697998 14.59290527 31.62566895 13.1875 31.5625 C8.835625 31.376875 4.48375 31.19125 0 31 C0 20.77 0 10.54 0 0 Z " fill="#01A1D5" transform="translate(93,312)"/>
<path d="M0 0 C20.46 0 40.92 0 62 0 C62 10.23 62 20.46 62 31 C41.54 31 21.08 31 0 31 C0 20.77 0 10.54 0 0 Z " fill="#3DD4F0" transform="translate(94,438)"/>
<path d="M0 0 C20.46 0 40.92 0 62 0 C62 10.23 62 20.46 62 31 C41.54 31 21.08 31 0 31 C0 20.77 0 10.54 0 0 Z " fill="#3DD3EF" transform="translate(0,438)"/>
<path d="M0 0 C20.46 0 40.92 0 62 0 C62 10.23 62 20.46 62 31 C41.54 31 21.08 31 0 31 C0 20.77 0 10.54 0 0 Z " fill="#02A0D4" transform="translate(313,125)"/>
<path d="M0 0 C7.92890315 -0.02094515 15.85770665 -0.04098329 23.78661346 -0.05175018 C27.47860391 -0.05704002 31.17057155 -0.06411374 34.86254883 -0.07543945 C38.41570831 -0.08627162 41.96884563 -0.09227753 45.52202034 -0.09487724 C46.88045666 -0.0967309 48.23889171 -0.10035038 49.59731865 -0.10573006 C51.49382223 -0.11294475 53.39034793 -0.11340809 55.28686523 -0.11352539 C56.36830307 -0.115746 57.44974091 -0.11796661 58.56394958 -0.12025452 C61 0 61 0 62 1 C62 10.9 62 20.8 62 31 C41.54 31 21.08 31 0 31 C0 20.77 0 10.54 0 0 Z " fill="#001B2B" transform="translate(313,93)"/>
<path d="M0 0 C10.23 0 20.46 0 31 0 C31 20.13 31 40.26 31 61 C20.77 61 10.54 61 0 61 C0 40.87 0 20.74 0 0 Z " fill="#04A1D4" transform="translate(375,157)"/>
<path d="M0 0 C20.46 0 40.92 0 62 0 C62 9.9 62 19.8 62 30 C41.54 30 21.08 30 0 30 C0 20.1 0 10.2 0 0 Z " fill="#001B2C" transform="translate(0,470)"/>
<path d="M0 0 C20.46 0 40.92 0 62 0 C62 9.9 62 19.8 62 30 C41.54 30 21.08 30 0 30 C0 20.1 0 10.2 0 0 Z " fill="#001B2D" transform="translate(188,313)"/>
<path d="M0 0 C20.46 0 40.92 0 62 0 C62 9.9 62 19.8 62 30 C41.54 30 21.08 30 0 30 C0 20.1 0 10.2 0 0 Z " fill="#3DD4F1" transform="translate(407,250)"/>
<path d="M0 0 C1.06367294 0.0199855 2.12734589 0.03997101 3.22325134 0.06056213 C4.42442093 0.08065842 5.62559052 0.1007547 6.86315918 0.12145996 C8.17042465 0.14849503 9.47769012 0.17553009 10.8245697 0.2033844 C12.16834739 0.22767602 13.51213323 0.25152005 14.85592651 0.27493286 C18.39881155 0.33786928 21.94155274 0.40690857 25.48429871 0.47718811 C29.09700439 0.54778551 32.70981162 0.61270941 36.32261658 0.67799377 C43.4158556 0.80659063 50.5088202 0.94470454 57.60191345 1.08229065 C57.60191345 10.98229065 57.60191345 20.88229065 57.60191345 31.08229065 C37.47191345 31.08229065 17.34191345 31.08229065 -3.39808655 31.08229065 C-3.39808655 0.11660578 -3.39808655 0.11660578 0 0 Z " fill="#011B2C" transform="translate(161.39808654785156,28.917709350585938)"/>
<path d="M0 0 C0.33 0 0.66 0 1 0 C1 20.13 1 40.26 1 61 C11.23 61 21.46 61 32 61 C32 61.33 32 61.66 32 62 C21.77 62 11.54 62 1 62 C1 134.27 1 206.54 1 281 C-9.23 281 -19.46 281 -30 281 C-30 270.44 -30 259.88 -30 249 C-20.1 249 -10.2 249 0 249 C0 218.31 0 187.62 0 156 C-0.99 155.67 -1.98 155.34 -3 155 C-2.01 155 -1.02 155 0 155 C0 124.64 0 94.28 0 63 C-3.465 62.505 -3.465 62.505 -7 62 C-7 61.67 -7 61.34 -7 61 C-4.69 61 -2.38 61 0 61 C0 40.87 0 20.74 0 0 Z " fill="#021F30" transform="translate(30,157)"/>
<path d="M0 0 C0.33 0 0.66 0 1 0 C1 2.97 1 5.94 1 9 C3.97 9 6.94 9 10 9 C10 9.33 10 9.66 10 10 C7.03 10 4.06 10 1 10 C1 20.56 1 31.12 1 42 C-30.02 42 -61.04 42 -93 42 C-93 51.9 -93 61.8 -93 72 C-93.33 72 -93.66 72 -94 72 C-94 62.1 -94 52.2 -94 42 C-114.46 42 -134.92 42 -156 42 C-156 41.67 -156 41.34 -156 41 C-135.54 41 -115.08 41 -94 41 C-94 30.77 -94 20.54 -94 10 C-83.44 10 -72.88 10 -62 10 C-62 20.23 -62 30.46 -62 41 C-41.54 41 -21.08 41 0 41 C0 30.77 0 20.54 0 10 C-10.23 10 -20.46 10 -31 10 C-31 9.67 -31 9.34 -31 9 C-20.77 9 -10.54 9 0 9 C0 6.03 0 3.06 0 0 Z " fill="#031F2F" transform="translate(156,428)"/>
<path d="M0 0 C0.33 0 0.66 0 1 0 C1 10.56 1 21.12 1 32 C-9.56 32 -20.12 32 -31 32 C-31 42.23 -31 52.46 -31 63 C-51.70962116 63.76348834 -72.27654174 64.09549981 -93 64 C-93 84.13 -93 104.26 -93 125 C-93.33 125 -93.66 125 -94 125 C-94.13358676 117.45165002 -94.26408909 109.9032513 -94.39115143 102.35478878 C-94.45030425 98.84579375 -94.51033594 95.33681945 -94.57275391 91.82788086 C-94.92666419 71.88310975 -95.06813503 51.94797195 -95 32 C-94.67 32 -94.34 32 -94 32 C-94 41.9 -94 51.8 -94 62 C-83.77 62 -73.54 62 -63 62 C-63.03959728 52.17196975 -63.03959728 52.17196975 -63.09008789 42.34399414 C-63.09383423 40.52049438 -63.09383423 40.52049438 -63.09765625 38.66015625 C-63.10289307 37.40855713 -63.10812988 36.15695801 -63.11352539 34.86743164 C-63 32 -63 32 -62 31 C-60.06693502 30.90603943 -58.13041162 30.88256483 -56.19506836 30.88647461 C-54.33325172 30.88658791 -54.33325172 30.88658791 -52.43382263 30.88670349 C-51.0691626 30.89181089 -49.70450298 30.8970269 -48.33984375 30.90234375 C-46.95121817 30.904208 -45.56259193 30.90563187 -44.17396545 30.90663147 C-40.51278885 30.91045613 -36.8516517 30.92028597 -33.19049072 30.93133545 C-29.45707747 30.94155068 -25.72365767 30.94618403 -21.99023438 30.95117188 C-14.66012137 30.9613781 -7.3301168 30.98094974 0 31 C0 20.77 0 10.54 0 0 Z " fill="#01A0D4" transform="translate(156,93)"/>
<path d="M0 0 C10.23 0 20.46 0 31 0 C31 10.23 31 20.46 31 31 C41.23 31 51.46 31 62 31 C62 31.33 62 31.66 62 32 C52.1 32 42.2 32 32 32 C32 52.13 32 72.26 32 93 C31.67 93 31.34 93 31 93 C31 72.87 31 52.74 31 32 C20.77 32 10.54 32 0 32 C0 21.44 0 10.88 0 0 Z " fill="#09557C" transform="translate(313,312)"/>
<path d="M0 0 C10.56 0 21.12 0 32 0 C32 10.23 32 20.46 32 31 C21.44 31 10.88 31 0 31 C0 20.77 0 10.54 0 0 Z " fill="#02BBEF" transform="translate(93,407)"/>
<path d="M0 0 C1.25159912 0.00523682 2.50319824 0.01047363 3.79272461 0.01586914 C5.00839111 0.0183667 6.22405762 0.02086426 7.4765625 0.0234375 C9.03366943 0.0325415 10.59077637 0.04164551 12.19506836 0.05102539 C17.12444336 0.07165039 22.05381836 0.09227539 27.13256836 0.11352539 C27.13256836 10.34352539 27.13256836 20.57352539 27.13256836 31.11352539 C6.67256836 31.11352539 -13.78743164 31.11352539 -34.86743164 31.11352539 C-34.86743164 30.78352539 -34.86743164 30.45352539 -34.86743164 30.11352539 C-24.30743164 30.11352539 -13.74743164 30.11352539 -2.86743164 30.11352539 C-3.19743164 27.80352539 -3.52743164 25.49352539 -3.86743164 23.11352539 C-3.95153746 21.2946181 -3.99790672 19.47343715 -4.00024414 17.65258789 C-4.00217773 16.20432617 -4.00217773 16.20432617 -4.00415039 14.72680664 C-4.0002832 13.74067383 -3.99641602 12.75454102 -3.99243164 11.73852539 C-3.99823242 10.22452148 -3.99823242 10.22452148 -4.00415039 8.67993164 C-4.00286133 7.7221582 -4.00157227 6.76438477 -4.00024414 5.77758789 C-3.99911621 4.90569824 -3.99798828 4.03380859 -3.99682617 3.13549805 C-3.79037829 -0.0905422 -3.28150842 0.12991924 0 0 Z " fill="#028FBE" transform="translate(159.867431640625,311.886474609375)"/>
<path d="M0 0 C10.23 0 20.46 0 31 0 C31 10.23 31 20.46 31 31 C20.77 31 10.54 31 0 31 C0 20.77 0 10.54 0 0 Z " fill="#3BD4F1" transform="translate(62,407)"/>
<path d="M0 0 C10.23 0 20.46 0 31 0 C31 10.23 31 20.46 31 31 C20.77 31 10.54 31 0 31 C0 20.77 0 10.54 0 0 Z " fill="#001B2C" transform="translate(250,344)"/>
<path d="M0 0 C10.23 0 20.46 0 31 0 C31 10.23 31 20.46 31 31 C20.77 31 10.54 31 0 31 C0 20.77 0 10.54 0 0 Z " fill="#3BD5F2" transform="translate(219,250)"/>
<path d="M0 0 C10.23 0 20.46 0 31 0 C31 10.23 31 20.46 31 31 C20.77 31 10.54 31 0 31 C0 20.77 0 10.54 0 0 Z " fill="#FEFEFE" transform="translate(344,187)"/>
<path d="M0 0 C10.23 0 20.46 0 31 0 C31 10.23 31 20.46 31 31 C20.77 31 10.54 31 0 31 C0 20.77 0 10.54 0 0 Z " fill="#3DD5F1" transform="translate(313,187)"/>
<path d="M0 0 C10.23 0 20.46 0 31 0 C31 10.23 31 20.46 31 31 C20.77 31 10.54 31 0 31 C0 20.77 0 10.54 0 0 Z " fill="#3CD4F1" transform="translate(344,156)"/>
<path d="M0 0 C10.23 0 20.46 0 31 0 C31 10.23 31 20.46 31 31 C20.77 31 10.54 31 0 31 C0 20.77 0 10.54 0 0 Z " fill="#3BD5F2" transform="translate(125,62)"/>
<path d="M0 0 C10.23 0 20.46 0 31 0 C31 10.23 31 20.46 31 31 C26.070625 31.020625 21.14125 31.04125 16.0625 31.0625 C13.7268396 31.07615601 13.7268396 31.07615601 11.34399414 31.09008789 C9.52049438 31.09383423 9.52049438 31.09383423 7.66015625 31.09765625 C6.40855713 31.10289307 5.15695801 31.10812988 3.86743164 31.11352539 C1 31 1 31 0 30 C-0.08783542 27.78144736 -0.10694609 25.56011504 -0.09765625 23.33984375 C-0.09515869 22.12417725 -0.09266113 20.90851074 -0.09008789 19.65600586 C-0.08098389 18.09889893 -0.07187988 16.54179199 -0.0625 14.9375 C-0.041875 10.008125 -0.02125 5.07875 0 0 Z " fill="#02BBEE" transform="translate(219,94)"/>
<path d="M0 0 C9.57 0 19.14 0 29 0 C29.33 10.56 29.66 21.12 30 32 C19.77 32 9.54 32 -1 32 C-0.67 21.44 -0.34 10.88 0 0 Z " fill="#02BAEE" transform="translate(63,375)"/>
<path d="M0 0 C10.23 0 20.46 0 31 0 C31 9.9 31 19.8 31 30 C20.77 30 10.54 30 0 30 C0 20.1 0 10.2 0 0 Z " fill="#001B2C" transform="translate(376,125)"/>
<path d="M0 0 C10.23 0 20.46 0 31 0 C31 9.9 31 19.8 31 30 C20.77 30 10.54 30 0 30 C0 20.1 0 10.2 0 0 Z " fill="#001B2C" transform="translate(62,125)"/>
<path d="M0 0 C10.23 0 20.46 0 31 0 C31 9.9 31 19.8 31 30 C20.77 30 10.54 30 0 30 C0 20.1 0 10.2 0 0 Z " fill="#3DD4F1" transform="translate(94,31)"/>
<path d="M0 0 C0.66 0.33 1.32 0.66 2 1 C2 11.23 2 21.46 2 32 C12.15713092 31.96040178 12.15713092 31.96040178 22.31420898 31.90991211 C23.57048096 31.90741455 24.82675293 31.90491699 26.12109375 31.90234375 C28.06133423 31.89448853 28.06133423 31.89448853 30.04077148 31.88647461 C33 32 33 32 34 33 C34.08783542 35.21855264 34.10694609 37.43988496 34.09765625 39.66015625 C34.09515869 40.87582275 34.09266113 42.09148926 34.09008789 43.34399414 C34.08098389 44.90110107 34.07187988 46.45820801 34.0625 48.0625 C34.041875 52.991875 34.02125 57.92125 34 63 C44.23 63 54.46 63 65 63 C65 63.33 65 63.66 65 64 C54.77 64 44.54 64 34 64 C34 94.69 34 125.38 34 157 C64.36 157 94.72 157 126 157 C126 157.33 126 157.66 126 158 C95.31 158 64.62 158 33 158 C33 126.98 33 95.96 33 64 C22.44 64 11.88 64 1 64 C1 53.77 1 43.54 1 33 C-19.46 33 -39.92 33 -61 33 C-61 32.67 -61 32.34 -61 32 C-40.54 32 -20.08 32 1 32 C0.67 21.44 0.34 10.88 0 0 Z M2 33 C2 42.9 2 52.8 2 63 C12.23 63 22.46 63 33 63 C33 53.1 33 43.2 33 33 C22.77 33 12.54 33 2 33 Z " fill="#28596D" transform="translate(374,92)"/>
<path d="M0 0 C0.33 0 0.66 0 1 0 C1 10.56 1 21.12 1 32 C-9.56 32 -20.12 32 -31 32 C-31 42.23 -31 52.46 -31 63 C-51.70962116 63.76348834 -72.27654174 64.09549981 -93 64 C-93 84.13 -93 104.26 -93 125 C-93.33 125 -93.66 125 -94 125 C-94.13358676 117.45165002 -94.26408909 109.9032513 -94.39115143 102.35478878 C-94.45030425 98.84579375 -94.51033594 95.33681945 -94.57275391 91.82788086 C-94.92666419 71.88310975 -95.06813503 51.94797195 -95 32 C-94.67 32 -94.34 32 -94 32 C-94 41.9 -94 51.8 -94 62 C-83.77 62 -73.54 62 -63 62 C-63.03959728 52.17196975 -63.03959728 52.17196975 -63.09008789 42.34399414 C-63.09383423 40.52049438 -63.09383423 40.52049438 -63.09765625 38.66015625 C-63.10289307 37.40855713 -63.10812988 36.15695801 -63.11352539 34.86743164 C-63 32 -63 32 -62 31 C-60.06693502 30.90603943 -58.13041162 30.88256483 -56.19506836 30.88647461 C-54.33325172 30.88658791 -54.33325172 30.88658791 -52.43382263 30.88670349 C-51.0691626 30.89181089 -49.70450298 30.8970269 -48.33984375 30.90234375 C-46.95121817 30.904208 -45.56259193 30.90563187 -44.17396545 30.90663147 C-40.51278885 30.91045613 -36.8516517 30.92028597 -33.19049072 30.93133545 C-29.45707747 30.94155068 -25.72365767 30.94618403 -21.99023438 30.95117188 C-14.66012137 30.9613781 -7.3301168 30.98094974 0 31 C0 20.77 0 10.54 0 0 Z M-61 33 C-61.020625 37.599375 -61.04125 42.19875 -61.0625 46.9375 C-61.071604 48.39019287 -61.08070801 49.84288574 -61.09008789 51.33959961 C-61.09258545 52.47405518 -61.09508301 53.60851074 -61.09765625 54.77734375 C-61.10289307 55.94515381 -61.10812988 57.11296387 -61.11352539 58.31616211 C-61.30661495 60.91891551 -61.30661495 60.91891551 -60 62 C-57.92737924 62.08767112 -55.85179706 62.10695873 -53.77734375 62.09765625 C-52.64288818 62.09515869 -51.50843262 62.09266113 -50.33959961 62.09008789 C-48.88690674 62.08098389 -47.43421387 62.07187988 -45.9375 62.0625 C-41.338125 62.041875 -36.73875 62.02125 -32 62 C-32 52.43 -32 42.86 -32 33 C-41.57 33 -51.14 33 -61 33 Z " fill="#248CAA" transform="translate(156,93)"/>
<path d="M0 0 C0.33 0 0.66 0 1 0 C1 9.9 1 19.8 1 30 C3.81200928 29.99476318 6.62401855 29.98952637 9.52124023 29.98413086 C18.78924656 29.96759626 28.05725351 29.9565293 37.32527065 29.94818783 C42.94707962 29.94295864 48.56887353 29.93586034 54.19067383 29.92456055 C59.61118277 29.91373294 65.0316772 29.90772344 70.45219612 29.90512276 C72.52514945 29.90326828 74.59810194 29.89964723 76.67104912 29.89426994 C79.56383893 29.8870612 82.45656796 29.88600899 85.34936523 29.88647461 C86.64840034 29.8810817 86.64840034 29.8810817 87.97367859 29.87557983 C93.88594784 29.88594784 93.88594784 29.88594784 95 31 C95.08783542 33.21855264 95.10694609 35.43988496 95.09765625 37.66015625 C95.09515869 38.87582275 95.09266113 40.09148926 95.09008789 41.34399414 C95.08098389 42.90110107 95.07187988 44.45820801 95.0625 46.0625 C95.041875 50.991875 95.02125 55.92125 95 61 C113.81 61 132.62 61 152 61 C152 61.33 152 61.66 152 62 C101.84 62 51.68 62 0 62 C0 51.77 0 41.54 0 31 C-20.46 31 -40.92 31 -62 31 C-62 30.67 -62 30.34 -62 30 C-41.54 30 -21.08 30 0 30 C0 20.1 0 10.2 0 0 Z M1 31 C1 40.9 1 50.8 1 61 C31.69 61 62.38 61 94 61 C94 51.1 94 41.2 94 31 C63.31 31 32.62 31 1 31 Z " fill="#356174" transform="translate(219,31)"/>
<path d="M0 0 C0.33 0 0.66 0 1 0 C1 20.13 1 40.26 1 61 C11.23 61 21.46 61 32 61 C32 61.33 32 61.66 32 62 C21.77 62 11.54 62 1 62 C1 124.04 1 186.08 1 250 C0.34 249.67 -0.32 249.34 -1 249 C-0.67 218.31 -0.34 187.62 0 156 C-0.99 155.67 -1.98 155.34 -3 155 C-2.01 155 -1.02 155 0 155 C0 124.64 0 94.28 0 63 C-2.31 62.67 -4.62 62.34 -7 62 C-7 61.67 -7 61.34 -7 61 C-4.69 61 -2.38 61 0 61 C0 40.87 0 20.74 0 0 Z " fill="#456D7D" transform="translate(30,157)"/>
<path d="M0 0 C0.66 0.33 1.32 0.66 2 1 C2 11.23 2 21.46 2 32 C12.23 32 22.46 32 33 32 C33 32.33 33 32.66 33 33 C22.77 33 12.54 33 2 33 C2 42.9 2 52.8 2 63 C12.23 63 22.46 63 33 63 C33 63.33 33 63.66 33 64 C22.44 64 11.88 64 1 64 C1 53.77 1 43.54 1 33 C-19.46 33 -39.92 33 -61 33 C-61 32.67 -61 32.34 -61 32 C-40.54 32 -20.08 32 1 32 C0.67 21.44 0.34 10.88 0 0 Z " fill="#19526A" transform="translate(374,92)"/>
<path d="M0 0 C0.33 0 0.66 0 1 0 C1 2.97 1 5.94 1 9 C3.97 9 6.94 9 10 9 C10 9.33 10 9.66 10 10 C7.03 10 4.06 10 1 10 C1 20.56 1 31.12 1 42 C-22.76 42 -46.52 42 -71 42 C-71 41.67 -71 41.34 -71 41 C-68.36 41 -65.72 41 -63 41 C-63 30.77 -63 20.54 -63 10 C-62.67 10 -62.34 10 -62 10 C-62 20.23 -62 30.46 -62 41 C-41.54 41 -21.08 41 0 41 C0 30.77 0 20.54 0 10 C-10.23 10 -20.46 10 -31 10 C-31 9.67 -31 9.34 -31 9 C-20.77 9 -10.54 9 0 9 C0 6.03 0 3.06 0 0 Z " fill="#1F6377" transform="translate(156,428)"/>
<path d="M0 0 C10.23 0 20.46 0 31 0 C31 10.23 31 20.46 31 31 C20.77 31 10.54 31 0 31 C0 20.77 0 10.54 0 0 Z M1 2 C0.979375 5.8775 0.95875 9.755 0.9375 13.75 C0.928396 14.96655273 0.91929199 16.18310547 0.90991211 17.43652344 C0.90741455 18.40106445 0.90491699 19.36560547 0.90234375 20.359375 C0.89710693 21.34389648 0.89187012 22.32841797 0.88647461 23.34277344 C0.921822 26.25651797 0.921822 26.25651797 2 30 C10.91 30 19.82 30 29 30 C29 20.76 29 11.52 29 2 C19.76 2 10.52 2 1 2 Z " fill="#DCFDFF" transform="translate(344,187)"/>
<path d="M0 0 C0.33 0 0.66 0 1 0 C1 10.56 1 21.12 1 32 C-2.53701508 32.88425377 -4.98567849 33.09361579 -8.5703125 33.02734375 C-9.63121094 33.01509766 -10.69210937 33.00285156 -11.78515625 32.99023438 C-14.01959417 32.95495378 -16.25397506 32.91586459 -18.48828125 32.87304688 C-19.54660156 32.86208984 -20.60492188 32.85113281 -21.6953125 32.83984375 C-22.66484863 32.82300537 -23.63438477 32.80616699 -24.63330078 32.78881836 C-27.18951262 32.76187082 -27.18951262 32.76187082 -29 35 C-29.33185344 37.54759247 -29.33185344 37.54759247 -29.31884766 40.55126953 C-29.33871735 41.71232208 -29.35858704 42.87337463 -29.37905884 44.0696106 C-29.39061005 45.32796722 -29.40216125 46.58632385 -29.4140625 47.8828125 C-29.43342865 49.16735321 -29.4527948 50.45189392 -29.4727478 51.77536011 C-29.52413941 55.19147535 -29.56372714 58.60763007 -29.60089111 62.02392578 C-29.64088697 65.50953958 -29.69189178 68.99499086 -29.7421875 72.48046875 C-29.84007348 79.3202514 -29.91952825 86.15990128 -30 93 C-20.1 93 -10.2 93 0 93 C0 93.33 0 93.66 0 94 C-10.23 94 -20.46 94 -31 94 C-31 73.21 -31 52.42 -31 31 C-20.77 31 -10.54 31 0 31 C0 20.77 0 10.54 0 0 Z " fill="#064265" transform="translate(281,344)"/>
<path d="M0 0 C15.68254445 -0.04010881 15.68254445 -0.04010881 22.34570312 -0.04882812 C26.89983275 -0.05481573 31.45394235 -0.06191383 36.00805664 -0.07543945 C39.67792544 -0.0862712 43.34777278 -0.09227744 47.01765633 -0.09487724 C48.42074992 -0.09673097 49.82384229 -0.1003506 51.2269268 -0.10573006 C53.1856968 -0.11294419 55.1444882 -0.11340809 57.10327148 -0.11352539 C58.22023911 -0.115746 59.33720673 -0.11796661 60.48802185 -0.12025452 C63 0 63 0 64 1 C64.08783542 3.21855264 64.10694609 5.43988496 64.09765625 7.66015625 C64.0962413 8.32462265 64.09482635 8.98908905 64.09336853 9.6736908 C64.08775518 11.80333899 64.07520054 13.93288339 64.0625 16.0625 C64.05748671 17.50325369 64.05292351 18.94400903 64.04882812 20.38476562 C64.03778145 23.92321102 64.02050792 27.46159539 64 31 C63.34 31 62.68 31 62 31 C62 21.43 62 11.86 62 2 C31.805 1.505 31.805 1.505 1 1 C1 10.9 1 20.8 1 31 C0.67 31 0.34 31 0 31 C0 20.77 0 10.54 0 0 Z " fill="#1882A2" transform="translate(93,30)"/>
<path d="M0 0 C10.23 0 20.46 0 31 0 C31 0.99 31 1.98 31 3 C30.25492188 2.83628906 29.50984375 2.67257812 28.7421875 2.50390625 C23.52697975 1.80164967 18.37970775 1.89576079 13.125 1.9375 C9.45375 1.958125 5.7825 1.97875 2 2 C2 11.24 2 20.48 2 30 C11.57 30 21.14 30 31 30 C31 30.33 31 30.66 31 31 C20.77 31 10.54 31 0 31 C0 20.77 0 10.54 0 0 Z " fill="#0DBAE9" transform="translate(31,407)"/>
<path d="M0 0 C1.32 0 2.64 0 4 0 C4 20.46 4 40.92 4 62 C3.34 62 2.68 62 2 62 C1.12266126 56.72377017 0.85313847 51.65588284 0.8671875 46.3125 C0.86623077 45.49233398 0.86527405 44.67216797 0.86428833 43.82714844 C0.86361076 42.0958651 0.86543539 40.36457917 0.86962891 38.63330078 C0.87492775 36.03542077 0.86969819 33.43771805 0.86328125 30.83984375 C0.85970382 20.84880828 1.17198547 10.95880802 2 1 C1.34 0.67 0.68 0.34 0 0 Z " fill="#505D64" transform="translate(185,438)"/>
<path d="M0 0 C0.99 0 1.98 0 3 0 C3.33 19.8 3.66 39.6 4 60 C6.73678725 61.36839363 9.04264424 61.21634818 12.1015625 61.31640625 C13.31328125 61.35830078 14.525 61.40019531 15.7734375 61.44335938 C17.04445312 61.48267578 18.31546875 61.52199219 19.625 61.5625 C20.90375 61.60568359 22.1825 61.64886719 23.5 61.69335938 C26.66655348 61.79969886 29.83318753 61.90172833 33 62 C33 62.33 33 62.66 33 63 C12.32003178 63.84518131 -8.30414535 64.13342894 -29 64 C-29 63.67 -29 63.34 -29 63 C-18.77 63 -8.54 63 2 63 C2 42.54 2 22.08 2 1 C1.34 0.67 0.68 0.34 0 0 Z " fill="#1A303D" transform="translate(91,61)"/>
<path d="M0 0 C0.33 0 0.66 0 1 0 C1 10.23 1 20.46 1 31 C1.66 31.33 2.32 31.66 3 32 C2.34 32 1.68 32 1 32 C1 41.9 1 51.8 1 62 C0.67 62 0.34 62 0 62 C0 52.1 0 42.2 0 32 C-20.46 32 -40.92 32 -62 32 C-62 31.67 -62 31.34 -62 31 C-41.54 31 -21.08 31 0 31 C0 20.77 0 10.54 0 0 Z " fill="#1D5568" transform="translate(62,438)"/>
<path d="M0 0 C9.57 0 19.14 0 29 0 C29 0.33 29 0.66 29 1 C28.21761963 1.02505615 27.43523926 1.0501123 26.62915039 1.07592773 C23.10675051 1.19149788 19.5846444 1.31439949 16.0625 1.4375 C14.83080078 1.47681641 13.59910156 1.51613281 12.33007812 1.55664062 C10.5753418 1.61948242 10.5753418 1.61948242 8.78515625 1.68359375 C7.15912476 1.73858032 7.15912476 1.73858032 5.50024414 1.79467773 C3.060737 1.72364265 3.060737 1.72364265 2 3 C1.84174742 4.99782126 1.74880829 7.00088834 1.68359375 9.00390625 C1.64169922 10.21884766 1.59980469 11.43378906 1.55664062 12.68554688 C1.51732422 13.96494141 1.47800781 15.24433594 1.4375 16.5625 C1.39431641 17.84576172 1.35113281 19.12902344 1.30664062 20.45117188 C1.200152 23.63399853 1.09814038 26.81690674 1 30 C1.74121094 29.99476318 2.48242188 29.98952637 3.24609375 29.98413086 C23.18881259 29.863608 43.07144005 30.25678055 63 31 C63 31.33 63 31.66 63 32 C41.9647595 32.13074112 21.0241958 31.81252931 0 31 C0 20.77 0 10.54 0 0 Z " fill="#0C2B40" transform="translate(94,375)"/>
<path d="M0 0 C0.33 0 0.66 0 1 0 C1 10.56 1 21.12 1 32 C-9.23 32 -19.46 32 -30 32 C-30 31.34 -30 30.68 -30 30 C-20.43 30 -10.86 30 -1 30 C-1.03959626 20.50107036 -1.03959626 20.50107036 -1.09008789 11.00219727 C-1.09258545 9.82713623 -1.09508301 8.6520752 -1.09765625 7.44140625 C-1.10289307 6.23170166 -1.10812988 5.02199707 -1.11352539 3.77563477 C-1 1 -1 1 0 0 Z " fill="#127FA4" transform="translate(124,343)"/>
<path d="M0 0 C0.66 0 1.32 0 2 0 C2.33 9.24 2.66 18.48 3 28 C16.365 28.495 16.365 28.495 30 29 C30.33 29.66 30.66 30.32 31 31 C20.77 31 10.54 31 0 31 C0 20.77 0 10.54 0 0 Z " fill="#49C2DB" transform="translate(125,62)"/>
<path d="M0 0 C0.33 0 0.66 0 1 0 C1.02465504 4.39656173 1.04283842 8.7930872 1.05493164 13.18969727 C1.05997121 14.68644918 1.06680287 16.18319616 1.07543945 17.67993164 C1.08752159 19.82699807 1.09323191 21.97399962 1.09765625 24.12109375 C1.10551147 26.06133423 1.10551147 26.06133423 1.11352539 28.04077148 C1 31 1 31 0 32 C-2.21855264 32.08783542 -4.43988496 32.10694609 -6.66015625 32.09765625 C-7.65685585 32.09553383 -7.65685585 32.09553383 -8.6736908 32.09336853 C-10.80333899 32.08775518 -12.93288339 32.07520054 -15.0625 32.0625 C-16.50325369 32.05748671 -17.94400903 32.05292351 -19.38476562 32.04882812 C-22.92321102 32.03778145 -26.46159539 32.02050792 -30 32 C-30 31.67 -30 31.34 -30 31 C-24.23900697 29.83010551 -18.4809405 29.66795959 -12.625 29.4375 C-11.60277344 29.39431641 -10.58054687 29.35113281 -9.52734375 29.30664062 C-7.01834712 29.20112208 -4.50926057 29.09900787 -2 29 C-1.97494385 28.44127197 -1.9498877 27.88254395 -1.92407227 27.30688477 C-1.80656895 24.72527572 -1.6845562 22.14389764 -1.5625 19.5625 C-1.52318359 18.68400391 -1.48386719 17.80550781 -1.44335938 16.90039062 C-1.17137332 11.23052738 -0.68222355 5.63551047 0 0 Z " fill="#074566" transform="translate(312,375)"/>
<path d="M0 0 C0.33 0 0.66 0 1 0 C1.00142502 1.13117249 1.00285004 2.26234497 1.00431824 3.42779541 C1.02097825 14.08123573 1.06372135 24.73429359 1.13209057 35.38753128 C1.16640061 40.86469259 1.19147681 46.34157378 1.19555664 51.81884766 C1.19983095 57.10348441 1.22822175 62.38748882 1.27343178 67.67192841 C1.28643455 69.68933176 1.29070467 71.70681067 1.28615379 73.72425079 C1.28126756 76.54765845 1.30725177 79.36920387 1.34057617 82.19238281 C1.33195053 83.02891891 1.32332489 83.86545502 1.31443787 84.7273407 C1.39590901 88.83720547 1.58230256 90.58078016 4.54121399 93.55047607 C5.35261337 94.02881897 6.16401276 94.50716187 7 95 C4.625 95.125 4.625 95.125 2 95 C-0.64253109 92.35746891 -0.23625334 90.44436576 -0.24884033 86.84925842 C-0.24164978 85.98683029 -0.23445923 85.12440216 -0.22705078 84.23583984 C-0.22734283 83.32846573 -0.22763489 82.42109161 -0.22793579 81.48622131 C-0.22653898 78.47769714 -0.21096128 75.46941858 -0.1953125 72.4609375 C-0.19158362 70.37871435 -0.18873606 68.29648945 -0.18673706 66.21426392 C-0.17909077 60.72659483 -0.15943375 55.23903116 -0.1373291 49.75140381 C-0.11689209 44.15459621 -0.10773994 38.55777163 -0.09765625 32.9609375 C-0.07618879 21.97391195 -0.04204086 10.98696473 0 0 Z " fill="#9BA5A9" transform="translate(218,375)"/>
<path d="M0 0 C5.3748385 8.06225775 2 19.3103721 2 29 C31.7 29.495 31.7 29.495 62 30 C62 30.33 62 30.66 62 31 C41.54 31 21.08 31 0 31 C0 20.77 0 10.54 0 0 Z " fill="#00253C" transform="translate(313,93)"/>
<path d="M0 0 C20.79 0 41.58 0 63 0 C62.34 0.33 61.68 0.66 61 1 C60.67 1.99 60.34 2.98 60 4 C60 3.01 60 2.02 60 1 C52.58529939 1.1073591 45.17069825 1.21996304 37.75618076 1.33933926 C34.3136426 1.3945988 30.871096 1.44802347 27.4284668 1.49731445 C23.47435474 1.55400801 19.52039056 1.61857495 15.56640625 1.68359375 C14.32476212 1.70030624 13.08311798 1.71701874 11.80384827 1.73423767 C10.66274094 1.75418289 9.52163361 1.77412811 8.34594727 1.79467773 C7.335569 1.81022202 6.32519073 1.8257663 5.28419495 1.84178162 C3.03470111 1.7464473 3.03470111 1.7464473 2 3 C1.93707296 4.75801234 1.94065634 6.51849663 1.97265625 8.27734375 C1.98490234 9.34791016 1.99714844 10.41847656 2.00976562 11.52148438 C2.04486257 13.79498655 2.08391178 16.06843122 2.12695312 18.34179688 C2.13791016 19.41365234 2.14886719 20.48550781 2.16015625 21.58984375 C2.17699463 22.57847412 2.19383301 23.56710449 2.21118164 24.58569336 C2 27 2 27 0 29 C0 19.43 0 9.86 0 0 Z " fill="#00213A" transform="translate(125,344)"/>
<path d="M0 0 C10.23 0 20.46 0 31 0 C31 10.23 31 20.46 31 31 C29.35 30.67 27.7 30.34 26 30 C26.66 29.67 27.32 29.34 28 29 C28.33 19.76 28.66 10.52 29 1 C19.43 1 9.86 1 0 1 C0 0.67 0 0.34 0 0 Z " fill="#18A9D2" transform="translate(94,407)"/>
<path d="M0 0 C1.32 0.33 2.64 0.66 4 1 C3.67 1.33 3.34 1.66 3 2 C2.8415735 4.0708472 2.74875578 6.14678029 2.68359375 8.22265625 C2.64548584 9.35711182 2.60737793 10.49156738 2.56811523 11.66040039 C2.52501221 13.11309326 2.48190918 14.56578613 2.4375 16.0625 C2.293125 20.661875 2.14875 25.26125 2 30 C11.57 30 21.14 30 31 30 C31 30.33 31 30.66 31 31 C20.77 31 10.54 31 0 31 C0 20.77 0 10.54 0 0 Z " fill="#0CBDEB" transform="translate(250,125)"/>
<path d="M0 0 C10.23 0 20.46 0 31 0 C26.23296541 2.3835173 23.07784176 3.12835955 17.796875 3.09765625 C16.91354492 3.09515869 16.03021484 3.09266113 15.12011719 3.09008789 C13.45190918 3.07643188 13.45190918 3.07643188 11.75 3.0625 C8.2025 3.041875 4.655 3.02125 1 3 C1.33 11.91 1.66 20.82 2 30 C1.34 30.33 0.68 30.66 0 31 C0 20.77 0 10.54 0 0 Z " fill="#2ED3F8" transform="translate(313,187)"/>
<path d="M0 0 C0.33 0 0.66 0 1 0 C1 1.98 1 3.96 1 6 C-8.9 6 -18.8 6 -29 6 C-27.68 5.34 -26.36 4.68 -25 4 C-24.67 3.67 -24.34 3.34 -24 3 C-22.21928754 2.91273777 -20.4351686 2.89300959 -18.65234375 2.90234375 C-17.57275391 2.90556641 -16.49316406 2.90878906 -15.38085938 2.91210938 C-13.67639648 2.92467773 -13.67639648 2.92467773 -11.9375 2.9375 C-10.22723633 2.94426758 -10.22723633 2.94426758 -8.48242188 2.95117188 C-5.65489649 2.96300253 -2.8274736 2.9794859 0 3 C0 2.01 0 1.02 0 0 Z " fill="#002137" transform="translate(280,369)"/>
<path d="M0 0 C7.59 0 15.18 0 23 0 C23 0.33 23 0.66 23 1 C12.605 1.495 12.605 1.495 2 2 C2.02320313 3.68609375 2.04640625 5.3721875 2.0703125 7.109375 C2.08907129 9.32291224 2.10727137 11.53645427 2.125 13.75 C2.14175781 14.86117188 2.15851563 15.97234375 2.17578125 17.1171875 C2.18222656 18.18710937 2.18867188 19.25703125 2.1953125 20.359375 C2.20578613 21.34389648 2.21625977 22.32841797 2.22705078 23.34277344 C2 26 2 26 0 30 C0 20.1 0 10.2 0 0 Z " fill="#002843" transform="translate(281,407)"/>
<path d="M0 0 C1.98 0 3.96 0 6 0 C5.67 0.66 5.34 1.32 5 2 C4.01 2 3.02 2 2 2 C2.00523682 2.77714355 2.01047363 3.55428711 2.01586914 4.35498047 C2.03660156 7.86164549 2.04964821 11.36829763 2.0625 14.875 C2.07087891 16.09832031 2.07925781 17.32164062 2.08789062 18.58203125 C2.09111328 19.74863281 2.09433594 20.91523438 2.09765625 22.1171875 C2.10289307 23.19597168 2.10812988 24.27475586 2.11352539 25.38623047 C2 28 2 28 1 30 C10.9 30 20.8 30 31 30 C31 30.33 31 30.66 31 31 C20.77 31 10.54 31 0 31 C0 20.77 0 10.54 0 0 Z " fill="#2DD0F8" transform="translate(219,250)"/>
<path d="M0 0 C0.33 0 0.66 0 1 0 C1 10.56 1 21.12 1 32 C-2.52756511 32.88189128 -4.96164709 33.09384567 -8.53515625 33.02734375 C-9.59154297 33.01509766 -10.64792969 33.00285156 -11.73632812 32.99023438 C-13.95774655 32.95501518 -16.1791071 32.91593883 -18.40039062 32.87304688 C-19.45548828 32.86208984 -20.51058594 32.85113281 -21.59765625 32.83984375 C-22.56195557 32.82300537 -23.52625488 32.80616699 -24.51977539 32.78881836 C-27.25356887 32.82085548 -27.25356887 32.82085548 -30 35 C-30 33.68 -30 32.36 -30 31 C-20.1 31 -10.2 31 0 31 C0 20.77 0 10.54 0 0 Z " fill="#074E6E" transform="translate(281,344)"/>
<path d="M0 0 C10.23 0 20.46 0 31 0 C31 0.99 31 1.98 31 3 C30.29786377 2.84152588 29.59572754 2.68305176 28.87231445 2.51977539 C25.89552459 1.98109408 23.06516197 1.79208274 20.04296875 1.68359375 C19.04031982 1.64548584 18.0376709 1.60737793 17.00463867 1.56811523 C15.11515503 1.50346069 15.11515503 1.50346069 13.1875 1.4375 C7.1546875 1.2209375 7.1546875 1.2209375 1 1 C1 10.9 1 20.8 1 31 C0.67 31 0.34 31 0 31 C0 20.77 0 10.54 0 0 Z " fill="#19A8D3" transform="translate(31,407)"/>
<path d="M0 0 C0.33 0 0.66 0 1 0 C1.33 6.6 1.66 13.2 2 20 C5.17509982 21.05836661 7.64282383 21.20243789 10.98046875 21.31640625 C12.14384766 21.35830078 13.30722656 21.40019531 14.50585938 21.44335938 C15.72080078 21.48267578 16.93574219 21.52199219 18.1875 21.5625 C19.41404297 21.60568359 20.64058594 21.64886719 21.90429688 21.69335938 C24.93608381 21.7995309 27.96795315 21.90157952 31 22 C31 22.33 31 22.66 31 23 C20.77 23 10.54 23 0 23 C0 15.41 0 7.82 0 0 Z " fill="#4ACFE9" transform="translate(251,320)"/>
<path d="M0 0 C8.25 0 16.5 0 25 0 C25.33 1.32 25.66 2.64 26 4 C24.63875 3.4121875 24.63875 3.4121875 23.25 2.8125 C22.1775 2.544375 21.105 2.27625 20 2 C17.73242436 3.28350327 17.73242436 3.28350327 16 5 C15.34 5 14.68 5 14 5 C13.67 4.01 13.34 3.02 13 2 C8.71 1.67 4.42 1.34 0 1 C0 0.67 0 0.34 0 0 Z " fill="#283946" transform="translate(445,218)"/>
<path d="M0 0 C0.33 1.32 0.66 2.64 1 4 C-8.24 4 -17.48 4 -27 4 C-26.67 3.34 -26.34 2.68 -26 2 C-25.28344238 2.01047363 -24.56688477 2.02094727 -23.82861328 2.03173828 C-20.59411095 2.07321299 -17.35966447 2.09929892 -14.125 2.125 C-12.99707031 2.14175781 -11.86914062 2.15851563 -10.70703125 2.17578125 C-9.09248047 2.18544922 -9.09248047 2.18544922 -7.4453125 2.1953125 C-5.95281982 2.21102295 -5.95281982 2.21102295 -4.43017578 2.22705078 C-1.81828583 2.24379401 -1.81828583 2.24379401 0 0 Z " fill="#30D6FA" transform="translate(280,183)"/>
<path d="M0 0 C0.33 0 0.66 0 1 0 C1 9.57 1 19.14 1 29 C-0.32 28.67 -1.64 28.34 -3 28 C-2.34 27.34 -1.68 26.68 -1 26 C-0.62792646 23.28384136 -0.62792646 23.28384136 -0.5859375 20.1171875 C-0.54726562 18.95058594 -0.50859375 17.78398437 -0.46875 16.58203125 C-0.4378125 15.35871094 -0.406875 14.13539063 -0.375 12.875 C-0.33632812 11.64394531 -0.29765625 10.41289062 -0.2578125 9.14453125 C-0.1633001 6.09650624 -0.07774506 3.04849138 0 0 Z " fill="#33D6FC" transform="translate(249,189)"/>
<path d="M0 0 C0.33 0 0.66 0 1 0 C1.00410889 0.61520508 1.00821777 1.23041016 1.01245117 1.86425781 C1.04541296 4.66047231 1.11605576 7.45451504 1.1875 10.25 C1.19330078 11.21808594 1.19910156 12.18617188 1.20507812 13.18359375 C1.27783179 19.02791017 1.27783179 19.02791017 4.55078125 23.671875 C5.35902344 24.11015625 6.16726562 24.5484375 7 25 C4.625 25.125 4.625 25.125 2 25 C0 23 0 23 -0.22705078 20.66162109 C-0.21657715 19.70852051 -0.20610352 18.75541992 -0.1953125 17.7734375 C-0.18886719 16.7421875 -0.18242187 15.7109375 -0.17578125 14.6484375 C-0.15902344 13.56820313 -0.14226562 12.48796875 -0.125 11.375 C-0.11597656 10.28703125 -0.10695312 9.1990625 -0.09765625 8.078125 C-0.07403409 5.38519848 -0.04109556 2.69270745 0 0 Z " fill="#889697" transform="translate(218,445)"/>
<path d="M0 0 C8.91 0 17.82 0 27 0 C27 0.33 27 0.66 27 1 C25.9330188 1.029729 25.9330188 1.029729 24.84448242 1.06005859 C21.62511184 1.15524867 18.4063955 1.26495229 15.1875 1.375 C14.06794922 1.4059375 12.94839844 1.436875 11.79492188 1.46875 C10.18520508 1.52675781 10.18520508 1.52675781 8.54296875 1.5859375 C7.0583313 1.63306885 7.0583313 1.63306885 5.54370117 1.68115234 C2.75924906 1.83773433 2.75924906 1.83773433 0 4 C0 2.68 0 1.36 0 0 Z " fill="#05B7E5" transform="translate(251,188)"/>
<path d="M0 0 C0.33 1.65 0.66 3.3 1 5 C-1.31 5.33 -3.62 5.66 -6 6 C-6 5.01 -6 4.02 -6 3 C-2.66666667 0 -2.66666667 0 0 0 Z " fill="#172D3B" transform="translate(470,282)"/>
</svg>
