<?xml version="1.0" encoding="UTF-8"?>
<svg version="1.1" xmlns="http://www.w3.org/2000/svg" width="500" height="500">
<path d="M0 0 C62.37 0 124.74 0 189 0 C189 9.9 189 19.8 189 30 C193.46402344 29.98839844 197.92804688 29.97679688 202.52734375 29.96484375 C206.07736432 29.9584169 209.62738325 29.95299264 213.17740631 29.94824982 C216.93005024 29.94295992 220.68267175 29.93588609 224.43530273 29.92456055 C228.04681687 29.91372859 231.65830921 29.90772251 235.26983833 29.90512276 C236.65060329 29.90326906 238.031367 29.89964951 239.41212273 29.89426994 C241.33975952 29.88705553 243.26741807 29.88659191 245.19506836 29.88647461 C246.29427109 29.884254 247.39347382 29.88203339 248.52598572 29.87974548 C251 30 251 30 252 31 C252.08775605 33.14558827 252.10695219 35.29404421 252.09765625 37.44140625 C252.09515869 38.61646729 252.09266113 39.79152832 252.09008789 41.00219727 C252.07643188 43.25954712 252.07643188 43.25954712 252.0625 45.5625 C252.041875 50.326875 252.02125 55.09125 252 60 C262.23 60.33 272.46 60.66 283 61 C283 71.56 283 82.12 283 93 C293.15713092 92.96040178 293.15713092 92.96040178 303.31420898 92.90991211 C304.57048096 92.90741455 305.82675293 92.90491699 307.12109375 92.90234375 C308.4145874 92.89710693 309.70808105 92.89187012 311.04077148 92.88647461 C314 93 314 93 315 94 C315.09396057 95.93306498 315.11743517 97.86958838 315.11352539 99.80493164 C315.11344986 101.04614273 315.11337433 102.28735382 315.11329651 103.56617737 C315.10818911 104.9308374 315.1029731 106.29549702 315.09765625 107.66015625 C315.095792 109.04878183 315.09436813 110.43740807 315.09336853 111.82603455 C315.08954387 115.48721115 315.07971403 119.1483483 315.06866455 122.80950928 C315.05844932 126.54292253 315.05381597 130.27634233 315.04882812 134.00976562 C315.0386219 141.33987863 315.01905026 148.6698832 315 156 C324.57 156 334.14 156 344 156 C344 166.56 344 177.12 344 188 C334.43 188 324.86 188 315 188 C315.01160156 190.15402344 315.02320313 192.30804688 315.03515625 194.52734375 C315.04294737 196.60571139 315.04902381 198.68407743 315.05493164 200.76245117 C315.05997101 202.21070073 315.06680253 203.65894517 315.07543945 205.10717773 C315.08752247 207.18474588 315.09323211 209.26224697 315.09765625 211.33984375 C315.10551147 213.21724243 315.10551147 213.21724243 315.11352539 215.13256836 C315 218 315 218 314 219 C311.07805335 219.09525367 308.17979671 219.12552736 305.25756836 219.11352539 C303.88209587 219.11374443 303.88209587 219.11374443 302.47883606 219.1139679 C299.43248164 219.1132684 296.38618755 219.10547428 293.33984375 219.09765625 C291.23377007 219.0957922 289.12769597 219.09436824 287.0216217 219.09336853 C281.46657117 219.08954231 275.91154659 219.07971114 270.35650635 219.06866455 C264.6927526 219.05845267 259.02899467 219.05387139 253.36523438 219.04882812 C242.24347631 219.03808896 231.12174437 219.02049132 220 219 C220 229.23 220 239.46 220 250 C230.15713092 249.96040178 230.15713092 249.96040178 240.31420898 249.90991211 C241.57048096 249.90741455 242.82675293 249.90491699 244.12109375 249.90234375 C245.4145874 249.89710693 246.70808105 249.89187012 248.04077148 249.88647461 C251 250 251 250 252 251 C252.09522418 253.86091818 252.12553326 256.69763621 252.11352539 259.55883789 C252.11367142 260.45631241 252.11381744 261.35378693 252.1139679 262.27845764 C252.11326842 265.25988134 252.10547441 268.2412434 252.09765625 271.22265625 C252.09579219 273.28388942 252.09436823 275.34512304 252.09336853 277.40635681 C252.08954237 282.8430401 252.07971126 288.27969686 252.06866455 293.71636963 C252.05845253 299.25947714 252.05387136 304.80258892 252.04882812 310.34570312 C252.03808908 321.23048231 252.02049149 332.1152348 252 343 C262.23 343 272.46 343 283 343 C283 363.79 283 384.58 283 406 C293.23 406 303.46 406 314 406 C315 407 315 407 315.12025452 409.47401428 C315.11803391 410.57321701 315.11581329 411.67241974 315.11352539 412.80493164 C315.11344986 414.04614273 315.11337433 415.28735382 315.11329651 416.56617737 C315.10818911 417.9308374 315.1029731 419.29549702 315.09765625 420.66015625 C315.095792 422.04878183 315.09436813 423.43740807 315.09336853 424.82603455 C315.08954387 428.48721115 315.07971403 432.1483483 315.06866455 435.80950928 C315.05844932 439.54292263 315.05387067 443.27634234 315.04882812 447.00976562 C315.03809171 454.33986177 315.02101591 461.66992536 315 469 C316.38058594 468.87431641 316.38058594 468.87431641 317.7890625 468.74609375 C319.05492187 468.64425781 320.32078125 468.54242188 321.625 468.4375 C322.85476563 468.33308594 324.08453125 468.22867187 325.3515625 468.12109375 C331.57249787 467.95903577 337.79276877 468.55662634 344 469 C344 479.23 344 489.46 344 500 C333.77 500 323.54 500 313 500 C313 490.1 313 480.2 313 470 C302.77 470 292.54 470 282 470 C282 459.77 282 449.54 282 439 C271.84286908 439.03959822 271.84286908 439.03959822 261.68579102 439.09008789 C260.42951904 439.09258545 259.17324707 439.09508301 257.87890625 439.09765625 C256.5854126 439.10289307 255.29191895 439.10812988 253.95922852 439.11352539 C251 439 251 439 250 438 C249.9059933 436.03630847 249.88256619 434.06920801 249.88647461 432.10327148 C249.88655014 430.84203964 249.88662567 429.5808078 249.88670349 428.28135681 C249.8918109 426.89460206 249.89702691 425.50784771 249.90234375 424.12109375 C249.90420799 422.71004791 249.90563186 421.29900143 249.90663147 419.88795471 C249.91045621 416.16759465 249.9202861 412.4472734 249.93133545 408.72692871 C249.94155052 404.93319219 249.94612929 401.13944942 249.95117188 397.34570312 C249.96190842 389.89711769 249.9789843 382.44856428 250 375 C249.13197754 375.03552979 248.26395508 375.07105957 247.36962891 375.10766602 C244.15314518 375.23678234 240.93652256 375.36111144 237.71972656 375.48217773 C236.32674778 375.53559149 234.93384107 375.59092043 233.54101562 375.64819336 C231.54056398 375.73012069 229.5398125 375.80462098 227.5390625 375.87890625 C226.33459473 375.9260376 225.13012695 375.97316895 223.88916016 376.02172852 C221 376 221 376 219 375 C219 344.31 219 313.62 219 282 C208.44 282 197.88 282 187 282 C187 271.44 187 260.88 187 250 C177.43 250 167.86 250 158 250 C158 291.25 158 332.5 158 375 C152.87596549 375.64050431 148.93768777 376.12195212 143.96875 375.87890625 C142.53692383 375.81425171 142.53692383 375.81425171 141.07617188 375.74829102 C139.89603516 375.68697998 138.71589844 375.62566895 137.5 375.5625 C133.705 375.376875 129.91 375.19125 126 375 C126 385.23 126 395.46 126 406 C136.15713092 405.96040178 136.15713092 405.96040178 146.31420898 405.90991211 C147.57048096 405.90741455 148.82675293 405.90491699 150.12109375 405.90234375 C151.4145874 405.89710693 152.70808105 405.89187012 154.04077148 405.88647461 C157 406 157 406 158 407 C158.08790975 409.29151417 158.10694038 411.58572524 158.09765625 413.87890625 C158.09515869 415.13517822 158.09266113 416.3914502 158.09008789 417.68579102 C158.07643188 420.09976196 158.07643188 420.09976196 158.0625 422.5625 C158.041875 427.656875 158.02125 432.75125 158 438 C168.23 438 178.46 438 189 438 C189 448.56 189 459.12 189 470 C178.77 470 168.54 470 158 470 C158 479.9 158 489.8 158 500 C147.11 500 136.22 500 125 500 C125 489.77 125 479.54 125 469 C135.23 469 145.46 469 156 469 C156 459.1 156 449.2 156 439 C145.77 439 135.54 439 125 439 C124.67 428.77 124.34 418.54 124 408 C116.37178954 408.03939731 116.37178954 408.03939731 108.74365234 408.09008789 C107.78410645 408.09258545 106.82456055 408.09508301 105.8359375 408.09765625 C104.37486572 408.10551147 104.37486572 408.10551147 102.88427734 408.11352539 C100 408 100 408 94 407 C94 385.88 94 364.76 94 343 C104.23 343 114.46 343 125 343 C125 333.1 125 323.2 125 313 C116.66827613 313.36749191 116.66827613 313.36749191 108.3371582 313.74829102 C107.29390381 313.79139404 106.25064941 313.83449707 105.17578125 313.87890625 C104.11270752 313.9260376 103.04963379 313.97316895 101.9543457 314.02172852 C99 314 99 314 94 313 C94 292.21 94 271.42 94 250 C73.87 250 53.74 250 33 250 C33 270.46 33 290.92 33 312 C43.23 312 53.46 312 64 312 C64 343.35 64 374.7 64 407 C60.19849073 407.95037732 57.575202 408.04328688 53.703125 407.87890625 C52.49785156 407.83056641 51.29257813 407.78222656 50.05078125 407.73242188 C48.79652344 407.67634766 47.54226562 407.62027344 46.25 407.5625 C44.98027344 407.51029297 43.71054688 407.45808594 42.40234375 407.40429688 C39.26797593 407.27468016 36.13393126 407.13971529 33 407 C33.00222061 407.77452011 33.00444122 408.54904022 33.00672913 409.34703064 C33.02673134 416.63121021 33.04197377 423.91537655 33.05181217 431.19957638 C33.05704014 434.94483037 33.06413622 438.69006176 33.07543945 442.43530273 C33.08627141 446.04681687 33.09227749 449.65830921 33.09487724 453.26983833 C33.09673094 454.65060329 33.10035049 456.031367 33.10573006 457.41212273 C33.11294447 459.33975952 33.11340809 461.26741807 33.11352539 463.19506836 C33.115746 464.29427109 33.11796661 465.39347382 33.12025452 466.52598572 C33 469 33 469 32 470 C29.70848583 470.08790975 27.41427476 470.10694038 25.12109375 470.09765625 C24.09110008 470.09553383 24.09110008 470.09553383 23.04029846 470.09336853 C20.83932199 470.08775479 18.63844591 470.07520007 16.4375 470.0625 C14.94856917 470.05748676 13.45963676 470.05292355 11.97070312 470.04882812 C8.31373195 470.03863021 4.65697883 470.01905779 1 470 C1 479.9 1 489.8 1 500 C-20.12 500 -41.24 500 -63 500 C-63 489.77 -63 479.54 -63 469 C-42.21 469 -21.42 469 0 469 C0 427.42 0 385.84 0 343 C10.23 343 20.46 343 31 343 C30.67 333.43 30.34 323.86 30 314 C20.1 313.67 10.2 313.34 0 313 C0 302.77 0 292.54 0 282 C-10.23 282 -20.46 282 -31 282 C-31 292.23 -31 302.46 -31 313 C-41.23 313 -51.46 313 -62 313 C-62 344.02 -62 375.04 -62 407 C-72.14258735 408.12695415 -72.14258735 408.12695415 -76.18359375 408.1328125 C-77.48006836 408.13474609 -77.48006836 408.13474609 -78.80273438 408.13671875 C-79.67220703 408.13285156 -80.54167969 408.12898438 -81.4375 408.125 C-82.33404297 408.12886719 -83.23058594 408.13273437 -84.15429688 408.13671875 C-85.00958984 408.13542969 -85.86488281 408.13414062 -86.74609375 408.1328125 C-87.51622803 408.13168457 -88.2863623 408.13055664 -89.07983398 408.12939453 C-91 408 -91 408 -93 407 C-92.99476318 407.93384521 -92.98952637 408.86769043 -92.98413086 409.82983398 C-92.9671238 413.28312796 -92.95456698 416.73637767 -92.94506836 420.18969727 C-92.94002879 421.68644918 -92.93319713 423.18319616 -92.92456055 424.67993164 C-92.91247841 426.82699807 -92.90676809 428.97399962 -92.90234375 431.12109375 C-92.89710693 432.4145874 -92.89187012 433.70808105 -92.88647461 435.04077148 C-93 438 -93 438 -94 439 C-96.3756852 439.0883967 -98.72208674 439.11530305 -101.09765625 439.09765625 C-102.16094398 439.09553383 -102.16094398 439.09553383 -103.24571228 439.09336853 C-105.51801712 439.08775443 -107.79022475 439.07519963 -110.0625 439.0625 C-111.59960796 439.05748681 -113.13671745 439.05292359 -114.67382812 439.04882812 C-118.44928667 439.0386297 -122.22453404 439.01905732 -126 439 C-126 428.77 -126 418.54 -126 408 C-133.62821046 408.03939731 -133.62821046 408.03939731 -141.25634766 408.09008789 C-142.21589355 408.09258545 -143.17543945 408.09508301 -144.1640625 408.09765625 C-145.62513428 408.10551147 -145.62513428 408.10551147 -147.11572266 408.11352539 C-150 408 -150 408 -156 407 C-156 396.44 -156 385.88 -156 375 C-150.905625 374.979375 -145.81125 374.95875 -140.5625 374.9375 C-138.95318604 374.928396 -137.34387207 374.91929199 -135.68579102 374.90991211 C-134.42951904 374.90741455 -133.17324707 374.90491699 -131.87890625 374.90234375 C-129.93866577 374.89448853 -129.93866577 374.89448853 -127.95922852 374.88647461 C-125 375 -125 375 -124 376 C-123.91216458 378.21855264 -123.89305391 380.43988496 -123.90234375 382.66015625 C-123.9037587 383.32462265 -123.90517365 383.98908905 -123.90663147 384.6736908 C-123.91224482 386.80333899 -123.92479946 388.93288339 -123.9375 391.0625 C-123.94251329 392.50325369 -123.94707649 393.94400903 -123.95117188 395.38476562 C-123.96136924 398.92324958 -123.9809417 402.46150813 -124 406 C-114.43 406 -104.86 406 -95 406 C-95 364.75 -95 323.5 -95 281 C-84.44 281 -73.88 281 -63 281 C-63 270.77 -63 260.54 -63 250 C-47.655 249.505 -47.655 249.505 -32 249 C-32 239.1 -32 229.2 -32 219 C-63.02 219 -94.04 219 -126 219 C-126 208.77 -126 198.54 -126 188 C-135.9 188 -145.8 188 -156 188 C-156 177.44 -156 166.88 -156 156 C-146.1 156 -136.2 156 -126 156 C-126 135.21 -126 114.42 -126 93 C-115.77 93 -105.54 93 -95 93 C-95.03959822 82.84286908 -95.03959822 82.84286908 -95.09008789 72.68579102 C-95.09258545 71.42951904 -95.09508301 70.17324707 -95.09765625 68.87890625 C-95.10289307 67.5854126 -95.10812988 66.29191895 -95.11352539 64.95922852 C-95 62 -95 62 -94 61 C-91.70848583 60.91209025 -89.41427476 60.89305962 -87.12109375 60.90234375 C-85.86482178 60.90484131 -84.6085498 60.90733887 -83.31420898 60.90991211 C-81.70489502 60.91901611 -80.09558105 60.92812012 -78.4375 60.9375 C-73.343125 60.958125 -68.24875 60.97875 -63 61 C-63 50.77 -63 40.54 -63 30 C-42.21 30 -21.42 30 0 30 C0 20.1 0 10.2 0 0 Z " fill="#410245" transform="translate(156,0)"/>
<path d="M0 0 C61.71 0 123.42 0 187 0 C187 10.23 187 20.46 187 31 C191.1765625 30.9278125 195.353125 30.855625 199.65625 30.78125 C205.27080859 30.68599232 210.88539513 30.59248354 216.5 30.5 C217.22087421 30.48812275 217.94174843 30.4762455 218.68446732 30.46400833 C239.79026294 30.11773673 260.8907963 29.82712634 282 30 C282 30.33 282 30.66 282 31 C271.77 31 261.54 31 251 31 C251 41.23 251 51.46 251 62 C260.9 62 270.8 62 281 62 C281 82.79 281 103.58 281 125 C270.77 125 260.54 125 250 125 C250 135.23 250 145.46 250 156 C218.98 156 187.96 156 156 156 C156 166.56 156 177.12 156 188 C104.19 188 52.38 188 -1 188 C-1 177.77 -1 167.54 -1 157 C-21.79 157 -42.58 157 -64 157 C-64 146.77 -64 136.54 -64 126 C-74.23 126 -84.46 126 -95 126 C-95 104.88 -95 83.76 -95 62 C-84.77 62 -74.54 62 -64 62 C-64 51.77 -64 41.54 -64 31 C-42.88 31 -21.76 31 0 31 C0 20.77 0 10.54 0 0 Z " fill="#FE1EE5" transform="translate(157,31)"/>
<path d="M0 0 C61.71 0 123.42 0 187 0 C187 20.46 187 40.92 187 62 C176.77 62 166.54 62 156 62 C156.03959822 72.15713092 156.03959822 72.15713092 156.09008789 82.31420898 C156.09383423 84.19861694 156.09383423 84.19861694 156.09765625 86.12109375 C156.10289307 87.4145874 156.10812988 88.70808105 156.11352539 90.04077148 C156 93 156 93 155 94 C153.393108 94.09600136 151.78198231 94.12187889 150.17222595 94.12025452 C149.12749619 94.12162918 148.08276642 94.12300385 147.00637817 94.12442017 C145.85048187 94.12082489 144.69458557 94.11722961 143.50366211 94.11352539 C142.29407333 94.11367142 141.08448456 94.11381744 139.83824158 94.1139679 C136.51193649 94.11338893 133.18569281 94.10835973 129.8593986 94.10139394 C126.38670071 94.09515978 122.91400207 94.09455655 119.44129944 94.09336853 C112.86103807 94.0902554 106.28079324 94.08204225 99.70053917 94.07201904 C92.21093888 94.06085734 84.72133782 94.05534731 77.2317313 94.05032361 C61.82114298 94.03985962 46.41057745 94.02151437 31 94 C31 83.44 31 72.88 31 62 C20.77 62 10.54 62 0 62 C0 41.54 0 21.08 0 0 Z " fill="#FE81CE" transform="translate(157,31)"/>
<path d="M0 0 C62.37 0 124.74 0 189 0 C189 9.9 189 19.8 189 30 C193.46402344 29.98839844 197.92804688 29.97679688 202.52734375 29.96484375 C206.07736432 29.9584169 209.62738325 29.95299264 213.17740631 29.94824982 C216.93005024 29.94295992 220.68267175 29.93588609 224.43530273 29.92456055 C228.04681687 29.91372859 231.65830921 29.90772251 235.26983833 29.90512276 C236.65060329 29.90326906 238.031367 29.89964951 239.41212273 29.89426994 C241.33975952 29.88705553 243.26741807 29.88659191 245.19506836 29.88647461 C246.29427109 29.884254 247.39347382 29.88203339 248.52598572 29.87974548 C251 30 251 30 252 31 C252.10005826 33.12180138 252.13081087 35.24693539 252.1328125 37.37109375 C252.13410156 38.66724609 252.13539063 39.96339844 252.13671875 41.29882812 C252.13462402 41.9776001 252.1325293 42.65637207 252.13037109 43.35571289 C252.1250313 45.42536789 252.13031193 47.494805 252.13671875 49.56445312 C252.13478516 51.51061523 252.13478516 51.51061523 252.1328125 53.49609375 C252.13168457 54.69419678 252.13055664 55.8922998 252.12939453 57.12670898 C252 60 252 60 251 62 C230.21 62 209.42 62 188 62 C188 51.77 188 41.54 188 31 C126.29 31 64.58 31 1 31 C1 41.23 1 51.46 1 62 C-20.12 62 -41.24 62 -63 62 C-63 72.23 -63 82.46 -63 93 C-73.23 93 -83.46 93 -94 93 C-94 82.44 -94 71.88 -94 61 C-83.77 61 -73.54 61 -63 61 C-63 50.77 -63 40.54 -63 30 C-42.21 30 -21.42 30 0 30 C0 20.1 0 10.2 0 0 Z " fill="#37003A" transform="translate(156,0)"/>
<path d="M0 0 C10.56 0 21.12 0 32 0 C33 1 33 1 33.11352539 3.86743164 C33.10567017 5.74483032 33.10567017 5.74483032 33.09765625 7.66015625 C33.09515869 8.87582275 33.09266113 10.09148926 33.09008789 11.34399414 C33.08098389 12.90110107 33.07187988 14.45820801 33.0625 16.0625 C33.041875 20.991875 33.02125 25.92125 33 31 C43.23 31 53.46 31 64 31 C64 31.33 64 31.66 64 32 C53.77 32 43.54 32 33 32 C33 63.02 33 94.04 33 126 C22.85741265 127.12695415 22.85741265 127.12695415 18.81640625 127.1328125 C17.51993164 127.13474609 17.51993164 127.13474609 16.19726562 127.13671875 C15.32779297 127.13285156 14.45832031 127.12898438 13.5625 127.125 C12.66595703 127.12886719 11.76941406 127.13273437 10.84570312 127.13671875 C9.99041016 127.13542969 9.13511719 127.13414062 8.25390625 127.1328125 C7.48377197 127.13168457 6.7136377 127.13055664 5.92016602 127.12939453 C4 127 4 127 2 126 C2.00523682 126.93384521 2.01047363 127.86769043 2.01586914 128.82983398 C2.0328762 132.28312796 2.04543302 135.73637767 2.05493164 139.18969727 C2.05997121 140.68644918 2.06680287 142.18319616 2.07543945 143.67993164 C2.08752159 145.82699807 2.09323191 147.97399962 2.09765625 150.12109375 C2.10289307 151.4145874 2.10812988 152.70808105 2.11352539 154.04077148 C2 157 2 157 1 158 C-1.3756852 158.0883967 -3.72208674 158.11530305 -6.09765625 158.09765625 C-7.16094398 158.09553383 -7.16094398 158.09553383 -8.24571228 158.09336853 C-10.51801712 158.08775443 -12.79022475 158.07519963 -15.0625 158.0625 C-16.59960796 158.05748681 -18.13671745 158.05292359 -19.67382812 158.04882812 C-23.44928667 158.0386297 -27.22453404 158.01905732 -31 158 C-31 147.77 -31 137.54 -31 127 C-38.62821046 127.03939731 -38.62821046 127.03939731 -46.25634766 127.09008789 C-47.21589355 127.09258545 -48.17543945 127.09508301 -49.1640625 127.09765625 C-50.62513428 127.10551147 -50.62513428 127.10551147 -52.11572266 127.11352539 C-55 127 -55 127 -61 126 C-61 115.44 -61 104.88 -61 94 C-55.905625 93.979375 -50.81125 93.95875 -45.5625 93.9375 C-43.95318604 93.928396 -42.34387207 93.91929199 -40.68579102 93.90991211 C-39.42951904 93.90741455 -38.17324707 93.90491699 -36.87890625 93.90234375 C-34.93866577 93.89448853 -34.93866577 93.89448853 -32.95922852 93.88647461 C-30 94 -30 94 -29 95 C-28.91216458 97.21855264 -28.89305391 99.43988496 -28.90234375 101.66015625 C-28.9037587 102.32462265 -28.90517365 102.98908905 -28.90663147 103.6736908 C-28.91224482 105.80333899 -28.92479946 107.93288339 -28.9375 110.0625 C-28.94251329 111.50325369 -28.94707649 112.94400903 -28.95117188 114.38476562 C-28.96136924 117.92324958 -28.9809417 121.46150813 -29 125 C-19.43 125 -9.86 125 0 125 C0 83.75 0 42.5 0 0 Z " fill="#38033B" transform="translate(61,281)"/>
<path d="M0 0 C0.33 0 0.66 0 1 0 C1 30.36 1 60.72 1 92 C11.23 92 21.46 92 32 92 C32 112.79 32 133.58 32 155 C42.23 155 52.46 155 63 155 C64 156 64 156 64.12025452 158.47401428 C64.11803391 159.57321701 64.11581329 160.67241974 64.11352539 161.80493164 C64.11341209 163.66674828 64.11341209 163.66674828 64.11329651 165.56617737 C64.10818911 166.9308374 64.1029731 168.29549702 64.09765625 169.66015625 C64.095792 171.04878183 64.09436813 172.43740807 64.09336853 173.82603455 C64.08954387 177.48721115 64.07971403 181.1483483 64.06866455 184.80950928 C64.05844932 188.54292263 64.05387067 192.27634234 64.04882812 196.00976562 C64.03809171 203.33986177 64.02101591 210.66992536 64 218 C64.92039062 217.91621094 65.84078125 217.83242188 66.7890625 217.74609375 C68.05492187 217.64425781 69.32078125 217.54242188 70.625 217.4375 C71.85476563 217.33308594 73.08453125 217.22867188 74.3515625 217.12109375 C80.57249787 216.95903577 86.79276877 217.55662634 93 218 C93 228.23 93 238.46 93 249 C82.77 249 72.54 249 62 249 C62 239.1 62 229.2 62 219 C51.77 219 41.54 219 31 219 C31 208.77 31 198.54 31 188 C20.84286908 188.03959822 20.84286908 188.03959822 10.68579102 188.09008789 C9.42951904 188.09258545 8.17324707 188.09508301 6.87890625 188.09765625 C5.5854126 188.10289307 4.29191895 188.10812988 2.95922852 188.11352539 C0 188 0 188 -1 187 C-1.10474367 183.81954728 -1.13925767 180.66160071 -1.1328125 177.48046875 C-1.13413177 176.41972137 -1.13545105 175.358974 -1.1368103 174.26608276 C-1.13879316 170.57319621 -1.13218995 166.88037954 -1.125 163.1875 C-1.12364403 161.21480148 -1.12228904 159.24210296 -1.12098312 157.26940441 C-1.07424311 104.84639155 -0.4650029 52.42064313 0 0 Z " fill="#3C063F" transform="translate(407,251)"/>
<path d="M0 0 C0.66 0 1.32 0 2 0 C3.09895391 91.22465852 3.09895391 91.22465852 3.12231445 126.83074951 C3.1241035 129.48329831 3.12751907 132.13584652 3.13256836 134.78839111 C3.13831577 138.40713336 3.13707308 142.02578869 3.1328125 145.64453125 C3.13479645 146.69718674 3.1367804 147.74984222 3.13882446 148.83439636 C3.13571259 149.77567886 3.13260071 150.71696136 3.12939453 151.68676758 C3.12859894 152.50244705 3.12780334 153.31812653 3.12698364 154.15852356 C3 156 3 156 2 157 C-0.29151417 157.08790975 -2.58572524 157.10694038 -4.87890625 157.09765625 C-5.90889992 157.09553383 -5.90889992 157.09553383 -6.95970154 157.09336853 C-9.16067801 157.08775479 -11.36155409 157.07520007 -13.5625 157.0625 C-15.05143083 157.05748676 -16.54036324 157.05292355 -18.02929688 157.04882812 C-21.68626805 157.03863021 -25.34302117 157.01905779 -29 157 C-29 166.9 -29 176.8 -29 187 C-50.12 187 -71.24 187 -93 187 C-93 176.77 -93 166.54 -93 156 C-72.21 156 -51.42 156 -30 156 C-30 114.42 -30 72.84 -30 30 C-19.77 30 -9.54 30 1 30 C0.67 20.1 0.34 10.2 0 0 Z " fill="#790D7D" transform="translate(186,313)"/>
<path d="M0 0 C0.33 0 0.66 0 1 0 C1 9.9 1 19.8 1 30 C5.46402344 29.98839844 9.92804688 29.97679688 14.52734375 29.96484375 C18.07736432 29.9584169 21.62738325 29.95299264 25.17740631 29.94824982 C28.93005024 29.94295992 32.68267175 29.93588609 36.43530273 29.92456055 C40.04681687 29.91372859 43.65830921 29.90772251 47.26983833 29.90512276 C48.65060329 29.90326906 50.031367 29.89964951 51.41212273 29.89426994 C53.33975952 29.88705553 55.26741807 29.88659191 57.19506836 29.88647461 C58.29427109 29.884254 59.39347382 29.88203339 60.52598572 29.87974548 C63 30 63 30 64 31 C64.10005826 33.12180138 64.13081087 35.24693539 64.1328125 37.37109375 C64.13410156 38.66724609 64.13539063 39.96339844 64.13671875 41.29882812 C64.13462402 41.9776001 64.1325293 42.65637207 64.13037109 43.35571289 C64.1250313 45.42536789 64.13031193 47.494805 64.13671875 49.56445312 C64.13478516 51.51061523 64.13478516 51.51061523 64.1328125 53.49609375 C64.13168457 54.69419678 64.13055664 55.8922998 64.12939453 57.12670898 C64 60 64 60 63 62 C42.21 62 21.42 62 0 62 C0 51.77 0 41.54 0 31 C-61.71 31 -123.42 31 -187 31 C-187 41.23 -187 51.46 -187 62 C-208.12 62 -229.24 62 -251 62 C-251 72.23 -251 82.46 -251 93 C-261.23 93 -271.46 93 -282 93 C-282 82.44 -282 71.88 -282 61 C-271.77 61 -261.54 61 -251 61 C-251 50.77 -251 40.54 -251 30 C-168.17 30 -85.34 30 0 30 C0 20.1 0 10.2 0 0 Z " fill="#470D48" transform="translate(344,0)"/>
<path d="M0 0 C10.23 0 20.46 0 31 0 C31.79588627 20.69304314 32.13348096 41.29607705 32 62 C32.93384521 61.99476318 33.86769043 61.98952637 34.82983398 61.98413086 C38.28312796 61.9671238 41.73637767 61.95456698 45.18969727 61.94506836 C46.68644918 61.94002879 48.18319616 61.93319713 49.67993164 61.92456055 C51.82699807 61.91247841 53.97399962 61.90676809 56.12109375 61.90234375 C58.06133423 61.89448853 58.06133423 61.89448853 60.04077148 61.88647461 C63 62 63 62 64 63 C64.08790975 65.29151417 64.10694038 67.58572524 64.09765625 69.87890625 C64.09515869 71.13517822 64.09266113 72.3914502 64.09008789 73.68579102 C64.08098389 75.29510498 64.07187988 76.90441895 64.0625 78.5625 C64.041875 83.656875 64.02125 88.75125 64 94 C74.23 94 84.46 94 95 94 C95 104.56 95 115.12 95 126 C84.77 126 74.54 126 64 126 C64 135.9 64 145.8 64 156 C53.11 156 42.22 156 31 156 C31 145.77 31 135.54 31 125 C41.23 125 51.46 125 62 125 C62 115.1 62 105.2 62 95 C51.77 95 41.54 95 31 95 C30.505 79.655 30.505 79.655 30 64 C22.37178954 64.03939731 22.37178954 64.03939731 14.74365234 64.09008789 C13.78410645 64.09258545 12.82456055 64.09508301 11.8359375 64.09765625 C10.37486572 64.10551147 10.37486572 64.10551147 8.88427734 64.11352539 C6 64 6 64 0 63 C0 42.21 0 21.42 0 0 Z " fill="#38033B" transform="translate(250,344)"/>
<path d="M0 0 C0.33 0 0.66 0 1 0 C1 31.35 1 62.7 1 95 C11.23 95 21.46 95 32 95 C32 105.23 32 115.46 32 126 C11.54 126 -8.92 126 -30 126 C-30 136.23 -30 146.46 -30 157 C-30.33 157 -30.66 157 -31 157 C-31 146.77 -31 136.54 -31 126 C-40.9 126 -50.8 126 -61 126 C-61 115.44 -61 104.88 -61 94 C-51.1 94 -41.2 94 -31 94 C-31 73.21 -31 52.42 -31 31 C-20.77 31 -10.54 31 0 31 C0 20.77 0 10.54 0 0 Z " fill="#740379" transform="translate(61,62)"/>
<path d="M0 0 C10.23 0 20.46 0 31 0 C31 0.33 31 0.66 31 1 C21.1 1 11.2 1 1 1 C1 11.23 1 21.46 1 32 C21.46 32 41.92 32 63 32 C63 42.23 63 52.46 63 63 C70.2703125 62.7834375 70.2703125 62.7834375 77.6875 62.5625 C79.96853638 62.49784546 79.96853638 62.49784546 82.2956543 62.43188477 C84.1041687 62.3747229 84.1041687 62.3747229 85.94921875 62.31640625 C87.79519653 62.26141968 87.79519653 62.26141968 89.6784668 62.20532227 C92.85736872 62.09351064 92.85736872 62.09351064 95.34509277 61.48852539 C98.23962942 60.95590616 100.8583116 60.91956719 103.80004883 60.97827148 C104.94085403 60.99836777 106.08165924 61.01846405 107.2570343 61.03916931 C108.47803329 61.06620438 109.69903229 61.09323944 110.95703125 61.12109375 C112.21513107 61.14470474 113.4732309 61.16831573 114.76945496 61.19264221 C118.10185919 61.25615562 121.43409887 61.32437664 124.76635742 61.39489746 C128.17163549 61.46579843 131.57703107 61.5304848 134.98242188 61.59570312 C141.65507073 61.72475381 148.32757208 61.86001432 155 62 C155 62.33 155 62.66 155 63 C135.2 63 115.4 63 95 63 C95 83.79 95 104.58 95 126 C94.67 126 94.34 126 94 126 C94 115.77 94 105.54 94 95 C73.21 95 52.42 95 31 95 C31 84.77 31 74.54 31 64 C20.77 64 10.54 64 0 64 C0 42.88 0 21.76 0 0 Z " fill="#D108C2" transform="translate(62,93)"/>
<path d="M0 0 C9.9 0 19.8 0 30 0 C30 41.25 30 82.5 30 125 C0 126 0 126 -2 125 C-2.04642284 112.89937501 -2.08191973 100.79877134 -2.10362434 88.69807529 C-2.11404357 83.07871407 -2.12816877 77.45941395 -2.15087891 71.84008789 C-2.17267364 66.41305379 -2.18458262 60.98607833 -2.18975449 55.55900383 C-2.19343835 53.49265559 -2.20063192 51.42631041 -2.21146011 49.35998726 C-2.22606313 46.45680023 -2.22797426 43.55385285 -2.22705078 40.65063477 C-2.23424133 39.80402283 -2.24143188 38.95741089 -2.24884033 38.08514404 C-2.23197143 33.15636611 -1.66508369 28.7074741 -0.45169067 23.9264679 C0.14909419 21.3641109 0.22675913 18.93438763 0.1953125 16.30859375 C0.18781982 15.00233032 0.18781982 15.00233032 0.18017578 13.66967773 C0.16196777 12.60305908 0.14375977 11.53644043 0.125 10.4375 C0.063125 5.2709375 0.063125 5.2709375 0 0 Z " fill="#360039" transform="translate(377,250)"/>
<path d="M0 0 C0.33 0 0.66 0 1 0 C1 20.46 1 40.92 1 62 C11.23 62 21.46 62 32 62 C32 93.35 32 124.7 32 157 C21.65181333 159.58704667 10.65987045 157.38070966 0 157 C0 105.19 0 53.38 0 0 Z " fill="#3C083F" transform="translate(188,250)"/>
<path d="M0 0 C21.12 0 42.24 0 64 0 C64 10.23 64 20.46 64 31 C74.23 31 84.46 31 95 31 C95 41.56 95 52.12 95 63 C84.44 63 73.88 63 63 63 C63 52.44 63 41.88 63 31 C42.21 31 21.42 31 0 31 C0 20.77 0 10.54 0 0 Z " fill="#D202C2" transform="translate(93,62)"/>
<path d="M0 0 C0 0.33 0 0.66 0 1 C-10.23 1 -20.46 1 -31 1 C-31 11.23 -31 21.46 -31 32 C-21.1 32 -11.2 32 -1 32 C-1 42.56 -1 53.12 -1 64 C-5.929375 64.020625 -10.85875 64.04125 -15.9375 64.0625 C-18.2731604 64.07615601 -18.2731604 64.07615601 -20.65600586 64.09008789 C-22.47950562 64.09383423 -22.47950562 64.09383423 -24.33984375 64.09765625 C-25.59144287 64.10289307 -26.84304199 64.10812988 -28.13256836 64.11352539 C-31 64 -31 64 -32 63 C-32 52.77 -32 42.54 -32 32 C-52.79 32 -73.58 32 -95 32 C-95 21.77 -95 11.54 -95 1 C-85.16671536 0.83004199 -75.33341716 0.66197565 -65.5 0.5 C-64.77912579 0.48812275 -64.05825157 0.4762455 -63.31553268 0.46400833 C-42.20973706 0.11773673 -21.1092037 -0.17287366 0 0 Z " fill="#CE05BE" transform="translate(439,61)"/>
<path d="M0 0 C10.23 0 20.46 0 31 0 C31 10.23 31 20.46 31 31 C41.15713092 30.96040178 41.15713092 30.96040178 51.31420898 30.90991211 C52.57048096 30.90741455 53.82675293 30.90491699 55.12109375 30.90234375 C57.06133423 30.89448853 57.06133423 30.89448853 59.04077148 30.88647461 C62 31 62 31 63 32 C63.09803257 33.35790778 63.12798179 34.72083427 63.12939453 36.08227539 C63.13254669 36.95151138 63.13569885 37.82074738 63.13894653 38.71632385 C63.1369223 39.66716354 63.13489807 40.61800323 63.1328125 41.59765625 C63.13376923 42.57931259 63.13472595 43.56096893 63.13571167 44.57237244 C63.13639457 46.66486678 63.13453271 48.7573632 63.13037109 50.84985352 C63.12510958 53.99695869 63.13026723 57.14391545 63.13671875 60.29101562 C63.1400785 71.5774302 62.85175144 82.7447131 62 94 C51.77 94 41.54 94 31 94 C30.22067212 72.9581473 29.90642491 52.05439486 30 31 C20.1 31 10.2 31 0 31 C0 20.77 0 10.54 0 0 Z " fill="#3A043C" transform="translate(408,62)"/>
<path d="M0 0 C20.79 0 41.58 0 63 0 C63 10.23 63 20.46 63 31 C52.77 31 42.54 31 32 31 C32 41.23 32 51.46 32 62 C21.44 62 10.88 62 0 62 C0 41.54 0 21.08 0 0 Z " fill="#FD81CF" transform="translate(375,125)"/>
<path d="M0 0 C31.02 0 62.04 0 94 0 C94 10.23 94 20.46 94 31 C62.98 31 31.96 31 0 31 C0 20.77 0 10.54 0 0 Z " fill="#37013A" transform="translate(376,188)"/>
<path d="M0 0 C20.46 0 40.92 0 62 0 C62 10.23 62 20.46 62 31 C51.77 31 41.54 31 31 31 C31 41.56 31 52.12 31 63 C20.77 63 10.54 63 0 63 C0 42.21 0 21.42 0 0 Z " fill="#FD83CF" transform="translate(157,156)"/>
<path d="M0 0 C30.69 0 61.38 0 93 0 C93 9.9 93 19.8 93 30 C91.14418034 31.85581966 88.50601694 31.12004366 86.03713989 31.12442017 C85.18046722 31.12082489 84.32379456 31.11722961 83.44116211 31.11352539 C82.54368759 31.11367142 81.64621307 31.11381744 80.72154236 31.1139679 C77.74011866 31.11326842 74.7587566 31.10547441 71.77734375 31.09765625 C69.71611058 31.09579219 67.65487696 31.09436823 65.59364319 31.09336853 C60.1569599 31.08954237 54.72030314 31.07971126 49.28363037 31.06866455 C43.74052286 31.05845253 38.19741108 31.05387136 32.65429688 31.04882812 C21.76951769 31.03808908 10.8847652 31.02049149 0 31 C0 20.77 0 10.54 0 0 Z " fill="#37013A" transform="translate(31,188)"/>
<path d="M0 0 C0.33 0 0.66 0 1 0 C1 40.92 1 81.84 1 124 C-4.08092403 124.6351155 -8.05737189 125.12439776 -12.99609375 124.9140625 C-14.04861328 124.87023437 -15.10113281 124.82640625 -16.18554688 124.78125 C-17.79526367 124.70390625 -17.79526367 124.70390625 -19.4375 124.625 C-20.53771484 124.58117187 -21.63792969 124.53734375 -22.77148438 124.4921875 C-30.86787431 124.13212569 -30.86787431 124.13212569 -32 123 C-32.08783542 120.78144736 -32.10694609 118.56011504 -32.09765625 116.33984375 C-32.09515869 115.12417725 -32.09266113 113.90851074 -32.09008789 112.65600586 C-32.08098389 111.09889893 -32.07187988 109.54179199 -32.0625 107.9375 C-32.041875 103.008125 -32.02125 98.07875 -32 93 C-42.23 93 -52.46 93 -63 93 C-63 92.67 -63 92.34 -63 92 C-52.77 92 -42.54 92 -32 92 C-32 82.1 -32 72.2 -32 62 C-40.33172387 62.36749191 -40.33172387 62.36749191 -48.6628418 62.74829102 C-49.70609619 62.79139404 -50.74935059 62.83449707 -51.82421875 62.87890625 C-52.88729248 62.9260376 -53.95036621 62.97316895 -55.0456543 63.02172852 C-58 63 -58 63 -63 62 C-63 51.44 -63 40.88 -63 30 C-52.44 30 -41.88 30 -31 30 C-31 50.79 -31 71.58 -31 93 C-20.77 93 -10.54 93 0 93 C0 62.31 0 31.62 0 0 Z " fill="#75017B" transform="translate(313,251)"/>
<path d="M0 0 C0.33 0 0.66 0 1 0 C1 10.23 1 20.46 1 31 C11.23 31 21.46 31 32 31 C32 41.56 32 52.12 32 63 C21.77 63 11.54 63 1 63 C1 72.9 1 82.8 1 93 C-9.89 93 -20.78 93 -32 93 C-32 82.77 -32 72.54 -32 62 C-21.77 62 -11.54 62 -1 62 C-1 52.1 -1 42.2 -1 32 C-9.91 32 -18.82 32 -28 32 C-23.93862016 29.96931008 -22.69024964 29.79307183 -18.359375 30.0234375 C-17.39483398 30.06903809 -16.43029297 30.11463867 -15.43652344 30.16162109 C-14.2199707 30.23203613 -13.00341797 30.30245117 -11.75 30.375 C-7.8725 30.58125 -3.995 30.7875 0 31 C0 20.77 0 10.54 0 0 Z " fill="#441447" transform="translate(313,407)"/>
<path d="M0 0 C20.79 0 41.58 0 63 0 C63 20.46 63 40.92 63 62 C62.67 62 62.34 62 62 62 C62 51.77 62 41.54 62 31 C41.54 31 21.08 31 0 31 C0 20.77 0 10.54 0 0 Z " fill="#750179" transform="translate(313,188)"/>
<path d="M0 0 C4.39656173 -0.02465504 8.7930872 -0.04283842 13.18969727 -0.05493164 C14.68644918 -0.05997121 16.18319616 -0.06680287 17.67993164 -0.07543945 C19.82699807 -0.08752159 21.97399962 -0.09323191 24.12109375 -0.09765625 C26.06133423 -0.10551147 26.06133423 -0.10551147 28.04077148 -0.11352539 C31 0 31 0 32 1 C32.09391296 2.90243762 32.11743658 4.80838459 32.11352539 6.71313477 C32.11344986 7.9343251 32.11337433 9.15551544 32.11329651 10.41371155 C32.10818911 11.75627686 32.10297311 13.09884175 32.09765625 14.44140625 C32.09579199 15.80761158 32.09436813 17.17381757 32.09336853 18.5400238 C32.08954394 22.14201695 32.07971417 25.74397 32.06866455 29.34594727 C32.05844916 33.01903735 32.05381594 36.69213408 32.04882812 40.36523438 C32.03862203 47.57685837 32.01905038 54.78837215 32 62 C21.77 62 11.54 62 1 62 C0.20411373 41.30695686 -0.13348096 20.70392295 0 0 Z " fill="#37003A" transform="translate(93,250)"/>
<path d="M0 0 C20.79 0 41.58 0 63 0 C63 10.23 63 20.46 63 31 C42.21 31 21.42 31 0 31 C0 20.77 0 10.54 0 0 Z " fill="#FEFBFD" transform="translate(219,31)"/>
<path d="M0 0 C9.9 0 19.8 0 30 0 C31 1 31 1 31.12025452 3.47401428 C31.1169236 5.12281837 31.1169236 5.12281837 31.11352539 6.80493164 C31.11344986 8.04614273 31.11337433 9.28735382 31.11329651 10.56617737 C31.10818911 11.9308374 31.1029731 13.29549702 31.09765625 14.66015625 C31.095792 16.04878183 31.09436813 17.43740807 31.09336853 18.82603455 C31.08954387 22.48721115 31.07971403 26.1483483 31.06866455 29.80950928 C31.05844932 33.54292263 31.05387067 37.27634234 31.04882812 41.00976562 C31.03809171 48.33986177 31.02101591 55.66992536 31 63 C27.06731133 63.02473868 23.13465287 63.04287835 19.2019043 63.05493164 C17.20685232 63.06242729 15.21182214 63.07513345 13.21679688 63.08789062 C11.96318359 63.09111328 10.70957031 63.09433594 9.41796875 63.09765625 C8.26063232 63.10289307 7.1032959 63.10812988 5.91088867 63.11352539 C3 63 3 63 0 62 C0 41.54 0 21.08 0 0 Z " fill="#37013A" transform="translate(157,407)"/>
<path d="M0 0 C4.00125 -0.020625 8.0025 -0.04125 12.125 -0.0625 C14.00082764 -0.07615601 14.00082764 -0.07615601 15.91455078 -0.09008789 C17.41477783 -0.09383423 17.41477783 -0.09383423 18.9453125 -0.09765625 C19.96125488 -0.10289307 20.97719727 -0.10812988 22.02392578 -0.11352539 C25.11629339 0.00443613 27.98318849 0.30438265 31 1 C32.38308781 3.76617563 32.11210196 6.01018 32.09765625 9.1015625 C32.09443359 10.31328125 32.09121094 11.525 32.08789062 12.7734375 C32.07532227 14.67996094 32.07532227 14.67996094 32.0625 16.625 C32.05798828 17.90375 32.05347656 19.1825 32.04882812 20.5 C32.03701203 23.66671292 32.02053815 26.83333356 32 30 C33.01626465 29.91371338 34.0325293 29.82742676 35.07958984 29.73852539 C44.06451353 28.97565451 51.75409606 29.33957829 61 30 C61 40.23 61 50.46 61 61 C50.77 61 40.54 61 30 61 C30 51.1 30 41.2 30 31 C20.87521451 31.03956318 20.87521451 31.03956318 11.75048828 31.09008789 C10.05255127 31.09383423 10.05255127 31.09383423 8.3203125 31.09765625 C6.57645264 31.10551147 6.57645264 31.10551147 4.79736328 31.11352539 C2 31 2 31 0 30 C0 20.1 0 10.2 0 0 Z " fill="#38023B" transform="translate(439,439)"/>
<path d="M0 0 C20.46 0 40.92 0 62 0 C62 10.23 62 20.46 62 31 C41.54 31 21.08 31 0 31 C0 20.77 0 10.54 0 0 Z " fill="#FC81CD" transform="translate(219,188)"/>
<path d="M0 0 C20.46 0 40.92 0 62 0 C61.67 10.23 61.34 20.46 61 31 C40.87 31 20.74 31 0 31 C0 20.77 0 10.54 0 0 Z " fill="#D401C4" transform="translate(313,156)"/>
<path d="M0 0 C9.9 0 19.8 0 30 0 C30 20.79 30 41.58 30 63 C20.1 63 10.2 63 0 63 C0 42.21 0 21.42 0 0 Z " fill="#36003A" transform="translate(31,93)"/>
<path d="M0 0 C20.79 0 41.58 0 63 0 C63 9.9 63 19.8 63 30 C42.21 30 21.42 30 0 30 C0 20.1 0 10.2 0 0 Z " fill="#37003A" transform="translate(93,31)"/>
<path d="M0 0 C10.56 0 21.12 0 32 0 C33 1 33 1 33.11352539 3.86743164 C33.10828857 5.11903076 33.10305176 6.37062988 33.09765625 7.66015625 C33.09515869 8.87582275 33.09266113 10.09148926 33.09008789 11.34399414 C33.08098389 12.90110107 33.07187988 14.45820801 33.0625 16.0625 C33.041875 20.991875 33.02125 25.92125 33 31 C43.23 31 53.46 31 64 31 C64 31.33 64 31.66 64 32 C53.77 32 43.54 32 33 32 C33 63.02 33 94.04 33 126 C32.67 126 32.34 126 32 126 C32 94.98 32 63.96 32 32 C22.1 32 12.2 32 2 32 C1.67 63.02 1.34 94.04 1 126 C-9.23 126 -19.46 126 -30 126 C-30 115.77 -30 105.54 -30 95 C-29.67 95 -29.34 95 -29 95 C-29 104.9 -29 114.8 -29 125 C-19.43 125 -9.86 125 0 125 C0 83.75 0 42.5 0 0 Z " fill="#7D1B82" transform="translate(61,281)"/>
<path d="M0 0 C0.68429077 -0.00095673 1.36858154 -0.00191345 2.0736084 -0.00289917 C3.52286877 -0.0035808 4.97213218 -0.00172773 6.42138672 0.00244141 C8.64687928 0.00778998 10.87217001 0.0024959 13.09765625 -0.00390625 C14.50260461 -0.00324547 15.90755285 -0.0019643 17.3125 0 C18.59962891 0.00112793 19.88675781 0.00225586 21.21289062 0.00341797 C24.15625 0.1328125 24.15625 0.1328125 25.15625 1.1328125 C25.24468793 3.58111676 25.27153752 6.00101849 25.25390625 8.44921875 C25.2524913 9.18027328 25.25107635 9.91132782 25.24961853 10.66453552 C25.24400408 13.00816882 25.23144922 15.35170789 25.21875 17.6953125 C25.21373686 19.28059758 25.20917363 20.86588416 25.20507812 22.45117188 C25.19402997 26.3450886 25.17675572 30.23893455 25.15625 34.1328125 C21.85881437 35.23195771 21.33603687 34.98263228 18.15625 34.1328125 C16.20571236 33.98712847 14.25159935 33.88621783 12.296875 33.81640625 C11.29172852 33.77829834 10.28658203 33.74019043 9.25097656 33.70092773 C7.34783691 33.63627319 7.34783691 33.63627319 5.40625 33.5703125 C1.36375 33.4259375 -2.67875 33.2815625 -6.84375 33.1328125 C-6.84375 43.0328125 -6.84375 52.9328125 -6.84375 63.1328125 C-5.85375 63.6278125 -5.85375 63.6278125 -4.84375 64.1328125 C-5.83375 64.1328125 -6.82375 64.1328125 -7.84375 64.1328125 C-7.84375 53.9028125 -7.84375 43.6728125 -7.84375 33.1328125 C-18.07375 33.1328125 -28.30375 33.1328125 -38.84375 33.1328125 C-38.84375 32.8028125 -38.84375 32.4728125 -38.84375 32.1328125 C-28.61375 32.1328125 -18.38375 32.1328125 -7.84375 32.1328125 C-7.88334822 21.97568158 -7.88334822 21.97568158 -7.93383789 11.81860352 C-7.93633545 10.56233154 -7.93883301 9.30605957 -7.94140625 8.01171875 C-7.94926147 6.07147827 -7.94926147 6.07147827 -7.95727539 4.09204102 C-7.74754847 -1.37484079 -4.83039676 0.00423295 0 0 Z " fill="#75007B" transform="translate(445.84375,405.8671875)"/>
<path d="M0 0 C0.33 0 0.66 0 1 0 C1 30.36 1 60.72 1 92 C11.23 92 21.46 92 32 92 C32 102.56 32 113.12 32 124 C21.44 124 10.88 124 0 124 C0 83.08 0 42.16 0 0 Z " fill="#D400C4" transform="translate(407,251)"/>
<path d="M0 0 C16.335 0.495 16.335 0.495 33 1 C33 21.46 33 41.92 33 63 C42.24 63 51.48 63 61 63 C61 63.33 61 63.66 61 64 C51.43 64 41.86 64 32 64 C32 53.77 32 43.54 32 33 C21.77 33 11.54 33 1 33 C0.67 22.11 0.34 11.22 0 0 Z " fill="#75007A" transform="translate(124,249)"/>
<path d="M0 0 C10.56 0 21.12 0 32 0 C32.020625 5.094375 32.04125 10.18875 32.0625 15.4375 C32.071604 17.04681396 32.08070801 18.65612793 32.09008789 20.31420898 C32.09258545 21.57048096 32.09508301 22.82675293 32.09765625 24.12109375 C32.10289307 25.4145874 32.10812988 26.70808105 32.11352539 28.04077148 C32 31 32 31 31 32 C26.76215171 32.38720155 22.50199723 32.47087643 18.25 32.625 C17.05632812 32.6765625 15.86265625 32.728125 14.6328125 32.78125 C13.48039062 32.82507813 12.32796875 32.86890625 11.140625 32.9140625 C10.08391602 32.9548291 9.02720703 32.9955957 7.93847656 33.03759766 C5 33 5 33 0 32 C0 21.44 0 10.88 0 0 Z " fill="#D300C3" transform="translate(250,281)"/>
<path d="M0 0 C5.094375 -0.020625 10.18875 -0.04125 15.4375 -0.0625 C17.04681396 -0.071604 18.65612793 -0.08070801 20.31420898 -0.09008789 C21.57048096 -0.09258545 22.82675293 -0.09508301 24.12109375 -0.09765625 C26.06133423 -0.10551147 26.06133423 -0.10551147 28.04077148 -0.11352539 C31 0 31 0 32 1 C32.08790975 3.29151417 32.10694038 5.58572524 32.09765625 7.87890625 C32.09515869 9.13517822 32.09266113 10.3914502 32.09008789 11.68579102 C32.08098389 13.29510498 32.07187988 14.90441895 32.0625 16.5625 C32.041875 21.656875 32.02125 26.75125 32 32 C21.44 32 10.88 32 0 32 C0 21.44 0 10.88 0 0 Z " fill="#76027B" transform="translate(343,250)"/>
<path d="M0 0 C10.56 0 21.12 0 32 0 C32 10.23 32 20.46 32 31 C21.77 31 11.54 31 1 31 C0.505 32.485 0.505 32.485 0 34 C-1.19908346 30.30181667 -1.02614574 26.9078215 -0.87890625 23.046875 C-0.83580322 21.83870117 -0.7927002 20.63052734 -0.74829102 19.38574219 C-0.68697998 17.85594727 -0.62566895 16.32615234 -0.5625 14.75 C-0.376875 9.8825 -0.19125 5.015 0 0 Z " fill="#75007A" transform="translate(124,188)"/>
<path d="M0 0 C10.23 0 20.46 0 31 0 C31 10.56 31 21.12 31 32 C20.77 32 10.54 32 0 32 C0 21.44 0 10.88 0 0 Z " fill="#D007C1" transform="translate(156,343)"/>
<path d="M0 0 C10.56 0 21.12 0 32 0 C32 10.23 32 20.46 32 31 C21.44 31 10.88 31 0 31 C0 20.77 0 10.54 0 0 Z " fill="#FEF8FD" transform="translate(375,156)"/>
<path d="M0 0 C10.23 0 20.46 0 31 0 C31 10.56 31 21.12 31 32 C20.77 32 10.54 32 0 32 C0 21.44 0 10.88 0 0 Z " fill="#D400C4" transform="translate(313,93)"/>
<path d="M0 0 C5.094375 -0.020625 10.18875 -0.04125 15.4375 -0.0625 C17.04681396 -0.071604 18.65612793 -0.08070801 20.31420898 -0.09008789 C21.57048096 -0.09258545 22.82675293 -0.09508301 24.12109375 -0.09765625 C26.06133423 -0.10551147 26.06133423 -0.10551147 28.04077148 -0.11352539 C31 0 31 0 32 1 C32.08783542 3.21855264 32.10694609 5.43988496 32.09765625 7.66015625 C32.09515869 8.87582275 32.09266113 10.09148926 32.09008789 11.34399414 C32.08098389 12.90110107 32.07187988 14.45820801 32.0625 16.0625 C32.041875 20.991875 32.02125 25.92125 32 31 C21.44 31 10.88 31 0 31 C0 20.77 0 10.54 0 0 Z " fill="#740179" transform="translate(250,250)"/>
<path d="M0 0 C10.23 0 20.46 0 31 0 C31 10.23 31 20.46 31 31 C20.44 31 9.88 31 -1 31 C-0.67 20.77 -0.34 10.54 0 0 Z " fill="#D400C4" transform="translate(282,188)"/>
<path d="M0 0 C10.23 0 20.46 0 31 0 C31 10.23 31 20.46 31 31 C20.77 31 10.54 31 0 31 C0 20.77 0 10.54 0 0 Z " fill="#D003C0" transform="translate(188,188)"/>
<path d="M0 0 C10.23 0 20.46 0 31 0 C31 10.23 31 20.46 31 31 C20.77 31 10.54 31 0 31 C0 20.77 0 10.54 0 0 Z " fill="#FEFBFE" transform="translate(407,125)"/>
<path d="M0 0 C10.23 0 20.46 0 31 0 C31 10.23 31 20.46 31 31 C20.77 31 10.54 31 0 31 C0 20.77 0 10.54 0 0 Z " fill="#39003C" transform="translate(62,62)"/>
<path d="M0 0 C10.23 0 20.46 0 31 0 C31 10.23 31 20.46 31 31 C20.77 31 10.54 31 0 31 C0 20.77 0 10.54 0 0 Z " fill="#FA20E1" transform="translate(313,31)"/>
<path d="M0 0 C10.23 0 20.46 0 31 0 C31 10.23 31 20.46 31 31 C20.77 31 10.54 31 0 31 C0 20.77 0 10.54 0 0 Z " fill="#FB21E2" transform="translate(157,31)"/>
<path d="M0 0 C10.23 0 20.46 0 31 0 C32.09911549 3.29734646 32.1139456 5.72958745 32.09765625 9.19921875 C32.09515869 10.28807373 32.09266113 11.37692871 32.09008789 12.4987793 C32.08098389 13.88105713 32.07187988 15.26333496 32.0625 16.6875 C32.041875 21.080625 32.02125 25.47375 32 30 C21.44 30 10.88 30 0 30 C0 20.1 0 10.2 0 0 Z " fill="#37003A" transform="translate(125,470)"/>
<path d="M0 0 C10.23 0 20.46 0 31 0 C31 10.23 31 20.46 31 31 C21.43 31 11.86 31 2 31 C0.61090405 23.35997229 -0.27141668 16.90349227 -0.125 9.3125 C-0.08375 6.239375 -0.0425 3.16625 0 0 Z " fill="#37033A" transform="translate(313,439)"/>
<path d="M0 0 C4.00125 -0.020625 8.0025 -0.04125 12.125 -0.0625 C14.00082764 -0.07615601 14.00082764 -0.07615601 15.91455078 -0.09008789 C17.41477783 -0.09383423 17.41477783 -0.09383423 18.9453125 -0.09765625 C19.96125488 -0.10289307 20.97719727 -0.10812988 22.02392578 -0.11352539 C25.09114726 0.00347691 27.98633134 0.43223583 31 1 C31.02897435 5.27081914 31.04678996 9.54161309 31.0625 13.8125 C31.07087891 15.02744141 31.07925781 16.24238281 31.08789062 17.49414062 C31.09272461 19.23920898 31.09272461 19.23920898 31.09765625 21.01953125 C31.10551147 22.62985229 31.10551147 22.62985229 31.11352539 24.27270508 C31 27 31 27 30 30 C26.45701712 30.8067346 23.18168116 31.12838342 19.55078125 31.1328125 C18.53822266 31.13410156 17.52566406 31.13539063 16.48242188 31.13671875 C15.43634766 31.13285156 14.39027344 31.12898438 13.3125 31.125 C11.72598633 31.13080078 11.72598633 31.13080078 10.10742188 31.13671875 C9.09873047 31.13542969 8.09003906 31.13414062 7.05078125 31.1328125 C5.66886597 31.13112061 5.66886597 31.13112061 4.2590332 31.12939453 C2 31 2 31 0 30 C0 20.1 0 10.2 0 0 Z " fill="#37013A" transform="translate(439,439)"/>
<path d="M0 0 C10.23 0 20.46 0 31 0 C31 9.9 31 19.8 31 30 C20.77 30 10.54 30 0 30 C0 20.1 0 10.2 0 0 Z " fill="#FEFAFE" transform="translate(94,157)"/>
<path d="M0 0 C9.9 0 19.8 0 30 0 C30 9.9 30 19.8 30 30 C20.1 30 10.2 30 0 30 C0 20.1 0 10.2 0 0 Z " fill="#FEFDFE" transform="translate(157,188)"/>
<path d="M0 0 C9.9 0 19.8 0 30 0 C30 9.9 30 19.8 30 30 C20.1 30 10.2 30 0 30 C0 20.1 0 10.2 0 0 Z " fill="#36003A" transform="translate(470,157)"/>
<path d="M0 0 C9.9 0 19.8 0 30 0 C30 9.9 30 19.8 30 30 C20.1 30 10.2 30 0 30 C0 20.1 0 10.2 0 0 Z " fill="#360039" transform="translate(0,157)"/>
<path d="M0 0 C1.07354736 0.02618408 2.14709473 0.05236816 3.25317383 0.0793457 C4.41655273 0.09545898 5.57993164 0.11157227 6.77856445 0.12817383 C7.99350586 0.17006836 9.20844727 0.21196289 10.46020508 0.25512695 C12.30001953 0.28896484 12.30001953 0.28896484 14.17700195 0.32348633 C17.21012067 0.38249642 20.2408073 0.46478103 23.27270508 0.56762695 C24.12106595 7.13407368 24.39780006 13.51444618 24.33520508 20.13012695 C24.31458008 23.24450195 24.29395508 26.35887695 24.27270508 29.56762695 C14.37270508 29.56762695 4.47270508 29.56762695 -5.72729492 29.56762695 C-5.78916992 25.71075195 -5.85104492 21.85387695 -5.91479492 17.88012695 C-5.94210693 16.67267822 -5.96941895 15.46522949 -5.99755859 14.22119141 C-6.00505127 13.25914795 -6.01254395 12.29710449 -6.02026367 11.3059082 C-6.03597412 10.32662354 -6.05168457 9.34733887 -6.06787109 8.33837891 C-5.52617121 3.93138822 -4.60461514 0.95835021 0 0 Z " fill="#75007A" transform="translate(99.727294921875,470.432373046875)"/>
<path d="M0 0 C9.9 0.33 19.8 0.66 30 1 C30 10.24 30 19.48 30 29 C20.1 29 10.2 29 0 29 C0 19.43 0 9.86 0 0 Z " fill="#D400C4" transform="translate(407,94)"/>
<path d="M0 0 C10.23 0 20.46 0 31 0 C31 0.66 31 1.32 31 2 C16.15 1.505 16.15 1.505 1 1 C1.36695242 7.97036268 1.36695242 7.97036268 1.74829102 14.93994141 C1.79139404 15.81827637 1.83449707 16.69661133 1.87890625 17.6015625 C1.9260376 18.49182129 1.97316895 19.38208008 2.02172852 20.29931641 C2 23 2 23 1 29 C10.9 29 20.8 29 31 29 C33 34 33 34 32 60 C92.39 60.495 92.39 60.495 154 61 C153.67 51.43 153.34 41.86 153 32 C153.99 31.67 154.98 31.34 156 31 C156.02465504 35.39656173 156.04283842 39.7930872 156.05493164 44.18969727 C156.05997121 45.68644918 156.06680287 47.18319616 156.07543945 48.67993164 C156.08752159 50.82699807 156.09323191 52.97399962 156.09765625 55.12109375 C156.10289307 56.4145874 156.10812988 57.70808105 156.11352539 59.04077148 C156 62 156 62 155 63 C153.393108 63.09600136 151.78198231 63.12187889 150.17222595 63.12025452 C149.12749619 63.12162918 148.08276642 63.12300385 147.00637817 63.12442017 C145.85048187 63.12082489 144.69458557 63.11722961 143.50366211 63.11352539 C142.29407333 63.11367142 141.08448456 63.11381744 139.83824158 63.1139679 C136.51193649 63.11338893 133.18569281 63.10835973 129.8593986 63.10139394 C126.38670071 63.09515978 122.91400207 63.09455655 119.44129944 63.09336853 C112.86103807 63.0902554 106.28079324 63.08204225 99.70053917 63.07201904 C92.21093888 63.06085734 84.72133782 63.05534731 77.2317313 63.05032361 C61.82114298 63.03985962 46.41057745 63.02151437 31 63 C31 52.44 31 41.88 31 31 C20.77 31 10.54 31 0 31 C0 20.77 0 10.54 0 0 Z " fill="#FF6CE1" transform="translate(157,62)"/>
<path d="M0 0 C0.33 0 0.66 0 1 0 C1 40.92 1 81.84 1 124 C0.01 123.67 -0.98 123.34 -2 123 C-2 113.76 -2 104.52 -2 95 C-15.86 94.505 -15.86 94.505 -30 94 C-29.67 102.91 -29.34 111.82 -29 121 C-18.11 121.495 -18.11 121.495 -7 122 C-10.23504358 124.15669572 -11.12190963 124.24833577 -14.8515625 124.23046875 C-15.78484375 124.22853516 -16.718125 124.22660156 -17.6796875 124.22460938 C-18.65164063 124.21236328 -19.62359375 124.20011719 -20.625 124.1875 C-21.6046875 124.18685547 -22.584375 124.18621094 -23.59375 124.18554688 C-30.85973976 124.14026024 -30.85973976 124.14026024 -32 123 C-32.08783542 120.78144736 -32.10694609 118.56011504 -32.09765625 116.33984375 C-32.09515869 115.12417725 -32.09266113 113.90851074 -32.09008789 112.65600586 C-32.08098389 111.09889893 -32.07187988 109.54179199 -32.0625 107.9375 C-32.041875 103.008125 -32.02125 98.07875 -32 93 C-42.23 93 -52.46 93 -63 93 C-63 92.67 -63 92.34 -63 92 C-52.77 92 -42.54 92 -32 92 C-32 81.77 -32 71.54 -32 61 C-31.67 61 -31.34 61 -31 61 C-31 71.56 -31 82.12 -31 93 C-20.77 93 -10.54 93 0 93 C0 62.31 0 31.62 0 0 Z " fill="#844C88" transform="translate(313,251)"/>
<path d="M0 0 C0.33 0 0.66 0 1 0 C1 30.36 1 60.72 1 92 C11.23 92 21.46 92 32 92 C32 102.56 32 113.12 32 124 C21.44 124 10.88 124 0 124 C0 83.08 0 42.16 0 0 Z M3 94 C1.64299353 96.71401294 1.8876139 98.84846316 1.90234375 101.8828125 C1.90484131 102.93355957 1.90733887 103.98430664 1.90991211 105.06689453 C1.91901611 106.40606934 1.92812012 107.74524414 1.9375 109.125 C1.958125 113.37375 1.97875 117.6225 2 122 C11.24 122 20.48 122 30 122 C30 112.76 30 103.52 30 94 C21.09 94 12.18 94 3 94 Z " fill="#A6339E" transform="translate(407,251)"/>
<path d="M0 0 C0.33 0 0.66 0 1 0 C1 20.79 1 41.58 1 63 C2.485 63.495 2.485 63.495 4 64 C3.01 64 2.02 64 1 64 C0.505 65.485 0.505 65.485 0 67 C0 66.01 0 65.02 0 64 C-10.23 64 -20.46 64 -31 64 C-31 73.9 -31 83.8 -31 94 C-31.33 94 -31.66 94 -32 94 C-32.33 84.43 -32.66 74.86 -33 65 C-41.58 65.33 -50.16 65.66 -59 66 C-60.933659 69.86731799 -61.28138031 71.48324962 -61.4140625 75.640625 C-61.45273438 76.71054687 -61.49140625 77.78046875 -61.53125 78.8828125 C-61.5621875 79.99398437 -61.593125 81.10515625 -61.625 82.25 C-61.66367188 83.37664062 -61.70234375 84.50328125 -61.7421875 85.6640625 C-61.83637336 88.44254548 -61.92199586 91.22102334 -62 94 C-62.33 94 -62.66 94 -63 94 C-63 83.77 -63 73.54 -63 63 C-42.21 63 -21.42 63 0 63 C0 42.21 0 21.42 0 0 Z " fill="#6B246F" transform="translate(156,406)"/>
<path d="M0 0 C0.66 0.33 1.32 0.66 2 1 C4.00949748 1.06146655 6.02107695 1.05994036 8.03125 1.02734375 C9.23394531 1.01509766 10.43664062 1.00285156 11.67578125 0.99023438 C14.22531726 0.95507734 16.77480241 0.91601457 19.32421875 0.87304688 C20.52691406 0.86208984 21.72960937 0.85113281 22.96875 0.83984375 C24.63067383 0.81458618 24.63067383 0.81458618 26.32617188 0.78881836 C29 1 29 1 31 3 C30.01 3.33 29.02 3.66 28 4 C28 3.34 28 2.68 28 2 C24.0205267 2.13814223 20.04151585 2.28679674 16.0625 2.4375 C14.92619141 2.47681641 13.78988281 2.51613281 12.61914062 2.55664062 C10.99975586 2.61948242 10.99975586 2.61948242 9.34765625 2.68359375 C8.34742432 2.72025146 7.34719238 2.75690918 6.31665039 2.79467773 C4.03930812 2.74671841 4.03930812 2.74671841 3 4 C2.85485432 5.59772471 2.77287775 7.20129681 2.71875 8.8046875 C2.68136719 9.78050781 2.64398438 10.75632812 2.60546875 11.76171875 C2.57066406 12.78910156 2.53585937 13.81648438 2.5 14.875 C2.43110493 16.89337045 2.35835689 18.91161408 2.28125 20.9296875 C2.25095703 21.82929199 2.22066406 22.72889648 2.18945312 23.65576172 C2 26 2 26 1 29 C4.95099928 29.0246985 8.90196874 29.04285923 12.85302734 29.05493164 C14.85906551 29.06244036 16.86508202 29.0751447 18.87109375 29.08789062 C20.12792969 29.09111328 21.38476562 29.09433594 22.6796875 29.09765625 C23.84226074 29.10289307 25.00483398 29.10812988 26.20263672 29.11352539 C28.95502192 29.19356283 28.95502192 29.19356283 31 28 C31.495 30.475 31.495 30.475 32 33 C29.43491111 34.28254445 28.73003914 33.70927487 26 33 C24.04946236 32.85431597 22.09534935 32.75340533 20.140625 32.68359375 C19.13547852 32.64548584 18.13033203 32.60737793 17.09472656 32.56811523 C15.19158691 32.50346069 15.19158691 32.50346069 13.25 32.4375 C9.2075 32.293125 5.165 32.14875 1 32 C1 41.9 1 51.8 1 62 C1.99 62.495 1.99 62.495 3 63 C2.01 63 1.02 63 0 63 C0 52.77 0 42.54 0 32 C-10.23 32 -20.46 32 -31 32 C-31 31.67 -31 31.34 -31 31 C-20.77 31 -10.54 31 0 31 C0 20.77 0 10.54 0 0 Z " fill="#6B036C" transform="translate(438,407)"/>
<path d="M0 0 C20.46 0 40.92 0 62 0 C62 10.23 62 20.46 62 31 C61.01 31 60.02 31 59 31 C59 30.34 59 29.68 59 29 C59.66 29 60.32 29 61 29 C61 19.76 61 10.52 61 1 C52.45445363 1.67742369 52.45445363 1.67742369 44 3 C42.49673701 3.08092968 40.99054075 3.1179662 39.48510742 3.11352539 C38.62459274 3.11344986 37.76407806 3.11337433 36.87748718 3.11329651 C35.9627211 3.10813522 35.04795502 3.10297394 34.10546875 3.09765625 C33.15811356 3.0962413 32.21075836 3.09482635 31.23469543 3.09336853 C28.21893105 3.08778611 25.20324182 3.07523682 22.1875 3.0625 C20.13867295 3.05748273 18.08984473 3.05292022 16.04101562 3.04882812 C11.02731494 3.03782243 6.0136702 3.02056988 1 3 C1.03552979 3.77714355 1.07105957 4.55428711 1.10766602 5.35498047 C1.26485529 8.86142966 1.41378153 12.36818176 1.5625 15.875 C1.61857422 17.09832031 1.67464844 18.32164062 1.73242188 19.58203125 C1.78076172 20.74863281 1.82910156 21.91523438 1.87890625 23.1171875 C1.9260376 24.19597168 1.97316895 25.27475586 2.02172852 26.38623047 C2 29 2 29 1 31 C10.57 31 20.14 31 30 31 C30 31.33 30 31.66 30 32 C20.1 32 10.2 32 0 32 C0 21.44 0 10.88 0 0 Z " fill="#FE78DA" transform="translate(157,156)"/>
<path d="M0 0 C10.56 0 21.12 0 32 0 C32.020625 5.094375 32.04125 10.18875 32.0625 15.4375 C32.071604 17.04681396 32.08070801 18.65612793 32.09008789 20.31420898 C32.09258545 21.57048096 32.09508301 22.82675293 32.09765625 24.12109375 C32.10289307 25.4145874 32.10812988 26.70808105 32.11352539 28.04077148 C32 31 32 31 31 32 C26.76215171 32.38720155 22.50199723 32.47087643 18.25 32.625 C17.05632812 32.6765625 15.86265625 32.728125 14.6328125 32.78125 C13.48039062 32.82507813 12.32796875 32.86890625 11.140625 32.9140625 C10.08391602 32.9548291 9.02720703 32.9955957 7.93847656 33.03759766 C5 33 5 33 0 32 C0 21.44 0 10.88 0 0 Z M1 2 C1 11.24 1 20.48 1 30 C10.57 30 20.14 30 30 30 C30 20.76 30 11.52 30 2 C20.43 2 10.86 2 1 2 Z " fill="#B10AA7" transform="translate(250,281)"/>
<path d="M0 0 C16.335 0.495 16.335 0.495 33 1 C33 21.46 33 41.92 33 63 C42.24 63 51.48 63 61 63 C61 63.33 61 63.66 61 64 C51.43 64 41.86 64 32 64 C30.85193622 22.13667426 30.85193622 22.13667426 31 2 C21.76 2.33 12.52 2.66 3 3 C3 11.58 3 20.16 3 29 C5.43387753 30.21693876 7.41838846 30.31959896 10.125 30.5625 C11.03507813 30.64628906 11.94515625 30.73007812 12.8828125 30.81640625 C13.58148438 30.87699219 14.28015625 30.93757813 15 31 C15 31.33 15 31.66 15 32 C10.38 32 5.76 32 1 32 C0.67 21.44 0.34 10.88 0 0 Z " fill="#5D1A61" transform="translate(124,249)"/>
<path d="M0 0 C0.33 0 0.66 0 1 0 C1.15587437 11.85097532 1.30398936 23.70202215 1.4429636 35.55320835 C1.50776544 41.05985788 1.5749581 46.56645371 1.64819336 52.07299805 C1.97457743 76.74487541 2.18098701 101.3471014 1 126 C0.67 126 0.34 126 0 126 C0 115.77 0 105.54 0 95 C-9.9 95 -19.8 95 -30 95 C-30 94.67 -30 94.34 -30 94 C-20.1 94 -10.2 94 0 94 C0 84.1 0 74.2 0 64 C-9.9 64 -19.8 64 -30 64 C-30 63.67 -30 63.34 -30 63 C-20.1 63 -10.2 63 0 63 C0 42.21 0 21.42 0 0 Z " fill="#6E4770" transform="translate(30,93)"/>
<path d="M0 0 C0.33 0 0.66 0 1 0 C1 9.9 1 19.8 1 30 C11.23 30 21.46 30 32 30 C32 30.33 32 30.66 32 31 C21.77 31 11.54 31 1 31 C1 62.02 1 93.04 1 125 C0.67 125 0.34 125 0 125 C0 93.98 0 62.96 0 31 C-9.9 31 -19.8 31 -30 31 C-30 30.67 -30 30.34 -30 30 C-20.1 30 -10.2 30 0 30 C0 20.1 0 10.2 0 0 Z " fill="#552657" transform="translate(93,282)"/>
<path d="M0 0 C0.66 0 1.32 0 2 0 C2 10.23 2 20.46 2 31 C-37.93 31 -77.86 31 -119 31 C-119 30.67 -119 30.34 -119 30 C-79.73 30 -40.46 30 0 30 C-0.33 20.43 -0.66 10.86 -1 1 C-0.67 0.67 -0.34 0.34 0 0 Z " fill="#FF7BD7" transform="translate(311,93)"/>
<path d="M0 0 C0.66 0 1.32 0 2 0 C2 9.24 2 18.48 2 28 C15.365 28.495 15.365 28.495 29 29 C28.505 15.14 28.505 15.14 28 1 C28.99 0.67 29.98 0.34 31 0 C31 10.23 31 20.46 31 31 C20.44 31 9.88 31 -1 31 C-0.67 20.77 -0.34 10.54 0 0 Z " fill="#BA09AD" transform="translate(282,188)"/>
<path d="M0 0 C0.99 0 1.98 0 3 0 C2.96447021 0.76666992 2.92894043 1.53333984 2.89233398 2.32324219 C2.73467494 5.79858443 2.58598913 9.27425439 2.4375 12.75 C2.38142578 13.9565625 2.32535156 15.163125 2.26757812 16.40625 C2.21923828 17.56640625 2.17089844 18.7265625 2.12109375 19.921875 C2.0739624 20.99018555 2.02683105 22.05849609 1.97827148 23.15917969 C1.89041918 26.22781732 1.89041918 26.22781732 3 30 C32.205 30.495 32.205 30.495 62 31 C62 31.33 62 31.66 62 32 C31.31 32 0.62 32 -31 32 C-31 31.67 -31 31.34 -31 31 C-20.77 31 -10.54 31 0 31 C0 20.77 0 10.54 0 0 Z " fill="#F946D7" transform="translate(219,156)"/>
<path d="M0 0 C20.46 0 40.92 0 62 0 C62 9.9 62 19.8 62 30 C61.67 30 61.34 30 61 30 C61 20.43 61 10.86 61 1 C41.53 1 22.06 1 2 1 C2.33 10.24 2.66 19.48 3 29 C2.01 29.33 1.02 29.66 0 30 C0 20.1 0 10.2 0 0 Z " fill="#FE74DE" transform="translate(219,188)"/>
<path d="M0 0 C0 0.66 0 1.32 0 2 C-40.92 1.67 -81.84 1.34 -124 1 C-124.33 1.66 -124.66 2.32 -125 3 C-125.33 2.01 -125.66 1.02 -126 0 C-109.86700132 -0.15381903 -93.73396163 -0.30185452 -77.60084724 -0.4429636 C-70.11033484 -0.50861528 -62.61984865 -0.5761751 -55.12939453 -0.64819336 C-48.60238137 -0.71094364 -42.07534745 -0.77014804 -35.54826343 -0.82505554 C-32.09072952 -0.85426608 -28.63323254 -0.88527851 -25.17575455 -0.92053413 C-21.32049758 -0.95977955 -17.46519891 -0.99110998 -13.60986328 -1.02172852 C-12.45756226 -1.03467453 -11.30526123 -1.04762054 -10.11804199 -1.06095886 C-9.07193756 -1.06799835 -8.02583313 -1.07503784 -6.94802856 -1.08229065 C-6.03545351 -1.09058679 -5.12287846 -1.09888292 -4.18264961 -1.10743046 C-2 -1 -2 -1 0 0 Z " fill="#EF2AD2" transform="translate(314,125)"/>
<path d="M0 0 C4.39656173 -0.02465504 8.7930872 -0.04283842 13.18969727 -0.05493164 C14.68644918 -0.05997121 16.18319616 -0.06680287 17.67993164 -0.07543945 C19.82699807 -0.08752159 21.97399962 -0.09323191 24.12109375 -0.09765625 C26.06133423 -0.10551147 26.06133423 -0.10551147 28.04077148 -0.11352539 C31 0 31 0 32 1 C32.08843793 3.44830426 32.11528752 5.86820599 32.09765625 8.31640625 C32.0962413 9.04746078 32.09482635 9.77851532 32.09336853 10.53172302 C32.08775408 12.87535632 32.07519922 15.21889539 32.0625 17.5625 C32.05748686 19.14778508 32.05292363 20.73307166 32.04882812 22.31835938 C32.03777997 26.2122761 32.02050572 30.10612205 32 34 C30 32 30 32 29.77294922 29.11083984 C29.78342285 27.90637207 29.79389648 26.7019043 29.8046875 25.4609375 C29.80968262 24.28837402 29.81467773 23.11581055 29.81982422 21.90771484 C29.83803223 20.41191895 29.85624023 18.91612305 29.875 17.375 C29.936875 10.259375 29.936875 10.259375 30 3 C20.1 3 10.2 3 0 3 C0 2.01 0 1.02 0 0 Z " fill="#A06CA3" transform="translate(439,406)"/>
<path d="M0 0 C10.23 0 20.46 0 31 0 C31 0.33 31 0.66 31 1 C21.43 1 11.86 1 2 1 C2 10.57 2 20.14 2 30 C4.64 30 7.28 30 10 30 C10.66 30.66 11.32 31.32 12 32 C8.04 32 4.08 32 0 32 C0 21.44 0 10.88 0 0 Z " fill="#7C3280" transform="translate(343,250)"/>
<path d="M0 0 C20.79 0 41.58 0 63 0 C62.67 0.99 62.34 1.98 62 3 C61.29786377 2.84152588 60.59572754 2.68305176 59.87231445 2.51977539 C56.89552459 1.98109408 54.06516197 1.79208274 51.04296875 1.68359375 C50.04031982 1.64548584 49.0376709 1.60737793 48.00463867 1.56811523 C46.74498291 1.52501221 45.48532715 1.48190918 44.1875 1.4375 C38.1546875 1.2209375 38.1546875 1.2209375 32 1 C32 10.9 32 20.8 32 31 C32.66 31.33 33.32 31.66 34 32 C33.01 32 32.02 32 31 32 C31 21.77 31 11.54 31 1 C20.77 1 10.54 1 0 1 C0 0.67 0 0.34 0 0 Z " fill="#5B2D5F" transform="translate(407,438)"/>
<path d="M0 0 C0.33 0 0.66 0 1 0 C1.01213028 0.96386627 1.01213028 0.96386627 1.02450562 1.94720459 C1.11051321 8.6306957 1.2100154 15.31388892 1.31738281 21.99707031 C1.35568354 24.49181112 1.39053446 26.98660736 1.421875 29.48144531 C1.46750124 33.06595685 1.5255006 36.6500864 1.5859375 40.234375 C1.59748871 41.35116638 1.60903992 42.46795776 1.62094116 43.61859131 C1.64081085 44.65936829 1.66068054 45.70014526 1.68115234 46.77246094 C1.70113785 48.14479889 1.70113785 48.14479889 1.7215271 49.54486084 C1.89983436 52.37226995 1.89983436 52.37226995 4 56 C16.87 56.495 16.87 56.495 30 57 C30 57.33 30 57.66 30 58 C20.1 58 10.2 58 0 58 C0 38.86 0 19.72 0 0 Z " fill="#2E0730" transform="translate(407,380)"/>
<path d="M0 0 C0.33 0 0.66 0 1 0 C1.66 20.46 2.32 40.92 3 62 C1.515 62.495 1.515 62.495 0 63 C0 42.21 0 21.42 0 0 Z " fill="#580F55" transform="translate(438,62)"/>
<path d="M0 0 C0.33 0 0.66 0 1 0 C1 9.57 1 19.14 1 29 C10.9 29 20.8 29 31 29 C31 19.43 31 9.86 31 0 C31.33 0 31.66 0 32 0 C32 9.9 32 19.8 32 30 C21.77 30 11.54 30 1 30 C0.67 30.99 0.34 31.98 0 33 C-1.16898166 29.36316817 -1.02874952 26.06165462 -0.87890625 22.265625 C-0.80639648 20.32236328 -0.80639648 20.32236328 -0.73242188 18.33984375 C-0.67590496 16.97655737 -0.61926274 15.61327617 -0.5625 14.25 C-0.50924178 12.87111388 -0.45650166 11.49220765 -0.40429688 10.11328125 C-0.27463047 6.74195467 -0.13966346 3.37092482 0 0 Z " fill="#5B0760" transform="translate(124,189)"/>
<path d="M0 0 C10.23 0 20.46 0 31 0 C30.67 0.66 30.34 1.32 30 2 C21.42 2 12.84 2 4 2 C3.67 2.66 3.34 3.32 3 4 C2.67 3.34 2.34 2.68 2 2 C1.67 11.57 1.34 21.14 1 31 C0.67 31 0.34 31 0 31 C0 20.77 0 10.54 0 0 Z " fill="#841188" transform="translate(156,375)"/>
<path d="M0 0 C10.23 0 20.46 0 31 0 C31 0.66 31 1.32 31 2 C21.43 2.33 11.86 2.66 2 3 C1.67 11.91 1.34 20.82 1 30 C0.67 30 0.34 30 0 30 C0 20.1 0 10.2 0 0 Z " fill="#CE15B3" transform="translate(313,93)"/>
<path d="M0 0 C9.24 0 18.48 0 28 0 C28 10.23 28 20.46 28 31 C27.34 31 26.68 31 26 31 C25.10181404 27.23487702 24.9428819 23.90422547 25.12109375 20.04296875 C25.18574829 18.53899536 25.18574829 18.53899536 25.25170898 17.00463867 C25.31302002 15.74498291 25.37433105 14.48532715 25.4375 13.1875 C25.623125 9.165625 25.80875 5.14375 26 1 C17.42 1 8.84 1 0 1 C0 0.67 0 0.34 0 0 Z " fill="#ED8EC9" transform="translate(191,31)"/>
<path d="M0 0 C0.33 0 0.66 0 1 0 C1 8.25 1 16.5 1 25 C-9.23 24.67 -19.46 24.34 -30 24 C-30 23.01 -30 22.02 -30 21 C-29.34 21 -28.68 21 -28 21 C-28 21.66 -28 22.32 -28 23 C-27.34 22.67 -26.68 22.34 -26 22 C-24.1136088 21.915085 -22.22421485 21.892807 -20.3359375 21.90234375 C-19.21445313 21.90556641 -18.09296875 21.90878906 -16.9375 21.91210938 C-15.761875 21.92048828 -14.58625 21.92886719 -13.375 21.9375 C-12.19164062 21.94201172 -11.00828125 21.94652344 -9.7890625 21.95117188 C-6.85935361 21.96298522 -3.92967059 21.9809211 -1 22 C-0.67 14.74 -0.34 7.48 0 0 Z " fill="#310532" transform="translate(187,288)"/>
<path d="M0 0 C0.99 0 1.98 0 3 0 C3.89830835 4.62089818 4.19197186 9.11704257 4.1875 13.8125 C4.18814453 14.51375 4.18878906 15.215 4.18945312 15.9375 C4.13547051 21.24742613 3.45403232 25.91088689 2 31 C1.67 31 1.34 31 1 31 C0.67 20.77 0.34 10.54 0 0 Z " fill="#42004A" transform="translate(374,250)"/>
<path d="M0 0 C0.33 0 0.66 0 1 0 C1 20.79 1 41.58 1 63 C1.99 63.33 2.98 63.66 4 64 C3.01 64 2.02 64 1 64 C0.67 64.99 0.34 65.98 0 67 C0 66.01 0 65.02 0 64 C-1.98 64 -3.96 64 -6 64 C-6 63.67 -6 63.34 -6 63 C-4.02 63 -2.04 63 0 63 C0 42.21 0 21.42 0 0 Z " fill="#542F56" transform="translate(156,406)"/>
<path d="M0 0 C0.99 0.495 0.99 0.495 2 1 C2 9.25 2 17.5 2 26 C14.375 25.505 14.375 25.505 27 25 C27.66 23.35 28.32 21.7 29 20 C29.33 20 29.66 20 30 20 C30 22.31 30 24.62 30 27 C20.1 27 10.2 27 0 27 C0 18.09 0 9.18 0 0 Z " fill="#C40BB8" transform="translate(157,348)"/>
<path d="M0 0 C0.33 0 0.66 0 1 0 C1.33 9.24 1.66 18.48 2 28 C1.34 28 0.68 28 0 28 C0 37.9 0 47.8 0 58 C-0.33 58 -0.66 58 -1 58 C-1 48.1 -1 38.2 -1 28 C-2.65 28 -4.3 28 -6 28 C-6 27.67 -6 27.34 -6 27 C-4.35 27 -2.7 27 -1 27 C-1.33 26.01 -1.66 25.02 -2 24 C-1.34 24 -0.68 24 0 24 C0 16.08 0 8.16 0 0 Z " fill="#948195" transform="translate(470,442)"/>
<path d="M0 0 C0.66 0 1.32 0 2 0 C2 10.23 2 20.46 2 31 C-0.31 31 -2.62 31 -5 31 C-5 30.67 -5 30.34 -5 30 C-3.35 30 -1.7 30 0 30 C-0.05329468 28.69011108 -0.05329468 28.69011108 -0.10766602 27.35375977 C-0.23662253 24.12424949 -0.36097912 20.89460491 -0.48217773 17.66479492 C-0.53566026 16.26498319 -0.59099434 14.86524096 -0.64819336 13.46557617 C-0.72992949 11.4577104 -0.80453025 9.44955813 -0.87890625 7.44140625 C-0.9260376 6.23170166 -0.97316895 5.02199707 -1.02172852 3.77563477 C-1 1 -1 1 0 0 Z " fill="#FC6ADA" transform="translate(311,93)"/>
<path d="M0 0 C0.99 0 1.98 0 3 0 C4.09911549 3.29734646 4.1139456 5.72958745 4.09765625 9.19921875 C4.09443359 10.40771484 4.09121094 11.61621094 4.08789062 12.86132812 C4.07951172 14.12396484 4.07113281 15.38660156 4.0625 16.6875 C4.05798828 17.96173828 4.05347656 19.23597656 4.04882812 20.54882812 C4.03702873 23.69926564 4.02056597 26.84960949 4 30 C3.34 30 2.68 30 2 30 C1.98018066 29.19256348 1.96036133 28.38512695 1.93994141 27.55322266 C1.84494101 23.91014125 1.73516088 20.26765314 1.625 16.625 C1.57859375 14.71847656 1.57859375 14.71847656 1.53125 12.7734375 C1.49257812 11.56171875 1.45390625 10.35 1.4140625 9.1015625 C1.3826416 7.98088379 1.3512207 6.86020508 1.31884766 5.70556641 C1.26588797 2.85289588 1.26588797 2.85289588 -1 1 C-0.67 0.67 -0.34 0.34 0 0 Z " fill="#320D34" transform="translate(153,470)"/>
<path d="M0 0 C0.99 0 1.98 0 3 0 C2.94670532 1.14214966 2.94670532 1.14214966 2.89233398 2.30737305 C2.73443583 5.76716159 2.5858732 9.22729044 2.4375 12.6875 C2.38142578 13.88568359 2.32535156 15.08386719 2.26757812 16.31835938 C2.21923828 17.47529297 2.17089844 18.63222656 2.12109375 19.82421875 C2.0739624 20.88729248 2.02683105 21.95036621 1.97827148 23.0456543 C1.9988821 25.84800382 2.3474589 28.2821773 3 31 C2.01 31 1.02 31 0 31 C0 20.77 0 10.54 0 0 Z " fill="#F334D1" transform="translate(219,156)"/>
<path d="M0 0 C1.485 0.99 1.485 0.99 3 2 C3.34057617 4.70556641 3.34057617 4.70556641 3.29296875 8.1015625 C3.28330078 9.31328125 3.27363281 10.525 3.26367188 11.7734375 C3.23853516 13.04445313 3.21339844 14.31546875 3.1875 15.625 C3.17396484 16.90375 3.16042969 18.1825 3.14648438 19.5 C3.11103196 22.66708282 3.06161441 25.83333541 3 29 C5.43387753 30.21693876 7.41838846 30.31959896 10.125 30.5625 C11.03507813 30.64628906 11.94515625 30.73007812 12.8828125 30.81640625 C13.58148438 30.87699219 14.28015625 30.93757813 15 31 C15 31.33 15 31.66 15 32 C10.38 32 5.76 32 1 32 C0.67 21.44 0.34 10.88 0 0 Z " fill="#680A6E" transform="translate(124,249)"/>
<path d="M0 0 C0.33 0 0.66 0 1 0 C1 1.65 1 3.3 1 5 C-9.23 5 -19.46 5 -30 5 C-30 4.67 -30 4.34 -30 4 C-28.69011108 3.92483154 -28.69011108 3.92483154 -27.35375977 3.84814453 C-24.12358502 3.65822292 -20.89408512 3.45974212 -17.66479492 3.25537109 C-16.26526542 3.16858109 -14.86551786 3.08523737 -13.46557617 3.00537109 C-11.45698299 2.89018805 -9.44916625 2.76170573 -7.44140625 2.6328125 C-6.23170166 2.55949707 -5.02199707 2.48618164 -3.77563477 2.41064453 C-2.40169556 2.20737549 -2.40169556 2.20737549 -1 2 C-0.67 1.34 -0.34 0.68 0 0 Z " fill="#843689" transform="translate(155,277)"/>
<path d="M0 0 C10.04584053 -0.15723924 19.9811352 0.32807613 30 1 C30 1.33 30 1.66 30 2 C25.77123165 2.19732164 21.54198062 2.38114059 17.3125 2.5625 C15.51522461 2.64661133 15.51522461 2.64661133 13.68164062 2.73242188 C12.52470703 2.78076172 11.36777344 2.82910156 10.17578125 2.87890625 C9.11270752 2.9260376 8.04963379 2.97316895 6.9543457 3.02172852 C4.15199618 3.0011179 1.7178227 2.6525411 -1 2 C-0.67 1.34 -0.34 0.68 0 0 Z " fill="#BE43B3" transform="translate(251,311)"/>
<path d="M0 0 C0 10.23 0 20.46 0 31 C-2.64 30.67 -5.28 30.34 -8 30 C-8 29.67 -8 29.34 -8 29 C-6.02 28.67 -4.04 28.34 -2 28 C-1.91323092 23.87513162 -1.85968705 19.75049616 -1.8125 15.625 C-1.78736328 14.449375 -1.76222656 13.27375 -1.73632812 12.0625 C-1.72666016 10.94101562 -1.71699219 9.81953125 -1.70703125 8.6640625 C-1.6913208 7.62717285 -1.67561035 6.5902832 -1.65942383 5.52197266 C-1.82800903 4.27359619 -1.82800903 4.27359619 -2 3 C-2.99 2.34 -3.98 1.68 -5 1 C-1.125 0 -1.125 0 0 0 Z " fill="#6A096F" transform="translate(375,251)"/>
<path d="M0 0 C0.99 0 1.98 0 3 0 C3 9.9 3 19.8 3 30 C1.68 30 0.36 30 -1 30 C-1 29.34 -1 28.68 -1 28 C-0.01 28 0.98 28 2 28 C1.86024595 24.45806625 1.71211066 20.91653001 1.5625 17.375 C1.52318359 16.37597656 1.48386719 15.37695312 1.44335938 14.34765625 C1.23427386 9.49043896 0.97041445 4.77867956 0 0 Z " fill="#2D082F" transform="translate(122,282)"/>
<path d="M0 0 C0.33 0 0.66 0 1 0 C1 2.97 1 5.94 1 9 C-5.6 9 -12.2 9 -19 9 C-17 7 -17 7 -13.3046875 6.8046875 C-11.82799892 6.817991 -10.35137642 6.84185165 -8.875 6.875 C-8.12089844 6.88402344 -7.36679687 6.89304687 -6.58984375 6.90234375 C-4.72642746 6.9259313 -2.86317407 6.96180281 -1 7 C-0.67 4.69 -0.34 2.38 0 0 Z " fill="#2E0531" transform="translate(312,429)"/>
<path d="M0 0 C0.66 0 1.32 0 2 0 C1.67 1.65 1.34 3.3 1 5 C-8.57 4.67 -18.14 4.34 -28 4 C-28 3.67 -28 3.34 -28 3 C-19.09 2.67 -10.18 2.34 -1 2 C-0.67 1.34 -0.34 0.68 0 0 Z " fill="#3C1C3D" transform="translate(217,403)"/>
<path d="M0 0 C0.33 1.32 0.66 2.64 1 4 C-8.9 4 -18.8 4 -29 4 C-29 3.67 -29 3.34 -29 3 C-27.78884521 2.970271 -27.78884521 2.970271 -26.55322266 2.93994141 C-22.91014125 2.84494101 -19.26765314 2.73516088 -15.625 2.625 C-14.35398437 2.5940625 -13.08296875 2.563125 -11.7734375 2.53125 C-10.56171875 2.49257812 -9.35 2.45390625 -8.1015625 2.4140625 C-6.98088379 2.3826416 -5.86020508 2.3512207 -4.70556641 2.31884766 C-1.85289588 2.26588797 -1.85289588 2.26588797 0 0 Z " fill="#410045" transform="translate(60,152)"/>
<path d="M0 0 C-0.4640625 0.7734375 -0.4640625 0.7734375 -0.9375 1.5625 C-2.18828017 4.1293925 -2.18828017 4.1293925 -2.5 7.6875 C-2.665 8.780625 -2.83 9.87375 -3 11 C-3.99 11.495 -3.99 11.495 -5 12 C-5 8.37 -5 4.74 -5 1 C-3 0 -3 0 0 0 Z " fill="#310534" transform="translate(475,469)"/>
<path d="M0 0 C5.61 0 11.22 0 17 0 C17 0.33 17 0.66 17 1 C12.38 1.33 7.76 1.66 3 2 C2.34 3.65 1.68 5.3 1 7 C0.67 7 0.34 7 0 7 C0 4.69 0 2.38 0 0 Z " fill="#2F0832" transform="translate(62,62)"/>
<path d="M0 0 C0.99 0 1.98 0 3 0 C2.67 6.6 2.34 13.2 2 20 C1.67 20 1.34 20 1 20 C0.67 13.4 0.34 6.8 0 0 Z " fill="#F625D7" transform="translate(219,156)"/>
</svg>
