<?xml version="1.0" encoding="UTF-8"?>
<svg version="1.1" xmlns="http://www.w3.org/2000/svg" width="500" height="500">
<path d="M0 0 C31.35 0 62.7 0 95 0 C94.67 9.9 94.34 19.8 94 30 C114.79 30 135.58 30 157 30 C157 20.1 157 10.2 157 0 C198.58 0 240.16 0 283 0 C283 9.9 283 19.8 283 30 C303.46 30 323.92 30 345 30 C345 40.23 345 50.46 345 61 C355.56 61 366.12 61 377 61 C377 112.81 377 164.62 377 218 C386.9 218 396.8 218 407 218 C407 197.54 407 177.08 407 156 C417.56 156 428.12 156 439 156 C439 135.54 439 115.08 439 94 C428.44 94 417.88 94 407 94 C407 72.88 407 51.76 407 30 C417.89 30 428.78 30 440 30 C440 40.23 440 50.46 440 61 C449.57 61 459.14 61 469 61 C469 195.97 469 330.94 469 470 C459.43 470 449.86 470 440 470 C440 479.9 440 489.8 440 500 C398.09 500 356.18 500 313 500 C313 490.1 313 480.2 313 470 C292.54 470 272.08 470 251 470 C251 479.9 251 489.8 251 500 C230.21 500 209.42 500 188 500 C188 490.1 188 480.2 188 470 C178.1 470 168.2 470 158 470 C158 479.9 158 489.8 158 500 C95.63 500 33.26 500 -31 500 C-31 468.98 -31 437.96 -31 406 C-20.77 406 -10.54 406 0 406 C0 395.77 0 385.54 0 375 C10.23 375 20.46 375 31 375 C31 364.77 31 354.54 31 344 C10.54 344 -9.92 344 -31 344 C-31 240.38 -31 136.76 -31 30 C-20.77 30 -10.54 30 0 30 C0 20.1 0 10.2 0 0 Z M63 32 C62.91224395 34.14558827 62.89304781 36.29404421 62.90234375 38.44140625 C62.90484131 39.61646729 62.90733887 40.79152832 62.90991211 42.00219727 C62.91901611 43.50709717 62.92812012 45.01199707 62.9375 46.5625 C62.958125 51.326875 62.97875 56.09125 63 61 C73.23 61 83.46 61 94 61 C94 51.1 94 41.2 94 31 C89.070625 30.979375 84.14125 30.95875 79.0625 30.9375 C77.50539307 30.928396 75.94828613 30.91929199 74.34399414 30.90991211 C73.12832764 30.90741455 71.91266113 30.90491699 70.66015625 30.90234375 C69.40855713 30.89710693 68.15695801 30.89187012 66.86743164 30.88647461 C64.10267706 30.67112965 64.10267706 30.67112965 63 32 Z M33 62 C31.71953367 63.0564853 31.71953367 63.0564853 31.87974548 65.47401428 C31.88196609 66.57321701 31.88418671 67.67241974 31.88647461 68.80493164 C31.88658791 70.66674828 31.88658791 70.66674828 31.88670349 72.56617737 C31.89181089 73.9308374 31.8970269 75.29549702 31.90234375 76.66015625 C31.904208 78.04878183 31.90563187 79.43740807 31.90663147 80.82603455 C31.91045613 84.48721115 31.92028597 88.1483483 31.93133545 91.80950928 C31.94155068 95.54292253 31.94618403 99.27634233 31.95117188 103.00976562 C31.9613781 110.33987863 31.98094974 117.6698832 32 125 C21.77 125 11.54 125 1 125 C1 135.23 1 145.46 1 156 C11.23 156 21.46 156 32 156 C32 176.46 32 196.92 32 218 C41.9 218 51.8 218 62 218 C62 166.52 62 115.04 62 62 C52.43 62 42.86 62 33 62 Z M63 219 C63 239.46 63 259.92 63 281 C83.46 281 103.92 281 125 281 C125 270.77 125 260.54 125 250 C114.77 250 104.54 250 94 250 C94.0625 235.0625 94.0625 235.0625 94.09008789 230.34399414 C94.09258545 229.12832764 94.09508301 227.91266113 94.09765625 226.66015625 C94.10289307 225.40855713 94.10812988 224.15695801 94.11352539 222.86743164 C94.32887035 220.10267706 94.32887035 220.10267706 93 219 C83.1 219 73.2 219 63 219 Z M345 219 C344.979375 223.929375 344.95875 228.85875 344.9375 233.9375 C344.928396 235.49460693 344.91929199 237.05171387 344.90991211 238.65600586 C344.90741455 239.87167236 344.90491699 241.08733887 344.90234375 242.33984375 C344.89710693 243.59144287 344.89187012 244.84304199 344.88647461 246.13256836 C344.67112965 248.89732294 344.67112965 248.89732294 346 250 C348.21855264 250.08783542 350.43988496 250.10694609 352.66015625 250.09765625 C354.48365601 250.09390991 354.48365601 250.09390991 356.34399414 250.09008789 C358.67965454 250.07643188 358.67965454 250.07643188 361.0625 250.0625 C365.991875 250.041875 370.92125 250.02125 376 250 C376 239.77 376 229.54 376 219 C365.77 219 355.54 219 345 219 Z M314 250 C314 260.23 314 270.46 314 281 C323.9 281 333.8 281 344 281 C344 270.77 344 260.54 344 250 C334.1 250 324.2 250 314 250 Z " fill="#F58323" transform="translate(31,0)"/>
<path d="M0 0 C9.9 0 19.8 0 30 0 C30 93.06 30 186.12 30 282 C20.43 282 10.86 282 1 282 C1 291.9 1 301.8 1 312 C0.67 312 0.34 312 0 312 C0 302.1 0 292.2 0 282 C-10.23 282 -20.46 282 -31 282 C-31 271.44 -31 260.88 -31 250 C-41.23 250 -51.46 250 -62 250 C-62 229.21 -62 208.42 -62 187 C-72.89 187 -83.78 187 -95 187 C-95 207.79 -95 228.58 -95 250 C-104.9 250 -114.8 250 -125 250 C-125 239.77 -125 229.54 -125 219 C-135.15713092 219.03959822 -135.15713092 219.03959822 -145.31420898 219.09008789 C-146.57048096 219.09258545 -147.82675293 219.09508301 -149.12109375 219.09765625 C-150.4145874 219.10289307 -151.70808105 219.10812988 -153.04077148 219.11352539 C-156 219 -156 219 -157 218 C-157.09396057 216.06693502 -157.11743517 214.13041162 -157.11352539 212.19506836 C-157.11341209 210.33325172 -157.11341209 210.33325172 -157.11329651 208.43382263 C-157.10818911 207.0691626 -157.1029731 205.70450298 -157.09765625 204.33984375 C-157.095792 202.95121817 -157.09436813 201.56259193 -157.09336853 200.17396545 C-157.08954387 196.51278885 -157.07971403 192.8516517 -157.06866455 189.19049072 C-157.05844932 185.45707747 -157.05381597 181.72365767 -157.04882812 177.99023438 C-157.0386219 170.66012137 -157.01905026 163.3301168 -157 156 C-167.23 156 -177.46 156 -188 156 C-188 176.79 -188 197.58 -188 219 C-177.77 219 -167.54 219 -157 219 C-157 229.23 -157 239.46 -157 250 C-177.79 250 -198.58 250 -220 250 C-220 260.23 -220 270.46 -220 281 C-230.23 281 -240.46 281 -251 281 C-251 270.77 -251 260.54 -251 250 C-261.23 250 -271.46 250 -282 250 C-282 239.77 -282 229.54 -282 219 C-271.77 219 -261.54 219 -251 219 C-251 208.44 -251 197.88 -251 187 C-250.67 187 -250.34 187 -250 187 C-250 197.56 -250 208.12 -250 219 C-240.1 219 -230.2 219 -220 219 C-220 198.21 -220 177.42 -220 156 C-229.9 155.67 -239.8 155.34 -250 155 C-250 145.1 -250 135.2 -250 125 C-228.67922584 124.08297746 -207.39844595 123.91177079 -186.0625 123.9375 C-184.99022785 123.93878403 -184.99022785 123.93878403 -183.89629364 123.94009399 C-174.93082891 123.95161549 -165.9654445 123.97472941 -157 124 C-157 113.77 -157 103.54 -157 93 C-146.77 93 -136.54 93 -126 93 C-126 82.77 -126 72.54 -126 62 C-125.67 62 -125.34 62 -125 62 C-125 82.46 -125 102.92 -125 124 C-93.98 124 -62.96 124 -31 124 C-31 113.77 -31 103.54 -31 93 C-20.77 93 -10.54 93 0 93 C0 62.31 0 31.62 0 0 Z " fill="#F58423" transform="translate(470,188)"/>
<path d="M0 0 C10.89 0 21.78 0 33 0 C33 10.23 33 20.46 33 31 C42.57 31 52.14 31 62 31 C62 72.91 62 114.82 62 158 C52.1 158 42.2 158 32 158 C32 188.69 32 219.38 32 251 C21.77 251 11.54 251 1 251 C1 261.23 1 271.46 1 282 C-30.02 282 -61.04 282 -93 282 C-93 271.77 -93 261.54 -93 251 C-83.1 251 -73.2 251 -63 251 C-63 240.77 -63 230.54 -63 220 C-73.23 220 -83.46 220 -94 220 C-94 230.23 -94 240.46 -94 251 C-104.23 251 -114.46 251 -125 251 C-125 230.21 -125 209.42 -125 188 C-135.23 188 -145.46 188 -156 188 C-156 177.77 -156 167.54 -156 157 C-145.77 157 -135.54 157 -125 157 C-125 146.77 -125 136.54 -125 126 C-114.77 126 -104.54 126 -94 126 C-94 136.56 -94 147.12 -94 158 C-83.44 158 -72.88 158 -62 158 C-62 116.42 -62 74.84 -62 32 C-82.79 32 -103.58 32 -125 32 C-125 21.77 -125 11.54 -125 1 C-104.21 1 -83.42 1 -62 1 C-62 10.9 -62 20.8 -62 31 C-51.44 31 -40.88 31 -30 31 C-30 82.81 -30 134.62 -30 188 C-20.1 188 -10.2 188 0 188 C0 167.54 0 147.08 0 126 C10.56 126 21.12 126 32 126 C32 105.54 32 85.08 32 64 C21.44 64 10.88 64 0 64 C0 42.88 0 21.76 0 0 Z M-62 189 C-62.020625 193.929375 -62.04125 198.85875 -62.0625 203.9375 C-62.071604 205.49460693 -62.08070801 207.05171387 -62.09008789 208.65600586 C-62.09258545 209.87167236 -62.09508301 211.08733887 -62.09765625 212.33984375 C-62.10289307 213.59144287 -62.10812988 214.84304199 -62.11352539 216.13256836 C-62.32887035 218.89732294 -62.32887035 218.89732294 -61 220 C-58.78144736 220.08783542 -56.56011504 220.10694609 -54.33984375 220.09765625 C-52.51634399 220.09390991 -52.51634399 220.09390991 -50.65600586 220.09008789 C-48.32034546 220.07643188 -48.32034546 220.07643188 -45.9375 220.0625 C-41.008125 220.041875 -36.07875 220.02125 -31 220 C-31 209.77 -31 199.54 -31 189 C-41.23 189 -51.46 189 -62 189 Z " fill="#B54402" transform="translate(438,30)"/>
<path d="M0 0 C10.23 0 20.46 0 31 0 C31 10.23 31 20.46 31 31 C41.23 31 51.46 31 62 31 C62 41.56 62 52.12 62 63 C51.77 63 41.54 63 31 63 C31 73.23 31 83.46 31 94 C41.23 94 51.46 94 62 94 C62 104.23 62 114.46 62 125 C72.23 125 82.46 125 93 125 C93 114.77 93 104.54 93 94 C113.79 94 134.58 94 156 94 C156 83.77 156 73.54 156 63 C145.77 63 135.54 63 125 63 C125 42.21 125 21.42 125 0 C135.23 0 145.46 0 156 0 C156.33 20.46 156.66 40.92 157 62 C167.23 62.33 177.46 62.66 188 63 C188 73.23 188 83.46 188 94 C197.9 94 207.8 94 218 94 C218 73.21 218 52.42 218 31 C228.89 31 239.78 31 251 31 C251 51.79 251 72.58 251 94 C261.23 94 271.46 94 282 94 C282 104.56 282 115.12 282 126 C292.23 126 302.46 126 313 126 C313 135.9 313 145.8 313 156 C271.42 156 229.84 156 187 156 C187 146.1 187 136.2 187 126 C166.54 126 146.08 126 125 126 C125 135.9 125 145.8 125 156 C104.21 156 83.42 156 62 156 C62 146.1 62 136.2 62 126 C52.1 126 42.2 126 32 126 C32 135.9 32 145.8 32 156 C-9.58 156 -51.16 156 -94 156 C-94 145.77 -94 135.54 -94 125 C-83.77 125 -73.54 125 -63 125 C-63 114.77 -63 104.54 -63 94 C-52.77 94 -42.54 94 -32 94 C-32 83.77 -32 73.54 -32 63 C-21.44 63 -10.88 63 0 63 C0 42.21 0 21.42 0 0 Z " fill="#B84607" transform="translate(157,344)"/>
<path d="M0 0 C10.23 0 20.46 0 31 0 C31 41.25 31 82.5 31 125 C41.56 125 52.12 125 63 125 C63 114.77 63 104.54 63 94 C73.56 94 84.12 94 95 94 C95 104.23 95 114.46 95 125 C105.23 125 115.46 125 126 125 C126 135.23 126 145.46 126 156 C115.44 156 104.88 156 94 156 C94 176.79 94 197.58 94 219 C83.77 219 73.54 219 63 219 C63 229.56 63 240.12 63 251 C31.98 251 0.96 251 -31 251 C-31 260.9 -31 270.8 -31 281 C-26.524375 280.979375 -22.04875 280.95875 -17.4375 280.9375 C-1.26796987 280.90173828 14.8389173 281.40419972 31 282 C31 292.23 31 302.46 31 313 C10.54 313 -9.92 313 -31 313 C-31 323.56 -31 334.12 -31 345 C-41.23 345 -51.46 345 -62 345 C-62 334.44 -62 323.88 -62 313 C-52.1 313 -42.2 313 -32 313 C-32 302.77 -32 292.54 -32 282 C-52.46 282 -72.92 282 -94 282 C-94 261.21 -94 240.42 -94 219 C-83.77 219 -73.54 219 -63 219 C-63 229.23 -63 239.46 -63 250 C-52.77 250 -42.54 250 -32 250 C-32 229.54 -32 209.08 -32 188 C-41.9 188 -51.8 188 -62 188 C-62 167.54 -62 147.08 -62 126 C-52.1 126 -42.2 126 -32 126 C-32 136.23 -32 146.46 -32 157 C-21.77 157 -11.54 157 -1 157 C-0.835 161.475625 -0.67 165.95125 -0.5 170.5625 C-0.44779297 171.89869385 -0.39558594 173.2348877 -0.34179688 174.61157227 C0.16743077 189.42666134 0 204.14110807 0 219 C20.46 219 40.92 219 62 219 C62 208.77 62 198.54 62 188 C51.77 188 41.54 188 31 188 C29.85030864 173.05401235 29.85030864 173.05401235 29.9375 165.6875 C29.958125 163.150625 29.97875 160.61375 30 158 C20.1 157.67 10.2 157.34 0 157 C0 105.19 0 53.38 0 0 Z " fill="#B54301" transform="translate(94,62)"/>
<path d="M0 0 C31.02 0 62.04 0 94 0 C94 10.23 94 20.46 94 31 C86.45838944 31.13226752 78.91679749 31.26390436 71.37509918 31.39079285 C67.85933438 31.45008614 64.34358956 31.51021551 60.82788086 31.57275391 C40.88141688 31.92669423 20.95029901 32.04638256 1 32 C1 41.9 1 51.8 1 62 C9.37649761 61.96051213 9.37649761 61.96051213 17.75292969 61.90991211 C19.32155762 61.90616577 19.32155762 61.90616577 20.921875 61.90234375 C21.99018555 61.89710693 23.05849609 61.89187012 24.15917969 61.88647461 C27 62 27 62 31 63 C31 83.79 31 104.58 31 126 C21.1 126 11.2 126 1 126 C1 115.44 1 104.88 1 94 C-9.56 94 -20.12 94 -31 94 C-31 83.77 -31 73.54 -31 63 C-41.23 63 -51.46 63 -62 63 C-62 83.79 -62 104.58 -62 126 C-72.56 126 -83.12 126 -94 126 C-94 136.23 -94 146.46 -94 157 C-104.23 157 -114.46 157 -125 157 C-125 167.23 -125 177.46 -125 188 C-135.23 188 -145.46 188 -156 188 C-156 198.23 -156 208.46 -156 219 C-176.79 219 -197.58 219 -219 219 C-219 187.98 -219 156.96 -219 125 C-208.77 125 -198.54 125 -188 125 C-188 114.77 -188 104.54 -188 94 C-187.67 94 -187.34 94 -187 94 C-187 104.56 -187 115.12 -187 126 C-176.77 126 -166.54 126 -156 126 C-156 115.44 -156 104.88 -156 94 C-135.54 94 -115.08 94 -94 94 C-94 83.77 -94 73.54 -94 63 C-98.475625 63.020625 -102.95125 63.04125 -107.5625 63.0625 C-123.73203013 63.09826172 -139.8389173 62.59580028 -156 62 C-156 52.1 -156 42.2 -156 32 C-141.62506562 31.82739429 -127.25007477 31.66050482 -112.875 31.5 C-111.81161156 31.48812275 -110.74822311 31.4762455 -109.65261078 31.46400833 C-73.09931013 31.05800108 -36.55541001 30.87471489 0 31 C0 20.77 0 10.54 0 0 Z " fill="#FEA757" transform="translate(219,281)"/>
<path d="M0 0 C10.23 0 20.46 0 31 0 C31 51.48 31 102.96 31 156 C20.44 156 9.88 156 -1 156 C-0.67 166.56 -0.34 177.12 0 188 C-10.56 188 -21.12 188 -32 188 C-32 198.23 -32 208.46 -32 219 C-42.23 219 -52.46 219 -63 219 C-63 198.21 -63 177.42 -63 156 C-73.23 156 -83.46 156 -94 156 C-94 145.77 -94 135.54 -94 125 C-83.77 125 -73.54 125 -63 125 C-63 114.77 -63 104.54 -63 94 C-52.77 94 -42.54 94 -32 94 C-32 104.56 -32 115.12 -32 126 C-21.44 126 -10.88 126 0 126 C0 84.42 0 42.84 0 0 Z " fill="#2D1304" transform="translate(376,62)"/>
<path d="M0 0 C10.23 0 20.46 0 31 0 C31 10.23 31 20.46 31 31 C41.23 31 51.46 31 62 31 C62 41.56 62 52.12 62 63 C51.77 63 41.54 63 31 63 C31 73.23 31 83.46 31 94 C20.77 94 10.54 94 0 94 C0 114.46 0 134.92 0 156 C-31.02 156 -62.04 156 -94 156 C-94 145.77 -94 135.54 -94 125 C-83.77 125 -73.54 125 -63 125 C-63 114.77 -63 104.54 -63 94 C-52.77 94 -42.54 94 -32 94 C-32 83.77 -32 73.54 -32 63 C-21.44 63 -10.88 63 0 63 C0 42.21 0 21.42 0 0 Z " fill="#2D1203" transform="translate(157,344)"/>
<path d="M0 0 C20.13 0 40.26 0 61 0 C61 51.81 61 103.62 61 157 C51.43 157 41.86 157 32 157 C32 166.9 32 176.8 32 187 C31.67 187 31.34 187 31 187 C31 177.1 31 167.2 31 157 C20.77 157 10.54 157 0 157 C0 105.19 0 53.38 0 0 Z " fill="#FDA858" transform="translate(439,313)"/>
<path d="M0 0 C0.33 0 0.66 0 1 0 C1 10.56 1 21.12 1 32 C11.23 32 21.46 32 32 32 C32 21.44 32 10.88 32 0 C42.23 0 52.46 0 63 0 C63.15348491 7.67188404 63.30509436 15.34354641 63.44254303 23.01569366 C63.50703692 26.59218108 63.5740285 30.16857199 63.64819336 33.74487305 C64.06326865 53.88460824 63.79179393 73.86497374 63 94 C52.77 94 42.54 94 32 94 C32 104.23 32 114.46 32 125 C11.21 125 -9.58 125 -31 125 C-31 93.98 -31 62.96 -31 31 C-20.77 31 -10.54 31 0 31 C0 20.77 0 10.54 0 0 Z " fill="#F28324" transform="translate(31,375)"/>
<path d="M0 0 C20.79 0 41.58 0 63 0 C63 10.23 63 20.46 63 31 C52.77 31 42.54 31 32 31 C32 62.02 32 93.04 32 125 C21.77 125 11.54 125 1 125 C1 134.9 1 144.8 1 155 C-1 153 -1 153 -1.22705078 150.20263672 C-1.21657715 149.04006348 -1.20610352 147.87749023 -1.1953125 146.6796875 C-1.19031738 145.54772949 -1.18532227 144.41577148 -1.18017578 143.24951172 C-1.16196777 141.80592285 -1.14375977 140.36233398 -1.125 138.875 C-1.08375 134.29625 -1.0425 129.7175 -1 125 C-10.9 125 -20.8 125 -31 125 C-31 93.65 -31 62.3 -31 30 C-20.77 30 -10.54 30 0 30 C0 20.1 0 10.2 0 0 Z " fill="#F58423" transform="translate(31,0)"/>
<path d="M0 0 C20.46 0 40.92 0 62 0 C62 10.23 62 20.46 62 31 C72.23 31 82.46 31 93 31 C93 41.56 93 52.12 93 63 C82.77 63 72.54 63 62 63 C62 73.23 62 83.46 62 94 C41.54 94 21.08 94 0 94 C0 83.77 0 73.54 0 63 C-10.56 63 -21.12 63 -32 63 C-32 52.44 -32 41.88 -32 31 C-21.44 31 -10.88 31 0 31 C0 20.77 0 10.54 0 0 Z " fill="#FEA757" transform="translate(220,62)"/>
<path d="M0 0 C9.9 0 19.8 0 30 0 C30.4375 13.875 30.4375 13.875 30.56811523 18.24951172 C30.6252771 19.94744873 30.6252771 19.94744873 30.68359375 21.6796875 C30.72025146 22.84226074 30.75690918 24.00483398 30.79467773 25.20263672 C30.81821659 27.9535501 30.81821659 27.9535501 32 30 C46.85 30.495 46.85 30.495 62 31 C62 41.56 62 52.12 62 63 C52.1 63 42.2 63 32 63 C32 83.46 32 103.92 32 125 C41.9 125 51.8 125 62 125 C62 145.46 62 165.92 62 187 C51.77 187 41.54 187 31 187 C31 176.77 31 166.54 31 156 C20.77 156 10.54 156 0 156 C0 104.52 0 53.04 0 0 Z " fill="#F58423" transform="translate(0,125)"/>
<path d="M0 0 C31.02 0 62.04 0 94 0 C94 9.9 94 19.8 94 30 C104.23 30 114.46 30 125 30 C125 30.33 125 30.66 125 31 C114.77 31 104.54 31 94 31 C94 51.79 94 72.58 94 94 C83.44 94 72.88 94 62 94 C62 104.23 62 114.46 62 125 C52.1 125 42.2 125 32 125 C30.64855346 122.29710692 30.88024835 120.19930194 30.88647461 117.17333984 C30.88655014 115.95222504 30.88662567 114.73111023 30.88670349 113.47299194 C30.89181048 112.13564005 30.89702648 110.79828857 30.90234375 109.4609375 C30.9042086 108.09616141 30.90563219 106.73138466 30.90663147 105.36660767 C30.91045137 101.77284907 30.92027717 98.17913083 30.93133545 94.58538818 C30.94156089 90.91891028 30.94618627 87.25242566 30.95117188 83.5859375 C30.96136936 76.39058935 30.98094227 69.19535204 31 62 C41.23 62 51.46 62 62 62 C62 51.77 62 41.54 62 31 C57.524375 31.020625 53.04875 31.04125 48.4375 31.0625 C32.26796987 31.09826172 16.1610827 30.59580028 0 30 C0 20.1 0 10.2 0 0 Z " fill="#F18325" transform="translate(63,313)"/>
<path d="M0 0 C10.23 0 20.46 0 31 0 C31 41.58 31 83.16 31 126 C41.56 126 52.12 126 63 126 C63 146.46 63 166.92 63 188 C52.44 188 41.88 188 31 188 C29.85030864 173.05401235 29.85030864 173.05401235 29.9375 165.6875 C29.958125 163.150625 29.97875 160.61375 30 158 C20.1 157.67 10.2 157.34 0 157 C0 105.19 0 53.38 0 0 Z " fill="#2D1304" transform="translate(94,62)"/>
<path d="M0 0 C10.23 0 20.46 0 31 0 C31 30.69 31 61.38 31 93 C20.77 93 10.54 93 0 93 C0 103.23 0 113.46 0 124 C-31.02 124 -62.04 124 -94 124 C-94 113.77 -94 103.54 -94 93 C-73.21 93 -52.42 93 -31 93 C-31 82.77 -31 72.54 -31 62 C-20.77 62 -10.54 62 0 62 C0 41.54 0 21.08 0 0 Z " fill="#2D1203" transform="translate(439,188)"/>
<path d="M0 0 C9.9 0 19.8 0 30 0 C30 10.23 30 20.46 30 31 C40.23 31 50.46 31 61 31 C61.76288066 51.69313788 62.1316515 72.29768087 62 93 C63.01024986 92.99666908 63.01024986 92.99666908 64.04090881 92.99327087 C71.06527169 92.9711078 78.0896246 92.9560474 85.11401367 92.94506836 C87.73380944 92.9400468 90.35360243 92.9332283 92.97338867 92.92456055 C96.74398489 92.91239964 100.51454397 92.90674982 104.28515625 92.90234375 C105.45208511 92.89718246 106.61901398 92.89202118 107.82130432 92.88670349 C108.92191696 92.88662796 110.0225296 92.88655243 111.15649414 92.88647461 C112.59878136 92.88314369 112.59878136 92.88314369 114.07020569 92.87974548 C117.39833227 93.0163497 120.70254863 93.52893552 124 94 C124 103.9 124 113.8 124 124 C93.31 124 62.62 124 31 124 C31 103.54 31 83.08 31 62 C20.77 62 10.54 62 0 62 C0 41.54 0 21.08 0 0 Z " fill="#2E1304" transform="translate(32,188)"/>
<path d="M0 0 C10.23 0 20.46 0 31 0 C31 31.02 31 62.04 31 94 C51.46 94 71.92 94 93 94 C93 104.23 93 114.46 93 125 C72.21 125 51.42 125 30 125 C30 135.23 30 145.46 30 156 C19.77 156 9.54 156 -1 156 C-1 145.77 -1 135.54 -1 125 C-11.23 125 -21.46 125 -32 125 C-32 114.77 -32 104.54 -32 94 C-21.77 94 -11.54 94 -1 94 C-1 83.44 -1 72.88 -1 62 C-0.67 62 -0.34 62 0 62 C0 72.56 0 83.12 0 94 C9.9 94 19.8 94 30 94 C30 73.21 30 52.42 30 31 C15.15 30.505 15.15 30.505 0 30 C0 20.1 0 10.2 0 0 Z " fill="#FDA654" transform="translate(220,313)"/>
<path d="M0 0 C10.56 0 21.12 0 32 0 C32 20.79 32 41.58 32 63 C42.23 63 52.46 63 63 63 C63 73.56 63 84.12 63 95 C73.23 95 83.46 95 94 95 C94 104.9 94 114.8 94 125 C73.54 125 53.08 125 32 125 C32 114.77 32 104.54 32 94 C21.44 94 10.88 94 0 94 C0 62.98 0 31.96 0 0 Z " fill="#2F1303" transform="translate(376,375)"/>
<path d="M0 0 C10.89 0 21.78 0 33 0 C33 10.23 33 20.46 33 31 C42.57 31 52.14 31 62 31 C62 62.35 62 93.7 62 126 C52.1 126 42.2 126 32 126 C32 105.54 32 85.08 32 64 C21.44 64 10.88 64 0 64 C0 42.88 0 21.76 0 0 Z " fill="#F48424" transform="translate(438,30)"/>
<path d="M0 0 C9.9 0 19.8 0 30 0 C30 41.25 30 82.5 30 125 C-21.48 125 -72.96 125 -126 125 C-126 104.21 -126 83.42 -126 62 C-125.67 62 -125.34 62 -125 62 C-125 82.46 -125 102.92 -125 124 C-93.98 124 -62.96 124 -31 124 C-31 113.77 -31 103.54 -31 93 C-20.77 93 -10.54 93 0 93 C0 62.31 0 31.62 0 0 Z " fill="#F48323" transform="translate(470,188)"/>
<path d="M0 0 C10.23 0 20.46 0 31 0 C31.33 20.46 31.66 40.92 32 62 C46.85 62.495 46.85 62.495 62 63 C62 73.23 62 83.46 62 94 C52.1 94 42.2 94 32 94 C32 104.23 32 114.46 32 125 C11.21 125 -9.58 125 -31 125 C-31 114.77 -31 104.54 -31 94 C-10.54 94 9.92 94 31 94 C31 83.77 31 73.54 31 63 C20.77 63 10.54 63 0 63 C0 42.21 0 21.42 0 0 Z " fill="#2E1203" transform="translate(282,344)"/>
<path d="M0 0 C10.23 0 20.46 0 31 0 C31 41.25 31 82.5 31 125 C20.77 125 10.54 125 0 125 C0 104.21 0 83.42 0 62 C-10.23 62 -20.46 62 -31 62 C-31 51.77 -31 41.54 -31 31 C-20.77 31 -10.54 31 0 31 C0 20.77 0 10.54 0 0 Z " fill="#B84402" transform="translate(313,156)"/>
<path d="M0 0 C10.56 0 21.12 0 32 0 C32 10.23 32 20.46 32 31 C42.23 31 52.46 31 63 31 C63 41.23 63 51.46 63 62 C52.44 62 41.88 62 31 62 C31 72.56 31 83.12 31 94 C20.77 94 10.54 94 0 94 C0 73.54 0 53.08 0 32 C-10.56 32 -21.12 32 -32 32 C-32 31.67 -32 31.34 -32 31 C-21.44 31 -10.88 31 0 31 C0 20.77 0 10.54 0 0 Z " fill="#B94501" transform="translate(157,156)"/>
<path d="M0 0 C10.23 0 20.46 0 31 0 C31 10.23 31 20.46 31 31 C41.56 31 52.12 31 63 31 C63 41.23 63 51.46 63 62 C31.98 62 0.96 62 -31 62 C-31 51.77 -31 41.54 -31 31 C-20.77 31 -10.54 31 0 31 C0 20.77 0 10.54 0 0 Z " fill="#A52406" transform="translate(94,438)"/>
<path d="M0 0 C41.25 0 82.5 0 125 0 C125 9.9 125 19.8 125 30 C83.75 30 42.5 30 0 30 C0 20.1 0 10.2 0 0 Z " fill="#2D1303" transform="translate(188,0)"/>
<path d="M0 0 C0.33 0 0.66 0 1 0 C1 31.02 1 62.04 1 94 C11.56 94 22.12 94 33 94 C33 104.23 33 114.46 33 125 C12.21 125 -8.58 125 -30 125 C-31.14927198 89.37256849 -31.14927198 89.37256849 -31.09765625 77.41015625 C-31.09577375 76.06440791 -31.09435865 74.71865884 -31.09336853 73.37290955 C-31.08968654 69.95876914 -31.07999426 66.54467662 -31.06866455 63.1305542 C-31.05812712 59.59550626 -31.05380439 56.06044999 -31.04882812 52.52539062 C-31.03834631 45.683575 -31.02146196 38.84178984 -31 32 C-30.67 32 -30.34 32 -30 32 C-30 42.23 -30 52.46 -30 63 C-20.1 63 -10.2 63 0 63 C0 42.21 0 21.42 0 0 Z " fill="#B64401" transform="translate(375,375)"/>
<path d="M0 0 C10.23 0 20.46 0 31 0 C31 10.23 31 20.46 31 31 C41.23 31 51.46 31 62 31 C62 41.56 62 52.12 62 63 C41.54 63 21.08 63 0 63 C0 42.21 0 21.42 0 0 Z " fill="#B54402" transform="translate(157,344)"/>
<path d="M0 0 C10.23 0 20.46 0 31 0 C31 31.35 31 62.7 31 95 C20.77 95 10.54 95 0 95 C0 63.65 0 32.3 0 0 Z " fill="#F58423" transform="translate(251,312)"/>
<path d="M0 0 C0.33 0 0.66 0 1 0 C1 10.56 1 21.12 1 32 C10.9 32 20.8 32 31 32 C31 52.46 31 72.92 31 94 C20.77 94 10.54 94 0 94 C0 83.77 0 73.54 0 63 C-10.23 63 -20.46 63 -31 63 C-31 52.77 -31 42.54 -31 32 C-20.77 32 -10.54 32 0 32 C0 21.44 0 10.88 0 0 Z " fill="#F38224" transform="translate(219,375)"/>
<path d="M0 0 C20.46 0 40.92 0 62 0 C62 20.79 62 41.58 62 63 C52.1 63 42.2 63 32 63 C32 52.77 32 42.54 32 32 C21.84286908 32.03959822 21.84286908 32.03959822 11.68579102 32.09008789 C10.42951904 32.09258545 9.17324707 32.09508301 7.87890625 32.09765625 C5.93866577 32.10551147 5.93866577 32.10551147 3.95922852 32.11352539 C1 32 1 32 0 31 C0 20.77 0 10.54 0 0 Z " fill="#F48323" transform="translate(313,375)"/>
<path d="M0 0 C20.13 0 40.26 0 61 0 C61 20.46 61 40.92 61 62 C51.1 62 41.2 62 31 62 C31 51.77 31 41.54 31 31 C20.77 31 10.54 31 0 31 C0 20.77 0 10.54 0 0 Z " fill="#2F1303" transform="translate(439,313)"/>
<path d="M0 0 C10.56 0 21.12 0 32 0 C31.67 10.23 31.34 20.46 31 31 C21.1 31.33 11.2 31.66 1 32 C0.67 41.57 0.34 51.14 0 61 C10.23 61 20.46 61 31 61 C31 61.33 31 61.66 31 62 C20.77 62 10.54 62 0 62 C0 124.04 0 186.08 0 250 C-0.33 250 -0.66 250 -1 250 C-1 239.77 -1 229.54 -1 219 C-11.23 219 -21.46 219 -32 219 C-32 198.21 -32 177.42 -32 156 C-31.67 156 -31.34 156 -31 156 C-31 176.46 -31 196.92 -31 218 C-21.1 218 -11.2 218 -1 218 C-1 166.52 -1 115.04 -1 62 C-10.9 62.33 -20.8 62.66 -31 63 C-31 52.44 -31 41.88 -31 31 C-20.77 31 -10.54 31 0 31 C0 20.77 0 10.54 0 0 Z " fill="#E29D60" transform="translate(94,0)"/>
<path d="M0 0 C10.89 0 21.78 0 33 0 C33 10.23 33 20.46 33 31 C42.57 31 52.14 31 62 31 C62 31.33 62 31.66 62 32 C52.1 32 42.2 32 32 32 C32 42.56 32 53.12 32 64 C21.44 64 10.88 64 0 64 C0 42.88 0 21.76 0 0 Z " fill="#FDA859" transform="translate(438,30)"/>
<path d="M0 0 C20.79 0 41.58 0 63 0 C63 10.23 63 20.46 63 31 C42.21 31 21.42 31 0 31 C0 20.77 0 10.54 0 0 Z " fill="#301404" transform="translate(313,31)"/>
<path d="M0 0 C20.79 0 41.58 0 63 0 C63 10.23 63 20.46 63 31 C42.21 31 21.42 31 0 31 C0 20.77 0 10.54 0 0 Z " fill="#2E1404" transform="translate(125,31)"/>
<path d="M0 0 C10.23 0 20.46 0 31 0 C31 20.79 31 41.58 31 63 C21.1 63 11.2 63 1 63 C-0.35144654 60.29710692 -0.11975165 58.19930194 -0.11352539 55.17333984 C-0.11341209 53.34166763 -0.11341209 53.34166763 -0.11329651 51.47299194 C-0.10818952 50.13564005 -0.10297352 48.79828857 -0.09765625 47.4609375 C-0.0957914 46.09616141 -0.09436781 44.73138466 -0.09336853 43.36660767 C-0.08954863 39.77284907 -0.07972283 36.17913083 -0.06866455 32.58538818 C-0.05843911 28.91891028 -0.05381373 25.25242566 -0.04882812 21.5859375 C-0.03863064 14.39058935 -0.01905773 7.19535204 0 0 Z " fill="#FDA758" transform="translate(94,375)"/>
<path d="M0 0 C20.46 0 40.92 0 62 0 C62 10.23 62 20.46 62 31 C41.54 31 21.08 31 0 31 C0 20.77 0 10.54 0 0 Z " fill="#AB2406" transform="translate(157,438)"/>
<path d="M0 0 C20.46 0 40.92 0 62 0 C62 10.23 62 20.46 62 31 C41.54 31 21.08 31 0 31 C0 20.77 0 10.54 0 0 Z " fill="#2C1304" transform="translate(63,344)"/>
<path d="M0 0 C10.23 0 20.46 0 31 0 C31 20.46 31 40.92 31 62 C20.77 62 10.54 62 0 62 C0 41.54 0 21.08 0 0 Z " fill="#2E1203" transform="translate(0,31)"/>
<path d="M0 0 C9.9 0 19.8 0 30 0 C30.76348834 20.70962116 31.09549981 41.27654174 31 62 C20.77 62 10.54 62 0 62 C0 41.54 0 21.08 0 0 Z " fill="#2F1203" transform="translate(32,188)"/>
<path d="M0 0 C9.9 0 19.8 0 30 0 C30 20.79 30 41.58 30 63 C20.1 63 10.2 63 0 63 C0 42.21 0 21.42 0 0 Z " fill="#FEA757" transform="translate(220,344)"/>
<path d="M0 0 C20.79 0 41.58 0 63 0 C63 9.9 63 19.8 63 30 C42.21 30 21.42 30 0 30 C0 20.1 0 10.2 0 0 Z " fill="#2E1404" transform="translate(31,0)"/>
<path d="M0 0 C20.46 0 40.92 0 62 0 C62 9.9 62 19.8 62 30 C41.54 30 21.08 30 0 30 C0 20.1 0 10.2 0 0 Z " fill="#2D1203" transform="translate(63,470)"/>
<path d="M0 0 C9.9 0 19.8 0 30 0 C30 20.46 30 40.92 30 62 C20.1 62 10.2 62 0 62 C0 41.54 0 21.08 0 0 Z " fill="#2E1303" transform="translate(470,407)"/>
<path d="M0 0 C20.46 0 40.92 0 62 0 C62 9.9 62 19.8 62 30 C41.54 30 21.08 30 0 30 C0 20.1 0 10.2 0 0 Z " fill="#F48425" transform="translate(63,313)"/>
<path d="M0 0 C20.46 0 40.92 0 62 0 C62 9.57 62 19.14 62 29 C61 30 61 30 58.56394958 30.12025452 C57.48251175 30.11803391 56.40107391 30.11581329 55.28686523 30.11352539 C54.0656749 30.11344986 52.84448456 30.11337433 51.58628845 30.11329651 C50.24372314 30.10818911 48.90115825 30.10297311 47.55859375 30.09765625 C46.19238842 30.09579199 44.82618243 30.09436813 43.4599762 30.09336853 C39.85798305 30.08954394 36.25603 30.07971417 32.65405273 30.06866455 C28.98096265 30.05844916 25.30786592 30.05381594 21.63476562 30.04882812 C14.42314163 30.03862203 7.21162785 30.01905038 0 30 C0 20.1 0 10.2 0 0 Z " fill="#FEA757" transform="translate(157,313)"/>
<path d="M0 0 C0.33 0 0.66 0 1 0 C1 20.46 1 40.92 1 62 C32.02 62 63.04 62 95 62 C95 51.77 95 41.54 95 31 C105.23 31 115.46 31 126 31 C126 41.23 126 51.46 126 62 C135.9 62 145.8 62 156 62 C156 62.33 156 62.66 156 63 C104.52 63 53.04 63 0 63 C0 42.21 0 21.42 0 0 Z " fill="#DF7923" transform="translate(344,250)"/>
<path d="M0 0 C0.33 0 0.66 0 1 0 C1 19.8 1 39.6 1 60 C-9.23 60 -19.46 60 -30 60 C-30 69.9 -30 79.8 -30 90 C-32 88 -32 88 -32.22705078 85.20263672 C-32.21657715 84.04006348 -32.20610352 82.87749023 -32.1953125 81.6796875 C-32.19031738 80.54772949 -32.18532227 79.41577148 -32.18017578 78.24951172 C-32.16196777 76.80592285 -32.14375977 75.36233398 -32.125 73.875 C-32.08375 69.29625 -32.0425 64.7175 -32 60 C-41.9 60 -51.8 60 -62 60 C-62 49.44 -62 38.88 -62 28 C-57.070625 27.979375 -52.14125 27.95875 -47.0625 27.9375 C-44.7268396 27.92384399 -44.7268396 27.92384399 -42.34399414 27.90991211 C-40.52049438 27.90616577 -40.52049438 27.90616577 -38.66015625 27.90234375 C-37.40855713 27.89710693 -36.15695801 27.89187012 -34.86743164 27.88647461 C-32 28 -32 28 -31 29 C-30.91224395 31.14558827 -30.89304781 33.29404421 -30.90234375 35.44140625 C-30.90484131 36.61646729 -30.90733887 37.79152832 -30.90991211 39.00219727 C-30.91901611 40.50709717 -30.92812012 42.01199707 -30.9375 43.5625 C-30.958125 48.326875 -30.97875 53.09125 -31 58 C-20.77 58.33 -10.54 58.66 0 59 C0 39.53 0 20.06 0 0 Z " fill="#F7A457" transform="translate(62,65)"/>
<path d="M0 0 C10.23 0.33 20.46 0.66 31 1 C31 11.56 31 22.12 31 33 C21.1 33 11.2 33 1 33 C1 53.46 1 73.92 1 95 C0.67 95 0.34 95 0 95 C0 63.65 0 32.3 0 0 Z " fill="#B14303" transform="translate(31,155)"/>
<path d="M0 0 C10.23 0 20.46 0 31 0 C31 10.23 31 20.46 31 31 C40.9 31 50.8 31 61 31 C61 31.33 61 31.66 61 32 C51.43 32 41.86 32 32 32 C32 41.9 32 51.8 32 62 C31.67 62 31.34 62 31 62 C31 52.1 31 42.2 31 32 C20.77 32 10.54 32 0 32 C0 21.44 0 10.88 0 0 Z " fill="#EA822A" transform="translate(439,438)"/>
<path d="M0 0 C0 10.89 0 21.78 0 33 C-10.56 33 -21.12 33 -32 33 C-32 22.44 -32 11.88 -32 1 C-26.905625 0.835 -21.81125 0.67 -16.5625 0.5 C-14.95318604 0.44779297 -13.34387207 0.39558594 -11.68579102 0.34179688 C-10.42951904 0.30119141 -9.17324707 0.26058594 -7.87890625 0.21875 C-6.5854126 0.17685547 -5.29191895 0.13496094 -3.95922852 0.09179688 C-1 0 -1 0 0 0 Z " fill="#F58323" transform="translate(157,374)"/>
<path d="M0 0 C9.86023934 0.02258932 19.63069502 0.52715335 29.47265625 1.1328125 C29.47265625 11.3628125 29.47265625 21.5928125 29.47265625 32.1328125 C18.58265625 32.1328125 7.69265625 32.1328125 -3.52734375 32.1328125 C-3.54796875 27.0384375 -3.56859375 21.9440625 -3.58984375 16.6953125 C-3.59894775 15.08599854 -3.60805176 13.47668457 -3.61743164 11.81860352 C-3.6199292 10.56233154 -3.62242676 9.30605957 -3.625 8.01171875 C-3.63023682 6.7182251 -3.63547363 5.42473145 -3.64086914 4.09204102 C-3.49092315 0.18344882 -3.49092315 0.18344882 0 0 Z " fill="#A8270B" transform="translate(378.52734375,248.8671875)"/>
<path d="M0 0 C10.23 0 20.46 0 31 0 C31 10.56 31 21.12 31 32 C20.77 32 10.54 32 0 32 C0 21.44 0 10.88 0 0 Z " fill="#311303" transform="translate(188,375)"/>
<path d="M0 0 C10.23 0 20.46 0 31 0 C31 10.56 31 21.12 31 32 C20.77 32 10.54 32 0 32 C0 21.44 0 10.88 0 0 Z " fill="#341604" transform="translate(251,312)"/>
<path d="M0 0 C10.56 0 21.12 0 32 0 C32 10.23 32 20.46 32 31 C21.44 31 10.88 31 0 31 C0 20.77 0 10.54 0 0 Z " fill="#FEFAF5" transform="translate(188,219)"/>
<path d="M0 0 C10.23 0 20.46 0 31 0 C31 10.56 31 21.12 31 32 C20.77 32 10.54 32 0 32 C0 21.44 0 10.88 0 0 Z " fill="#2C1203" transform="translate(313,156)"/>
<path d="M0 0 C10.56 0 21.12 0 32 0 C32 10.23 32 20.46 32 31 C21.44 31 10.88 31 0 31 C0 20.77 0 10.54 0 0 Z " fill="#FEA757" transform="translate(125,156)"/>
<path d="M0 0 C10.56 0 21.12 0 32 0 C32 10.23 32 20.46 32 31 C21.44 31 10.88 31 0 31 C0 20.77 0 10.54 0 0 Z " fill="#FDA758" transform="translate(125,62)"/>
<path d="M0 0 C10.23 0 20.46 0 31 0 C31 10.56 31 21.12 31 32 C26.070625 32.020625 21.14125 32.04125 16.0625 32.0625 C13.7268396 32.07615601 13.7268396 32.07615601 11.34399414 32.09008789 C9.52049438 32.09383423 9.52049438 32.09383423 7.66015625 32.09765625 C6.40855713 32.10289307 5.15695801 32.10812988 3.86743164 32.11352539 C1 32 1 32 0 31 C-0.08790975 28.70848583 -0.10694038 26.41427476 -0.09765625 24.12109375 C-0.09515869 22.86482178 -0.09266113 21.6085498 -0.09008789 20.31420898 C-0.08098389 18.70489502 -0.07187988 17.09558105 -0.0625 15.4375 C-0.041875 10.343125 -0.02125 5.24875 0 0 Z " fill="#B94400" transform="translate(313,375)"/>
<path d="M0 0 C10.56 0 21.12 0 32 0 C32.020625 4.929375 32.04125 9.85875 32.0625 14.9375 C32.071604 16.49460693 32.08070801 18.05171387 32.09008789 19.65600586 C32.09258545 20.87167236 32.09508301 22.08733887 32.09765625 23.33984375 C32.10289307 24.59144287 32.10812988 25.84304199 32.11352539 27.13256836 C32 30 32 30 31 31 C28.70848583 31.08790975 26.41427476 31.10694038 24.12109375 31.09765625 C22.86482178 31.09515869 21.6085498 31.09266113 20.31420898 31.09008789 C18.70489502 31.08098389 17.09558105 31.07187988 15.4375 31.0625 C10.343125 31.041875 5.24875 31.02125 0 31 C0 20.77 0 10.54 0 0 Z " fill="#FCA758" transform="translate(125,344)"/>
<path d="M0 0 C10.23 0 20.46 0 31 0 C31 10.23 31 20.46 31 31 C20.77 31 10.54 31 0 31 C0 20.77 0 10.54 0 0 Z " fill="#301403" transform="translate(0,469)"/>
<path d="M0 0 C10.23 0 20.46 0 31 0 C31 10.23 31 20.46 31 31 C20.77 31 10.54 31 0 31 C0 20.77 0 10.54 0 0 Z " fill="#B74502" transform="translate(94,438)"/>
<path d="M0 0 C10.23 0 20.46 0 31 0 C31 10.23 31 20.46 31 31 C20.77 31 10.54 31 0 31 C0 20.77 0 10.54 0 0 Z " fill="#F58323" transform="translate(282,407)"/>
<path d="M0 0 C10.23 0 20.46 0 31 0 C31 10.23 31 20.46 31 31 C20.77 31 10.54 31 0 31 C0 20.77 0 10.54 0 0 Z " fill="#2C1304" transform="translate(0,407)"/>
<path d="M0 0 C10.23 0 20.46 0 31 0 C31 10.23 31 20.46 31 31 C20.77 31 10.54 31 0 31 C0 20.77 0 10.54 0 0 Z " fill="#2C1304" transform="translate(157,344)"/>
<path d="M0 0 C10.23 0 20.46 0 31 0 C31 10.23 31 20.46 31 31 C20.77 31 10.54 31 0 31 C0 20.77 0 10.54 0 0 Z " fill="#FEA757" transform="translate(345,344)"/>
<path d="M0 0 C10.23 0 20.46 0 31 0 C31 10.23 31 20.46 31 31 C20.77 31 10.54 31 0 31 C0 20.77 0 10.54 0 0 Z " fill="#F38324" transform="translate(313,344)"/>
<path d="M0 0 C10.23 0 20.46 0 31 0 C31 10.23 31 20.46 31 31 C20.77 31 10.54 31 0 31 C0 20.77 0 10.54 0 0 Z " fill="#F38323" transform="translate(188,344)"/>
<path d="M0 0 C10.23 0 20.46 0 31 0 C31 10.23 31 20.46 31 31 C20.77 31 10.54 31 0 31 C0 20.77 0 10.54 0 0 Z " fill="#301304" transform="translate(31,313)"/>
<path d="M0 0 C10.23 0 20.46 0 31 0 C31 10.23 31 20.46 31 31 C20.77 31 10.54 31 0 31 C0 20.77 0 10.54 0 0 Z " fill="#F28324" transform="translate(313,281)"/>
<path d="M0 0 C10.23 0 20.46 0 31 0 C31 10.23 31 20.46 31 31 C20.77 31 10.54 31 0 31 C0 20.77 0 10.54 0 0 Z " fill="#301303" transform="translate(0,281)"/>
<path d="M0 0 C10.23 0 20.46 0 31 0 C31 10.23 31 20.46 31 31 C20.77 31 10.54 31 0 31 C0 20.77 0 10.54 0 0 Z " fill="#2C1304" transform="translate(313,250)"/>
<path d="M0 0 C10.23 0 20.46 0 31 0 C31 10.23 31 20.46 31 31 C20.77 31 10.54 31 0 31 C0 20.77 0 10.54 0 0 Z " fill="#2E1204" transform="translate(157,250)"/>
<path d="M0 0 C10.23 0 20.46 0 31 0 C31 10.23 31 20.46 31 31 C20.77 31 10.54 31 0 31 C0 20.77 0 10.54 0 0 Z " fill="#FEFDF9" transform="translate(282,219)"/>
<path d="M0 0 C10.23 0 20.46 0 31 0 C31 10.23 31 20.46 31 31 C20.77 31 10.54 31 0 31 C0 20.77 0 10.54 0 0 Z " fill="#2C1303" transform="translate(157,156)"/>
<path d="M0 0 C10.23 0 20.46 0 31 0 C31 10.23 31 20.46 31 31 C20.77 31 10.54 31 0 31 C0 20.77 0 10.54 0 0 Z " fill="#FDA757" transform="translate(344,62)"/>
<path d="M0 0 C9.9 0 19.8 0 30 0 C30 10.56 30 21.12 30 32 C20.1 32 10.2 32 0 32 C0 21.44 0 10.88 0 0 Z " fill="#2E1304" transform="translate(32,375)"/>
<path d="M0 0 C4.929375 -0.020625 9.85875 -0.04125 14.9375 -0.0625 C17.2731604 -0.07615601 17.2731604 -0.07615601 19.65600586 -0.09008789 C21.47950562 -0.09383423 21.47950562 -0.09383423 23.33984375 -0.09765625 C24.59144287 -0.10289307 25.84304199 -0.10812988 27.13256836 -0.11352539 C30 0 30 0 31 1 C31.08783542 3.21855264 31.10694609 5.43988496 31.09765625 7.66015625 C31.09515869 8.87582275 31.09266113 10.09148926 31.09008789 11.34399414 C31.08098389 12.90110107 31.07187988 14.45820801 31.0625 16.0625 C31.041875 20.991875 31.02125 25.92125 31 31 C20.77 31 10.54 31 0 31 C0 20.77 0 10.54 0 0 Z " fill="#F28223" transform="translate(282,313)"/>
<path d="M0 0 C10.23 0 20.46 0 31 0 C31 10.23 31 20.46 31 31 C20.77 30.67 10.54 30.34 0 30 C0 20.1 0 10.2 0 0 Z " fill="#F28323" transform="translate(220,313)"/>
<path d="M0 0 C10.23 0 20.46 0 31 0 C31 10.23 31 20.46 31 31 C20.77 30.67 10.54 30.34 0 30 C0 20.1 0 10.2 0 0 Z " fill="#FCA758" transform="translate(408,313)"/>
<path d="M0 0 C10.23 0.33 20.46 0.66 31 1 C31 10.9 31 20.8 31 31 C20.77 31 10.54 31 0 31 C0 20.77 0 10.54 0 0 Z " fill="#2C1304" transform="translate(439,30)"/>
<path d="M0 0 C10.23 0 20.46 0 31 0 C31 9.9 31 19.8 31 30 C20.77 30 10.54 30 0 30 C0 20.1 0 10.2 0 0 Z " fill="#2C1304" transform="translate(220,470)"/>
<path d="M0 0 C9.9 0 19.8 0 30 0 C30 10.23 30 20.46 30 31 C20.1 31 10.2 31 0 31 C0 20.77 0 10.54 0 0 Z " fill="#AA2407" transform="translate(314,438)"/>
<path d="M0 0 C9.9 0 19.8 0 30 0 C30 10.23 30 20.46 30 31 C20.1 31 10.2 31 0 31 C0 20.77 0 10.54 0 0 Z " fill="#FDA757" transform="translate(63,438)"/>
<path d="M0 0 C10.23 0 20.46 0 31 0 C31 9.9 31 19.8 31 30 C20.77 30 10.54 30 0 30 C0 20.1 0 10.2 0 0 Z " fill="#FEA858" transform="translate(94,313)"/>
<path d="M0 0 C9.9 0 19.8 0 30 0 C30 10.23 30 20.46 30 31 C20.1 31 10.2 31 0 31 C0 20.77 0 10.54 0 0 Z " fill="#FEA756" transform="translate(470,281)"/>
<path d="M0 0 C9.9 0 19.8 0 30 0 C30 10.23 30 20.46 30 31 C20.1 31 10.2 31 0 31 C0 20.77 0 10.54 0 0 Z " fill="#FDA758" transform="translate(32,281)"/>
<path d="M0 0 C9.9 0 19.8 0 30 0 C30 10.23 30 20.46 30 31 C20.1 31 10.2 31 0 31 C0 20.77 0 10.54 0 0 Z " fill="#A92407" transform="translate(63,219)"/>
<path d="M0 0 C9.9 0 19.8 0 30 0 C30 10.23 30 20.46 30 31 C20.1 31 10.2 31 0 31 C0 20.77 0 10.54 0 0 Z " fill="#301303" transform="translate(470,156)"/>
<path d="M0 0 C9.9 0 19.8 0 30 0 C30 10.23 30 20.46 30 31 C20.1 31 10.2 31 0 31 C0 20.77 0 10.54 0 0 Z " fill="#FDA758" transform="translate(345,156)"/>
<path d="M0 0 C9.9 0 19.8 0 30 0 C30 10.23 30 20.46 30 31 C20.1 31 10.2 31 0 31 C0 20.77 0 10.54 0 0 Z " fill="#2F1303" transform="translate(470,62)"/>
<path d="M0 0 C9.9 0 19.8 0 30 0 C30 9.9 30 19.8 30 30 C20.1 30 10.2 30 0 30 C0 20.1 0 10.2 0 0 Z " fill="#FEA757" transform="translate(314,313)"/>
<path d="M0 0 C9.9 0 19.8 0 30 0 C30 9.9 30 19.8 30 30 C26.535 30.020625 23.07 30.04125 19.5 30.0625 C18.42427734 30.071604 17.34855469 30.08070801 16.24023438 30.09008789 C15.36689453 30.09258545 14.49355469 30.09508301 13.59375 30.09765625 C12.71396484 30.10289307 11.83417969 30.10812988 10.92773438 30.11352539 C7.26904341 29.97165654 3.63316638 29.4541458 0 29 C0 19.43 0 9.86 0 0 Z " fill="#FDA859" transform="translate(94,0)"/>
<path d="M0 0 C9.24 0 18.48 0 28 0 C29.38308781 2.76617563 29.11210196 5.01018 29.09765625 8.1015625 C29.09515869 9.19291504 29.09266113 10.28426758 29.09008789 11.40869141 C29.08098389 12.80007324 29.07187988 14.19145508 29.0625 15.625 C29.041875 20.03875 29.02125 24.4525 29 29 C19.43 29 9.86 29 0 29 C0 19.43 0 9.86 0 0 Z " fill="#AC2305" transform="translate(252,471)"/>
<path d="M0 0 C4.063125 -0.020625 8.12625 -0.04125 12.3125 -0.0625 C13.59036377 -0.071604 14.86822754 -0.08070801 16.18481445 -0.09008789 C17.1924585 -0.09258545 18.20010254 -0.09508301 19.23828125 -0.09765625 C20.26993408 -0.10289307 21.30158691 -0.10812988 22.36450195 -0.11352539 C25 0 25 0 28 1 C28 10.24 28 19.48 28 29 C23.936875 29.020625 19.87375 29.04125 15.6875 29.0625 C14.40963623 29.071604 13.13177246 29.08070801 11.81518555 29.09008789 C10.8075415 29.09258545 9.79989746 29.09508301 8.76171875 29.09765625 C7.2142395 29.10551147 7.2142395 29.10551147 5.63549805 29.11352539 C3 29 3 29 0 28 C0 18.76 0 9.52 0 0 Z " fill="#B84400" transform="translate(441,157)"/>
<path d="M0 0 C0.33 0 0.66 0 1 0 C1 9.9 1 19.8 1 30 C21.46 30 41.92 30 63 30 C63 30.33 63 30.66 63 31 C42.21 31 21.42 31 0 31 C0 41.23 0 51.46 0 62 C-0.33 62 -0.66 62 -1 62 C-1 52.1 -1 42.2 -1 32 C-3.64 32.33 -6.28 32.66 -9 33 C-10.76201702 33.07841988 -12.52615685 33.12220558 -14.28991699 33.12025452 C-15.74523331 33.12231651 -15.74523331 33.12231651 -17.22994995 33.12442017 C-18.26717194 33.12082489 -19.30439392 33.11722961 -20.37304688 33.11352539 C-22.04265976 33.11374443 -22.04265976 33.11374443 -23.7460022 33.1139679 C-27.40360503 33.11327449 -31.06115613 33.10550896 -34.71875 33.09765625 C-37.263224 33.09579004 -39.80769836 33.09436709 -42.35217285 33.09336853 C-48.35138156 33.08994813 -54.35056825 33.08207676 -60.34976816 33.07201904 C-67.18416207 33.06081171 -74.0185569 33.05533585 -80.85295773 33.05032361 C-94.90198197 33.0398928 -108.95098997 33.02232225 -123 33 C-122.99476318 33.70084717 -122.98952637 34.40169434 -122.98413086 35.1237793 C-122.96329148 38.31167701 -122.95031768 41.49956036 -122.9375 44.6875 C-122.92912109 45.79029297 -122.92074219 46.89308594 -122.91210938 48.02929688 C-122.90888672 49.09599609 -122.90566406 50.16269531 -122.90234375 51.26171875 C-122.89710693 52.24100342 -122.89187012 53.22028809 -122.88647461 54.22924805 C-122.99691457 56.92469572 -123.39465834 59.37545639 -124 62 C-124.33 62 -124.66 62 -125 62 C-125 51.77 -125 41.54 -125 31 C-145.79 31 -166.58 31 -188 31 C-188 30.67 -188 30.34 -188 30 C-125.96 30 -63.92 30 0 30 C0 20.1 0 10.2 0 0 Z " fill="#B97035" transform="translate(313,0)"/>
<path d="M0 0 C0.33 0 0.66 0 1 0 C1 20.46 1 40.92 1 62 C31.69 62 62.38 62 94 62 C94 52.1 94 42.2 94 32 C91.69 32 89.38 32 87 32 C87 31.67 87 31.34 87 31 C89.31 31 91.62 31 94 31 C94 20.77 94 10.54 94 0 C94.33 0 94.66 0 95 0 C95 20.79 95 41.58 95 63 C63.98 63 32.96 63 1 63 C1 72.9 1 82.8 1 93 C11.23 93 21.46 93 32 93 C32 93.33 32 93.66 32 94 C21.77 94 11.54 94 1 94 C1 114.79 1 135.58 1 157 C0.67 157 0.34 157 0 157 C0 125.98 0 94.96 0 63 C-10.23 63 -20.46 63 -31 63 C-31 62.67 -31 62.34 -31 62 C-20.77 62 -10.54 62 0 62 C0 41.54 0 21.08 0 0 Z " fill="#8F5529" transform="translate(62,250)"/>
<path d="M0 0 C31.02 0 62.04 0 94 0 C94 0.33 94 0.66 94 1 C83.77 1 73.54 1 63 1 C63.020625 5.393125 63.04125 9.78625 63.0625 14.3125 C63.09953627 31.75297109 62.80835033 49.1879279 62.5 66.625 C62.48804218 67.30140659 62.47608437 67.97781319 62.46376419 68.67471695 C62.31407209 77.11657293 62.15768377 85.55828666 62 94 C52.43 94 42.86 94 33 94 C33 93.67 33 93.34 33 93 C42.24 93 51.48 93 61 93 C60.98259766 86.66554687 60.98259766 86.66554687 60.96484375 80.203125 C60.95837167 76.74510222 60.95296364 73.28708125 60.94824982 69.82905579 C60.94306128 66.22896015 60.93618486 62.62888969 60.92456055 59.02880859 C60.86467473 39.98529415 61.20804712 21.0318125 62 2 C52.43 2 42.86 2 33 2 C33 22.13 33 42.26 33 63 C32.34 63 31.68 63 31 63 C31 42.54 31 22.08 31 1 C20.77 1 10.54 1 0 1 C0 0.67 0 0.34 0 0 Z " fill="#C67632" transform="translate(0,30)"/>
<path d="M0 0 C10.56 0 21.12 0 32 0 C32 51.81 32 103.62 32 157 C41.9 157 51.8 157 62 157 C62 157.66 62 158.32 62 159 C52.43 159 42.86 159 33 159 C32.67 168.57 32.34 178.14 32 188 C31.67 188 31.34 188 31 188 C31 178.1 31 168.2 31 158 C20.77 158 10.54 158 0 158 C0 167.9 0 177.8 0 188 C-0.33 188 -0.66 188 -1 188 C-1 177.77 -1 167.54 -1 157 C9.56 157 20.12 157 31 157 C31 105.52 31 54.04 31 1 C20.77 1 10.54 1 0 1 C0 0.67 0 0.34 0 0 Z " fill="#5E5149" transform="translate(376,61)"/>
<path d="M0 0 C10.23 0 20.46 0 31 0 C31.17389368 9.02073463 31.34308528 18.04146466 31.5 27.0625 C31.51187725 27.7449604 31.5237545 28.42742081 31.53599167 29.13056183 C31.9284378 51.87954145 32.09051572 74.62273579 32.0625 97.375 C32.06121597 98.42540403 32.06121597 98.42540403 32.05990601 99.49702835 C32.04872343 107.99804412 32.02897119 116.49902583 32 125 C31.67 125 31.34 125 31 125 C31 115.1 31 105.2 31 95 C10.54 95 -9.92 95 -31 95 C-31 94.67 -31 94.34 -31 94 C-10.54 94 9.92 94 31 94 C31 83.77 31 73.54 31 63 C20.77 63 10.54 63 0 63 C0 42.21 0 21.42 0 0 Z M2 1 C0.68142452 3.63715096 0.88008296 5.5983264 0.88647461 8.55126953 C0.88655014 9.71232208 0.88662567 10.87337463 0.88670349 12.0696106 C0.89186478 13.32796722 0.89702606 14.58632385 0.90234375 15.8828125 C0.9037587 17.16735321 0.90517365 18.45189392 0.90663147 19.77536011 C0.91045089 23.19156842 0.92027627 26.60773426 0.93133545 30.02392578 C0.94156193 33.50943426 0.94613174 36.9949496 0.95117188 40.48046875 C0.96189904 47.32032995 0.97896858 54.16016294 1 61 C5.45821166 61.08674429 9.91620804 61.14030513 14.375 61.1875 C15.64601563 61.21263672 16.91703125 61.23777344 18.2265625 61.26367188 C20.04414063 61.27817383 20.04414063 61.27817383 21.8984375 61.29296875 C23.57945557 61.31653442 23.57945557 61.31653442 25.29443359 61.34057617 C26.18727051 61.22818604 27.08010742 61.1157959 28 61 C30.27121709 57.59317436 30.24468887 56.42202816 30.22705078 52.42700195 C30.22689972 51.28604568 30.22674866 50.14508942 30.22659302 48.96955872 C30.21627045 47.73823715 30.20594788 46.50691559 30.1953125 45.23828125 C30.1924826 43.97735153 30.18965271 42.71642181 30.18673706 41.4172821 C30.17743125 38.06839578 30.15946703 34.71978209 30.1373291 31.37097168 C30.11685386 27.95241696 30.10762214 24.53383323 30.09765625 21.11523438 C30.0772818 14.41000263 30.03813412 7.70524858 30 1 C20.76 1 11.52 1 2 1 Z " fill="#501901" transform="translate(282,344)"/>
<path d="M0 0 C8.9999817 -0.03149194 17.99997179 -0.05127921 27 -0.0625 C27.68160439 -0.06335602 28.36320877 -0.06421204 29.06546783 -0.06509399 C52.00608453 -0.09045554 74.93769744 0.1147033 97.875 0.5 C98.58722717 0.51195782 99.29945435 0.52391563 100.03326416 0.53623581 C108.68901103 0.68232599 117.3444939 0.83981879 126 1 C126 10.9 126 20.8 126 31 C135.9 31 145.8 31 156 31 C156 31.33 156 31.66 156 32 C145.77 32 135.54 32 125 32 C125 22.1 125 12.2 125 2 C106.52 2 88.04 2 69 2 C68.67 2.66 68.34 3.32 68 4 C68 3.34 68 2.68 68 2 C66.35 2 64.7 2 63 2 C63 11.57 63 21.14 63 31 C73.23 31 83.46 31 94 31 C94 31.33 94 31.66 94 32 C83.77 32 73.54 32 63 32 C63 42.23 63 52.46 63 63 C62.67 63 62.34 63 62 63 C62 52.77 62 42.54 62 32 C51.77 32 41.54 32 31 32 C30.67 22.1 30.34 12.2 30 2 C15.15 1.505 15.15 1.505 0 1 C0 0.67 0 0.34 0 0 Z M32 1 C32 10.9 32 20.8 32 31 C41.9 31 51.8 31 62 31 C62 21.1 62 11.2 62 1 C52.1 1 42.2 1 32 1 Z " fill="#F6933B" transform="translate(282,312)"/>
<path d="M0 0 C30.69 0 61.38 0 93 0 C93 0.33 93 0.66 93 1 C62.64 1 32.28 1 1 1 C1 10.9 1 20.8 1 31 C11.23 31 21.46 31 32 31 C32 31.33 32 31.66 32 32 C21.77 32 11.54 32 1 32 C1 41.9 1 51.8 1 62 C9.58 62 18.16 62 27 62 C27 62.33 27 62.66 27 63 C18.42 63 9.84 63 1 63 C1 73.23 1 83.46 1 94 C0.67 94 0.34 94 0 94 C0 83.77 0 73.54 0 63 C-10.23 63 -20.46 63 -31 63 C-31 62.67 -31 62.34 -31 62 C-21.1 61.67 -11.2 61.34 -1 61 C-0.67 51.43 -0.34 41.86 0 32 C-20.46 32 -40.92 32 -62 32 C-62 31.67 -62 31.34 -62 31 C-41.54 31 -21.08 31 0 31 C0 20.77 0 10.54 0 0 Z " fill="#FB983F" transform="translate(219,281)"/>
<path d="M0 0 C0.33 0 0.66 0 1 0 C1 10.23 1 20.46 1 31 C32.02 31 63.04 31 95 31 C95 41.23 95 51.46 95 62 C94.67 62 94.34 62 94 62 C94 52.1 94 42.2 94 32 C73.54 32 53.08 32 32 32 C32 41.9 32 51.8 32 62 C31.67 62 31.34 62 31 62 C30.67 52.43 30.34 42.86 30 33 C20.76 33 11.52 33 2 33 C2 42.57 2 52.14 2 62 C1.67 62 1.34 62 1 62 C1 52.1 1 42.2 1 32 C-9.23 32 -19.46 32 -30 32 C-30 41.9 -30 51.8 -30 62 C-30.33 62 -30.66 62 -31 62 C-31 51.77 -31 41.54 -31 31 C-20.77 31 -10.54 31 0 31 C0 20.77 0 10.54 0 0 Z " fill="#91492E" transform="translate(250,438)"/>
<path d="M0 0 C20.79 0 41.58 0 63 0 C63 10.23 63 20.46 63 31 C52.77 31 42.54 31 32 31 C32 41.23 32 51.46 32 62 C21.44 62 10.88 62 0 62 C0 41.54 0 21.08 0 0 Z M1 3 C0.70694289 5.54903294 0.70694289 5.54903294 0.77294922 8.55126953 C0.77310028 9.71232208 0.77325134 10.87337463 0.77340698 12.0696106 C0.78372955 13.32796722 0.79405212 14.58632385 0.8046875 15.8828125 C0.8075174 17.16735321 0.81034729 18.45189392 0.81326294 19.77536011 C0.82090191 23.19162767 0.84055248 26.60772537 0.8626709 30.02392578 C0.88312375 33.5094163 0.89237296 36.99493507 0.90234375 40.48046875 C0.92273729 47.32046256 0.9618823 54.15998981 1 61 C10.57 61 20.14 61 30 61 C30 51.1 30 41.2 30 31 C40.56 30.67 51.12 30.34 62 30 C62.061875 25.58625 62.12375 21.1725 62.1875 16.625 C62.21481201 15.23361816 62.24212402 13.84223633 62.27026367 12.40869141 C62.27775635 11.31733887 62.28524902 10.22598633 62.29296875 9.1015625 C62.31653442 7.42054443 62.31653442 7.42054443 62.34057617 5.70556641 C62.22818604 4.81272949 62.1157959 3.91989258 62 3 C58.6291112 0.7527408 57.49507895 0.74760158 53.55053711 0.74121094 C51.87881691 0.73175446 51.87881691 0.73175446 50.17332458 0.72210693 C48.97015091 0.7261554 47.76697723 0.73020386 46.52734375 0.734375 C45.29335342 0.73246155 44.0593631 0.7305481 42.78797913 0.72857666 C39.50895162 0.72686576 36.23011322 0.73492338 32.95111084 0.74609375 C30.93796774 0.74999909 28.92499877 0.74610417 26.91186523 0.73925781 C23.05444172 0.7269421 19.19727783 0.72838894 15.33984375 0.734375 C13.53204689 0.72830231 13.53204689 0.72830231 11.68772888 0.72210693 C10.57640091 0.72841125 9.46507294 0.73471558 8.32006836 0.74121094 C7.33872421 0.74280212 6.35738007 0.74439331 5.34629822 0.74603271 C2.80946203 0.77260027 2.80946203 0.77260027 1 3 Z " fill="#440E00" transform="translate(125,407)"/>
<path d="M0 0 C10.56 0 21.12 0 32 0 C32 10.23 32 20.46 32 31 C41.9 31 51.8 31 62 31 C62 31.33 62 31.66 62 32 C41.87 32 21.74 32 1 32 C1 41.9 1 51.8 1 62 C0.67 62 0.34 62 0 62 C0 41.54 0 21.08 0 0 Z M3 1 C3 10.24 3 19.48 3 29 C6.17787541 30.0592918 8.42588943 30.11458939 11.76171875 30.09765625 C12.76936279 30.09515869 13.77700684 30.09266113 14.81518555 30.09008789 C16.09304932 30.08098389 17.37091309 30.07187988 18.6875 30.0625 C22.750625 30.041875 26.81375 30.02125 31 30 C31 20.76 31 11.52 31 2 C27.82212459 0.9407082 25.57411057 0.88541061 22.23828125 0.90234375 C21.23063721 0.90484131 20.22299316 0.90733887 19.18481445 0.90991211 C17.90695068 0.91901611 16.62908691 0.92812012 15.3125 0.9375 C11.249375 0.958125 7.18625 0.97875 3 1 Z " fill="#A1572B" transform="translate(438,156)"/>
<path d="M0 0 C0.33 0 0.66 0 1 0 C1 10.23 1 20.46 1 31 C11.23 31 21.46 31 32 31 C32 21.1 32 11.2 32 1 C22.1 1 12.2 1 2 1 C2 0.67 2 0.34 2 0 C12.23 0 22.46 0 33 0 C33 10.23 33 20.46 33 31 C42.57 31 52.14 31 62 31 C62 31.33 62 31.66 62 32 C42.2 32 22.4 32 2 32 C2 41.9 2 51.8 2 62 C11.9 62 21.8 62 32 62 C32 62.66 32 63.32 32 64 C21.44 64 10.88 64 0 64 C0 42.88 0 21.76 0 0 Z " fill="#9E836F" transform="translate(438,30)"/>
<path d="M0 0 C20.79 0 41.58 0 63 0 C62.67 0.66 62.34 1.32 62 2 C48.635 2.495 48.635 2.495 35 3 C35 22.14 35 41.28 35 61 C48.365 61.495 48.365 61.495 62 62 C62 52.1 62 42.2 62 32 C62.33 32 62.66 32 63 32 C63 42.23 63 52.46 63 63 C52.77 63 42.54 63 32 63 C32 42.54 32 22.08 32 1 C21.44 1 10.88 1 0 1 C0 0.67 0 0.34 0 0 Z " fill="#9C4612" transform="translate(125,187)"/>
<path d="M0 0 C10.56 0 21.12 0 32 0 C32 0.66 32 1.32 32 2 C31.22285645 1.98428955 30.44571289 1.9685791 29.64501953 1.95239258 C26.1384198 1.89019649 22.63193587 1.85105793 19.125 1.8125 C17.90167969 1.78736328 16.67835938 1.76222656 15.41796875 1.73632812 C14.25136719 1.72666016 13.08476562 1.71699219 11.8828125 1.70703125 C10.80402832 1.6913208 9.72524414 1.67561035 8.61376953 1.65942383 C7.31995361 1.82800903 7.31995361 1.82800903 6 2 C3.7456402 5.3815397 3.73371273 6.60468871 3.68115234 10.57299805 C3.66128265 11.71395432 3.64141296 12.85491058 3.62094116 14.03044128 C3.60938995 15.26176285 3.59783875 16.49308441 3.5859375 17.76171875 C3.56657135 19.02264847 3.5472052 20.28357819 3.5272522 21.5827179 C3.47756263 24.93147581 3.43630565 28.28012319 3.39910889 31.62902832 C3.35906919 35.04770856 3.30797674 38.46622161 3.2578125 41.88476562 C3.16167439 48.58973631 3.07664854 55.29477974 3 62 C2.01 62 1.02 62 0 62 C0 41.54 0 21.08 0 0 Z " fill="#441700" transform="translate(344,188)"/>
<path d="M0 0 C20.46 0 40.92 0 62 0 C62 10.23 62 20.46 62 31 C41.54 31 21.08 31 0 31 C0 30.67 0 30.34 0 30 C19.47 29.34 38.94 28.68 59 28 C59.33 19.09 59.66 10.18 60 1 C40.2 1 20.4 1 0 1 C0 0.67 0 0.34 0 0 Z " fill="#3E1100" transform="translate(63,344)"/>
<path d="M0 0 C0.66 0 1.32 0 2 0 C2 41.58 2 83.16 2 126 C-0.01435614 121.97128773 -0.23476654 120.52837838 -0.17553711 116.19824219 C-0.16615616 115.02642395 -0.15677521 113.85460571 -0.14710999 112.64727783 C-0.12821213 111.3766449 -0.10931427 110.10601196 -0.08984375 108.796875 C-0.06591401 106.06448291 -0.05021885 103.33206049 -0.03466797 100.59960938 C-0.02983808 99.89324467 -0.02500818 99.18687996 -0.02003193 98.45911026 C0.02427564 90.8297611 -0.10599072 83.20577212 -0.25390625 75.578125 C-0.27897275 74.21854901 -0.30390568 72.85897054 -0.32870483 71.49938965 C-0.43015001 65.99688778 -0.53726079 60.4945059 -0.64819336 54.9921875 C-0.70403298 52.21120621 -0.75716041 49.4301977 -0.80735779 46.64910889 C-0.85413456 44.06931382 -0.90511615 41.48959067 -0.96083069 38.90997314 C-0.98092697 37.76566833 -1.00102325 36.62136353 -1.02172852 35.44238281 C-1.05170677 33.93263885 -1.05170677 33.93263885 -1.08229065 32.39239502 C-1 30 -1 30 0 28 C0.08543895 25.89471067 0.10714725 23.78668843 0.09765625 21.6796875 C0.09443359 20.42285156 0.09121094 19.16601562 0.08789062 17.87109375 C0.07951172 16.55238281 0.07113281 15.23367187 0.0625 13.875 C0.05748489 12.53515789 0.05292201 11.195314 0.04882812 9.85546875 C0.03701086 6.57026794 0.02053617 3.28515603 0 0 Z " fill="#3D0E00" transform="translate(123,62)"/>
<path d="M0 0 C10.23 0 20.46 0 31 0 C31 10.56 31 21.12 31 32 C20.77 32 10.54 32 0 32 C0 21.44 0 10.88 0 0 Z M14.375 1.4375 C12.92480469 1.49647461 12.92480469 1.49647461 11.4453125 1.55664062 C10.06085938 1.61948242 10.06085938 1.61948242 8.6484375 1.68359375 C7.38265869 1.73858032 7.38265869 1.73858032 6.09130859 1.79467773 C3.94235805 1.87978762 3.94235805 1.87978762 2 3 C2 11.91 2 20.82 2 30 C6.434375 30.020625 10.86875 30.04125 15.4375 30.0625 C16.83798584 30.071604 18.23847168 30.08070801 19.68139648 30.09008789 C20.77524658 30.09258545 21.86909668 30.09508301 22.99609375 30.09765625 C24.12200928 30.10289307 25.2479248 30.10812988 26.40795898 30.11352539 C28.92970871 30.29545448 28.92970871 30.29545448 30 29 C30.09964888 27.181878 30.13080495 25.35991216 30.1328125 23.5390625 C30.13410156 22.42789063 30.13539063 21.31671875 30.13671875 20.171875 C30.13091797 18.41617188 30.13091797 18.41617188 30.125 16.625 C30.12886719 15.46226562 30.13273437 14.29953125 30.13671875 13.1015625 C30.13542969 11.9878125 30.13414062 10.8740625 30.1328125 9.7265625 C30.13168457 8.70127441 30.13055664 7.67598633 30.12939453 6.61962891 C30.11223355 3.88830016 30.11223355 3.88830016 29 1 C24.11520622 1 19.25409912 1.21780938 14.375 1.4375 Z " fill="#4F1B01" transform="translate(313,156)"/>
<path d="M0 0 C10.23 0 20.46 0 31 0 C31 10.23 31 20.46 31 31 C20.77 31 10.54 31 0 31 C0 20.77 0 10.54 0 0 Z M2 2 C1.97113662 6.47915328 1.95324813 10.95828291 1.9375 15.4375 C1.92912109 16.71689453 1.92074219 17.99628906 1.91210938 19.31445312 C1.90888672 20.52939453 1.90566406 21.74433594 1.90234375 22.99609375 C1.89710693 24.12200928 1.89187012 25.2479248 1.88647461 26.40795898 C1.70454552 28.92970871 1.70454552 28.92970871 3 30 C6.97275815 30.25256877 10.95766175 30.18522451 14.9375 30.1875 C16.06091797 30.19974609 17.18433594 30.21199219 18.34179688 30.22460938 C19.41365234 30.22654297 20.48550781 30.22847656 21.58984375 30.23046875 C22.57847412 30.23457764 23.56710449 30.23868652 24.58569336 30.24291992 C27.18307091 30.23877244 27.18307091 30.23877244 29 28 C29.88590003 24.6776128 30.11976716 21.56391032 30.09765625 18.13671875 C30.09282227 16.80737305 30.09282227 16.80737305 30.08789062 15.45117188 C30.07951172 14.53916016 30.07113281 13.62714844 30.0625 12.6875 C30.05798828 11.75615234 30.05347656 10.82480469 30.04882812 9.86523438 C30.03709234 7.57675627 30.02067363 5.28841192 30 3 C24.21354356 1.74593862 18.51131884 1.88813087 12.625 1.9375 C11.09166016 1.94426758 11.09166016 1.94426758 9.52734375 1.95117188 C7.01816806 1.962897 4.5091151 1.97930824 2 2 Z " fill="#E08231" transform="translate(439,281)"/>
<path d="M0 0 C10.23 0 20.46 0 31 0 C31.15348491 7.67188404 31.30509436 15.34354641 31.44254303 23.01569366 C31.50703692 26.59218108 31.5740285 30.16857199 31.64819336 33.74487305 C32.06295756 53.86951404 31.8578045 73.88765934 31 94 C30.67 94 30.34 94 30 94 C30 63.64 30 33.28 30 2 C20.76 2 11.52 2 2 2 C1.67 11.57 1.34 21.14 1 31 C0.67 31 0.34 31 0 31 C0 20.77 0 10.54 0 0 Z " fill="#EC8B3A" transform="translate(63,375)"/>
<path d="M0 0 C0.33 0 0.66 0 1 0 C1 21.45 1 42.9 1 65 C11.23 65 21.46 65 32 65 C32 75.23 32 85.46 32 96 C31.67 96 31.34 96 31 96 C31 86.1 31 76.2 31 66 C15.655 66.495 15.655 66.495 0 67 C-1.04937917 63.85186248 -1.16890332 61.52291647 -1.23706055 58.21508789 C-1.26346115 57.02698013 -1.28986176 55.83887238 -1.31706238 54.61476135 C-1.34004898 53.33036667 -1.36303558 52.04597198 -1.38671875 50.72265625 C-1.41224319 49.40462509 -1.43776764 48.08659393 -1.46406555 46.72862244 C-1.51700324 43.93867967 -1.56593076 41.14869771 -1.61254883 38.35864258 C-1.67292424 34.78622759 -1.7471617 31.21424783 -1.82492352 27.64217472 C-1.89642915 24.23165425 -1.95313715 20.82092301 -2.01171875 17.41015625 C-2.04077805 16.1277858 -2.06983734 14.84541534 -2.09977722 13.52418518 C-2.12519341 11.7372953 -2.12519341 11.7372953 -2.15112305 9.91430664 C-2.17031296 8.86634415 -2.18950287 7.81838165 -2.20927429 6.73866272 C-1.99747333 3.96693483 -1.43039154 2.35428386 0 0 Z " fill="#E98734" transform="translate(30,185)"/>
<path d="M0 0 C0.66 0 1.32 0 2 0 C2 10.23 2 20.46 2 31 C-29.02 31 -60.04 31 -92 31 C-91.67 29.68 -91.34 28.36 -91 27 C-91 27.99 -91 28.98 -91 30 C-79.41305088 29.89267217 -67.8261663 29.7800747 -56.23933506 29.66066074 C-50.85969196 29.60538561 -45.48004348 29.55195842 -40.1003418 29.50268555 C-34.91320329 29.45510952 -29.72613315 29.40276944 -24.53907585 29.34705925 C-22.55545684 29.32660495 -20.57181906 29.30789708 -18.58816719 29.29092598 C-15.81985784 29.26694977 -13.05167898 29.23688636 -10.28344727 29.20532227 C-9.45482681 29.1995668 -8.62620636 29.19381134 -7.7724762 29.18788147 C-4.08336096 29.48801344 -4.08336096 29.48801344 -1 28 C-0.8415735 25.9291528 -0.74875578 23.85321971 -0.68359375 21.77734375 C-0.64169922 20.51728516 -0.59980469 19.25722656 -0.55664062 17.95898438 C-0.51682404 16.61849264 -0.47711186 15.2779978 -0.4375 13.9375 C-0.39431958 12.59308477 -0.35070544 11.2486834 -0.30664062 9.90429688 C-0.20014642 6.6029766 -0.0981354 3.30157764 0 0 Z " fill="#431400" transform="translate(437,281)"/>
<path d="M0 0 C10.23 0 20.46 0 31 0 C31 10.23 31 20.46 31 31 C20.77 31 10.54 31 0 31 C0 30.67 0 30.34 0 30 C9.9 30 19.8 30 30 30 C30 20.43 30 10.86 30 1 C25.545 1.495 25.545 1.495 21 2 C19.32271121 2.0688445 17.64350376 2.10939513 15.96484375 2.09765625 C14.72250977 2.09282227 14.72250977 2.09282227 13.45507812 2.08789062 C12.62427734 2.07951172 11.79347656 2.07113281 10.9375 2.0625 C10.07189453 2.05798828 9.20628906 2.05347656 8.31445312 2.04882812 C6.20960461 2.03719913 4.10479242 2.01927073 2 2 C2.00523682 2.56920166 2.01047363 3.13840332 2.01586914 3.72485352 C2.03682887 6.33739083 2.04972004 8.94991037 2.0625 11.5625 C2.07087891 12.45775391 2.07925781 13.35300781 2.08789062 14.27539062 C2.10629571 19.29997943 1.86266398 24.04817291 1 29 C0.67 29 0.34 29 0 29 C0 19.43 0 9.86 0 0 Z " fill="#441600" transform="translate(157,156)"/>
<path d="M0 0 C10.23 0 20.46 0 31 0 C31 10.23 31 20.46 31 31 C20.77 31 10.54 31 0 31 C0 20.77 0 10.54 0 0 Z M2 1 C1.26997133 4.65014337 0.87204559 7.39001434 0.8671875 11.01171875 C0.86589844 11.93404297 0.86460937 12.85636719 0.86328125 13.80664062 C0.86714844 14.75732422 0.87101563 15.70800781 0.875 16.6875 C0.87113281 17.64978516 0.86726562 18.61207031 0.86328125 19.60351562 C0.86457031 20.52197266 0.86585938 21.44042969 0.8671875 22.38671875 C0.86887939 23.64295044 0.86887939 23.64295044 0.87060547 24.92456055 C0.86819533 27.06196685 0.86819533 27.06196685 2 29 C6.47915328 29.02886338 10.95828291 29.04675187 15.4375 29.0625 C16.71689453 29.07087891 17.99628906 29.07925781 19.31445312 29.08789062 C20.52939453 29.09111328 21.74433594 29.09433594 22.99609375 29.09765625 C24.12200928 29.10289307 25.2479248 29.10812988 26.40795898 29.11352539 C28.92970871 29.29545448 28.92970871 29.29545448 30 28 C30.08758003 26.00035018 30.10696576 23.9976389 30.09765625 21.99609375 C30.09515869 20.90224365 30.09266113 19.80839355 30.09008789 18.68139648 C30.08098389 17.28091064 30.07187988 15.8804248 30.0625 14.4375 C30.0315625 7.7859375 30.0315625 7.7859375 30 1 C20.76 1 11.52 1 2 1 Z " fill="#3F1100" transform="translate(157,344)"/>
<path d="M0 0 C10.23 0 20.46 0 31 0 C31 20.79 31 41.58 31 63 C30.67 63 30.34 63 30 63 C30 42.54 30 22.08 30 1 C14.63288818 -1.13507774 14.63288818 -1.13507774 2 3 C1.8768483 4.74838835 1.82212189 6.50164504 1.79467773 8.25415039 C1.77473251 9.37523697 1.75478729 10.49632355 1.73423767 11.65138245 C1.71752518 12.8711528 1.70081268 14.09092316 1.68359375 15.34765625 C1.66281265 16.58921982 1.64203156 17.83078339 1.62062073 19.10997009 C1.56616391 22.41599123 1.51595795 25.72202245 1.46777344 29.02813721 C1.41760144 32.39967491 1.36189299 35.77112053 1.30664062 39.14257812 C1.19929962 45.76164551 1.09755802 52.3807816 1 59 C0.67 59 0.34 59 0 59 C0 39.53 0 20.06 0 0 Z " fill="#E2812F" transform="translate(251,344)"/>
<path d="M0 0 C10.23 0 20.46 0 31 0 C31 0.33 31 0.66 31 1 C21.43 1.33 11.86 1.66 2 2 C2 10.91 2 19.82 2 29 C11.24 29 20.48 29 30 29 C30.33 29.66 30.66 30.32 31 31 C20.77 31 10.54 31 0 31 C0 20.77 0 10.54 0 0 Z " fill="#461500" transform="translate(313,250)"/>
<path d="M0 0 C6.27 0 12.54 0 19 0 C19 0.33 19 0.66 19 1 C17.92878906 1.06058594 16.85757813 1.12117188 15.75390625 1.18359375 C14.35675609 1.26798537 12.95962143 1.35263406 11.5625 1.4375 C10.50192383 1.49647461 10.50192383 1.49647461 9.41992188 1.55664062 C5.91309581 1.47624438 5.91309581 1.47624438 3 3 C2.87655973 4.87096111 2.82207606 6.74650928 2.79467773 8.62133789 C2.77473251 9.82250748 2.75478729 11.02367706 2.73423767 12.26124573 C2.71752518 13.5685112 2.70081268 14.87577667 2.68359375 16.22265625 C2.66303042 17.56644847 2.64203412 18.91023412 2.62062073 20.25401306 C2.56533581 23.79674987 2.51595502 27.33954567 2.46777344 30.88238525 C2.41760513 34.4952115 2.36189475 38.10795172 2.30664062 41.72070312 C2.19898063 48.81372747 2.0975532 55.90682888 2 63 C1.34 63 0.68 63 0 63 C0 42.21 0 21.42 0 0 Z " fill="#E08437" transform="translate(125,93)"/>
<path d="M0 0 C0.66 0 1.32 0 2 0 C2 9.9 2 19.8 2 30 C11.57 30 21.14 30 31 30 C31 30.66 31 31.32 31 32 C26.74585377 32.02465622 22.49174502 32.04283899 18.23754883 32.05493164 C16.78929927 32.05997101 15.34105483 32.06680253 13.89282227 32.07543945 C11.81525412 32.08752247 9.73775303 32.09323211 7.66015625 32.09765625 C6.40855713 32.10289307 5.15695801 32.10812988 3.86743164 32.11352539 C1 32 1 32 0 31 C-0.08790975 28.70848583 -0.10694038 26.41427476 -0.09765625 24.12109375 C-0.0962413 23.4344313 -0.09482635 22.74776886 -0.09336853 22.04029846 C-0.08775479 19.83932199 -0.07520007 17.63844591 -0.0625 15.4375 C-0.05748676 13.94856917 -0.05292355 12.45963676 -0.04882812 10.97070312 C-0.03778093 7.31376925 -0.02050713 3.65689442 0 0 Z " fill="#9B430E" transform="translate(313,375)"/>
<path d="M0 0 C1.96244652 3.92489304 2.28432814 5.62138586 2.4140625 9.859375 C2.45273438 10.97441406 2.49140625 12.08945313 2.53125 13.23828125 C2.5621875 14.39714844 2.593125 15.55601562 2.625 16.75 C2.66367188 17.92433594 2.70234375 19.09867188 2.7421875 20.30859375 C2.8363982 23.20557268 2.92201602 26.10254626 3 29 C7.31248609 29.02886537 11.62494762 29.04675255 15.9375 29.0625 C17.16919922 29.07087891 18.40089844 29.07925781 19.66992188 29.08789062 C20.83974609 29.09111328 22.00957031 29.09433594 23.21484375 29.09765625 C24.29886475 29.10289307 25.38288574 29.10812988 26.49975586 29.11352539 C28.94049948 29.28426897 28.94049948 29.28426897 30 28 C30.15825258 26.00217874 30.25119171 23.99911166 30.31640625 21.99609375 C30.35830078 20.78115234 30.40019531 19.56621094 30.44335938 18.31445312 C30.48267578 17.03505859 30.52199219 15.75566406 30.5625 14.4375 C30.60568359 13.15423828 30.64886719 11.87097656 30.69335938 10.54882812 C30.799848 7.36600147 30.90185962 4.18309326 31 1 C31.33 1 31.66 1 32 1 C32 10.9 32 20.8 32 31 C21.44 31 10.88 31 0 31 C0 20.77 0 10.54 0 0 Z " fill="#E8A366" transform="translate(125,156)"/>
<path d="M0 0 C10.23 0 20.46 0 31 0 C31 10.23 31 20.46 31 31 C20.77 31 10.54 31 0 31 C0 30.67 0 30.34 0 30 C9.57 29.67 19.14 29.34 29 29 C29.020625 24.730625 29.04125 20.46125 29.0625 16.0625 C29.071604 14.71422119 29.08070801 13.36594238 29.09008789 11.97680664 C29.09258545 10.92356201 29.09508301 9.87031738 29.09765625 8.78515625 C29.10289307 7.70113525 29.10812988 6.61711426 29.11352539 5.50024414 C29.28426897 3.05950052 29.28426897 3.05950052 28 2 C25.92737924 1.91232888 23.85179706 1.89304127 21.77734375 1.90234375 C19.88725586 1.90717773 19.88725586 1.90717773 17.95898438 1.91210938 C16.61848891 1.92046597 15.27799412 1.92893093 13.9375 1.9375 C12.59310058 1.9425134 11.2486994 1.94707658 9.90429688 1.95117188 C6.60282059 1.96300512 3.30143197 1.97949029 0 2 C0 1.34 0 0.68 0 0 Z " fill="#DF863C" transform="translate(282,407)"/>
<path d="M0 0 C12.54 0 25.08 0 38 0 C38 9.9 38 19.8 38 30 C37.34 30 36.68 30 36 30 C35.67 20.76 35.34 11.52 35 2 C32.03 1.67 29.06 1.34 26 1 C25.67 1.66 25.34 2.32 25 3 C25 2.34 25 1.68 25 1 C16.75 1 8.5 1 0 1 C0 0.67 0 0.34 0 0 Z " fill="#3A0D00" transform="translate(87,470)"/>
<path d="M0 0 C0.33 0 0.66 0 1 0 C1.02505615 0.84296631 1.0501123 1.68593262 1.07592773 2.55444336 C1.17088155 5.67241674 1.27012448 8.79021503 1.37231445 11.90795898 C1.41571223 13.25914147 1.4573837 14.61038053 1.49731445 15.96166992 C1.55489952 17.90036701 1.61914298 19.83886276 1.68359375 21.77734375 C1.72025146 22.94515381 1.75690918 24.11296387 1.79467773 25.31616211 C1.70076188 27.91779795 1.70076188 27.91779795 3 29 C5.14386657 29.15858842 7.29266838 29.25129298 9.44140625 29.31640625 C10.74658203 29.35830078 12.05175781 29.40019531 13.39648438 29.44335938 C14.7851533 29.48317608 16.17382522 29.52288825 17.5625 29.5625 C18.95509183 29.60567989 20.34767028 29.649294 21.74023438 29.69335938 C25.16004801 29.79985876 28.57993763 29.90186923 32 30 C32 30.66 32 31.32 32 32 C21.44 32 10.88 32 0 32 C0 21.44 0 10.88 0 0 Z " fill="#DD8032" transform="translate(125,375)"/>
<path d="M0 0 C10.23 0 20.46 0 31 0 C31 9.9 31 19.8 31 30 C30.34 30 29.68 30 29 30 C28.505 16.14 28.505 16.14 28 2 C26.35 2 24.7 2 23 2 C22.34 2.66 21.68 3.32 21 4 C21 3.01 21 2.02 21 1 C14.07 1 7.14 1 0 1 C0 0.67 0 0.34 0 0 Z " fill="#460F00" transform="translate(220,470)"/>
<path d="M0 0 C10.23 0 20.46 0 31 0 C31 0.66 31 1.32 31 2 C21.43 2 11.86 2 2 2 C1.67 11.57 1.34 21.14 1 31 C0.67 31 0.34 31 0 31 C0 20.77 0 10.54 0 0 Z " fill="#D27D36" transform="translate(157,281)"/>
<path d="M0 0 C1.25159912 0.00523682 2.50319824 0.01047363 3.79272461 0.01586914 C4.78942421 0.01799156 4.78942421 0.01799156 5.80625916 0.02015686 C7.93590735 0.02577021 10.06545175 0.03832485 12.19506836 0.05102539 C13.63582205 0.05603868 15.07657739 0.06060188 16.51733398 0.06469727 C20.05577938 0.07574394 23.59416375 0.09301747 27.13256836 0.11352539 C27.13256836 0.77352539 27.13256836 1.43352539 27.13256836 2.11352539 C17.56256836 2.11352539 7.99256836 2.11352539 -1.86743164 2.11352539 C-2.19743164 11.68352539 -2.52743164 21.25352539 -2.86743164 31.11352539 C-3.19743164 31.11352539 -3.52743164 31.11352539 -3.86743164 31.11352539 C-3.89208786 26.85937916 -3.91027063 22.60527041 -3.92236328 18.35107422 C-3.92740265 16.90282467 -3.93423417 15.45458022 -3.94287109 14.00634766 C-3.95495411 11.92877951 -3.96066375 9.85127842 -3.96508789 7.77368164 C-3.97032471 6.52208252 -3.97556152 5.2704834 -3.98095703 3.98095703 C-3.8293481 0.15160893 -3.8293481 0.15160893 0 0 Z " fill="#AD6E48" transform="translate(410.867431640625,217.886474609375)"/>
<path d="M0 0 C0.33 0 0.66 0 1 0 C1 10.23 1 20.46 1 31 C-9.23 31 -19.46 31 -30 31 C-30 30.67 -30 30.34 -30 30 C-20.43 30 -10.86 30 -1 30 C-1.495 27.525 -1.495 27.525 -2 25 C-2.0257985 23.18355108 -1.99407677 21.36565038 -1.9140625 19.55078125 C-1.87023437 18.53822266 -1.82640625 17.52566406 -1.78125 16.48242188 C-1.7296875 15.43634766 -1.678125 14.39027344 -1.625 13.3125 C-1.58117187 12.25482422 -1.53734375 11.19714844 -1.4921875 10.10742188 C-1.13127309 2.26254618 -1.13127309 2.26254618 0 0 Z " fill="#3E1100" transform="translate(30,407)"/>
<path d="M0 0 C0.33 0 0.66 0 1 0 C1.33 6.27 1.66 12.54 2 19 C15.86 19.495 15.86 19.495 30 20 C30 20.66 30 21.32 30 22 C20.1 22 10.2 22 0 22 C0 14.74 0 7.48 0 0 Z " fill="#E58535" transform="translate(189,353)"/>
<path d="M0 0 C2.64 0 5.28 0 8 0 C8 10.23 8 20.46 8 31 C-2.23 31 -12.46 31 -23 31 C-23 30.67 -23 30.34 -23 30 C-14.09 29.67 -5.18 29.34 4 29 C5.68784823 24.78037943 6.26981441 22.78386998 6.4140625 18.48046875 C6.45273437 17.45888672 6.49140625 16.43730469 6.53125 15.38476562 C6.5621875 14.32966797 6.593125 13.27457031 6.625 12.1875 C6.66367187 11.11306641 6.70234375 10.03863281 6.7421875 8.93164062 C6.83618613 6.28792912 6.92184573 3.6442195 7 1 C5.02 1.33 3.04 1.66 1 2 C0.67 1.34 0.34 0.68 0 0 Z " fill="#AB521F" transform="translate(23,313)"/>
<path d="M0 0 C0.33 0 0.66 0 1 0 C1 1.65 1 3.3 1 5 C10.9 5 20.8 5 31 5 C31 5.66 31 6.32 31 7 C20.44 7 9.88 7 -1 7 C-0.67 4.69 -0.34 2.38 0 0 Z " fill="#DAAF84" transform="translate(439,87)"/>
<path d="M0 0 C9.9 0 19.8 0 30 0 C30 0.33 30 0.66 30 1 C21.42 1 12.84 1 4 1 C2.20350723 6.21001512 2.20350723 6.21001512 1.5859375 11.3046875 C1.54726563 12.05234375 1.50859375 12.8 1.46875 13.5703125 C1.4378125 14.33085937 1.406875 15.09140625 1.375 15.875 C1.33632813 16.65875 1.29765625 17.4425 1.2578125 18.25 C1.16433378 20.16631367 1.08111505 22.08312319 1 24 C0.67 24 0.34 24 0 24 C0 16.08 0 8.16 0 0 Z " fill="#3E2114" transform="translate(345,281)"/>
<path d="M0 0 C0.33 0 0.66 0 1 0 C1 10.23 1 20.46 1 31 C-7.25 31 -15.5 31 -24 31 C-24 30.67 -24 30.34 -24 30 C-23.44538086 29.98018066 -22.89076172 29.96036133 -22.31933594 29.93994141 C-19.79576307 29.84442349 -17.27298776 29.73485433 -14.75 29.625 C-13.87730469 29.5940625 -13.00460937 29.563125 -12.10546875 29.53125 C-10.83896484 29.47324219 -10.83896484 29.47324219 -9.546875 29.4140625 C-8.77182617 29.3826416 -7.99677734 29.3512207 -7.19824219 29.31884766 C-4.59348678 29.05857011 -4.59348678 29.05857011 -1 27 C-0.67 18.09 -0.34 9.18 0 0 Z " fill="#FE9F49" transform="translate(375,344)"/>
<path d="M0 0 C10.56 0 21.12 0 32 0 C32 1.65 32 3.3 32 5 C31.525625 4.484375 31.05125 3.96875 30.5625 3.4375 C26.69002384 1.26513533 23.24770076 2.24666846 19 3 C19 2.34 19 1.68 19 1 C9.595 1.495 9.595 1.495 0 2 C0 1.34 0 0.68 0 0 Z " fill="#EB8631" transform="translate(125,313)"/>
<path d="M0 0 C9.57 0 19.14 0 29 0 C29 0.33 29 0.66 29 1 C28.3702124 1.01981934 27.7404248 1.03963867 27.09155273 1.06005859 C24.2064864 1.15598897 21.3220777 1.2653897 18.4375 1.375 C16.9515332 1.42140625 16.9515332 1.42140625 15.43554688 1.46875 C9.95797477 1.68712497 5.1895346 2.20950139 0 4 C0 2.68 0 1.36 0 0 Z " fill="#3A0F00" transform="translate(471,407)"/>
</svg>
