<?xml version="1.0" encoding="UTF-8"?>
<svg version="1.1" xmlns="http://www.w3.org/2000/svg" width="500" height="500">
<path d="M0 0 C21.12 0 42.24 0 64 0 C64 9.9 64 19.8 64 30 C66.22621094 29.98839844 68.45242187 29.97679688 70.74609375 29.96484375 C72.89396014 29.95705278 75.04182497 29.95097625 77.18969727 29.94506836 C78.68644918 29.94002879 80.18319616 29.93319713 81.67993164 29.92456055 C83.82699807 29.91247841 85.97399962 29.90676809 88.12109375 29.90234375 C90.06133423 29.89448853 90.06133423 29.89448853 92.04077148 29.88647461 C95 30 95 30 96 31 C96.09396057 32.93306498 96.11743517 34.86958838 96.11352539 36.80493164 C96.11344986 38.04614273 96.11337433 39.28735382 96.11329651 40.56617737 C96.10818911 41.9308374 96.1029731 43.29549702 96.09765625 44.66015625 C96.095792 46.04878183 96.09436813 47.43740807 96.09336853 48.82603455 C96.08954387 52.48721115 96.07971403 56.1483483 96.06866455 59.80950928 C96.05844932 63.54292253 96.05381597 67.27634233 96.04882812 71.00976562 C96.0386219 78.33987863 96.01905026 85.6698832 96 93 C105.9 93 115.8 93 126 93 C126 82.77 126 72.54 126 62 C136.0300203 59.49249493 146.66129172 61 157 61 C157 40.87 157 20.74 157 0 C167.56 0 178.12 0 189 0 C189 20.46 189 40.92 189 62 C193.95 61.505 193.95 61.505 199 61 C200.84392137 60.92169872 202.68957486 60.86972289 204.53515625 60.8671875 C205.44587891 60.86589844 206.35660156 60.86460938 207.29492188 60.86328125 C208.66487305 60.86908203 208.66487305 60.86908203 210.0625 60.875 C211.01060547 60.87113281 211.95871094 60.86726563 212.93554688 60.86328125 C213.83466797 60.86457031 214.73378906 60.86585937 215.66015625 60.8671875 C216.87650757 60.86887939 216.87650757 60.86887939 218.11743164 60.87060547 C220 61 220 61 221 62 C221 72.23 221 82.46 221 93 C241.46 93 261.92 93 283 93 C283 103.56 283 114.12 283 125 C293.56 125 304.12 125 315 125 C315.33 145.46 315.66 165.92 316 187 C325.57 187 335.14 187 345 187 C346 188 346 188 346.12025452 190.47401428 C346.11803391 191.57321701 346.11581329 192.67241974 346.11352539 193.80493164 C346.11344986 195.04614273 346.11337433 196.28735382 346.11329651 197.56617737 C346.10818911 198.9308374 346.1029731 200.29549702 346.09765625 201.66015625 C346.095792 203.04878183 346.09436813 204.43740807 346.09336853 205.82603455 C346.08954387 209.48721115 346.07971403 213.1483483 346.06866455 216.80950928 C346.05844932 220.54292253 346.05381597 224.27634233 346.04882812 228.00976562 C346.0386219 235.33987863 346.01905026 242.6698832 346 250 C356.56 250 367.12 250 378 250 C378 301.81 378 353.62 378 407 C380.31 406.67 382.62 406.34 385 406 C392.26 406 399.52 406 407 406 C407 437.02 407 468.04 407 500 C397.1 500 387.2 500 377 500 C377 490.43 377 480.86 377 471 C356.54 471 336.08 471 315 471 C315 480.57 315 490.14 315 500 C221.61 500 128.22 500 32 500 C32 490.43 32 480.86 32 471 C11.54 471 -8.92 471 -30 471 C-30 480.57 -30 490.14 -30 500 C-50.79 500 -71.58 500 -93 500 C-93 468.98 -93 437.96 -93 406 C-81.553125 405.9690625 -81.553125 405.9690625 -69.875 405.9375 C-66.30727783 405.92384399 -66.30727783 405.92384399 -62.66748047 405.90991211 C-60.73405005 405.90698531 -58.800619 405.90443857 -56.8671875 405.90234375 C-55.90240479 405.89722778 -54.93762207 405.89211182 -53.94360352 405.88684082 C-46.2083675 405.88587992 -38.77447448 406.44468039 -31 407 C-31 355.19 -31 303.38 -31 250 C-20.77 250 -10.54 250 0 250 C0 229.87 0 209.74 0 189 C-20.46 189 -40.92 189 -62 189 C-62 178.44 -62 167.88 -62 157 C-72.23 157 -82.46 157 -93 157 C-93 135.88 -93 114.76 -93 93 C-72.54 93 -52.08 93 -31 93 C-31 82.77 -31 72.54 -31 62 C-21.19184013 58.73061338 -10.33870828 61 0 61 C0 40.87 0 20.74 0 0 Z " fill="#EA3F3B" transform="translate(93,0)"/>
<path d="M0 0 C21.12 0 42.24 0 64 0 C64 9.9 64 19.8 64 30 C66.22621094 29.98839844 68.45242187 29.97679688 70.74609375 29.96484375 C72.89396014 29.95705278 75.04182497 29.95097625 77.18969727 29.94506836 C78.68644918 29.94002879 80.18319616 29.93319713 81.67993164 29.92456055 C83.82699807 29.91247841 85.97399962 29.90676809 88.12109375 29.90234375 C90.06133423 29.89448853 90.06133423 29.89448853 92.04077148 29.88647461 C95 30 95 30 96 31 C96.09396057 32.93306498 96.11743517 34.86958838 96.11352539 36.80493164 C96.11344986 38.04614273 96.11337433 39.28735382 96.11329651 40.56617737 C96.10818911 41.9308374 96.1029731 43.29549702 96.09765625 44.66015625 C96.095792 46.04878183 96.09436813 47.43740807 96.09336853 48.82603455 C96.08954387 52.48721115 96.07971403 56.1483483 96.06866455 59.80950928 C96.05844932 63.54292253 96.05381597 67.27634233 96.04882812 71.00976562 C96.0386219 78.33987863 96.01905026 85.6698832 96 93 C105.9 93 115.8 93 126 93 C126 82.77 126 72.54 126 62 C136.0300203 59.49249493 146.66129172 61 157 61 C157 40.87 157 20.74 157 0 C167.56 0 178.12 0 189 0 C189 20.46 189 40.92 189 62 C193.95 61.505 193.95 61.505 199 61 C200.84392137 60.92169872 202.68957486 60.86972289 204.53515625 60.8671875 C205.44587891 60.86589844 206.35660156 60.86460938 207.29492188 60.86328125 C208.66487305 60.86908203 208.66487305 60.86908203 210.0625 60.875 C211.01060547 60.87113281 211.95871094 60.86726563 212.93554688 60.86328125 C213.83466797 60.86457031 214.73378906 60.86585937 215.66015625 60.8671875 C216.87650757 60.86887939 216.87650757 60.86887939 218.11743164 60.87060547 C220 61 220 61 221 62 C221 72.23 221 82.46 221 93 C241.46 93 261.92 93 283 93 C283 103.56 283 114.12 283 125 C293.23 125 303.46 125 314 125 C314 145.46 314 165.92 314 187 C298.16 187.495 298.16 187.495 282 188 C282 177.77 282 167.54 282 157 C271.77 157 261.54 157 251 157 C251 146.44 251 135.88 251 125 C199.52 125 148.04 125 95 125 C95 135.56 95 146.12 95 157 C84.77 157 74.54 157 64 157 C64 167.23 64 177.46 64 188 C53.44 188 42.88 188 32 188 C32 219.02 32 250.04 32 282 C42.56 282 53.12 282 64 282 C64 292.23 64 302.46 64 313 C43.21 313 22.42 313 1 313 C1 333.46 1 353.92 1 375 C11.23 375 21.46 375 32 375 C32 396.12 32 417.24 32 439 C42.56 439 53.12 439 64 439 C64 449.23 64 459.46 64 470 C136.27 470 208.54 470 283 470 C283 449.21 283 428.42 283 407 C293.23 407 303.46 407 314 407 C314 396.77 314 386.54 314 376 C324.56 376 335.12 376 346 376 C346 355.21 346 334.42 346 313 C325.21 313 304.42 313 283 313 C283 302.77 283 292.54 283 282 C293.56 282 304.12 282 315 282 C315 250.98 315 219.96 315 188 C340 187 340 187 345 187 C346 188 346 188 346.12025452 190.47401428 C346.11803391 191.57321701 346.11581329 192.67241974 346.11352539 193.80493164 C346.11344986 195.04614273 346.11337433 196.28735382 346.11329651 197.56617737 C346.10818911 198.9308374 346.1029731 200.29549702 346.09765625 201.66015625 C346.095792 203.04878183 346.09436813 204.43740807 346.09336853 205.82603455 C346.08954387 209.48721115 346.07971403 213.1483483 346.06866455 216.80950928 C346.05844932 220.54292253 346.05381597 224.27634233 346.04882812 228.00976562 C346.0386219 235.33987863 346.01905026 242.6698832 346 250 C356.56 250 367.12 250 378 250 C378 301.81 378 353.62 378 407 C380.31 406.67 382.62 406.34 385 406 C392.26 406 399.52 406 407 406 C407 437.02 407 468.04 407 500 C397.1 500 387.2 500 377 500 C377 490.43 377 480.86 377 471 C356.54 471 336.08 471 315 471 C315 480.57 315 490.14 315 500 C221.61 500 128.22 500 32 500 C32 490.43 32 480.86 32 471 C11.54 471 -8.92 471 -30 471 C-30 480.57 -30 490.14 -30 500 C-50.79 500 -71.58 500 -93 500 C-93 468.98 -93 437.96 -93 406 C-81.553125 405.9690625 -81.553125 405.9690625 -69.875 405.9375 C-66.30727783 405.92384399 -66.30727783 405.92384399 -62.66748047 405.90991211 C-60.73405005 405.90698531 -58.800619 405.90443857 -56.8671875 405.90234375 C-55.90240479 405.89722778 -54.93762207 405.89211182 -53.94360352 405.88684082 C-46.2083675 405.88587992 -38.77447448 406.44468039 -31 407 C-31 355.19 -31 303.38 -31 250 C-20.77 250 -10.54 250 0 250 C0 229.87 0 209.74 0 189 C-20.46 189 -40.92 189 -62 189 C-62 178.44 -62 167.88 -62 157 C-72.23 157 -82.46 157 -93 157 C-93 135.88 -93 114.76 -93 93 C-72.54 93 -52.08 93 -31 93 C-31 82.77 -31 72.54 -31 62 C-21.19184013 58.73061338 -10.33870828 61 0 61 C0 40.87 0 20.74 0 0 Z " fill="#3F0104" transform="translate(93,0)"/>
<path d="M0 0 C31.02 0 62.04 0 94 0 C94 10.23 94 20.46 94 31 C104.23 31 114.46 31 125 31 C125 41.23 125 51.46 125 62 C156.02 62 187.04 62 219 62 C219 51.77 219 41.54 219 31 C229.23 31 239.46 31 250 31 C250 20.77 250 10.54 250 0 C281.35 0 312.7 0 345 0 C345 20.79 345 41.58 345 63 C334.44 63 323.88 63 313 63 C313 73.23 313 83.46 313 94 C302.77 94 292.54 94 282 94 C282 114.79 282 135.58 282 157 C209.73 157 137.46 157 63 157 C63 146.77 63 136.54 63 126 C52.44 126 41.88 126 31 126 C31 104.88 31 83.76 31 62 C20.77 62 10.54 62 0 62 C0 41.54 0 21.08 0 0 Z " fill="#FD6862" transform="translate(94,313)"/>
<path d="M0 0 C51.48 0 102.96 0 156 0 C156 20.79 156 41.58 156 63 C145.77 63 135.54 63 125 63 C125 73.23 125 83.46 125 94 C114.77 94 104.54 94 94 94 C94 104.23 94 114.46 94 125 C83.77 125 73.54 125 63 125 C63 114.77 63 104.54 63 94 C52.77 94 42.54 94 32 94 C32 83.77 32 73.54 32 63 C21.44 63 10.88 63 0 63 C0 42.21 0 21.42 0 0 Z " fill="#FE6862" transform="translate(188,125)"/>
<path d="M0 0 C10.56 0 21.12 0 32 0 C32 20.46 32 40.92 32 62 C36.95 61.505 36.95 61.505 42 61 C43.84392137 60.92169872 45.68957486 60.86972289 47.53515625 60.8671875 C48.44587891 60.86589844 49.35660156 60.86460938 50.29492188 60.86328125 C51.66487305 60.86908203 51.66487305 60.86908203 53.0625 60.875 C54.01060547 60.87113281 54.95871094 60.86726563 55.93554688 60.86328125 C56.83466797 60.86457031 57.73378906 60.86585937 58.66015625 60.8671875 C59.87650757 60.86887939 59.87650757 60.86887939 61.11743164 60.87060547 C63 61 63 61 64 62 C64 72.23 64 82.46 64 93 C84.46 93 104.92 93 126 93 C126 103.56 126 114.12 126 125 C136.23 125 146.46 125 157 125 C157 145.46 157 165.92 157 187 C141.16 187.495 141.16 187.495 125 188 C125 177.77 125 167.54 125 157 C114.77 157 104.54 157 94 157 C94 146.44 94 135.88 94 125 C52.75 125 11.5 125 -31 125 C-31 114.77 -31 104.54 -31 94 C-40.9 94 -50.8 94 -61 94 C-61 93.67 -61 93.34 -61 93 C-51.1 93 -41.2 93 -31 93 C-31 82.77 -31 72.54 -31 62 C-20.9699797 59.49249493 -10.33870828 61 0 61 C0 40.87 0 20.74 0 0 Z " fill="#E93F3B" transform="translate(250,0)"/>
<path d="M0 0 C0 20.79 0 41.58 0 63 C9.9 63 19.8 63 30 63 C30 73.23 30 83.46 30 94 C19.77 94 9.54 94 -1 94 C-1 104.56 -1 115.12 -1 126 C-11.23 126 -21.46 126 -32 126 C-32 136.23 -32 146.46 -32 157 C-42.56 157 -53.12 157 -64 157 C-64 177.46 -64 197.92 -64 219 C-74.23 219 -84.46 219 -95 219 C-95 198.54 -95 178.08 -95 157 C-115.46 157 -135.92 157 -157 157 C-157 147.1 -157 137.2 -157 127 C-147.87505903 126.82955414 -138.7501038 126.66131765 -129.625 126.5 C-128.61752024 126.48218412 -128.61752024 126.48218412 -127.58968735 126.46400833 C-106.38949603 126.09092012 -85.20413894 125.90045005 -64 126 C-64 115.44 -64 104.88 -64 94 C-53.44 94 -42.88 94 -32 94 C-32 62.98 -32 31.96 -32 0 C-5 -1 -5 -1 0 0 Z " fill="#3E0003" transform="translate(189,31)"/>
<path d="M0 0 C1 1 1 1 1.12025452 3.47401428 C1.11803391 4.57321701 1.11581329 5.67241974 1.11352539 6.80493164 C1.11344986 8.04614273 1.11337433 9.28735382 1.11329651 10.56617737 C1.10818911 11.9308374 1.1029731 13.29549702 1.09765625 14.66015625 C1.095792 16.04878183 1.09436813 17.43740807 1.09336853 18.82603455 C1.08954387 22.48721115 1.07971403 26.1483483 1.06866455 29.80950928 C1.05844932 33.54292253 1.05381597 37.27634233 1.04882812 41.00976562 C1.0386219 48.33987863 1.01905026 55.6698832 1 63 C11.23 63 21.46 63 32 63 C32 114.81 32 166.62 32 220 C21.77 220 11.54 220 1 220 C1 188.98 1 157.96 1 126 C-19.79 126 -40.58 126 -62 126 C-62 115.77 -62 105.54 -62 95 C-51.44 95 -40.88 95 -30 95 C-30 63.98 -30 32.96 -30 1 C-7.70057899 -0.39371381 -7.70057899 -0.39371381 0 0 Z " fill="#3E0003" transform="translate(438,187)"/>
<path d="M0 0 C0.33 0 0.66 0 1 0 C1 51.81 1 103.62 1 157 C3.31 156.67 5.62 156.34 8 156 C15.26 156 22.52 156 30 156 C30 187.02 30 218.04 30 250 C20.1 250 10.2 250 0 250 C0 240.43 0 230.86 0 221 C-20.46 221 -40.92 221 -62 221 C-62 230.57 -62 240.14 -62 250 C-62.33 250 -62.66 250 -63 250 C-63 229.87 -63 209.74 -63 189 C-73.23 189 -83.46 189 -94 189 C-94 178.44 -94 167.88 -94 157 C-83.77 157 -73.54 157 -63 157 C-63 146.77 -63 136.54 -63 126 C-52.44 126 -41.88 126 -31 126 C-31 136.23 -31 146.46 -31 157 C-20.77 157 -10.54 157 0 157 C0 105.19 0 53.38 0 0 Z " fill="#FA6863" transform="translate(470,250)"/>
<path d="M0 0 C1.32 0.33 2.64 0.66 4 1 C3.01 1 2.02 1 1 1 C1 52.48 1 103.96 1 157 C10.9 157 20.8 157 31 157 C32 158 32 158 32.11352539 160.95922852 C32.10567017 162.89946899 32.10567017 162.89946899 32.09765625 164.87890625 C32.09515869 166.13517822 32.09266113 167.3914502 32.09008789 168.68579102 C32.08098389 170.29510498 32.07187988 171.90441895 32.0625 173.5625 C32.041875 178.656875 32.02125 183.75125 32 189 C21.77 189 11.54 189 1 189 C1 199.23 1 209.46 1 220 C21.46 220 41.92 220 63 220 C63 220.33 63 220.66 63 221 C42.54 221 22.08 221 1 221 C1 230.57 1 240.14 1 250 C-19.79 250 -40.58 250 -62 250 C-62 218.98 -62 187.96 -62 156 C-50.553125 155.9690625 -50.553125 155.9690625 -38.875 155.9375 C-35.30727783 155.92384399 -35.30727783 155.92384399 -31.66748047 155.90991211 C-29.73405005 155.90698531 -27.800619 155.90443857 -25.8671875 155.90234375 C-24.42001343 155.8946698 -24.42001343 155.8946698 -22.94360352 155.88684082 C-15.2083675 155.88587992 -7.77447448 156.44468039 0 157 C0 105.19 0 53.38 0 0 Z " fill="#E7403C" transform="translate(62,250)"/>
<path d="M0 0 C0.33 0 0.66 0 1 0 C1.21699008 8.54106732 1.39982651 17.08273222 1.5625 25.625 C1.5815999 26.62670164 1.5815999 26.62670164 1.60108566 27.64863968 C2.13824704 56.4160471 1.90726097 85.16879019 1.5625 113.9375 C1.54327925 115.5426585 1.54327925 115.5426585 1.5236702 117.18024445 C1.3634134 130.45371827 1.18368267 143.7268074 1 157 C-20.12 157 -41.24 157 -63 157 C-63 136.21 -63 115.42 -63 94 C-52.77 94 -42.54 94 -32 94 C-32.03959822 83.84286908 -32.03959822 83.84286908 -32.09008789 73.68579102 C-32.09258545 72.42951904 -32.09508301 71.17324707 -32.09765625 69.87890625 C-32.10551147 67.93866577 -32.10551147 67.93866577 -32.11352539 65.95922852 C-32 63 -32 63 -31 62 C-20.77 62 -10.54 62 0 62 C0 41.54 0 21.08 0 0 Z " fill="#FC6963" transform="translate(407,125)"/>
<path d="M0 0 C1.16082596 0.00007553 2.32165192 0.00015106 3.51765442 0.00022888 C4.76052719 0.00539017 6.00339996 0.01055145 7.28393555 0.01586914 C8.56423141 0.01728409 9.84452728 0.01869904 11.16362 0.02015686 C14.55512469 0.02396142 17.94658606 0.03377396 21.33807373 0.04486084 C24.80374556 0.05511942 28.26942465 0.0597189 31.73510742 0.06469727 C38.52616122 0.07486656 45.31709628 0.09444343 52.1081543 0.11352539 C52.1081543 10.67352539 52.1081543 21.23352539 52.1081543 32.11352539 C62.3381543 32.11352539 72.5681543 32.11352539 83.1081543 32.11352539 C83.1081543 52.57352539 83.1081543 73.03352539 83.1081543 94.11352539 C67.2681543 94.60852539 67.2681543 94.60852539 51.1081543 95.11352539 C51.1081543 84.88352539 51.1081543 74.65352539 51.1081543 64.11352539 C40.8781543 64.11352539 30.6481543 64.11352539 20.1081543 64.11352539 C20.1081543 53.55352539 20.1081543 42.99352539 20.1081543 32.11352539 C9.8781543 32.11352539 -0.3518457 32.11352539 -10.8918457 32.11352539 C-10.8918457 21.88352539 -10.8918457 11.65352539 -10.8918457 1.11352539 C-6.95662944 0.32648214 -3.93863872 -0.00858091 0 0 Z " fill="#410204" transform="translate(323.891845703125,92.886474609375)"/>
<path d="M0 0 C10.56 0 21.12 0 32 0 C32 10.23 32 20.46 32 31 C42.23 31 52.46 31 63 31 C63 51.79 63 72.58 63 94 C42.21 94 21.42 94 0 94 C0 62.98 0 31.96 0 0 Z " fill="#FD6963" transform="translate(125,188)"/>
<path d="M0 0 C0 20.79 0 41.58 0 63 C9.9 63 19.8 63 30 63 C30 73.23 30 83.46 30 94 C19.77 94 9.54 94 -1 94 C-1 104.56 -1 115.12 -1 126 C-11.23 126 -21.46 126 -32 126 C-32 84.42 -32 42.84 -32 0 C-5 -1 -5 -1 0 0 Z " fill="#3D0003" transform="translate(189,31)"/>
<path d="M0 0 C0.96035156 -0.00128906 1.92070313 -0.00257813 2.91015625 -0.00390625 C3.91175781 -0.00003906 4.91335937 0.00382813 5.9453125 0.0078125 C7.43611328 0.00201172 7.43611328 0.00201172 8.95703125 -0.00390625 C9.91996094 -0.00261719 10.88289063 -0.00132812 11.875 0 C13.18960205 0.00169189 13.18960205 0.00169189 14.53076172 0.00341797 C17.13240557 0.13597625 19.52485926 0.59800156 22.0703125 1.1328125 C22.20233294 16.74772831 22.33277664 32.3626565 22.46146393 47.9776001 C22.52128278 55.2318177 22.58157188 62.48603077 22.64306641 69.74023438 C22.69681447 76.08077952 22.7495802 82.42133204 22.80127954 88.76189423 C22.8285533 92.102988 22.85638848 95.44407449 22.88511658 98.78515625 C23.05192529 118.23544094 23.08916032 137.68186392 23.0703125 157.1328125 C12.8403125 157.1328125 2.6103125 157.1328125 -7.9296875 157.1328125 C-7.9296875 105.6528125 -7.9296875 54.1728125 -7.9296875 1.1328125 C-4.98917442 0.15264147 -3.06406813 0.00395364 0 0 Z " fill="#3E0003" transform="translate(70.9296875,249.8671875)"/>
<path d="M0 0 C20.46 0 40.92 0 62 0 C62 9.9 62 19.8 62 30 C93.02 30 124.04 30 156 30 C156 20.1 156 10.2 156 0 C176.79 0 197.58 0 219 0 C219 10.23 219 20.46 219 31 C146.73 31 74.46 31 0 31 C0 20.77 0 10.54 0 0 Z " fill="#E83F3B" transform="translate(157,439)"/>
<path d="M0 0 C20.79 0 41.58 0 63 0 C63 20.46 63 40.92 63 62 C73.23 62 83.46 62 94 62 C94 72.56 94 83.12 94 94 C104.56 94 115.12 94 126 94 C126 104.23 126 114.46 126 125 C105.21 125 84.42 125 63 125 C63 145.46 63 165.92 63 187 C62.67 187 62.34 187 62 187 C62 146.08 62 105.16 62 63 C60.35 63 58.7 63 57 63 C57 62.67 57 62.34 57 62 C58.65 62 60.3 62 62 62 C62 41.87 62 21.74 62 1 C41.54 1 21.08 1 0 1 C0 0.67 0 0.34 0 0 Z " fill="#B70000" transform="translate(31,188)"/>
<path d="M0 0 C1.10091476 0.00007553 2.20182953 0.00015106 3.33610535 0.00022888 C4.52367935 0.00539017 5.71125336 0.01055145 6.93481445 0.01586914 C8.15135208 0.01728409 9.36788971 0.01869904 10.62129211 0.02015686 C14.51358481 0.02576227 18.40582035 0.03831572 22.2980957 0.05102539 C24.93416258 0.05603969 27.57023036 0.06060272 30.20629883 0.06469727 C36.67441734 0.07573346 43.14250244 0.09247689 49.6105957 0.11352539 C49.6105957 0.44352539 49.6105957 0.77352539 49.6105957 1.11352539 C41.0305957 1.11352539 32.4505957 1.11352539 23.6105957 1.11352539 C23.6105957 32.13352539 23.6105957 63.15352539 23.6105957 95.11352539 C13.0505957 95.11352539 2.4905957 95.11352539 -8.3894043 95.11352539 C-8.3894043 64.09352539 -8.3894043 33.07352539 -8.3894043 1.11352539 C-5.31102635 0.08739941 -3.22366134 -0.0073768 0 0 Z " fill="#B80000" transform="translate(133.389404296875,29.886474609375)"/>
<path d="M0 0 C31.02 0 62.04 0 94 0 C94 10.56 94 21.12 94 32 C81.89157724 32.02254957 69.78316831 32.04091424 57.67472935 32.05181217 C52.05292038 32.05704136 46.43112647 32.06413966 40.80932617 32.07543945 C35.38881723 32.08626706 29.9683228 32.09227656 24.54780388 32.09487724 C22.47485055 32.09673172 20.40189806 32.10035277 18.32895088 32.10573006 C15.43616107 32.1129388 12.54343204 32.11399101 9.65063477 32.11352539 C8.78461136 32.11712067 7.91858795 32.12071594 7.02632141 32.12442017 C1.11405216 32.11405216 1.11405216 32.11405216 0 31 C0 20.77 0 10.54 0 0 Z " fill="#B70000" transform="translate(31,125)"/>
<path d="M0 0 C9.9 0 19.8 0 30 0 C30 20.46 30 40.92 30 62 C9.54 62 -10.92 62 -32 62 C-32 51.77 -32 41.54 -32 31 C-21.44 31 -10.88 31 0 31 C0 20.77 0 10.54 0 0 Z " fill="#B70101" transform="translate(408,251)"/>
<path d="M0 0 C10.56 0 21.12 0 32 0 C32 20.46 32 40.92 32 62 C21.44 62 10.88 62 0 62 C0 41.54 0 21.08 0 0 Z " fill="#FEFCFC" transform="translate(125,188)"/>
<path d="M0 0 C10.23 0 20.46 0 31 0 C31 20.79 31 41.58 31 63 C20.77 63 10.54 63 0 63 C-0.88278309 41.81320574 -0.84727398 21.18184943 0 0 Z " fill="#B70101" transform="translate(94,375)"/>
<path d="M0 0 C0 10.56 0 21.12 0 32 C-20.46 32 -40.92 32 -62 32 C-62 21.77 -62 11.54 -62 1 C-41.29037884 0.23651166 -20.72345826 -0.09549981 0 0 Z " fill="#3E0003" transform="translate(125,438)"/>
<path d="M0 0 C6.78104796 -0.02293477 13.56196176 -0.04285453 20.34301758 -0.05493164 C22.6506394 -0.05996551 24.95825803 -0.06679305 27.26586914 -0.07543945 C30.57959786 -0.08754635 33.89328448 -0.09323773 37.20703125 -0.09765625 C38.2414888 -0.10281754 39.27594635 -0.10797882 40.3417511 -0.11329651 C41.3025206 -0.11337204 42.2632901 -0.11344757 43.25317383 -0.11352539 C44.09922684 -0.115746 44.94527985 -0.11796661 45.81697083 -0.12025452 C48 0 48 0 51 1 C56.445 1.495 56.445 1.495 62 2 C62 11.9 62 21.8 62 32 C41.54 32 21.08 32 0 32 C0 21.44 0 10.88 0 0 Z " fill="#400205" transform="translate(0,406)"/>
<path d="M0 0 C20.46 0 40.92 0 62 0 C62 10.23 62 20.46 62 31 C41.54 31 21.08 31 0 31 C0 20.77 0 10.54 0 0 Z " fill="#3F0003" transform="translate(408,439)"/>
<path d="M0 0 C10.23 0 20.46 0 31 0 C31 20.46 31 40.92 31 62 C20.77 62 10.54 62 0 62 C0 41.54 0 21.08 0 0 Z " fill="#FEFDFD" transform="translate(376,188)"/>
<path d="M0 0 C10.23 0 20.46 0 31 0 C31 20.46 31 40.92 31 62 C20.77 62 10.54 62 0 62 C0 41.54 0 21.08 0 0 Z " fill="#3E0003" transform="translate(376,125)"/>
<path d="M0 0 C10.23 0 20.46 0 31 0 C31 20.46 31 40.92 31 62 C20.77 62 10.54 62 0 62 C0 41.54 0 21.08 0 0 Z " fill="#3E0103" transform="translate(251,0)"/>
<path d="M0 0 C20.46 0 40.92 0 62 0 C62 9.9 62 19.8 62 30 C41.54 30 21.08 30 0 30 C0 20.1 0 10.2 0 0 Z " fill="#3E0003" transform="translate(0,470)"/>
<path d="M0 0 C9.9 0 19.8 0 30 0 C30 20.46 30 40.92 30 62 C20.1 62 10.2 62 0 62 C0 41.54 0 21.08 0 0 Z " fill="#B70000" transform="translate(408,376)"/>
<path d="M0 0 C0 10.23 0 20.46 0 31 C-20.13 31 -40.26 31 -61 31 C-61 21.1 -61 11.2 -61 1 C-55.31330078 1.01740234 -55.31330078 1.01740234 -49.51171875 1.03515625 C-45.848064 1.04295052 -42.18441017 1.04902518 -38.52075195 1.05493164 C-35.97061755 1.05996662 -33.42048605 1.06679496 -30.87036133 1.07543945 C-27.20913988 1.08754149 -23.54795652 1.09323661 -19.88671875 1.09765625 C-18.7428923 1.10281754 -17.59906586 1.10797882 -16.420578 1.11329651 C-14.82926811 1.11340981 -14.82926811 1.11340981 -13.20581055 1.11352539 C-11.80349434 1.11685631 -11.80349434 1.11685631 -10.37284851 1.12025452 C-6.6487681 0.93152039 -3.91307808 0 0 0 Z " fill="#E93F3B" transform="translate(500,407)"/>
<path d="M0 0 C0.33 0 0.66 0 1 0 C1.21699008 8.54106732 1.39982651 17.08273222 1.5625 25.625 C1.57523327 26.29280109 1.58796654 26.96060219 1.60108566 27.64863968 C2.13824704 56.4160471 1.90726097 85.16879019 1.5625 113.9375 C1.54327925 115.5426585 1.54327925 115.5426585 1.5236702 117.18024445 C1.3634136 130.45370172 1.187316 143.7268986 1 157 C-9.56 157 -20.12 157 -31 157 C-31 146.77 -31 136.54 -31 126 C-20.77 126 -10.54 126 0 126 C0 105.21 0 84.42 0 63 C-10.23 63 -20.46 63 -31 63 C-31 62.67 -31 62.34 -31 62 C-20.77 62 -10.54 62 0 62 C0 41.54 0 21.08 0 0 Z " fill="#E63E3A" transform="translate(407,125)"/>
<path d="M0 0 C0 21.12 0 42.24 0 64 C-0.33 64 -0.66 64 -1 64 C-1 53.77 -1 43.54 -1 33 C-11.23 33 -21.46 33 -32 33 C-32 22.44 -32 11.88 -32 1 C-26.905625 0.835 -21.81125 0.67 -16.5625 0.5 C-14.95318604 0.44779297 -13.34387207 0.39558594 -11.68579102 0.34179688 C-10.42951904 0.30119141 -9.17324707 0.26058594 -7.87890625 0.21875 C-6.5854126 0.17685547 -5.29191895 0.13496094 -3.95922852 0.09179688 C-1 0 -1 0 0 0 Z " fill="#B50303" transform="translate(376,124)"/>
<path d="M0 0 C10.56 0 21.12 0 32 0 C32 10.56 32 21.12 32 32 C21.44 32 10.88 32 0 32 C0 21.44 0 10.88 0 0 Z " fill="#EA3E3B" transform="translate(125,407)"/>
<path d="M0 0 C10.56 0 21.12 0 32 0 C32 10.23 32 20.46 32 31 C21.44 31 10.88 31 0 31 C0 20.77 0 10.54 0 0 Z " fill="#B50101" transform="translate(125,439)"/>
<path d="M0 0 C10.56 0 21.12 0 32 0 C32 10.23 32 20.46 32 31 C21.44 31 10.88 31 0 31 C0 20.77 0 10.54 0 0 Z " fill="#3F0003" transform="translate(376,282)"/>
<path d="M0 0 C10.56 0 21.12 0 32 0 C32 10.23 32 20.46 32 31 C21.44 31 10.88 31 0 31 C0 20.77 0 10.54 0 0 Z " fill="#430002" transform="translate(125,282)"/>
<path d="M0 0 C10.56 0 21.12 0 32 0 C32 10.23 32 20.46 32 31 C21.44 31 10.88 31 0 31 C0 20.77 0 10.54 0 0 Z " fill="#E73F3B" transform="translate(125,251)"/>
<path d="M0 0 C10.23 0 20.46 0 31 0 C31 10.56 31 21.12 31 32 C20.77 32 10.54 32 0 32 C0 21.44 0 10.88 0 0 Z " fill="#EA3F3B" transform="translate(313,125)"/>
<path d="M0 0 C10.23 0 20.46 0 31 0 C31 10.56 31 21.12 31 32 C20.77 32 10.54 32 0 32 C0 21.44 0 10.88 0 0 Z " fill="#E93F3B" transform="translate(188,125)"/>
<path d="M0 0 C10.23 0 20.46 0 31 0 C31 10.56 31 21.12 31 32 C20.77 32 10.54 32 0 32 C0 21.44 0 10.88 0 0 Z " fill="#B50101" transform="translate(157,125)"/>
<path d="M0 0 C10.23 0 20.46 0 31 0 C31 10.56 31 21.12 31 32 C20.77 32 10.54 32 0 32 C0 21.44 0 10.88 0 0 Z " fill="#E73F3B" transform="translate(94,125)"/>
<path d="M0 0 C10.56 0 21.12 0 32 0 C32 10.23 32 20.46 32 31 C21.44 31 10.88 31 0 31 C0 20.77 0 10.54 0 0 Z " fill="#EB3E3B" transform="translate(125,94)"/>
<path d="M0 0 C10.23 0 20.46 0 31 0 C31 10.23 31 20.46 31 31 C20.77 31 10.54 31 0 31 C0 20.77 0 10.54 0 0 Z " fill="#B50000" transform="translate(376,439)"/>
<path d="M0 0 C10.23 0 20.46 0 31 0 C31 10.23 31 20.46 31 31 C20.77 31 10.54 31 0 31 C0 20.77 0 10.54 0 0 Z " fill="#EA3F3B" transform="translate(376,407)"/>
<path d="M0 0 C10.23 0 20.46 0 31 0 C31 10.23 31 20.46 31 31 C20.77 31 10.54 31 0 31 C0 20.77 0 10.54 0 0 Z " fill="#B70101" transform="translate(94,94)"/>
<path d="M0 0 C10.23 0 20.46 0 31 0 C31 9.9 31 19.8 31 30 C20.77 30 10.54 30 0 30 C0 20.1 0 10.2 0 0 Z " fill="#FC6963" transform="translate(31,439)"/>
<path d="M0 0 C10.23 0 20.46 0 31 0 C31 9.9 31 19.8 31 30 C20.77 30 10.54 30 0 30 C0 20.1 0 10.2 0 0 Z " fill="#E93F3B" transform="translate(63,408)"/>
<path d="M0 0 C10.23 0 20.46 0 31 0 C31 9.9 31 19.8 31 30 C20.77 30 10.54 30 0 30 C0 20.1 0 10.2 0 0 Z " fill="#B50101" transform="translate(251,63)"/>
<path d="M0 0 C0 10.23 0 20.46 0 31 C-9.9 31 -19.8 31 -30 31 C-30 21.43 -30 11.86 -30 2 C-18.6698942 -0.51780129 -11.78977914 -0.98248159 0 0 Z " fill="#400204" transform="translate(250,62)"/>
<path d="M0 0 C0 9.9 0 19.8 0 30 C-9.9 30 -19.8 30 -30 30 C-30 20.1 -30 10.2 -30 0 C-8.33333333 -1.66666667 -8.33333333 -1.66666667 0 0 Z " fill="#3E0003" transform="translate(313,63)"/>
<path d="M0 0 C9.9 0 19.8 0 30 0 C30 9.9 30 19.8 30 30 C20.1 30 10.2 30 0 30 C0 20.1 0 10.2 0 0 Z " fill="#3E0003" transform="translate(470,470)"/>
<path d="M0 0 C0 10.23 0 20.46 0 31 C-9.9 31 -19.8 31 -30 31 C-30 21.1 -30 11.2 -30 1 C-19.1875 1.0625 -19.1875 1.0625 -15.78979492 1.09008789 C-14.46105347 1.09383423 -14.46105347 1.09383423 -13.10546875 1.09765625 C-12.19949951 1.10289307 -11.29353027 1.10812988 -10.36010742 1.11352539 C-6.64379396 0.93476406 -3.90549605 0 0 0 Z " fill="#3F0002" transform="translate(500,407)"/>
<path d="M0 0 C0.33 0 0.66 0 1 0 C1 51.81 1 103.62 1 157 C3.31 156.67 5.62 156.34 8 156 C9.83083135 155.92614413 11.6638054 155.89150181 13.49609375 155.90234375 C14.46611328 155.90556641 15.43613281 155.90878906 16.43554688 155.91210938 C17.42619141 155.92048828 18.41683594 155.92886719 19.4375 155.9375 C20.45521484 155.94201172 21.47292969 155.94652344 22.52148438 155.95117188 C25.01438509 155.96287563 27.50716074 155.97927152 30 156 C30 156.33 30 156.66 30 157 C22.7526871 158.94367293 16.22249584 159.19720061 8.74609375 158.9765625 C7.60463394 158.95153656 6.46317413 158.92651062 5.28712463 158.90072632 C1.67025549 158.81908561 -1.94602114 158.72228061 -5.5625 158.625 C-8.02666914 158.5667033 -10.49086202 158.50940133 -12.95507812 158.453125 C-18.97051595 158.31544416 -24.98491486 158.15722935 -31 158 C-31 167.9 -31 177.8 -31 188 C-10.87 188 9.26 188 30 188 C30 188.33 30 188.66 30 189 C-0.36 189 -30.72 189 -62 189 C-62 199.23 -62 209.46 -62 220 C-41.54 220 -21.08 220 0 220 C0 220.33 0 220.66 0 221 C-20.46 221 -40.92 221 -62 221 C-62 230.57 -62 240.14 -62 250 C-62.33 250 -62.66 250 -63 250 C-63 229.87 -63 209.74 -63 189 C-73.23 189 -83.46 189 -94 189 C-94 188.67 -94 188.34 -94 188 C-83.77 188 -73.54 188 -63 188 C-63 167.54 -63 147.08 -63 126 C-62.67 126 -62.34 126 -62 126 C-62 146.46 -62 166.92 -62 188 C-52.1 188 -42.2 188 -32 188 C-32 167.54 -32 147.08 -32 126 C-31.67 126 -31.34 126 -31 126 C-31 136.23 -31 146.46 -31 157 C-20.77 157 -10.54 157 0 157 C0 105.19 0 53.38 0 0 Z " fill="#B05656" transform="translate(470,250)"/>
<path d="M0 0 C1.32 0.33 2.64 0.66 4 1 C3.01 1 2.02 1 1 1 C1 52.48 1 103.96 1 157 C10.9 157 20.8 157 31 157 C31 157.33 31 157.66 31 158 C21.1 158 11.2 158 1 158 C1 167.9 1 177.8 1 188 C11.23 188 21.46 188 32 188 C32 188.33 32 188.66 32 189 C21.77 189 11.54 189 1 189 C1 199.23 1 209.46 1 220 C21.46 220 41.92 220 63 220 C63 220.33 63 220.66 63 221 C42.54 221 22.08 221 1 221 C1 230.57 1 240.14 1 250 C0.67 250 0.34 250 0 250 C0 229.87 0 209.74 0 189 C-20.46 189 -40.92 189 -62 189 C-62 188.67 -62 188.34 -62 188 C-41.54 188 -21.08 188 0 188 C0 178.1 0 168.2 0 158 C-3.63 158 -7.26 158 -11 158 C-11 157.67 -11 157.34 -11 157 C-7.37 157 -3.74 157 0 157 C0 105.19 0 53.38 0 0 Z " fill="#8E4D4E" transform="translate(62,250)"/>
<path d="M0 0 C0.33 0 0.66 0 1 0 C1 20.46 1 40.92 1 62 C14.31335928 61.59234461 14.31335928 61.59234461 27.62597656 61.16162109 C29.29750282 61.11472488 30.96905129 61.06861063 32.640625 61.0234375 C33.5054248 60.99161377 34.37022461 60.95979004 35.26123047 60.92700195 C36.09315918 60.90645752 36.92508789 60.88591309 37.78222656 60.86474609 C38.86144379 60.83143692 38.86144379 60.83143692 39.96246338 60.79745483 C42 61 42 61 46 63 C41.71 63 37.42 63 33 63 C33 72.9 33 82.8 33 93 C42.9 93 52.8 93 63 93 C63 83.1 63 73.2 63 63 C61.35 63 59.7 63 58 63 C58 62.34 58 61.68 58 61 C59.66611905 60.957279 61.33382885 60.95936168 63 61 C64 62 64 62 64.11352539 64.95922852 C64.10567017 66.89946899 64.10567017 66.89946899 64.09765625 68.87890625 C64.0962413 69.5655687 64.09482635 70.25223114 64.09336853 70.95970154 C64.08775479 73.16067801 64.07520007 75.36155409 64.0625 77.5625 C64.05748676 79.05143083 64.05292355 80.54036324 64.04882812 82.02929688 C64.03778093 85.68623075 64.02050713 89.34310558 64 93 C65.98 93.495 65.98 93.495 68 94 C25.43 94 -17.14 94 -61 94 C-61 93.67 -61 93.34 -61 93 C-51.1 93 -41.2 93 -31 93 C-31 82.77 -31 72.54 -31 62 C-27.59112017 61.14778004 -25.19565369 60.89216245 -21.75 60.9375 C-20.85796875 60.94652344 -19.9659375 60.95554688 -19.046875 60.96484375 C-18.37140625 60.97644531 -17.6959375 60.98804688 -17 61 C-21 63 -21 63 -30 64 C-30 73.57 -30 83.14 -30 93 C-20.1 93 -10.2 93 0 93 C-0.33 83.1 -0.66 73.2 -1 63 C-1.99 63 -2.98 63 -4 63 C-3.505 62.01 -3.505 62.01 -3 61 C-2.01 61 -1.02 61 0 61 C0 40.87 0 20.74 0 0 Z M1 63 C1 72.9 1 82.8 1 93 C11.23 93 21.46 93 32 93 C32 83.1 32 73.2 32 63 C21.77 63 11.54 63 1 63 Z " fill="#8B3738" transform="translate(250,0)"/>
<path d="M0 0 C1.32 0.33 2.64 0.66 4 1 C3.01 1 2.02 1 1 1 C1 21.79 1 42.58 1 64 C-9.23 64 -19.46 64 -30 64 C-30 74.23 -30 84.46 -30 95 C-50.79 95 -71.58 95 -93 95 C-90.36209266 92.36209266 -89.13150918 92.72898064 -85.44873047 92.68115234 C-84.28767792 92.66128265 -83.12662537 92.64141296 -81.9303894 92.62094116 C-80.04285446 92.60361435 -80.04285446 92.60361435 -78.1171875 92.5859375 C-76.83264679 92.56657135 -75.54810608 92.5472052 -74.22463989 92.5272522 C-70.80852465 92.47586059 -67.39236993 92.43627286 -63.97607422 92.39910889 C-60.49046001 92.35911302 -57.00501097 92.30800062 -53.51953125 92.2578125 C-46.6798081 92.16097025 -39.83997904 92.0765922 -33 92 C-32.97127304 91.0561142 -32.94254608 90.11222839 -32.91294861 89.13973999 C-32.83379122 86.5388544 -32.75447502 83.93797363 -32.67501831 81.33709717 C-32.61200053 79.25807442 -32.5496559 77.17903006 -32.48977661 75.09991455 C-32.43632209 73.2461671 -32.37664564 71.39260187 -32.31640625 69.5390625 C-32.27974854 68.33459473 -32.24309082 67.13012695 -32.20532227 65.88916016 C-32 63 -32 63 -31 61 C-16.15 61.495 -16.15 61.495 -1 62 C-1.01160156 57.69195312 -1.02320312 53.38390625 -1.03515625 48.9453125 C-1.04158483 45.51551848 -1.04700848 42.08572617 -1.05175018 38.65592957 C-1.05703616 35.03248897 -1.06410284 31.40907168 -1.07543945 27.78564453 C-1.08628538 24.29731896 -1.09228047 20.80901602 -1.09487724 17.3206749 C-1.09763081 15.33862308 -1.1054401 13.3565804 -1.11329651 11.37454224 C-1.11337204 10.17344818 -1.11344757 8.97235413 -1.11352539 7.73486328 C-1.115746 6.67341095 -1.11796661 5.61195862 -1.12025452 4.51834106 C-1 2 -1 2 0 0 Z " fill="#580000" transform="translate(124,30)"/>
<path d="M0 0 C1.10091476 0.00007553 2.20182953 0.00015106 3.33610535 0.00022888 C4.52367935 0.00539017 5.71125336 0.01055145 6.93481445 0.01586914 C8.15135208 0.01728409 9.36788971 0.01869904 10.62129211 0.02015686 C14.51358481 0.02576227 18.40582035 0.03831572 22.2980957 0.05102539 C24.93416258 0.05603969 27.57023036 0.06060272 30.20629883 0.06469727 C36.67441734 0.07573346 43.14250244 0.09247689 49.6105957 0.11352539 C49.6105957 0.44352539 49.6105957 0.77352539 49.6105957 1.11352539 C41.0305957 1.11352539 32.4505957 1.11352539 23.6105957 1.11352539 C23.6105957 21.57352539 23.6105957 42.03352539 23.6105957 63.11352539 C22.9505957 63.11352539 22.2905957 63.11352539 21.6105957 63.11352539 C21.6105957 43.31352539 21.6105957 23.51352539 21.6105957 3.11352539 C12.3705957 3.11352539 3.1305957 3.11352539 -6.3894043 3.11352539 C-6.36620117 7.10961914 -6.34299805 11.10571289 -6.3190918 15.22290039 C-6.30349924 19.08845706 -6.29135222 22.95401023 -6.27954102 26.81958008 C-6.27060526 29.50842914 -6.25668192 32.19718409 -6.23852539 34.88598633 C-6.21429674 38.74831852 -6.20292555 42.61050614 -6.1940918 46.47290039 C-6.18376923 47.67718689 -6.17344666 48.88147339 -6.16281128 50.12225342 C-6.16266022 51.2431134 -6.16250916 52.36397339 -6.16235352 53.51879883 C-6.15791229 54.50475037 -6.15347107 55.4907019 -6.14889526 56.50653076 C-6.3894043 59.11352539 -6.3894043 59.11352539 -8.3894043 63.11352539 C-8.3894043 42.65352539 -8.3894043 22.19352539 -8.3894043 1.11352539 C-5.31102635 0.08739941 -3.22366134 -0.0073768 0 0 Z " fill="#9A1211" transform="translate(133.389404296875,29.886474609375)"/>
<path d="M0 0 C0.66 0 1.32 0 2 0 C2 30.36 2 60.72 2 92 C21.47 92 40.94 92 61 92 C61 82.76 61 73.52 61 64 C61.33 64 61.66 64 62 64 C62 73.9 62 83.8 62 94 C41.54 94 21.08 94 0 94 C0 62.98 0 31.96 0 0 Z " fill="#530000" transform="translate(157,31)"/>
<path d="M0 0 C14.52 0 29.04 0 44 0 C44 0.33 44 0.66 44 1 C40.04 1 36.08 1 32 1 C32.03029297 2.52729736 32.06058594 4.05459473 32.09179688 5.62817383 C32.68237772 35.95451492 33.10842757 66.27635471 33.12338257 96.6088829 C33.12497594 98.71815226 33.12851427 100.82741009 33.13256836 102.93667603 C33.16288758 120.65240478 32.78860794 138.30013296 32 156 C41.9 156 51.8 156 62 156 C62 156.33 62 156.66 62 157 C51.77 157 41.54 157 31 157 C30.82739429 142.62506562 30.66050482 128.25007477 30.5 113.875 C30.48812275 112.81161156 30.4762455 111.74822311 30.46400833 110.65261078 C30.05800108 74.09931013 29.87471489 37.55541001 30 1 C20.1 1 10.2 1 0 1 C0 0.67 0 0.34 0 0 Z " fill="#650405" transform="translate(408,250)"/>
<path d="M0 0 C20.79 0 41.58 0 63 0 C63 20.46 63 40.92 63 62 C73.23 62 83.46 62 94 62 C94 62.33 94 62.66 94 63 C83.77 63 73.54 63 63 63 C63 103.92 63 144.84 63 187 C62.67 187 62.34 187 62 187 C62 146.08 62 105.16 62 63 C60.35 63 58.7 63 57 63 C57 62.67 57 62.34 57 62 C58.65 62 60.3 62 62 62 C62 41.87 62 21.74 62 1 C41.54 1 21.08 1 0 1 C0 0.67 0 0.34 0 0 Z " fill="#854443" transform="translate(31,188)"/>
<path d="M0 0 C20.46 0 40.92 0 62 0 C62 0.33 62 0.66 62 1 C42.2 1 22.4 1 2 1 C2 10.57 2 20.14 2 30 C21.8 30 41.6 30 62 30 C62.495 30.99 62.495 30.99 63 32 C54.93347826 32.02312737 46.86697028 32.04091709 38.80042362 32.05181217 C35.05516963 32.05704014 31.30993824 32.06413622 27.56469727 32.07543945 C23.95318313 32.08627141 20.34169079 32.09227749 16.73016167 32.09487724 C15.34939671 32.09673094 13.968633 32.10035049 12.58787727 32.10573006 C10.66024048 32.11294447 8.73258193 32.11340809 6.80493164 32.11352539 C5.70572891 32.115746 4.60652618 32.11796661 3.47401428 32.12025452 C1 32 1 32 0 31 C0 20.77 0 10.54 0 0 Z " fill="#98070B" transform="translate(31,125)"/>
<path d="M0 0 C0.33 0 0.66 0 1 0 C1.20842052 9.20793168 1.3939944 18.41625728 1.5625 27.625 C1.57523327 28.32019367 1.58796654 29.01538734 1.60108566 29.73164749 C2.01106484 52.47716746 1.98687444 75.19245671 1.5625 97.9375 C1.54327925 98.96868328 1.54327925 98.96868328 1.5236702 100.02069855 C1.36686716 108.34752377 1.19282425 116.67392924 1 125 C0.67 125 0.34 125 0 125 C0 104.54 0 84.08 0 63 C-10.23 63 -20.46 63 -31 63 C-31 62.67 -31 62.34 -31 62 C-20.77 62 -10.54 62 0 62 C0 41.54 0 21.08 0 0 Z " fill="#816061" transform="translate(407,125)"/>
<path d="M0 0 C10.56 0 21.12 0 32 0 C32 10.23 32 20.46 32 31 C21.44 31 10.88 31 0 31 C0 20.77 0 10.54 0 0 Z M1 1 C1 10.24 1 19.48 1 29 C10.9 29.33 20.8 29.66 31 30 C31 21.42 31 12.84 31 4 C30.34 3.67 29.68 3.34 29 3 C29.33 2.34 29.66 1.68 30 1 C20.43 1 10.86 1 1 1 Z " fill="#5B0202" transform="translate(376,282)"/>
<path d="M0 0 C1.87316895 0.00749268 1.87316895 0.00749268 3.78417969 0.01513672 C5.36618164 0.03334473 6.94818359 0.05155273 8.578125 0.0703125 C16.126875 0.1321875 16.126875 0.1321875 23.828125 0.1953125 C23.828125 10.7553125 23.828125 21.3153125 23.828125 32.1953125 C23.333125 31.2053125 23.333125 31.2053125 22.828125 30.1953125 C22.168125 29.8653125 21.508125 29.5353125 20.828125 29.1953125 C21.158125 20.6153125 21.488125 12.0353125 21.828125 3.1953125 C10.938125 2.8653125 0.048125 2.5353125 -11.171875 2.1953125 C-6.83828918 0.02851959 -4.76501621 -0.03905751 0 0 Z " fill="#5C0101" transform="translate(101.171875,437.8046875)"/>
<path d="M0 0 C0.66 0 1.32 0 2 0 C2 10.23 2 20.46 2 31 C-8.56 31 -19.12 31 -30 31 C-30 30.01 -30 29.02 -30 28 C-20.1 28.33 -10.2 28.66 0 29 C0 19.43 0 9.86 0 0 Z " fill="#D04342" transform="translate(155,94)"/>
<path d="M0 0 C0.33 0 0.66 0 1 0 C1 10.56 1 21.12 1 32 C-9.23 32 -19.46 32 -30 32 C-30 31.67 -30 31.34 -30 31 C-28.74445313 30.93941406 -27.48890625 30.87882812 -26.1953125 30.81640625 C-24.50520183 30.73190072 -22.81509803 30.64725791 -21.125 30.5625 C-19.89136719 30.50352539 -19.89136719 30.50352539 -18.6328125 30.44335938 C-12.7324084 30.14372948 -6.87322784 29.63805394 -1 29 C-1.00785522 27.78884521 -1.00785522 27.78884521 -1.01586914 26.55322266 C-1.03659929 22.91048962 -1.04964749 19.26776898 -1.0625 15.625 C-1.07087891 14.35398437 -1.07925781 13.08296875 -1.08789062 11.7734375 C-1.09272461 9.95585937 -1.09272461 9.95585937 -1.09765625 8.1015625 C-1.10551147 6.42054443 -1.10551147 6.42054443 -1.11352539 4.70556641 C-1 2 -1 2 0 0 Z " fill="#540000" transform="translate(93,375)"/>
<path d="M0 0 C10.23 0 20.46 0 31 0 C31 0.33 31 0.66 31 1 C29.78884521 1.03758423 29.78884521 1.03758423 28.55322266 1.07592773 C24.91031083 1.19165487 21.26767274 1.31448635 17.625 1.4375 C15.71847656 1.49647461 15.71847656 1.49647461 13.7734375 1.55664062 C12.56171875 1.59853516 11.35 1.64042969 10.1015625 1.68359375 C8.42054443 1.73858032 8.42054443 1.73858032 6.70556641 1.79467773 C4.03287229 1.82596013 4.03287229 1.82596013 2 3 C1.67 12.24 1.34 21.48 1 31 C10.9 31 20.8 31 31 31 C31 31.33 31 31.66 31 32 C20.77 32 10.54 32 0 32 C0 21.44 0 10.88 0 0 Z " fill="#E34947" transform="translate(313,125)"/>
<path d="M0 0 C10.23 0 20.46 0 31 0 C31 0.33 31 0.66 31 1 C30.15703369 1.02505615 29.31406738 1.0501123 28.44555664 1.07592773 C25.32758326 1.17088155 22.20978497 1.27012448 19.09204102 1.37231445 C17.74085853 1.41571223 16.38961947 1.4573837 15.03833008 1.49731445 C13.09963299 1.55489952 11.16113724 1.61914298 9.22265625 1.68359375 C8.05484619 1.72025146 6.88703613 1.75690918 5.68383789 1.79467773 C3.08220205 1.70076188 3.08220205 1.70076188 2 3 C1.87669912 4.8096774 1.82209817 6.62407837 1.79467773 8.43774414 C1.77473251 9.59887222 1.75478729 10.76000031 1.73423767 11.95631409 C1.71752518 13.219832 1.70081268 14.48334991 1.68359375 15.78515625 C1.66281265 17.07111191 1.64203156 18.35706757 1.62062073 19.68199158 C1.56533824 23.10635904 1.51595639 26.5307875 1.46777344 29.95526123 C1.41760335 33.44744314 1.3618939 36.9395361 1.30664062 40.43164062 C1.1989836 47.28768333 1.09755551 54.14380633 1 61 C0.67 61 0.34 61 0 61 C0 40.87 0 20.74 0 0 Z " fill="#A70807" transform="translate(94,251)"/>
<path d="M0 0 C1.79244141 0.01740234 1.79244141 0.01740234 3.62109375 0.03515625 C5.41740234 0.04869141 5.41740234 0.04869141 7.25 0.0625 C8.17683594 0.07410156 9.10367188 0.08570313 10.05859375 0.09765625 C6.05859375 2.09765625 6.05859375 2.09765625 -2.94140625 3.09765625 C-2.94140625 12.99765625 -2.94140625 22.89765625 -2.94140625 33.09765625 C-13.17140625 33.09765625 -23.40140625 33.09765625 -33.94140625 33.09765625 C-33.94140625 32.76765625 -33.94140625 32.43765625 -33.94140625 32.09765625 C-24.04140625 32.09765625 -14.14140625 32.09765625 -3.94140625 32.09765625 C-3.95300781 29.87144531 -3.96460938 27.64523438 -3.9765625 25.3515625 C-3.98435347 23.20369611 -3.99043 21.05583128 -3.99633789 18.90795898 C-4.00137746 17.41120707 -4.00820912 15.91446009 -4.0168457 14.41772461 C-4.02892784 12.27065818 -4.03463816 10.12365663 -4.0390625 7.9765625 C-4.04691772 6.03632202 -4.04691772 6.03632202 -4.05493164 4.05688477 C-3.90426946 0.12962382 -3.90426946 0.12962382 0 0 Z " fill="#5D3C3D" transform="translate(222.94140625,60.90234375)"/>
<path d="M0 0 C1.66611905 -0.042721 3.33382885 -0.04063832 5 0 C6 1 6 1 6.12025452 3.47401428 C6.11803391 4.57321701 6.11581329 5.67241974 6.11352539 6.80493164 C6.11344986 8.04614273 6.11337433 9.28735382 6.11329651 10.56617737 C6.10818911 11.9308374 6.1029731 13.29549702 6.09765625 14.66015625 C6.095792 16.04878183 6.09436813 17.43740807 6.09336853 18.82603455 C6.08954387 22.48721115 6.07971403 26.1483483 6.06866455 29.80950928 C6.05844932 33.54292263 6.05387067 37.27634234 6.04882812 41.00976562 C6.03809171 48.33986177 6.02101591 55.66992536 6 63 C5.67 63 5.34 63 5 63 C5 43.2 5 23.4 5 3 C3.35 2.67 1.7 2.34 0 2 C0 1.34 0 0.68 0 0 Z " fill="#4D2A2B" transform="translate(433,187)"/>
<path d="M0 0 C0.77988281 -0.00128906 1.55976562 -0.00257812 2.36328125 -0.00390625 C3.57951172 0.00189453 3.57951172 0.00189453 4.8203125 0.0078125 C5.62339844 0.00394531 6.42648438 0.00007813 7.25390625 -0.00390625 C11.28224536 0.00273022 15.01472354 0.13027362 18.9453125 1.1328125 C18.9453125 1.4628125 18.9453125 1.7928125 18.9453125 2.1328125 C13.33823349 3.14886037 8.1774101 3.09212697 2.5078125 2.6953125 C-0.3178125 2.5096875 -3.1434375 2.3240625 -6.0546875 2.1328125 C-6.0546875 12.0328125 -6.0546875 21.9328125 -6.0546875 32.1328125 C-6.3846875 32.1328125 -6.7146875 32.1328125 -7.0546875 32.1328125 C-7.0546875 21.9028125 -7.0546875 11.6728125 -7.0546875 1.1328125 C-4.35268401 0.23214467 -2.77437323 0.00442887 0 0 Z " fill="#7E6163" transform="translate(69.0546875,60.8671875)"/>
<path d="M0 0 C1.65 0.33 3.3 0.66 5 1 C5 21.46 5 41.92 5 63 C4.67 63 4.34 63 4 63 C3.67 43.2 3.34 23.4 3 3 C1.68 2.34 0.36 1.68 -1 1 C-0.67 0.67 -0.34 0.34 0 0 Z " fill="#9D8A89" transform="translate(184,30)"/>
<path d="M0 0 C0.99 0.495 0.99 0.495 2 1 C2.33 10.9 2.66 20.8 3 31 C2.01 31 1.02 31 0 31 C0 20.77 0 10.54 0 0 Z " fill="#E7726F" transform="translate(157,219)"/>
<path d="M0 0 C8.58 0 17.16 0 26 0 C26 0.33 26 0.66 26 1 C17.28849992 3.28498363 8.87806461 3.91958154 0 2 C0 1.34 0 0.68 0 0 Z " fill="#7F6467" transform="translate(474,406)"/>
<path d="M0 0 C5.94 0 11.88 0 18 0 C18.33 0.99 18.66 1.98 19 3 C14.71 3 10.42 3 6 3 C6 2.67 6 2.34 6 2 C3.03 1.505 3.03 1.505 0 1 C0 0.67 0 0.34 0 0 Z " fill="#7D5F61" transform="translate(0,406)"/>
<path d="M0 0 C9.9 0 19.8 0 30 0 C29.67 1.32 29.34 2.64 29 4 C28.19127441 3.51781006 28.19127441 3.51781006 27.36621094 3.02587891 C24.50462968 1.78523049 22.25497256 1.68127467 19.140625 1.5859375 C17.46806641 1.52792969 17.46806641 1.52792969 15.76171875 1.46875 C14.60285156 1.4378125 13.44398438 1.406875 12.25 1.375 C11.07566406 1.33632812 9.90132813 1.29765625 8.69140625 1.2578125 C5.79442732 1.1636018 2.89745374 1.07798398 0 1 C0 0.67 0 0.34 0 0 Z " fill="#2F0607" transform="translate(377,125)"/>
<path d="M0 0 C8.58 0 17.16 0 26 0 C26 0.33 26 0.66 26 1 C24.97845825 1.029729 24.97845825 1.029729 23.9362793 1.06005859 C20.85296083 1.15526983 17.77032351 1.26496466 14.6875 1.375 C13.61564453 1.4059375 12.54378906 1.436875 11.43945312 1.46875 C9.89741211 1.52675781 9.89741211 1.52675781 8.32421875 1.5859375 C6.9024231 1.63306885 6.9024231 1.63306885 5.4519043 1.68115234 C2.7469731 1.8489051 2.7469731 1.8489051 0 4 C0 2.68 0 1.36 0 0 Z " fill="#4E0000" transform="translate(63,439)"/>
<path d="M0 0 C5.94 0 11.88 0 18 0 C17.67 0.66 17.34 1.32 17 2 C16.19175781 1.96519531 15.38351562 1.93039063 14.55078125 1.89453125 C12.94783203 1.85392578 12.94783203 1.85392578 11.3125 1.8125 C10.25675781 1.77769531 9.20101563 1.74289063 8.11328125 1.70703125 C4.64577232 2.03333385 2.81567552 3.00969875 0 5 C-0.33 4.01 -0.66 3.02 -1 2 C-0.67 1.34 -0.34 0.68 0 0 Z " fill="#411116" transform="translate(452,250)"/>
<path d="M0 0 C4.29 0 8.58 0 13 0 C9.52630934 1.73684533 7.92380063 2.30084112 4.25 2.625 C3.45078125 2.69976562 2.6515625 2.77453125 1.828125 2.8515625 C1.22484375 2.90054688 0.6215625 2.94953125 0 3 C0 2.01 0 1.02 0 0 Z " fill="#897072" transform="translate(220,61)"/>
<path d="M0 0 C3.63 0.33 7.26 0.66 11 1 C11 1.33 11 1.66 11 2 C4.6 3.23076923 4.6 3.23076923 1.5625 2.0625 C1.046875 1.711875 0.53125 1.36125 0 1 C0 0.67 0 0.34 0 0 Z " fill="#866869" transform="translate(77,61)"/>
</svg>
