<?xml version="1.0" encoding="UTF-8"?>
<svg version="1.1" xmlns="http://www.w3.org/2000/svg" width="500" height="500">
<path d="M0 0 C31.35 0 62.7 0 95 0 C95 10.23 95 20.46 95 31 C125.69 31 156.38 31 188 31 C188 20.77 188 10.54 188 0 C198.89 0 209.78 0 221 0 C221 10.56 221 21.12 221 32 C210.44 32 199.88 32 189 32 C189 41.9 189 51.8 189 62 C209.13 62 229.26 62 250 62 C250 51.77 250 41.54 250 31 C260.89 31 271.78 31 283 31 C283 41.56 283 52.12 283 63 C280.12981559 64.43509221 277.66456277 64.11158506 274.4609375 64.09765625 C272.50800781 64.09282227 272.50800781 64.09282227 270.515625 64.08789062 C269.13541601 64.07953466 267.75520768 64.07106971 266.375 64.0625 C264.98698074 64.05748501 263.59895978 64.0529221 262.2109375 64.04882812 C258.80724868 64.03700976 255.40364561 64.02053434 252 64 C252.00222061 64.76199203 252.00444122 65.52398407 252.00672913 66.30906677 C252.02673157 73.47551712 252.04197388 80.64195401 252.05181217 87.80842495 C252.05704008 91.49314498 252.06413605 95.17784203 252.07543945 98.86254883 C252.08627162 102.41570831 252.09227753 105.96884563 252.09487724 109.52202034 C252.0967309 110.88045666 252.10035038 112.23889171 252.10573006 113.59731865 C252.11294475 115.49382223 252.11340809 117.39034793 252.11352539 119.28686523 C252.115746 120.36830307 252.11796661 121.44974091 252.12025452 122.56394958 C252 125 252 125 251 126 C241.43 126 231.86 126 222 126 C221.67 146.79 221.34 167.58 221 189 C210.44 189 199.88 189 189 189 C189 209.13 189 229.26 189 250 C198.9 250 208.8 250 219 250 C219 239.77 219 229.54 219 219 C240.12 219 261.24 219 283 219 C283 229.56 283 240.12 283 251 C282 252 282 252 279.56394958 252.12025452 C278.48251175 252.11803391 277.40107391 252.11581329 276.28686523 252.11352539 C275.0656749 252.11344986 273.84448456 252.11337433 272.58628845 252.11329651 C271.24372314 252.10818911 269.90115825 252.10297311 268.55859375 252.09765625 C267.19238842 252.09579199 265.82618243 252.09436813 264.4599762 252.09336853 C260.85798305 252.08954394 257.25603 252.07971417 253.65405273 252.06866455 C249.98096265 252.05844916 246.30786592 252.05381594 242.63476562 252.04882812 C235.42314163 252.03862203 228.21162785 252.01905038 221 252 C221 261.57 221 271.14 221 281 C231.23 281 241.46 281 252 281 C252 301.79 252 322.58 252 344 C262.23 344 272.46 344 283 344 C283.02291161 348.53904366 283.04283781 353.07788802 283.05493164 357.61694336 C283.0599714 359.16219766 283.0668032 360.70744716 283.07543945 362.25268555 C283.08752076 364.46925029 283.09323173 366.68575218 283.09765625 368.90234375 C283.10281754 369.5971434 283.10797882 370.29194305 283.11329651 371.00779724 C283.11349277 372.6722933 283.06189129 374.33665499 283 376 C281.09150052 377.90849948 277.68521226 377.13059633 275.15625 377.1328125 C274.47195923 377.13376923 273.78766846 377.13472595 273.0826416 377.13571167 C271.63338123 377.1363933 270.18411782 377.13454023 268.73486328 377.13037109 C266.50937072 377.12502252 264.28407999 377.1303166 262.05859375 377.13671875 C260.65364539 377.13605797 259.24869715 377.1347768 257.84375 377.1328125 C256.55662109 377.13168457 255.26949219 377.13055664 253.94335938 377.12939453 C251 377 251 377 250 376 C249.91216458 373.78144736 249.89305391 371.56011504 249.90234375 369.33984375 C249.90446617 368.34314415 249.90446617 368.34314415 249.90663147 367.3263092 C249.91224482 365.19666101 249.92479946 363.06711661 249.9375 360.9375 C249.94251329 359.49674631 249.94707649 358.05599097 249.95117188 356.61523438 C249.96221855 353.07678898 249.97949208 349.53840461 250 346 C249.3702124 346.00523682 248.7404248 346.01047363 248.09155273 346.01586914 C245.20687885 346.03680138 242.32222102 346.0497115 239.4375 346.0625 C238.44685547 346.07087891 237.45621094 346.07925781 236.43554688 346.08789062 C234.98051758 346.09272461 234.98051758 346.09272461 233.49609375 346.09765625 C232.61107178 346.10289307 231.7260498 346.10812988 230.81420898 346.11352539 C227.52449209 345.98081798 224.25930231 345.46561462 221 345 C221 355.23 221 365.46 221 376 C210.44 376 199.88 376 189 376 C189 396.79 189 417.58 189 439 C184.13564999 439.60804375 179.97268539 440.1248448 175.1875 440.09765625 C174.17558594 440.09443359 173.16367187 440.09121094 172.12109375 440.08789062 C171.09113281 440.07951172 170.06117188 440.07113281 169 440.0625 C167.93910156 440.05798828 166.87820313 440.05347656 165.78515625 440.04882812 C163.19004402 440.03713843 160.59505291 440.02075276 158 440 C158.00785522 441.35532837 158.00785522 441.35532837 158.01586914 442.73803711 C158.03287686 446.07951489 158.04543333 449.42094692 158.05493164 452.76245117 C158.05997101 454.21070073 158.06680253 455.65894517 158.07543945 457.10717773 C158.08752247 459.18474588 158.09323211 461.26224697 158.09765625 463.33984375 C158.10551147 465.21724243 158.10551147 465.21724243 158.11352539 467.13256836 C158 470 158 470 157 471 C154.70848583 471.08790975 152.41427476 471.10694038 150.12109375 471.09765625 C149.09110008 471.09553383 149.09110008 471.09553383 148.04029846 471.09336853 C145.83932199 471.08775479 143.63844591 471.07520007 141.4375 471.0625 C139.94856917 471.05748676 138.45963676 471.05292355 136.97070312 471.04882812 C133.31373195 471.03863021 129.65697883 471.01905779 126 471 C126 480.57 126 490.14 126 500 C73.86 500 21.72 500 -32 500 C-32 490.43 -32 480.86 -32 471 C-42.23 471 -52.46 471 -63 471 C-63 460.44 -63 449.88 -63 439 C-66.63 439.33 -70.26 439.66 -74 440 C-77.55094266 440.08710826 -81.07598073 440.14101061 -84.625 440.125 C-85.52089844 440.12886719 -86.41679688 440.13273437 -87.33984375 440.13671875 C-88.18933594 440.13542969 -89.03882812 440.13414062 -89.9140625 440.1328125 C-90.6767041 440.13168457 -91.4393457 440.13055664 -92.22509766 440.12939453 C-94 440 -94 440 -95 439 C-95.08790975 436.70848583 -95.10694038 434.41427476 -95.09765625 432.12109375 C-95.0962413 431.4344313 -95.09482635 430.74776886 -95.09336853 430.04029846 C-95.08775479 427.83932199 -95.07520007 425.63844591 -95.0625 423.4375 C-95.05748676 421.94856917 -95.05292355 420.45963676 -95.04882812 418.97070312 C-95.03778093 415.31376925 -95.02050713 411.65689442 -95 408 C-95.72380859 408.16226074 -96.44761719 408.32452148 -97.19335938 408.49169922 C-99.83811427 408.97068145 -102.22411768 409.12913114 -104.90625 409.1328125 C-106.26943359 409.13474609 -106.26943359 409.13474609 -107.66015625 409.13671875 C-109.06587891 409.13091797 -109.06587891 409.13091797 -110.5 409.125 C-111.43714844 409.12886719 -112.37429687 409.13273437 -113.33984375 409.13671875 C-114.24863281 409.13542969 -115.15742187 409.13414062 -116.09375 409.1328125 C-117.32641602 409.13112061 -117.32641602 409.13112061 -118.58398438 409.12939453 C-121 409 -121 409 -126 408 C-126 376.65 -126 345.3 -126 313 C-115.77 313 -105.54 313 -95 313 C-95 302.44 -95 291.88 -95 281 C-63.32 281 -31.64 281 1 281 C1 291.56 1 302.12 1 313 C11.56 313 22.12 313 33 313 C33.02094499 321.05916691 33.04098314 329.11823579 33.05175018 337.17740631 C33.05704008 340.93005024 33.06411391 344.68267175 33.07543945 348.43530273 C33.08627141 352.04681687 33.09227749 355.65830921 33.09487724 359.26983833 C33.09673094 360.65060329 33.10035049 362.031367 33.10573006 363.41212273 C33.11294447 365.33975952 33.11340809 367.26741807 33.11352539 369.19506836 C33.115746 370.29427109 33.11796661 371.39347382 33.12025452 372.52598572 C33 375 33 375 32 376 C29.70848583 376.08790975 27.41427476 376.10694038 25.12109375 376.09765625 C23.23668579 376.09390991 23.23668579 376.09390991 21.31420898 376.09008789 C19.70489502 376.08098389 18.09558105 376.07187988 16.4375 376.0625 C11.343125 376.041875 6.24875 376.02125 1 376 C1 386.23 1 396.46 1 407 C31.36 407 61.72 407 93 407 C93 376.31 93 345.62 93 314 C82.77 314 72.54 314 62 314 C62 303.44 62 292.88 62 282 C52.17178061 282.36852556 52.17178061 282.36852556 42.34399414 282.74829102 C41.12832764 282.79139404 39.91266113 282.83449707 38.66015625 282.87890625 C36.78275757 282.94960327 36.78275757 282.94960327 34.86743164 283.02172852 C32 283 32 283 31 282 C30.90474633 279.07805335 30.87447264 276.17979671 30.88647461 273.25756836 C30.88632858 272.3405867 30.88618256 271.42360504 30.8860321 270.47883606 C30.8867316 267.43248164 30.89452572 264.38618755 30.90234375 261.33984375 C30.9042078 259.23377007 30.90563176 257.12769597 30.90663147 255.0216217 C30.91045769 249.46657117 30.92028886 243.91154659 30.93133545 238.35650635 C30.94154733 232.6927526 30.94612861 227.02899467 30.95117188 221.36523438 C30.96191104 210.24347631 30.97950868 199.12174437 31 188 C41.23 188 51.46 188 62 188 C62 177.77 62 167.54 62 157 C58.7 157.33 55.4 157.66 52 158 C50.0926928 158.07397022 48.18363711 158.11841958 46.27490234 158.11352539 C45.27462006 158.11344986 44.27433777 158.11337433 43.2437439 158.11329651 C42.20166779 158.10813522 41.15959167 158.10297394 40.0859375 158.09765625 C38.44245834 158.09553383 38.44245834 158.09553383 36.76577759 158.09336853 C33.30215605 158.08781771 29.83860166 158.07527459 26.375 158.0625 C24.01171969 158.05747864 21.64843836 158.05291685 19.28515625 158.04882812 C13.52339147 158.03871977 7.76176998 158.01913503 2 158 C1.67 168.23 1.34 178.46 1 189 C-30.02 189 -61.04 189 -93 189 C-93 199.23 -93 209.46 -93 220 C-114.12 220 -135.24 220 -157 220 C-157 198.88 -157 177.76 -157 156 C-146.77 156 -136.54 156 -126 156 C-126 145.77 -126 135.54 -126 125 C-115.80726279 123.30121046 -105.32507657 124.58699694 -95 125 C-95 104.21 -95 83.42 -95 62 C-84.44 62 -73.88 62 -63 62 C-63 51.77 -63 41.54 -63 31 C-42.21 31 -21.42 31 0 31 C0 20.77 0 10.54 0 0 Z " fill="#BD7A0F" transform="translate(186,0)"/>
<path d="M0 0 C30.69 0 61.38 0 93 0 C93 10.23 93 20.46 93 31 C113.46 31 133.92 31 155 31 C155 41.23 155 51.46 155 62 C165.56 62 176.12 62 187 62 C187 82.79 187 103.58 187 125 C176.77 125 166.54 125 156 125 C156 166.25 156 207.5 156 250 C166.23 250 176.46 250 187 250 C187 260.23 187 270.46 187 281 C176.44 281 165.88 281 155 281 C155 322.25 155 363.5 155 406 C144.77 406 134.54 406 124 406 C124 416.56 124 427.12 124 438 C93.31 438 62.62 438 31 438 C31 427.77 31 417.54 31 407 C51.46 407 71.92 407 93 407 C93 396.77 93 386.54 93 376 C103.56 376 114.12 376 125 376 C125 344.65 125 313.3 125 281 C114.44 281 103.88 281 93 281 C93 270.77 93 260.54 93 250 C82.77 250 72.54 250 62 250 C62 218.98 62 187.96 62 156 C72.23 156 82.46 156 93 156 C93 145.77 93 135.54 93 125 C82.77 125 72.54 125 62 125 C62 114.44 62 103.88 62 93 C41.21 93 20.42 93 -1 93 C-1 103.56 -1 114.12 -1 125 C-32.02 125 -63.04 125 -95 125 C-95 114.44 -95 103.88 -95 93 C-84.44 93 -73.88 93 -63 93 C-63 72.54 -63 52.08 -63 31 C-42.21 31 -21.42 31 0 31 C0 20.77 0 10.54 0 0 Z " fill="#FDDE56" transform="translate(187,32)"/>
<path d="M0 0 C20.79 0 41.58 0 63 0 C63 10.56 63 21.12 63 32 C73.23 32 83.46 32 94 32 C94 42.23 94 52.46 94 63 C83.77 63 73.54 63 63 63 C63 94.02 63 125.04 63 157 C73.23 157 83.46 157 94 157 C94 167.23 94 177.46 94 188 C104.56 188 115.12 188 126 188 C126 219.35 126 250.7 126 283 C115.44 283 104.88 283 94 283 C94 293.23 94 303.46 94 314 C73.54 314 53.08 314 32 314 C32 324.56 32 335.12 32 346 C11.21 346 -9.58 346 -31 346 C-31 355.57 -31 365.14 -31 375 C-31.33 375 -31.66 375 -32 375 C-32 365.43 -32 355.86 -32 346 C-42.23 346 -52.46 346 -63 346 C-63 335.44 -63 324.88 -63 314 C-66.63 314.33 -70.26 314.66 -74 315 C-77.55094266 315.08710826 -81.07598073 315.14101061 -84.625 315.125 C-85.52089844 315.12886719 -86.41679688 315.13273437 -87.33984375 315.13671875 C-88.18933594 315.13542969 -89.03882812 315.13414062 -89.9140625 315.1328125 C-90.6767041 315.13168457 -91.4393457 315.13055664 -92.22509766 315.12939453 C-94 315 -94 315 -95 314 C-95.08790975 311.70848583 -95.10694038 309.41427476 -95.09765625 307.12109375 C-95.0962413 306.4344313 -95.09482635 305.74776886 -95.09336853 305.04029846 C-95.08775479 302.83932199 -95.07520007 300.63844591 -95.0625 298.4375 C-95.05748676 296.94856917 -95.05292355 295.45963676 -95.04882812 293.97070312 C-95.03778093 290.31376925 -95.02050713 286.65689442 -95 283 C-95.72380859 283.16226074 -96.44761719 283.32452148 -97.19335938 283.49169922 C-99.83811427 283.97068145 -102.22411768 284.12913114 -104.90625 284.1328125 C-106.26943359 284.13474609 -106.26943359 284.13474609 -107.66015625 284.13671875 C-109.06587891 284.13091797 -109.06587891 284.13091797 -110.5 284.125 C-111.43714844 284.12886719 -112.37429687 284.13273437 -113.33984375 284.13671875 C-114.24863281 284.13542969 -115.15742187 284.13414062 -116.09375 284.1328125 C-117.32641602 284.13112061 -117.32641602 284.13112061 -118.58398438 284.12939453 C-121 284 -121 284 -126 283 C-126 251.65 -126 220.3 -126 188 C-115.77 188 -105.54 188 -95 188 C-95 177.44 -95 166.88 -95 156 C-63.32 156 -31.64 156 1 156 C1 166.56 1 177.12 1 188 C11.56 188 22.12 188 33 188 C33.02094499 196.05916691 33.04098314 204.11823579 33.05175018 212.17740631 C33.05704008 215.93005024 33.06411391 219.68267175 33.07543945 223.43530273 C33.08627141 227.04681687 33.09227749 230.65830921 33.09487724 234.26983833 C33.09673094 235.65060329 33.10035049 237.031367 33.10573006 238.41212273 C33.11294447 240.33975952 33.11340809 242.26741807 33.11352539 244.19506836 C33.115746 245.29427109 33.11796661 246.39347382 33.12025452 247.52598572 C33 250 33 250 32 251 C29.70848583 251.08790975 27.41427476 251.10694038 25.12109375 251.09765625 C23.23668579 251.09390991 23.23668579 251.09390991 21.31420898 251.09008789 C18.90023804 251.07643188 18.90023804 251.07643188 16.4375 251.0625 C11.343125 251.041875 6.24875 251.02125 1 251 C1 261.23 1 271.46 1 282 C31.36 282 61.72 282 93 282 C93 251.31 93 220.62 93 189 C82.77 189 72.54 189 62 189 C62 178.44 62 167.88 62 157 C52.17178061 157.36852556 52.17178061 157.36852556 42.34399414 157.74829102 C41.12832764 157.79139404 39.91266113 157.83449707 38.66015625 157.87890625 C37.40855713 157.9260376 36.15695801 157.97316895 34.86743164 158.02172852 C32 158 32 158 31 157 C30.90474633 154.07805335 30.87447264 151.17979671 30.88647461 148.25756836 C30.88632858 147.3405867 30.88618256 146.42360504 30.8860321 145.47883606 C30.8867316 142.43248164 30.89452572 139.38618755 30.90234375 136.33984375 C30.9042078 134.23377007 30.90563176 132.12769597 30.90663147 130.0216217 C30.91045769 124.46657117 30.92028886 118.91154659 30.93133545 113.35650635 C30.94154733 107.6927526 30.94612861 102.02899467 30.95117188 96.36523438 C30.96191104 85.24347631 30.97950868 74.12174437 31 63 C41.23 63 51.46 63 62 63 C62 52.77 62 42.54 62 32 C57.05 32.495 57.05 32.495 52 33 C50.0926928 33.07397022 48.18363711 33.11841958 46.27490234 33.11352539 C45.27462006 33.11344986 44.27433777 33.11337433 43.2437439 33.11329651 C42.20166779 33.10813522 41.15959167 33.10297394 40.0859375 33.09765625 C38.44245834 33.09553383 38.44245834 33.09553383 36.76577759 33.09336853 C33.30215605 33.08781771 29.83860166 33.07527459 26.375 33.0625 C24.01171969 33.05747864 21.64843836 33.05291685 19.28515625 33.04882812 C13.52339147 33.03871977 7.76176998 33.01913503 2 33 C1.67 43.23 1.34 53.46 1 64 C-30.02 64 -61.04 64 -93 64 C-93 74.23 -93 84.46 -93 95 C-113.79 95 -134.58 95 -156 95 C-156 74.21 -156 53.42 -156 32 C-145.77 32 -135.54 32 -125 32 C-125 42.23 -125 52.46 -125 63 C-114.77 63 -104.54 63 -94 63 C-94 52.77 -94 42.54 -94 32 C-62.98 32 -31.96 32 0 32 C0 21.44 0 10.88 0 0 Z " fill="#8B7351" transform="translate(186,125)"/>
<path d="M0 0 C20.79 0 41.58 0 63 0 C63 10.56 63 21.12 63 32 C73.23 32 83.46 32 94 32 C94 42.23 94 52.46 94 63 C83.77 63 73.54 63 63 63 C63 94.02 63 125.04 63 157 C73.23 157 83.46 157 94 157 C94 167.23 94 177.46 94 188 C78.16 188.495 78.16 188.495 62 189 C62 178.44 62 167.88 62 157 C52.17178061 157.36852556 52.17178061 157.36852556 42.34399414 157.74829102 C41.12832764 157.79139404 39.91266113 157.83449707 38.66015625 157.87890625 C37.40855713 157.9260376 36.15695801 157.97316895 34.86743164 158.02172852 C32 158 32 158 31 157 C30.90474633 154.07805335 30.87447264 151.17979671 30.88647461 148.25756836 C30.88632858 147.3405867 30.88618256 146.42360504 30.8860321 145.47883606 C30.8867316 142.43248164 30.89452572 139.38618755 30.90234375 136.33984375 C30.9042078 134.23377007 30.90563176 132.12769597 30.90663147 130.0216217 C30.91045769 124.46657117 30.92028886 118.91154659 30.93133545 113.35650635 C30.94154733 107.6927526 30.94612861 102.02899467 30.95117188 96.36523438 C30.96191104 85.24347631 30.97950868 74.12174437 31 63 C41.23 63 51.46 63 62 63 C62 52.77 62 42.54 62 32 C57.05 32.495 57.05 32.495 52 33 C50.0926928 33.07397022 48.18363711 33.11841958 46.27490234 33.11352539 C45.27462006 33.11344986 44.27433777 33.11337433 43.2437439 33.11329651 C42.20166779 33.10813522 41.15959167 33.10297394 40.0859375 33.09765625 C38.44245834 33.09553383 38.44245834 33.09553383 36.76577759 33.09336853 C33.30215605 33.08781771 29.83860166 33.07527459 26.375 33.0625 C24.01171969 33.05747864 21.64843836 33.05291685 19.28515625 33.04882812 C13.52339147 33.03871977 7.76176998 33.01913503 2 33 C1.67 43.23 1.34 53.46 1 64 C-30.02 64 -61.04 64 -93 64 C-93 74.23 -93 84.46 -93 95 C-113.79 95 -134.58 95 -156 95 C-156 74.21 -156 53.42 -156 32 C-145.77 32 -135.54 32 -125 32 C-125 42.23 -125 52.46 -125 63 C-114.77 63 -104.54 63 -94 63 C-94 52.77 -94 42.54 -94 32 C-62.98 32 -31.96 32 0 32 C0 21.44 0 10.88 0 0 Z " fill="#270D03" transform="translate(186,125)"/>
<path d="M0 0 C31.02 0 62.04 0 94 0 C94.33 10.56 94.66 21.12 95 32 C105.23 32 115.46 32 126 32 C126 52.46 126 72.92 126 94 C115.77 94 105.54 94 95 94 C95 104.23 95 114.46 95 125 C84.44 125 73.88 125 63 125 C63 114.77 63 104.54 63 94 C52.77 94 42.54 94 32 94 C32 83.44 32 72.88 32 62 C42.23 62 52.46 62 63 62 C63 51.77 63 41.54 63 31 C42.21 31 21.42 31 0 31 C0 20.77 0 10.54 0 0 Z " fill="#6F3401" transform="translate(92,282)"/>
<path d="M0 0 C21.12 0 42.24 0 64 0 C64 10.56 64 21.12 64 32 C63 33 63 33 60.56394958 33.12025452 C59.48251175 33.11803391 58.40107391 33.11581329 57.28686523 33.11352539 C56.0656749 33.11344986 54.84448456 33.11337433 53.58628845 33.11329651 C52.24372314 33.10818911 50.90115825 33.10297311 49.55859375 33.09765625 C48.19238842 33.09579199 46.82618243 33.09436813 45.4599762 33.09336853 C41.85798305 33.08954394 38.25603 33.07971417 34.65405273 33.06866455 C30.98096265 33.05844916 27.30786592 33.05381594 23.63476562 33.04882812 C16.42314163 33.03862203 9.21162785 33.01905038 2 33 C2 42.57 2 52.14 2 62 C12.23 62 22.46 62 33 62 C33 82.79 33 103.58 33 125 C43.23 125 53.46 125 64 125 C64.02291161 129.53904366 64.04283781 134.07788802 64.05493164 138.61694336 C64.0599714 140.16219766 64.0668032 141.70744716 64.07543945 143.25268555 C64.08752076 145.46925029 64.09323173 147.68575218 64.09765625 149.90234375 C64.10539818 150.94454323 64.10539818 150.94454323 64.11329651 152.00779724 C64.11349277 153.6722933 64.06189129 155.33665499 64 157 C62.09150052 158.90849948 58.68521226 158.13059633 56.15625 158.1328125 C55.12981384 158.13424759 55.12981384 158.13424759 54.0826416 158.13571167 C52.63338123 158.1363933 51.18411782 158.13454023 49.73486328 158.13037109 C47.50937072 158.12502252 45.28407999 158.1303166 43.05859375 158.13671875 C41.65364539 158.13605797 40.24869715 158.1347768 38.84375 158.1328125 C37.55662109 158.13168457 36.26949219 158.13055664 34.94335938 158.12939453 C32 158 32 158 31 157 C30.91216458 154.78144736 30.89305391 152.56011504 30.90234375 150.33984375 C30.9037587 149.67537735 30.90517365 149.01091095 30.90663147 148.3263092 C30.91224482 146.19666101 30.92479946 144.06711661 30.9375 141.9375 C30.94251329 140.49674631 30.94707649 139.05599097 30.95117188 137.61523438 C30.96221855 134.07678898 30.97949208 130.53840461 31 127 C30.3702124 127.00523682 29.7404248 127.01047363 29.09155273 127.01586914 C26.20687885 127.03680138 23.32222102 127.0497115 20.4375 127.0625 C19.44685547 127.07087891 18.45621094 127.07925781 17.43554688 127.08789062 C16.46552734 127.09111328 15.49550781 127.09433594 14.49609375 127.09765625 C13.61107178 127.10289307 12.7260498 127.10812988 11.81420898 127.11352539 C8.52449209 126.98081798 5.25930231 126.46561462 2 126 C2 136.23 2 146.46 2 157 C1.67 157 1.34 157 1 157 C1 125.98 1 94.96 1 63 C-9.23 63 -19.46 63 -30 63 C-30 52.44 -30 41.88 -30 31 C-20.1 31 -10.2 31 0 31 C0 20.77 0 10.54 0 0 Z " fill="#FCDF59" transform="translate(405,219)"/>
<path d="M0 0 C1.05814785 0.00085602 2.1162957 0.00171204 3.20650864 0.00259399 C16.32519178 0.01399434 29.44384155 0.03487998 42.5625 0.0625 C42.5625 9.9625 42.5625 19.8625 42.5625 30.0625 C-8.9175 30.0625 -60.3975 30.0625 -113.4375 30.0625 C-113.4375 20.4925 -113.4375 10.9225 -113.4375 1.0625 C-104.87512993 0.88431616 -96.3128545 0.71447872 -87.75 0.5625 C-87.08134289 0.55062275 -86.41268578 0.5387455 -85.72376633 0.52650833 C-57.14960928 0.02561797 -28.57796742 -0.02328381 0 0 Z " fill="#260C00" transform="translate(268.4375,469.9375)"/>
<path d="M0 0 C20.79 0 41.58 0 63 0 C63 10.23 63 20.46 63 31 C52.77 31 42.54 31 32 31 C32 51.79 32 72.58 32 94 C21.44 94 10.88 94 0 94 C0 62.98 0 31.96 0 0 Z " fill="#BF7403" transform="translate(92,313)"/>
<path d="M0 0 C10.23 0 20.46 0 31 0 C31.88226539 30.60782236 32.03641477 61.13669898 31.5625 91.75 C31.54968616 92.57840771 31.53687233 93.40681541 31.5236702 94.26032639 C31.36382215 104.50718161 31.18398377 114.75351909 31 125 C20.77 125 10.54 125 0 125 C0 83.75 0 42.5 0 0 Z " fill="#270B00" transform="translate(343,157)"/>
<path d="M0 0 C10.89 0 21.78 0 33 0 C33 10.56 33 21.12 33 32 C30.12981559 33.43509221 27.66456277 33.11158506 24.4609375 33.09765625 C23.15898437 33.09443359 21.85703125 33.09121094 20.515625 33.08789062 C19.13541601 33.07953466 17.75520768 33.07106971 16.375 33.0625 C14.98698074 33.05748501 13.59895978 33.0529221 12.2109375 33.04882812 C8.80724868 33.03700976 5.40364561 33.02053434 2 33 C2.00222061 33.76199203 2.00444122 34.52398407 2.00672913 35.30906677 C2.02673157 42.47551712 2.04197388 49.64195401 2.05181217 56.80842495 C2.05704008 60.49314498 2.06413605 64.17784203 2.07543945 67.86254883 C2.08627162 71.41570831 2.09227753 74.96884563 2.09487724 78.52202034 C2.0967309 79.88045666 2.10035038 81.23889171 2.10573006 82.59731865 C2.11294475 84.49382223 2.11340809 86.39034793 2.11352539 88.28686523 C2.115746 89.36830307 2.11796661 90.44974091 2.12025452 91.56394958 C2 94 2 94 1 95 C-8.57 95 -18.14 95 -28 95 C-28.33 115.79 -28.66 136.58 -29 158 C-29.33 158 -29.66 158 -30 158 C-30 116.42 -30 74.84 -30 32 C-30.99 31.67 -31.98 31.34 -33 31 C-22.11 31 -11.22 31 0 31 C0 20.77 0 10.54 0 0 Z " fill="#FDDF59" transform="translate(436,31)"/>
<path d="M0 0 C31.02 0 62.04 0 94 0 C94 10.56 94 21.12 94 32 C62.98 32 31.96 32 0 32 C0 21.44 0 10.88 0 0 Z " fill="#FBB913" transform="translate(92,125)"/>
<path d="M0 0 C31.02 0 62.04 0 94 0 C94 10.23 94 20.46 94 31 C62.98 31 31.96 31 0 31 C0 20.77 0 10.54 0 0 Z " fill="#250B00" transform="translate(92,282)"/>
<path d="M0 0 C10.23 0 20.46 0 31 0 C31 31.02 31 62.04 31 94 C20.77 94 10.54 94 0 94 C0 62.98 0 31.96 0 0 Z " fill="#FDBA0F" transform="translate(249,188)"/>
<path d="M0 0 C31.02 0 62.04 0 94 0 C94 10.23 94 20.46 94 31 C62.98 31 31.96 31 0 31 C0 20.77 0 10.54 0 0 Z " fill="#260B01" transform="translate(186,0)"/>
<path d="M0 0 C30.69 0 61.38 0 93 0 C93 10.23 93 20.46 93 31 C62.31 31 31.62 31 0 31 C0 20.77 0 10.54 0 0 Z " fill="#270C00" transform="translate(187,408)"/>
<path d="M0 0 C10.23 0 20.46 0 31 0 C31 30.69 31 61.38 31 93 C20.77 93 10.54 93 0 93 C0 62.31 0 31.62 0 0 Z " fill="#250B00" transform="translate(280,314)"/>
<path d="M0 0 C9.9 0 19.8 0 30 0 C30 30.69 30 61.38 30 93 C28.68 93 27.36 93 26 93 C25.67 93.66 25.34 94.32 25 95 C21.58335127 95.02908357 18.1667345 95.04682691 14.75 95.0625 C13.78191406 95.07087891 12.81382813 95.07925781 11.81640625 95.08789062 C10.88183594 95.09111328 9.94726562 95.09433594 8.984375 95.09765625 C8.12553711 95.10289307 7.26669922 95.10812988 6.38183594 95.11352539 C4 95 4 95 0 94 C0 62.98 0 31.96 0 0 Z " fill="#260B01" transform="translate(61,314)"/>
<path d="M0 0 C30.69 0 61.38 0 93 0 C93 9.9 93 19.8 93 30 C61.95346692 30.77378246 31.03877093 31.14436762 0 30 C0 20.1 0 10.2 0 0 Z " fill="#250B00" transform="translate(93,158)"/>
<path d="M0 0 C0 20.79 0 41.58 0 63 C-10.23 63 -20.46 63 -31 63 C-31 52.77 -31 42.54 -31 32 C-41.23 32 -51.46 32 -62 32 C-62 52.79 -62 73.58 -62 95 C-62.33 95 -62.66 95 -63 95 C-63 73.88 -63 52.76 -63 31 C-52.77 31 -42.54 31 -32 31 C-32 20.77 -32 10.54 -32 0 C-21.54047279 -2.09190544 -10.65935823 -0.39479105 0 0 Z " fill="#2F160B" transform="translate(92,125)"/>
<path d="M0 0 C10.56 0 21.12 0 32 0 C32 41.25 32 82.5 32 125 C31.67 125 31.34 125 31 125 C31 104.54 31 84.08 31 63 C21.1 63 11.2 63 1 63 C0 62 0 62 -0.12025452 59.52598572 C-0.11803391 58.42678299 -0.11581329 57.32758026 -0.11352539 56.19506836 C-0.11344986 54.95385727 -0.11337433 53.71264618 -0.11329651 52.43382263 C-0.10818911 51.0691626 -0.1029731 49.70450298 -0.09765625 48.33984375 C-0.095792 46.95121817 -0.09436813 45.56259193 -0.09336853 44.17396545 C-0.08954387 40.51278885 -0.07971403 36.8516517 -0.06866455 33.19049072 C-0.05844932 29.45707747 -0.05381597 25.72365767 -0.04882812 21.99023438 C-0.0386219 14.66012137 -0.01905026 7.3301168 0 0 Z " fill="#F8B814" transform="translate(311,157)"/>
<path d="M0 0 C10.89 0 21.78 0 33 0 C33 10.56 33 21.12 33 32 C22.44 32 11.88 32 1 32 C1 41.9 1 51.8 1 62 C-9.56 62 -20.12 62 -31 62 C-31 51.77 -31 41.54 -31 31 C-20.77 31 -10.54 31 0 31 C0 20.77 0 10.54 0 0 Z " fill="#F9B918" transform="translate(374,0)"/>
<path d="M0 0 C10.23 0 20.46 0 31 0 C32.16705258 21.00694636 32.10092874 41.96800229 32 63 C26.99064274 63.65131346 22.18859832 64.13669422 17.125 64.125 C15.45824219 64.12886719 15.45824219 64.12886719 13.7578125 64.1328125 C9.1592266 63.97028452 4.57862097 63.4578621 0 63 C0 42.21 0 21.42 0 0 Z " fill="#280D02" transform="translate(343,376)"/>
<path d="M0 0 C10.56 0 21.12 0 32 0 C32 20.46 32 40.92 32 62 C21.44 62 10.88 62 0 62 C0 41.54 0 21.08 0 0 Z " fill="#260C00" transform="translate(92,63)"/>
<path d="M0 0 C10.23 0 20.46 0 31 0 C31 20.79 31 41.58 31 63 C20.77 63 10.54 63 0 63 C0 42.21 0 21.42 0 0 Z " fill="#280D01" transform="translate(375,313)"/>
<path d="M0 0 C10.23 0 20.46 0 31 0 C31 20.79 31 41.58 31 63 C20.77 63 10.54 63 0 63 C0 42.21 0 21.42 0 0 Z " fill="#270C00" transform="translate(375,94)"/>
<path d="M0 0 C10.23 0 20.46 0 31 0 C31 20.79 31 41.58 31 63 C20.77 63 10.54 63 0 63 C0 42.21 0 21.42 0 0 Z " fill="#FCB911" transform="translate(343,94)"/>
<path d="M0 0 C20.46 0 40.92 0 62 0 C62 10.23 62 20.46 62 31 C41.54 31 21.08 31 0 31 C0 20.77 0 10.54 0 0 Z " fill="#FDDF5A" transform="translate(218,439)"/>
<path d="M0 0 C20.46 0 40.92 0 62 0 C62 10.23 62 20.46 62 31 C41.54 31 21.08 31 0 31 C0 20.77 0 10.54 0 0 Z " fill="#FDB90F" transform="translate(187,94)"/>
<path d="M0 0 C20.46 0 40.92 0 62 0 C62 10.23 62 20.46 62 31 C41.54 31 21.08 31 0 31 C0 20.77 0 10.54 0 0 Z " fill="#260C02" transform="translate(124,31)"/>
<path d="M0 0 C10.23 0 20.46 0 31 0 C31 20.13 31 40.26 31 61 C20.77 61 10.54 61 0 61 C0 40.87 0 20.74 0 0 Z " fill="#250B00" transform="translate(187,314)"/>
<path d="M0 0 C20.13 0 40.26 0 61 0 C61 10.23 61 20.46 61 31 C40.60679176 31.09354683 20.37774668 30.78000944 0 30 C0 20.1 0 10.2 0 0 Z " fill="#FDDF58" transform="translate(125,408)"/>
<path d="M0 0 C1.16097702 0.00007553 2.32195404 0.00015106 3.51811218 0.00022888 C5.3979052 0.00797081 5.3979052 0.00797081 7.31567383 0.01586914 C8.59879959 0.01728409 9.88192535 0.01869904 11.20393372 0.02015686 C14.61190749 0.02397134 18.01983851 0.03379248 21.42779541 0.04486084 C24.9066916 0.05509796 28.38559492 0.05971422 31.86450195 0.06469727 C38.68810739 0.07488479 45.5115955 0.09445911 52.33520508 0.11352539 C52.33520508 10.01352539 52.33520508 19.91352539 52.33520508 30.11352539 C42.76520508 30.11352539 33.19520508 30.11352539 23.33520508 30.11352539 C23.33520508 30.77352539 23.33520508 31.43352539 23.33520508 32.11352539 C22.47459473 31.95505127 21.61398437 31.79657715 20.72729492 31.63330078 C17.47395601 31.13478642 14.34895702 30.91103165 11.06176758 30.79711914 C10.02101074 30.75901123 8.98025391 30.72090332 7.90795898 30.68164062 C6.6052002 30.6385376 5.30244141 30.59543457 3.96020508 30.55102539 C-2.28916992 30.33446289 -2.28916992 30.33446289 -8.66479492 30.11352539 C-8.66479492 20.54352539 -8.66479492 10.97352539 -8.66479492 1.11352539 C-5.51144666 0.0624093 -3.30967209 -0.00717933 0 0 Z " fill="#FDE059" transform="translate(415.664794921875,219.886474609375)"/>
<path d="M0 0 C9.9 0 19.8 0 30 0 C30.02094549 7.66837567 30.04098358 15.33664831 30.05175018 23.00502777 C30.0570399 26.57571125 30.06411339 30.14637115 30.07543945 33.71704102 C30.08834176 37.81006097 30.09322906 41.9030558 30.09765625 45.99609375 C30.10281754 47.28148544 30.10797882 48.56687714 30.11329651 49.89122009 C30.11340981 51.66294334 30.11340981 51.66294334 30.11352539 53.47045898 C30.115746 54.51636703 30.11796661 55.56227509 30.12025452 56.63987732 C30 59 30 59 29 60 C26.9394469 60.09993532 24.8754741 60.13080906 22.8125 60.1328125 C21.55695313 60.13410156 20.30140625 60.13539063 19.0078125 60.13671875 C18.35071289 60.13462402 17.69361328 60.1325293 17.01660156 60.13037109 C15.00838665 60.12502234 13.00039541 60.13031691 10.9921875 60.13671875 C9.73664063 60.13542969 8.48109375 60.13414062 7.1875 60.1328125 C6.02605469 60.13168457 4.86460937 60.13055664 3.66796875 60.12939453 C1 60 1 60 0 59 C-0.09381302 57.15881971 -0.11743954 55.31402359 -0.11352539 53.47045898 C-0.11344986 52.28931015 -0.11337433 51.10816132 -0.11329651 49.89122009 C-0.10813522 48.6058284 -0.10297394 47.32043671 -0.09765625 45.99609375 C-0.0962413 44.68794205 -0.09482635 43.37979034 -0.09336853 42.03199768 C-0.0895441 38.54837141 -0.07971446 35.06478661 -0.06866455 31.58117676 C-0.05844882 28.02873302 -0.05381586 24.47628241 -0.04882812 20.92382812 C-0.03862232 13.94918209 -0.01905064 6.97465003 0 0 Z " fill="#FDB90F" transform="translate(343,314)"/>
<path d="M0 0 C1.10762695 -0.00193359 2.21525391 -0.00386719 3.35644531 -0.00585938 C5.16967285 0.0009082 5.16967285 0.0009082 7.01953125 0.0078125 C8.2528418 0.00974609 9.48615234 0.01167969 10.75683594 0.01367188 C24.79128379 0.07719213 38.80960553 0.57547296 52.83203125 1.1328125 C54.36740005 10.34502531 53.83203125 19.79352868 53.83203125 29.1328125 C34.03203125 29.1328125 14.23203125 29.1328125 -6.16796875 29.1328125 C-6.16796875 0.00712178 -6.16796875 0.00712178 0 0 Z " fill="#FDBA0F" transform="translate(163.16796875,439.8671875)"/>
<path d="M0 0 C0.33 0 0.66 0 1 0 C1 31.02 1 62.04 1 94 C11.23 94 21.46 94 32 94 C32 104.56 32 115.12 32 126 C21.77 126 11.54 126 1 126 C1 132.27 1 138.54 1 145 C0.67 145 0.34 145 0 145 C0 107.38 0 69.76 0 31 C-10.23 31 -20.46 31 -31 31 C-31 30.67 -31 30.34 -31 30 C-20.77 30 -10.54 30 0 30 C0 20.1 0 10.2 0 0 Z " fill="#B46E08" transform="translate(374,63)"/>
<path d="M0 0 C10.89 0 21.78 0 33 0 C33 10.56 33 21.12 33 32 C28.71893302 34.14053349 23.00668045 33.18585451 18.25146484 33.18530273 C16.140093 33.1874844 14.02924779 33.20563103 11.91796875 33.22460938 C10.57291845 33.22754442 9.22786567 33.22952847 7.8828125 33.23046875 C6.65965332 33.23457764 5.43649414 33.23868652 4.17626953 33.24291992 C1.17770578 33.01359087 -0.48572617 32.5785573 -3 31 C-2.01 31 -1.02 31 0 31 C0 20.77 0 10.54 0 0 Z " fill="#F8DD63" transform="translate(436,31)"/>
<path d="M0 0 C10.56 0 21.12 0 32 0 C32 10.56 32 21.12 32 32 C21.44 32 10.88 32 0 32 C0 21.44 0 10.88 0 0 Z " fill="#FDE058" transform="translate(92,125)"/>
<path d="M0 0 C4.18089192 -0.04961351 8.36162566 -0.08582016 12.54272461 -0.10986328 C13.96365343 -0.11989146 15.38456178 -0.13351741 16.80541992 -0.15087891 C18.85340444 -0.17526821 20.90111498 -0.1865149 22.94921875 -0.1953125 C24.17987061 -0.20578613 25.41052246 -0.21625977 26.6784668 -0.22705078 C29.90285303 -0.0066407 32.10634881 0.61200798 35 2 C35.02909769 6.06248489 35.04683174 10.12494286 35.0625 14.1875 C35.07087891 15.33798828 35.07925781 16.48847656 35.08789062 17.67382812 C35.09111328 18.78564453 35.09433594 19.89746094 35.09765625 21.04296875 C35.10289307 22.06414795 35.10812988 23.08532715 35.11352539 24.13745117 C35 27 35 27 34 32 C23.77 32 13.54 32 3 32 C3 21.77 3 11.54 3 1 C2.01 0.67 1.02 0.34 0 0 Z " fill="#FDBA0F" transform="translate(403,62)"/>
<path d="M0 0 C0.33 0 0.66 0 1 0 C1 10.89 1 21.78 1 33 C-9.56 33 -20.12 33 -31 33 C-31 22.77 -31 12.54 -31 2 C-20.77 2 -10.54 2 0 2 C0 1.34 0 0.68 0 0 Z " fill="#FDE058" transform="translate(374,29)"/>
<path d="M0 0 C10.56 0 21.12 0 32 0 C32 10.23 32 20.46 32 31 C21.44 31 10.88 31 0 31 C0 20.77 0 10.54 0 0 Z " fill="#FDB910" transform="translate(92,376)"/>
<path d="M0 0 C10.56 0 21.12 0 32 0 C32 10.23 32 20.46 32 31 C21.44 31 10.88 31 0 31 C0 20.77 0 10.54 0 0 Z " fill="#FDBA0F" transform="translate(280,282)"/>
<path d="M0 0 C1.25159912 0.00523682 2.50319824 0.01047363 3.79272461 0.01586914 C5.00839111 0.0183667 6.22405762 0.02086426 7.4765625 0.0234375 C9.03366943 0.0325415 10.59077637 0.04164551 12.19506836 0.05102539 C17.12444336 0.07165039 22.05381836 0.09227539 27.13256836 0.11352539 C27.13256836 10.34352539 27.13256836 20.57352539 27.13256836 31.11352539 C12.33298158 32.25195514 12.33298158 32.25195514 6.00756836 32.23852539 C4.76749023 32.24110352 3.52741211 32.24368164 2.24975586 32.24633789 C-0.86743164 32.11352539 -0.86743164 32.11352539 -3.86743164 31.11352539 C-3.89208786 26.85937916 -3.91027063 22.60527041 -3.92236328 18.35107422 C-3.92740265 16.90282467 -3.93423417 15.45458022 -3.94287109 14.00634766 C-3.95495411 11.92877951 -3.96066375 9.85127842 -3.96508789 7.77368164 C-3.97032471 6.52208252 -3.97556152 5.2704834 -3.98095703 3.98095703 C-3.8293481 0.15160893 -3.8293481 0.15160893 0 0 Z " fill="#260B01" transform="translate(127.867431640625,438.886474609375)"/>
<path d="M0 0 C10.23 0 20.46 0 31 0 C31 9.9 31 19.8 31 30 C20.2202864 31.65841748 11.22878943 32 0 32 C0 21.44 0 10.88 0 0 Z " fill="#280E03" transform="translate(92,408)"/>
<path d="M0 0 C10.23 0 20.46 0 31 0 C31 10.23 31 20.46 31 31 C20.77 31 10.54 31 0 31 C0 20.77 0 10.54 0 0 Z " fill="#FADE5C" transform="translate(61,157)"/>
<path d="M0 0 C10.23 0 20.46 0 31 0 C31 10.23 31 20.46 31 31 C20.77 31 10.54 31 0 31 C0 20.77 0 10.54 0 0 Z " fill="#270C01" transform="translate(249,157)"/>
<path d="M0 0 C10.23 0 20.46 0 31 0 C31 10.23 31 20.46 31 31 C20.77 31 10.54 31 0 31 C0 20.77 0 10.54 0 0 Z " fill="#FEFEFE" transform="translate(155,94)"/>
<path d="M0 0 C10.23 0 20.46 0 31 0 C31 10.23 31 20.46 31 31 C20.77 31 10.54 31 0 31 C0 20.77 0 10.54 0 0 Z " fill="#FDB90F" transform="translate(249,32)"/>
<path d="M0 0 C1.15564453 -0.00128906 2.31128906 -0.00257813 3.50195312 -0.00390625 C4.70400391 -0.00003906 5.90605469 0.00382813 7.14453125 0.0078125 C8.96500977 0.00201172 8.96500977 0.00201172 10.82226562 -0.00390625 C11.97404297 -0.00261719 13.12582031 -0.00132812 14.3125 0 C15.37106201 0.00112793 16.42962402 0.00225586 17.52026367 0.00341797 C19.95703125 0.1328125 19.95703125 0.1328125 20.95703125 1.1328125 C21.05651576 2.75797651 21.08783397 4.3874201 21.08984375 6.015625 C21.09177734 7.51996094 21.09177734 7.51996094 21.09375 9.0546875 C21.08988281 10.11171875 21.08601563 11.16875 21.08203125 12.2578125 C21.08783203 13.80855469 21.08783203 13.80855469 21.09375 15.390625 C21.09246094 16.40125 21.09117187 17.411875 21.08984375 18.453125 C21.08871582 19.37367676 21.08758789 20.29422852 21.08642578 21.24267578 C20.93801785 24.55749289 20.42628677 27.84802383 19.95703125 31.1328125 C10.05703125 31.1328125 0.15703125 31.1328125 -10.04296875 31.1328125 C-10.04296875 21.2328125 -10.04296875 11.3328125 -10.04296875 1.1328125 C-6.41891871 0.22679999 -3.69683601 0.00392654 0 0 Z " fill="#FCB912" transform="translate(385.04296875,250.8671875)"/>
<path d="M0 0 C4.393125 -0.020625 8.78625 -0.04125 13.3125 -0.0625 C15.38591675 -0.07615601 15.38591675 -0.07615601 17.5012207 -0.09008789 C18.59007568 -0.09258545 19.67893066 -0.09508301 20.80078125 -0.09765625 C21.91622314 -0.10289307 23.03166504 -0.10812988 24.1809082 -0.11352539 C27 0 27 0 30 1 C31.61019425 11.06371409 31.26149649 20.90802806 30 31 C20.1 31 10.2 31 0 31 C0 20.77 0 10.54 0 0 Z " fill="#FCB911" transform="translate(406,282)"/>
<path d="M0 0 C10.23 0 20.46 0 31 0 C31 9.9 31 19.8 31 30 C23.6059375 30.2784375 23.6059375 30.2784375 16.0625 30.5625 C14.50539307 30.62381104 12.94828613 30.68512207 11.34399414 30.74829102 C10.12832764 30.79139404 8.91266113 30.83449707 7.66015625 30.87890625 C6.40855713 30.9260376 5.15695801 30.97316895 3.86743164 31.02172852 C1 31 1 31 0 30 C-0.08783542 27.78144736 -0.10694609 25.56011504 -0.09765625 23.33984375 C-0.09515869 22.12417725 -0.09266113 20.90851074 -0.09008789 19.65600586 C-0.08098389 18.09889893 -0.07187988 16.54179199 -0.0625 14.9375 C-0.041875 10.008125 -0.02125 5.07875 0 0 Z " fill="#250B01" transform="translate(249,283)"/>
<path d="M0 0 C10.23 0 20.46 0 31 0 C31 9.9 31 19.8 31 30 C20.77 30 10.54 30 0 30 C0 20.1 0 10.2 0 0 Z " fill="#250B01" transform="translate(312,440)"/>
<path d="M0 0 C10.23 0 20.46 0 31 0 C31 9.9 31 19.8 31 30 C20.77 30 10.54 30 0 30 C0 20.1 0 10.2 0 0 Z " fill="#FCBA12" transform="translate(311,408)"/>
<path d="M0 0 C9.9 0 19.8 0 30 0 C30 10.23 30 20.46 30 31 C20.1 31 10.2 31 0 31 C0 20.77 0 10.54 0 0 Z " fill="#FDDF58" transform="translate(281,408)"/>
<path d="M0 0 C9.9 0 19.8 0 30 0 C30 10.23 30 20.46 30 31 C20.1 31 10.2 31 0 31 C0 20.77 0 10.54 0 0 Z " fill="#260B00" transform="translate(156,376)"/>
<path d="M0 0 C10.23 0 20.46 0 31 0 C31 10.23 31 20.46 31 31 C21.1 31 11.2 31 1 31 C0.67 20.77 0.34 10.54 0 0 Z " fill="#C07403" transform="translate(124,376)"/>
<path d="M0 0 C10.23 0 20.46 0 31 0 C31 9.9 31 19.8 31 30 C20.77 30 10.54 30 0 30 C0 20.1 0 10.2 0 0 Z " fill="#270B00" transform="translate(343,63)"/>
<path d="M0 0 C9.9 0 19.8 0 30 0 C30 10.23 30 20.46 30 31 C20.1 31 10.2 31 0 31 C0 20.77 0 10.54 0 0 Z " fill="#FDBA11" transform="translate(312,63)"/>
<path d="M0 0 C10.23 0 20.46 0 31 0 C31 9.9 31 19.8 31 30 C27.7819335 31.07268883 25.43706086 31.12923759 22.0546875 31.1328125 C20.89582031 31.13410156 19.73695313 31.13539063 18.54296875 31.13671875 C16.72732422 31.13091797 16.72732422 31.13091797 14.875 31.125 C13.04775391 31.13080078 13.04775391 31.13080078 11.18359375 31.13671875 C10.02730469 31.13542969 8.87101562 31.13414062 7.6796875 31.1328125 C6.61476074 31.13168457 5.54983398 31.13055664 4.45263672 31.12939453 C2 31 2 31 1 30 C0.84126045 27.78312006 0.74866163 25.56144702 0.68359375 23.33984375 C0.64548584 22.12417725 0.60737793 20.90851074 0.56811523 19.65600586 C0.52501221 18.09889893 0.48190918 16.54179199 0.4375 14.9375 C0.293125 10.008125 0.14875 5.07875 0 0 Z " fill="#FDE05B" transform="translate(437,345)"/>
<path d="M0 0 C1.08885498 0.00249756 2.17770996 0.00499512 3.29956055 0.00756836 C4.68183838 0.01667236 6.06411621 0.02577637 7.48828125 0.03515625 C14.07796875 0.06609375 14.07796875 0.06609375 20.80078125 0.09765625 C20.80078125 9.99765625 20.80078125 19.89765625 20.80078125 30.09765625 C10.67578125 31.22265625 10.67578125 31.22265625 6.328125 30.9765625 C5.08276978 30.91190796 5.08276978 30.91190796 3.81225586 30.84594727 C2.29063843 30.75398071 2.29063843 30.75398071 0.73828125 30.66015625 C-2.54109375 30.47453125 -5.82046875 30.28890625 -9.19921875 30.09765625 C-9.19921875 20.52765625 -9.19921875 10.95765625 -9.19921875 1.09765625 C-5.90187229 -0.00145924 -3.4696313 -0.01628935 0 0 Z " fill="#FCBA11" transform="translate(416.19921875,219.90234375)"/>
<path d="M0 0 C9.9 0 19.8 0 30 0 C30 9.9 30 19.8 30 30 C20.1 30 10.2 30 0 30 C0 20.1 0 10.2 0 0 Z " fill="#FDB910" transform="translate(125,408)"/>
<path d="M0 0 C9.9 0 19.8 0 30 0 C30 9.9 30 19.8 30 30 C20.1 30 10.2 30 0 30 C0 20.1 0 10.2 0 0 Z " fill="#270B00" transform="translate(125,345)"/>
<path d="M0 0 C9.9 0 19.8 0 30 0 C30 9.9 30 19.8 30 30 C20.1 30 10.2 30 0 30 C0 20.1 0 10.2 0 0 Z " fill="#C17502" transform="translate(312,32)"/>
<path d="M0 0 C9.9 0 19.8 0 30 0 C30 9.9 30 19.8 30 30 C20.1 30 10.2 30 0 30 C0 20.1 0 10.2 0 0 Z " fill="#260B00" transform="translate(281,32)"/>
<path d="M0 0 C20.79 0 41.58 0 63 0 C63 51.81 63 103.62 63 157 C73.23 157 83.46 157 94 157 C94 157.33 94 157.66 94 158 C83.77 158 73.54 158 63 158 C63.33 168.23 63.66 178.46 64 189 C63.34 189 62.68 189 62 189 C62 126.96 62 64.92 62 1 C41.87 1 21.74 1 1 1 C1.185625 5.640625 1.37125 10.28125 1.5625 15.0625 C2.14319149 31.43885406 1.68262267 47.61705592 1 64 C-16.16 64 -33.32 64 -51 64 C-51 63.67 -51 63.34 -51 63 C-34.17 63 -17.34 63 0 63 C0 53.1 0 43.2 0 33 C-30.69 33 -61.38 33 -93 33 C-93 42.9 -93 52.8 -93 63 C-79.8 63 -66.6 63 -53 63 C-53 63.33 -53 63.66 -53 64 C-66.2 64 -79.4 64 -93 64 C-93 74.23 -93 84.46 -93 95 C-96.63 95 -100.26 95 -104 95 C-104 94.67 -104 94.34 -104 94 C-100.7 94 -97.4 94 -94 94 C-94 84.1 -94 74.2 -94 64 C-104.23 64 -114.46 64 -125 64 C-125 63.67 -125 63.34 -125 63 C-114.77 63 -104.54 63 -94 63 C-94 52.77 -94 42.54 -94 32 C-62.98 32 -31.96 32 0 32 C0 21.44 0 10.88 0 0 Z " fill="#593919" transform="translate(186,125)"/>
<path d="M0 0 C0.33 0 0.66 0 1 0 C1 10.23 1 20.46 1 31 C11.23 31 21.46 31 32 31 C32 41.56 32 52.12 32 63 C21.44 63 10.88 63 0 63 C0 52.77 0 42.54 0 32 C-30.69 32 -61.38 32 -93 32 C-93 42.23 -93 52.46 -93 63 C-124.35 63 -155.7 63 -188 63 C-188 83.46 -188 103.92 -188 125 C-188.33 125 -188.66 125 -189 125 C-189 104.21 -189 83.42 -189 62 C-178.44 62 -167.88 62 -157 62 C-157 51.77 -157 41.54 -157 31 C-156.67 31 -156.34 31 -156 31 C-156 41.23 -156 51.46 -156 62 C-135.54 62 -115.08 62 -94 62 C-94 51.77 -94 41.54 -94 31 C-62.98 31 -31.96 31 0 31 C0 20.77 0 10.54 0 0 Z M1 32 C1 41.9 1 51.8 1 62 C10.9 62 20.8 62 31 62 C31 52.1 31 42.2 31 32 C21.1 32 11.2 32 1 32 Z " fill="#826A3C" transform="translate(280,0)"/>
<path d="M0 0 C21.12 0 42.24 0 64 0 C64 10.56 64 21.12 64 32 C63 33 63 33 60.22436523 33.11352539 C59.01466064 33.10828857 57.80495605 33.10305176 56.55859375 33.09765625 C55.25341797 33.09443359 53.94824219 33.09121094 52.60351562 33.08789062 C51.2148431 33.07953401 49.82617123 33.07106905 48.4375 33.0625 C47.04492344 33.05748666 45.65234519 33.05292347 44.25976562 33.04882812 C40.8398013 33.03699434 37.41992156 33.0205088 34 33 C34 32.34 34 31.68 34 31 C43.57 31 53.14 31 63 31 C63 21.1 63 11.2 63 1 C42.87 1.33 22.74 1.66 2 2 C2 11.57 2 21.14 2 31 C11.9 31 21.8 31 32 31 C31.67 31.66 31.34 32.32 31 33 C21.43 33 11.86 33 2 33 C2 42.57 2 52.14 2 62 C12.23 62 22.46 62 33 62 C33 74.87 33 87.74 33 101 C32.67 101 32.34 101 32 101 C31.22199319 96.20004797 30.88148335 91.61437936 30.90234375 86.75390625 C30.90484131 85.5532251 30.90733887 84.35254395 30.90991211 83.11547852 C30.91901611 81.61299561 30.92812012 80.1105127 30.9375 78.5625 C30.9684375 71.3540625 30.9684375 71.3540625 31 64 C20.77 63.67 10.54 63.34 0 63 C0 53.1 0 43.2 0 33 C-9.9 33 -19.8 33 -30 33 C-30 32.34 -30 31.68 -30 31 C-20.1 31 -10.2 31 0 31 C0 20.77 0 10.54 0 0 Z " fill="#DDBC68" transform="translate(405,219)"/>
<path d="M0 0 C10.23 0 20.46 0 31 0 C31 31.02 31 62.04 31 94 C20.77 94 10.54 94 0 94 C0 62.98 0 31.96 0 0 Z M3 2 C1.16642556 3.83357444 1.88000033 6.39635695 1.87557983 8.8359375 C1.87917511 9.67390869 1.88277039 10.51187988 1.88647461 11.37524414 C1.88632858 12.25321152 1.88618256 13.13117889 1.8860321 14.03575134 C1.88673156 16.95224435 1.89452545 19.86867433 1.90234375 22.78515625 C1.90420782 24.80154892 1.90563177 26.81794204 1.90663147 28.83433533 C1.91045756 34.15265138 1.92028861 39.4709403 1.93133545 44.78924561 C1.94154762 50.21170688 1.94612867 55.63417252 1.95117188 61.05664062 C1.9619108 71.70444094 1.97950833 82.35221398 2 93 C11.24 93 20.48 93 30 93 C30 63.3 30 33.6 30 3 C27.20305318 2.06768439 25.54256569 1.88248658 22.65625 1.90234375 C21.82222656 1.90556641 20.98820312 1.90878906 20.12890625 1.91210938 C18.82759766 1.92467773 18.82759766 1.92467773 17.5 1.9375 C16.19869141 1.94426758 16.19869141 1.94426758 14.87109375 1.95117188 C13.25975175 1.95988856 11.64841863 1.9706578 10.03710938 1.98413086 C7.69136992 2.00240424 5.34579792 2 3 2 Z " fill="#E9AE22" transform="translate(249,188)"/>
<path d="M0 0 C20.79 0 41.58 0 63 0 C63 10.56 63 21.12 63 32 C42.21 32 21.42 32 0 32 C0 41.57 0 51.14 0 61 C-0.33 61 -0.66 61 -1 61 C-1 51.43 -1 41.86 -1 32 C-4.96 32 -8.92 32 -13 32 C-13 31.67 -13 31.34 -13 31 C-8.71 31 -4.42 31 0 31 C0 20.77 0 10.54 0 0 Z M2 2 C2 11.24 2 20.48 2 30 C21.8 30 41.6 30 62 30 C62.2676844 15.9364645 62.2676844 15.9364645 61 2 C45.72942503 1.39305114 30.47135334 0.89896214 15.1875 0.875 C13.97868164 0.87048828 12.76986328 0.86597656 11.52441406 0.86132812 C10.41678711 0.86326172 9.30916016 0.86519531 8.16796875 0.8671875 C7.19110107 0.86831543 6.2142334 0.86944336 5.20776367 0.87060547 C3.02533545 0.75315665 3.02533545 0.75315665 2 2 Z " fill="#CC9C33" transform="translate(155,439)"/>
<path d="M0 0 C0.33 0 0.66 0 1 0 C1 9.9 1 19.8 1 30 C10.57 30 20.14 30 30 30 C30 29.01 30 28.02 30 27 C30.66 27 31.32 27 32 27 C32 28.32 32 29.64 32 31 C42.23 31 52.46 31 63 31 C63.02291161 35.53904366 63.04283781 40.07788802 63.05493164 44.61694336 C63.0599714 46.16219766 63.0668032 47.70744716 63.07543945 49.25268555 C63.08752076 51.46925029 63.09323173 53.68575218 63.09765625 55.90234375 C63.10281754 56.5971434 63.10797882 57.29194305 63.11329651 58.00779724 C63.11349277 59.6722933 63.06189129 61.33665499 63 63 C61.09150052 64.90849948 57.68521226 64.13059633 55.15625 64.1328125 C54.47195923 64.13376923 53.78766846 64.13472595 53.0826416 64.13571167 C51.63338123 64.1363933 50.18411782 64.13454023 48.73486328 64.13037109 C46.50937072 64.12502252 44.28407999 64.1303166 42.05859375 64.13671875 C40.65364539 64.13605797 39.24869715 64.1347768 37.84375 64.1328125 C36.55662109 64.13168457 35.26949219 64.13055664 33.94335938 64.12939453 C31 64 31 64 30 63 C29.91216458 60.78144736 29.89305391 58.56011504 29.90234375 56.33984375 C29.9037587 55.67537735 29.90517365 55.01091095 29.90663147 54.3263092 C29.91224482 52.19666101 29.92479946 50.06711661 29.9375 47.9375 C29.94251329 46.49674631 29.94707649 45.05599097 29.95117188 43.61523438 C29.96221855 40.07678898 29.97949208 36.53840461 30 33 C29.0553186 33.00785522 29.0553186 33.00785522 28.09155273 33.01586914 C25.20687885 33.03680138 22.32222102 33.0497115 19.4375 33.0625 C18.44685547 33.07087891 17.45621094 33.07925781 16.43554688 33.08789062 C15.46552734 33.09111328 14.49550781 33.09433594 13.49609375 33.09765625 C12.61107178 33.10289307 11.7260498 33.10812988 10.81420898 33.11352539 C7.52449209 32.98081798 4.25930231 32.46561462 1 32 C1 42.23 1 52.46 1 63 C0.67 63 0.34 63 0 63 C0 42.21 0 21.42 0 0 Z M31 32 C31.144375 36.929375 31.28875 41.85875 31.4375 46.9375 C31.48060303 48.49460693 31.52370605 50.05171387 31.56811523 51.65600586 C31.60622314 52.87167236 31.64433105 54.08733887 31.68359375 55.33984375 C31.72025146 56.59144287 31.75690918 57.84304199 31.79467773 59.13256836 C31.67803906 61.89630504 31.67803906 61.89630504 33 63 C34.89111673 63.09977024 36.78594186 63.13080672 38.6796875 63.1328125 C40.41412109 63.13474609 40.41412109 63.13474609 42.18359375 63.13671875 C44.01083984 63.13091797 44.01083984 63.13091797 45.875 63.125 C47.69064453 63.13080078 47.69064453 63.13080078 49.54296875 63.13671875 C50.70183594 63.13542969 51.86070312 63.13414062 53.0546875 63.1328125 C54.12187012 63.13168457 55.18905273 63.13055664 56.28857422 63.12939453 C59.0972452 63.11794423 59.0972452 63.11794423 62 62 C62 52.1 62 42.2 62 32 C51.77 32 41.54 32 31 32 Z " fill="#E0CE8A" transform="translate(406,313)"/>
<path d="M0 0 C0.33 0 0.66 0 1 0 C1 19.8 1 39.6 1 60 C11.23 60 21.46 60 32 60 C32 60.33 32 60.66 32 61 C21.77 61 11.54 61 1 61 C1 71.23 1 81.46 1 92 C0.67 92 0.34 92 0 92 C0 81.77 0 71.54 0 61 C-9.9 61 -19.8 61 -30 61 C-30 71.23 -30 81.46 -30 92 C-30.33 92 -30.66 92 -31 92 C-31 81.77 -31 71.54 -31 61 C-41.23 61 -51.46 61 -62 61 C-62 50.77 -62 40.54 -62 30 C-61.67 30 -61.34 30 -61 30 C-61 39.9 -61 49.8 -61 60 C-51.1 60 -41.2 60 -31 60 C-31 50.1 -31 40.2 -31 30 C-30.67 30 -30.34 30 -30 30 C-30 39.9 -30 49.8 -30 60 C-20.1 60 -10.2 60 0 60 C0 40.2 0 20.4 0 0 Z " fill="#4A2509" transform="translate(186,315)"/>
<path d="M0 0 C20.46 0 40.92 0 62 0 C62 10.23 62 20.46 62 31 C41.54 31 21.08 31 0 31 C0 20.77 0 10.54 0 0 Z M2 1 C2 10.24 2 19.48 2 29 C21.14 29 40.28 29 60 29 C61.83158425 19.84207876 61 10.33928382 61 1 C41.53 1 22.06 1 2 1 Z " fill="#F6BC27" transform="translate(187,94)"/>
<path d="M0 0 C4.18089192 -0.04961351 8.36162566 -0.08582016 12.54272461 -0.10986328 C13.96365343 -0.11989146 15.38456178 -0.13351741 16.80541992 -0.15087891 C18.85340444 -0.17526821 20.90111498 -0.1865149 22.94921875 -0.1953125 C24.17987061 -0.20578613 25.41052246 -0.21625977 26.6784668 -0.22705078 C29.90285303 -0.0066407 32.10634881 0.61200798 35 2 C35.02909769 6.06248489 35.04683174 10.12494286 35.0625 14.1875 C35.07087891 15.33798828 35.07925781 16.48847656 35.08789062 17.67382812 C35.09111328 18.78564453 35.09433594 19.89746094 35.09765625 21.04296875 C35.10289307 22.06414795 35.10812988 23.08532715 35.11352539 24.13745117 C35 27 35 27 34 32 C23.77 32 13.54 32 3 32 C3 21.77 3 11.54 3 1 C2.01 0.67 1.02 0.34 0 0 Z M4 3 C4 12.24 4 21.48 4 31 C13.57 31 23.14 31 33 31 C33.020625 27.308125 33.04125 23.61625 33.0625 19.8125 C33.071604 18.6572583 33.08070801 17.5020166 33.09008789 16.31176758 C33.09258545 15.39032959 33.09508301 14.4688916 33.09765625 13.51953125 C33.10289307 12.58214111 33.10812988 11.64475098 33.11352539 10.67895508 C33.05166196 7.58914032 33.05166196 7.58914032 32 3 C22.76 3 13.52 3 4 3 Z " fill="#EDB732" transform="translate(403,62)"/>
<path d="M0 0 C0.33 0 0.66 0 1 0 C1.0246501 5.10863896 1.04283607 10.21724359 1.05493164 15.32592773 C1.05997204 17.06519168 1.0668043 18.80445136 1.07543945 20.54370117 C1.08751792 23.03825937 1.09323108 25.53276173 1.09765625 28.02734375 C1.10281754 28.80963852 1.10797882 29.59193329 1.11329651 30.39793396 C1.11349226 32.26567114 1.06199694 34.13329204 1 36 C0.67 36.33 0.34 36.66 0 37 C-9.57 37 -19.14 37 -29 37 C-29.33 57.79 -29.66 78.58 -30 100 C-30.33 100 -30.66 100 -31 100 C-31.02314315 91.68998125 -31.04092518 83.37997592 -31.05181217 75.06993294 C-31.05703667 71.2114867 -31.06412649 67.35306247 -31.07543945 63.49462891 C-31.08628368 59.7728847 -31.09228011 56.0511617 -31.09487724 52.32940292 C-31.09672871 50.90759828 -31.10034403 49.48579483 -31.10573006 48.06399918 C-31.11296072 46.0766945 -31.11340823 44.08936861 -31.11352539 42.10205078 C-31.115746 40.96953888 -31.11796661 39.83702698 -31.12025452 38.67019653 C-31 36 -31 36 -30 34 C-20.43 34.33 -10.86 34.66 -1 35 C-1.03943821 25.72628847 -1.03943821 25.72628847 -1.09008789 16.45263672 C-1.09258545 15.29006348 -1.09508301 14.12749023 -1.09765625 12.9296875 C-1.10551147 11.15440674 -1.10551147 11.15440674 -1.11352539 9.34326172 C-1.00470177 6.13846468 -0.60517483 3.14523388 0 0 Z " fill="#D8C580" transform="translate(437,89)"/>
<path d="M0 0 C10.23 0 20.46 0 31 0 C31 10.23 31 20.46 31 31 C50.8 31 70.6 31 91 31 C91 31.33 91 31.66 91 32 C71.2 32 51.4 32 31 32 C31 42.23 31 52.46 31 63 C30.67 63 30.34 63 30 63 C30 52.77 30 42.54 30 32 C20.1 32 10.2 32 0 32 C0 31.67 0 31.34 0 31 C9.9 31 19.8 31 30 31 C30 21.1 30 11.2 30 1 C20.1 1 10.2 1 0 1 C0 0.67 0 0.34 0 0 Z " fill="#BC8D31" transform="translate(312,31)"/>
<path d="M0 0 C10.23 0 20.46 0 31 0 C31 10.23 31 20.46 31 31 C20.77 31 10.54 31 0 31 C0 20.77 0 10.54 0 0 Z M2 1 C2 10.24 2 19.48 2 29 C11.24 29 20.48 29 30 29 C30 19.76 30 10.52 30 1 C20.76 1 11.52 1 2 1 Z " fill="#FFFCD5" transform="translate(155,94)"/>
<path d="M0 0 C0.33 0 0.66 0 1 0 C1 10.89 1 21.78 1 33 C-9.23 33 -19.46 33 -30 33 C-30 32.67 -30 32.34 -30 32 C-20.43 32 -10.86 32 -1 32 C-1 22.76 -1 13.52 -1 4 C-10.9 4 -20.8 4 -31 4 C-31 3.34 -31 2.68 -31 2 C-20.77 2 -10.54 2 0 2 C0 1.34 0 0.68 0 0 Z " fill="#F0DA76" transform="translate(374,29)"/>
<path d="M0 0 C0.33 0 0.66 0 1 0 C1 10.23 1 20.46 1 31 C14.2 31 27.4 31 41 31 C41 31.33 41 31.66 41 32 C27.8 32 14.6 32 1 32 C1 42.23 1 52.46 1 63 C-2.63 63 -6.26 63 -10 63 C-10 62.67 -10 62.34 -10 62 C-6.7 62 -3.4 62 0 62 C0 52.1 0 42.2 0 32 C-10.23 32 -20.46 32 -31 32 C-31 31.67 -31 31.34 -31 31 C-20.77 31 -10.54 31 0 31 C0 20.77 0 10.54 0 0 Z " fill="#5C482E" transform="translate(92,157)"/>
<path d="M0 0 C10.56 0 21.12 0 32 0 C32 0.33 32 0.66 32 1 C21.77 1 11.54 1 1 1 C1 10.24 1 19.48 1 29 C10.9 29.33 20.8 29.66 31 30 C31.33 30.66 31.66 31.32 32 32 C21.44 32 10.88 32 0 32 C0 21.44 0 10.88 0 0 Z " fill="#E4C867" transform="translate(92,125)"/>
<path d="M0 0 C10.23 0 20.46 0 31 0 C31 10.23 31 20.46 31 31 C20.77 31 10.54 31 0 31 C0 20.77 0 10.54 0 0 Z M1 1 C0.95875 5.41375 0.9175 9.8275 0.875 14.375 C0.85679199 15.76638184 0.83858398 17.15776367 0.81982422 18.59130859 C0.8148291 19.68266113 0.80983398 20.77401367 0.8046875 21.8984375 C0.79421387 23.01911621 0.78374023 24.13979492 0.77294922 25.29443359 C0.71944677 28.14977843 0.71944677 28.14977843 3 30 C5.81711479 30.27861397 5.81711479 30.27861397 9.1015625 30.1953125 C10.73859131 30.18781982 10.73859131 30.18781982 12.40869141 30.18017578 C14.49576416 30.15286377 14.49576416 30.15286377 16.625 30.125 C21.03875 30.08375 25.4525 30.0425 30 30 C30 20.43 30 10.86 30 1 C20.43 1 10.86 1 1 1 Z " fill="#F4BD2C" transform="translate(249,32)"/>
<path d="M0 0 C0.33 0 0.66 0 1 0 C1 10.23 1 20.46 1 31 C-9.23 31 -19.46 31 -30 31 C-30 30.34 -30 29.68 -30 29 C-21.09 29 -12.18 29 -3 29 C-2.67 28.01 -2.34 27.02 -2 26 C-1.34 26 -0.68 26 0 26 C0 17.42 0 8.84 0 0 Z " fill="#F8C02B" transform="translate(311,282)"/>
<path d="M0 0 C10.23 0 20.46 0 31 0 C31 7.26 31 14.52 31 22 C30.67 22 30.34 22 30 22 C29.505 12.1 29.505 12.1 29 2 C24.87482814 1.94627128 20.75034921 1.90645691 16.625 1.875 C15.449375 1.85824219 14.27375 1.84148437 13.0625 1.82421875 C11.94101562 1.81777344 10.81953125 1.81132812 9.6640625 1.8046875 C8.62717285 1.79421387 7.5902832 1.78374023 6.52197266 1.77294922 C3.82891377 1.74384974 3.82891377 1.74384974 2 4 C1.62760773 6.81402683 1.62760773 6.81402683 1.5859375 10.1015625 C1.54726563 11.31328125 1.50859375 12.525 1.46875 13.7734375 C1.4378125 15.04445313 1.406875 16.31546875 1.375 17.625 C1.33632813 18.90375 1.29765625 20.1825 1.2578125 21.5 C1.16328951 24.66652017 1.07773643 27.8330304 1 31 C0.67 31 0.34 31 0 31 C0 20.77 0 10.54 0 0 Z " fill="#E7AD1A" transform="translate(280,282)"/>
<path d="M0 0 C1.65 0 3.3 0 5 0 C4.51391769 0.54839539 4.02783539 1.09679077 3.52702332 1.6618042 C1.68688247 4.4794492 1.6066742 6.06868818 1.56762695 9.41113281 C1.54783279 10.49195129 1.52803864 11.57276978 1.50764465 12.68634033 C1.50125473 13.84687927 1.49486481 15.00741821 1.48828125 16.203125 C1.47033005 17.39605164 1.45237885 18.58897827 1.43388367 19.8180542 C1.37969629 23.62866683 1.3458569 27.43915359 1.3125 31.25 C1.27933449 33.83335088 1.24484555 36.41668513 1.20898438 39 C1.12396478 45.33322047 1.05565042 51.66645706 1 58 C0.67 58 0.34 58 0 58 C0 38.86 0 19.72 0 0 Z " fill="#F7BC1C" transform="translate(343,314)"/>
<path d="M0 0 C1.32 0.33 2.64 0.66 4 1 C3.34 1.66 2.68 2.32 2 3 C1.6682747 5.50689829 1.6682747 5.50689829 1.68115234 8.45947266 C1.66128265 9.60050446 1.64141296 10.74153625 1.62094116 11.91714478 C1.60361435 13.77186905 1.60361435 13.77186905 1.5859375 15.6640625 C1.56657135 16.92640717 1.5472052 18.18875183 1.5272522 19.48934937 C1.47750955 22.84634212 1.43627428 26.20322315 1.39910889 29.56036377 C1.35911153 32.98565664 1.30799981 36.41078146 1.2578125 39.8359375 C1.1615994 46.55718381 1.07659418 53.27850305 1 60 C0.67 60 0.34 60 0 60 C0 40.2 0 20.4 0 0 Z " fill="#F6BD1B" transform="translate(343,95)"/>
<path d="M0 0 C0.33 0 0.66 0 1 0 C1 8.58 1 17.16 1 26 C1.66 26 2.32 26 3 26 C3.33 27.32 3.66 28.64 4 30 C9.94 30 15.88 30 22 30 C22 30.33 22 30.66 22 31 C14.74 31 7.48 31 0 31 C0 20.77 0 10.54 0 0 Z " fill="#E4A81F" transform="translate(92,376)"/>
<path d="M0 0 C9.9 0 19.8 0 30 0 C30 9.24 30 18.48 30 28 C29.67 28 29.34 28 29 28 C28.505 15.625 28.505 15.625 28 3 C25.3178719 1.65893595 23.11601968 1.78549581 20.1171875 1.68359375 C18.95058594 1.64169922 17.78398437 1.59980469 16.58203125 1.55664062 C15.35871094 1.51732422 14.13539063 1.47800781 12.875 1.4375 C11.64394531 1.39431641 10.41289062 1.35113281 9.14453125 1.30664062 C6.09647147 1.20031296 3.0483281 1.09828219 0 1 C0 0.67 0 0.34 0 0 Z " fill="#401600" transform="translate(125,439)"/>
<path d="M0 0 C0 0.99 0 1.98 0 3 C-3.3 3 -6.6 3 -10 3 C-10 2.67 -10 2.34 -10 2 C-3.375 0 -3.375 0 0 0 Z " fill="#5D4E49" transform="translate(142,468)"/>
<path d="M0 0 C0 2.97 0 5.94 0 9 C-1.37562854 7.71034824 -2.70766393 6.37310707 -4 5 C-4 3 -4 3 -2.5625 1.375 C-1 0 -1 0 0 0 Z " fill="#45352C" transform="translate(375,416)"/>
</svg>
