<?xml version="1.0" encoding="UTF-8"?>
<svg version="1.1" xmlns="http://www.w3.org/2000/svg" width="500" height="500">
<path d="M0 0 C31.68 0 63.36 0 96 0 C96 9.9 96 19.8 96 30 C96.99 29.505 96.99 29.505 98 29 C100.00855352 28.90280009 102.020347 28.86923467 104.03125 28.8671875 C105.23394531 28.86589844 106.43664062 28.86460938 107.67578125 28.86328125 C108.93777344 28.86714844 110.19976562 28.87101562 111.5 28.875 C113.39298828 28.86919922 113.39298828 28.86919922 115.32421875 28.86328125 C117.12826172 28.86521484 117.12826172 28.86521484 118.96875 28.8671875 C120.07669922 28.86831543 121.18464844 28.86944336 122.32617188 28.87060547 C125 29 125 29 127 30 C127 40.23 127 50.46 127 61 C137.23 61 147.46 61 158 61 C158.33 71.23 158.66 81.46 159 92 C163.05667969 91.98839844 167.11335938 91.97679688 171.29296875 91.96484375 C174.53412597 91.95840964 177.77528137 91.95298794 181.01644135 91.94824982 C184.43423247 91.94297633 187.85199866 91.93593265 191.26977539 91.92456055 C195.19417008 91.91158495 199.11855471 91.90675742 203.04296875 91.90234375 C204.26396774 91.89718246 205.48496674 91.89202118 206.7429657 91.88670349 C207.8837709 91.88662796 209.02457611 91.88655243 210.19995117 91.88647461 C211.20144699 91.884254 212.20294281 91.88203339 213.23478699 91.87974548 C216 92 216 92 221 93 C221 103.23 221 113.46 221 124 C230.82803025 123.96040272 230.82803025 123.96040272 240.65600586 123.90991211 C242.47950562 123.90616577 242.47950562 123.90616577 244.33984375 123.90234375 C245.59144287 123.89710693 246.84304199 123.89187012 248.13256836 123.88647461 C251 124 251 124 252 125 C252.09396057 126.93306498 252.11743517 128.86958838 252.11352539 130.80493164 C252.11344986 132.04614273 252.11337433 133.28735382 252.11329651 134.56617737 C252.10818911 135.9308374 252.1029731 137.29549702 252.09765625 138.66015625 C252.095792 140.04878183 252.09436813 141.43740807 252.09336853 142.82603455 C252.08954387 146.48721115 252.07971403 150.1483483 252.06866455 153.80950928 C252.05844932 157.54292263 252.05387067 161.27634234 252.04882812 165.00976562 C252.03809171 172.33986177 252.02101591 179.66992536 252 187 C252.66 186.67 253.32 186.34 254 186 C256.08152667 185.90261219 258.16619734 185.86923159 260.25 185.8671875 C261.4978125 185.86589844 262.745625 185.86460937 264.03125 185.86328125 C265.3409375 185.86714844 266.650625 185.87101563 268 185.875 C269.3096875 185.87113281 270.619375 185.86726562 271.96875 185.86328125 C273.84046875 185.86521484 273.84046875 185.86521484 275.75 185.8671875 C276.89984375 185.86831543 278.0496875 185.86944336 279.234375 185.87060547 C282 186 282 186 284 187 C284 197.23 284 207.46 284 218 C294.23 218 304.46 218 315 218 C315 228.23 315 238.46 315 249 C324.82803025 248.96040272 324.82803025 248.96040272 334.65600586 248.90991211 C336.47950562 248.90616577 336.47950562 248.90616577 338.33984375 248.90234375 C339.59144287 248.89710693 340.84304199 248.89187012 342.13256836 248.88647461 C345 249 345 249 346 250 C346.08790975 252.29151417 346.10694038 254.58572524 346.09765625 256.87890625 C346.09553383 257.90889992 346.09553383 257.90889992 346.09336853 258.95970154 C346.08775479 261.16067801 346.07520007 263.36155409 346.0625 265.5625 C346.05748676 267.05143083 346.05292355 268.54036324 346.04882812 270.02929688 C346.03778093 273.68623075 346.02050713 277.34310558 346 281 C346.99 280.67 347.98 280.34 349 280 C351.0412501 279.90524108 353.08545895 279.86927768 355.12890625 279.8671875 C356.32837891 279.86589844 357.52785156 279.86460937 358.76367188 279.86328125 C360.01728516 279.86714844 361.27089844 279.87101562 362.5625 279.875 C363.81998047 279.87113281 365.07746094 279.86726563 366.37304688 279.86328125 C368.17032227 279.86521484 368.17032227 279.86521484 370.00390625 279.8671875 C371.10549072 279.86831543 372.2070752 279.86944336 373.34204102 279.87060547 C376 280 376 280 378 281 C378 312.02 378 343.04 378 375 C367.44 375 356.88 375 346 375 C346 385.56 346 396.12 346 407 C325.54 407 305.08 407 284 407 C284 417.23 284 427.46 284 438 C281.35099961 439.3245002 279.35500542 439.12712018 276.38867188 439.12939453 C275.21405396 439.13254669 274.03943604 439.13569885 272.82922363 439.13894653 C271.55526733 439.1369223 270.28131104 439.13489807 268.96875 439.1328125 C267.01575989 439.13424759 267.01575989 439.13424759 265.02331543 439.13571167 C262.26601986 439.13718694 259.50875666 439.13503958 256.75146484 439.13037109 C253.21380791 439.12467389 249.67622684 439.12795381 246.13857269 439.13394356 C242.76945901 439.13842194 239.40036584 439.13528818 236.03125 439.1328125 C234.7572937 439.13483673 233.4833374 439.13686096 232.17077637 439.13894653 C230.99615845 439.13579437 229.82154053 439.13264221 228.61132812 439.12939453 C227.5736731 439.12859894 226.53601807 439.12780334 225.46691895 439.12698364 C223 439 223 439 221 438 C221.00785522 439.40076782 221.00785522 439.40076782 221.01586914 440.82983398 C221.0328762 444.28312796 221.04543302 447.73637767 221.05493164 451.18969727 C221.05997121 452.68644918 221.06680287 454.18319616 221.07543945 455.67993164 C221.08752159 457.82699807 221.09323191 459.97399962 221.09765625 462.12109375 C221.10551147 464.06133423 221.10551147 464.06133423 221.11352539 466.04077148 C221 469 221 469 220 470 C218.06693502 470.09396057 216.13041162 470.11743517 214.19506836 470.11352539 C212.95385727 470.11344986 211.71264618 470.11337433 210.43382263 470.11329651 C209.0691626 470.10818911 207.70450298 470.1029731 206.33984375 470.09765625 C204.95121817 470.095792 203.56259193 470.09436813 202.17396545 470.09336853 C198.51278885 470.08954387 194.8516517 470.07971403 191.19049072 470.06866455 C187.45707747 470.05844932 183.72365767 470.05381597 179.99023438 470.04882812 C172.66012137 470.0386219 165.3301168 470.01905026 158 470 C158 479.9 158 489.8 158 500 C147.11 500 136.22 500 125 500 C125 490.43 125 480.86 125 471 C120.60816406 470.93941406 116.21632812 470.87882812 111.69140625 470.81640625 C108.19871886 470.76547063 104.70604923 470.71354906 101.21338654 470.66095734 C97.52143851 470.60563666 93.82948377 470.55207046 90.13745117 470.50268555 C86.58422159 470.45509068 83.03109125 470.40274993 79.47797966 470.34705925 C78.11957189 470.3266135 76.76113688 470.30790415 75.40268135 470.29092598 C73.50610295 470.26693123 71.60961201 470.23629668 69.71313477 470.20532227 C68.09097801 470.18200584 68.09097801 470.18200584 66.43605042 470.15821838 C64 470 64 470 63 469 C62.91216458 466.78144736 62.89305391 464.56011504 62.90234375 462.33984375 C62.90446617 461.34314415 62.90446617 461.34314415 62.90663147 460.3263092 C62.91224482 458.19666101 62.92479946 456.06711661 62.9375 453.9375 C62.94251329 452.49674631 62.94707649 451.05599097 62.95117188 449.61523438 C62.96221855 446.07678898 62.97949208 442.53840461 63 439 C62.24022858 439.00222061 61.48045715 439.00444122 60.69766235 439.00672913 C53.54623969 439.02674549 46.39483056 439.04198102 39.24338722 439.05181217 C35.56654289 439.05703632 31.88972166 439.0641255 28.21289062 439.07543945 C24.6662104 439.08628493 21.11955243 439.09228037 17.5728569 439.09487724 C16.21803817 439.09672849 14.86322069 439.10034338 13.50841141 439.10573006 C11.61450635 439.11296238 9.72057902 439.11340824 7.82666016 439.11352539 C6.20783432 439.11685631 6.20783432 439.11685631 4.55630493 439.12025452 C2 439 2 439 0 438 C0 427.77 0 417.54 0 407 C-20.46 407 -40.92 407 -62 407 C-62 396.44 -62 385.88 -62 375 C-71.57 375 -81.14 375 -91 375 C-91 343.65 -91 312.3 -91 280 C-81.76 280 -72.52 280 -63 280 C-62.93941406 277.84597656 -62.87882812 275.69195312 -62.81640625 273.47265625 C-62.75465759 271.3942499 -62.69125309 269.31590025 -62.62768555 267.23754883 C-62.5842837 265.7893576 -62.54261256 264.34111346 -62.50268555 262.89282227 C-62.44510938 260.81510441 -62.38137972 258.73765427 -62.31640625 256.66015625 C-62.27974854 255.40855713 -62.24309082 254.15695801 -62.20532227 252.86743164 C-62 250 -62 250 -61 249 C-58.78144736 248.91216458 -56.56011504 248.89305391 -54.33984375 248.90234375 C-53.12417725 248.90484131 -51.90851074 248.90733887 -50.65600586 248.90991211 C-49.09889893 248.91901611 -47.54179199 248.92812012 -45.9375 248.9375 C-41.008125 248.958125 -36.07875 248.97875 -31 249 C-31 238.77 -31 228.54 -31 218 C-20.77 218 -10.54 218 0 218 C0 207.77 0 197.54 0 187 C9.24722181 182.3763891 20.66129172 186 31 186 C31.33 165.54 31.66 145.08 32 124 C42.23 124 52.46 124 63 124 C62.96040178 113.84286908 62.96040178 113.84286908 62.90991211 103.68579102 C62.90616577 101.80138306 62.90616577 101.80138306 62.90234375 99.87890625 C62.89710693 98.5854126 62.89187012 97.29191895 62.88647461 95.95922852 C63 93 63 93 64 92 C66.21855264 91.91216458 68.43988496 91.89305391 70.66015625 91.90234375 C71.87582275 91.90484131 73.09148926 91.90733887 74.34399414 91.90991211 C75.90110107 91.91901611 77.45820801 91.92812012 79.0625 91.9375 C83.991875 91.958125 88.92125 91.97875 94 92 C94.33 82.1 94.66 72.2 95 62 C84.44 62 73.88 62 63 62 C63 51.77 63 41.54 63 31 C42.54 31 22.08 31 1 31 C1.03961243 51.35926608 1.03961243 51.35926608 1.09008789 71.71850586 C1.09300676 74.2589514 1.09555539 76.7993974 1.09765625 79.33984375 C1.10026962 80.00407852 1.102883 80.66831329 1.10557556 81.35267639 C1.11285688 83.30012857 1.1133384 85.24760258 1.11352539 87.19506836 C1.115746 88.29427109 1.11796661 89.39347382 1.12025452 90.52598572 C1 93 1 93 0 94 C-2.21855264 94.08783542 -4.43988496 94.10694609 -6.66015625 94.09765625 C-7.87582275 94.09515869 -9.09148926 94.09266113 -10.34399414 94.09008789 C-12.67965454 94.07643188 -12.67965454 94.07643188 -15.0625 94.0625 C-19.991875 94.041875 -24.92125 94.02125 -30 94 C-30 104.23 -30 114.46 -30 125 C-40.23 125 -50.46 125 -61 125 C-60.96040178 135.15713092 -60.96040178 135.15713092 -60.90991211 145.31420898 C-60.90741455 146.57048096 -60.90491699 147.82675293 -60.90234375 149.12109375 C-60.89448853 151.06133423 -60.89448853 151.06133423 -60.88647461 153.04077148 C-61 156 -61 156 -62 157 C-64.14558827 157.08775605 -66.29404421 157.10695219 -68.44140625 157.09765625 C-69.61646729 157.09515869 -70.79152832 157.09266113 -72.00219727 157.09008789 C-74.25954712 157.07643188 -74.25954712 157.07643188 -76.5625 157.0625 C-81.326875 157.041875 -86.09125 157.02125 -91 157 C-91 146.11 -91 135.22 -91 124 C-81.43 124 -71.86 124 -62 124 C-62.33 121.03 -62.66 118.06 -63 115 C-63.07945855 113.15183917 -63.1276756 111.30177163 -63.12939453 109.4519043 C-63.13254669 108.46445724 -63.13569885 107.47701019 -63.13894653 106.4596405 C-63.1369223 105.42495132 -63.13489807 104.39026215 -63.1328125 103.32421875 C-63.13424759 101.69284721 -63.13424759 101.69284721 -63.13571167 100.02851868 C-63.13638846 97.74516746 -63.13456931 95.46181426 -63.13037109 93.1784668 C-63.12498967 89.68078326 -63.13034641 86.1832266 -63.13671875 82.68554688 C-63.13605839 80.46093722 -63.1347781 78.23632764 -63.1328125 76.01171875 C-63.13483673 74.96690842 -63.13686096 73.92209808 -63.13894653 72.84562683 C-63.13579437 71.87394058 -63.13264221 70.90225433 -63.12939453 69.90112305 C-63.12859894 69.04890671 -63.12780334 68.19669037 -63.12698364 67.31864929 C-63 65 -63 65 -62 61 C-51.77 61 -41.54 61 -31 61 C-31.36611894 53.83563325 -31.36611894 53.83563325 -31.74829102 46.67211914 C-31.79139404 45.76067139 -31.83449707 44.84922363 -31.87890625 43.91015625 C-31.9260376 42.99371338 -31.97316895 42.07727051 -32.02172852 41.13305664 C-31.99358134 37.07448735 -31.44820478 33.03384301 -31 29 C-20.77 29 -10.54 29 0 29 C0 19.43 0 9.86 0 0 Z " fill="#7D06D1" transform="translate(91,0)"/>
<path d="M0 0 C0.33 0 0.66 0 1 0 C1 10.23 1 20.46 1 31 C10.82803025 30.96040272 10.82803025 30.96040272 20.65600586 30.90991211 C22.47950562 30.90616577 22.47950562 30.90616577 24.33984375 30.90234375 C25.59144287 30.89710693 26.84304199 30.89187012 28.13256836 30.88647461 C31 31 31 31 32 32 C32.09396057 33.93306498 32.11743517 35.86958838 32.11352539 37.80493164 C32.11344986 39.04614273 32.11337433 40.28735382 32.11329651 41.56617737 C32.10818911 42.9308374 32.1029731 44.29549702 32.09765625 45.66015625 C32.095792 47.04878183 32.09436813 48.43740807 32.09336853 49.82603455 C32.08954387 53.48721115 32.07971403 57.1483483 32.06866455 60.80950928 C32.05844932 64.54292263 32.05387067 68.27634234 32.04882812 72.00976562 C32.03809171 79.33986177 32.02101591 86.66992536 32 94 C32.66 93.67 33.32 93.34 34 93 C36.08152667 92.90261219 38.16619734 92.86923159 40.25 92.8671875 C41.4978125 92.86589844 42.745625 92.86460937 44.03125 92.86328125 C45.3409375 92.86714844 46.650625 92.87101562 48 92.875 C49.96453125 92.86919922 49.96453125 92.86919922 51.96875 92.86328125 C53.84046875 92.86521484 53.84046875 92.86521484 55.75 92.8671875 C56.89984375 92.86831543 58.0496875 92.86944336 59.234375 92.87060547 C62 93 62 93 64 94 C64 104.23 64 114.46 64 125 C74.23 125 84.46 125 95 125 C95 135.23 95 145.46 95 156 C104.82803025 155.96040272 104.82803025 155.96040272 114.65600586 155.90991211 C116.47950562 155.90616577 116.47950562 155.90616577 118.33984375 155.90234375 C119.59144287 155.89710693 120.84304199 155.89187012 122.13256836 155.88647461 C125 156 125 156 126 157 C126.08790975 159.29151417 126.10694038 161.58572524 126.09765625 163.87890625 C126.09553383 164.90889992 126.09553383 164.90889992 126.09336853 165.95970154 C126.08775479 168.16067801 126.07520007 170.36155409 126.0625 172.5625 C126.05748676 174.05143083 126.05292355 175.54036324 126.04882812 177.02929688 C126.03778093 180.68623075 126.02050713 184.34310558 126 188 C126.99 187.67 127.98 187.34 129 187 C131.0412501 186.90524108 133.08545895 186.86927768 135.12890625 186.8671875 C136.32837891 186.86589844 137.52785156 186.86460937 138.76367188 186.86328125 C140.01728516 186.86714844 141.27089844 186.87101563 142.5625 186.875 C143.81998047 186.87113281 145.07746094 186.86726562 146.37304688 186.86328125 C148.17032227 186.86521484 148.17032227 186.86521484 150.00390625 186.8671875 C151.10549072 186.86831543 152.2070752 186.86944336 153.34204102 186.87060547 C156 187 156 187 158 188 C158 219.02 158 250.04 158 282 C126.65 282 95.3 282 63 282 C63 292.23 63 302.46 63 313 C42.21 313 21.42 313 0 313 C0 302.77 0 292.54 0 282 C-10.23 282 -20.46 282 -31 282 C-31 271.77 -31 261.54 -31 251 C-41.23 251 -51.46 251 -62 251 C-62 261.23 -62 271.46 -62 282 C-72.23 282 -82.46 282 -93 282 C-93 271.44 -93 260.88 -93 250 C-103.15713092 250.03959822 -103.15713092 250.03959822 -113.31420898 250.09008789 C-114.57048096 250.09258545 -115.82675293 250.09508301 -117.12109375 250.09765625 C-118.4145874 250.10289307 -119.70808105 250.10812988 -121.04077148 250.11352539 C-124 250 -124 250 -125 249 C-125.08783542 246.78144736 -125.10694609 244.56011504 -125.09765625 242.33984375 C-125.09515869 241.12417725 -125.09266113 239.90851074 -125.09008789 238.65600586 C-125.08098389 237.09889893 -125.07187988 235.54179199 -125.0625 233.9375 C-125.041875 229.008125 -125.02125 224.07875 -125 219 C-135.23 219 -145.46 219 -156 219 C-156 198.54 -156 178.08 -156 157 C-145.77 157 -135.54 157 -125 157 C-125 146.44 -125 135.88 -125 125 C-114.77 125 -104.54 125 -94 125 C-94 93.98 -94 62.96 -94 31 C-62.98 31 -31.96 31 0 31 C0 20.77 0 10.54 0 0 Z " fill="#4E0291" transform="translate(311,93)"/>
<path d="M0 0 C10.56 0 21.12 0 32 0 C32.0212519 7.67193425 32.0412492 15.34375552 32.05175018 23.01569366 C32.05692696 26.59210023 32.06377868 30.16848125 32.07543945 33.74487305 C32.13929461 53.85906154 31.74370669 73.89649565 31 94 C41.56 94 52.12 94 63 94 C63 104.56 63 115.12 63 126 C73.23 126 83.46 126 94 126 C94 146.46 94 166.92 94 188 C83.77 188 73.54 188 63 188 C63 198.23 63 208.46 63 219 C73.56 219 84.12 219 95 219 C95 229.56 95 240.12 95 251 C104.9 251 114.8 251 125 251 C125 240.44 125 229.88 125 219 C145.79 219 166.58 219 188 219 C188 198.87 188 178.74 188 158 C198.23 158 208.46 158 219 158 C219 188.36 219 218.72 219 250 C198.54 250 178.08 250 157 250 C157 260.56 157 271.12 157 282 C136.21 282 115.42 282 94 282 C94 271.77 94 261.54 94 251 C83.77 251 73.54 251 63 251 C63 240.77 63 230.54 63 220 C52.77 220 42.54 220 32 220 C32 230.23 32 240.46 32 251 C21.77 251 11.54 251 1 251 C1 240.44 1 229.88 1 219 C-9.15713092 219.03959822 -9.15713092 219.03959822 -19.31420898 219.09008789 C-20.57048096 219.09258545 -21.82675293 219.09508301 -23.12109375 219.09765625 C-24.4145874 219.10289307 -25.70808105 219.10812988 -27.04077148 219.11352539 C-30 219 -30 219 -31 218 C-31.08783542 215.78144736 -31.10694609 213.56011504 -31.09765625 211.33984375 C-31.09515869 210.12417725 -31.09266113 208.90851074 -31.09008789 207.65600586 C-31.08098389 206.09889893 -31.07187988 204.54179199 -31.0625 202.9375 C-31.041875 198.008125 -31.02125 193.07875 -31 188 C-41.23 188 -51.46 188 -62 188 C-62 167.54 -62 147.08 -62 126 C-51.77 126 -41.54 126 -31 126 C-31 115.44 -31 104.88 -31 94 C-20.77 94 -10.54 94 0 94 C0 62.98 0 31.96 0 0 Z " fill="#7C03D2" transform="translate(217,124)"/>
<path d="M0 0 C9.9 0 19.8 0 30 0 C30 20.13 30 40.26 30 61 C20.1 61.33 10.2 61.66 0 62 C0 82.79 0 103.58 0 125 C9.9 125 19.8 125 30 125 C30 134.9 30 144.8 30 155 C40.56 155 51.12 155 62 155 C62 165.56 62 176.12 62 187 C51.77 187 41.54 187 31 187 C31 197.23 31 207.46 31 218 C10.21 218 -10.58 218 -32 218 C-32 207.44 -32 196.88 -32 186 C-52.79 186 -73.58 186 -95 186 C-95.33 154.98 -95.66 123.96 -96 92 C-80.16 92.495 -80.16 92.495 -64 93 C-64 82.77 -64 72.54 -64 62 C-53.44 62 -42.88 62 -32 62 C-32 51.77 -32 41.54 -32 31 C-21.44 31 -10.88 31 0 31 C0 20.77 0 10.54 0 0 Z " fill="#7D03D3" transform="translate(124,188)"/>
<path d="M0 0 C31.68 0 63.36 0 96 0 C96 9.9 96 19.8 96 30 C96.99 29.505 96.99 29.505 98 29 C100.00855352 28.90280009 102.020347 28.86923467 104.03125 28.8671875 C105.23394531 28.86589844 106.43664062 28.86460938 107.67578125 28.86328125 C108.93777344 28.86714844 110.19976562 28.87101562 111.5 28.875 C113.39298828 28.86919922 113.39298828 28.86919922 115.32421875 28.86328125 C117.12826172 28.86521484 117.12826172 28.86521484 118.96875 28.8671875 C120.07669922 28.86831543 121.18464844 28.86944336 122.32617188 28.87060547 C125 29 125 29 127 30 C127 40.23 127 50.46 127 61 C137.23 61 147.46 61 158 61 C158.33 71.23 158.66 81.46 159 92 C165.10242188 91.98259766 165.10242188 91.98259766 171.328125 91.96484375 C174.57481353 91.95841143 177.82150026 91.9529891 181.06819153 91.94824982 C184.493879 91.94297229 187.91954168 91.93592112 191.34521484 91.92456055 C195.27701517 91.9116033 199.20880542 91.90676078 203.140625 91.90234375 C204.36678528 91.89718246 205.59294556 91.89202118 206.85626221 91.88670349 C208.56758331 91.88659019 208.56758331 91.88659019 210.31347656 91.88647461 C211.31719299 91.884254 212.32090942 91.88203339 213.3550415 91.87974548 C216 92 216 92 220 93 C220 103.23 220 113.46 220 124 C196.05612605 124.93809954 172.16321999 125.15712481 148.203125 125.13037109 C143.03708651 125.12467445 137.87109959 125.12805503 132.70506287 125.13382339 C109.77573733 125.15537768 86.91359104 124.89773398 64 124 C64 113.44 64 102.88 64 92 C73.9 92 83.8 92 94 92 C94.33 82.1 94.66 72.2 95 62 C84.44 62 73.88 62 63 62 C63 51.77 63 41.54 63 31 C42.54 31 22.08 31 1 31 C1.03961243 51.35926608 1.03961243 51.35926608 1.09008789 71.71850586 C1.09300676 74.2589514 1.09555539 76.7993974 1.09765625 79.33984375 C1.10026962 80.00407852 1.102883 80.66831329 1.10557556 81.35267639 C1.11285688 83.30012857 1.1133384 85.24760258 1.11352539 87.19506836 C1.115746 88.29427109 1.11796661 89.39347382 1.12025452 90.52598572 C1 93 1 93 0 94 C-2.21855264 94.08783542 -4.43988496 94.10694609 -6.66015625 94.09765625 C-7.87582275 94.09515869 -9.09148926 94.09266113 -10.34399414 94.09008789 C-12.67965454 94.07643188 -12.67965454 94.07643188 -15.0625 94.0625 C-19.991875 94.041875 -24.92125 94.02125 -30 94 C-30 104.23 -30 114.46 -30 125 C-40.23 125 -50.46 125 -61 125 C-60.96040178 135.15713092 -60.96040178 135.15713092 -60.90991211 145.31420898 C-60.90741455 146.57048096 -60.90491699 147.82675293 -60.90234375 149.12109375 C-60.89448853 151.06133423 -60.89448853 151.06133423 -60.88647461 153.04077148 C-61 156 -61 156 -62 157 C-64.14558827 157.08775605 -66.29404421 157.10695219 -68.44140625 157.09765625 C-69.61646729 157.09515869 -70.79152832 157.09266113 -72.00219727 157.09008789 C-74.25954712 157.07643188 -74.25954712 157.07643188 -76.5625 157.0625 C-81.326875 157.041875 -86.09125 157.02125 -91 157 C-91 146.11 -91 135.22 -91 124 C-81.43 124 -71.86 124 -62 124 C-62.33 121.03 -62.66 118.06 -63 115 C-63.07945855 113.15183917 -63.1276756 111.30177163 -63.12939453 109.4519043 C-63.13254669 108.46445724 -63.13569885 107.47701019 -63.13894653 106.4596405 C-63.1369223 105.42495132 -63.13489807 104.39026215 -63.1328125 103.32421875 C-63.13424759 101.69284721 -63.13424759 101.69284721 -63.13571167 100.02851868 C-63.13638846 97.74516746 -63.13456931 95.46181426 -63.13037109 93.1784668 C-63.12498967 89.68078326 -63.13034641 86.1832266 -63.13671875 82.68554688 C-63.13605839 80.46093722 -63.1347781 78.23632764 -63.1328125 76.01171875 C-63.13483673 74.96690842 -63.13686096 73.92209808 -63.13894653 72.84562683 C-63.13579437 71.87394058 -63.13264221 70.90225433 -63.12939453 69.90112305 C-63.12859894 69.04890671 -63.12780334 68.19669037 -63.12698364 67.31864929 C-63 65 -63 65 -62 61 C-51.77 61 -41.54 61 -31 61 C-31.36611894 53.83563325 -31.36611894 53.83563325 -31.74829102 46.67211914 C-31.79139404 45.76067139 -31.83449707 44.84922363 -31.87890625 43.91015625 C-31.9260376 42.99371338 -31.97316895 42.07727051 -32.02172852 41.13305664 C-31.99358134 37.07448735 -31.44820478 33.03384301 -31 29 C-20.77 29 -10.54 29 0 29 C0 19.43 0 9.86 0 0 Z " fill="#41067C" transform="translate(91,0)"/>
<path d="M0 0 C0.33 0 0.66 0 1 0 C1 10.23 1 20.46 1 31 C9.80582309 30.96142834 9.80582309 30.96142834 18.61157227 30.90991211 C33.4393597 30.87856372 48.1448741 31.52080239 63 32 C63 62.69 63 93.38 63 125 C52.77 125 42.54 125 32 125 C32 135.56 32 146.12 32 157 C21.77 157 11.54 157 1 157 C1 177.46 1 197.92 1 219 C11.23 219 21.46 219 32 219 C32.33 228.9 32.66 238.8 33 249 C42.9 249.33 52.8 249.66 63 250 C63 271.12 63 292.24 63 314 C52.77 314 42.54 314 32 314 C32 292.88 32 271.76 32 250 C21.44 250 10.88 250 0 250 C0 240.1 0 230.2 0 220 C-9.82821939 220.36852556 -9.82821939 220.36852556 -19.65600586 220.74829102 C-20.87167236 220.79139404 -22.08733887 220.83449707 -23.33984375 220.87890625 C-24.59144287 220.9260376 -25.84304199 220.97316895 -27.13256836 221.02172852 C-30 221 -30 221 -31 220 C-31.09925773 218.04175302 -31.12799414 216.07990103 -31.12939453 214.11914062 C-31.13254669 212.86113647 -31.13569885 211.60313232 -31.13894653 210.30700684 C-31.13715675 208.92342087 -31.1351058 207.53983522 -31.1328125 206.15625 C-31.13348559 204.74759911 -31.13445565 203.33894834 -31.13571167 201.93029785 C-31.13718842 198.97451677 -31.13503483 196.01876586 -31.13037109 193.06298828 C-31.12467381 189.26625416 -31.12795293 185.46959072 -31.13394356 181.67285919 C-31.13754979 178.76303572 -31.1364103 175.85322912 -31.13381577 172.94340515 C-31.13314667 171.543106 -31.13397432 170.14280533 -31.13629532 168.74250793 C-31.13882283 166.78862536 -31.13429033 164.83473745 -31.12939453 162.88085938 C-31.12859894 161.76690796 -31.12780334 160.65295654 -31.12698364 159.50524902 C-31 157 -31 157 -30 156 C-20.1 156 -10.2 156 0 156 C0 135.87 0 115.74 0 95 C-9.9 95 -19.8 95 -30 95 C-30 105.23 -30 115.46 -30 126 C-40.56 126 -51.12 126 -62 126 C-62 136.23 -62 146.46 -62 157 C-72.56 157 -83.12 157 -94 157 C-94 167.23 -94 177.46 -94 188 C-98.929375 188.020625 -103.85875 188.04125 -108.9375 188.0625 C-111.2731604 188.07615601 -111.2731604 188.07615601 -113.65600586 188.09008789 C-115.47950562 188.09383423 -115.47950562 188.09383423 -117.33984375 188.09765625 C-118.59144287 188.10289307 -119.84304199 188.10812988 -121.13256836 188.11352539 C-124 188 -124 188 -125 187 C-125.10012401 184.79349344 -125.1308118 182.58377614 -125.1328125 180.375 C-125.13376923 179.71290527 -125.13472595 179.05081055 -125.13571167 178.36865234 C-125.13639326 176.96647039 -125.13454042 175.5642853 -125.13037109 174.16210938 C-125.12502246 172.00904287 -125.1303167 169.85618498 -125.13671875 167.703125 C-125.13605796 166.34374954 -125.13477679 164.9843742 -125.1328125 163.625 C-125.13168457 162.37976563 -125.13055664 161.13453125 -125.12939453 159.8515625 C-125 157 -125 157 -124 156 C-121.78144736 155.91216458 -119.56011504 155.89305391 -117.33984375 155.90234375 C-116.12417725 155.90484131 -114.90851074 155.90733887 -113.65600586 155.90991211 C-112.09889893 155.91901611 -110.54179199 155.92812012 -108.9375 155.9375 C-104.008125 155.958125 -99.07875 155.97875 -94 156 C-94 145.77 -94 135.54 -94 125 C-83.77 125 -73.54 125 -63 125 C-63 114.77 -63 104.54 -63 94 C-53.75277819 89.3763891 -42.33870828 93 -32 93 C-31.67 72.54 -31.34 52.08 -31 31 C-20.77 31 -10.54 31 0 31 C0 20.77 0 10.54 0 0 Z " fill="#620FA1" transform="translate(154,93)"/>
<path d="M0 0 C10.56 0 21.12 0 32 0 C32 10.23 32 20.46 32 31 C42.23 31 52.46 31 63 31 C63 41.23 63 51.46 63 62 C65.21332031 61.9278125 67.42664063 61.855625 69.70703125 61.78125 C84.32450387 61.31738112 98.93656352 60.89919343 113.5625 60.875 C114.69598877 60.87048828 115.82947754 60.86597656 116.99731445 60.86132812 C118.03073975 60.86326172 119.06416504 60.86519531 120.12890625 60.8671875 C121.02681885 60.86831543 121.92473145 60.86944336 122.84985352 60.87060547 C125 61 125 61 127 62 C127 93.02 127 124.04 127 156 C95.65 156 64.3 156 32 156 C32 155.67 32 155.34 32 155 C52.46 155 72.92 155 94 155 C94 124.64 94 94.28 94 63 C83.77 63 73.54 63 63 63 C63 83.13 63 103.26 63 124 C42.21 124 21.42 124 0 124 C0 134.56 0 145.12 0 156 C-9.9 156 -19.8 156 -30 156 C-30 145.44 -30 134.88 -30 124 C-40.56 124 -51.12 124 -62 124 C-62 113.77 -62 103.54 -62 93 C-41.54 93 -21.08 93 0 93 C0 62.31 0 31.62 0 0 Z " fill="#7C03D2" transform="translate(342,219)"/>
<path d="M0 0 C31.35 0 62.7 0 95 0 C95 9.57 95 19.14 95 29 C74.20269327 29.76937313 53.47507449 30.13650902 32.66699219 30.06866455 C29.07162104 30.05813287 25.47624174 30.05380552 21.88085938 30.04882812 C14.92055455 30.03834195 7.96028045 30.02145397 1 30 C1.00222061 30.78704819 1.00444122 31.57409637 1.00672913 32.38499451 C1.02673113 39.7869033 1.04197366 47.18879908 1.05181217 54.59072781 C1.0570402 58.39651577 1.06413638 62.20228148 1.07543945 66.00805664 C1.0862712 69.67792544 1.09227744 73.34777278 1.09487724 77.01765633 C1.09673097 78.42074992 1.1003506 79.82384229 1.10573006 81.2269268 C1.11294419 83.1856968 1.11340809 85.1444882 1.11352539 87.10327148 C1.115746 88.22023911 1.11796661 89.33720673 1.12025452 90.48802185 C1 93 1 93 0 94 C-2.21855264 94.08783542 -4.43988496 94.10694609 -6.66015625 94.09765625 C-7.87582275 94.09515869 -9.09148926 94.09266113 -10.34399414 94.09008789 C-12.67965454 94.07643188 -12.67965454 94.07643188 -15.0625 94.0625 C-19.991875 94.041875 -24.92125 94.02125 -30 94 C-30 104.23 -30 114.46 -30 125 C-40.23 125 -50.46 125 -61 125 C-60.96040178 135.15713092 -60.96040178 135.15713092 -60.90991211 145.31420898 C-60.90741455 146.57048096 -60.90491699 147.82675293 -60.90234375 149.12109375 C-60.89448853 151.06133423 -60.89448853 151.06133423 -60.88647461 153.04077148 C-61 156 -61 156 -62 157 C-64.14558827 157.08775605 -66.29404421 157.10695219 -68.44140625 157.09765625 C-69.61646729 157.09515869 -70.79152832 157.09266113 -72.00219727 157.09008789 C-74.25954712 157.07643188 -74.25954712 157.07643188 -76.5625 157.0625 C-81.326875 157.041875 -86.09125 157.02125 -91 157 C-91 146.11 -91 135.22 -91 124 C-81.43 124 -71.86 124 -62 124 C-62.33 121.03 -62.66 118.06 -63 115 C-63.07945855 113.15183917 -63.1276756 111.30177163 -63.12939453 109.4519043 C-63.13254669 108.46445724 -63.13569885 107.47701019 -63.13894653 106.4596405 C-63.1369223 105.42495132 -63.13489807 104.39026215 -63.1328125 103.32421875 C-63.13424759 101.69284721 -63.13424759 101.69284721 -63.13571167 100.02851868 C-63.13638846 97.74516746 -63.13456931 95.46181426 -63.13037109 93.1784668 C-63.12498967 89.68078326 -63.13034641 86.1832266 -63.13671875 82.68554688 C-63.13605839 80.46093722 -63.1347781 78.23632764 -63.1328125 76.01171875 C-63.13483673 74.96690842 -63.13686096 73.92209808 -63.13894653 72.84562683 C-63.13579437 71.87394058 -63.13264221 70.90225433 -63.12939453 69.90112305 C-63.12859894 69.04890671 -63.12780334 68.19669037 -63.12698364 67.31864929 C-63 65 -63 65 -62 61 C-51.77 61 -41.54 61 -31 61 C-31.36611894 53.83563325 -31.36611894 53.83563325 -31.74829102 46.67211914 C-31.79139404 45.76067139 -31.83449707 44.84922363 -31.87890625 43.91015625 C-31.9260376 42.99371338 -31.97316895 42.07727051 -32.02172852 41.13305664 C-31.99358134 37.07448735 -31.44820478 33.03384301 -31 29 C-20.77 29 -10.54 29 0 29 C0 19.43 0 9.86 0 0 Z " fill="#1D0D36" transform="translate(91,0)"/>
<path d="M0 0 C10.23 0 20.46 0 31 0 C31 30.36 31 60.72 31 92 C10.54 92 -9.92 92 -31 92 C-31 102.56 -31 113.12 -31 124 C-51.79 124 -72.58 124 -94 124 C-94 113.77 -94 103.54 -94 93 C-104.23 93 -114.46 93 -125 93 C-125 82.44 -125 71.88 -125 61 C-114.44 61 -103.88 61 -93 61 C-93 71.56 -93 82.12 -93 93 C-83.1 93 -73.2 93 -63 93 C-63 82.44 -63 71.88 -63 61 C-42.21 61 -21.42 61 0 61 C0 40.87 0 20.74 0 0 Z " fill="#B01BFC" transform="translate(405,282)"/>
<path d="M0 0 C9.9 0 19.8 0 30 0 C30 20.13 30 40.26 30 61 C51.12 61 72.24 61 94 61 C94 71.56 94 82.12 94 93 C103.9 93 113.8 93 124 93 C124 82.44 124 71.88 124 61 C134.56 61 145.12 61 156 61 C156 71.56 156 82.12 156 93 C145.77 93 135.54 93 125 93 C125 103.23 125 113.46 125 124 C104.21 124 83.42 124 62 124 C62 113.44 62 102.88 62 92 C41.54 92 21.08 92 0 92 C0 61.64 0 31.28 0 0 Z " fill="#B01BFD" transform="translate(30,282)"/>
<path d="M0 0 C10.23 0 20.46 0 31 0 C31 30.69 31 61.38 31 93 C20.77 93 10.54 93 0 93 C0 103.23 0 113.46 0 124 C-10.23 124 -20.46 124 -31 124 C-31 103.87 -31 83.74 -31 63 C-20.77 63 -10.54 63 0 63 C0 42.21 0 21.42 0 0 Z " fill="#3D007A" transform="translate(186,125)"/>
<path d="M0 0 C26 0 26 0 29 1 C29.33 31.69 29.66 62.38 30 94 C60.195 94.495 60.195 94.495 91 95 C91 105.56 91 116.12 91 127 C70.54 127 50.08 127 29 127 C29 116.44 29 105.88 29 95 C19.43 95 9.86 95 0 95 C0 63.65 0 32.3 0 0 Z " fill="#200D39" transform="translate(0,280)"/>
<path d="M0 0 C9.9 0 19.8 0 30 0 C30 20.13 30 40.26 30 61 C9.87 61.66 -10.26 62.32 -31 63 C-31.33 72.9 -31.66 82.8 -32 93 C-42.23 93 -52.46 93 -63 93 C-63 82.77 -63 72.54 -63 62 C-52.77 62 -42.54 62 -32 62 C-32 51.77 -32 41.54 -32 31 C-21.44 31 -10.88 31 0 31 C0 20.77 0 10.54 0 0 Z " fill="#B11BFE" transform="translate(124,188)"/>
<path d="M0 0 C1.19947266 -0.00128906 2.39894531 -0.00257813 3.63476562 -0.00390625 C4.88837891 -0.00003906 6.14199219 0.00382812 7.43359375 0.0078125 C8.69107422 0.00394531 9.94855469 0.00007813 11.24414062 -0.00390625 C13.04141602 -0.00197266 13.04141602 -0.00197266 14.875 0 C15.97658447 0.00112793 17.07816895 0.00225586 18.21313477 0.00341797 C20.87109375 0.1328125 20.87109375 0.1328125 22.87109375 1.1328125 C22.87109375 32.1528125 22.87109375 63.1728125 22.87109375 95.1328125 C12.31109375 95.1328125 1.75109375 95.1328125 -9.12890625 95.1328125 C-9.12890625 64.1128125 -9.12890625 33.0928125 -9.12890625 1.1328125 C-5.85992917 0.04315347 -3.43915375 0.0035178 0 0 Z " fill="#24123C" transform="translate(446.12890625,279.8671875)"/>
<path d="M0 0 C9.9 0 19.8 0 30 0 C30.86251542 20.79620506 30.95033888 41.22399751 30 62 C26.28111134 62.8632601 22.85703512 63.11721556 19.04296875 63.09765625 C17.93115234 63.09443359 16.81933594 63.09121094 15.67382812 63.08789062 C14.52333984 63.07951172 13.37285156 63.07113281 12.1875 63.0625 C11.01767578 63.05798828 9.84785156 63.05347656 8.64257812 63.04882812 C5.76166642 63.0370693 2.88085956 63.02063426 0 63 C0.00785522 64.40076782 0.00785522 64.40076782 0.01586914 65.82983398 C0.0328762 69.28312796 0.04543302 72.73637767 0.05493164 76.18969727 C0.05997121 77.68644918 0.06680287 79.18319616 0.07543945 80.67993164 C0.08752159 82.82699807 0.09323191 84.97399962 0.09765625 87.12109375 C0.10551147 89.06133423 0.10551147 89.06133423 0.11352539 91.04077148 C0 94 0 94 -1 95 C-3.14558827 95.08775605 -5.29404421 95.10695219 -7.44140625 95.09765625 C-8.61646729 95.09515869 -9.79152832 95.09266113 -11.00219727 95.09008789 C-12.50709717 95.08098389 -14.01199707 95.07187988 -15.5625 95.0625 C-20.326875 95.041875 -25.09125 95.02125 -30 95 C-30 84.11 -30 73.22 -30 62 C-20.43 62 -10.86 62 -1 62 C-1.33 59.03 -1.66 56.06 -2 53 C-2.07542469 51.13061414 -2.1183103 49.25932845 -2.11352539 47.38842773 C-2.11344986 46.38806992 -2.11337433 45.3877121 -2.11329651 44.35704041 C-2.10555458 42.78618431 -2.10555458 42.78618431 -2.09765625 41.18359375 C-2.0962413 40.08652603 -2.09482635 38.98945831 -2.09336853 37.85914612 C-2.08781012 34.38523531 -2.07526546 30.91139104 -2.0625 27.4375 C-2.05747962 25.06966239 -2.05291766 22.70182377 -2.04882812 20.33398438 C-2.03785435 14.55596722 -2.02115811 8.77798836 -2 3 C-1.34 3 -0.68 3 0 3 C0 2.01 0 1.02 0 0 Z " fill="#211139" transform="translate(30,62)"/>
<path d="M0 0 C10.23 0 20.46 0 31 0 C31.33 9.9 31.66 19.8 32 30 C46.85 30.495 46.85 30.495 62 31 C62 52.12 62 73.24 62 95 C51.77 95 41.54 95 31 95 C31 73.88 31 52.76 31 31 C20.77 31 10.54 31 0 31 C0 20.77 0 10.54 0 0 Z " fill="#3B0076" transform="translate(155,312)"/>
<path d="M0 0 C1.12812103 -0.00315216 2.25624207 -0.00630432 3.41854858 -0.009552 C4.64248322 -0.00752777 5.86641785 -0.00550354 7.12744141 -0.00341797 C9.00672836 -0.00485306 9.00672836 -0.00485306 10.92398071 -0.00631714 C13.57874985 -0.00699879 16.23342748 -0.00564497 18.88818359 -0.00097656 C22.2866402 0.00470902 25.68501763 0.00144827 29.0834713 -0.00454903 C32.32729747 -0.00903913 35.57111419 -0.00589129 38.81494141 -0.00341797 C40.03482758 -0.0054422 41.25471375 -0.00746643 42.51156616 -0.009552 C43.64599152 -0.00639984 44.78041687 -0.00324768 45.94921875 0 C46.94690277 0.00079559 47.94458679 0.00159119 48.97250366 0.00241089 C51.60400391 0.12939453 51.60400391 0.12939453 55.60400391 1.12939453 C55.60400391 11.35939453 55.60400391 21.58939453 55.60400391 32.12939453 C39.47066552 32.72417198 23.37156885 33.23340321 7.22900391 33.25439453 C6.54675751 33.25689209 5.86451111 33.25938965 5.16159058 33.26196289 C3.23875799 33.26778199 1.31590545 33.2652101 -0.60693359 33.26220703 C-2.25121338 33.26051514 -2.25121338 33.26051514 -3.92871094 33.25878906 C-6.39599609 33.12939453 -6.39599609 33.12939453 -7.39599609 32.12939453 C-7.48390584 29.83788036 -7.50293648 27.54366929 -7.49365234 25.25048828 C-7.4922374 24.56382584 -7.49082245 23.87716339 -7.48936462 23.16969299 C-7.48375089 20.96871652 -7.47119616 18.76784044 -7.45849609 16.56689453 C-7.45348286 15.0779637 -7.44891965 13.58903129 -7.44482422 12.10009766 C-7.43377702 8.44316378 -7.41650322 4.78628895 -7.39599609 1.12939453 C-4.79859575 -0.16930564 -2.90847745 0.00232304 0 0 Z " fill="#200E39" transform="translate(255.39599609375,91.87060546875)"/>
<path d="M0 0 C0.33 0 0.66 0 1 0 C1 10.23 1 20.46 1 31 C10.9 31 20.8 31 31 31 C31 31.33 31 31.66 31 32 C20.77 32 10.54 32 0 32 C0 52.46 0 72.92 0 94 C-10.23 94 -20.46 94 -31 94 C-31 73.21 -31 52.42 -31 31 C-20.77 31 -10.54 31 0 31 C0 20.77 0 10.54 0 0 Z " fill="#7C02D3" transform="translate(311,93)"/>
<path d="M0 0 C20.79 0 41.58 0 63 0 C63 10.56 63 21.12 63 32 C55.08834674 32.02095494 47.17679366 32.0409921 39.26513672 32.05175018 C35.58104264 32.05703628 31.89697148 32.06410319 28.21289062 32.07543945 C24.6662104 32.08628493 21.11955243 32.09228037 17.5728569 32.09487724 C16.21803817 32.09672849 14.86322069 32.10034338 13.50841141 32.10573006 C11.61450635 32.11296238 9.72057902 32.11340824 7.82666016 32.11352539 C6.20783432 32.11685631 6.20783432 32.11685631 4.55630493 32.12025452 C2 32 2 32 0 31 C0 20.77 0 10.54 0 0 Z " fill="#200D3A" transform="translate(374,375)"/>
<path d="M0 0 C10.23 0 20.46 0 31 0 C31 20.79 31 41.58 31 63 C20.44 63 9.88 63 -1 63 C-1.09357509 41.94560514 -0.77932788 21.0418527 0 0 Z " fill="#3B0175" transform="translate(249,344)"/>
<path d="M0 0 C10.56 0 21.12 0 32 0 C32 10.23 32 20.46 32 31 C42.23 31 52.46 31 63 31 C63 41.23 63 51.46 63 62 C52.77 62 42.54 62 32 62 C31.67 52.1 31.34 42.2 31 32 C20.77 31.67 10.54 31.34 0 31 C0 20.77 0 10.54 0 0 Z " fill="#AF1BFB" transform="translate(342,219)"/>
<path d="M0 0 C10.56 0 21.12 0 32 0 C32 10.23 32 20.46 32 31 C16.655 31.495 16.655 31.495 1 32 C0.67 41.9 0.34 51.8 0 62 C-10.23 62 -20.46 62 -31 62 C-31 51.77 -31 41.54 -31 31 C-20.77 31 -10.54 31 0 31 C0 20.77 0 10.54 0 0 Z " fill="#AF1AFC" transform="translate(186,219)"/>
<path d="M0 0 C10.56 0 21.12 0 32 0 C32.09746647 21.05275774 31.74802257 41.96186534 31 63 C21.1 63 11.2 63 1 63 C0.25197743 41.96186534 -0.09746647 21.05275774 0 0 Z " fill="#B01AFD" transform="translate(217,312)"/>
<path d="M0 0 C7.05375 -0.0309375 7.05375 -0.0309375 14.25 -0.0625 C15.72758789 -0.071604 17.20517578 -0.08070801 18.72753906 -0.09008789 C19.89510742 -0.09258545 21.06267578 -0.09508301 22.265625 -0.09765625 C23.45961914 -0.10289307 24.65361328 -0.10812988 25.88378906 -0.11352539 C28.52087234 -0.0174549 30.48298016 0.34908927 33 1 C35.1694408 1.1472796 37.34229053 1.2472547 39.515625 1.31640625 C40.76601562 1.35830078 42.01640625 1.40019531 43.3046875 1.44335938 C44.60664063 1.48267578 45.90859375 1.52199219 47.25 1.5625 C48.56742188 1.60568359 49.88484375 1.64886719 51.2421875 1.69335938 C54.49468788 1.79941917 57.74726392 1.90148024 61 2 C62.43509221 4.87018441 62.11158506 7.33543723 62.09765625 10.5390625 C62.09443359 11.84101562 62.09121094 13.14296875 62.08789062 14.484375 C62.07953466 15.86458399 62.07106971 17.24479232 62.0625 18.625 C62.05748501 20.01301926 62.0529221 21.40104022 62.04882812 22.7890625 C62.03700976 26.19275132 62.02053434 29.59635439 62 33 C41.29801227 33.13957361 20.69254826 32.76285892 0 32 C0 21.44 0 10.88 0 0 Z " fill="#200E39" transform="translate(155,92)"/>
<path d="M0 0 C20.46 0 40.92 0 62 0 C62 10.23 62 20.46 62 31 C41.54 31 21.08 31 0 31 C0 20.77 0 10.54 0 0 Z " fill="#1E0C38" transform="translate(155,438)"/>
<path d="M0 0 C9.9 0 19.8 0 30 0 C30 20.46 30 40.92 30 62 C19.77 62 9.54 62 -1 62 C-1.02094515 54.07109685 -1.04098329 46.14229335 -1.05175018 38.21338654 C-1.05704002 34.52139609 -1.06411374 30.82942845 -1.07543945 27.13745117 C-1.08627162 23.58429169 -1.09227753 20.03115437 -1.09487724 16.47797966 C-1.0967309 15.11954334 -1.10035038 13.76110829 -1.10573006 12.40268135 C-1.11294475 10.50617777 -1.11340809 8.60965207 -1.11352539 6.71313477 C-1.115746 5.63169693 -1.11796661 4.55025909 -1.12025452 3.43605042 C-1 1 -1 1 0 0 Z " fill="#3A0075" transform="translate(312,250)"/>
<path d="M0 0 C1.62215675 0.00333092 1.62215675 0.00333092 3.27708435 0.00672913 C4.49827469 0.00680466 5.71946503 0.00688019 6.97766113 0.00695801 C8.32022644 0.0120654 9.66279134 0.01728141 11.00535583 0.02259827 C12.37156116 0.02446252 13.73776716 0.02588639 15.10397339 0.02688599 C18.70596654 0.03071058 22.30791959 0.04054035 25.90989685 0.05158997 C29.58298703 0.06180536 33.25608368 0.06638388 36.92918396 0.07142639 C44.14079081 0.08216268 51.35236459 0.09923838 58.56394958 0.12025452 C58.5886058 4.37440074 58.60678857 8.6285095 58.61888123 12.88270569 C58.62392059 14.33095524 58.63075212 15.77919968 58.63938904 17.22743225 C58.65147206 19.3050004 58.6571817 21.38250149 58.66160583 23.46009827 C58.66684265 24.71169739 58.67207947 25.96329651 58.67747498 27.25282288 C58.56394958 30.12025452 58.56394958 30.12025452 57.56394958 31.12025452 C55.73351911 31.2193035 53.89925472 31.24824656 52.06614685 31.24964905 C50.30410667 31.25437729 50.30410667 31.25437729 48.50646973 31.25920105 C47.22735214 31.25717682 45.94823456 31.25515259 44.63035583 31.25306702 C43.32694748 31.25402374 42.02353912 31.25498047 40.68063354 31.25596619 C37.91736165 31.25744302 35.15412203 31.25528942 32.39085388 31.25062561 C28.84532121 31.24493389 25.29986432 31.24820385 21.75433445 31.25419807 C18.37966881 31.25867744 15.00502363 31.25554227 11.63035583 31.25306702 C10.35326248 31.25509125 9.07616913 31.25711548 7.76037598 31.25920105 C6.58253036 31.25604889 5.40468475 31.25289673 4.19114685 31.24964905 C3.15047562 31.24885345 2.10980438 31.24805786 1.03759766 31.24723816 C-1.43605042 31.12025452 -1.43605042 31.12025452 -3.43605042 30.12025452 C-3.46070787 26.00852892 -3.47889 21.89683174 -3.49098206 17.78504944 C-3.49602121 16.38530223 -3.50285258 14.98556032 -3.51148987 13.58583069 C-3.52357361 11.57779675 -3.52874848 9.56972494 -3.53370667 7.56166077 C-3.53894348 6.35195618 -3.5441803 5.14225159 -3.54957581 3.89588928 C-3.3970901 0.1676958 -3.3970901 0.1676958 0 0 Z " fill="#23123B" transform="translate(315.43605041503906,407.87974548339844)"/>
<path d="M0 0 C20.13 0 40.26 0 61 0 C61 9.24 61 18.48 61 28 C61.495 28.99 61.495 28.99 62 30 C60.28103516 29.98259766 60.28103516 29.98259766 58.52734375 29.96484375 C56.99739748 29.95545758 55.46744942 29.94635827 53.9375 29.9375 C53.18533203 29.92912109 52.43316406 29.92074219 51.65820312 29.91210938 C50.54155273 29.90727539 50.54155273 29.90727539 49.40234375 29.90234375 C48.72679443 29.89710693 48.05124512 29.89187012 47.35522461 29.88647461 C44.8441951 29.96638854 44.8441951 29.96638854 41.76904297 30.49780273 C37.57126802 31.05712538 33.52023217 31.14396996 29.29296875 31.1328125 C28.48636307 31.13376923 27.67975739 31.13472595 26.84870911 31.13571167 C25.15703248 31.13638809 23.46535318 31.1345716 21.77368164 31.13037109 C19.17783869 31.12497993 16.582166 31.1303522 13.98632812 31.13671875 C12.33854128 31.13605856 10.69075455 31.13477862 9.04296875 31.1328125 C8.26592087 31.13483673 7.48887299 31.13686096 6.6882782 31.13894653 C1.2299685 31.11498425 1.2299685 31.11498425 -1 30 C-1.02776073 27.62491537 -1.0471904 25.2501749 -1.0625 22.875 C-1.07087891 22.22917969 -1.07925781 21.58335937 -1.08789062 20.91796875 C-1.12147588 13.86506482 -0.50804098 7.11257378 0 0 Z " fill="#22123A" transform="translate(92,408)"/>
<path d="M0 0 C9.9 0 19.8 0 30 0 C30 20.46 30 40.92 30 62 C20.1 62 10.2 62 0 62 C0 41.54 0 21.08 0 0 Z " fill="#390073" transform="translate(124,250)"/>
<path d="M0 0 C9.9 0 19.8 0 30 0 C30 20.46 30 40.92 30 62 C20.1 62 10.2 62 0 62 C0 41.54 0 21.08 0 0 Z " fill="#B01BFD" transform="translate(218,125)"/>
<path d="M0 0 C9.9 0 19.8 0 30 0 C30.02094515 7.92890315 30.04098329 15.85770665 30.05175018 23.78661346 C30.05704002 27.47860391 30.06411374 31.17057155 30.07543945 34.86254883 C30.08627162 38.41570831 30.09227753 41.96884563 30.09487724 45.52202034 C30.0967309 46.88045666 30.10035038 48.23889171 30.10573006 49.59731865 C30.11294475 51.49382223 30.11340809 53.39034793 30.11352539 55.28686523 C30.115746 56.36830307 30.11796661 57.44974091 30.12025452 58.56394958 C30 61 30 61 29 62 C19.43 62 9.86 62 0 62 C0 41.54 0 21.08 0 0 Z " fill="#1E0C37" transform="translate(124,125)"/>
<path d="M0 0 C20.13 0 40.26 0 61 0 C61 9.9 61 19.8 61 30 C40.87 30 20.74 30 0 30 C0 20.1 0 10.2 0 0 Z " fill="#1D0D36" transform="translate(250,439)"/>
<path d="M0 0 C9.9 0 19.8 0 30 0 C30 20.13 30 40.26 30 61 C20.1 61 10.2 61 0 61 C0 40.87 0 20.74 0 0 Z " fill="#7C02D3" transform="translate(124,188)"/>
<path d="M0 0 C9.9 0 19.8 0 30 0 C30 20.13 30 40.26 30 61 C20.1 61 10.2 61 0 61 C0 40.87 0 20.74 0 0 Z " fill="#1E0C37" transform="translate(312,125)"/>
<path d="M0 0 C1.21042969 -0.00128906 2.42085937 -0.00257812 3.66796875 -0.00390625 C4.94285156 -0.00003906 6.21773437 0.00382812 7.53125 0.0078125 C9.44357422 0.00201172 9.44357422 0.00201172 11.39453125 -0.00390625 C13.21017578 -0.00197266 13.21017578 -0.00197266 15.0625 0 C16.18205078 0.00112793 17.30160156 0.00225586 18.45507812 0.00341797 C21.03125 0.1328125 21.03125 0.1328125 22.03125 1.1328125 C22.12506302 2.97399279 22.14868954 4.81878891 22.14477539 6.66235352 C22.14469986 7.84350235 22.14462433 9.02465118 22.14454651 10.24159241 C22.13938522 11.5269841 22.13422394 12.81237579 22.12890625 14.13671875 C22.1274913 15.44487045 22.12607635 16.75302216 22.12461853 18.10081482 C22.1207941 21.58444109 22.11096446 25.06802589 22.09991455 28.55163574 C22.08969882 32.10407948 22.08506586 35.65653009 22.08007812 39.20898438 C22.06987232 46.18363041 22.05030064 53.15816247 22.03125 60.1328125 C12.46125 60.1328125 2.89125 60.1328125 -6.96875 60.1328125 C-6.98969549 52.46443683 -7.00973358 44.79616419 -7.02050018 37.12778473 C-7.0257899 33.55710125 -7.03286339 29.98644135 -7.04418945 26.41577148 C-7.05709176 22.32275153 -7.06197906 18.2297567 -7.06640625 14.13671875 C-7.07156754 12.85132706 -7.07672882 11.56593536 -7.08204651 10.24159241 C-7.08212204 9.06044357 -7.08219757 7.87929474 -7.08227539 6.66235352 C-7.084496 5.61644547 -7.08671661 4.57053741 -7.08900452 3.49293518 C-6.85333157 -1.13239679 -3.99517128 0.00402507 0 0 Z " fill="#7C03D3" transform="translate(162.96875,125.8671875)"/>
<path d="M0 0 C0.33 0 0.66 0 1 0 C1 3.63 1 7.26 1 11 C2.84851562 10.98259766 2.84851562 10.98259766 4.734375 10.96484375 C6.40624846 10.9554512 8.07812359 10.9463526 9.75 10.9375 C10.95849609 10.92493164 10.95849609 10.92493164 12.19140625 10.91210938 C18.83597462 10.88594966 25.3876077 11.36770246 32 12 C32.02465504 16.39656173 32.04283842 20.7930872 32.05493164 25.18969727 C32.05997121 26.68644918 32.06680287 28.18319616 32.07543945 29.67993164 C32.08752159 31.82699807 32.09323191 33.97399962 32.09765625 36.12109375 C32.10289307 37.4145874 32.10812988 38.70808105 32.11352539 40.04077148 C32 43 32 43 31 44 C28.78144736 44.08783542 26.56011504 44.10694609 24.33984375 44.09765625 C23.12417725 44.09515869 21.90851074 44.09266113 20.65600586 44.09008789 C19.09889893 44.08098389 17.54179199 44.07187988 15.9375 44.0625 C11.008125 44.041875 6.07875 44.02125 1 44 C1 54.23 1 64.46 1 75 C-0.98 75 -2.96 75 -5 75 C-5 74.67 -5 74.34 -5 74 C-3.35 74 -1.7 74 0 74 C0 53.54 0 33.08 0 12 C-9.9 12 -19.8 12 -30 12 C-30.33 12.99 -30.66 13.98 -31 15 C-31 13.68 -31 12.36 -31 11 C-20.77 11 -10.54 11 0 11 C0 7.37 0 3.74 0 0 Z " fill="#3E0279" transform="translate(60,50)"/>
<path d="M0 0 C1.32 0 2.64 0 4 0 C4 0.99 4 1.98 4 3 C3.01 3 2.02 3 1 3 C1.06582275 3.54938232 1.13164551 4.09876465 1.19946289 4.66479492 C1.49519198 7.17148879 1.77894397 9.67940117 2.0625 12.1875 C2.16626953 13.05181641 2.27003906 13.91613281 2.37695312 14.80664062 C2.47041016 15.64775391 2.56386719 16.48886719 2.66015625 17.35546875 C2.79369507 18.51018677 2.79369507 18.51018677 2.92993164 19.68823242 C3 22 3 22 2.54101562 24.28125 C1.82231397 27.8929204 1.76648046 31.4755642 1.68359375 35.14453125 C1.66281265 35.91431808 1.64203156 36.68410492 1.62062073 37.47721863 C1.55553951 39.92222667 1.49643409 42.36733683 1.4375 44.8125 C1.39427532 46.47592177 1.35065979 48.13933344 1.30664062 49.80273438 C1.19990093 53.86838648 1.09851829 57.93414071 1 62 C-6.43724899 62.05772768 -13.825711 61.93951791 -21.25 61.5 C-22.10207031 61.45230469 -22.95414063 61.40460937 -23.83203125 61.35546875 C-25.88819013 61.23995421 -27.94412304 61.12042794 -30 61 C-31.7683416 50.00997617 -31.9914421 40.10415157 -31 29 C-20.77 29 -10.54 29 0 29 C0 19.43 0 9.86 0 0 Z " fill="#25143D" transform="translate(91,0)"/>
<path d="M0 0 C1.24910156 -0.00128906 2.49820312 -0.00257813 3.78515625 -0.00390625 C5.74388672 0.00189453 5.74388672 0.00189453 7.7421875 0.0078125 C9.05574219 0.00394531 10.36929687 0.00007812 11.72265625 -0.00390625 C13.59244141 -0.00197266 13.59244141 -0.00197266 15.5 0 C16.64871582 0.00112793 17.79743164 0.00225586 18.98095703 0.00341797 C21.6171875 0.1328125 21.6171875 0.1328125 22.6171875 1.1328125 C22.70509725 3.42432667 22.72412788 5.71853774 22.71484375 8.01171875 C22.71234619 9.26799072 22.70984863 10.5242627 22.70727539 11.81860352 C22.69817139 13.42791748 22.68906738 15.03723145 22.6796875 16.6953125 C22.6590625 21.7896875 22.6384375 26.8840625 22.6171875 32.1328125 C12.0571875 32.1328125 1.4971875 32.1328125 -9.3828125 32.1328125 C-9.3828125 21.9028125 -9.3828125 11.6728125 -9.3828125 1.1328125 C-6.04376799 0.01979766 -3.51651878 0.00344612 0 0 Z " fill="#24113E" transform="translate(351.3828125,185.8671875)"/>
<path d="M0 0 C1.30195312 0.00322266 2.60390625 0.00644531 3.9453125 0.00976562 C5.32552149 0.01812159 6.70572982 0.02658654 8.0859375 0.03515625 C9.47395676 0.04017124 10.86197772 0.04473415 12.25 0.04882812 C15.65368882 0.06064649 19.05729189 0.07712191 22.4609375 0.09765625 C23.92192595 3.01963315 23.57228651 5.596591 23.55859375 8.85546875 C23.55609619 10.0686377 23.55359863 11.28180664 23.55102539 12.53173828 C23.54192139 14.07974121 23.53281738 15.62774414 23.5234375 17.22265625 C23.5028125 22.13140625 23.4821875 27.04015625 23.4609375 32.09765625 C13.2309375 32.09765625 3.0009375 32.09765625 -7.5390625 32.09765625 C-8.46693896 28.3861504 -8.65460483 25.59262983 -8.63671875 21.80078125 C-8.63349609 20.59550781 -8.63027344 19.39023438 -8.62695312 18.1484375 C-8.61857422 16.89417969 -8.61019531 15.63992187 -8.6015625 14.34765625 C-8.59705078 13.07792969 -8.59253906 11.80820313 -8.58789062 10.5 C-8.57610806 7.36583789 -8.55965666 4.23177084 -8.5390625 1.09765625 C-5.66887809 -0.33743596 -3.20362527 -0.01392881 0 0 Z " fill="#26143E" transform="translate(99.5390625,185.90234375)"/>
<path d="M0 0 C10.56 0 21.12 0 32 0 C32 10.23 32 20.46 32 31 C21.44 31 10.88 31 0 31 C0 20.77 0 10.54 0 0 Z " fill="#AE1AFB" transform="translate(248,219)"/>
<path d="M0 0 C10.56 0 21.12 0 32 0 C32 9.9 32 19.8 32 30 C21.11 30 10.22 30 -1 30 C-0.67 20.1 -0.34 10.2 0 0 Z " fill="#201039" transform="translate(217,470)"/>
<path d="M0 0 C0 10.23 0 20.46 0 31 C-10.23 31 -20.46 31 -31 31 C-31 20.77 -31 10.54 -31 0 C-24.44125 -0.2784375 -24.44125 -0.2784375 -17.75 -0.5625 C-16.37682617 -0.62381104 -15.00365234 -0.68512207 -13.58886719 -0.74829102 C-12.50250977 -0.79139404 -11.41615234 -0.83449707 -10.296875 -0.87890625 C-8.63156738 -0.94960327 -8.63156738 -0.94960327 -6.93261719 -1.02172852 C-4 -1 -4 -1 0 0 Z " fill="#1D0D36" transform="translate(437,250)"/>
<path d="M0 0 C10.23 0 20.46 0 31 0 C31 10.23 31 20.46 31 31 C20.77 31 10.54 31 0 31 C0 20.77 0 10.54 0 0 Z " fill="#FEFAFE" transform="translate(280,344)"/>
<path d="M0 0 C10.23 0 20.46 0 31 0 C31 10.23 31 20.46 31 31 C20.77 31 10.54 31 0 31 C0 20.77 0 10.54 0 0 Z " fill="#FEFAFE" transform="translate(155,344)"/>
<path d="M0 0 C10.23 0 20.46 0 31 0 C31 10.23 31 20.46 31 31 C20.77 31 10.54 31 0 31 C0 20.77 0 10.54 0 0 Z " fill="#3A0075" transform="translate(280,312)"/>
<path d="M0 0 C10.23 0 20.46 0 31 0 C31 10.23 31 20.46 31 31 C20.77 31 10.54 31 0 31 C0 20.77 0 10.54 0 0 Z " fill="#AF1BFC" transform="translate(280,250)"/>
<path d="M0 0 C10.23 0 20.46 0 31 0 C31 10.23 31 20.46 31 31 C26.070625 31.020625 21.14125 31.04125 16.0625 31.0625 C13.7268396 31.07615601 13.7268396 31.07615601 11.34399414 31.09008789 C9.52049438 31.09383423 9.52049438 31.09383423 7.66015625 31.09765625 C6.40855713 31.10289307 5.15695801 31.10812988 3.86743164 31.11352539 C1 31 1 31 0 30 C-0.08783542 27.78144736 -0.10694609 25.56011504 -0.09765625 23.33984375 C-0.09515869 22.12417725 -0.09266113 20.90851074 -0.09008789 19.65600586 C-0.08098389 18.09889893 -0.07187988 16.54179199 -0.0625 14.9375 C-0.041875 10.008125 -0.02125 5.07875 0 0 Z " fill="#200D3A" transform="translate(29,250)"/>
<path d="M0 0 C1.11431396 0.00410889 2.22862793 0.00821777 3.37670898 0.01245117 C4.58391602 0.01438477 5.79112305 0.01631836 7.03491211 0.01831055 C8.30141602 0.03055664 9.56791992 0.04280273 10.87280273 0.05541992 C12.77835938 0.05638672 12.77835938 0.05638672 14.72241211 0.05737305 C24.1702022 0.10281939 24.1702022 0.10281939 25.31030273 1.24291992 C25.39821249 3.53443409 25.41724312 5.82864516 25.40795898 8.12182617 C25.40654404 8.80848862 25.40512909 9.49515106 25.40367126 10.20262146 C25.39805753 12.40359793 25.3855028 14.60447401 25.37280273 16.80541992 C25.3677895 18.29435075 25.36322629 19.78328316 25.35913086 21.2722168 C25.34808366 24.92915067 25.33080986 28.58602551 25.31030273 32.24291992 C21.19857714 32.26757738 17.08687996 32.28575951 12.97509766 32.29785156 C11.57535045 32.30289072 10.17560853 32.30972209 8.77587891 32.31835938 C6.76784497 32.33044312 4.75977316 32.33561799 2.75170898 32.34057617 C1.54200439 32.34581299 0.3322998 32.3510498 -0.9140625 32.35644531 C-3.68969727 32.24291992 -3.68969727 32.24291992 -4.68969727 31.24291992 C-4.90758913 27.12714403 -4.87548915 23.00827069 -4.875 18.88720703 C-4.8771846 16.81741728 -4.89533218 14.748162 -4.91430664 12.6784668 C-4.91624023 11.38102539 -4.91817383 10.08358398 -4.92016602 8.74682617 C-4.9242749 7.54872314 -4.92838379 6.35062012 -4.93261719 5.11621094 C-4.60809576 1.27772588 -3.86404354 0.34898097 0 0 Z " fill="#23123C" transform="translate(191.689697265625,28.757080078125)"/>
<path d="M0 0 C9.9 0 19.8 0 30 0 C31.44823511 2.89647022 31.00519634 5.31164917 30.87890625 8.5390625 C30.81425171 10.29790771 30.81425171 10.29790771 30.74829102 12.09228516 C30.68697998 13.58808105 30.62566895 15.08387695 30.5625 16.625 C30.376875 21.36875 30.19125 26.1125 30 31 C20.1 31 10.2 31 0 31 C0 20.77 0 10.54 0 0 Z " fill="#3E007B" transform="translate(218,93)"/>
<path d="M0 0 C9.9 0 19.8 0 30 0 C30 10.23 30 20.46 30 31 C20.1 31 10.2 31 0 31 C0 20.77 0 10.54 0 0 Z " fill="#AF1CFA" transform="translate(218,438)"/>
<path d="M0 0 C1.20970459 0.00523682 2.41940918 0.01047363 3.66577148 0.01586914 C4.84083252 0.0183667 6.01589355 0.02086426 7.2265625 0.0234375 C8.7314624 0.0325415 10.2363623 0.04164551 11.78686523 0.05102539 C16.55124023 0.07165039 21.31561523 0.09227539 26.22436523 0.11352539 C26.22436523 10.34352539 26.22436523 20.57352539 26.22436523 31.11352539 C16.32436523 31.11352539 6.42436523 31.11352539 -3.77563477 31.11352539 C-3.79625977 26.18415039 -3.81688477 21.25477539 -3.83813477 16.17602539 C-3.84723877 14.61891846 -3.85634277 13.06181152 -3.86572266 11.45751953 C-3.86822021 10.24185303 -3.87071777 9.02618652 -3.87329102 7.77368164 C-3.87852783 6.52208252 -3.88376465 5.2704834 -3.88916016 3.98095703 C-3.73760117 0.15287049 -3.73760117 0.15287049 0 0 Z " fill="#1E0D37" transform="translate(378.775634765625,217.886474609375)"/>
<path d="M0 0 C1.20970459 0.00523682 2.41940918 0.01047363 3.66577148 0.01586914 C4.84083252 0.0183667 6.01589355 0.02086426 7.2265625 0.0234375 C8.7314624 0.0325415 10.2363623 0.04164551 11.78686523 0.05102539 C16.55124023 0.07165039 21.31561523 0.09227539 26.22436523 0.11352539 C26.22436523 10.34352539 26.22436523 20.57352539 26.22436523 31.11352539 C16.32436523 31.11352539 6.42436523 31.11352539 -3.77563477 31.11352539 C-3.79625977 26.18415039 -3.81688477 21.25477539 -3.83813477 16.17602539 C-3.84723877 14.61891846 -3.85634277 13.06181152 -3.86572266 11.45751953 C-3.86822021 10.24185303 -3.87071777 9.02618652 -3.87329102 7.77368164 C-3.87852783 6.52208252 -3.88376465 5.2704834 -3.88916016 3.98095703 C-3.73760117 0.15287049 -3.73760117 0.15287049 0 0 Z " fill="#1F0C37" transform="translate(64.775634765625,217.886474609375)"/>
<path d="M0 0 C10.23 0 20.46 0 31 0 C30.87625 4.00125 30.7525 8.0025 30.625 12.125 C30.59100098 13.37555176 30.55700195 14.62610352 30.52197266 15.91455078 C30.46855713 17.41477783 30.46855713 17.41477783 30.4140625 18.9453125 C30.3826416 19.96125488 30.3512207 20.97719727 30.31884766 22.02392578 C30 25 30 25 28 31 C18.76 31 9.52 31 0 31 C0 20.77 0 10.54 0 0 Z " fill="#7B03D1" transform="translate(280,375)"/>
<path d="M0 0 C9.9 0 19.8 0 30 0 C30 9.9 30 19.8 30 30 C20.1 30 10.2 30 0 30 C0 20.1 0 10.2 0 0 Z " fill="#B01BFD" transform="translate(280,407)"/>
<path d="M0 0 C9.9 0 19.8 0 30 0 C30 9.9 30 19.8 30 30 C20.1 30 10.2 30 0 30 C0 20.1 0 10.2 0 0 Z " fill="#B01BFD" transform="translate(156,407)"/>
<path d="M0 0 C9.9 0 19.8 0 30 0 C30 9.9 30 19.8 30 30 C20.1 30 10.2 30 0 30 C0 20.1 0 10.2 0 0 Z " fill="#1E0D37" transform="translate(218,62)"/>
<path d="M0 0 C9.9 0 19.8 0 30 0 C30.020625 3.856875 30.04125 7.71375 30.0625 11.6875 C30.071604 12.89494873 30.08070801 14.10239746 30.09008789 15.34643555 C30.09258545 16.308479 30.09508301 17.27052246 30.09765625 18.26171875 C30.10551147 19.73064575 30.10551147 19.73064575 30.11352539 21.22924805 C30 24 30 24 29 29 C19.43 29 9.86 29 0 29 C0 19.43 0 9.86 0 0 Z " fill="#7D02D4" transform="translate(155,377)"/>
<path d="M0 0 C0.66 0.33 1.32 0.66 2 1 C4.02091115 1.07337428 6.04427311 1.08355323 8.06640625 1.0625 C9.27361328 1.05476563 10.48082031 1.04703125 11.72460938 1.0390625 C13.62436523 1.01972656 13.62436523 1.01972656 15.5625 1 C18.06376008 0.97461938 20.56506885 0.95354278 23.06640625 0.9375 C24.17959229 0.92589844 25.29277832 0.91429687 26.43969727 0.90234375 C29 1 29 1 30 2 C30.08748207 3.92667507 30.10697334 5.85651861 30.09765625 7.78515625 C30.09443359 8.95498047 30.09121094 10.12480469 30.08789062 11.33007812 C30.07951172 12.56177734 30.07113281 13.79347656 30.0625 15.0625 C30.05798828 16.29806641 30.05347656 17.53363281 30.04882812 18.80664062 C30.03699608 21.87114117 30.02051173 24.93554721 30 28 C26.54452397 30.09534185 23.70802469 30.30071628 19.703125 30.4140625 C18.07358887 30.46747803 18.07358887 30.46747803 16.41113281 30.52197266 C15.03795898 30.55597168 13.66478516 30.5899707 12.25 30.625 C5.69125 30.810625 5.69125 30.810625 -1 31 C-0.67 20.77 -0.34 10.54 0 0 Z " fill="#3E007A" transform="translate(186,62)"/>
<path d="M0 0 C21.45 0 42.9 0 65 0 C64.67 10.56 64.34 21.12 64 32 C63.67 32 63.34 32 63 32 C62.67 22.43 62.34 12.86 62 3 C42.2 3 22.4 3 2 3 C1.71060196 22.70097393 1.71060196 22.70097393 1.43188477 42.40209961 C1.39378133 44.86052039 1.35531389 47.31893557 1.31640625 49.77734375 C1.29993042 51.0677356 1.28345459 52.35812744 1.26647949 53.68762207 C1.24629761 54.90566528 1.22611572 56.1237085 1.20532227 57.37866211 C1.18977798 58.44233505 1.1742337 59.506008 1.15821838 60.60191345 C1 63 1 63 0 64 C-2.89143151 64.09523905 -5.75892064 64.12553027 -8.65063477 64.11352539 C-10.0114769 64.11374443 -10.0114769 64.11374443 -11.39981079 64.1139679 C-14.41369985 64.11326841 -17.42752793 64.10547434 -20.44140625 64.09765625 C-22.52505967 64.0957922 -24.60871354 64.09436824 -26.69236755 64.09336853 C-32.18823446 64.08954234 -37.68407513 64.0797112 -43.17993164 64.06866455 C-48.78336227 64.0584526 -54.38679713 64.05387137 -59.99023438 64.04882812 C-70.99350114 64.03808902 -81.99674839 64.02101139 -93 64 C-93 63.67 -93 63.34 -93 63 C-83.1 63 -73.2 63 -63 63 C-63 52.77 -63 42.54 -63 32 C-42.21 32 -21.42 32 0 32 C0 21.44 0 10.88 0 0 Z M-61 33 C-61 42.9 -61 52.8 -61 63 C-40.87 63 -20.74 63 0 63 C0 53.1 0 43.2 0 33 C-20.13 33 -40.26 33 -61 33 Z " fill="#5C2F7D" transform="translate(311,406)"/>
<path d="M0 0 C0.33 0 0.66 0 1 0 C1 10.23 1 20.46 1 31 C10.9 31 20.8 31 31 31 C31 31.33 31 31.66 31 32 C20.77 32 10.54 32 0 32 C0 52.46 0 72.92 0 94 C-10.23 94 -20.46 94 -31 94 C-31 73.21 -31 52.42 -31 31 C-20.77 31 -10.54 31 0 31 C0 20.77 0 10.54 0 0 Z M-29 34 C-30.25717605 35.03419146 -30.25717605 35.03419146 -30.12025452 37.28419495 C-30.11803391 38.29457321 -30.11581329 39.30495148 -30.11352539 40.34594727 C-30.11344986 41.4870546 -30.11337433 42.62816193 -30.11329651 43.80384827 C-30.10813522 45.0454924 -30.10297394 46.28713654 -30.09765625 47.56640625 C-30.0962413 48.83016586 -30.09482635 50.09392548 -30.09336853 51.39598083 C-30.08870582 54.76124889 -30.0797148 58.1264499 -30.06866455 61.49169922 C-30.05844846 64.9234967 -30.05387049 68.35530109 -30.04882812 71.78710938 C-30.0377738 78.52475824 -30.0210171 85.26237525 -30 92 C-20.75458071 93.32077418 -11.33928382 93 -2 93 C-2 73.53 -2 54.06 -2 34 C-10.91 34 -19.82 34 -29 34 Z " fill="#6E19AE" transform="translate(311,93)"/>
<path d="M0 0 C20.46 0 40.92 0 62 0 C62 10.56 62 21.12 62 32 C82.79 32 103.58 32 125 32 C125 52.79 125 73.58 125 95 C124.67 95 124.34 95 124 95 C124 85.1 124 75.2 124 65 C118.06 65 112.12 65 106 65 C106.495 64.01 106.495 64.01 107 63 C111.95 63 116.9 63 122 63 C122.33 53.43 122.66 43.86 123 34 C102.87 34 82.74 34 62 34 C62 38.62 62 43.24 62 48 C61.67 48 61.34 48 61 48 C61 32.49 61 16.98 61 1 C40.87 1 20.74 1 0 1 C0 0.67 0 0.34 0 0 Z " fill="#612A88" transform="translate(30,374)"/>
<path d="M0 0 C0.33 0 0.66 0 1 0 C1 9.9 1 19.8 1 30 C10.9 30 20.8 30 31 30 C31 20.43 31 10.86 31 1 C21.43 1 11.86 1 2 1 C2 0.67 2 0.34 2 0 C11.9 0 21.8 0 32 0 C32 10.23 32 20.46 32 31 C16.655 31.495 16.655 31.495 1 32 C0.67 41.9 0.34 51.8 0 62 C-10.23 62 -20.46 62 -31 62 C-31 51.77 -31 41.54 -31 31 C-20.77 31 -10.54 31 0 31 C0 20.77 0 10.54 0 0 Z M-30 33 C-30.08658277 34.38048306 -30.10704293 35.76527376 -30.09765625 37.1484375 C-30.09443359 37.98890625 -30.09121094 38.829375 -30.08789062 39.6953125 C-30.07951172 40.57960938 -30.07113281 41.46390625 -30.0625 42.375 C-30.05798828 43.2515625 -30.05347656 44.128125 -30.04882812 45.03125 C-30.04008715 46.66456434 -30.0293013 48.29786985 -30.01586914 49.93115234 C-29.98756865 53.62066559 -30 57.31039953 -30 61 C-20.43 61 -10.86 61 -1 61 C-1 51.43 -1 41.86 -1 32 C-5.599375 31.979375 -10.19875 31.95875 -14.9375 31.9375 C-17.11653931 31.92384399 -17.11653931 31.92384399 -19.33959961 31.90991211 C-20.47405518 31.90741455 -21.60851074 31.90491699 -22.77734375 31.90234375 C-23.94515381 31.89710693 -25.11296387 31.89187012 -26.31616211 31.88647461 C-28.91891551 31.69338505 -28.91891551 31.69338505 -30 33 Z " fill="#9F1CEB" transform="translate(92,219)"/>
<path d="M0 0 C0.33 0 0.66 0 1 0 C1 10.23 1 20.46 1 31 C11.23 31 21.46 31 32 31 C32 31.33 32 31.66 32 32 C21.77 32 11.54 32 1 32 C1 52.46 1 72.92 1 94 C0.34 93.67 -0.32 93.34 -1 93 C-0.67 72.87 -0.34 52.74 0 32 C-9.9 32 -19.8 32 -30 32 C-30 52.46 -30 72.92 -30 94 C-30.33 94 -30.66 94 -31 94 C-31 73.21 -31 52.42 -31 31 C-20.77 31 -10.54 31 0 31 C0 20.77 0 10.54 0 0 Z " fill="#5B3B7B" transform="translate(154,93)"/>
<path d="M0 0 C0.33 0 0.66 0 1 0 C1 10.23 1 20.46 1 31 C11.23 31 21.46 31 32 31 C32 41.56 32 52.12 32 63 C21.77 63 11.54 63 1 63 C1 73.23 1 83.46 1 94 C0.67 94 0.34 94 0 94 C-0.33 84.1 -0.66 74.2 -1 64 C-9.91 64 -18.82 64 -28 64 C-28 63.67 -28 63.34 -28 63 C-19.09 62.67 -10.18 62.34 -1 62 C-1.01160156 60.12183594 -1.02320313 58.24367187 -1.03515625 56.30859375 C-1.11321918 37.51616418 -0.73235555 18.77829742 0 0 Z M1 32 C1 41.9 1 51.8 1 62 C10.9 62 20.8 62 31 62 C31 52.1 31 42.2 31 32 C21.1 32 11.2 32 1 32 Z " fill="#3A2158" transform="translate(217,30)"/>
<path d="M0 0 C0.33 0 0.66 0 1 0 C1.86491553 19.41843241 2.05282551 38.57405633 1 58 C0.67 58 0.34 58 0 58 C0 49.09 0 40.18 0 31 C-9.9 31.33 -19.8 31.66 -30 32 C-30 41.57 -30 51.14 -30 61 C-30.33 61 -30.66 61 -31 61 C-31.33 51.1 -31.66 41.2 -32 31 C-52.46 31 -72.92 31 -94 31 C-94 30.67 -94 30.34 -94 30 C-86.3212639 29.8664689 -78.64248198 29.73596587 -70.96363735 29.60884857 C-67.39410905 29.54967286 -63.82460072 29.48963115 -60.25512695 29.42724609 C-40.16631011 29.07699483 -20.09253519 28.9531779 0 29 C0 19.43 0 9.86 0 0 Z " fill="#4C3266" transform="translate(186,0)"/>
<path d="M0 0 C0.33 0 0.66 0 1 0 C1 3.63 1 7.26 1 11 C7.27 11 13.54 11 20 11 C20 11.33 20 11.66 20 12 C13.73 12 7.46 12 1 12 C1.33 21.9 1.66 31.8 2 42 C11.57 42 21.14 42 31 42 C31 42.66 31 43.32 31 44 C21.1 44 11.2 44 1 44 C1 54.23 1 64.46 1 75 C-0.98 75 -2.96 75 -5 75 C-5 74.67 -5 74.34 -5 74 C-3.35 74 -1.7 74 0 74 C0 53.54 0 33.08 0 12 C-9.9 12 -19.8 12 -30 12 C-30.33 12.99 -30.66 13.98 -31 15 C-31 13.68 -31 12.36 -31 11 C-20.77 11 -10.54 11 0 11 C0 7.37 0 3.74 0 0 Z " fill="#513C70" transform="translate(60,50)"/>
<path d="M0 0 C10.23 0 20.46 0 31 0 C31 9.9 31 19.8 31 30 C30.67 30 30.34 30 30 30 C30 20.43 30 10.86 30 1 C20.43 1 10.86 1 1 1 C1.33 20.47 1.66 39.94 2 60 C11.57 60.33 21.14 60.66 31 61 C31 61.33 31 61.66 31 62 C10.25797537 62.94878466 -10.25797537 62.94878466 -31 62 C-31 61.67 -31 61.34 -31 61 C-20.77 61 -10.54 61 0 61 C0 40.87 0 20.74 0 0 Z " fill="#6A07B5" transform="translate(311,188)"/>
<path d="M0 0 C0.33 0 0.66 0 1 0 C1.90880783 20.77687187 1.89965726 41.20792103 1 62 C10.9 62 20.8 62 31 62 C31 51.77 31 41.54 31 31 C31.33 31 31.66 31 32 31 C32 41.23 32 51.46 32 62 C40.58 62 49.16 62 58 62 C58 62.33 58 62.66 58 63 C49.42 63 40.84 63 32 63 C32 73.23 32 83.46 32 94 C31.67 94 31.34 94 31 94 C31 83.77 31 73.54 31 63 C20.77 63 10.54 63 0 63 C0 42.21 0 21.42 0 0 Z " fill="#653B82" transform="translate(374,187)"/>
<path d="M0 0 C0.33 0 0.66 0 1 0 C1.02505615 0.80743652 1.0501123 1.61487305 1.07592773 2.44677734 C1.19165487 6.08968917 1.31448635 9.73232726 1.4375 13.375 C1.47681641 14.64601563 1.51613281 15.91703125 1.55664062 17.2265625 C1.61948242 19.04414062 1.61948242 19.04414062 1.68359375 20.8984375 C1.72025146 22.01911621 1.75690918 23.13979492 1.79467773 24.29443359 C1.82596013 26.96712771 1.82596013 26.96712771 3 29 C16.86 29.495 16.86 29.495 31 30 C32.42917743 32.85835486 32.12980809 35.31257719 32.1328125 38.50390625 C32.13410156 39.80134766 32.13539063 41.09878906 32.13671875 42.43554688 C32.13462402 43.11222412 32.1325293 43.78890137 32.13037109 44.48608398 C32.12501202 46.55785415 32.13032518 48.62940839 32.13671875 50.70117188 C32.13542969 51.99732422 32.13414062 53.29347656 32.1328125 54.62890625 C32.13168457 55.82588135 32.13055664 57.02285645 32.12939453 58.25610352 C32 61 32 61 31 62 C28.9291528 62.1584265 26.85321971 62.25124422 24.77734375 62.31640625 C23.51728516 62.35830078 22.25722656 62.40019531 20.95898438 62.44335938 C19.61849264 62.48317596 18.2779978 62.52288814 16.9375 62.5625 C15.59308477 62.60568042 14.2486834 62.64929456 12.90429688 62.69335938 C9.6029766 62.79985358 6.30157764 62.9018646 3 63 C2.67 62.34 2.34 61.68 2 61 C2.73637695 60.97494385 3.47275391 60.9498877 4.23144531 60.92407227 C7.57113378 60.80795727 10.91055097 60.68530082 14.25 60.5625 C15.40886719 60.52318359 16.56773437 60.48386719 17.76171875 60.44335938 C18.87675781 60.40146484 19.99179688 60.35957031 21.140625 60.31640625 C22.68024902 60.26141968 22.68024902 60.26141968 24.25097656 60.20532227 C27.23954672 60.06024955 27.23954672 60.06024955 31 59 C30.505 46.13 30.505 46.13 30 33 C20.76 33 11.52 33 2 33 C2 32.34 2 31.68 2 31 C0.02 31 -1.96 31 -4 31 C-3.01 30.34 -2.02 29.68 -1 29 C-0.48815355 25.99585431 -0.48815355 25.99585431 -0.48828125 22.4609375 C-0.43510742 20.50800781 -0.43510742 20.50800781 -0.38085938 18.515625 C-0.35775769 17.13542191 -0.33497536 15.75521343 -0.3125 14.375 C-0.27933555 12.98694648 -0.2448467 11.59892393 -0.20898438 10.2109375 C-0.12625885 6.80737293 -0.05718743 3.4040741 0 0 Z " fill="#350568" transform="translate(185,31)"/>
<path d="M0 0 C0.33 0 0.66 0 1 0 C1 20.13 1 40.26 1 61 C-9.23 61 -19.46 61 -30 61 C-30 60.67 -30 60.34 -30 60 C-20.1 60 -10.2 60 0 60 C0 50.1 0 40.2 0 30 C-9.9 30 -19.8 30 -30 30 C-30 29.67 -30 29.34 -30 29 C-20.76 29 -11.52 29 -2 29 C-1.32689207 24.9613524 -0.84211279 21.41372519 -0.68359375 17.3828125 C-0.64169922 16.36445313 -0.59980469 15.34609375 -0.55664062 14.296875 C-0.51732422 13.25015625 -0.47800781 12.2034375 -0.4375 11.125 C-0.39431641 10.05507813 -0.35113281 8.98515625 -0.30664062 7.8828125 C-0.20107183 5.25532246 -0.09896209 2.62774578 0 0 Z " fill="#8B13D3" transform="translate(310,377)"/>
<path d="M0 0 C1.32 0.33 2.64 0.66 4 1 C4 11.23 4 21.46 4 32 C-6.23 32 -16.46 32 -27 32 C-27 21.77 -27 11.54 -27 1 C-26.67 1 -26.34 1 -26 1 C-26 10.57 -26 20.14 -26 30 C-16.43 30 -6.86 30 3 30 C3 20.76 3 11.52 3 2 C2.67 2.66 2.34 3.32 2 4 C1.34 4 0.68 4 0 4 C-0.33 3.01 -0.66 2.02 -1 1 C-0.67 0.67 -0.34 0.34 0 0 Z " fill="#350358" transform="translate(433,249)"/>
<path d="M0 0 C10.23 0 20.46 0 31 0 C31 0.33 31 0.66 31 1 C29.78098999 1.03758423 29.78098999 1.03758423 28.53735352 1.07592773 C24.87889248 1.19149118 21.22071472 1.31439584 17.5625 1.4375 C16.28310547 1.47681641 15.00371094 1.51613281 13.68554688 1.55664062 C11.86313477 1.61948242 11.86313477 1.61948242 10.00390625 1.68359375 C8.87799072 1.72025146 7.7520752 1.75690918 6.59204102 1.79467773 C4.07146559 1.71218045 4.07146559 1.71218045 3 3 C2.87662826 4.84031989 2.82208692 6.68529411 2.79467773 8.52954102 C2.77473251 9.71068985 2.75478729 10.89183868 2.73423767 12.10877991 C2.71752518 13.3941716 2.70081268 14.67956329 2.68359375 16.00390625 C2.66281265 17.31205795 2.64203156 18.62020966 2.62062073 19.96800232 C2.565337 23.45155447 2.51595569 26.9351666 2.46777344 30.41882324 C2.41760426 33.9713273 2.36189433 37.5237439 2.30664062 41.07617188 C2.19898209 48.05070546 2.09755433 55.02531798 2 62 C1.67 62 1.34 62 1 62 C0.19321539 41.31327008 -0.09542109 20.7063773 0 0 Z " fill="#7007BD" transform="translate(311,312)"/>
<path d="M0 0 C6.93 0 13.86 0 21 0 C21 0.33 21 0.66 21 1 C15.06 1.33 9.12 1.66 3 2 C2.14730728 5.41077087 1.85131102 7.94841162 1.79467773 11.41113281 C1.77473251 12.49195129 1.75478729 13.57276978 1.73423767 14.68634033 C1.71752518 15.84687927 1.70081268 17.00741821 1.68359375 18.203125 C1.66281265 19.39605164 1.64203156 20.58897827 1.62062073 21.8180542 C1.55523761 25.62864423 1.49629224 29.43930314 1.4375 33.25 C1.39430411 35.83334046 1.35068948 38.41667395 1.30664062 41 C1.19877977 47.33326375 1.09962207 53.66657982 1 60 C10.57 60.33 20.14 60.66 30 61 C30 61.33 30 61.66 30 62 C20.1 62 10.2 62 0 62 C0 41.54 0 21.08 0 0 Z " fill="#410083" transform="translate(124,250)"/>
<path d="M0 0 C9.9 0 19.8 0 30 0 C31.42336877 2.84673755 31.00758837 5.14615347 30.87890625 8.3203125 C30.83056641 9.57714844 30.78222656 10.83398438 30.73242188 12.12890625 C30.67634766 13.44761719 30.62027344 14.76632813 30.5625 16.125 C30.50927587 17.46482438 30.45653549 18.80466808 30.40429688 20.14453125 C30.27429992 23.42990887 30.13932314 26.71500678 30 30 C29.67 30 29.34 30 29 30 C28.505 16.14 28.505 16.14 28 2 C19.42 2 10.84 2 2 2 C1.67 11.24 1.34 20.48 1 30 C0.67 30 0.34 30 0 30 C0 20.1 0 10.2 0 0 Z " fill="#37056C" transform="translate(218,93)"/>
<path d="M0 0 C9.9 0 19.8 0 30 0 C30 0.33 30 0.66 30 1 C20.76 1.33 11.52 1.66 2 2 C2 10.25 2 18.5 2 27 C1.34 27.33 0.68 27.66 0 28 C0 18.76 0 9.52 0 0 Z " fill="#40007D" transform="translate(249,344)"/>
<path d="M0 0 C2.31 0 4.62 0 7 0 C7 9.9 7 19.8 7 30 C5.35 30 3.7 30 2 30 C1.67 29.01 1.34 28.02 1 27 C1.99 26.34 2.98 25.68 4 25 C5.39947573 20.68961475 5.11461693 16.17356539 5.0625 11.6875 C5.05798828 10.94693359 5.05347656 10.20636719 5.04882812 9.44335938 C5.03712175 7.62887101 5.01918898 5.81442466 5 4 C4.34 4 3.68 4 3 4 C3 3.01 3 2.02 3 1 C2.01 0.67 1.02 0.34 0 0 Z " fill="#1C0F2F" transform="translate(367,187)"/>
<path d="M0 0 C0.33 0 0.66 0 1 0 C1.02505615 0.80743652 1.0501123 1.61487305 1.07592773 2.44677734 C1.19165487 6.08968917 1.31448635 9.73232726 1.4375 13.375 C1.47681641 14.64601563 1.51613281 15.91703125 1.55664062 17.2265625 C1.61948242 19.04414062 1.61948242 19.04414062 1.68359375 20.8984375 C1.72025146 22.01911621 1.75690918 23.13979492 1.79467773 24.29443359 C1.82596013 26.96712771 1.82596013 26.96712771 3 29 C16.86 29.495 16.86 29.495 31 30 C31 30.33 31 30.66 31 31 C19.45 31 7.9 31 -4 31 C-3.01 30.34 -2.02 29.68 -1 29 C-0.48815355 25.99585431 -0.48815355 25.99585431 -0.48828125 22.4609375 C-0.43510742 20.50800781 -0.43510742 20.50800781 -0.38085938 18.515625 C-0.35775769 17.13542191 -0.33497536 15.75521343 -0.3125 14.375 C-0.27933555 12.98694648 -0.2448467 11.59892393 -0.20898438 10.2109375 C-0.12625885 6.80737293 -0.05718743 3.4040741 0 0 Z " fill="#30085E" transform="translate(185,31)"/>
<path d="M0 0 C0.33 0 0.66 0 1 0 C1.02505615 0.66531738 1.0501123 1.33063477 1.07592773 2.01611328 C1.19251136 5.05257487 1.31495351 8.08877346 1.4375 11.125 C1.47681641 12.17171875 1.51613281 13.2184375 1.55664062 14.296875 C1.59853516 15.31523437 1.64042969 16.33359375 1.68359375 17.3828125 C1.73858032 18.78104248 1.73858032 18.78104248 1.79467773 20.20751953 C2.011602 23.15779276 2.51366877 26.08201264 3 29 C16.86 29.495 16.86 29.495 31 30 C31 30.33 31 30.66 31 31 C20.77 31 10.54 31 0 31 C0 20.77 0 10.54 0 0 Z " fill="#4E028F" transform="translate(248,187)"/>
<path d="M0 0 C0.33 0 0.66 0 1 0 C1.01981934 0.60473145 1.03963867 1.20946289 1.06005859 1.83251953 C1.15586299 4.59708509 1.26531555 7.36095174 1.375 10.125 C1.4059375 11.07632813 1.436875 12.02765625 1.46875 13.0078125 C1.67541388 17.96774555 1.90752331 22.40859431 4 27 C7.171738 28.585869 10.63513822 28.37866445 14.125 28.5625 C14.87910156 28.60568359 15.63320312 28.64886719 16.41015625 28.69335938 C18.27321888 28.7994832 20.13658524 28.90025001 22 29 C22 29.33 22 29.66 22 30 C14.41 30.33 6.82 30.66 -1 31 C-0.67 20.77 -0.34 10.54 0 0 Z " fill="#411172" transform="translate(186,62)"/>
<path d="M0 0 C2.39839001 3.71627668 2.15435709 6.83368693 1.9765625 11.171875 C1.95153656 11.8542926 1.92651062 12.53671021 1.90072632 13.23980713 C1.81882947 15.41039983 1.72212647 17.58004073 1.625 19.75 C1.56672921 21.22522207 1.50942661 22.70048272 1.453125 24.17578125 C1.31329779 27.78436892 1.16018957 31.39225236 1 35 C0.67 35 0.34 35 0 35 C0 24.77 0 14.54 0 4 C-9.57 4 -19.14 4 -29 4 C-29 3.67 -29 3.34 -29 3 C-19.43 3 -9.86 3 0 3 C0 2.01 0 1.02 0 0 Z " fill="#635B70" transform="translate(29,121)"/>
<path d="M0 0 C9.9 0 19.8 0 30 0 C29.67 0.66 29.34 1.32 29 2 C28.21761963 1.99476318 27.43523926 1.98952637 26.62915039 1.98413086 C23.10694167 1.96342894 19.5847457 1.95036162 16.0625 1.9375 C14.21495117 1.92493164 14.21495117 1.92493164 12.33007812 1.91210938 C10.5753418 1.90727539 10.5753418 1.90727539 8.78515625 1.90234375 C7.70113525 1.89710693 6.61711426 1.89187012 5.50024414 1.88647461 C3.05950052 1.71573103 3.05950052 1.71573103 2 3 C1.91241997 4.99964982 1.89303424 7.0023611 1.90234375 9.00390625 C1.90556641 10.21884766 1.90878906 11.43378906 1.91210938 12.68554688 C1.92048828 13.96494141 1.92886719 15.24433594 1.9375 16.5625 C1.94426758 18.48739258 1.94426758 18.48739258 1.95117188 20.45117188 C1.96300455 23.63416022 1.97948932 26.81705762 2 30 C1.34 30 0.68 30 0 30 C0 20.1 0 10.2 0 0 Z " fill="#700CBE" transform="translate(124,188)"/>
<path d="M0 0 C13.86 0.495 13.86 0.495 28 1 C28 1.66 28 2.32 28 3 C18.43 3 8.86 3 -1 3 C-0.67 2.01 -0.34 1.02 0 0 Z " fill="#330465" transform="translate(157,340)"/>
<path d="M0 0 C1.32 0 2.64 0 4 0 C4 0.99 4 1.98 4 3 C3.01 3 2.02 3 1 3 C1.25136719 4.918125 1.25136719 4.918125 1.5078125 6.875 C1.71430322 8.58324145 1.91998963 10.29158026 2.125 12 C2.23714844 12.83917969 2.34929687 13.67835937 2.46484375 14.54296875 C3.12796806 20.24583778 2.71447726 24.51367276 1 30 C0.01 29.67 -0.98 29.34 -2 29 C-1.34 29 -0.68 29 0 29 C0 19.43 0 9.86 0 0 Z " fill="#4A3F57" transform="translate(91,0)"/>
<path d="M0 0 C0.28875 0.639375 0.5775 1.27875 0.875 1.9375 C1.82823451 4.15206079 1.82823451 4.15206079 4 5 C5.8863912 5.084915 7.77578515 5.107193 9.6640625 5.09765625 C11.34628906 5.09282227 11.34628906 5.09282227 13.0625 5.08789062 C14.8259375 5.07532227 14.8259375 5.07532227 16.625 5.0625 C17.80835938 5.05798828 18.99171875 5.05347656 20.2109375 5.04882812 C23.14067507 5.03701467 26.07031272 5.02054258 29 5 C29.33 5.66 29.66 6.32 30 7 C20.1 7 10.2 7 0 7 C0 4.69 0 2.38 0 0 Z " fill="#270544" transform="translate(375,242)"/>
<path d="M0 0 C1.98 0.495 1.98 0.495 4 1 C4 10.9 4 20.8 4 31 C3.67 31 3.34 31 3 31 C3 21.43 3 11.86 3 2 C2.67 2.66 2.34 3.32 2 4 C1.34 4 0.68 4 0 4 C-0.33 3.01 -0.66 2.02 -1 1 C-0.67 0.67 -0.34 0.34 0 0 Z " fill="#3B2D47" transform="translate(433,249)"/>
<path d="M0 0 C9.9 0 19.8 0 30 0 C29.67 0.66 29.34 1.32 29 2 C28.22809326 1.98952637 27.45618652 1.97905273 26.66088867 1.96826172 C23.16979212 1.92673546 19.67874751 1.90068443 16.1875 1.875 C14.97255859 1.85824219 13.75761719 1.84148438 12.50585938 1.82421875 C10.76079102 1.81455078 10.76079102 1.81455078 8.98046875 1.8046875 C7.90692139 1.79421387 6.83337402 1.78374023 5.72729492 1.77294922 C2.78066259 1.79684457 2.78066259 1.79684457 0 4 C0 2.68 0 1.36 0 0 Z " fill="#38046D" transform="translate(61,62)"/>
<path d="M0 0 C2.0625 0.4375 2.0625 0.4375 4 1 C3.01 1.66 2.02 2.32 1 3 C0.48895078 5.80810144 0.48895078 5.80810144 0.48828125 9.1015625 C0.43510742 10.91914063 0.43510742 10.91914063 0.38085938 12.7734375 C0.35830078 14.04445313 0.33574219 15.31546875 0.3125 16.625 C0.27833984 17.90375 0.24417969 19.1825 0.20898438 20.5 C0.12627521 23.66657932 0.05719915 26.83287364 0 30 C-0.33 30 -0.66 30 -1 30 C-1.02465746 25.8882744 -1.04283959 21.77657722 -1.05493164 17.66479492 C-1.0599708 16.26504772 -1.06680216 14.8653058 -1.07543945 13.46557617 C-1.0875232 11.45754223 -1.09269807 9.44947043 -1.09765625 7.44140625 C-1.10289307 6.23170166 -1.10812988 5.02199707 -1.11352539 3.77563477 C-1 1 -1 1 0 0 Z " fill="#290446" transform="translate(313,408)"/>
<path d="M0 0 C4.95 0 9.9 0 15 0 C15 0.66 15 1.32 15 2 C13.27111445 2.16955795 11.54187557 2.33551514 9.8125 2.5 C8.84957031 2.5928125 7.88664062 2.685625 6.89453125 2.78125 C4.24812333 2.98124844 1.65239135 3.03879183 -1 3 C-0.67 2.01 -0.34 1.02 0 0 Z " fill="#433A57" transform="translate(281,92)"/>
<path d="M0 0 C0.99 0.495 0.99 0.495 2 1 C2 23 2 23 0 27 C0 18.09 0 9.18 0 0 Z " fill="#A624EF" transform="translate(61,251)"/>
<path d="M0 0 C2.97 0 5.94 0 9 0 C6 2 6 2 4 2 C3.67 3.98 3.34 5.96 3 8 C2.01 7.34 1.02 6.68 0 6 C-0.1875 2.875 -0.1875 2.875 0 0 Z " fill="#1D1032" transform="translate(92,187)"/>
<path d="M0 0 C1.45792884 -0.05399736 2.91642712 -0.09279177 4.375 -0.125 C5.18710937 -0.14820312 5.99921875 -0.17140625 6.8359375 -0.1953125 C9 0 9 0 11 2 C7.7 2.33 4.4 2.66 1 3 C0.67 2.01 0.34 1.02 0 0 Z " fill="#180B2A" transform="translate(30,122)"/>
<path d="M0 0 C2.31 0 4.62 0 7 0 C7 0.99 7 1.98 7 3 C5.02 3 3.04 3 1 3 C0.67 2.01 0.34 1.02 0 0 Z " fill="#7807C8" transform="translate(248,434)"/>
<path d="M0 0 C0.66 0 1.32 0 2 0 C2.33 2.97 2.66 5.94 3 9 C2.01 9 1.02 9 0 9 C0 6.03 0 3.06 0 0 Z " fill="#665F71" transform="translate(28,75)"/>
<path d="M0 0 C1.32 0 2.64 0 4 0 C4 0.99 4 1.98 4 3 C3.01 3 2.02 3 1 3 C1 5.31 1 7.62 1 10 C0.67 10 0.34 10 0 10 C0 6.7 0 3.4 0 0 Z " fill="#3E3450" transform="translate(91,0)"/>
</svg>
