<?xml version="1.0" encoding="UTF-8"?>
<svg version="1.1" xmlns="http://www.w3.org/2000/svg" width="500" height="500">
<path d="M0 0 C20.46 0 40.92 0 62 0 C62 9.9 62 19.8 62 30 C82.79 30 103.58 30 125 30 C125 40.23 125 50.46 125 61 C135.23 61 145.46 61 156 61 C156.33 71.23 156.66 81.46 157 92 C171.85 92.495 171.85 92.495 187 93 C187 103.23 187 113.46 187 124 C197.23 124 207.46 124 218 124 C218 113.77 218 103.54 218 93 C248.69 93 279.38 93 311 93 C311 82.44 311 71.88 311 61 C331.79 61 352.58 61 374 61 C374 50.77 374 40.54 374 30 C415.58 29.67 457.16 29.34 500 29 C500 39.89 500 50.78 500 62 C489.77 62 479.54 62 469 62 C469 72.56 469 83.12 469 94 C458.77 94 448.54 94 438 94 C438 104.23 438 114.46 438 125 C427.77 125 417.54 125 407 125 C407 145.46 407 165.92 407 187 C417.23 187 427.46 187 438 187 C438.33 207.46 438.66 227.92 439 249 C445.6 249 452.2 249 459 249 C462.3 249.33 465.6 249.66 469 250 C469 281.02 469 312.04 469 344 C458.77 344 448.54 344 438 344 C438 364.79 438 385.58 438 407 C427.77 407 417.54 407 407 407 C407 417.56 407 428.12 407 439 C396.44 439 385.88 439 375 439 C375 449.23 375 459.46 375 470 C354.21 470 333.42 470 312 470 C312 479.9 312 489.8 312 500 C270.42 500 228.84 500 186 500 C186 490.1 186 480.2 186 470 C175.77 470 165.54 470 155 470 C155 459.77 155 449.54 155 439 C124.31 439 93.62 439 62 439 C62 449.23 62 459.46 62 470 C41.54 470 21.08 470 0 470 C0 438.65 0 407.3 0 375 C3.82450372 374.23509926 6.74452086 373.86461094 10.5625 373.875 C11.95662109 373.87113281 11.95662109 373.87113281 13.37890625 373.8671875 C18.59610312 374.058541 23.79732871 374.56644406 29 375 C29 364.77 29 354.54 29 344 C19.43 344 9.86 344 0 344 C0 312.65 0 281.3 0 249 C8.37375 248.979375 16.7475 248.95875 25.375 248.9375 C29.31058838 248.92384399 29.31058838 248.92384399 33.32568359 248.90991211 C35.43326771 248.9069882 37.5408524 248.90444077 39.6484375 248.90234375 C40.72005127 248.89722778 41.79166504 248.89211182 42.89575195 248.88684082 C44.47755249 248.88665955 44.47755249 248.88665955 46.09130859 248.88647461 C47.44366104 248.88314369 47.44366104 248.88314369 48.82333374 248.87974548 C53.2282458 249.04649595 57.61380925 249.56138092 62 250 C62 260.23 62 270.46 62 281 C65.3 280.67 68.6 280.34 72 280 C79.17948513 279.81824088 85.77235465 280.34294133 93 281 C93 291.23 93 301.46 93 312 C103.56 312 114.12 312 125 312 C125 322.23 125 332.46 125 343 C145.46 343 165.92 343 187 343 C187 353.56 187 364.12 187 375 C189.77148438 374.9278125 192.54296875 374.855625 195.3984375 374.78125 C198.1124597 374.71144418 200.82649282 374.64207851 203.54052734 374.57275391 C205.41228398 374.52471054 207.28402912 374.4762168 209.15576172 374.42724609 C211.86162389 374.3565329 214.56752465 374.28749338 217.2734375 374.21875 C218.50844498 374.18593933 218.50844498 374.18593933 219.7684021 374.15246582 C222.17885319 374.09214765 224.58917897 374.04292227 227 374 C227.79464661 373.98396729 228.58929321 373.96793457 229.40802002 373.95141602 C236.06051522 373.87650314 242.28517145 374.44043095 249 375 C249 364.77 249 354.54 249 344 C238.77 344 228.54 344 218 344 C218 312.98 218 281.96 218 250 C207.44 250 196.88 250 186 250 C186 239.77 186 229.54 186 219 C175.77 219 165.54 219 155 219 C155 208.77 155 198.54 155 188 C134.21 188 113.42 188 92 188 C92 177.44 92 166.88 92 156 C109.2925474 154.84716351 109.2925474 154.84716351 116.93359375 154.8671875 C118.20506004 154.86575241 118.20506004 154.86575241 119.50221252 154.86428833 C121.2621366 154.86361806 123.02206333 154.8653901 124.78198242 154.86962891 C127.45822686 154.87504192 130.13430715 154.86962016 132.81054688 154.86328125 C134.53906286 154.86394132 136.26757875 154.86522101 137.99609375 154.8671875 C138.78269882 154.86516327 139.56930389 154.86313904 140.37974548 154.86105347 C141.13155594 154.86420563 141.88336639 154.86735779 142.65795898 154.87060547 C143.30554672 154.87140106 143.95313446 154.87219666 144.62034607 154.87301636 C148.09562045 155.05846475 151.54665585 155.56833198 155 156 C155 145.77 155 135.54 155 125 C144.77 125 134.54 125 124 125 C124 114.77 124 104.54 124 94 C113.44 94 102.88 94 92 94 C92 83.44 92 72.88 92 62 C71.21 62 50.42 62 29 62 C29 51.77 29 41.54 29 31 C19.43 31 9.86 31 0 31 C0 20.77 0 10.54 0 0 Z " fill="#0138D3" transform="translate(0,0)"/>
<path d="M0 0 C10.23 0 20.46 0 31 0 C31 10.23 31 20.46 31 31 C41.15713092 30.96040178 41.15713092 30.96040178 51.31420898 30.90991211 C52.57048096 30.90741455 53.82675293 30.90491699 55.12109375 30.90234375 C57.06133423 30.89448853 57.06133423 30.89448853 59.04077148 30.88647461 C62 31 62 31 63 32 C63.09525367 34.92194665 63.12552736 37.82020329 63.11352539 40.74243164 C63.11367142 41.6594133 63.11381744 42.57639496 63.1139679 43.52116394 C63.1132684 46.56751836 63.10547428 49.61381245 63.09765625 52.66015625 C63.0957922 54.76622993 63.09436824 56.87230403 63.09336853 58.9783783 C63.08954231 64.53342883 63.07971114 70.08845341 63.06866455 75.64349365 C63.05845267 81.3072474 63.05387139 86.97100533 63.04882812 92.63476562 C63.03808896 103.75652369 63.02049132 114.87825563 63 126 C73.23 126 83.46 126 94 126 C94 157.02 94 188.04 94 220 C104.23 220 114.46 220 125 220 C125 229.9 125 239.8 125 250 C114.77 250 104.54 250 94 250 C94 260.56 94 271.12 94 282 C83.77 282 73.54 282 63 282 C63 292.56 63 303.12 63 314 C52.44 314 41.88 314 31 314 C31 324.23 31 334.46 31 345 C20.77 345 10.54 345 0 345 C0 355.23 0 365.46 0 376 C-41.25 376 -82.5 376 -125 376 C-125 365.77 -125 355.54 -125 345 C-93.98 345 -62.96 345 -31 345 C-31 324.21 -31 303.42 -31 282 C-20.77 282 -10.54 282 0 282 C0 250.98 0 219.96 0 188 C-10.23 188 -20.46 188 -31 188 C-31 177.77 -31 167.54 -31 157 C-62.35 157 -93.7 157 -126 157 C-126 120.20987654 -126 120.20987654 -125.5 107.5 C-125.335 103.045 -125.17 98.59 -125 94 C-135.23 94 -145.46 94 -156 94 C-156 83.77 -156 73.54 -156 63 C-135.54 63 -115.08 63 -94 63 C-94 52.77 -94 42.54 -94 32 C-62.98 32 -31.96 32 0 32 C0 21.44 0 10.88 0 0 Z " fill="#1D7FFE" transform="translate(312,93)"/>
<path d="M0 0 C8.37375 -0.020625 16.7475 -0.04125 25.375 -0.0625 C29.31058838 -0.07615601 29.31058838 -0.07615601 33.32568359 -0.09008789 C35.43326771 -0.0930118 37.5408524 -0.09555923 39.6484375 -0.09765625 C40.72005127 -0.10277222 41.79166504 -0.10788818 42.89575195 -0.11315918 C44.47755249 -0.11334045 44.47755249 -0.11334045 46.09130859 -0.11352539 C46.99287689 -0.115746 47.89444519 -0.11796661 48.82333374 -0.12025452 C53.2282458 0.04649595 57.61380925 0.56138092 62 1 C62 11.23 62 21.46 62 32 C65.3 31.67 68.6 31.34 72 31 C79.17948513 30.81824088 85.77235465 31.34294133 93 32 C93 42.23 93 52.46 93 63 C103.56 63 114.12 63 125 63 C125 73.23 125 83.46 125 94 C145.46 94 165.92 94 187 94 C187 104.56 187 115.12 187 126 C189.77148438 125.9278125 192.54296875 125.855625 195.3984375 125.78125 C198.1124597 125.71144418 200.82649282 125.64207851 203.54052734 125.57275391 C205.41228398 125.52471054 207.28402912 125.4762168 209.15576172 125.42724609 C211.86162389 125.3565329 214.56752465 125.28749338 217.2734375 125.21875 C218.09677582 125.19687622 218.92011414 125.17500244 219.7684021 125.15246582 C222.17885319 125.09214765 224.58917897 125.04292227 227 125 C227.79464661 124.98396729 228.58929321 124.96793457 229.40802002 124.95141602 C236.06051522 124.87650314 242.28517145 125.44043095 249 126 C249 115.77 249 105.54 249 95 C238.77 95 228.54 95 218 95 C218 63.98 218 32.96 218 1 C238.79 1 259.58 1 281 1 C281 11.23 281 21.46 281 32 C291.23 32 301.46 32 312 32 C312 63.02 312 94.04 312 126 C301.77 126 291.54 126 281 126 C281 136.56 281 147.12 281 158 C249.98 158 218.96 158 187 158 C186.67 147.77 186.34 137.54 186 127 C139.47 126.505 139.47 126.505 92 126 C92 105.54 92 85.08 92 64 C81.77 64 71.54 64 61 64 C61 84.46 61 104.92 61 126 C50.77 126 40.54 126 30 126 C30 146.79 30 167.58 30 189 C40.23 189 50.46 189 61 189 C61 199.23 61 209.46 61 220 C40.87 220 20.74 220 0 220 C0 188.98 0 157.96 0 126 C3.82450372 125.23509926 6.74452086 124.86461094 10.5625 124.875 C11.95662109 124.87113281 11.95662109 124.87113281 13.37890625 124.8671875 C18.59610312 125.058541 23.79732871 125.56644406 29 126 C29 115.77 29 105.54 29 95 C19.43 95 9.86 95 0 95 C0 63.65 0 32.3 0 0 Z " fill="#00094A" transform="translate(0,249)"/>
<path d="M0 0 C10.23 0 20.46 0 31 0 C31 20.46 31 40.92 31 62 C37.77402344 61.98839844 44.54804687 61.97679687 51.52734375 61.96484375 C55.80664158 61.9597371 60.08593567 61.95492333 64.36523438 61.95117188 C71.16464005 61.94518303 77.96403232 61.93808162 84.76342773 61.92456055 C90.24229136 61.91373304 95.72114062 61.90772346 101.20001411 61.90512276 C103.29529611 61.90326826 105.39057728 61.89964718 107.4858532 61.89426994 C110.40977584 61.88706132 113.33363833 61.88600898 116.25756836 61.88647461 C117.57062958 61.8810817 117.57062958 61.8810817 118.91021729 61.87557983 C124.88594784 61.88594784 124.88594784 61.88594784 126 63 C126 73.23 126 83.46 126 94 C157.02 94 188.04 94 220 94 C220 104.23 220 114.46 220 125 C188.98 125 157.96 125 126 125 C126 135.23 126 145.46 126 156 C188.04 156 250.08 156 314 156 C314 156.33 314 156.66 314 157 C293.21 157 272.42 157 251 157 C251 166.9 251 176.8 251 187 C209.42 187 167.84 187 125 187 C125 177.1 125 167.2 125 157 C114.77 157 104.54 157 94 157 C94 146.77 94 136.54 94 126 C63.31 126 32.62 126 1 126 C1 136.23 1 146.46 1 157 C-19.46 157 -39.92 157 -61 157 C-61 156.67 -61 156.34 -61 156 C-40.87 156 -20.74 156 0 156 C0 145.77 0 135.54 0 125 C-10.23 125 -20.46 125 -31 125 C-31 104.21 -31 83.42 -31 62 C-20.77 62 -10.54 62 0 62 C0 41.54 0 21.08 0 0 Z " fill="#1130A7" transform="translate(61,313)"/>
<path d="M0 0 C20.46 0 40.92 0 62 0 C62 9.9 62 19.8 62 30 C82.79 30 103.58 30 125 30 C125 40.23 125 50.46 125 61 C135.23 61 145.46 61 156 61 C156.33 71.23 156.66 81.46 157 92 C171.85 92.495 171.85 92.495 187 93 C187 103.23 187 113.46 187 124 C197.23 124 207.46 124 218 124 C218 113.77 218 103.54 218 93 C248.69 93 279.38 93 311 93 C311 82.44 311 71.88 311 61 C314.63 61 318.26 61 322 61 C322 61.33 322 61.66 322 62 C318.7 62 315.4 62 312 62 C312 82.79 312 103.58 312 125 C280.98 125 249.96 125 218 125 C218 135.23 218 145.46 218 156 C197.54 156 177.08 156 156 156 C156 166.23 156 176.46 156 187 C166.23 187 176.46 187 187 187 C187.0309375 194.6415625 187.0309375 194.6415625 187.0625 202.4375 C187.071604 204.04681396 187.08070801 205.65612793 187.09008789 207.31420898 C187.09383423 209.19861694 187.09383423 209.19861694 187.09765625 211.12109375 C187.10289307 212.4145874 187.10812988 213.70808105 187.11352539 215.04077148 C187 218 187 218 186 219 C183.70848583 219.08790975 181.41427476 219.10694038 179.12109375 219.09765625 C177.23668579 219.09390991 177.23668579 219.09390991 175.31420898 219.09008789 C172.90023804 219.07643188 172.90023804 219.07643188 170.4375 219.0625 C165.343125 219.041875 160.24875 219.02125 155 219 C155 208.77 155 198.54 155 188 C134.21 188 113.42 188 92 188 C92 177.44 92 166.88 92 156 C109.2925474 154.84716351 109.2925474 154.84716351 116.93359375 154.8671875 C118.20506004 154.86575241 118.20506004 154.86575241 119.50221252 154.86428833 C121.2621366 154.86361806 123.02206333 154.8653901 124.78198242 154.86962891 C127.45822686 154.87504192 130.13430715 154.86962016 132.81054688 154.86328125 C134.53906286 154.86394132 136.26757875 154.86522101 137.99609375 154.8671875 C138.78269882 154.86516327 139.56930389 154.86313904 140.37974548 154.86105347 C141.13155594 154.86420563 141.88336639 154.86735779 142.65795898 154.87060547 C143.30554672 154.87140106 143.95313446 154.87219666 144.62034607 154.87301636 C148.09562045 155.05846475 151.54665585 155.56833198 155 156 C155 145.77 155 135.54 155 125 C144.77 125 134.54 125 124 125 C124 114.77 124 104.54 124 94 C113.44 94 102.88 94 92 94 C92 83.44 92 72.88 92 62 C71.21 62 50.42 62 29 62 C29 51.77 29 41.54 29 31 C19.43 31 9.86 31 0 31 C0 20.77 0 10.54 0 0 Z " fill="#0C279C" transform="translate(0,0)"/>
<path d="M0 0 C8.37375 -0.020625 16.7475 -0.04125 25.375 -0.0625 C29.31058838 -0.07615601 29.31058838 -0.07615601 33.32568359 -0.09008789 C35.43326771 -0.0930118 37.5408524 -0.09555923 39.6484375 -0.09765625 C40.72005127 -0.10277222 41.79166504 -0.10788818 42.89575195 -0.11315918 C44.47755249 -0.11334045 44.47755249 -0.11334045 46.09130859 -0.11352539 C46.99287689 -0.115746 47.89444519 -0.11796661 48.82333374 -0.12025452 C53.2282458 0.04649595 57.61380925 0.56138092 62 1 C62 11.23 62 21.46 62 32 C65.3 31.67 68.6 31.34 72 31 C79.17948513 30.81824088 85.77235465 31.34294133 93 32 C93 42.23 93 52.46 93 63 C97.29 63 101.58 63 106 63 C106 63.33 106 63.66 106 64 C101.71 64 97.42 64 93 64 C93 74.23 93 84.46 93 95 C103.23 95 113.46 95 124 95 C124 105.23 124 115.46 124 126 C113.44 126 102.88 126 92 126 C92 105.54 92 85.08 92 64 C81.77 64 71.54 64 61 64 C61 84.46 61 104.92 61 126 C50.77 126 40.54 126 30 126 C30 146.79 30 167.58 30 189 C40.23 189 50.46 189 61 189 C61 199.23 61 209.46 61 220 C40.87 220 20.74 220 0 220 C0 188.98 0 157.96 0 126 C3.82450372 125.23509926 6.74452086 124.86461094 10.5625 124.875 C11.95662109 124.87113281 11.95662109 124.87113281 13.37890625 124.8671875 C18.59610312 125.058541 23.79732871 125.56644406 29 126 C29 115.77 29 105.54 29 95 C19.43 95 9.86 95 0 95 C0 63.65 0 32.3 0 0 Z " fill="#0122AC" transform="translate(0,249)"/>
<path d="M0 0 C10.23 0 20.46 0 31 0 C31.33 10.23 31.66 20.46 32 31 C62.195 31.495 62.195 31.495 93 32 C93 42.23 93 52.46 93 63 C72.54 63 52.08 63 31 63 C31 73.23 31 83.46 31 94 C41.23 94 51.46 94 62 94 C62.020625 99.094375 62.04125 104.18875 62.0625 109.4375 C62.071604 111.04681396 62.08070801 112.65612793 62.09008789 114.31420898 C62.09258545 115.57048096 62.09508301 116.82675293 62.09765625 118.12109375 C62.10289307 119.4145874 62.10812988 120.70808105 62.11352539 122.04077148 C62 125 62 125 61 126 C58.70848583 126.08790975 56.41427476 126.10694038 54.12109375 126.09765625 C52.86482178 126.09515869 51.6085498 126.09266113 50.31420898 126.09008789 C48.70489502 126.08098389 47.09558105 126.07187988 45.4375 126.0625 C40.343125 126.041875 35.24875 126.02125 30 126 C30 115.77 30 105.54 30 95 C9.21 95 -11.58 95 -33 95 C-33 84.44 -33 73.88 -33 63 C-15.7074526 61.84716351 -15.7074526 61.84716351 -8.06640625 61.8671875 C-6.79493996 61.86575241 -6.79493996 61.86575241 -5.49778748 61.86428833 C-3.7378634 61.86361806 -1.97793667 61.8653901 -0.21801758 61.86962891 C2.45822686 61.87504192 5.13430715 61.86962016 7.81054688 61.86328125 C9.53906286 61.86394132 11.26757875 61.86522101 12.99609375 61.8671875 C13.78269882 61.86516327 14.56930389 61.86313904 15.37974548 61.86105347 C16.13155594 61.86420563 16.88336639 61.86735779 17.65795898 61.87060547 C18.62934059 61.87179886 18.62934059 61.87179886 19.62034607 61.87301636 C23.09562045 62.05846475 26.54665585 62.56833198 30 63 C30 52.77 30 42.54 30 32 C20.1 32 10.2 32 0 32 C0 21.44 0 10.88 0 0 Z " fill="#01094A" transform="translate(125,93)"/>
<path d="M0 0 C0 10.89 0 21.78 0 33 C-10.23 33 -20.46 33 -31 33 C-31 43.23 -31 53.46 -31 64 C-41.23 64 -51.46 64 -62 64 C-62 53.44 -62 42.88 -62 32 C-82.79 32 -103.58 32 -125 32 C-125 22.1 -125 12.2 -125 2 C-117.04857685 1.3373814 -109.31922833 0.84029873 -101.37231445 0.79467773 C-100.27976852 0.78477814 -99.1872226 0.77487854 -98.06156921 0.76467896 C-94.49549431 0.7334097 -90.92940616 0.7084437 -87.36328125 0.68359375 C-84.87175679 0.66299287 -82.38023559 0.64199564 -79.88871765 0.62062073 C-73.36429502 0.56570825 -66.83984245 0.51616731 -60.31536865 0.46777344 C-53.64836648 0.41784555 -46.98141399 0.36176235 -40.31445312 0.30664062 C-30.61110406 0.22702019 -20.90774194 0.14958696 -11.2043457 0.07592773 C-10.1795108 0.06814804 -9.1546759 0.06036835 -8.0987854 0.05235291 C-1.13929128 0 -1.13929128 0 0 0 Z " fill="#020B4A" transform="translate(500,29)"/>
<path d="M0 0 C10.23 0 20.46 0 31 0 C31 31.02 31 62.04 31 94 C20.77 94 10.54 94 0 94 C0 104.23 0 114.46 0 125 C-10.23 125 -20.46 125 -31 125 C-31 104.21 -31 83.42 -31 62 C-20.77 62 -10.54 62 0 62 C0 41.54 0 21.08 0 0 Z " fill="#1E7FFC" transform="translate(61,313)"/>
<path d="M0 0 C31.02 0 62.04 0 94 0 C94 10.23 94 20.46 94 31 C104.23 31 114.46 31 125 31 C125 41.23 125 51.46 125 62 C104.54 62 84.08 62 63 62 C63 51.77 63 41.54 63 31 C42.21 31 21.42 31 0 31 C0 20.77 0 10.54 0 0 Z " fill="#0043E7" transform="translate(218,125)"/>
<path d="M0 0 C8.05916691 -0.02094499 16.11823579 -0.04098314 24.17740631 -0.05175018 C27.93005024 -0.05704008 31.68267175 -0.06411391 35.43530273 -0.07543945 C39.04681687 -0.08627141 42.65830921 -0.09227749 46.26983833 -0.09487724 C47.65060329 -0.09673094 49.031367 -0.10035049 50.41212273 -0.10573006 C52.33975952 -0.11294447 54.26741807 -0.11340809 56.19506836 -0.11352539 C57.29427109 -0.115746 58.39347382 -0.11796661 59.52598572 -0.12025452 C62 0 62 0 63 1 C63.08783542 3.21855264 63.10694609 5.43988496 63.09765625 7.66015625 C63.09515869 8.87582275 63.09266113 10.09148926 63.09008789 11.34399414 C63.08098389 12.90110107 63.07187988 14.45820801 63.0625 16.0625 C63.041875 20.991875 63.02125 25.92125 63 31 C52.77 31 42.54 31 32 31 C32 41.23 32 51.46 32 62 C11.21 62 -9.58 62 -31 62 C-31 51.77 -31 41.54 -31 31 C-20.77 31 -10.54 31 0 31 C0 20.77 0 10.54 0 0 Z " fill="#00094B" transform="translate(343,407)"/>
<path d="M0 0 C1.04414063 0.00580078 1.04414063 0.00580078 2.109375 0.01171875 C2.7590625 0.00785156 3.40875 0.00398438 4.078125 0 C10.74266175 0.01271858 17.15550921 0.62103677 23.859375 1.13671875 C23.859375 21.92671875 23.859375 42.71671875 23.859375 64.13671875 C34.089375 64.13671875 44.319375 64.13671875 54.859375 64.13671875 C54.859375 74.36671875 54.859375 84.59671875 54.859375 95.13671875 C34.729375 95.13671875 14.599375 95.13671875 -6.140625 95.13671875 C-6.18073381 71.71763063 -6.18073381 71.71763063 -6.18945312 61.77148438 C-6.19544197 54.9720787 -6.20254338 48.17268643 -6.21606445 41.37329102 C-6.22689196 35.89442739 -6.23290154 30.41557813 -6.23550224 24.93670464 C-6.23735674 22.84142264 -6.24097782 20.74614147 -6.24635506 18.65086555 C-6.25356368 15.72694291 -6.25461602 12.80308042 -6.25415039 9.87915039 C-6.25774567 9.00377625 -6.26134094 8.1284021 -6.26504517 7.22650146 C-6.25252824 0.01221197 -6.25252824 0.01221197 0 0 Z " fill="#00094A" transform="translate(6.140625,373.86328125)"/>
<path d="M0 0 C41.25 0 82.5 0 125 0 C125 9.9 125 19.8 125 30 C83.75 30 42.5 30 0 30 C0 20.1 0 10.2 0 0 Z " fill="#00094A" transform="translate(187,470)"/>
<path d="M0 0 C12.5915625 -0.0309375 12.5915625 -0.0309375 25.4375 -0.0625 C28.07032959 -0.071604 30.70315918 -0.08070801 33.41577148 -0.09008789 C35.52587839 -0.09301124 37.63598586 -0.09555881 39.74609375 -0.09765625 C41.36118835 -0.1053302 41.36118835 -0.1053302 43.00891113 -0.11315918 C44.59089294 -0.11334045 44.59089294 -0.11334045 46.20483398 -0.11352539 C47.10862289 -0.115746 48.0124118 -0.11796661 48.94358826 -0.12025452 C52.97658308 0.03842366 56.98857074 0.55428564 61 1 C61 11.23 61 21.46 61 32 C50.44 32 39.88 32 29 32 C29 52.46 29 72.92 29 94 C19.43 94 9.86 94 0 94 C0 62.98 0 31.96 0 0 Z " fill="#01094A" transform="translate(0,249)"/>
<path d="M0 0 C0.91652344 -0.00257813 1.83304687 -0.00515625 2.77734375 -0.0078125 C7.21817136 0.17172155 11.64010175 0.68276018 16.0625 1.125 C16.0625 32.145 16.0625 63.165 16.0625 95.125 C5.8325 95.125 -4.3975 95.125 -14.9375 95.125 C-14.9375 64.105 -14.9375 33.085 -14.9375 1.125 C-4.69399795 -0.01316689 -4.69399795 -0.01316689 0 0 Z " fill="#020A4A" transform="translate(452.9375,248.875)"/>
<path d="M0 0 C31.02 0 62.04 0 94 0 C94 10.23 94 20.46 94 31 C62.98 31 31.96 31 0 31 C0 20.77 0 10.54 0 0 Z " fill="#00094A" transform="translate(61,407)"/>
<path d="M0 0 C10.23 0 20.46 0 31 0 C31 31.02 31 62.04 31 94 C20.77 94 10.54 94 0 94 C0 62.98 0 31.96 0 0 Z " fill="#0043E7" transform="translate(312,281)"/>
<path d="M0 0 C4.3003125 0.0309375 4.3003125 0.0309375 8.6875 0.0625 C8.6875 10.6225 8.6875 21.1825 8.6875 32.0625 C38.3875 32.5575 38.3875 32.5575 68.6875 33.0625 C69.0175 42.9625 69.3475 52.8625 69.6875 63.0625 C49.2275 63.0625 28.7675 63.0625 7.6875 63.0625 C7.6875 52.8325 7.6875 42.6025 7.6875 32.0625 C-2.5425 32.0625 -12.7725 32.0625 -23.3125 32.0625 C-23.3125 21.8325 -23.3125 11.6025 -23.3125 1.0625 C-15.43548812 0.45657601 -7.85075723 -0.08181643 0 0 Z " fill="#010B4C" transform="translate(116.3125,311.9375)"/>
<path d="M0 0 C9.9 0 19.8 0 30 0 C30 30.69 30 61.38 30 93 C19.77 93 9.54 93 -1 93 C-1.04796595 72.36864636 -0.90336208 51.75785511 -0.53643799 31.1305542 C-0.47415284 27.595533 -0.41494602 24.06046 -0.35546875 20.52539062 C-0.24014536 13.68353238 -0.11999371 6.84178414 0 0 Z " fill="#0121AA" transform="translate(250,282)"/>
<path d="M0 0 C30.69 0 61.38 0 93 0 C93 9.9 93 19.8 93 30 C62.31 30 31.62 30 0 30 C0 20.1 0 10.2 0 0 Z " fill="#010949" transform="translate(218,93)"/>
<path d="M0 0 C20.79 0 41.58 0 63 0 C63 10.23 63 20.46 63 31 C42.21 31 21.42 31 0 31 C0 20.77 0 10.54 0 0 Z " fill="#0043E8" transform="translate(218,407)"/>
<path d="M0 0 C22 0 22 0 31 1 C31 21.46 31 41.92 31 63 C20.77 63 10.54 63 0 63 C0 42.21 0 21.42 0 0 Z " fill="#010A4C" transform="translate(406,187)"/>
<path d="M0 0 C10.23 0 20.46 0 31 0 C31 10.23 31 20.46 31 31 C20.77 31 10.54 31 0 31 C0 41.23 0 51.46 0 62 C-10.23 62 -20.46 62 -31 62 C-31 51.77 -31 41.54 -31 31 C-16.15 30.505 -16.15 30.505 -1 30 C-0.67 20.1 -0.34 10.2 0 0 Z " fill="#0043E8" transform="translate(406,62)"/>
<path d="M0 0 C10.23 0 20.46 0 31 0 C31 20.46 31 40.92 31 62 C20.77 62 10.54 62 0 62 C0 41.54 0 21.08 0 0 Z " fill="#0142E5" transform="translate(61,313)"/>
<path d="M0 0 C20.46 0 40.92 0 62 0 C62 10.23 62 20.46 62 31 C41.54 31 21.08 31 0 31 C0 20.77 0 10.54 0 0 Z " fill="#0142E5" transform="translate(156,156)"/>
<path d="M0 0 C9.9 0 19.8 0 30 0 C30 20.79 30 41.58 30 63 C20.1 63 10.2 63 0 63 C0 42.21 0 21.42 0 0 Z " fill="#000949" transform="translate(407,344)"/>
<path d="M0 0 C1.04032379 0.02009628 2.08064758 0.04019257 3.15249634 0.06089783 C4.23832001 0.08793289 5.32414368 0.11496796 6.44287109 0.14282227 C7.58291595 0.16643326 8.72296082 0.19004425 9.89755249 0.21437073 C13.50395256 0.29034656 17.11010104 0.37465155 20.71630859 0.45922852 C23.1759321 0.5125155 25.63556753 0.56525532 28.09521484 0.61743164 C34.09411672 0.74485269 40.09260636 0.88355855 46.09130859 1.02172852 C46.09130859 10.92172852 46.09130859 20.82172852 46.09130859 31.02172852 C15.40130859 31.51672852 15.40130859 31.51672852 -15.90869141 32.02172852 C-15.90869141 21.79172852 -15.90869141 11.56172852 -15.90869141 1.02172852 C-4.65869141 -0.10327148 -4.65869141 -0.10327148 0 0 Z " fill="#000949" transform="translate(327.90869140625,60.978271484375)"/>
<path d="M0 0 C5.135625 0.2784375 5.135625 0.2784375 10.375 0.5625 C10.375 10.4625 10.375 20.3625 10.375 30.5625 C-10.085 30.5625 -30.545 30.5625 -51.625 30.5625 C-51.625 20.6625 -51.625 10.7625 -51.625 0.5625 C-37.25 0.625 -37.25 0.625 -32.77978516 0.65258789 C-24.56092898 0.67008042 -24.56092898 0.67008042 -16.375 0.03125 C-10.8834609 -0.61410605 -5.50738294 -0.31929898 0 0 Z " fill="#00094A" transform="translate(81.625,30.4375)"/>
<path d="M0 0 C20.13 0 40.26 0 61 0 C61 9.9 61 19.8 61 30 C40.87 30 20.74 30 0 30 C0 20.1 0 10.2 0 0 Z " fill="#0121A9" transform="translate(0,0)"/>
<path d="M0 0 C9.9 0 19.8 0 30 0 C31.55352206 21.16673804 31.55352206 21.16673804 30.49609375 31.06640625 C29.9258852 37.11774454 29.88685317 43.11377666 29.9375 49.1875 C29.94201172 50.23486328 29.94652344 51.28222656 29.95117188 52.36132812 C29.96279876 54.90761536 29.97913719 57.4537746 30 60 C25.8882744 60.02465746 21.77657722 60.04283959 17.66479492 60.05493164 C16.26504772 60.0599708 14.8653058 60.06680216 13.46557617 60.07543945 C11.45754223 60.0875232 9.44947043 60.09269807 7.44140625 60.09765625 C6.23170166 60.10289307 5.02199707 60.10812988 3.77563477 60.11352539 C1 60 1 60 0 59 C-0.09381302 57.15881971 -0.11743954 55.31402359 -0.11352539 53.47045898 C-0.11344986 52.28931015 -0.11337433 51.10816132 -0.11329651 49.89122009 C-0.10813522 48.6058284 -0.10297394 47.32043671 -0.09765625 45.99609375 C-0.0962413 44.68794205 -0.09482635 43.37979034 -0.09336853 42.03199768 C-0.0895441 38.54837141 -0.07971446 35.06478661 -0.06866455 31.58117676 C-0.05844882 28.02873302 -0.05381586 24.47628241 -0.04882812 20.92382812 C-0.03862232 13.94918209 -0.01905064 6.97465003 0 0 Z " fill="#01094A" transform="translate(376,126)"/>
<path d="M0 0 C3.3 0 6.6 0 10 0 C11.01128258 45.83246413 11.00189846 91.62273869 10.62664449 137.46266901 C10.5529787 146.49884819 10.48805659 155.5350852 10.42356598 164.57133377 C10.2915224 183.04763045 10.14945803 201.52383634 10 220 C9.67 220 9.34 220 9 220 C9 199.21 9 178.42 9 157 C-0.9 157 -10.8 157 -21 157 C-21 188.35 -21 219.7 -21 252 C-31.56 252 -42.12 252 -53 252 C-53 251.67 -53 251.34 -53 251 C-42.77 251 -32.54 251 -22 251 C-22.33 241.1 -22.66 231.2 -23 221 C-32.9 220.67 -42.8 220.34 -53 220 C-53 209.44 -53 198.88 -53 188 C-42.77 188 -32.54 188 -22 188 C-22 177.44 -22 166.88 -22 156 C-11.77 156 -1.54 156 9 156 C9 104.85 9 53.7 9 1 C6.03 1 3.06 1 0 1 C0 0.67 0 0.34 0 0 Z " fill="#0F2DA2" transform="translate(428,187)"/>
<path d="M0 0 C0.33 0 0.66 0 1 0 C1 20.46 1 40.92 1 62 C11.23 62 21.46 62 32 62 C32.020625 67.094375 32.04125 72.18875 32.0625 77.4375 C32.071604 79.04681396 32.08070801 80.65612793 32.09008789 82.31420898 C32.09258545 83.57048096 32.09508301 84.82675293 32.09765625 86.12109375 C32.10289307 87.4145874 32.10812988 88.70808105 32.11352539 90.04077148 C32 93 32 93 31 94 C28.70848583 94.08790975 26.41427476 94.10694038 24.12109375 94.09765625 C22.86482178 94.09515869 21.6085498 94.09266113 20.31420898 94.09008789 C18.70489502 94.08098389 17.09558105 94.07187988 15.4375 94.0625 C10.343125 94.041875 5.24875 94.02125 0 94 C0 83.77 0 73.54 0 63 C-20.79 63 -41.58 63 -63 63 C-63 52.44 -63 41.88 -63 31 C-62.67 31 -62.34 31 -62 31 C-62 41.23 -62 51.46 -62 62 C-41.54 62 -21.08 62 0 62 C0 52.1 0 42.2 0 32 C-2.97 32 -5.94 32 -9 32 C-8.67 31.34 -8.34 30.68 -8 30 C-5.36 30.33 -2.72 30.66 0 31 C0 20.77 0 10.54 0 0 Z " fill="#0D1856" transform="translate(155,125)"/>
<path d="M0 0 C10.56 0 21.12 0 32 0 C32.020625 5.094375 32.04125 10.18875 32.0625 15.4375 C32.071604 17.04681396 32.08070801 18.65612793 32.09008789 20.31420898 C32.09258545 21.57048096 32.09508301 22.82675293 32.09765625 24.12109375 C32.10289307 25.4145874 32.10812988 26.70808105 32.11352539 28.04077148 C32 31 32 31 31 32 C28.70848583 32.08790975 26.41427476 32.10694038 24.12109375 32.09765625 C22.86482178 32.09515869 21.6085498 32.09266113 20.31420898 32.09008789 C18.70489502 32.08098389 17.09558105 32.07187988 15.4375 32.0625 C10.343125 32.041875 5.24875 32.02125 0 32 C0 21.44 0 10.88 0 0 Z " fill="#F2F7FD" transform="translate(218,156)"/>
<path d="M0 0 C10.23 0 20.46 0 31 0 C31 10.23 31 20.46 31 31 C41.23 31 51.46 31 62 31 C62 31.33 62 31.66 62 32 C41.54 32 21.08 32 0 32 C0 21.44 0 10.88 0 0 Z " fill="#0243E4" transform="translate(312,93)"/>
<path d="M0 0 C10.23 0 20.46 0 31 0 C31 10.56 31 21.12 31 32 C20.77 32 10.54 32 0 32 C0 21.44 0 10.88 0 0 Z " fill="#0044E8" transform="translate(281,375)"/>
<path d="M0 0 C10.56 0 21.12 0 32 0 C32 10.23 32 20.46 32 31 C21.44 31 10.88 31 0 31 C0 20.77 0 10.54 0 0 Z " fill="#0143E7" transform="translate(92,375)"/>
<path d="M0 0 C10.56 0 21.12 0 32 0 C32.020625 4.929375 32.04125 9.85875 32.0625 14.9375 C32.071604 16.49460693 32.08070801 18.05171387 32.09008789 19.65600586 C32.09258545 20.87167236 32.09508301 22.08733887 32.09765625 23.33984375 C32.10289307 24.59144287 32.10812988 25.84304199 32.11352539 27.13256836 C32 30 32 30 31 31 C28.70848583 31.08790975 26.41427476 31.10694038 24.12109375 31.09765625 C22.86482178 31.09515869 21.6085498 31.09266113 20.31420898 31.09008789 C18.70489502 31.08098389 17.09558105 31.07187988 15.4375 31.0625 C10.343125 31.041875 5.24875 31.02125 0 31 C0 20.77 0 10.54 0 0 Z " fill="#0022AC" transform="translate(343,407)"/>
<path d="M0 0 C10.56 0 21.12 0 32 0 C31.67 10.23 31.34 20.46 31 31 C20.77 31 10.54 31 0 31 C0 20.77 0 10.54 0 0 Z " fill="#000949" transform="translate(93,62)"/>
<path d="M0 0 C10.23 0 20.46 0 31 0 C31 10.23 31 20.46 31 31 C20.77 31 10.54 31 0 31 C0 20.77 0 10.54 0 0 Z " fill="#000A4D" transform="translate(156,438)"/>
<path d="M0 0 C10.23 0 20.46 0 31 0 C31 10.23 31 20.46 31 31 C20.77 31 10.54 31 0 31 C0 20.77 0 10.54 0 0 Z " fill="#0022AC" transform="translate(187,407)"/>
<path d="M0 0 C10.23 0 20.46 0 31 0 C31 10.23 31 20.46 31 31 C20.77 31 10.54 31 0 31 C0 20.77 0 10.54 0 0 Z " fill="#1E7EFC" transform="translate(156,407)"/>
<path d="M0 0 C10.23 0 20.46 0 31 0 C31 10.23 31 20.46 31 31 C20.77 31 10.54 31 0 31 C0 20.77 0 10.54 0 0 Z " fill="#000949" transform="translate(30,344)"/>
<path d="M0 0 C10.23 0 20.46 0 31 0 C31 10.23 31 20.46 31 31 C20.77 31 10.54 31 0 31 C0 20.77 0 10.54 0 0 Z " fill="#1D7EFC" transform="translate(61,313)"/>
<path d="M0 0 C10.23 0 20.46 0 31 0 C31 10.23 31 20.46 31 31 C20.77 31 10.54 31 0 31 C0 20.77 0 10.54 0 0 Z " fill="#1D7FFE" transform="translate(30,281)"/>
<path d="M0 0 C10.23 0 20.46 0 31 0 C31 10.23 31 20.46 31 31 C20.77 31 10.54 31 0 31 C0 20.77 0 10.54 0 0 Z " fill="#0143E5" transform="translate(281,250)"/>
<path d="M0 0 C10.23 0 20.46 0 31 0 C31 10.23 31 20.46 31 31 C20.77 31 10.54 31 0 31 C0 20.77 0 10.54 0 0 Z " fill="#00094A" transform="translate(187,219)"/>
<path d="M0 0 C10.23 0 20.46 0 31 0 C31 10.23 31 20.46 31 31 C20.77 31 10.54 31 0 31 C0 20.77 0 10.54 0 0 Z " fill="#0143E5" transform="translate(218,219)"/>
<path d="M0 0 C10.23 0 20.46 0 31 0 C31 10.23 31 20.46 31 31 C20.77 31 10.54 31 0 31 C0 20.77 0 10.54 0 0 Z " fill="#0122AC" transform="translate(375,188)"/>
<path d="M0 0 C9.9 0 19.8 0 30 0 C30 10.56 30 21.12 30 32 C20.1 32 10.2 32 0 32 C0 21.44 0 10.88 0 0 Z " fill="#00094A" transform="translate(407,93)"/>
<path d="M0 0 C10.23 0 20.46 0 31 0 C31.020625 4.929375 31.04125 9.85875 31.0625 14.9375 C31.071604 16.49460693 31.08070801 18.05171387 31.09008789 19.65600586 C31.09258545 20.87167236 31.09508301 22.08733887 31.09765625 23.33984375 C31.10551147 25.21724243 31.10551147 25.21724243 31.11352539 27.13256836 C31 30 31 30 30 31 C27.78144736 31.08783542 25.56011504 31.10694609 23.33984375 31.09765625 C22.12417725 31.09515869 20.90851074 31.09266113 19.65600586 31.09008789 C18.09889893 31.08098389 16.54179199 31.07187988 14.9375 31.0625 C10.008125 31.041875 5.07875 31.02125 0 31 C0 20.77 0 10.54 0 0 Z " fill="#0021AB" transform="translate(375,62)"/>
<path d="M0 0 C1.25159912 0.00523682 2.50319824 0.01047363 3.79272461 0.01586914 C5.00839111 0.0183667 6.22405762 0.02086426 7.4765625 0.0234375 C9.03366943 0.0325415 10.59077637 0.04164551 12.19506836 0.05102539 C17.12444336 0.07165039 22.05381836 0.09227539 27.13256836 0.11352539 C27.13256836 10.34352539 27.13256836 20.57352539 27.13256836 31.11352539 C16.90256836 31.11352539 6.67256836 31.11352539 -3.86743164 31.11352539 C-3.88805664 26.18415039 -3.90868164 21.25477539 -3.92993164 16.17602539 C-3.93903564 14.61891846 -3.94813965 13.06181152 -3.95751953 11.45751953 C-3.96001709 10.24185303 -3.96251465 9.02618652 -3.96508789 7.77368164 C-3.97032471 6.52208252 -3.97556152 5.2704834 -3.98095703 3.98095703 C-3.8293481 0.15160893 -3.8293481 0.15160893 0 0 Z " fill="#0120A7" transform="translate(127.867431640625,61.886474609375)"/>
<path d="M0 0 C9.9 0 19.8 0 30 0 C30 9.9 30 19.8 30 30 C20.1 30 10.2 30 0 30 C0 20.1 0 10.2 0 0 Z " fill="#00094A" transform="translate(62,282)"/>
<path d="M0 0 C9.9 0 19.8 0 30 0 C30 9.9 30 19.8 30 30 C20.1 30 10.2 30 0 30 C0 20.1 0 10.2 0 0 Z " fill="#00094A" transform="translate(0,0)"/>
<path d="M0 0 C7.1465625 -0.0309375 7.1465625 -0.0309375 14.4375 -0.0625 C15.9423999 -0.071604 17.4472998 -0.08070801 18.99780273 -0.09008789 C20.17286377 -0.09258545 21.3479248 -0.09508301 22.55859375 -0.09765625 C24.37315063 -0.10551147 24.37315063 -0.10551147 26.22436523 -0.11352539 C29 0 29 0 30 1 C30.08767112 3.07262076 30.10695873 5.14820294 30.09765625 7.22265625 C30.09443359 8.48271484 30.09121094 9.74277344 30.08789062 11.04101562 C30.07953403 12.38151109 30.07106907 13.72200588 30.0625 15.0625 C30.0574866 16.40689942 30.05292342 17.7513006 30.04882812 19.09570312 C30.03699488 22.39717941 30.02050971 25.69856803 30 29 C27.18175808 30.40912096 24.82748718 30.11183553 21.6796875 30.09765625 C20.54772949 30.09515869 19.41577148 30.09266113 18.24951172 30.09008789 C16.80592285 30.08098389 15.36233398 30.07187988 13.875 30.0625 C9.29625 30.041875 4.7175 30.02125 0 30 C0 20.1 0 10.2 0 0 Z " fill="#0021A9" transform="translate(156,94)"/>
<path d="M0 0 C9.9 0.33 19.8 0.66 30 1 C30 10.57 30 20.14 30 30 C26.41442992 30.89639252 23.79057808 31.11627846 20.140625 31.09765625 C19.02558594 31.09443359 17.91054688 31.09121094 16.76171875 31.08789062 C15.60285156 31.07951172 14.44398437 31.07113281 13.25 31.0625 C12.07566406 31.05798828 10.90132812 31.05347656 9.69140625 31.04882812 C6.79421928 31.03705094 3.89713546 31.02060326 1 31 C-0.43509221 28.12981559 -0.11158506 25.66456277 -0.09765625 22.4609375 C-0.09515869 21.28837402 -0.09266113 20.11581055 -0.09008789 18.90771484 C-0.08098389 17.41191895 -0.07187988 15.91612305 -0.0625 14.375 C-0.041875 9.63125 -0.02125 4.8875 0 0 Z " fill="#0143E6" transform="translate(30,312)"/>
<path d="M0 0 C0.33 0 0.66 0 1 0 C1 10.23 1 20.46 1 31 C11.23 31 21.46 31 32 31 C32 62.02 32 93.04 32 125 C21.77 125 11.54 125 1 125 C1 135.56 1 146.12 1 157 C-30.02 157 -61.04 157 -93 157 C-93.33 146.77 -93.66 136.54 -94 126 C-94.495 122.535 -94.495 122.535 -95 119 C-95.0748573 117.02328446 -95.1083487 115.04450979 -95.09765625 113.06640625 C-95.09443359 112.00615234 -95.09121094 110.94589844 -95.08789062 109.85351562 C-95.07532227 108.22446289 -95.07532227 108.22446289 -95.0625 106.5625 C-95.05798828 105.44939453 -95.05347656 104.33628906 -95.04882812 103.18945312 C-95.03711193 100.45957899 -95.02070699 97.72981826 -95 95 C-95.72218719 95.00444122 -96.44437439 95.00888245 -97.18844604 95.01345825 C-103.98666022 95.05349375 -110.78485684 95.08396338 -117.58315849 95.10362434 C-121.07843927 95.11407198 -124.57362283 95.12824883 -128.06884766 95.15087891 C-132.08497056 95.17671953 -136.10099097 95.18646466 -140.1171875 95.1953125 C-142.00472244 95.21079636 -142.00472244 95.21079636 -143.9303894 95.22659302 C-145.09144196 95.22674408 -146.25249451 95.22689514 -147.44873047 95.22705078 C-148.47465302 95.231492 -149.50057556 95.23593323 -150.55758667 95.24050903 C-153 95 -153 95 -155 93 C-134.54 93 -114.08 93 -93 93 C-92.34 113.13 -91.68 133.26 -91 154 C-46.45 154.495 -46.45 154.495 -1 155 C-1 145.43 -1 135.86 -1 126 C-10.57 126.33 -20.14 126.66 -30 127 C-30 126.34 -30 125.68 -30 125 C-20.1 125 -10.2 125 0 125 C0 94.31 0 63.62 0 32 C-9.9 32 -19.8 32 -30 32 C-30 52.13 -30 72.26 -30 93 C-30.33 93 -30.66 93 -31 93 C-31 72.54 -31 52.08 -31 31 C-20.77 31 -10.54 31 0 31 C0 20.77 0 10.54 0 0 Z M1 32 C1 62.36 1 92.72 1 124 C10.9 124 20.8 124 31 124 C31 93.64 31 63.28 31 32 C21.1 32 11.2 32 1 32 Z " fill="#01177D" transform="translate(280,250)"/>
<path d="M0 0 C0.33 0 0.66 0 1 0 C1 9.9 1 19.8 1 30 C3.64 30 6.28 30 9 30 C9 30.33 9 30.66 9 31 C0.215199 32.09852969 -8.35730137 31.94541533 -17.1875 31.5625 C-21.745625 31.376875 -26.30375 31.19125 -31 31 C-31 40.9 -31 50.8 -31 61 C-10.54 61 9.92 61 31 61 C31 51.1 31 41.2 31 31 C24.4 31 17.8 31 11 31 C11 30.67 11 30.34 11 30 C28.49 30 45.98 30 64 30 C64 40.23 64 50.46 64 61 C63.67 61 63.34 61 63 61 C63 51.1 63 41.2 63 31 C52.77 31 42.54 31 32 31 C32.185625 35.475625 32.37125 39.95125 32.5625 44.5625 C33.1572795 60.77723884 32.67278075 76.77850864 32 93 C42.56 93 53.12 93 64 93 C64 103.56 64 114.12 64 125 C63.67 125 63.34 125 63 125 C63 114.77 63 104.54 63 94 C52.44 94 41.88 94 31 94 C31 83.44 31 72.88 31 62 C10.21 62 -10.58 62 -32 62 C-32 51.77 -32 41.54 -32 31 C-41.57 31 -51.14 31 -61 31 C-61 30.67 -61 30.34 -61 30 C-40.87 30 -20.74 30 0 30 C0 20.1 0 10.2 0 0 Z " fill="#4D568B" transform="translate(61,0)"/>
<path d="M0 0 C20.46 0 40.92 0 62 0 C62.66 20.13 63.32 40.26 64 61 C108.55 61.495 108.55 61.495 154 62 C154 52.43 154 42.86 154 33 C144.43 33.33 134.86 33.66 125 34 C125 33.34 125 32.68 125 32 C134.9 32 144.8 32 155 32 C155 42.23 155 52.46 155 63 C147.45838944 63.13226752 139.91679749 63.26390436 132.37509918 63.39079285 C128.85933438 63.45008614 125.34358956 63.51021551 121.82788086 63.57275391 C101.88310975 63.92666419 81.94797195 64.06813503 62 64 C61.9523085 62.35804995 61.90462062 60.71609979 61.85694981 59.07414913 C61.81656029 57.68415613 61.77610549 56.29416501 61.73558712 54.90417576 C61.6521771 52.040557 61.56913515 49.17693612 61.48977661 46.3132019 C61.43569426 44.3636428 61.37625319 42.41423441 61.31640625 40.46484375 C61.26141968 38.57173462 61.26141968 38.57173462 61.20532227 36.64038086 C61.06671536 33.06230784 61.06671536 33.06230784 60.48413086 29.81079102 C59.79543627 24.38979566 59.89539141 19.02042067 59.9375 13.5625 C59.94201172 12.44939453 59.94652344 11.33628906 59.95117188 10.18945312 C59.96288807 7.45957899 59.97929301 4.72981826 60 2 C59.27781281 2.00444122 58.55562561 2.00888245 57.81155396 2.01345825 C51.01333978 2.05349375 44.21514316 2.08396338 37.41684151 2.10362434 C33.92156073 2.11407198 30.42637717 2.12824883 26.93115234 2.15087891 C22.91502944 2.17671953 18.89900903 2.18646466 14.8828125 2.1953125 C12.99527756 2.21079636 12.99527756 2.21079636 11.0696106 2.22659302 C9.90855804 2.22674408 8.74750549 2.22689514 7.55126953 2.22705078 C6.52534698 2.231492 5.49942444 2.23593323 4.44241333 2.24050903 C2 2 2 2 0 0 Z " fill="#000A60" transform="translate(125,343)"/>
<path d="M0 0 C0.33 0 0.66 0 1 0 C1 10.23 1 20.46 1 31 C4.3 30.67 7.6 30.34 11 30 C18.17948513 29.81824088 24.77235465 30.34294133 32 31 C32 41.23 32 51.46 32 62 C36.29 62 40.58 62 45 62 C45 62.33 45 62.66 45 63 C40.71 63 36.42 63 32 63 C31.67 63.99 31.34 64.98 31 66 C31 65.01 31 64.02 31 63 C20.77 63 10.54 63 0 63 C0 73.23 0 83.46 0 94 C-10.23 94 -20.46 94 -31 94 C-31 104.23 -31 114.46 -31 125 C-31.33 125 -31.66 125 -32 125 C-32 114.77 -32 104.54 -32 94 C-41.57 94 -51.14 94 -61 94 C-61 93.67 -61 93.34 -61 93 C-51.43 93 -41.86 93 -32 93 C-32 72.54 -32 52.08 -32 31 C-31.67 31 -31.34 31 -31 31 C-30.67 51.46 -30.34 71.92 -30 93 C-20.43 92.67 -10.86 92.34 -1 92 C-1 82.43 -1 72.86 -1 63 C-10.57 63 -20.14 63 -30 63 C-30 62.67 -30 62.34 -30 62 C-20.1 62 -10.2 62 0 62 C0 41.54 0 21.08 0 0 Z M1 32 C1 41.9 1 51.8 1 62 C10.9 62 20.8 62 31 62 C31 52.1 31 42.2 31 32 C21.1 32 11.2 32 1 32 Z " fill="#294695" transform="translate(61,250)"/>
<path d="M0 0 C4.29 0 8.58 0 13 0 C13 0.33 13 0.66 13 1 C9.04 1 5.08 1 1 1 C1 10.9 1 20.8 1 31 C21.79 31 42.58 31 64 31 C64 41.56 64 52.12 64 63 C74.23 63 84.46 63 95 63 C95 63.33 95 63.66 95 64 C84.77 64 74.54 64 64 64 C64 74.23 64 84.46 64 95 C63.67 95 63.34 95 63 95 C63 74.21 63 53.42 63 32 C42.54 32 22.08 32 1 32 C1 42.23 1 52.46 1 63 C-19.13 63 -39.26 63 -60 63 C-60 62.67 -60 62.34 -60 62 C-40.2 62 -20.4 62 0 62 C0 52.1 0 42.2 0 32 C-15.51 32 -31.02 32 -47 32 C-47 31.67 -47 31.34 -47 31 C-31.49 31 -15.98 31 0 31 C0 20.77 0 10.54 0 0 Z " fill="#313D82" transform="translate(374,30)"/>
<path d="M0 0 C10.23 0 20.46 0 31 0 C31 10.23 31 20.46 31 31 C20.77 31 10.54 31 0 31 C0 41.23 0 51.46 0 62 C-10.23 62 -20.46 62 -31 62 C-31 59.69 -31 57.38 -31 55 C-29 58.75 -29 58.75 -29 61 C-19.76 61 -10.52 61 -1 61 C-1 51.43 -1 41.86 -1 32 C-10.57 32 -20.14 32 -30 32 C-30 37.94 -30 43.88 -30 50 C-30.33 50 -30.66 50 -31 50 C-31 43.73 -31 37.46 -31 31 C-16.15 30.505 -16.15 30.505 -1 30 C-0.67 20.1 -0.34 10.2 0 0 Z M1 1 C1 9.91 1 18.82 1 28 C3.76617563 29.38308781 6.01018 29.11210196 9.1015625 29.09765625 C10.19291504 29.09515869 11.28426758 29.09266113 12.40869141 29.09008789 C14.49576416 29.07643188 14.49576416 29.07643188 16.625 29.0625 C21.03875 29.041875 25.4525 29.02125 30 29 C30 19.76 30 10.52 30 1 C20.43 1 10.86 1 1 1 Z " fill="#093FD2" transform="translate(406,62)"/>
<path d="M0 0 C0.33 0 0.66 0 1 0 C1 15.84 1 31.68 1 48 C0.67 48 0.34 48 0 48 C0 43.05 0 38.1 0 33 C-9.9 33 -19.8 33 -30 33 C-29.67 52.47 -29.34 71.94 -29 92 C-20.75 92 -12.5 92 -4 92 C-2.68 92.33 -1.36 92.66 0 93 C-0.0721875 92.17757812 -0.144375 91.35515625 -0.21875 90.5078125 C-1.10797106 79.8124592 -1.13623215 69.6724663 0 59 C0.33 59 0.66 59 1 59 C1 70.55 1 82.1 1 94 C-5 96 -5 96 -31 95 C-31 74.21 -31 53.42 -31 32 C-20.77 32 -10.54 32 0 32 C0 21.44 0 10.88 0 0 Z " fill="#172570" transform="translate(406,93)"/>
<path d="M0 0 C20.46 0 40.92 0 62 0 C62 10.56 62 21.12 62 32 C61.67 32 61.34 32 61 32 C60.25015295 27.99908596 59.8804704 24.23250483 59.90234375 20.1640625 C59.90556641 19.10058594 59.90878906 18.03710938 59.91210938 16.94140625 C59.92467773 15.29978516 59.92467773 15.29978516 59.9375 13.625 C59.94201172 12.50738281 59.94652344 11.38976562 59.95117188 10.23828125 C59.96290756 7.49213196 59.97932637 4.74609414 60 2 C59.27781281 2.00444122 58.55562561 2.00888245 57.81155396 2.01345825 C51.01333978 2.05349375 44.21514316 2.08396338 37.41684151 2.10362434 C33.92156073 2.11407198 30.42637717 2.12824883 26.93115234 2.15087891 C22.91502944 2.17671953 18.89900903 2.18646466 14.8828125 2.1953125 C12.99527756 2.21079636 12.99527756 2.21079636 11.0696106 2.22659302 C9.90855804 2.22674408 8.74750549 2.22689514 7.55126953 2.22705078 C6.52534698 2.231492 5.49942444 2.23593323 4.44241333 2.24050903 C2 2 2 2 0 0 Z " fill="#2C3158" transform="translate(125,343)"/>
<path d="M0 0 C20.46 0 40.92 0 62 0 C62 0.66 62 1.32 62 2 C42.2 2 22.4 2 2 2 C2 11.24 2 20.48 2 30 C2.99 30.33 3.98 30.66 5 31 C3.35 31 1.7 31 0 31 C0 20.77 0 10.54 0 0 Z " fill="#0941D4" transform="translate(218,407)"/>
<path d="M0 0 C10.23 0 20.46 0 31 0 C31 0.33 31 0.66 31 1 C22.09 1 13.18 1 4 1 C4 1.66 4 2.32 4 3 C3.34 3 2.68 3 2 3 C2 12.24 2 21.48 2 31 C11.57 31 21.14 31 31 31 C31 31.33 31 31.66 31 32 C20.77 32 10.54 32 0 32 C0 42.23 0 52.46 0 63 C-0.33 63 -0.66 63 -1 63 C-1.1365002 41.96426842 -0.77873229 21.02577176 0 0 Z " fill="#3872D4" transform="translate(187,187)"/>
<path d="M0 0 C31.02 0 62.04 0 94 0 C94 0.33 94 0.66 94 1 C92.87691437 1.01030746 91.75382874 1.02061493 90.59671021 1.03123474 C80.03108563 1.12883997 69.46552165 1.23156164 58.8999958 1.33933926 C53.46769393 1.39458778 48.03538669 1.44801086 42.60302734 1.49731445 C37.36401443 1.54492954 32.12506841 1.59727131 26.8861351 1.65294075 C24.88380466 1.67337726 22.88145586 1.69208816 20.87909317 1.70907402 C18.08225088 1.73308935 15.28553575 1.7631478 12.48876953 1.79467773 C11.65439362 1.8004332 10.8200177 1.80618866 9.96035767 1.81211853 C5.84759131 1.76414635 5.84759131 1.76414635 2 3 C1.67 12.24 1.34 21.48 1 31 C0.67 31 0.34 31 0 31 C0 20.77 0 10.54 0 0 Z " fill="#00136D" transform="translate(61,407)"/>
<path d="M0 0 C7.93613787 -0.02312764 15.87226176 -0.04091723 23.80842495 -0.05181217 C27.49314498 -0.05704008 31.17784203 -0.06413605 34.86254883 -0.07543945 C38.41570831 -0.08627162 41.96884563 -0.09227753 45.52202034 -0.09487724 C46.88045666 -0.0967309 48.23889171 -0.10035038 49.59731865 -0.10573006 C51.49382223 -0.11294475 53.39034793 -0.11340809 55.28686523 -0.11352539 C56.36830307 -0.115746 57.44974091 -0.11796661 58.56394958 -0.12025452 C61 0 61 0 62 1 C62.08783542 3.21855264 62.10694609 5.43988496 62.09765625 7.66015625 C62.0962413 8.32462265 62.09482635 8.98908905 62.09336853 9.6736908 C62.08775518 11.80333899 62.07520054 13.93288339 62.0625 16.0625 C62.05748671 17.50325369 62.05292351 18.94400903 62.04882812 20.38476562 C62.03778145 23.92321102 62.02050792 27.46159539 62 31 C61.01 30.67 60.02 30.34 59 30 C59.33 20.76 59.66 11.52 60 2 C30.3 1.505 30.3 1.505 0 1 C0 0.67 0 0.34 0 0 Z " fill="#081F93" transform="translate(125,375)"/>
<path d="M0 0 C10.23 0 20.46 0 31 0 C31 0.99 31 1.98 31 3 C21.43 2.67 11.86 2.34 2 2 C2 11.9 2 21.8 2 32 C1.34 32 0.68 32 0 32 C0 21.44 0 10.88 0 0 Z " fill="#0942D1" transform="translate(281,375)"/>
<path d="M0 0 C20.13 0 40.26 0 61 0 C61 10.23 61 20.46 61 31 C51.1 31 41.2 31 31 31 C31 30.67 31 30.34 31 30 C31.77714355 29.97494385 32.55428711 29.9498877 33.35498047 29.92407227 C36.86183069 29.80833204 40.36839745 29.68550648 43.875 29.5625 C45.70998047 29.50352539 45.70998047 29.50352539 47.58203125 29.44335938 C48.74863281 29.40146484 49.91523438 29.35957031 51.1171875 29.31640625 C52.19597168 29.27974854 53.27475586 29.24309082 54.38623047 29.20532227 C56.98069536 29.16623357 56.98069536 29.16623357 59 28 C59.33 19.09 59.66 10.18 60 1 C40.2 1 20.4 1 0 1 C0 0.67 0 0.34 0 0 Z " fill="#000B60" transform="translate(219,250)"/>
<path d="M0 0 C10.23 0 20.46 0 31 0 C31 10.23 31 20.46 31 31 C30.67 31 30.34 31 30 31 C29.67 21.43 29.34 11.86 29 2 C19.76 2 10.52 2 1 2 C1 11.57 1 21.14 1 31 C0.67 31 0.34 31 0 31 C0 20.77 0 10.54 0 0 Z " fill="#2A72DF" transform="translate(30,281)"/>
<path d="M0 0 C9.9 0 19.8 0 30 0 C30 10.23 30 20.46 30 31 C19.77 31 9.54 31 -1 31 C-0.67 30.34 -0.34 29.68 0 29 C9.24 28.67 18.48 28.34 28 28 C28.33 19.09 28.66 10.18 29 1 C19.43 1 9.86 1 0 1 C0 0.67 0 0.34 0 0 Z " fill="#000D64" transform="translate(31,344)"/>
<path d="M0 0 C0.33 0 0.66 0 1 0 C1 9.9 1 19.8 1 30 C-19.13 30 -39.26 30 -60 30 C-60 29.67 -60 29.34 -60 29 C-40.62221423 28.29410181 -21.36632574 27.61364408 -2 29 C-1.208675 21.94872906 -0.92303526 15.04058113 -1.0625 7.9453125 C-1.00344515 5.16235262 -0.63829121 2.70276436 0 0 Z " fill="#04083B" transform="translate(60,439)"/>
<path d="M0 0 C0.66 0 1.32 0 2 0 C2.02465622 4.25414623 2.04283899 8.50825498 2.05493164 12.76245117 C2.05997101 14.21070073 2.06680253 15.65894517 2.07543945 17.10717773 C2.08752247 19.18474588 2.09323211 21.26224697 2.09765625 23.33984375 C2.10551147 25.21724243 2.10551147 25.21724243 2.11352539 27.13256836 C2 30 2 30 1 31 C-1.21855264 31.08783542 -3.43988496 31.10694609 -5.66015625 31.09765625 C-6.65685585 31.09553383 -6.65685585 31.09553383 -7.6736908 31.09336853 C-9.80333899 31.08775518 -11.93288339 31.07520054 -14.0625 31.0625 C-15.50325369 31.05748671 -16.94400903 31.05292351 -18.38476562 31.04882812 C-21.92321102 31.03778145 -25.46159539 31.02050792 -29 31 C-29 30.67 -29 30.34 -29 30 C-19.43 30 -9.86 30 0 30 C-0.33 29.01 -0.66 28.02 -1 27 C-1.01592966 24.93326094 -0.96615799 22.86573917 -0.87890625 20.80078125 C-0.83056641 19.59228516 -0.78222656 18.38378906 -0.73242188 17.13867188 C-0.67634766 15.87603516 -0.62027344 14.61339844 -0.5625 13.3125 C-0.51029297 12.03826172 -0.45808594 10.76402344 -0.40429688 9.45117188 C-0.27449555 6.30053961 -0.1395244 3.15021423 0 0 Z " fill="#041E91" transform="translate(373,407)"/>
<path d="M0 0 C9.9 0 19.8 0 30 0 C30 0.66 30 1.32 30 2 C27.69 2 25.38 2 23 2 C22.67 2.99 22.34 3.98 22 5 C21.34 5 20.68 5 20 5 C20 4.34 20 3.68 20 3 C13.4 2.67 6.8 2.34 0 2 C0 1.34 0 0.68 0 0 Z " fill="#03229D" transform="translate(188,407)"/>
<path d="M0 0 C0.33 0 0.66 0 1 0 C1 3.63 1 7.26 1 11 C-8.9 11 -18.8 11 -29 11 C-29 10.67 -29 10.34 -29 10 C-22.95180188 9.11097088 -17.10776514 8.87651617 -11 8.9375 C-10.12988281 8.94201172 -9.25976562 8.94652344 -8.36328125 8.95117188 C-6.24215707 8.9628264 -4.1210689 8.98075643 -2 9 C-1.34 6.03 -0.68 3.06 0 0 Z " fill="#0A0F3E" transform="translate(436,396)"/>
<path d="M0 0 C0.33 0 0.66 0 1 0 C1 9.9 1 19.8 1 30 C-8.9 30 -18.8 30 -29 30 C-29 29.67 -29 29.34 -29 29 C-28.18732666 28.97494385 -27.37465332 28.9498877 -26.53735352 28.92407227 C-22.87889248 28.80850882 -19.22071472 28.68560416 -15.5625 28.5625 C-14.28310547 28.52318359 -13.00371094 28.48386719 -11.68554688 28.44335938 C-10.47060547 28.40146484 -9.25566406 28.35957031 -8.00390625 28.31640625 C-6.87799072 28.27974854 -5.7520752 28.24309082 -4.59204102 28.20532227 C-2.07146559 28.28781955 -2.07146559 28.28781955 -1 27 C-0.84174742 25.00217874 -0.74880829 22.99911166 -0.68359375 20.99609375 C-0.64169922 19.78115234 -0.59980469 18.56621094 -0.55664062 17.31445312 C-0.51732422 16.03505859 -0.47800781 14.75566406 -0.4375 13.4375 C-0.39431641 12.15423828 -0.35113281 10.87097656 -0.30664062 9.54882812 C-0.200152 6.36600147 -0.09814038 3.18309326 0 0 Z " fill="#EAFEFF" transform="translate(248,157)"/>
<path d="M0 0 C9.9 0 19.8 0 30 0 C30 0.33 30 0.66 30 1 C16.635 1.495 16.635 1.495 3 2 C1.82530556 4.34938888 1.79965111 5.95073205 1.68359375 8.5703125 C1.64169922 9.46621094 1.59980469 10.36210937 1.55664062 11.28515625 C1.51732422 12.22230469 1.47800781 13.15945313 1.4375 14.125 C1.39431641 15.06988281 1.35113281 16.01476562 1.30664062 16.98828125 C1.20040928 19.32537092 1.09836824 21.6625683 1 24 C0.67 24 0.34 24 0 24 C0 16.08 0 8.16 0 0 Z " fill="#000C58" transform="translate(407,344)"/>
<path d="M0 0 C0.33 0 0.66 0 1 0 C1.33 8.58 1.66 17.16 2 26 C5.3 26.33 8.6 26.66 12 27 C12 27.33 12 27.66 12 28 C8.04 28 4.08 28 0 28 C0 18.76 0 9.52 0 0 Z " fill="#03083C" transform="translate(156,441)"/>
<path d="M0 0 C3.96 0 7.92 0 12 0 C11.67 0.66 11.34 1.32 11 2 C8.35139573 2.59355614 5.70802678 2.74209269 3 3 C3.33 3.99 3.66 4.98 4 6 C3.01 5.67 2.02 5.34 1 5 C0.67 3.35 0.34 1.7 0 0 Z " fill="#323667" transform="translate(447,249)"/>
<path d="M0 0 C3.3 0 6.6 0 10 0 C10 3.3 10 6.6 10 10 C9.67 10 9.34 10 9 10 C8.67 7.69 8.34 5.38 8 3 C5.36 2.34 2.72 1.68 0 1 C0 0.67 0 0.34 0 0 Z " fill="#05093C" transform="translate(458,250)"/>
<path d="M0 0 C2.32590854 3.63423209 2.16265833 6.77088331 2 11 C1.67 10.34 1.34 9.68 1 9 C-1.02463255 8.34786708 -1.02463255 8.34786708 -3 8 C-2.34 7.67 -1.68 7.34 -1 7 C-0.59270772 4.67843403 -0.25561323 2.3431213 0 0 Z " fill="#0D1346" transform="translate(467,82)"/>
</svg>
