<?xml version="1.0" encoding="UTF-8"?>
<svg version="1.1" xmlns="http://www.w3.org/2000/svg" width="500" height="500">
<path d="M0 0 C41.25 0 82.5 0 125 0 C125 9.9 125 19.8 125 30 C145.46 30 165.92 30 187 30 C187 20.1 187 10.2 187 0 C228.58 0 270.16 0 313 0 C313 9.9 313 19.8 313 30 C333.46 30 353.92 30 375 30 C375 20.1 375 10.2 375 0 C416.25 0 457.5 0 500 0 C500 20.46 500 40.92 500 62 C490.1 62 480.2 62 470 62 C470.01160156 64.22621094 470.02320313 66.45242187 470.03515625 68.74609375 C470.04294722 70.89396014 470.04902375 73.04182497 470.05493164 75.18969727 C470.05997121 76.68644918 470.06680287 78.18319616 470.07543945 79.67993164 C470.08752159 81.82699807 470.09323191 83.97399962 470.09765625 86.12109375 C470.10551147 88.06133423 470.10551147 88.06133423 470.11352539 90.04077148 C470 93 470 93 469 94 C459.1 94 449.2 94 439 94 C439 124.69 439 155.38 439 187 C449.23 187 459.46 187 470 187 C470.33 217.69 470.66 248.38 471 280 C480.57 280.33 490.14 280.66 500 281 C500 322.58 500 364.16 500 407 C479.87 407 459.74 407 439 407 C439.03959822 417.15713092 439.03959822 417.15713092 439.09008789 427.31420898 C439.09383423 429.19861694 439.09383423 429.19861694 439.09765625 431.12109375 C439.10551147 433.06133423 439.10551147 433.06133423 439.11352539 435.04077148 C439 438 439 438 438 439 C436.03630847 439.0940067 434.06920801 439.11743381 432.10327148 439.11352539 C430.84203964 439.11344986 429.5808078 439.11337433 428.28135681 439.11329651 C426.89460206 439.1081891 425.50784771 439.10297309 424.12109375 439.09765625 C422.71004791 439.09579201 421.29900143 439.09436814 419.88795471 439.09336853 C416.16759465 439.08954379 412.4472734 439.0797139 408.72692871 439.06866455 C404.26660209 439.05665461 399.80626252 439.05204798 395.34592438 439.04621124 C388.56392256 439.0365021 381.78200597 439.01734528 375 439 C375 428.44 375 417.88 375 407 C364.77 407 354.54 407 344 407 C344 427.46 344 447.92 344 469 C341.12981559 470.43509221 338.66456277 470.11158506 335.4609375 470.09765625 C334.28837402 470.09515869 333.11581055 470.09266113 331.90771484 470.09008789 C329.664021 470.07643188 329.664021 470.07643188 327.375 470.0625 C322.63125 470.041875 317.8875 470.02125 313 470 C313 479.9 313 489.8 313 500 C271.42 500 229.84 500 187 500 C187 490.1 187 480.2 187 470 C177.17196975 470.03959728 177.17196975 470.03959728 167.34399414 470.09008789 C165.52049438 470.09383423 165.52049438 470.09383423 163.66015625 470.09765625 C162.40855713 470.10289307 161.15695801 470.10812988 159.86743164 470.11352539 C157 470 157 470 156 469 C155.90603943 467.06693502 155.88256483 465.13041162 155.88647461 463.19506836 C155.88655014 461.95385727 155.88662567 460.71264618 155.88670349 459.43382263 C155.89181089 458.0691626 155.8970269 456.70450298 155.90234375 455.33984375 C155.904208 453.95121817 155.90563187 452.56259193 155.90663147 451.17396545 C155.91045613 447.51278885 155.92028597 443.8516517 155.93133545 440.19049072 C155.94155068 436.45707747 155.94618403 432.72365767 155.95117188 428.99023438 C155.9613781 421.66012137 155.98094974 414.3301168 156 407 C145.77 407 135.54 407 125 407 C125.03959822 417.15713092 125.03959822 417.15713092 125.09008789 427.31420898 C125.09258545 428.57048096 125.09508301 429.82675293 125.09765625 431.12109375 C125.10289307 432.4145874 125.10812988 433.70808105 125.11352539 435.04077148 C125 438 125 438 124 439 C122.10830699 439.0991558 120.21289292 439.12799312 118.31860352 439.12939453 C117.10386856 439.13254669 115.88913361 439.13569885 114.6375885 439.13894653 C113.30136072 439.13715655 111.96513326 439.13510555 110.62890625 439.1328125 C109.26749148 439.13348567 107.90607683 439.1344558 106.54466248 439.13571167 C103.68723408 439.13718854 100.82983689 439.13503476 97.97241211 439.13037109 C94.30581199 439.12467919 90.63928514 439.12794943 86.97268772 439.13394356 C84.15975897 439.13755406 81.34684765 439.13640823 78.53391838 439.13381577 C77.18189421 439.13314757 75.82986848 439.13397118 74.47784615 439.13629532 C72.58882807 439.1388292 70.69980447 439.13428371 68.81079102 439.12939453 C67.73459 439.12859894 66.65838898 439.12780334 65.54957581 439.12698364 C63 439 63 439 61 438 C61 427.77 61 417.54 61 407 C40.87 407 20.74 407 0 407 C0 365.09 0 323.18 0 280 C9.9 280.33 19.8 280.66 30 281 C29.99476318 278.18799072 29.98952637 275.37598145 29.98413086 272.47875977 C29.96759626 263.21075344 29.9565293 253.94274649 29.94818783 244.67472935 C29.94295864 239.05292038 29.93586034 233.43112647 29.92456055 227.80932617 C29.91373294 222.38881723 29.90772344 216.9683228 29.90512276 211.54780388 C29.90326828 209.47485055 29.89964723 207.40189806 29.89426994 205.32895088 C29.8870612 202.43616107 29.88600899 199.54343204 29.88647461 196.65063477 C29.88287933 195.78461136 29.87928406 194.91858795 29.87557983 194.02632141 C29.88594784 188.11405216 29.88594784 188.11405216 31 187 C40.9 187 50.8 187 61 187 C61 156.31 61 125.62 61 94 C51.43 94 41.86 94 32 94 C31.34 93.67 30.68 93.34 30 93 C30 82.77 30 72.54 30 62 C20.1 62 10.2 62 0 62 C0 41.54 0 21.08 0 0 Z M37.26953125 281.5078125 C36.09624268 281.59949707 34.9229541 281.69118164 33.71411133 281.78564453 C32.81845459 281.85638184 31.92279785 281.92711914 31 282 C30.97534254 286.1117256 30.95716041 290.22342278 30.94506836 294.33520508 C30.9400292 295.73495228 30.93319784 297.1346942 30.92456055 298.53442383 C30.9124768 300.54245777 30.90730193 302.55052957 30.90234375 304.55859375 C30.89710693 305.76829834 30.89187012 306.97800293 30.88647461 308.22436523 C30.68224715 310.90812017 30.68224715 310.90812017 32 312 C34.14558827 312.08775605 36.29404421 312.10695219 38.44140625 312.09765625 C39.61646729 312.09515869 40.79152832 312.09266113 42.00219727 312.09008789 C43.50709717 312.08098389 45.01199707 312.07187988 46.5625 312.0625 C53.7090625 312.0315625 53.7090625 312.0315625 61 312 C61 302.1 61 292.2 61 282 C52.70108752 281.17010875 45.48897439 280.8625478 37.26953125 281.5078125 Z M439 282 C439 291.9 439 301.8 439 312 C443.57875 312.020625 448.1575 312.04125 452.875 312.0625 C455.0403833 312.07615601 455.0403833 312.07615601 457.24951172 312.09008789 C458.38146973 312.09258545 459.51342773 312.09508301 460.6796875 312.09765625 C461.84226074 312.10289307 463.00483398 312.10812988 464.20263672 312.11352539 C466.95502192 312.19356283 466.95502192 312.19356283 469 311 C469 301.43 469 291.86 469 282 C459.1 282 449.2 282 439 282 Z " fill="#5C8B01" transform="translate(0,0)"/>
<path d="M0 0 C10.56 0 21.12 0 32 0 C32 9.9 32 19.8 32 30 C52.46 30 72.92 30 94 30 C94 20.1 94 10.2 94 0 C135.58 0 177.16 0 220 0 C220 9.9 220 19.8 220 30 C240.46 30 260.92 30 282 30 C282 20.1 282 10.2 282 0 C323.25 0 364.5 0 407 0 C407 20.46 407 40.92 407 62 C397.1 62 387.2 62 377 62 C377.01160156 64.22621094 377.02320313 66.45242187 377.03515625 68.74609375 C377.04294722 70.89396014 377.04902375 73.04182497 377.05493164 75.18969727 C377.05997121 76.68644918 377.06680287 78.18319616 377.07543945 79.67993164 C377.08752159 81.82699807 377.09323191 83.97399962 377.09765625 86.12109375 C377.10551147 88.06133423 377.10551147 88.06133423 377.11352539 90.04077148 C377 93 377 93 376 94 C366.1 94 356.2 94 346 94 C346 124.69 346 155.38 346 187 C356.23 187 366.46 187 377 187 C377.33 217.69 377.66 248.38 378 280 C387.57 280.33 397.14 280.66 407 281 C407 322.58 407 364.16 407 407 C386.87 407 366.74 407 346 407 C346.03959822 417.15713092 346.03959822 417.15713092 346.09008789 427.31420898 C346.09383423 429.19861694 346.09383423 429.19861694 346.09765625 431.12109375 C346.10551147 433.06133423 346.10551147 433.06133423 346.11352539 435.04077148 C346 438 346 438 345 439 C343.03630847 439.0940067 341.06920801 439.11743381 339.10327148 439.11352539 C337.84203964 439.11344986 336.5808078 439.11337433 335.28135681 439.11329651 C333.89460206 439.1081891 332.50784771 439.10297309 331.12109375 439.09765625 C329.71004791 439.09579201 328.29900143 439.09436814 326.88795471 439.09336853 C323.16759465 439.08954379 319.4472734 439.0797139 315.72692871 439.06866455 C311.26660209 439.05665461 306.80626252 439.05204798 302.34592438 439.04621124 C295.56392256 439.0365021 288.78200597 439.01734528 282 439 C282 428.44 282 417.88 282 407 C271.77 407 261.54 407 251 407 C251 427.46 251 447.92 251 469 C248.12981559 470.43509221 245.66456277 470.11158506 242.4609375 470.09765625 C241.28837402 470.09515869 240.11581055 470.09266113 238.90771484 470.09008789 C236.664021 470.07643188 236.664021 470.07643188 234.375 470.0625 C229.63125 470.041875 224.8875 470.02125 220 470 C220 479.9 220 489.8 220 500 C178.42 500 136.84 500 94 500 C94 490.1 94 480.2 94 470 C84.17196975 470.03959728 84.17196975 470.03959728 74.34399414 470.09008789 C72.52049438 470.09383423 72.52049438 470.09383423 70.66015625 470.09765625 C69.40855713 470.10289307 68.15695801 470.10812988 66.86743164 470.11352539 C64 470 64 470 63 469 C62.90603943 467.06693502 62.88256483 465.13041162 62.88647461 463.19506836 C62.88658791 461.33325172 62.88658791 461.33325172 62.88670349 459.43382263 C62.89181089 458.0691626 62.8970269 456.70450298 62.90234375 455.33984375 C62.904208 453.95121817 62.90563187 452.56259193 62.90663147 451.17396545 C62.91045613 447.51278885 62.92028597 443.8516517 62.93133545 440.19049072 C62.94155068 436.45707747 62.94618403 432.72365767 62.95117188 428.99023438 C62.9613781 421.66012137 62.98094974 414.3301168 63 407 C52.77 407 42.54 407 32 407 C32.03959822 417.15713092 32.03959822 417.15713092 32.09008789 427.31420898 C32.09258545 428.57048096 32.09508301 429.82675293 32.09765625 431.12109375 C32.10289307 432.4145874 32.10812988 433.70808105 32.11352539 435.04077148 C32 438 32 438 31 439 C29.10301151 439.09915795 27.20231213 439.12799314 25.30273438 439.12939453 C24.08477173 439.13254669 22.86680908 439.13569885 21.61193848 439.13894653 C20.27254195 439.13715675 18.93314576 439.1351058 17.59375 439.1328125 C16.2299396 439.1334856 14.86612932 439.13445567 13.50231934 439.13571167 C10.64069479 439.13718838 7.7791014 439.13503497 4.91748047 439.13037109 C1.24181386 439.12467381 -2.43377974 439.12795296 -6.10944366 439.13394356 C-8.92662104 439.13754991 -11.74378098 439.13641025 -14.56095886 439.13381577 C-15.91660063 439.1331467 -17.27224396 439.13397421 -18.62788391 439.13629532 C-20.51950044 439.13882301 -22.41112249 439.13429014 -24.30273438 439.12939453 C-25.92036682 439.12820114 -25.92036682 439.12820114 -27.57067871 439.12698364 C-30 439 -30 439 -31 438 C-31 427.77 -31 417.54 -31 407 C-0.31 406.505 -0.31 406.505 31 406 C31.33 395.77 31.66 385.54 32 375 C52.46 375 72.92 375 94 375 C94.74748184 396.02292679 95.14276972 416.96672558 95 438 C95.90355225 437.99476318 96.80710449 437.98952637 97.73803711 437.98413086 C101.07951489 437.96712314 104.42094692 437.95456667 107.76245117 437.94506836 C109.21070073 437.94002899 110.65894517 437.93319747 112.10717773 437.92456055 C114.18474588 437.91247753 116.26224697 437.90676789 118.33984375 437.90234375 C119.59144287 437.89710693 120.84304199 437.89187012 122.13256836 437.88647461 C125 438 125 438 126 439 C126 448.9 126 458.8 126 469 C156.69 469 187.38 469 219 469 C219 448.21 219 427.42 219 406 C208.77 406 198.54 406 188 406 C188 395.77 188 385.54 188 375 C183.82742554 375.00785522 183.82742554 375.00785522 179.57055664 375.01586914 C170.40233521 375.03240382 161.23411314 375.04347073 152.06588078 375.05181217 C146.50460589 375.05704134 140.94334621 375.06413958 135.38208008 375.07543945 C130.01992581 375.08626715 124.65778622 375.09227658 119.29562187 375.09487724 C117.24499722 375.09673171 115.1943734 375.10035272 113.14375496 375.10573006 C110.28209797 375.11293893 107.42050243 375.11399101 104.55883789 375.11352539 C103.70216522 375.11712067 102.84549255 375.12071594 101.96286011 375.12442017 C96.11405216 375.11405216 96.11405216 375.11405216 95 374 C95 364.1 95 354.2 95 344 C156.71 344 218.42 344 282 344 C282 333.44 282 322.88 282 312 C292.56 312 303.12 312 314 312 C314 301.77 314 291.54 314 281 C324.23 281 334.46 281 345 281 C345 260.54 345 240.08 345 219 C334.77 219 324.54 219 314 219 C308.01293588 218.86939011 302.04407217 218.72492072 296.0625 218.5 C291.421875 218.335 286.78125 218.17 282 218 C282 208.1 282 198.2 282 188 C271.77 188 261.54 188 251 188 C251 177.44 251 166.88 251 156 C261.23 156 271.46 156 282 156 C282 166.23 282 176.46 282 187 C292.56 187 303.12 187 314 187 C313.505 140.965 313.505 140.965 313 94 C302.77 93.67 292.54 93.34 282 93 C282 82.77 282 72.54 282 62 C250.98 62 219.96 62 188 62 C188 51.77 188 41.54 188 31 C167.54 31 147.08 31 126 31 C126 40.9 126 50.8 126 61 C105.20269327 61.76937313 84.47507449 62.13650902 63.66699219 62.06866455 C60.07162116 62.05813287 56.47624173 62.05374931 52.88085938 62.04882812 C45.92053245 62.03888196 38.96033172 62.0192807 32 62 C31.67 51.77 31.34 41.54 31 31 C20.77 30.67 10.54 30.34 0 30 C0 20.1 0 10.2 0 0 Z M346 282 C346 291.9 346 301.8 346 312 C350.57875 312.020625 355.1575 312.04125 359.875 312.0625 C362.0403833 312.07615601 362.0403833 312.07615601 364.24951172 312.09008789 C365.38146973 312.09258545 366.51342773 312.09508301 367.6796875 312.09765625 C368.84226074 312.10289307 370.00483398 312.10812988 371.20263672 312.11352539 C373.95502192 312.19356283 373.95502192 312.19356283 376 311 C376 301.43 376 291.86 376 282 C366.1 282 356.2 282 346 282 Z " fill="#416F12" transform="translate(93,0)"/>
<path d="M0 0 C10.23 0 20.46 0 31 0 C31 10.23 31 20.46 31 31 C41.23 31 51.46 31 62 31 C62 62.02 62 93.04 62 125 C72.56 125 83.12 125 94 125 C94 114.77 94 104.54 94 94 C104.23 94 114.46 94 125 94 C125 104.56 125 115.12 125 126 C114.77 126 104.54 126 94 126 C94 135.9 94 145.8 94 156 C96.22621094 155.98839844 98.45242187 155.97679687 100.74609375 155.96484375 C102.89396014 155.95705278 105.04182497 155.95097625 107.18969727 155.94506836 C108.68644918 155.94002879 110.18319616 155.93319713 111.67993164 155.92456055 C113.82699807 155.91247841 115.97399962 155.90676809 118.12109375 155.90234375 C119.4145874 155.89710693 120.70808105 155.89187012 122.04077148 155.88647461 C125 156 125 156 126 157 C126.08783542 159.21855264 126.10694609 161.43988496 126.09765625 163.66015625 C126.09515869 164.87582275 126.09266113 166.09148926 126.09008789 167.34399414 C126.08098389 168.90110107 126.07187988 170.45820801 126.0625 172.0625 C126.041875 176.991875 126.02125 181.92125 126 187 C135.9 187 145.8 187 156 187 C156.02291238 191.39663033 156.04283833 195.79305488 156.05493164 200.18969727 C156.05997121 201.68644918 156.06680287 203.18319616 156.07543945 204.67993164 C156.08752159 206.82699807 156.09323191 208.97399962 156.09765625 211.12109375 C156.10289307 212.4145874 156.10812988 213.70808105 156.11352539 215.04077148 C156 218 156 218 155 219 C152.85613343 219.15858842 150.70733162 219.25129298 148.55859375 219.31640625 C147.38353271 219.35451416 146.20847168 219.39262207 144.99780273 219.43188477 C143.49290283 219.47498779 141.98800293 219.51809082 140.4375 219.5625 C133.2909375 219.7790625 133.2909375 219.7790625 126 220 C125.67 229.9 125.34 239.8 125 250 C135.23 250 145.46 250 156 250 C156 260.23 156 270.46 156 281 C187.35 280.67 218.7 280.34 251 280 C250.96038804 260.29893661 250.96038804 260.29893661 250.90991211 240.59790039 C250.90699322 238.13948612 250.9044446 235.68107136 250.90234375 233.22265625 C250.89722778 231.9322644 250.89211182 230.64187256 250.88684082 229.31237793 C250.88671997 228.09433472 250.88659912 226.8762915 250.88647461 225.62133789 C250.884254 224.55766495 250.88203339 223.493992 250.87974548 222.39808655 C251 220 251 220 252 219 C254.14558827 218.91224395 256.29404421 218.89304781 258.44140625 218.90234375 C259.61646729 218.90484131 260.79152832 218.90733887 262.00219727 218.90991211 C264.25954712 218.92356812 264.25954712 218.92356812 266.5625 218.9375 C271.326875 218.958125 276.09125 218.97875 281 219 C281 208.77 281 198.54 281 188 C291.56 188 302.12 188 313 188 C313 198.23 313 208.46 313 219 C302.77 219 292.54 219 282 219 C282 239.46 282 259.92 282 281 C302.46 281 322.92 281 344 281 C344 281.33 344 281.66 344 282 C282.29 282 220.58 282 157 282 C157.33 291.9 157.66 301.8 158 312 C188.36 312.33 218.72 312.66 250 313 C250 323.23 250 333.46 250 344 C260.23 344 270.46 344 281 344 C281 364.79 281 385.58 281 407 C250.31 407 219.62 407 188 407 C187.67 397.1 187.34 387.2 187 377 C177.1 376.67 167.2 376.34 157 376 C156.22067212 354.9581473 155.90642491 334.05439486 156 313 C135.54 313 115.08 313 94 313 C94 323.23 94 333.46 94 344 C93 345 93 345 90.52598572 345.12025452 C89.42678299 345.11803391 88.32758026 345.11581329 87.19506836 345.11352539 C85.95385727 345.11344986 84.71264618 345.11337433 83.43382263 345.11329651 C82.0691626 345.10818911 80.70450298 345.1029731 79.33984375 345.09765625 C77.95121817 345.095792 76.56259193 345.09436813 75.17396545 345.09336853 C71.51278885 345.08954387 67.8516517 345.07971403 64.19049072 345.06866455 C60.45707747 345.05844932 56.72365767 345.05381597 52.99023438 345.04882812 C45.66012137 345.0386219 38.3301168 345.01905026 31 345 C31 355.23 31 365.46 31 376 C30.67 376 30.34 376 30 376 C30 365.77 30 355.54 30 345 C9.87 345 -10.26 345 -31 345 C-31 303.09 -31 261.18 -31 218 C-21.1 218.33 -11.2 218.66 -1 219 C-1.00523682 216.18799072 -1.01047363 213.37598145 -1.01586914 210.47875977 C-1.03240374 201.21075344 -1.0434707 191.94274649 -1.05181217 182.67472935 C-1.05704136 177.05292038 -1.06413966 171.43112647 -1.07543945 165.80932617 C-1.08626706 160.38881723 -1.09227656 154.9683228 -1.09487724 149.54780388 C-1.09673172 147.47485055 -1.10035277 145.40189806 -1.10573006 143.32895088 C-1.1129388 140.43616107 -1.11399101 137.54343204 -1.11352539 134.65063477 C-1.11712067 133.78461136 -1.12071594 132.91858795 -1.12442017 132.02632141 C-1.11405216 126.11405216 -1.11405216 126.11405216 0 125 C9.9 125 19.8 125 30 125 C30 94.31 30 63.62 30 32 C20.43 32 10.86 32 1 32 C0 31 0 31 -0.11352539 28.04077148 C-0.10828857 26.74727783 -0.10305176 25.45378418 -0.09765625 24.12109375 C-0.09515869 22.86482178 -0.09266113 21.6085498 -0.09008789 20.31420898 C-0.08098389 18.70489502 -0.07187988 17.09558105 -0.0625 15.4375 C-0.041875 10.343125 -0.02125 5.24875 0 0 Z M6.26953125 219.5078125 C5.09624268 219.59949707 3.9229541 219.69118164 2.71411133 219.78564453 C1.81845459 219.85638184 0.92279785 219.92711914 0 220 C-0.02465746 224.1117256 -0.04283959 228.22342278 -0.05493164 232.33520508 C-0.0599708 233.73495228 -0.06680216 235.1346942 -0.07543945 236.53442383 C-0.0875232 238.54245777 -0.09269807 240.55052957 -0.09765625 242.55859375 C-0.10289307 243.76829834 -0.10812988 244.97800293 -0.11352539 246.22436523 C-0.31775285 248.90812017 -0.31775285 248.90812017 1 250 C3.14558827 250.08775605 5.29404421 250.10695219 7.44140625 250.09765625 C8.61646729 250.09515869 9.79152832 250.09266113 11.00219727 250.09008789 C12.50709717 250.08098389 14.01199707 250.07187988 15.5625 250.0625 C22.7090625 250.0315625 22.7090625 250.0315625 30 250 C30 240.1 30 230.2 30 220 C21.70108752 219.17010875 14.48897439 218.8625478 6.26953125 219.5078125 Z " fill="#5B8A02" transform="translate(31,62)"/>
<path d="M0 0 C30.69 0 61.38 0 93 0 C93 9.9 93 19.8 93 30 C95.22621094 29.98839844 97.45242187 29.97679688 99.74609375 29.96484375 C101.89396014 29.95705278 104.04182497 29.95097625 106.18969727 29.94506836 C107.68644918 29.94002879 109.18319616 29.93319713 110.67993164 29.92456055 C112.82699807 29.91247841 114.97399962 29.90676809 117.12109375 29.90234375 C119.06133423 29.89448853 119.06133423 29.89448853 121.04077148 29.88647461 C124 30 124 30 125 31 C125.08790975 33.29151417 125.10694038 35.58572524 125.09765625 37.87890625 C125.0962413 38.5655687 125.09482635 39.25223114 125.09336853 39.95970154 C125.08775479 42.16067801 125.07520007 44.36155409 125.0625 46.5625 C125.05748676 48.05143083 125.05292355 49.54036324 125.04882812 51.02929688 C125.03778093 54.68623075 125.02050713 58.34310558 125 62 C125.72042984 61.98747192 126.44085968 61.97494385 127.18312073 61.96203613 C134.13415823 61.84164407 141.08523535 61.72391907 148.03636265 61.60884857 C151.60589095 61.54967286 155.17539928 61.48963115 158.74487305 61.42724609 C178.83368989 61.07699483 198.90746481 60.9531779 219 61 C219 51.1 219 41.2 219 31 C239.46 31 259.92 31 281 31 C281 41.23 281 51.46 281 62 C291.56 62 302.12 62 313 62 C313 72.23 313 82.46 313 93 C302.44 93 291.88 93 281 93 C281 103.23 281 113.46 281 124 C260.29037884 124.76348834 239.72345826 125.09549981 219 125 C219 135.23 219 145.46 219 156 C229.23 156 239.46 156 250 156 C250 166.23 250 176.46 250 187 C260.23 187 270.46 187 281 187 C281 197.23 281 207.46 281 218 C260.54 218 240.08 218 219 218 C219 207.77 219 197.54 219 187 C198.54 187 178.08 187 157 187 C157 177.1 157 167.2 157 157 C146.44 156.67 135.88 156.34 125 156 C125 166.23 125 176.46 125 187 C114.44 187 103.88 187 93 187 C93 155.98 93 124.96 93 93 C82.77 93 72.54 93 62 93 C62 82.77 62 72.54 62 62 C51.77 62 41.54 62 31 62 C31 72.23 31 82.46 31 93 C30.67 93 30.34 93 30 93 C30 82.77 30 72.54 30 62 C20.1 62 10.2 62 0 62 C0 41.54 0 21.08 0 0 Z " fill="#346901" transform="translate(0,0)"/>
<path d="M0 0 C61.71 0 123.42 0 187 0 C187 20.79 187 41.58 187 63 C176.77 63 166.54 63 156 63 C156 83.46 156 103.92 156 125 C153.12981559 126.43509221 150.66456277 126.11158506 147.4609375 126.09765625 C146.28837402 126.09515869 145.11581055 126.09266113 143.90771484 126.09008789 C141.664021 126.07643188 141.664021 126.07643188 139.375 126.0625 C134.63125 126.041875 129.8875 126.02125 125 126 C125 135.9 125 145.8 125 156 C83.42 156 41.84 156 -1 156 C-1 146.1 -1 136.2 -1 126 C-10.82803025 126.03959728 -10.82803025 126.03959728 -20.65600586 126.09008789 C-22.47950562 126.09383423 -22.47950562 126.09383423 -24.33984375 126.09765625 C-25.59144287 126.10289307 -26.84304199 126.10812988 -28.13256836 126.11352539 C-31 126 -31 126 -32 125 C-32.09396057 123.06693502 -32.11743517 121.13041162 -32.11352539 119.19506836 C-32.11341209 117.33325172 -32.11341209 117.33325172 -32.11329651 115.43382263 C-32.10818911 114.0691626 -32.1029731 112.70450298 -32.09765625 111.33984375 C-32.095792 109.95121817 -32.09436813 108.56259193 -32.09336853 107.17396545 C-32.08954387 103.51278885 -32.07971403 99.8516517 -32.06866455 96.19049072 C-32.05844932 92.45707747 -32.05381597 88.72365767 -32.04882812 84.99023438 C-32.0386219 77.66012137 -32.01905026 70.3301168 -32 63 C-42.23 63 -52.46 63 -63 63 C-62.96040178 73.15713092 -62.96040178 73.15713092 -62.90991211 83.31420898 C-62.90741455 84.57048096 -62.90491699 85.82675293 -62.90234375 87.12109375 C-62.89710693 88.4145874 -62.89187012 89.70808105 -62.88647461 91.04077148 C-63 94 -63 94 -64 95 C-65.89698849 95.09915795 -67.79768787 95.12799314 -69.69726562 95.12939453 C-70.91522827 95.13254669 -72.13319092 95.13569885 -73.38806152 95.13894653 C-74.72745805 95.13715675 -76.06685424 95.1351058 -77.40625 95.1328125 C-78.7700604 95.1334856 -80.13387068 95.13445567 -81.49768066 95.13571167 C-84.35930521 95.13718838 -87.2208986 95.13503497 -90.08251953 95.13037109 C-93.75818614 95.12467381 -97.43377974 95.12795296 -101.10944366 95.13394356 C-103.92662104 95.13754991 -106.74378098 95.13641025 -109.56095886 95.13381577 C-110.91660063 95.1331467 -112.27224396 95.13397421 -113.62788391 95.13629532 C-115.51950044 95.13882301 -117.41112249 95.13429014 -119.30273438 95.12939453 C-120.92036682 95.12820114 -120.92036682 95.12820114 -122.57067871 95.12698364 C-125 95 -125 95 -126 94 C-126 83.77 -126 73.54 -126 63 C-95.31 62.505 -95.31 62.505 -64 62 C-63.67 51.77 -63.34 41.54 -63 31 C-42.54 31 -22.08 31 -1 31 C-0.25251816 52.02292679 0.14276972 72.96672558 0 94 C0.90355225 93.99476318 1.80710449 93.98952637 2.73803711 93.98413086 C6.07951489 93.96712314 9.42094692 93.95456667 12.76245117 93.94506836 C14.21070073 93.94002899 15.65894517 93.93319747 17.10717773 93.92456055 C19.18474588 93.91247753 21.26224697 93.90676789 23.33984375 93.90234375 C24.59144287 93.89710693 25.84304199 93.89187012 27.13256836 93.88647461 C30 94 30 94 31 95 C31 104.9 31 114.8 31 125 C61.69 125 92.38 125 124 125 C124 104.21 124 83.42 124 62 C113.77 62 103.54 62 93 62 C93 51.77 93 41.54 93 31 C88.82742554 31.00785522 88.82742554 31.00785522 84.57055664 31.01586914 C75.40233521 31.03240382 66.23411314 31.04347073 57.06588078 31.05181217 C51.50460589 31.05704134 45.94334621 31.06413958 40.38208008 31.07543945 C35.01992581 31.08626715 29.65778622 31.09227658 24.29562187 31.09487724 C22.24499722 31.09673171 20.1943734 31.10035272 18.14375496 31.10573006 C15.28209797 31.11293893 12.42050243 31.11399101 9.55883789 31.11352539 C8.70216522 31.11712067 7.84549255 31.12071594 6.96286011 31.12442017 C1.11405216 31.11405216 1.11405216 31.11405216 0 30 C0 20.1 0 10.2 0 0 Z " fill="#366606" transform="translate(188,344)"/>
<path d="M0 0 C20.46 0 40.92 0 62 0 C62 10.23 62 20.46 62 31 C72.56 31 83.12 31 94 31 C94 41.23 94 51.46 94 62 C83.44 62 72.88 62 62 62 C62 72.23 62 82.46 62 93 C41.29037884 93.76348834 20.72345826 94.09549981 0 94 C0 104.23 0 114.46 0 125 C10.23 125 20.46 125 31 125 C31 135.23 31 145.46 31 156 C41.23 156 51.46 156 62 156 C62 166.23 62 176.46 62 187 C41.54 187 21.08 187 0 187 C0 176.77 0 166.54 0 156 C-20.46 156 -40.92 156 -62 156 C-62 146.1 -62 136.2 -62 126 C-47.15 125.505 -47.15 125.505 -32 125 C-31.67 114.44 -31.34 103.88 -31 93 C-21.1 93 -11.2 93 -1 93 C-1 82.77 -1 72.54 -1 62 C-11.23 62 -21.46 62 -32 62 C-32.0309375 54.3584375 -32.0309375 54.3584375 -32.0625 46.5625 C-32.071604 44.95318604 -32.08070801 43.34387207 -32.09008789 41.68579102 C-32.09258545 40.42951904 -32.09508301 39.17324707 -32.09765625 37.87890625 C-32.10551147 35.93866577 -32.10551147 35.93866577 -32.11352539 33.95922852 C-32 31 -32 31 -31 30 C-28.70848583 29.91209025 -26.41427476 29.89305962 -24.12109375 29.90234375 C-23.09110008 29.90446617 -23.09110008 29.90446617 -22.04029846 29.90663147 C-19.83932199 29.91224521 -17.63844591 29.92479993 -15.4375 29.9375 C-13.94856917 29.94251324 -12.45963676 29.94707645 -10.97070312 29.95117188 C-7.31373195 29.96136979 -3.65697883 29.98094221 0 30 C0 20.1 0 10.2 0 0 Z " fill="#5C8B01" transform="translate(219,31)"/>
<path d="M0 0 C20.46 0 40.92 0 62 0 C62 10.23 62 20.46 62 31 C72.15713092 30.96040178 72.15713092 30.96040178 82.31420898 30.90991211 C83.57048096 30.90741455 84.82675293 30.90491699 86.12109375 30.90234375 C88.06133423 30.89448853 88.06133423 30.89448853 90.04077148 30.88647461 C93 31 93 31 94 32 C94.09523905 34.89143151 94.12553027 37.75892064 94.11352539 40.65063477 C94.11367142 41.55786285 94.11381744 42.46509094 94.1139679 43.39981079 C94.11326841 46.41369985 94.10547434 49.42752793 94.09765625 52.44140625 C94.0957922 54.52505967 94.09436824 56.60871354 94.09336853 58.69236755 C94.08954234 64.18823446 94.0797112 69.68407513 94.06866455 75.17993164 C94.0584526 80.78336227 94.05387137 86.38679713 94.04882812 91.99023438 C94.03808902 102.993503 94.02049141 113.99674521 94 125 C83.44 125 72.88 125 62 125 C62 114.77 62 104.54 62 94 C41.21 94 20.42 94 -1 94 C-1 83.77 -1 73.54 -1 63 C-11.23 63 -21.46 63 -32 63 C-32 73.23 -32 83.46 -32 94 C-52.46 94 -72.92 94 -94 94 C-94 83.77 -94 73.54 -94 63 C-73.29037884 62.23651166 -52.72345826 61.90450019 -32 62 C-32 51.77 -32 41.54 -32 31 C-21.44 31 -10.88 31 0 31 C0 20.77 0 10.54 0 0 Z " fill="#346901" transform="translate(313,62)"/>
<path d="M0 0 C10.56 0 21.12 0 32 0 C32 9.9 32 19.8 32 30 C52.46 30 72.92 30 94 30 C94 20.1 94 10.2 94 0 C135.58 0 177.16 0 220 0 C220 9.9 220 19.8 220 30 C240.46 30 260.92 30 282 30 C282 20.1 282 10.2 282 0 C292.56 0 303.12 0 314 0 C314 10.23 314 20.46 314 31 C303.44 31 292.88 31 282 31 C282 41.23 282 51.46 282 62 C250.98 62 219.96 62 188 62 C188 51.77 188 41.54 188 31 C167.54 31 147.08 31 126 31 C126 40.9 126 50.8 126 61 C105.20269327 61.76937313 84.47507449 62.13650902 63.66699219 62.06866455 C60.07162116 62.05813287 56.47624173 62.05374931 52.88085938 62.04882812 C45.92053245 62.03888196 38.96033172 62.0192807 32 62 C31.505 46.655 31.505 46.655 31 31 C20.77 30.67 10.54 30.34 0 30 C0 20.1 0 10.2 0 0 Z " fill="#38620B" transform="translate(93,0)"/>
<path d="M0 0 C9.9 0 19.8 0 30 0 C30 31.02 30 62.04 30 94 C9.87 94 -10.26 94 -31 94 C-30.96040178 104.15713092 -30.96040178 104.15713092 -30.90991211 114.31420898 C-30.90741455 115.57048096 -30.90491699 116.82675293 -30.90234375 118.12109375 C-30.89710693 119.4145874 -30.89187012 120.70808105 -30.88647461 122.04077148 C-31 125 -31 125 -32 126 C-33.96369153 126.0940067 -35.93079199 126.11743381 -37.89672852 126.11352539 C-39.81515564 126.11334412 -39.81515564 126.11334412 -41.77233887 126.11315918 C-43.14119515 126.10812271 -44.51005096 126.10295607 -45.87890625 126.09765625 C-47.11636597 126.09664917 -48.35382568 126.09564209 -49.62878418 126.09460449 C-54.27336548 126.08935285 -58.91793362 126.07539175 -63.5625 126.0625 C-73.936875 126.041875 -84.31125 126.02125 -95 126 C-95 104.88 -95 83.76 -95 62 C-84.44 62 -73.88 62 -63 62 C-63 51.77 -63 41.54 -63 31 C-42.21 31 -21.42 31 0 31 C0 20.77 0 10.54 0 0 Z " fill="#85BE03" transform="translate(470,313)"/>
<path d="M0 0 C30.69 0 61.38 0 93 0 C93 10.23 93 20.46 93 31 C103.23 31 113.46 31 124 31 C124 51.79 124 72.58 124 94 C93.31 94 62.62 94 31 94 C30.67 84.1 30.34 74.2 30 64 C15.15 63.505 15.15 63.505 0 63 C0 42.21 0 21.42 0 0 Z " fill="#86BD05" transform="translate(188,375)"/>
<path d="M0 0 C9.9 0 19.8 0 30 0 C30.33 9.9 30.66 19.8 31 30 C51.46 30.33 71.92 30.66 93 31 C93 41.23 93 51.46 93 62 C103.56 62 114.12 62 125 62 C125.020625 67.094375 125.04125 72.18875 125.0625 77.4375 C125.071604 79.04681396 125.08070801 80.65612793 125.09008789 82.31420898 C125.09258545 83.57048096 125.09508301 84.82675293 125.09765625 86.12109375 C125.10289307 87.4145874 125.10812988 88.70808105 125.11352539 90.04077148 C125 93 125 93 124 94 C122.06693502 94.09396057 120.13041162 94.11743517 118.19506836 94.11352539 C116.95385727 94.11344986 115.71264618 94.11337433 114.43382263 94.11329651 C113.0691626 94.10818911 111.70450298 94.1029731 110.33984375 94.09765625 C108.95121817 94.095792 107.56259193 94.09436813 106.17396545 94.09336853 C102.51278885 94.08954387 98.8516517 94.07971403 95.19049072 94.06866455 C91.45707747 94.05844932 87.72365767 94.05381597 83.99023438 94.04882812 C76.66012137 94.0386219 69.3301168 94.01905026 62 94 C62 104.23 62 114.46 62 125 C61.67 125 61.34 125 61 125 C61 114.77 61 104.54 61 94 C40.87 94 20.74 94 0 94 C0 62.98 0 31.96 0 0 Z " fill="#85BE02" transform="translate(0,313)"/>
<path d="M0 0 C30.69 0 61.38 0 93 0 C93 9.9 93 19.8 93 30 C95.22621094 29.98839844 97.45242187 29.97679688 99.74609375 29.96484375 C101.89396014 29.95705278 104.04182497 29.95097625 106.18969727 29.94506836 C107.68644918 29.94002879 109.18319616 29.93319713 110.67993164 29.92456055 C112.82699807 29.91247841 114.97399962 29.90676809 117.12109375 29.90234375 C119.06133423 29.89448853 119.06133423 29.89448853 121.04077148 29.88647461 C124 30 124 30 125 31 C125.08790975 33.29151417 125.10694038 35.58572524 125.09765625 37.87890625 C125.09515869 39.13517822 125.09266113 40.3914502 125.09008789 41.68579102 C125.08098389 43.29510498 125.07187988 44.90441895 125.0625 46.5625 C125.041875 51.656875 125.02125 56.75125 125 62 C114.44 62 103.88 62 93 62 C93 72.23 93 82.46 93 93 C82.77 93 72.54 93 62 93 C62 82.77 62 72.54 62 62 C51.77 62 41.54 62 31 62 C31 72.23 31 82.46 31 93 C30.67 93 30.34 93 30 93 C30 82.77 30 72.54 30 62 C20.1 62 10.2 62 0 62 C0 41.54 0 21.08 0 0 Z " fill="#85BE01" transform="translate(0,0)"/>
<path d="M0 0 C20.46 0 40.92 0 62 0 C62.33 9.9 62.66 19.8 63 30 C63.495 30.99 63.495 30.99 64 32 C64.06243227 33.91061505 64.05771526 35.82356722 64.02172852 37.73486328 C64.00163223 38.93595734 63.98153595 40.13705139 63.96083069 41.37454224 C63.93379562 42.67664642 63.90676056 43.97875061 63.87890625 45.3203125 C63.85460676 46.66266079 63.83076311 48.00501741 63.80735779 49.34738159 C63.74449976 52.88203404 63.67543808 56.4165393 63.60510254 59.9510498 C63.53443455 63.55714205 63.46960842 67.16333872 63.40429688 70.76953125 C63.27526244 77.84646761 63.13967679 84.92326504 63 92 C64.98 92 66.96 92 69 92 C69 92.33 69 92.66 69 93 C36 93 3 93 -31 93 C-31 72.54 -31 52.08 -31 31 C-16.15 30.505 -16.15 30.505 -1 30 C-0.67 20.1 -0.34 10.2 0 0 Z " fill="#346901" transform="translate(219,250)"/>
<path d="M0 0 C30.69 0 61.38 0 93 0 C93 20.46 93 40.92 93 62 C83.1 62 73.2 62 63 62 C63 72.23 63 82.46 63 93 C62.67 93 62.34 93 62 93 C62 82.77 62 72.54 62 62 C51.77 62 41.54 62 31 62 C31 72.23 31 82.46 31 93 C20.77 93 10.54 93 0 93 C0 82.77 0 72.54 0 62 C-10.56 62 -21.12 62 -32 62 C-32 51.77 -32 41.54 -32 31 C-21.44 31 -10.88 31 0 31 C0 20.77 0 10.54 0 0 Z " fill="#84BB03" transform="translate(407,0)"/>
<path d="M0 0 C20.46 0 40.92 0 62 0 C62 31.02 62 62.04 62 94 C51.77 94 41.54 94 31 94 C31 73.54 31 53.08 31 32 C20.77 32 10.54 32 0 32 C0.03959822 42.15713092 0.03959822 42.15713092 0.09008789 52.31420898 C0.09258545 53.57048096 0.09508301 54.82675293 0.09765625 56.12109375 C0.10289307 57.4145874 0.10812988 58.70808105 0.11352539 60.04077148 C0 63 0 63 -1 64 C-2.89698849 64.09915795 -4.79768787 64.12799314 -6.69726562 64.12939453 C-7.91522827 64.13254669 -9.13319092 64.13569885 -10.38806152 64.13894653 C-11.72745805 64.13715675 -13.06685424 64.1351058 -14.40625 64.1328125 C-15.7700604 64.1334856 -17.13387068 64.13445567 -18.49768066 64.13571167 C-21.35930521 64.13718838 -24.2208986 64.13503497 -27.08251953 64.13037109 C-30.75818614 64.12467381 -34.43377974 64.12795296 -38.10944366 64.13394356 C-40.92662104 64.13754991 -43.74378098 64.13641025 -46.56095886 64.13381577 C-47.91660063 64.1331467 -49.27224396 64.13397421 -50.62788391 64.13629532 C-52.51950044 64.13882301 -54.41112249 64.13429014 -56.30273438 64.12939453 C-57.92036682 64.12820114 -57.92036682 64.12820114 -59.57067871 64.12698364 C-62 64 -62 64 -63 63 C-63 52.77 -63 42.54 -63 32 C-32.31 31.505 -32.31 31.505 -1 31 C-0.67 20.77 -0.34 10.54 0 0 Z " fill="#111B04" transform="translate(125,375)"/>
<path d="M0 0 C10.23 0 20.46 0 31 0 C31 10.23 31 20.46 31 31 C41.15713092 30.96040178 41.15713092 30.96040178 51.31420898 30.90991211 C52.57048096 30.90741455 53.82675293 30.90491699 55.12109375 30.90234375 C57.06133423 30.89448853 57.06133423 30.89448853 59.04077148 30.88647461 C62 31 62 31 63 32 C63.09523905 34.89143151 63.12553027 37.75892064 63.11352539 40.65063477 C63.11367142 41.55786285 63.11381744 42.46509094 63.1139679 43.39981079 C63.11326841 46.41369985 63.10547434 49.42752793 63.09765625 52.44140625 C63.0957922 54.52505967 63.09436824 56.60871354 63.09336853 58.69236755 C63.08954234 64.18823446 63.0797112 69.68407513 63.06866455 75.17993164 C63.0584526 80.78336227 63.05387137 86.38679713 63.04882812 91.99023438 C63.03808902 102.993503 63.02049141 113.99674521 63 125 C52.44 125 41.88 125 31 125 C31 114.77 31 104.54 31 94 C20.77 94 10.54 94 0 94 C0 62.98 0 31.96 0 0 Z " fill="#5B8A02" transform="translate(344,62)"/>
<path d="M0 0 C10.23 0 20.46 0 31 0 C31 10.23 31 20.46 31 31 C41.23 31 51.46 31 62 31 C62 41.23 62 51.46 62 62 C72.23 62 82.46 62 93 62 C93 72.23 93 82.46 93 93 C72.54 93 52.08 93 31 93 C31 82.77 31 72.54 31 62 C10.54 62 -9.92 62 -31 62 C-31 52.1 -31 42.2 -31 32 C-16.15 31.505 -16.15 31.505 -1 31 C-0.67 20.77 -0.34 10.54 0 0 Z " fill="#85BE00" transform="translate(188,125)"/>
<path d="M0 0 C20.79 0 41.58 0 63 0 C63 20.79 63 41.58 63 63 C52.77 63 42.54 63 32 63 C32 73.23 32 83.46 32 94 C21.44 94 10.88 94 0 94 C0 62.98 0 31.96 0 0 Z " fill="#5C8B01" transform="translate(93,93)"/>
<path d="M0 0 C20.46 0 40.92 0 62 0 C62 10.23 62 20.46 62 31 C72.23 31 82.46 31 93 31 C93 41.23 93 51.46 93 62 C62.31 62 31.62 62 0 62 C-1.14969136 26.3595679 -1.14969136 26.3595679 -0.5625 13.5625 C-0.376875 9.086875 -0.19125 4.61125 0 0 Z " fill="#94EB01" transform="translate(219,407)"/>
<path d="M0 0 C10.56 0 21.12 0 32 0 C32 10.23 32 20.46 32 31 C21.77 31 11.54 31 1 31 C1 51.46 1 71.92 1 93 C21.46 93 41.92 93 63 93 C63 93.33 63 93.66 63 94 C1.29 94 -60.42 94 -124 94 C-123.67 104.23 -123.34 114.46 -123 125 C-123.07251862 131.00500935 -123.17228129 136.94721524 -123.4375 142.9375 C-123.49122782 144.33785286 -123.5439556 145.73824444 -123.59570312 147.13867188 C-123.72083768 150.42629782 -123.85529761 153.71318856 -124 157 C-124.33 157 -124.66 157 -125 157 C-125 146.44 -125 135.88 -125 125 C-135.23 125 -145.46 125 -156 125 C-156 114.44 -156 103.88 -156 93 C-114.42 92.67 -72.84 92.34 -30 92 C-30 72.2 -30 52.4 -30 32 C-29 31 -29 31 -26.22436523 30.88647461 C-25.01466064 30.89171143 -23.80495605 30.89694824 -22.55859375 30.90234375 C-21.38353271 30.90484131 -20.20847168 30.90733887 -18.99780273 30.90991211 C-17.49290283 30.91901611 -15.98800293 30.92812012 -14.4375 30.9375 C-9.673125 30.958125 -4.90875 30.97875 0 31 C0 20.77 0 10.54 0 0 Z " fill="#356901" transform="translate(312,250)"/>
<path d="M0 0 C10.56 0 21.12 0 32 0 C32 10.23 32 20.46 32 31 C42.23 31 52.46 31 63 31 C63 62.02 63 93.04 63 125 C52.77 125 42.54 125 32 125 C31.505 78.965 31.505 78.965 31 32 C20.77 31.67 10.54 31.34 0 31 C0 20.77 0 10.54 0 0 Z " fill="#0E1901" transform="translate(375,62)"/>
<path d="M0 0 C20.46 0 40.92 0 62 0 C62 10.56 62 21.12 62 32 C51.77 32 41.54 32 31 32 C31 52.46 31 72.92 31 94 C20.77 94 10.54 94 0 94 C0 62.98 0 31.96 0 0 Z " fill="#0F1902" transform="translate(313,375)"/>
<path d="M0 0 C20.46 0 40.92 0 62 0 C62 20.46 62 40.92 62 62 C41.54 62 21.08 62 0 62 C0 41.54 0 21.08 0 0 Z " fill="#5B8A01" transform="translate(219,281)"/>
<path d="M0 0 C40.92 0 81.84 0 124 0 C124 10.23 124 20.46 124 31 C107.98006149 31.02254717 91.96013646 31.04097926 75.9401865 31.05181217 C68.5023549 31.05697509 61.06453383 31.06401771 53.62670898 31.07543945 C47.14618658 31.08538641 40.66567181 31.09185346 34.18514198 31.09408849 C30.75169458 31.09539558 27.318269 31.0984813 23.88482857 31.10573006 C20.05806179 31.11374416 16.23131665 31.11399113 12.40454102 31.11352539 C10.68472267 31.1189183 10.68472267 31.1189183 8.93016052 31.12442017 C7.3756871 31.12235817 7.3756871 31.12235817 5.78981018 31.12025452 C4.88368768 31.12117631 3.97756517 31.1220981 3.04398441 31.12304783 C1 31 1 31 0 30 C0 20.1 0 10.2 0 0 Z " fill="#0E1A01" transform="translate(188,344)"/>
<path d="M0 0 C40.92 0 81.84 0 124 0 C124 9.9 124 19.8 124 30 C83.08 30 42.16 30 0 30 C0 20.1 0 10.2 0 0 Z " fill="#0E1801" transform="translate(188,470)"/>
<path d="M0 0 C40.92 0 81.84 0 124 0 C124 9.9 124 19.8 124 30 C83.08 30 42.16 30 0 30 C0 20.1 0 10.2 0 0 Z " fill="#0E1801" transform="translate(188,0)"/>
<path d="M0 0 C10.23 0 20.46 0 31 0 C31 31.02 31 62.04 31 94 C20.77 94 10.54 94 0 94 C0 62.98 0 31.96 0 0 Z " fill="#0E1801" transform="translate(62,93)"/>
<path d="M0 0 C10.23 0 20.46 0 31 0 C31 30.69 31 61.38 31 93 C14 94 14 94 0 93 C0 62.31 0 31.62 0 0 Z " fill="#0F1902" transform="translate(31,188)"/>
<path d="M0 0 C10.56 0 21.12 0 32 0 C32 9.9 32 19.8 32 30 C52.46 30.33 72.92 30.66 94 31 C94 41.23 94 51.46 94 62 C73.54 62 53.08 62 32 62 C31.505 46.655 31.505 46.655 31 31 C20.77 30.67 10.54 30.34 0 30 C0 20.1 0 10.2 0 0 Z " fill="#0F1A01" transform="translate(93,0)"/>
<path d="M0 0 C10.23 0 20.46 0 31 0 C31 10.23 31 20.46 31 31 C41.23 31 51.46 31 62 31 C62 41.23 62 51.46 62 62 C41.54 62 21.08 62 0 62 C0 41.54 0 21.08 0 0 Z " fill="#0F1901" transform="translate(407,281)"/>
<path d="M0 0 C10.23 0 20.46 0 31 0 C31 30.69 31 61.38 31 93 C20.77 93 10.54 93 0 93 C0 62.31 0 31.62 0 0 Z " fill="#0F1901" transform="translate(438,188)"/>
<path d="M0 0 C10.23 0 20.46 0 31 0 C31 20.46 31 40.92 31 62 C10.87 62 -9.26 62 -30 62 C-30 52.1 -30 42.2 -30 32 C-20.1 32 -10.2 32 0 32 C0 21.44 0 10.88 0 0 Z " fill="#0E1901" transform="translate(62,281)"/>
<path d="M0 0 C10.56 0 21.12 0 32 0 C32 10.23 32 20.46 32 31 C52.46 31 72.92 31 94 31 C94 31.33 94 31.66 94 32 C73.54 32 53.08 32 32 32 C32 42.23 32 52.46 32 63 C21.44 63 10.88 63 0 63 C0 42.21 0 21.42 0 0 Z " fill="#356802" transform="translate(375,312)"/>
<path d="M0 0 C20.79 0 41.58 0 63 0 C63 10.56 63 21.12 63 32 C42.21 32 21.42 32 0 32 C0 21.44 0 10.88 0 0 Z " fill="#131D07" transform="translate(375,407)"/>
<path d="M0 0 C10.23 0 20.46 0 31 0 C31 20.79 31 41.58 31 63 C20.77 63 10.54 63 0 63 C0 42.21 0 21.42 0 0 Z " fill="#85BE01" transform="translate(125,93)"/>
<path d="M0 0 C20.79 0 41.58 0 63 0 C63 10.23 63 20.46 63 31 C42.21 31 21.42 31 0 31 C0 20.77 0 10.54 0 0 Z " fill="#0F1A01" transform="translate(312,31)"/>
<path d="M0 0 C20.13 0 40.26 0 61 0 C61 10.56 61 21.12 61 32 C40.87 32 20.74 32 0 32 C0 21.44 0 10.88 0 0 Z " fill="#0F1902" transform="translate(439,375)"/>
<path d="M0 0 C20.13 0 40.26 0 61 0 C61 10.56 61 21.12 61 32 C40.87 32 20.74 32 0 32 C0 21.44 0 10.88 0 0 Z " fill="#0F1901" transform="translate(0,375)"/>
<path d="M0 0 C20.46 0 40.92 0 62 0 C62 10.23 62 20.46 62 31 C41.54 31 21.08 31 0 31 C0 20.77 0 10.54 0 0 Z " fill="#5C8B02" transform="translate(219,407)"/>
<path d="M0 0 C9.9 0 19.8 0 30 0 C30 20.13 30 40.26 30 61 C19.77 61 9.54 61 -1 61 C-1.09755429 40.61115381 -0.74774654 20.37609322 0 0 Z " fill="#94EB02" transform="translate(470,313)"/>
<path d="M0 0 C9.9 0 19.8 0 30 0 C30 20.46 30 40.92 30 62 C20.1 62 10.2 62 0 62 C0 41.54 0 21.08 0 0 Z " fill="#0F1902" transform="translate(470,0)"/>
<path d="M0 0 C9.9 0 19.8 0 30 0 C30.7179142 20.37081547 31.10191737 40.61652514 31 61 C20.77 61 10.54 61 0 61 C0 40.87 0 20.74 0 0 Z " fill="#94EB02" transform="translate(0,313)"/>
<path d="M0 0 C9.9 0 19.8 0 30 0 C30.02094515 7.92890315 30.04098329 15.85770665 30.05175018 23.78661346 C30.05704002 27.47860391 30.06411374 31.17057155 30.07543945 34.86254883 C30.08627162 38.41570831 30.09227753 41.96884563 30.09487724 45.52202034 C30.0967309 46.88045666 30.10035038 48.23889171 30.10573006 49.59731865 C30.11294475 51.49382223 30.11340809 53.39034793 30.11352539 55.28686523 C30.115746 56.36830307 30.11796661 57.44974091 30.12025452 58.56394958 C30 61 30 61 29 62 C19.43 62 9.86 62 0 62 C0 41.54 0 21.08 0 0 Z " fill="#0F1901" transform="translate(0,0)"/>
<path d="M0 0 C1.29349365 0.00523682 2.5869873 0.01047363 3.91967773 0.01586914 C4.9496714 0.01799156 4.9496714 0.01799156 6.00047302 0.02015686 C8.20144949 0.0257706 10.40232557 0.03832532 12.60327148 0.05102539 C14.09220231 0.05603863 15.58113473 0.06060184 17.07006836 0.06469727 C20.72703954 0.07489518 24.38379265 0.0944676 28.04077148 0.11352539 C28.04077148 10.01352539 28.04077148 19.91352539 28.04077148 30.11352539 C7.91077148 30.11352539 -12.21922852 30.11352539 -32.95922852 30.11352539 C-32.95922852 4.11352539 -32.95922852 4.11352539 -30.95922852 1.11352539 C-28.26953125 0.78881836 -28.26953125 0.78881836 -24.89282227 0.85571289 C-23.68561523 0.86989258 -22.4784082 0.88407227 -21.23461914 0.89868164 C-19.33486328 0.9431543 -19.33486328 0.9431543 -17.39672852 0.98852539 C-14.89549355 1.03167201 -12.39418784 1.07095313 -9.89282227 1.10571289 C-8.77963623 1.13004395 -7.6664502 1.154375 -6.51953125 1.17944336 C-3.37361405 1.09844807 -3.28297533 0.12594535 0 0 Z " fill="#336801" transform="translate(95.959228515625,187.886474609375)"/>
<path d="M0 0 C10.56 0 21.12 0 32 0 C32 10.23 32 20.46 32 31 C42.23 31 52.46 31 63 31 C63 20.77 63 10.54 63 0 C63.33 0 63.66 0 64 0 C64 20.79 64 41.58 64 63 C63.67 63 63.34 63 63 63 C63 52.77 63 42.54 63 32 C42.21 32 21.42 32 0 32 C0 21.44 0 10.88 0 0 Z " fill="#81B60A" transform="translate(375,375)"/>
<path d="M0 0 C0.33 0 0.66 0 1 0 C1 10.23 1 20.46 1 31 C10.82803025 30.96040272 10.82803025 30.96040272 20.65600586 30.90991211 C22.47950562 30.90616577 22.47950562 30.90616577 24.33984375 30.90234375 C25.59144287 30.89710693 26.84304199 30.89187012 28.13256836 30.88647461 C31 31 31 31 32 32 C32.08783542 34.21855264 32.10694609 36.43988496 32.09765625 38.66015625 C32.09515869 39.87582275 32.09266113 41.09148926 32.09008789 42.34399414 C32.08098389 43.90110107 32.07187988 45.45820801 32.0625 47.0625 C32.041875 51.991875 32.02125 56.92125 32 62 C21.77 62 11.54 62 1 62 C1 72.23 1 82.46 1 93 C0.67 93 0.34 93 0 93 C0 83.1 0 73.2 0 63 C-9.9 63 -19.8 63 -30 63 C-30 62.67 -30 62.34 -30 62 C-20.1 62 -10.2 62 0 62 C0 41.54 0 21.08 0 0 Z " fill="#5E870D" transform="translate(187,407)"/>
<path d="M0 0 C5.094375 -0.020625 10.18875 -0.04125 15.4375 -0.0625 C17.04681396 -0.071604 18.65612793 -0.08070801 20.31420898 -0.09008789 C21.57048096 -0.09258545 22.82675293 -0.09508301 24.12109375 -0.09765625 C26.06133423 -0.10551147 26.06133423 -0.10551147 28.04077148 -0.11352539 C31 0 31 0 32 1 C32.08790975 3.29151417 32.10694038 5.58572524 32.09765625 7.87890625 C32.09515869 9.13517822 32.09266113 10.3914502 32.09008789 11.68579102 C32.08098389 13.29510498 32.07187988 14.90441895 32.0625 16.5625 C32.041875 21.656875 32.02125 26.75125 32 32 C21.44 32 10.88 32 0 32 C0 21.44 0 10.88 0 0 Z " fill="#356802" transform="translate(375,93)"/>
<path d="M0 0 C10.56 0 21.12 0 32 0 C32 10.23 32 20.46 32 31 C21.44 31 10.88 31 0 31 C0 20.77 0 10.54 0 0 Z " fill="#0F1C01" transform="translate(93,344)"/>
<path d="M0 0 C10.56 0 21.12 0 32 0 C32 10.23 32 20.46 32 31 C21.44 31 10.88 31 0 31 C0 20.77 0 10.54 0 0 Z " fill="#85BE01" transform="translate(375,219)"/>
<path d="M0 0 C10.56 0 21.12 0 32 0 C32 10.23 32 20.46 32 31 C21.44 31 10.88 31 0 31 C0 20.77 0 10.54 0 0 Z " fill="#0F1C01" transform="translate(93,62)"/>
<path d="M0 0 C10.56 0 21.12 0 32 0 C32 10.23 32 20.46 32 31 C21.77 31 11.54 31 1 31 C0.67 20.77 0.34 10.54 0 0 Z " fill="#85BD02" transform="translate(218,438)"/>
<path d="M0 0 C0 10.56 0 21.12 0 32 C-10.23 32 -20.46 32 -31 32 C-31 21.77 -31 11.54 -31 1 C-23.6059375 0.7525 -23.6059375 0.7525 -16.0625 0.5 C-13.7268396 0.42168945 -13.7268396 0.42168945 -11.34399414 0.34179688 C-10.12832764 0.30119141 -8.91266113 0.26058594 -7.66015625 0.21875 C-6.40855713 0.17685547 -5.15695801 0.13496094 -3.86743164 0.09179688 C-1 0 -1 0 0 0 Z " fill="#94EB04" transform="translate(438,374)"/>
<path d="M0 0 C10.23 0 20.46 0 31 0 C31 10.23 31 20.46 31 31 C20.77 31 10.54 31 0 31 C0 20.77 0 10.54 0 0 Z " fill="#F9FEF8" transform="translate(281,407)"/>
<path d="M0 0 C10.23 0 20.46 0 31 0 C31 10.23 31 20.46 31 31 C20.77 31 10.54 31 0 31 C0 20.77 0 10.54 0 0 Z " fill="#FAFEF9" transform="translate(188,407)"/>
<path d="M0 0 C10.23 0 20.46 0 31 0 C31 10.23 31 20.46 31 31 C20.77 31 10.54 31 0 31 C0 20.77 0 10.54 0 0 Z " fill="#95EB03" transform="translate(62,375)"/>
<path d="M0 0 C10.23 0 20.46 0 31 0 C31 10.23 31 20.46 31 31 C20.77 31 10.54 31 0 31 C0 20.77 0 10.54 0 0 Z " fill="#5C8B01" transform="translate(281,375)"/>
<path d="M0 0 C10.23 0 20.46 0 31 0 C31 10.23 31 20.46 31 31 C20.77 31 10.54 31 0 31 C0 20.77 0 10.54 0 0 Z " fill="#85BD03" transform="translate(219,312)"/>
<path d="M0 0 C10.23 0 20.46 0 31 0 C31 10.23 31 20.46 31 31 C20.77 31 10.54 31 0 31 C0 20.77 0 10.54 0 0 Z " fill="#85BE01" transform="translate(125,250)"/>
<path d="M0 0 C10.23 0 20.46 0 31 0 C31 10.23 31 20.46 31 31 C20.77 31 10.54 31 0 31 C0 20.77 0 10.54 0 0 Z " fill="#346901" transform="translate(344,219)"/>
<path d="M0 0 C10.23 0 20.46 0 31 0 C31 10.23 31 20.46 31 31 C20.77 31 10.54 31 0 31 C0 20.77 0 10.54 0 0 Z " fill="#346900" transform="translate(344,156)"/>
<path d="M0 0 C10.23 0 20.46 0 31 0 C31 10.23 31 20.46 31 31 C20.77 31 10.54 31 0 31 C0 20.77 0 10.54 0 0 Z " fill="#346900" transform="translate(125,156)"/>
<path d="M0 0 C10.23 0 20.46 0 31 0 C31 10.23 31 20.46 31 31 C20.77 31 10.54 31 0 31 C0 20.77 0 10.54 0 0 Z " fill="#85BE01" transform="translate(93,156)"/>
<path d="M0 0 C10.23 0 20.46 0 31 0 C31 10.23 31 20.46 31 31 C20.77 31 10.54 31 0 31 C0 20.77 0 10.54 0 0 Z " fill="#85BE02" transform="translate(219,93)"/>
<path d="M0 0 C10.23 0 20.46 0 31 0 C31 10.23 31 20.46 31 31 C20.77 31 10.54 31 0 31 C0 20.77 0 10.54 0 0 Z " fill="#0F1902" transform="translate(438,62)"/>
<path d="M0 0 C10.23 0 20.46 0 31 0 C31 10.23 31 20.46 31 31 C20.77 31 10.54 31 0 31 C0 20.77 0 10.54 0 0 Z " fill="#5C8A03" transform="translate(125,62)"/>
<path d="M0 0 C10.23 0 20.46 0 31 0 C31 10.23 31 20.46 31 31 C20.77 31 10.54 31 0 31 C0 20.77 0 10.54 0 0 Z " fill="#0F1902" transform="translate(31,62)"/>
<path d="M0 0 C10.23 0 20.46 0 31 0 C31 10.23 31 20.46 31 31 C20.77 31 10.54 31 0 31 C0 20.77 0 10.54 0 0 Z " fill="#94E906" transform="translate(407,62)"/>
<path d="M0 0 C10.23 0 20.46 0 31 0 C31 10.23 31 20.46 31 31 C20.77 31 10.54 31 0 31 C0 20.77 0 10.54 0 0 Z " fill="#94EC00" transform="translate(62,62)"/>
<path d="M0 0 C10.23 0 20.46 0 31 0 C31 10.23 31 20.46 31 31 C20.77 31 10.54 31 0 31 C0 20.77 0 10.54 0 0 Z " fill="#356901" transform="translate(281,31)"/>
<path d="M0 0 C1.25159912 0.00523682 2.50319824 0.01047363 3.79272461 0.01586914 C5.00839111 0.0183667 6.22405762 0.02086426 7.4765625 0.0234375 C9.03366943 0.0325415 10.59077637 0.04164551 12.19506836 0.05102539 C17.12444336 0.07165039 22.05381836 0.09227539 27.13256836 0.11352539 C27.13256836 10.34352539 27.13256836 20.57352539 27.13256836 31.11352539 C16.90256836 31.11352539 6.67256836 31.11352539 -3.86743164 31.11352539 C-3.88805664 26.18415039 -3.90868164 21.25477539 -3.92993164 16.17602539 C-3.93903564 14.61891846 -3.94813965 13.06181152 -3.95751953 11.45751953 C-3.96001709 10.24185303 -3.96251465 9.02618652 -3.96508789 7.77368164 C-3.97032471 6.52208252 -3.97556152 5.2704834 -3.98095703 3.98095703 C-3.8293481 0.15160893 -3.8293481 0.15160893 0 0 Z " fill="#84BD02" transform="translate(159.867431640625,280.886474609375)"/>
<path d="M0 0 C10.56 0 21.12 0 32 0 C32 9.9 32 19.8 32 30 C21.44 30 10.88 30 0 30 C0 20.1 0 10.2 0 0 Z " fill="#0E1901" transform="translate(375,0)"/>
<path d="M0 0 C9.9 0.33 19.8 0.66 30 1 C30 11.23 30 21.46 30 32 C20.1 32 10.2 32 0 32 C0 21.44 0 10.88 0 0 Z " fill="#0F1902" transform="translate(0,280)"/>
<path d="M0 0 C10.23 0 20.46 0 31 0 C31 9.9 31 19.8 31 30 C20.77 30 10.54 30 0 30 C0 20.1 0 10.2 0 0 Z " fill="#0E1901" transform="translate(375,344)"/>
<path d="M0 0 C9.9 0 19.8 0 30 0 C30 10.23 30 20.46 30 31 C20.1 31 10.2 31 0 31 C0 20.77 0 10.54 0 0 Z " fill="#0F1902" transform="translate(470,281)"/>
<path d="M0 0 C10.23 0 20.46 0 31 0 C31 9.9 31 19.8 31 30 C20.77 30 10.54 30 0 30 C0 20.1 0 10.2 0 0 Z " fill="#346801" transform="translate(125,219)"/>
<path d="M0 0 C10.23 0 20.46 0 31 0 C31 9.9 31 19.8 31 30 C20.77 30 10.54 30 0 30 C0 20.1 0 10.2 0 0 Z " fill="#94EC01" transform="translate(250,188)"/>
<path d="M0 0 C10.23 0 20.46 0 31 0 C31 9.9 31 19.8 31 30 C20.77 30 10.54 30 0 30 C0 20.1 0 10.2 0 0 Z " fill="#94EB01" transform="translate(438,0)"/>
<path d="M0 0 C10.23 0 20.46 0 31 0 C31 9.9 31 19.8 31 30 C20.77 30 10.54 30 0 30 C0 20.1 0 10.2 0 0 Z " fill="#94EB02" transform="translate(31,0)"/>
<path d="M0 0 C9.9 0 19.8 0 30 0 C30 9.9 30 19.8 30 30 C27.15326245 31.42336877 24.85384653 31.00758837 21.6796875 30.87890625 C20.54772949 30.83580322 19.41577148 30.7927002 18.24951172 30.74829102 C16.80592285 30.68697998 15.36233398 30.62566895 13.875 30.5625 C9.29625 30.376875 4.7175 30.19125 0 30 C0 20.1 0 10.2 0 0 Z " fill="#346800" transform="translate(157,250)"/>
<path d="M0 0 C9.9 0 19.8 0 30 0 C30 9.9 30 19.8 30 30 C20.1 30 10.2 30 0 30 C0 20.1 0 10.2 0 0 Z " fill="#85BE01" transform="translate(313,157)"/>
<path d="M0 0 C9.9 0 19.8 0 30 0 C30 9.9 30 19.8 30 30 C20.1 30 10.2 30 0 30 C0 20.1 0 10.2 0 0 Z " fill="#85BE02" transform="translate(188,62)"/>
<path d="M0 0 C9.9 0 19.8 0 30 0 C30 31.02 30 62.04 30 94 C61.02 94 92.04 94 124 94 C124 94.33 124 94.66 124 95 C113.77 95 103.54 95 93 95 C93 104.9 93 114.8 93 125 C95.22621094 124.98839844 97.45242187 124.97679687 99.74609375 124.96484375 C101.89396014 124.95705278 104.04182497 124.95097625 106.18969727 124.94506836 C107.68644918 124.94002879 109.18319616 124.93319713 110.67993164 124.92456055 C112.82699807 124.91247841 114.97399962 124.90676809 117.12109375 124.90234375 C119.06133423 124.89448853 119.06133423 124.89448853 121.04077148 124.88647461 C124 125 124 125 125 126 C125.08783542 128.21855264 125.10694609 130.43988496 125.09765625 132.66015625 C125.09515869 133.87582275 125.09266113 135.09148926 125.09008789 136.34399414 C125.08098389 137.90110107 125.07187988 139.45820801 125.0625 141.0625 C125.041875 145.991875 125.02125 150.92125 125 156 C134.9 156 144.8 156 155 156 C155 156.33 155 156.66 155 157 C145.1 157 135.2 157 125 157 C125 166.9 125 176.8 125 187 C134.24 187 143.48 187 153 187 C153 187.33 153 187.66 153 188 C143.43 188 133.86 188 124 188 C124 177.77 124 167.54 124 157 C113.44 157 102.88 157 92 157 C92 146.77 92 136.54 92 126 C71.54 126 51.08 126 30 126 C30 115.77 30 105.54 30 95 C19.77 95 9.54 95 -1 95 C-1 94.67 -1 94.34 -1 94 C8.9 94 18.8 94 29 94 C29 63.31 29 32.62 29 1 C19.43 1 9.86 1 0 1 C0 0.67 0 0.34 0 0 Z M59 96 C57.06312933 96.04944734 55.12449731 96.03639648 53.1875 95.9921875 C51.45113281 95.96705078 51.45113281 95.96705078 49.6796875 95.94140625 C47.22640912 95.89713265 44.77325929 95.84504773 42.3203125 95.78515625 C41.16273437 95.77097656 40.00515625 95.75679688 38.8125 95.7421875 C37.21341797 95.70907471 37.21341797 95.70907471 35.58203125 95.67529297 C34.72996094 95.78244629 33.87789062 95.88959961 33 96 C27.6251615 104.06225775 31 115.3103721 31 125 C51.13 125 71.26 125 92 125 C92 115.1 92 105.2 92 95 C87.62167956 94.97706351 83.24356699 94.95714452 78.86523438 94.94506836 C77.37531834 94.94003486 75.88540726 94.93320758 74.39550781 94.92456055 C72.25584696 94.91245195 70.11625132 94.90676193 67.9765625 94.90234375 C66.68830566 94.89710693 65.40004883 94.89187012 64.07275391 94.88647461 C61.08594772 94.78457369 61.08594772 94.78457369 59 96 Z M93 126 C93 135.9 93 145.8 93 156 C103.23 156 113.46 156 124 156 C124 146.1 124 136.2 124 126 C113.77 126 103.54 126 93 126 Z " fill="#497C01" transform="translate(32,93)"/>
<path d="M0 0 C0.33 0 0.66 0 1 0 C1 30.69 1 61.38 1 93 C5.29 93 9.58 93 14 93 C14 93.33 14 93.66 14 94 C9.71 94 5.42 94 1 94 C1.495 108.355 1.495 108.355 2 123 C11.57 123.33 21.14 123.66 31 124 C31 114.1 31 104.2 31 94 C29.02 94 27.04 94 25 94 C25 93.67 25 93.34 25 93 C27.31 93 29.62 93 32 93 C32 103.56 32 114.12 32 125 C22.1 125 12.2 125 2 125 C2.495 128.465 2.495 128.465 3 132 C3.0142463 133.90532226 2.97566475 135.81192661 2.87890625 137.71484375 C2.83056641 138.72998047 2.78222656 139.74511719 2.73242188 140.79101562 C2.67634766 141.82935547 2.62027344 142.86769531 2.5625 143.9375 C2.51029297 145.00291016 2.45808594 146.06832031 2.40429688 147.16601562 C2.27546928 149.77770229 2.14054502 152.3889221 2 155 C1.34 155 0.68 155 0 155 C0 145.1 0 135.2 0 125 C-9.9 125 -19.8 125 -30 125 C-30 124.67 -30 124.34 -30 124 C-20.1 124 -10.2 124 0 124 C0 83.08 0 42.16 0 0 Z " fill="#5F6E49" transform="translate(30,188)"/>
<path d="M0 0 C9.9 0 19.8 0 30 0 C30 31.02 30 62.04 30 94 C40.23 94 50.46 94 61 94 C60.505 95.485 60.505 95.485 60 97 C51.09 97 42.18 97 33 97 C31.65893595 99.6821281 31.78549581 101.88398032 31.68359375 104.8828125 C31.62075195 106.63271484 31.62075195 106.63271484 31.55664062 108.41796875 C31.51732422 109.64128906 31.47800781 110.86460937 31.4375 112.125 C31.37272461 113.97158203 31.37272461 113.97158203 31.30664062 115.85546875 C31.20031296 118.90352853 31.09828219 121.9516719 31 125 C30.67 125 30.34 125 30 125 C30 115.1 30 105.2 30 95 C19.77 95 9.54 95 -1 95 C-1 94.67 -1 94.34 -1 94 C8.9 94 18.8 94 29 94 C29 63.31 29 32.62 29 1 C19.43 1 9.86 1 0 1 C0 0.67 0 0.34 0 0 Z " fill="#697B54" transform="translate(32,93)"/>
<path d="M0 0 C0.33 0 0.66 0 1 0 C1 10.23 1 20.46 1 31 C3.22492188 30.9278125 5.44984375 30.855625 7.7421875 30.78125 C25.83983208 30.21037983 43.89062018 29.8953215 62 30 C62 20.43 62 10.86 62 1 C52.76 1 43.52 1 34 1 C34 0.67 34 0.34 34 0 C43.9 0 53.8 0 64 0 C64.02291238 4.39663033 64.04283833 8.79305488 64.05493164 13.18969727 C64.05997121 14.68644918 64.06680287 16.18319616 64.07543945 17.67993164 C64.08752159 19.82699807 64.09323191 21.97399962 64.09765625 24.12109375 C64.10289307 25.4145874 64.10812988 26.70808105 64.11352539 28.04077148 C64 31 64 31 63 32 C61.06693502 32.09396057 59.13041162 32.11743517 57.19506836 32.11352539 C55.33325172 32.11341209 55.33325172 32.11341209 53.43382263 32.11329651 C52.0691626 32.10818911 50.70450298 32.1029731 49.33984375 32.09765625 C47.95121817 32.095792 46.56259193 32.09436813 45.17396545 32.09336853 C41.51278885 32.08954387 37.8516517 32.07971403 34.19049072 32.06866455 C30.45707747 32.05844932 26.72365767 32.05381597 22.99023438 32.04882812 C15.66012137 32.0386219 8.3301168 32.01905026 1 32 C1 42.23 1 52.46 1 63 C0.67 63 0.34 63 0 63 C0 42.21 0 21.42 0 0 Z " fill="#6E9227" transform="translate(61,375)"/>
<path d="M0 0 C10.23 0 20.46 0 31 0 C31 10.23 31 20.46 31 31 C10.54 31 -9.92 31 -31 31 C-31 29.35 -31 27.7 -31 26 C-30.67 26.66 -30.34 27.32 -30 28 C-0.3 28.495 -0.3 28.495 30 29 C30 19.76 30 10.52 30 1 C20.1 1 10.2 1 0 1 C0 0.67 0 0.34 0 0 Z " fill="#98DE20" transform="translate(281,438)"/>
<path d="M0 0 C10.23 0 20.46 0 31 0 C31 10.23 31 20.46 31 31 C20.77 31 10.54 31 0 31 C3.44633882 28.70244078 4.71068391 28.76356024 8.76171875 28.8046875 C10.27318481 28.81218018 10.27318481 28.81218018 11.81518555 28.81982422 C13.7319812 28.84713623 13.7319812 28.84713623 15.6875 28.875 C21.7821875 28.936875 21.7821875 28.936875 28 29 C28.33 20.42 28.66 11.84 29 3 C19.43 2.67 9.86 2.34 0 2 C0 1.34 0 0.68 0 0 Z " fill="#EBF8D5" transform="translate(188,407)"/>
<path d="M0 0 C10.23 0 20.46 0 31 0 C26.98038839 2.00980581 25.46807628 2.23947017 21.140625 2.1953125 C20.02558594 2.18886719 18.91054687 2.18242188 17.76171875 2.17578125 C16.60285156 2.15902344 15.44398437 2.14226562 14.25 2.125 C13.07566406 2.11597656 11.90132812 2.10695313 10.69140625 2.09765625 C7.79406464 2.07410063 4.89713559 2.04120652 2 2 C2.00444122 2.71996658 2.00888245 3.43993317 2.01345825 4.18171692 C2.05352322 10.96490332 2.08397843 17.74807205 2.10362434 24.53134632 C2.11406404 28.01875161 2.12822649 31.50605916 2.15087891 34.9934082 C2.17675512 39.00212546 2.18647123 43.01073997 2.1953125 47.01953125 C2.20563507 48.27272659 2.21595764 49.52592194 2.22659302 50.8170929 C2.22674408 51.97806992 2.22689514 53.13904694 2.22705078 54.33520508 C2.231492 55.35890701 2.23593323 56.38260895 2.24050903 57.43733215 C2 60 2 60 0 63 C0 42.21 0 21.42 0 0 Z " fill="#5A7E14" transform="translate(93,93)"/>
<path d="M0 0 C10.23 0 20.46 0 31 0 C31 10.23 31 20.46 31 31 C20.44 31 9.88 31 -1 31 C-0.67 30.34 -0.34 29.68 0 29 C4.0829333 28.8030007 8.16635266 28.61904524 12.25 28.4375 C13.98830078 28.35338867 13.98830078 28.35338867 15.76171875 28.26757812 C16.87675781 28.21923828 17.99179688 28.17089844 19.140625 28.12109375 C20.68024902 28.05039673 20.68024902 28.05039673 22.25097656 27.97827148 C25 28 25 28 29 29 C29 20.09 29 11.18 29 2 C19.43 1.67 9.86 1.34 0 1 C0 0.67 0 0.34 0 0 Z " fill="#78A211" transform="translate(94,31)"/>
<path d="M0 0 C3.59527043 0.07278129 7.19070592 0.13630872 10.78613281 0.20080566 C17.74659721 0.32693563 24.70684168 0.46261387 31.66699219 0.60510254 C31.66699219 0.93510254 31.66699219 1.26510254 31.66699219 1.60510254 C11.20699219 1.60510254 -9.25300781 1.60510254 -30.33300781 1.60510254 C-30.33300781 11.83510254 -30.33300781 22.06510254 -30.33300781 32.60510254 C-40.89300781 32.60510254 -51.45300781 32.60510254 -62.33300781 32.60510254 C-62.33300781 32.27510254 -62.33300781 31.94510254 -62.33300781 31.60510254 C-52.10300781 31.60510254 -41.87300781 31.60510254 -31.33300781 31.60510254 C-31.33300781 21.70510254 -31.33300781 11.80510254 -31.33300781 1.60510254 C-41.56300781 1.60510254 -51.79300781 1.60510254 -62.33300781 1.60510254 C-62.33300781 1.27510254 -62.33300781 0.94510254 -62.33300781 0.60510254 C-41.5248521 -0.28237893 -20.81982733 -0.43175884 0 0 Z " fill="#2B4902" transform="translate(437.3330078125,342.3948974609375)"/>
<path d="M0 0 C0.33 0 0.66 0 1 0 C1 9.57 1 19.14 1 29 C10.24 29 19.48 29 29 29 C29 19.43 29 9.86 29 0 C29.66 0 30.32 0 31 0 C31 10.23 31 20.46 31 31 C20.77 31 10.54 31 0 31 C0 20.77 0 10.54 0 0 Z " fill="#96D923" transform="translate(62,62)"/>
<path d="M0 0 C10.23 0 20.46 0 31 0 C31 31.02 31 62.04 31 94 C29.68 93.67 28.36 93.34 27 93 C27.66 93 28.32 93 29 93 C29.33 63.3 29.66 33.6 30 3 C25.88696646 2.31449441 22.27309176 1.83823464 18.1640625 1.68359375 C17.10058594 1.64169922 16.03710938 1.59980469 14.94140625 1.55664062 C13.84699219 1.51732422 12.75257812 1.47800781 11.625 1.4375 C9.94857422 1.37272461 9.94857422 1.37272461 8.23828125 1.30664062 C5.49229801 1.20102589 2.74623119 1.0989203 0 1 C0 0.67 0 0.34 0 0 Z " fill="#0A2600" transform="translate(62,93)"/>
<path d="M0 0 C10.56 0 21.12 0 32 0 C32 10.23 32 20.46 32 31 C21.44 31 10.88 31 0 31 C0 20.77 0 10.54 0 0 Z M3 1 C0.99019419 5.01961161 0.76052983 6.53192372 0.8046875 10.859375 C0.81113281 11.97441406 0.81757813 13.08945313 0.82421875 14.23828125 C0.84097656 15.39714844 0.85773438 16.55601562 0.875 17.75 C0.88402344 18.92433594 0.89304687 20.09867188 0.90234375 21.30859375 C0.92589937 24.20593536 0.95879348 27.10286441 1 30 C5.24994263 30.05805933 9.49978324 30.09361654 13.75 30.125 C14.9565625 30.14175781 16.163125 30.15851563 17.40625 30.17578125 C19.14648438 30.18544922 19.14648438 30.18544922 20.921875 30.1953125 C22.52434082 30.21102295 22.52434082 30.21102295 24.15917969 30.22705078 C27.31815178 30.15303472 27.31815178 30.15303472 31 28 C31 19.09 31 10.18 31 1 C21.76 1 12.52 1 3 1 Z " fill="#7EB40B" transform="translate(375,219)"/>
<path d="M0 0 C10.23 0 20.46 0 31 0 C31 10.23 31 20.46 31 31 C29 29 29 29 28.77294922 26.20263672 C28.78342285 25.04006348 28.79389648 23.87749023 28.8046875 22.6796875 C28.81113281 21.42285156 28.81757813 20.16601562 28.82421875 18.87109375 C28.84097656 17.55238281 28.85773438 16.23367187 28.875 14.875 C28.88503017 13.53516279 28.89415596 12.19531848 28.90234375 10.85546875 C28.92597925 7.57013427 28.95892766 4.28515535 29 1 C28.04867187 1.165 27.09734375 1.33 26.1171875 1.5 C21.45032558 2.16770216 16.82899531 2.07192653 12.125 2 C10.41933246 1.97461804 8.71359346 1.95354183 7.0078125 1.9375 C6.26160645 1.92589844 5.51540039 1.91429688 4.74658203 1.90234375 C2.97082347 1.80700005 2.97082347 1.80700005 2 3 C1.84193469 4.92478813 1.748865 6.8549921 1.68359375 8.78515625 C1.64169922 9.95498047 1.59980469 11.12480469 1.55664062 12.33007812 C1.51732422 13.56177734 1.47800781 14.79347656 1.4375 16.0625 C1.39431641 17.29806641 1.35113281 18.53363281 1.30664062 19.80664062 C1.20015802 22.87097335 1.09814576 25.93539073 1 29 C1.99 29.33 2.98 29.66 4 30 C2.68 30.33 1.36 30.66 0 31 C0 20.77 0 10.54 0 0 Z " fill="#7EB60E" transform="translate(188,125)"/>
<path d="M0 0 C10.56 0 21.12 0 32 0 C32 0.33 32 0.66 32 1 C21.77 1 11.54 1 1 1 C1.185625 5.455 1.37125 9.91 1.5625 14.5 C2.17054064 31.0395995 1.72768261 47.47120938 1 64 C0.67 64 0.34 64 0 64 C0 53.44 0 42.88 0 32 C-10.23 32 -20.46 32 -31 32 C-31 31.67 -31 31.34 -31 31 C-30.12674072 30.97494385 -29.25348145 30.9498877 -28.35375977 30.92407227 C-25.12397448 30.82912291 -21.89435846 30.72987971 -18.66479492 30.62768555 C-17.26510801 30.58428566 -15.86536641 30.54261436 -14.46557617 30.50268555 C-12.45738505 30.44510555 -10.44938851 30.38086 -8.44140625 30.31640625 C-7.23170166 30.27974854 -6.02199707 30.24309082 -4.77563477 30.20532227 C-2.09294544 30.31061734 -2.09294544 30.31061734 -1 29 C-0.84141158 26.85613343 -0.74870702 24.70733162 -0.68359375 22.55859375 C-0.64548584 21.38353271 -0.60737793 20.20847168 -0.56811523 18.99780273 C-0.52501221 17.49290283 -0.48190918 15.98800293 -0.4375 14.4375 C-0.293125 9.673125 -0.14875 4.90875 0 0 Z " fill="#315108" transform="translate(187,343)"/>
<path d="M0 0 C10.23 0 20.46 0 31 0 C31 0.33 31 0.66 31 1 C21.43 1 11.86 1 2 1 C2.144375 4.8775 2.28875 8.755 2.4375 12.75 C2.50215454 14.5748291 2.50215454 14.5748291 2.56811523 16.43652344 C2.60622314 17.40106445 2.64433105 18.36560547 2.68359375 19.359375 C2.72025146 20.34389648 2.75690918 21.32841797 2.79467773 22.34277344 C2.9452083 25.25421319 2.9452083 25.25421319 4 29 C17.365 29.495 17.365 29.495 31 30 C31 30.33 31 30.66 31 31 C20.77 31 10.54 31 0 31 C0 20.77 0 10.54 0 0 Z " fill="#E7F9C8" transform="translate(281,407)"/>
<path d="M0 0 C0.33 0 0.66 0 1 0 C1 20.13 1 40.26 1 61 C11.23 61 21.46 61 32 61 C32 61.33 32 61.66 32 62 C21.77 62 11.54 62 1 62 C1 72.23 1 82.46 1 93 C0.67 93 0.34 93 0 93 C-1.1757836 71.49195849 -0.95566151 50.02476649 -0.5625 28.5 C-0.54327925 27.4469486 -0.54327925 27.4469486 -0.5236702 26.37262344 C-0.36201241 17.58148391 -0.18704436 8.79063791 0 0 Z " fill="#506E1A" transform="translate(30,0)"/>
<path d="M0 0 C10.23 0 20.46 0 31 0 C31 10.23 31 20.46 31 31 C21.43 31 11.86 31 2 31 C2 30.67 2 30.34 2 30 C11.24 30 20.48 30 30 30 C29.67 21.09 29.34 12.18 29 3 C20.57877625 2.75058917 20.57877625 2.75058917 12.15698242 2.52197266 C10.58460815 2.46855713 10.58460815 2.46855713 8.98046875 2.4140625 C7.37014771 2.36693115 7.37014771 2.36693115 5.72729492 2.31884766 C3 2 3 2 0 0 Z " fill="#5F8415" transform="translate(281,375)"/>
<path d="M0 0 C20.46 0 40.92 0 62 0 C62 0.33 62 0.66 62 1 C51.77 1 41.54 1 31 1 C31 10.9 31 20.8 31 31 C30.67 31 30.34 31 30 31 C29.505 17.14 29.505 17.14 29 3 C22.82351048 2.71273405 22.82351048 2.71273405 16.64672852 2.43188477 C11.06227268 2.1623768 5.55062771 1.67194781 0 1 C0 0.67 0 0.34 0 0 Z " fill="#375417" transform="translate(407,187)"/>
<path d="M0 0 C0.66 0 1.32 0 2 0 C2 9.24 2 18.48 2 28 C6.62 28 11.24 28 16 28 C18.62708436 28.12973256 21.25343472 28.28599467 23.875 28.5 C25.63457031 28.63921875 25.63457031 28.63921875 27.4296875 28.78125 C28.27789062 28.8534375 29.12609375 28.925625 30 29 C30 29.33 30 29.66 30 30 C20.1 30 10.2 30 0 30 C0 20.1 0 10.2 0 0 Z " fill="#88B912" transform="translate(31,31)"/>
<path d="M0 0 C10.23 0 20.46 0 31 0 C31 9.9 31 19.8 31 30 C20.77 30 10.54 30 0 30 C2 28 2 28 4.79736328 27.77294922 C5.95993652 27.78342285 7.12250977 27.79389648 8.3203125 27.8046875 C10.20556641 27.81435547 10.20556641 27.81435547 12.12890625 27.82421875 C14.10697266 27.84935547 14.10697266 27.84935547 16.125 27.875 C17.46483721 27.88503017 18.80468152 27.89415596 20.14453125 27.90234375 C23.42976376 27.92597852 26.71490398 27.9618505 30 28 C30 19.09 30 10.18 30 1 C25.978125 1.12375 21.95625 1.2475 17.8125 1.375 C16.55284424 1.40899902 15.29318848 1.44299805 13.99536133 1.47802734 C12.9927124 1.5136377 11.99006348 1.54924805 10.95703125 1.5859375 C9.93585205 1.6173584 8.91467285 1.6487793 7.86254883 1.68115234 C4.92128312 2.00876795 2.67975997 2.77312194 0 4 C0 2.68 0 1.36 0 0 Z " fill="#9AE610" transform="translate(250,188)"/>
<path d="M0 0 C10.23 0 20.46 0 31 0 C31 10.23 31 20.46 31 31 C20.77 31 10.54 31 0 31 C0 30.67 0 30.34 0 30 C0.84296631 29.97494385 1.68593262 29.9498877 2.55444336 29.92407227 C5.67241674 29.82911845 8.79021503 29.72987552 11.90795898 29.62768555 C13.25914147 29.58428777 14.61038053 29.5426163 15.96166992 29.50268555 C17.90036701 29.44510048 19.83886276 29.38085702 21.77734375 29.31640625 C22.94515381 29.27974854 24.11296387 29.24309082 25.31616211 29.20532227 C27.91779795 29.29923812 27.91779795 29.29923812 29 28 C29.15825258 26.00217874 29.25119171 23.99911166 29.31640625 21.99609375 C29.35830078 20.78115234 29.40019531 19.56621094 29.44335938 18.31445312 C29.48267578 17.03505859 29.52199219 15.75566406 29.5625 14.4375 C29.60568359 13.15423828 29.64886719 11.87097656 29.69335938 10.54882812 C29.799848 7.36600147 29.90185962 4.18309326 30 1 C26.04878772 1.11817917 22.09781771 1.24242233 18.14697266 1.37231445 C16.14105193 1.43698251 14.13497772 1.49683106 12.12890625 1.55664062 C10.24365234 1.61948242 10.24365234 1.61948242 8.3203125 1.68359375 C7.15773926 1.72025146 5.99516602 1.75690918 4.79736328 1.79467773 C2.0464499 1.81821659 2.0464499 1.81821659 0 3 C0 2.01 0 1.02 0 0 Z " fill="#82BA0F" transform="translate(125,250)"/>
<path d="M0 0 C0.33 0 0.66 0 1 0 C2.2327688 21.31767536 1.9452131 42.60204895 1.5625 63.9375 C1.54968616 64.6523481 1.53687233 65.3671962 1.5236702 66.10370636 C1.36177968 75.06939258 1.18678438 84.03479612 1 93 C0.67 93 0.34 93 0 93 C-0.15706675 85.30410452 -0.30509428 77.60808564 -0.4429636 69.91182518 C-0.50730446 66.33435204 -0.57424911 62.75697606 -0.64819336 59.1796875 C-1.05434831 39.4102112 -0.87707598 19.75759022 0 0 Z " fill="#4E8101" transform="translate(187,250)"/>
<path d="M0 0 C0.99 0.495 0.99 0.495 2 1 C2.33 10.24 2.66 19.48 3 29 C16.86 29.495 16.86 29.495 31 30 C31 30.33 31 30.66 31 31 C20.77 31 10.54 31 0 31 C0 20.77 0 10.54 0 0 Z " fill="#80B01A" transform="translate(93,156)"/>
<path d="M0 0 C0.99 0.495 0.99 0.495 2 1 C2 1.99 2 2.98 2 4 C31.7 4.495 31.7 4.495 62 5 C62 5.33 62 5.66 62 6 C54.06386213 6.02312764 46.12773824 6.04091723 38.19157505 6.05181217 C34.50685502 6.05704008 30.82215797 6.06413605 27.13745117 6.07543945 C23.58429169 6.08627162 20.03115437 6.09227753 16.47797966 6.09487724 C15.11954334 6.0967309 13.76110829 6.10035038 12.40268135 6.10573006 C10.50617777 6.11294475 8.60965207 6.11340809 6.71313477 6.11352539 C5.09097801 6.11685631 5.09097801 6.11685631 3.43605042 6.12025452 C1 6 1 6 0 5 C-0.04063832 3.33382885 -0.042721 1.66611905 0 0 Z " fill="#375912" transform="translate(313,369)"/>
<path d="M0 0 C0.33 0 0.66 0 1 0 C1 10.23 1 20.46 1 31 C-9.56 31 -20.12 31 -31 31 C-31 30.67 -31 30.34 -31 30 C-21.43 29.67 -11.86 29.34 -2 29 C-0.63160637 26.26321275 -0.78365182 23.95735576 -0.68359375 20.8984375 C-0.64169922 19.68671875 -0.59980469 18.475 -0.55664062 17.2265625 C-0.51732422 15.95554687 -0.47800781 14.68453125 -0.4375 13.375 C-0.39431641 12.09625 -0.35113281 10.8175 -0.30664062 9.5 C-0.20030114 6.33344652 -0.09827167 3.16681247 0 0 Z " fill="#4D7F06" transform="translate(312,62)"/>
<path d="M0 0 C0.66 0 1.32 0 2 0 C2 9.9 2 19.8 2 30 C0.35 30 -1.3 30 -3 30 C-2.01 28.515 -2.01 28.515 -1 27 C-0.63112811 24.09355756 -0.63112811 24.09355756 -0.5859375 20.80078125 C-0.54726563 19.59228516 -0.50859375 18.38378906 -0.46875 17.13867188 C-0.4378125 15.87603516 -0.406875 14.61339844 -0.375 13.3125 C-0.33632813 12.03826172 -0.29765625 10.76402344 -0.2578125 9.45117188 C-0.16342314 6.30092708 -0.0778417 3.15069009 0 0 Z " fill="#98E417" transform="translate(467,0)"/>
<path d="M0 0 C10.23 0 20.46 0 31 0 C31 0.33 31 0.66 31 1 C21.76 1.33 12.52 1.66 3 2 C1.96285478 5.11143567 1.79968139 7.49468096 1.68359375 10.76171875 C1.64169922 11.87998047 1.59980469 12.99824219 1.55664062 14.15039062 C1.51732422 15.31763672 1.47800781 16.48488281 1.4375 17.6875 C1.39431641 18.86634766 1.35113281 20.04519531 1.30664062 21.25976562 C1.20048824 24.17305883 1.09843758 27.08643757 1 30 C0.67 30 0.34 30 0 30 C0 20.1 0 10.2 0 0 Z " fill="#83BC15" transform="translate(375,219)"/>
<path d="M0 0 C0.66 0.66 1.32 1.32 2 2 C4.92646253 2.1205879 7.76555531 2.13920977 10.6875 2.0625 C17.32563763 1.91642851 23.61589787 1.87196596 30 4 C29 5 29 5 26.22436523 5.11352539 C25.01466064 5.10828857 23.80495605 5.10305176 22.55859375 5.09765625 C21.25341797 5.09443359 19.94824219 5.09121094 18.60351562 5.08789062 C17.2148431 5.07953401 15.82617123 5.07106905 14.4375 5.0625 C13.04492344 5.05748666 11.65234519 5.05292347 10.25976562 5.04882812 C6.8398013 5.03699434 3.41992156 5.0205088 0 5 C0 3.35 0 1.7 0 0 Z " fill="#5F860E" transform="translate(94,338)"/>
<path d="M0 0 C0.33 0 0.66 0 1 0 C1.02465622 4.25414623 1.04283899 8.50825498 1.05493164 12.76245117 C1.05997101 14.21070073 1.06680253 15.65894517 1.07543945 17.10717773 C1.08752247 19.18474588 1.09323211 21.26224697 1.09765625 23.33984375 C1.10289307 24.59144287 1.10812988 25.84304199 1.11352539 27.13256836 C1 30 1 30 0 31 C-1.66617115 31.04063832 -3.33388095 31.042721 -5 31 C-4.35256836 30.63737061 -3.70513672 30.27474121 -3.03808594 29.90112305 C-0.72467265 28.11986853 -0.72467265 28.11986853 -0.45410156 25.08911133 C-0.4331543 23.9317749 -0.41220703 22.77443848 -0.390625 21.58203125 C-0.35839844 20.32841797 -0.32617188 19.07480469 -0.29296875 17.78320312 C-0.27878906 16.47287109 -0.26460937 15.16253906 -0.25 13.8125 C-0.22184019 12.47717464 -0.19191271 11.1418853 -0.16015625 9.80664062 C-0.08934884 6.53769851 -0.03670367 3.26947421 0 0 Z " fill="#518208" transform="translate(218,250)"/>
<path d="M0 0 C1.32 0.66 2.64 1.32 4 2 C4 2.99 4 3.98 4 5 C2.02 5 0.04 5 -2 5 C-1.34 3.35 -0.68 1.7 0 0 Z " fill="#38670D" transform="translate(371,369)"/>
</svg>
