<?xml version="1.0" encoding="UTF-8"?>
<svg version="1.1" xmlns="http://www.w3.org/2000/svg" width="1280" height="1280">
<path d="M0 0 C39.6 0 79.2 0 120 0 C120 3.3 120 6.6 120 10 C129.9 10 139.8 10 150 10 C150 13.3 150 16.6 150 20 C156.6 20 163.2 20 170 20 C170 23.3 170 26.6 170 30 C176.6 30 183.2 30 190 30 C190 33.3 190 36.6 190 40 C193.3 40 196.6 40 200 40 C200 43.3 200 46.6 200 50 C203.3 50 206.6 50 210 50 C210 53.3 210 56.6 210 60 C213.3 60 216.6 60 220 60 C220 63.3 220 66.6 220 70 C223.3 70 226.6 70 230 70 C230 73.3 230 76.6 230 80 C233.3 80 236.6 80 240 80 C240 83.3 240 86.6 240 90 C243.3 90 246.6 90 250 90 C250 96.6 250 103.2 250 110 C253.3 110 256.6 110 260 110 C260 149.6 260 189.2 260 230 C256.7 230 253.4 230 250 230 C250 239.9 250 249.8 250 260 C246.7 260 243.4 260 240 260 C240 273.2 240 286.4 240 300 C236.7 300 233.4 300 230 300 C230 306.6 230 313.2 230 320 C233.3 320 236.6 320 240 320 C240 323.3 240 326.6 240 330 C243.3 330 246.6 330 250 330 C250 333.3 250 336.6 250 340 C256.6 340 263.2 340 270 340 C270 343.3 270 346.6 270 350 C273.3 350 276.6 350 280 350 C280 353.3 280 356.6 280 360 C283.3 360 286.6 360 290 360 C290 363.3 290 366.6 290 370 C293.3 370 296.6 370 300 370 C300 373.3 300 376.6 300 380 C303.3 380 306.6 380 310 380 C310 383.3 310 386.6 310 390 C313.3 390 316.6 390 320 390 C320 393.3 320 396.6 320 400 C323.3 400 326.6 400 330 400 C330 406.6 330 413.2 330 420 C333.3 420 336.6 420 340 420 C340 443.1 340 466.2 340 490 C336.7 490 333.4 490 330 490 C330 496.6 330 503.2 330 510 C326.7 510 323.4 510 320 510 C320 513.3 320 516.6 320 520 C316.7 520 313.4 520 310 520 C310 523.3 310 526.6 310 530 C306.7 530 303.4 530 300 530 C300 533.3 300 536.6 300 540 C296.7 540 293.4 540 290 540 C290 543.3 290 546.6 290 550 C286.7 550 283.4 550 280 550 C280 553.3 280 556.6 280 560 C276.7 560 273.4 560 270 560 C270 563.3 270 566.6 270 570 C266.7 570 263.4 570 260 570 C260 573.3 260 576.6 260 580 C253.4 580 246.8 580 240 580 C240 583.3 240 586.6 240 590 C233.4 590 226.8 590 220 590 C220 593.3 220 596.6 220 600 C210.1 600 200.2 600 190 600 C190 603.3 190 606.6 190 610 C186.7 610 183.4 610 180 610 C180 613.3 180 616.6 180 620 C176.7 620 173.4 620 170 620 C170 623.3 170 626.6 170 630 C166.7 630 163.4 630 160 630 C160 633.3 160 636.6 160 640 C176.5 640 193 640 210 640 C210 643.3 210 646.6 210 650 C213.3 650 216.6 650 220 650 C220 653.3 220 656.6 220 660 C216.7 660 213.4 660 210 660 C210 663.3 210 666.6 210 670 C206.7 670 203.4 670 200 670 C200 673.3 200 676.6 200 680 C196.7 680 193.4 680 190 680 C190 683.3 190 686.6 190 690 C176.8 690 163.6 690 150 690 C150 699.9 150 709.8 150 720 C153.3 720 156.6 720 160 720 C160 729.9 160 739.8 160 750 C163.3 750 166.6 750 170 750 C170 756.6 170 763.2 170 770 C173.3 770 176.6 770 180 770 C180 776.6 180 783.2 180 790 C183.3 790 186.6 790 190 790 C190 796.6 190 803.2 190 810 C196.6 810 203.2 810 210 810 C210 806.7 210 803.4 210 800 C213.3 800 216.6 800 220 800 C220 793.4 220 786.8 220 780 C223.3 780 226.6 780 230 780 C230 776.7 230 773.4 230 770 C233.3 770 236.6 770 240 770 C240 766.7 240 763.4 240 760 C243.3 760 246.6 760 250 760 C250 756.7 250 753.4 250 750 C253.3 750 256.6 750 260 750 C260 746.7 260 743.4 260 740 C263.3 740 266.6 740 270 740 C270 743.3 270 746.6 270 750 C273.3 750 276.6 750 280 750 C280 763.2 280 776.4 280 790 C283.3 790 286.6 790 290 790 C290 799.9 290 809.8 290 820 C293.3 820 296.6 820 300 820 C300 829.9 300 839.8 300 850 C296.7 850 293.4 850 290 850 C290 853.3 290 856.6 290 860 C283.4 860 276.8 860 270 860 C270 873.2 270 886.4 270 900 C266.7 900 263.4 900 260 900 C260 906.6 260 913.2 260 920 C263.3 920 266.6 920 270 920 C270 929.9 270 939.8 270 950 C266.7 950 263.4 950 260 950 C260 956.6 260 963.2 260 970 C256.7 970 253.4 970 250 970 C250 973.3 250 976.6 250 980 C246.7 980 243.4 980 240 980 C240 983.3 240 986.6 240 990 C236.7 990 233.4 990 230 990 C230 993.3 230 996.6 230 1000 C226.7 1000 223.4 1000 220 1000 C220 1003.3 220 1006.6 220 1010 C216.7 1010 213.4 1010 210 1010 C210 1013.3 210 1016.6 210 1020 C203.4 1020 196.8 1020 190 1020 C190 1016.7 190 1013.4 190 1010 C183.4 1010 176.8 1010 170 1010 C170 1006.7 170 1003.4 170 1000 C163.4 1000 156.8 1000 150 1000 C150 1003.3 150 1006.6 150 1010 C143.4 1010 136.8 1010 130 1010 C130 1013.3 130 1016.6 130 1020 C126.7 1020 123.4 1020 120 1020 C120 1023.3 120 1026.6 120 1030 C116.7 1030 113.4 1030 110 1030 C110 1043.2 110 1056.4 110 1070 C106.7 1070 103.4 1070 100 1070 C100 1073.3 100 1076.6 100 1080 C96.7 1080 93.4 1080 90 1080 C90 1083.3 90 1086.6 90 1090 C86.7 1090 83.4 1090 80 1090 C80 1093.3 80 1096.6 80 1100 C76.7 1100 73.4 1100 70 1100 C70 1103.3 70 1106.6 70 1110 C63.4 1110 56.8 1110 50 1110 C50 1113.3 50 1116.6 50 1120 C43.4 1120 36.8 1120 30 1120 C30 1123.3 30 1126.6 30 1130 C26.7 1130 23.4 1130 20 1130 C20 1133.3 20 1136.6 20 1140 C-22.9 1140 -65.8 1140 -110 1140 C-110 1143.3 -110 1146.6 -110 1150 C-116.6 1150 -123.2 1150 -130 1150 C-130 1153.3 -130 1156.6 -130 1160 C-133.3 1160 -136.6 1160 -140 1160 C-140 1163.3 -140 1166.6 -140 1170 C-143.3 1170 -146.6 1170 -150 1170 C-150 1173.3 -150 1176.6 -150 1180 C-153.3 1180 -156.6 1180 -160 1180 C-160 1183.3 -160 1186.6 -160 1190 C-163.3 1190 -166.6 1190 -170 1190 C-170 1193.3 -170 1196.6 -170 1200 C-173.3 1200 -176.6 1200 -180 1200 C-180 1203.3 -180 1206.6 -180 1210 C-183.3 1210 -186.6 1210 -190 1210 C-190 1213.3 -190 1216.6 -190 1220 C-196.6 1220 -203.2 1220 -210 1220 C-210 1223.3 -210 1226.6 -210 1230 C-226.5 1230 -243 1230 -260 1230 C-260 1226.7 -260 1223.4 -260 1220 C-266.6 1220 -273.2 1220 -280 1220 C-280 1216.7 -280 1213.4 -280 1210 C-283.3 1210 -286.6 1210 -290 1210 C-290 1206.7 -290 1203.4 -290 1200 C-293.3 1200 -296.6 1200 -300 1200 C-300 1196.7 -300 1193.4 -300 1190 C-303.3 1190 -306.6 1190 -310 1190 C-310 1186.7 -310 1183.4 -310 1180 C-313.3 1180 -316.6 1180 -320 1180 C-320 1176.7 -320 1173.4 -320 1170 C-323.3 1170 -326.6 1170 -330 1170 C-330 1156.8 -330 1143.6 -330 1130 C-333.3 1130 -336.6 1130 -340 1130 C-340 1123.4 -340 1116.8 -340 1110 C-343.3 1110 -346.6 1110 -350 1110 C-350 1113.3 -350 1116.6 -350 1120 C-353.3 1120 -356.6 1120 -360 1120 C-360 1123.3 -360 1126.6 -360 1130 C-363.3 1130 -366.6 1130 -370 1130 C-370 1133.3 -370 1136.6 -370 1140 C-422.8 1140 -475.6 1140 -530 1140 C-530 1136.7 -530 1133.4 -530 1130 C-533.3 1130 -536.6 1130 -540 1130 C-540 1133.3 -540 1136.6 -540 1140 C-556.5 1140 -573 1140 -590 1140 C-590 1136.7 -590 1133.4 -590 1130 C-593.3 1130 -596.6 1130 -600 1130 C-600 1126.7 -600 1123.4 -600 1120 C-603.3 1120 -606.6 1120 -610 1120 C-610 1116.7 -610 1113.4 -610 1110 C-613.3 1110 -616.6 1110 -620 1110 C-620 1103.4 -620 1096.8 -620 1090 C-623.3 1090 -626.6 1090 -630 1090 C-630 1099.9 -630 1109.8 -630 1120 C-633.3 1120 -636.6 1120 -640 1120 C-640 1123.3 -640 1126.6 -640 1130 C-643.3 1130 -646.6 1130 -650 1130 C-650 1133.3 -650 1136.6 -650 1140 C-673.1 1140 -696.2 1140 -720 1140 C-720 1136.7 -720 1133.4 -720 1130 C-723.3 1130 -726.6 1130 -730 1130 C-730 1067.3 -730 1004.6 -730 940 C-726.7 940 -723.4 940 -720 940 C-720 936.7 -720 933.4 -720 930 C-696.9 930 -673.8 930 -650 930 C-650 933.3 -650 936.6 -650 940 C-646.7 940 -643.4 940 -640 940 C-640 943.3 -640 946.6 -640 950 C-636.7 950 -633.4 950 -630 950 C-630 969.8 -630 989.6 -630 1010 C-626.7 1010 -623.4 1010 -620 1010 C-620 986.9 -620 963.8 -620 940 C-616.7 940 -613.4 940 -610 940 C-610 936.7 -610 933.4 -610 930 C-593.5 930 -577 930 -560 930 C-560 933.3 -560 936.6 -560 940 C-556.7 940 -553.4 940 -550 940 C-550 943.3 -550 946.6 -550 950 C-546.7 950 -543.4 950 -540 950 C-540 946.7 -540 943.4 -540 940 C-536.7 940 -533.4 940 -530 940 C-530 936.7 -530 933.4 -530 930 C-513.5 930 -497 930 -480 930 C-480 923.4 -480 916.8 -480 910 C-516.3 910 -552.6 910 -590 910 C-590 906.7 -590 903.4 -590 900 C-596.6 900 -603.2 900 -610 900 C-610 903.3 -610 906.6 -610 910 C-623.2 910 -636.4 910 -650 910 C-650 906.7 -650 903.4 -650 900 C-653.3 900 -656.6 900 -660 900 C-660 903.3 -660 906.6 -660 910 C-669.9 910 -679.8 910 -690 910 C-690 906.7 -690 903.4 -690 900 C-696.6 900 -703.2 900 -710 900 C-710 903.3 -710 906.6 -710 910 C-726.5 910 -743 910 -760 910 C-760 906.7 -760 903.4 -760 900 C-763.3 900 -766.6 900 -770 900 C-770 840.6 -770 781.2 -770 720 C-766.7 720 -763.4 720 -760 720 C-760 716.7 -760 713.4 -760 710 C-743.5 710 -727 710 -710 710 C-710 713.3 -710 716.6 -710 720 C-706.7 720 -703.4 720 -700 720 C-700 716.7 -700 713.4 -700 710 C-690.1 710 -680.2 710 -670 710 C-670 713.3 -670 716.6 -670 720 C-663.4 720 -656.8 720 -650 720 C-650 716.7 -650 713.4 -650 710 C-623.6 710 -597.2 710 -570 710 C-570 713.3 -570 716.6 -570 720 C-566.7 720 -563.4 720 -560 720 C-560 716.7 -560 713.4 -560 710 C-543.5 710 -527 710 -510 710 C-510 713.3 -510 716.6 -510 720 C-506.7 720 -503.4 720 -500 720 C-500 716.7 -500 713.4 -500 710 C-493.4 710 -486.8 710 -480 710 C-480 680.3 -480 650.6 -480 620 C-476.7 620 -473.4 620 -470 620 C-470 593.6 -470 567.2 -470 540 C-466.7 540 -463.4 540 -460 540 C-460 526.8 -460 513.6 -460 500 C-456.7 500 -453.4 500 -450 500 C-450 490.1 -450 480.2 -450 470 C-446.7 470 -443.4 470 -440 470 C-440 463.4 -440 456.8 -440 450 C-436.7 450 -433.4 450 -430 450 C-430 443.4 -430 436.8 -430 430 C-426.7 430 -423.4 430 -420 430 C-420 423.4 -420 416.8 -420 410 C-416.7 410 -413.4 410 -410 410 C-410 406.7 -410 403.4 -410 400 C-406.7 400 -403.4 400 -400 400 C-400 396.7 -400 393.4 -400 390 C-396.7 390 -393.4 390 -390 390 C-390 386.7 -390 383.4 -390 380 C-386.7 380 -383.4 380 -380 380 C-380 376.7 -380 373.4 -380 370 C-376.7 370 -373.4 370 -370 370 C-370 366.7 -370 363.4 -370 360 C-366.7 360 -363.4 360 -360 360 C-360 356.7 -360 353.4 -360 350 C-356.7 350 -353.4 350 -350 350 C-350 346.7 -350 343.4 -350 340 C-346.7 340 -343.4 340 -340 340 C-340 336.7 -340 333.4 -340 330 C-336.7 330 -333.4 330 -330 330 C-330 326.7 -330 323.4 -330 320 C-333.3 320 -336.6 320 -340 320 C-340 316.7 -340 313.4 -340 310 C-343.3 310 -346.6 310 -350 310 C-350 306.7 -350 303.4 -350 300 C-353.3 300 -356.6 300 -360 300 C-360 293.4 -360 286.8 -360 280 C-363.3 280 -366.6 280 -370 280 C-370 260.2 -370 240.4 -370 220 C-366.7 220 -363.4 220 -360 220 C-360 210.1 -360 200.2 -360 190 C-356.7 190 -353.4 190 -350 190 C-350 183.4 -350 176.8 -350 170 C-346.7 170 -343.4 170 -340 170 C-340 166.7 -340 163.4 -340 160 C-336.7 160 -333.4 160 -330 160 C-330 156.7 -330 153.4 -330 150 C-326.7 150 -323.4 150 -320 150 C-320 146.7 -320 143.4 -320 140 C-316.7 140 -313.4 140 -310 140 C-310 136.7 -310 133.4 -310 130 C-303.4 130 -296.8 130 -290 130 C-290 126.7 -290 123.4 -290 120 C-280.1 120 -270.2 120 -260 120 C-260 116.7 -260 113.4 -260 110 C-236.9 110 -213.8 110 -190 110 C-190 106.7 -190 103.4 -190 100 C-173.5 100 -157 100 -140 100 C-140 96.7 -140 93.4 -140 90 C-133.4 90 -126.8 90 -120 90 C-120 86.7 -120 83.4 -120 80 C-116.7 80 -113.4 80 -110 80 C-110 76.7 -110 73.4 -110 70 C-106.7 70 -103.4 70 -100 70 C-100 66.7 -100 63.4 -100 60 C-96.7 60 -93.4 60 -90 60 C-90 56.7 -90 53.4 -90 50 C-86.7 50 -83.4 50 -80 50 C-80 46.7 -80 43.4 -80 40 C-76.7 40 -73.4 40 -70 40 C-70 36.7 -70 33.4 -70 30 C-63.4 30 -56.8 30 -50 30 C-50 26.7 -50 23.4 -50 20 C-43.4 20 -36.8 20 -30 20 C-30 16.7 -30 13.4 -30 10 C-20.1 10 -10.2 10 0 10 C0 6.7 0 3.4 0 0 Z " fill="#21181B" transform="translate(850,30)"/>
<path d="M0 0 C39.6 0 79.2 0 120 0 C120 3.3 120 6.6 120 10 C133.2 10 146.4 10 160 10 C160 13.3 160 16.6 160 20 C166.6 20 173.2 20 180 20 C180 23.3 180 26.6 180 30 C186.6 30 193.2 30 200 30 C200 33.3 200 36.6 200 40 C206.6 40 213.2 40 220 40 C220 43.3 220 46.6 220 50 C223.3 50 226.6 50 230 50 C230 53.3 230 56.6 230 60 C236.6 60 243.2 60 250 60 C250 63.3 250 66.6 250 70 C253.3 70 256.6 70 260 70 C260 73.3 260 76.6 260 80 C263.3 80 266.6 80 270 80 C270 83.3 270 86.6 270 90 C273.3 90 276.6 90 280 90 C280 93.3 280 96.6 280 100 C283.3 100 286.6 100 290 100 C290 103.3 290 106.6 290 110 C293.3 110 296.6 110 300 110 C300 113.3 300 116.6 300 120 C303.3 120 306.6 120 310 120 C310 123.3 310 126.6 310 130 C313.3 130 316.6 130 320 130 C320 136.6 320 143.2 320 150 C323.3 150 326.6 150 330 150 C330 159.9 330 169.8 330 180 C333.3 180 336.6 180 340 180 C340 196.5 340 213 340 230 C359.8 230 379.6 230 400 230 C400 233.3 400 236.6 400 240 C376.9 240 353.8 240 330 240 C330 243.3 330 246.6 330 250 C326.7 250 323.4 250 320 250 C320 253.3 320 256.6 320 260 C316.7 260 313.4 260 310 260 C310 283.1 310 306.2 310 330 C313.3 330 316.6 330 320 330 C320 333.3 320 336.6 320 340 C323.3 340 326.6 340 330 340 C330 343.3 330 346.6 330 350 C336.6 350 343.2 350 350 350 C350 353.3 350 356.6 350 360 C323.6 360 297.2 360 270 360 C270 363.3 270 366.6 270 370 C273.3 370 276.6 370 280 370 C280 373.3 280 376.6 280 380 C283.3 380 286.6 380 290 380 C290 383.3 290 386.6 290 390 C309.8 390 329.6 390 350 390 C350 465.9 350 541.8 350 620 C346.7 620 343.4 620 340 620 C340 626.6 340 633.2 340 640 C333.4 640 326.8 640 320 640 C320 636.7 320 633.4 320 630 C313.4 630 306.8 630 300 630 C300 626.7 300 623.4 300 620 C293.4 620 286.8 620 280 620 C280 616.7 280 613.4 280 610 C276.7 610 273.4 610 270 610 C270 603.4 270 596.8 270 590 C266.7 590 263.4 590 260 590 C260 586.7 260 583.4 260 580 C256.7 580 253.4 580 250 580 C250 570.1 250 560.2 250 550 C263.2 550 276.4 550 290 550 C290 546.7 290 543.4 290 540 C286.7 540 283.4 540 280 540 C280 536.7 280 533.4 280 530 C276.7 530 273.4 530 270 530 C270 526.7 270 523.4 270 520 C266.7 520 263.4 520 260 520 C260 516.7 260 513.4 260 510 C256.7 510 253.4 510 250 510 C250 503.4 250 496.8 250 490 C246.7 490 243.4 490 240 490 C240 486.7 240 483.4 240 480 C236.7 480 233.4 480 230 480 C230 476.7 230 473.4 230 470 C226.7 470 223.4 470 220 470 C220 466.7 220 463.4 220 460 C216.7 460 213.4 460 210 460 C210 473.2 210 486.4 210 500 C206.7 500 203.4 500 200 500 C200 509.9 200 519.8 200 530 C196.7 530 193.4 530 190 530 C190 539.9 190 549.8 190 560 C196.6 560 203.2 560 210 560 C210 556.7 210 553.4 210 550 C213.3 550 216.6 550 220 550 C220 569.8 220 589.6 220 610 C223.3 610 226.6 610 230 610 C230 619.9 230 629.8 230 640 C233.3 640 236.6 640 240 640 C240 643.3 240 646.6 240 650 C243.3 650 246.6 650 250 650 C250 653.3 250 656.6 250 660 C253.3 660 256.6 660 260 660 C260 663.3 260 666.6 260 670 C263.3 670 266.6 670 270 670 C270 673.3 270 676.6 270 680 C276.6 680 283.2 680 290 680 C290 683.3 290 686.6 290 690 C296.6 690 303.2 690 310 690 C310 693.3 310 696.6 310 700 C316.6 700 323.2 700 330 700 C330 703.3 330 706.6 330 710 C336.6 710 343.2 710 350 710 C350 713.3 350 716.6 350 720 C353.3 720 356.6 720 360 720 C360 723.3 360 726.6 360 730 C353.4 730 346.8 730 340 730 C340 746.5 340 763 340 780 C336.7 780 333.4 780 330 780 C330 783.3 330 786.6 330 790 C326.7 790 323.4 790 320 790 C320 793.3 320 796.6 320 800 C313.4 800 306.8 800 300 800 C300 803.3 300 806.6 300 810 C296.7 810 293.4 810 290 810 C290 793.5 290 777 290 760 C286.7 760 283.4 760 280 760 C280 756.7 280 753.4 280 750 C276.7 750 273.4 750 270 750 C270 746.7 270 743.4 270 740 C246.9 740 223.8 740 200 740 C200 743.3 200 746.6 200 750 C196.7 750 193.4 750 190 750 C190 720.3 190 690.6 190 660 C186.7 660 183.4 660 180 660 C180 656.7 180 653.4 180 650 C176.7 650 173.4 650 170 650 C170 646.7 170 643.4 170 640 C146.9 640 123.8 640 100 640 C100 643.3 100 646.6 100 650 C96.7 650 93.4 650 90 650 C90 679.7 90 709.4 90 740 C66.9 740 43.8 740 20 740 C20 743.3 20 746.6 20 750 C16.7 750 13.4 750 10 750 C10 720.3 10 690.6 10 660 C6.7 660 3.4 660 0 660 C0 656.7 0 653.4 0 650 C-3.3 650 -6.6 650 -10 650 C-10 646.7 -10 643.4 -10 640 C-33.1 640 -56.2 640 -80 640 C-80 643.3 -80 646.6 -80 650 C-83.3 650 -86.6 650 -90 650 C-90 656.6 -90 663.2 -90 670 C-93.3 670 -96.6 670 -100 670 C-100 666.7 -100 663.4 -100 660 C-103.3 660 -106.6 660 -110 660 C-110 656.7 -110 653.4 -110 650 C-113.3 650 -116.6 650 -120 650 C-120 646.7 -120 643.4 -120 640 C-136.5 640 -153 640 -170 640 C-170 643.3 -170 646.6 -170 650 C-173.3 650 -176.6 650 -180 650 C-180 689.6 -180 729.2 -180 770 C-183.3 770 -186.6 770 -190 770 C-190 733.7 -190 697.4 -190 660 C-193.3 660 -196.6 660 -200 660 C-200 656.7 -200 653.4 -200 650 C-203.3 650 -206.6 650 -210 650 C-210 636.8 -210 623.6 -210 610 C-206.7 610 -203.4 610 -200 610 C-200 613.3 -200 616.6 -200 620 C-186.8 620 -173.6 620 -160 620 C-160 616.7 -160 613.4 -160 610 C-153.4 610 -146.8 610 -140 610 C-140 613.3 -140 616.6 -140 620 C-130.1 620 -120.2 620 -110 620 C-110 616.7 -110 613.4 -110 610 C-106.7 610 -103.4 610 -100 610 C-100 606.7 -100 603.4 -100 600 C-96.7 600 -93.4 600 -90 600 C-90 603.3 -90 606.6 -90 610 C-86.7 610 -83.4 610 -80 610 C-80 613.3 -80 616.6 -80 620 C-66.8 620 -53.6 620 -40 620 C-40 616.7 -40 613.4 -40 610 C-36.7 610 -33.4 610 -30 610 C-30 606.7 -30 603.4 -30 600 C-26.7 600 -23.4 600 -20 600 C-20 603.3 -20 606.6 -20 610 C-16.7 610 -13.4 610 -10 610 C-10 613.3 -10 616.6 -10 620 C46.1 620 102.2 620 160 620 C160 616.7 160 613.4 160 610 C163.3 610 166.6 610 170 610 C170 606.7 170 603.4 170 600 C173.3 600 176.6 600 180 600 C180 553.8 180 507.6 180 460 C176.7 460 173.4 460 170 460 C170 453.4 170 446.8 170 440 C166.7 440 163.4 440 160 440 C160 436.7 160 433.4 160 430 C156.7 430 153.4 430 150 430 C150 426.7 150 423.4 150 420 C123.6 420 97.2 420 70 420 C70 423.3 70 426.6 70 430 C66.7 430 63.4 430 60 430 C60 426.7 60 423.4 60 420 C36.9 420 13.8 420 -10 420 C-10 423.3 -10 426.6 -10 430 C-13.3 430 -16.6 430 -20 430 C-20 426.7 -20 423.4 -20 420 C-49.7 420 -79.4 420 -110 420 C-110 423.3 -110 426.6 -110 430 C-113.3 430 -116.6 430 -120 430 C-120 426.7 -120 423.4 -120 420 C-146.4 420 -172.8 420 -200 420 C-200 423.3 -200 426.6 -200 430 C-203.3 430 -206.6 430 -210 430 C-210 397 -210 364 -210 330 C-206.7 330 -203.4 330 -200 330 C-200 303.6 -200 277.2 -200 250 C-196.7 250 -193.4 250 -190 250 C-190 236.8 -190 223.6 -190 210 C-186.7 210 -183.4 210 -180 210 C-180 200.1 -180 190.2 -180 180 C-176.7 180 -173.4 180 -170 180 C-170 173.4 -170 166.8 -170 160 C-166.7 160 -163.4 160 -160 160 C-160 153.4 -160 146.8 -160 140 C-156.7 140 -153.4 140 -150 140 C-150 133.4 -150 126.8 -150 120 C-146.7 120 -143.4 120 -140 120 C-140 116.7 -140 113.4 -140 110 C-136.7 110 -133.4 110 -130 110 C-130 106.7 -130 103.4 -130 100 C-126.7 100 -123.4 100 -120 100 C-120 96.7 -120 93.4 -120 90 C-116.7 90 -113.4 90 -110 90 C-110 86.7 -110 83.4 -110 80 C-106.7 80 -103.4 80 -100 80 C-100 76.7 -100 73.4 -100 70 C-96.7 70 -93.4 70 -90 70 C-90 66.7 -90 63.4 -90 60 C-86.7 60 -83.4 60 -80 60 C-80 56.7 -80 53.4 -80 50 C-76.7 50 -73.4 50 -70 50 C-70 46.7 -70 43.4 -70 40 C-66.7 40 -63.4 40 -60 40 C-60 36.7 -60 33.4 -60 30 C-53.4 30 -46.8 30 -40 30 C-40 26.7 -40 23.4 -40 20 C-33.4 20 -26.8 20 -20 20 C-20 16.7 -20 13.4 -20 10 C-13.4 10 -6.8 10 0 10 C0 6.7 0 3.4 0 0 Z " fill="#DFF6F5" transform="translate(600,320)"/>
<path d="M0 0 C39.6 0 79.2 0 120 0 C120 3.3 120 6.6 120 10 C129.9 10 139.8 10 150 10 C150 13.3 150 16.6 150 20 C156.6 20 163.2 20 170 20 C170 26.6 170 33.2 170 40 C173.3 40 176.6 40 180 40 C180 43.3 180 46.6 180 50 C183.3 50 186.6 50 190 50 C190 56.6 190 63.2 190 70 C193.3 70 196.6 70 200 70 C200 76.6 200 83.2 200 90 C203.3 90 206.6 90 210 90 C210 103.2 210 116.4 210 130 C206.7 130 203.4 130 200 130 C200 143.2 200 156.4 200 170 C196.7 170 193.4 170 190 170 C190 176.6 190 183.2 190 190 C186.7 190 183.4 190 180 190 C180 193.3 180 196.6 180 200 C176.7 200 173.4 200 170 200 C170 203.3 170 206.6 170 210 C166.7 210 163.4 210 160 210 C160 213.3 160 216.6 160 220 C156.7 220 153.4 220 150 220 C150 223.3 150 226.6 150 230 C143.4 230 136.8 230 130 230 C130 233.3 130 236.6 130 240 C120.1 240 110.2 240 100 240 C100 243.3 100 246.6 100 250 C103.3 250 106.6 250 110 250 C110 253.3 110 256.6 110 260 C123.2 260 136.4 260 150 260 C150 263.3 150 266.6 150 270 C159.9 270 169.8 270 180 270 C180 273.3 180 276.6 180 280 C189.9 280 199.8 280 210 280 C210 289.9 210 299.8 210 310 C200.1 310 190.2 310 180 310 C180 313.3 180 316.6 180 320 C196.5 320 213 320 230 320 C230 323.3 230 326.6 230 330 C236.6 330 243.2 330 250 330 C250 333.3 250 336.6 250 340 C256.6 340 263.2 340 270 340 C270 343.3 270 346.6 270 350 C273.3 350 276.6 350 280 350 C280 353.3 280 356.6 280 360 C283.3 360 286.6 360 290 360 C290 363.3 290 366.6 290 370 C293.3 370 296.6 370 300 370 C300 373.3 300 376.6 300 380 C303.3 380 306.6 380 310 380 C310 386.6 310 393.2 310 400 C313.3 400 316.6 400 320 400 C320 423.1 320 446.2 320 470 C316.7 470 313.4 470 310 470 C310 476.6 310 483.2 310 490 C306.7 490 303.4 490 300 490 C300 493.3 300 496.6 300 500 C296.7 500 293.4 500 290 500 C290 503.3 290 506.6 290 510 C286.7 510 283.4 510 280 510 C280 513.3 280 516.6 280 520 C276.7 520 273.4 520 270 520 C270 523.3 270 526.6 270 530 C266.7 530 263.4 530 260 530 C260 533.3 260 536.6 260 540 C253.4 540 246.8 540 240 540 C240 543.3 240 546.6 240 550 C233.4 550 226.8 550 220 550 C220 553.3 220 556.6 220 560 C210.1 560 200.2 560 190 560 C190 563.3 190 566.6 190 570 C186.7 570 183.4 570 180 570 C180 579.9 180 589.8 180 600 C176.7 600 173.4 600 170 600 C170 576.9 170 553.8 170 530 C166.7 530 163.4 530 160 530 C160 526.7 160 523.4 160 520 C156.7 520 153.4 520 150 520 C150 513.4 150 506.8 150 500 C146.7 500 143.4 500 140 500 C140 496.7 140 493.4 140 490 C153.2 490 166.4 490 180 490 C180 486.7 180 483.4 180 480 C189.9 480 199.8 480 210 480 C210 476.7 210 473.4 210 470 C213.3 470 216.6 470 220 470 C220 466.7 220 463.4 220 460 C223.3 460 226.6 460 230 460 C230 450.1 230 440.2 230 430 C226.7 430 223.4 430 220 430 C220 426.7 220 423.4 220 420 C216.7 420 213.4 420 210 420 C210 416.7 210 413.4 210 410 C206.7 410 203.4 410 200 410 C200 406.7 200 403.4 200 400 C196.7 400 193.4 400 190 400 C190 396.7 190 393.4 190 390 C186.7 390 183.4 390 180 390 C180 386.7 180 383.4 180 380 C173.4 380 166.8 380 160 380 C160 376.7 160 373.4 160 370 C156.7 370 153.4 370 150 370 C150 366.7 150 363.4 150 360 C146.7 360 143.4 360 140 360 C140 356.7 140 353.4 140 350 C133.4 350 126.8 350 120 350 C120 346.7 120 343.4 120 340 C110.1 340 100.2 340 90 340 C90 336.7 90 333.4 90 330 C83.4 330 76.8 330 70 330 C70 326.7 70 323.4 70 320 C63.4 320 56.8 320 50 320 C50 316.7 50 313.4 50 310 C46.7 310 43.4 310 40 310 C40 306.7 40 303.4 40 300 C36.7 300 33.4 300 30 300 C30 296.7 30 293.4 30 290 C23.4 290 16.8 290 10 290 C10 286.7 10 283.4 10 280 C3.4 280 -3.2 280 -10 280 C-10 276.7 -10 273.4 -10 270 C-13.3 270 -16.6 270 -20 270 C-20 266.7 -20 263.4 -20 260 C-23.3 260 -26.6 260 -30 260 C-30 256.7 -30 253.4 -30 250 C-36.6 250 -43.2 250 -50 250 C-50 246.7 -50 243.4 -50 240 C-56.6 240 -63.2 240 -70 240 C-70 236.7 -70 233.4 -70 230 C-79.9 230 -89.8 230 -100 230 C-100 226.7 -100 223.4 -100 220 C-109.9 220 -119.8 220 -130 220 C-130 216.7 -130 213.4 -130 210 C-136.6 210 -143.2 210 -150 210 C-150 206.7 -150 203.4 -150 200 C-159.9 200 -169.8 200 -180 200 C-180 196.7 -180 193.4 -180 190 C-203.1 190 -226.2 190 -250 190 C-250 193.3 -250 196.6 -250 200 C-256.6 200 -263.2 200 -270 200 C-270 203.3 -270 206.6 -270 210 C-273.3 210 -276.6 210 -280 210 C-280 213.3 -280 216.6 -280 220 C-283.3 220 -286.6 220 -290 220 C-290 226.6 -290 233.2 -290 240 C-293.3 240 -296.6 240 -300 240 C-300 253.2 -300 266.4 -300 280 C-303.3 280 -306.6 280 -310 280 C-310 283.3 -310 286.6 -310 290 C-316.6 290 -323.2 290 -330 290 C-330 286.7 -330 283.4 -330 280 C-333.3 280 -336.6 280 -340 280 C-340 273.4 -340 266.8 -340 260 C-343.3 260 -346.6 260 -350 260 C-350 240.2 -350 220.4 -350 200 C-346.7 200 -343.4 200 -340 200 C-340 190.1 -340 180.2 -340 170 C-336.7 170 -333.4 170 -330 170 C-330 163.4 -330 156.8 -330 150 C-326.7 150 -323.4 150 -320 150 C-320 146.7 -320 143.4 -320 140 C-316.7 140 -313.4 140 -310 140 C-310 136.7 -310 133.4 -310 130 C-303.4 130 -296.8 130 -290 130 C-290 126.7 -290 123.4 -290 120 C-280.1 120 -270.2 120 -260 120 C-260 116.7 -260 113.4 -260 110 C-217.1 110 -174.2 110 -130 110 C-130 106.7 -130 103.4 -130 100 C-133.3 100 -136.6 100 -140 100 C-140 96.7 -140 93.4 -140 90 C-133.4 90 -126.8 90 -120 90 C-120 86.7 -120 83.4 -120 80 C-116.7 80 -113.4 80 -110 80 C-110 76.7 -110 73.4 -110 70 C-106.7 70 -103.4 70 -100 70 C-100 66.7 -100 63.4 -100 60 C-96.7 60 -93.4 60 -90 60 C-90 56.7 -90 53.4 -90 50 C-86.7 50 -83.4 50 -80 50 C-80 46.7 -80 43.4 -80 40 C-76.7 40 -73.4 40 -70 40 C-70 36.7 -70 33.4 -70 30 C-63.4 30 -56.8 30 -50 30 C-50 26.7 -50 23.4 -50 20 C-43.4 20 -36.8 20 -30 20 C-30 16.7 -30 13.4 -30 10 C-20.1 10 -10.2 10 0 10 C0 6.7 0 3.4 0 0 Z " fill="#7D3833" transform="translate(850,50)"/>
<path d="M0 0 C23.1 0 46.2 0 70 0 C70 3.3 70 6.6 70 10 C73.3 10 76.6 10 80 10 C80 13.3 80 16.6 80 20 C83.3 20 86.6 20 90 20 C90 46.4 90 72.8 90 100 C86.7 100 83.4 100 80 100 C80 103.3 80 106.6 80 110 C96.5 110 113 110 130 110 C130 113.3 130 116.6 130 120 C133.3 120 136.6 120 140 120 C140 123.3 140 126.6 140 130 C136.7 130 133.4 130 130 130 C130 133.3 130 136.6 130 140 C126.7 140 123.4 140 120 140 C120 143.3 120 146.6 120 150 C116.7 150 113.4 150 110 150 C110 153.3 110 156.6 110 160 C96.8 160 83.6 160 70 160 C70 169.9 70 179.8 70 190 C73.3 190 76.6 190 80 190 C80 199.9 80 209.8 80 220 C83.3 220 86.6 220 90 220 C90 226.6 90 233.2 90 240 C93.3 240 96.6 240 100 240 C100 246.6 100 253.2 100 260 C103.3 260 106.6 260 110 260 C110 266.6 110 273.2 110 280 C116.6 280 123.2 280 130 280 C130 276.7 130 273.4 130 270 C133.3 270 136.6 270 140 270 C140 263.4 140 256.8 140 250 C143.3 250 146.6 250 150 250 C150 246.7 150 243.4 150 240 C153.3 240 156.6 240 160 240 C160 236.7 160 233.4 160 230 C163.3 230 166.6 230 170 230 C170 226.7 170 223.4 170 220 C173.3 220 176.6 220 180 220 C180 216.7 180 213.4 180 210 C183.3 210 186.6 210 190 210 C190 213.3 190 216.6 190 220 C193.3 220 196.6 220 200 220 C200 233.2 200 246.4 200 260 C203.3 260 206.6 260 210 260 C210 269.9 210 279.8 210 290 C213.3 290 216.6 290 220 290 C220 299.9 220 309.8 220 320 C216.7 320 213.4 320 210 320 C210 323.3 210 326.6 210 330 C203.4 330 196.8 330 190 330 C190 343.2 190 356.4 190 370 C186.7 370 183.4 370 180 370 C180 376.6 180 383.2 180 390 C183.3 390 186.6 390 190 390 C190 399.9 190 409.8 190 420 C186.7 420 183.4 420 180 420 C180 426.6 180 433.2 180 440 C176.7 440 173.4 440 170 440 C170 443.3 170 446.6 170 450 C166.7 450 163.4 450 160 450 C160 453.3 160 456.6 160 460 C156.7 460 153.4 460 150 460 C150 463.3 150 466.6 150 470 C146.7 470 143.4 470 140 470 C140 473.3 140 476.6 140 480 C136.7 480 133.4 480 130 480 C130 483.3 130 486.6 130 490 C123.4 490 116.8 490 110 490 C110 486.7 110 483.4 110 480 C103.4 480 96.8 480 90 480 C90 476.7 90 473.4 90 470 C83.4 470 76.8 470 70 470 C70 473.3 70 476.6 70 480 C63.4 480 56.8 480 50 480 C50 483.3 50 486.6 50 490 C46.7 490 43.4 490 40 490 C40 493.3 40 496.6 40 500 C36.7 500 33.4 500 30 500 C30 493.4 30 486.8 30 480 C26.7 480 23.4 480 20 480 C20 476.7 20 473.4 20 470 C13.4 470 6.8 470 0 470 C0 466.7 0 463.4 0 460 C-6.6 460 -13.2 460 -20 460 C-20 456.7 -20 453.4 -20 450 C-26.6 450 -33.2 450 -40 450 C-40 446.7 -40 443.4 -40 440 C-46.6 440 -53.2 440 -60 440 C-60 436.7 -60 433.4 -60 430 C-63.3 430 -66.6 430 -70 430 C-70 426.7 -70 423.4 -70 420 C-73.3 420 -76.6 420 -80 420 C-80 416.7 -80 413.4 -80 410 C-83.3 410 -86.6 410 -90 410 C-90 406.7 -90 403.4 -90 400 C-93.3 400 -96.6 400 -100 400 C-100 390.1 -100 380.2 -100 370 C-103.3 370 -106.6 370 -110 370 C-110 350.2 -110 330.4 -110 310 C-113.3 310 -116.6 310 -120 310 C-120 313.3 -120 316.6 -120 320 C-126.6 320 -133.2 320 -140 320 C-140 310.1 -140 300.2 -140 290 C-136.7 290 -133.4 290 -130 290 C-130 280.1 -130 270.2 -130 260 C-126.7 260 -123.4 260 -120 260 C-120 246.8 -120 233.6 -120 220 C-116.7 220 -113.4 220 -110 220 C-110 223.3 -110 226.6 -110 230 C-106.7 230 -103.4 230 -100 230 C-100 233.3 -100 236.6 -100 240 C-96.7 240 -93.4 240 -90 240 C-90 243.3 -90 246.6 -90 250 C-86.7 250 -83.4 250 -80 250 C-80 256.6 -80 263.2 -80 270 C-76.7 270 -73.4 270 -70 270 C-70 273.3 -70 276.6 -70 280 C-66.7 280 -63.4 280 -60 280 C-60 283.3 -60 286.6 -60 290 C-56.7 290 -53.4 290 -50 290 C-50 293.3 -50 296.6 -50 300 C-46.7 300 -43.4 300 -40 300 C-40 303.3 -40 306.6 -40 310 C-53.2 310 -66.4 310 -80 310 C-80 319.9 -80 329.8 -80 340 C-76.7 340 -73.4 340 -70 340 C-70 343.3 -70 346.6 -70 350 C-66.7 350 -63.4 350 -60 350 C-60 356.6 -60 363.2 -60 370 C-56.7 370 -53.4 370 -50 370 C-50 373.3 -50 376.6 -50 380 C-43.4 380 -36.8 380 -30 380 C-30 383.3 -30 386.6 -30 390 C-23.4 390 -16.8 390 -10 390 C-10 393.3 -10 396.6 -10 400 C-3.4 400 3.2 400 10 400 C10 393.4 10 386.8 10 380 C13.3 380 16.6 380 20 380 C20 304.1 20 228.2 20 150 C0.2 150 -19.6 150 -40 150 C-40 146.7 -40 143.4 -40 140 C-43.3 140 -46.6 140 -50 140 C-50 136.7 -50 133.4 -50 130 C-53.3 130 -56.6 130 -60 130 C-60 126.7 -60 123.4 -60 120 C-33.6 120 -7.2 120 20 120 C20 116.7 20 113.4 20 110 C13.4 110 6.8 110 0 110 C0 106.7 0 103.4 0 100 C-3.3 100 -6.6 100 -10 100 C-10 96.7 -10 93.4 -10 90 C-13.3 90 -16.6 90 -20 90 C-20 66.9 -20 43.8 -20 20 C-16.7 20 -13.4 20 -10 20 C-10 16.7 -10 13.4 -10 10 C-6.7 10 -3.4 10 0 10 C0 6.7 0 3.4 0 0 Z " fill="#21181B" transform="translate(930,560)"/>
<path d="M0 0 C39.6 0 79.2 0 120 0 C120 3.3 120 6.6 120 10 C129.9 10 139.8 10 150 10 C150 13.3 150 16.6 150 20 C156.6 20 163.2 20 170 20 C170 26.6 170 33.2 170 40 C173.3 40 176.6 40 180 40 C180 43.3 180 46.6 180 50 C183.3 50 186.6 50 190 50 C190 56.6 190 63.2 190 70 C193.3 70 196.6 70 200 70 C200 76.6 200 83.2 200 90 C203.3 90 206.6 90 210 90 C210 103.2 210 116.4 210 130 C206.7 130 203.4 130 200 130 C200 143.2 200 156.4 200 170 C196.7 170 193.4 170 190 170 C190 176.6 190 183.2 190 190 C186.7 190 183.4 190 180 190 C180 193.3 180 196.6 180 200 C176.7 200 173.4 200 170 200 C170 203.3 170 206.6 170 210 C166.7 210 163.4 210 160 210 C160 213.3 160 216.6 160 220 C156.7 220 153.4 220 150 220 C150 223.3 150 226.6 150 230 C143.4 230 136.8 230 130 230 C130 233.3 130 236.6 130 240 C120.1 240 110.2 240 100 240 C100 243.3 100 246.6 100 250 C96.7 250 93.4 250 90 250 C90 246.7 90 243.4 90 240 C86.7 240 83.4 240 80 240 C80 236.7 80 233.4 80 230 C73.4 230 66.8 230 60 230 C60 226.7 60 223.4 60 220 C56.7 220 53.4 220 50 220 C50 216.7 50 213.4 50 210 C46.7 210 43.4 210 40 210 C40 206.7 40 203.4 40 200 C36.7 200 33.4 200 30 200 C30 196.7 30 193.4 30 190 C23.4 190 16.8 190 10 190 C10 186.7 10 183.4 10 180 C6.7 180 3.4 180 0 180 C0 176.7 0 173.4 0 170 C-3.3 170 -6.6 170 -10 170 C-10 166.7 -10 163.4 -10 160 C-13.3 160 -16.6 160 -20 160 C-20 156.7 -20 153.4 -20 150 C-23.3 150 -26.6 150 -30 150 C-30 146.7 -30 143.4 -30 140 C-33.3 140 -36.6 140 -40 140 C-40 136.7 -40 133.4 -40 130 C-43.3 130 -46.6 130 -50 130 C-50 126.7 -50 123.4 -50 120 C-53.3 120 -56.6 120 -60 120 C-60 116.7 -60 113.4 -60 110 C-66.6 110 -73.2 110 -80 110 C-80 106.7 -80 103.4 -80 100 C-86.6 100 -93.2 100 -100 100 C-100 96.7 -100 93.4 -100 90 C-106.6 90 -113.2 90 -120 90 C-120 86.7 -120 83.4 -120 80 C-116.7 80 -113.4 80 -110 80 C-110 76.7 -110 73.4 -110 70 C-106.7 70 -103.4 70 -100 70 C-100 66.7 -100 63.4 -100 60 C-96.7 60 -93.4 60 -90 60 C-90 56.7 -90 53.4 -90 50 C-86.7 50 -83.4 50 -80 50 C-80 46.7 -80 43.4 -80 40 C-76.7 40 -73.4 40 -70 40 C-70 36.7 -70 33.4 -70 30 C-63.4 30 -56.8 30 -50 30 C-50 26.7 -50 23.4 -50 20 C-43.4 20 -36.8 20 -30 20 C-30 16.7 -30 13.4 -30 10 C-20.1 10 -10.2 10 0 10 C0 6.7 0 3.4 0 0 Z " fill="#7D3833" transform="translate(850,50)"/>
<path d="M0 0 C23.1 0 46.2 0 70 0 C70 3.3 70 6.6 70 10 C79.9 10 89.8 10 100 10 C100 13.3 100 16.6 100 20 C106.6 20 113.2 20 120 20 C120 23.3 120 26.6 120 30 C129.9 30 139.8 30 150 30 C150 33.3 150 36.6 150 40 C159.9 40 169.8 40 180 40 C180 43.3 180 46.6 180 50 C186.6 50 193.2 50 200 50 C200 53.3 200 56.6 200 60 C206.6 60 213.2 60 220 60 C220 63.3 220 66.6 220 70 C223.3 70 226.6 70 230 70 C230 73.3 230 76.6 230 80 C233.3 80 236.6 80 240 80 C240 83.3 240 86.6 240 90 C246.6 90 253.2 90 260 90 C260 93.3 260 96.6 260 100 C266.6 100 273.2 100 280 100 C280 103.3 280 106.6 280 110 C283.3 110 286.6 110 290 110 C290 113.3 290 116.6 290 120 C293.3 120 296.6 120 300 120 C300 123.3 300 126.6 300 130 C306.6 130 313.2 130 320 130 C320 133.3 320 136.6 320 140 C326.6 140 333.2 140 340 140 C340 143.3 340 146.6 340 150 C349.9 150 359.8 150 370 150 C370 153.3 370 156.6 370 160 C376.6 160 383.2 160 390 160 C390 163.3 390 166.6 390 170 C393.3 170 396.6 170 400 170 C400 173.3 400 176.6 400 180 C403.3 180 406.6 180 410 180 C410 183.3 410 186.6 410 190 C416.6 190 423.2 190 430 190 C430 193.3 430 196.6 430 200 C433.3 200 436.6 200 440 200 C440 203.3 440 206.6 440 210 C443.3 210 446.6 210 450 210 C450 213.3 450 216.6 450 220 C453.3 220 456.6 220 460 220 C460 223.3 460 226.6 460 230 C463.3 230 466.6 230 470 230 C470 233.3 470 236.6 470 240 C473.3 240 476.6 240 480 240 C480 249.9 480 259.8 480 270 C476.7 270 473.4 270 470 270 C470 273.3 470 276.6 470 280 C466.7 280 463.4 280 460 280 C460 283.3 460 286.6 460 290 C450.1 290 440.2 290 430 290 C430 293.3 430 296.6 430 300 C416.8 300 403.6 300 390 300 C390 303.3 390 306.6 390 310 C380.1 310 370.2 310 360 310 C360 293.5 360 277 360 260 C356.7 260 353.4 260 350 260 C350 250.1 350 240.2 350 230 C346.7 230 343.4 230 340 230 C340 223.4 340 216.8 340 210 C336.7 210 333.4 210 330 210 C330 203.4 330 196.8 330 190 C326.7 190 323.4 190 320 190 C320 186.7 320 183.4 320 180 C316.7 180 313.4 180 310 180 C310 176.7 310 173.4 310 170 C306.7 170 303.4 170 300 170 C300 166.7 300 163.4 300 160 C296.7 160 293.4 160 290 160 C290 156.7 290 153.4 290 150 C286.7 150 283.4 150 280 150 C280 146.7 280 143.4 280 140 C276.7 140 273.4 140 270 140 C270 136.7 270 133.4 270 130 C266.7 130 263.4 130 260 130 C260 126.7 260 123.4 260 120 C253.4 120 246.8 120 240 120 C240 116.7 240 113.4 240 110 C233.4 110 226.8 110 220 110 C220 106.7 220 103.4 220 100 C213.4 100 206.8 100 200 100 C200 96.7 200 93.4 200 90 C193.4 90 186.8 90 180 90 C180 86.7 180 83.4 180 80 C173.4 80 166.8 80 160 80 C160 76.7 160 73.4 160 70 C146.8 70 133.6 70 120 70 C120 66.7 120 63.4 120 60 C80.4 60 40.8 60 0 60 C0 63.3 0 66.6 0 70 C-6.6 70 -13.2 70 -20 70 C-20 73.3 -20 76.6 -20 80 C-26.6 80 -33.2 80 -40 80 C-40 83.3 -40 86.6 -40 90 C-43.3 90 -46.6 90 -50 90 C-50 76.8 -50 63.6 -50 50 C-46.7 50 -43.4 50 -40 50 C-40 43.4 -40 36.8 -40 30 C-36.7 30 -33.4 30 -30 30 C-30 26.7 -30 23.4 -30 20 C-26.7 20 -23.4 20 -20 20 C-20 16.7 -20 13.4 -20 10 C-13.4 10 -6.8 10 0 10 C0 6.7 0 3.4 0 0 Z " fill="#5D2C2D" transform="translate(600,240)"/>
<path d="M0 0 C19.8 0 39.6 0 60 0 C60 42.9 60 85.8 60 130 C76.5 130 93 130 110 130 C110 87.1 110 44.2 110 0 C123.2 0 136.4 0 150 0 C150 6.6 150 13.2 150 20 C156.6 20 163.2 20 170 20 C170 62.9 170 105.8 170 150 C163.4 150 156.8 150 150 150 C150 156.6 150 163.2 150 170 C100.5 170 51 170 0 170 C0 113.9 0 57.8 0 0 Z " fill="#F53141" transform="translate(330,980)"/>
<path d="M0 0 C19.8 0 39.6 0 60 0 C60 26.4 60 52.8 60 80 C76.5 80 93 80 110 80 C110 53.6 110 27.2 110 0 C123.2 0 136.4 0 150 0 C150 6.6 150 13.2 150 20 C156.6 20 163.2 20 170 20 C170 69.5 170 119 170 170 C156.8 170 143.6 170 130 170 C130 163.4 130 156.8 130 150 C123.4 150 116.8 150 110 150 C110 140.1 110 130.2 110 120 C93.5 120 77 120 60 120 C60 136.5 60 153 60 170 C40.2 170 20.4 170 0 170 C0 113.9 0 57.8 0 0 Z " fill="#F53141" transform="translate(140,980)"/>
<path d="M0 0 C3.3 0 6.6 0 10 0 C10 3.3 10 6.6 10 10 C13.3 10 16.6 10 20 10 C20 13.3 20 16.6 20 20 C33.2 20 46.4 20 60 20 C60 16.7 60 13.4 60 10 C63.3 10 66.6 10 70 10 C70 6.7 70 3.4 70 0 C73.3 0 76.6 0 80 0 C80 3.3 80 6.6 80 10 C83.3 10 86.6 10 90 10 C90 13.3 90 16.6 90 20 C139.5 20 189 20 240 20 C240 23.3 240 26.6 240 30 C243.3 30 246.6 30 250 30 C250 33.3 250 36.6 250 40 C233.5 40 217 40 200 40 C200 43.3 200 46.6 200 50 C196.7 50 193.4 50 190 50 C190 79.7 190 109.4 190 140 C166.9 140 143.8 140 120 140 C120 143.3 120 146.6 120 150 C116.7 150 113.4 150 110 150 C110 120.3 110 90.6 110 60 C106.7 60 103.4 60 100 60 C100 56.7 100 53.4 100 50 C96.7 50 93.4 50 90 50 C90 46.7 90 43.4 90 40 C66.9 40 43.8 40 20 40 C20 43.3 20 46.6 20 50 C16.7 50 13.4 50 10 50 C10 56.6 10 63.2 10 70 C6.7 70 3.4 70 0 70 C0 66.7 0 63.4 0 60 C-3.3 60 -6.6 60 -10 60 C-10 56.7 -10 53.4 -10 50 C-13.3 50 -16.6 50 -20 50 C-20 46.7 -20 43.4 -20 40 C-36.5 40 -53 40 -70 40 C-70 43.3 -70 46.6 -70 50 C-73.3 50 -76.6 50 -80 50 C-80 89.6 -80 129.2 -80 170 C-83.3 170 -86.6 170 -90 170 C-90 133.7 -90 97.4 -90 60 C-93.3 60 -96.6 60 -100 60 C-100 56.7 -100 53.4 -100 50 C-103.3 50 -106.6 50 -110 50 C-110 36.8 -110 23.6 -110 10 C-106.7 10 -103.4 10 -100 10 C-100 13.3 -100 16.6 -100 20 C-86.8 20 -73.6 20 -60 20 C-60 16.7 -60 13.4 -60 10 C-53.4 10 -46.8 10 -40 10 C-40 13.3 -40 16.6 -40 20 C-30.1 20 -20.2 20 -10 20 C-10 16.7 -10 13.4 -10 10 C-6.7 10 -3.4 10 0 10 C0 6.7 0 3.4 0 0 Z " fill="#DFF6F5" transform="translate(500,920)"/>
<path d="M0 0 C19.8 0 39.6 0 60 0 C60 3.3 60 6.6 60 10 C63.3 10 66.6 10 70 10 C70 13.3 70 16.6 70 20 C73.3 20 76.6 20 80 20 C80 26.6 80 33.2 80 40 C83.3 40 86.6 40 90 40 C90 73 90 106 90 140 C86.7 140 83.4 140 80 140 C80 146.6 80 153.2 80 160 C76.7 160 73.4 160 70 160 C70 163.3 70 166.6 70 170 C66.7 170 63.4 170 60 170 C60 173.3 60 176.6 60 180 C40.2 180 20.4 180 0 180 C0 176.7 0 173.4 0 170 C-3.3 170 -6.6 170 -10 170 C-10 166.7 -10 163.4 -10 160 C-13.3 160 -16.6 160 -20 160 C-20 153.4 -20 146.8 -20 140 C-23.3 140 -26.6 140 -30 140 C-30 107 -30 74 -30 40 C-26.7 40 -23.4 40 -20 40 C-20 33.4 -20 26.8 -20 20 C-16.7 20 -13.4 20 -10 20 C-10 16.7 -10 13.4 -10 10 C-6.7 10 -3.4 10 0 10 C0 6.7 0 3.4 0 0 Z " fill="#21181B" transform="translate(720,460)"/>
<path d="M0 0 C19.8 0 39.6 0 60 0 C60 3.3 60 6.6 60 10 C63.3 10 66.6 10 70 10 C70 13.3 70 16.6 70 20 C73.3 20 76.6 20 80 20 C80 26.6 80 33.2 80 40 C83.3 40 86.6 40 90 40 C90 73 90 106 90 140 C86.7 140 83.4 140 80 140 C80 146.6 80 153.2 80 160 C76.7 160 73.4 160 70 160 C70 163.3 70 166.6 70 170 C66.7 170 63.4 170 60 170 C60 173.3 60 176.6 60 180 C40.2 180 20.4 180 0 180 C0 176.7 0 173.4 0 170 C-3.3 170 -6.6 170 -10 170 C-10 166.7 -10 163.4 -10 160 C-13.3 160 -16.6 160 -20 160 C-20 153.4 -20 146.8 -20 140 C-23.3 140 -26.6 140 -30 140 C-30 107 -30 74 -30 40 C-26.7 40 -23.4 40 -20 40 C-20 33.4 -20 26.8 -20 20 C-16.7 20 -13.4 20 -10 20 C-10 16.7 -10 13.4 -10 10 C-6.7 10 -3.4 10 0 10 C0 6.7 0 3.4 0 0 Z " fill="#21181B" transform="translate(510,460)"/>
<path d="M0 0 C19.8 0 39.6 0 60 0 C60 42.9 60 85.8 60 130 C73.2 130 86.4 130 100 130 C100 120.1 100 110.2 100 100 C119.8 100 139.6 100 160 100 C160 123.1 160 146.2 160 170 C107.2 170 54.4 170 0 170 C0 113.9 0 57.8 0 0 Z " fill="#F53141" transform="translate(710,980)"/>
<path d="M0 0 C19.8 0 39.6 0 60 0 C60 42.9 60 85.8 60 130 C73.2 130 86.4 130 100 130 C100 120.1 100 110.2 100 100 C119.8 100 139.6 100 160 100 C160 123.1 160 146.2 160 170 C107.2 170 54.4 170 0 170 C0 113.9 0 57.8 0 0 Z " fill="#F53141" transform="translate(530,980)"/>
<path d="M0 0 C39.6 0 79.2 0 120 0 C120 3.3 120 6.6 120 10 C133.2 10 146.4 10 160 10 C160 13.3 160 16.6 160 20 C166.6 20 173.2 20 180 20 C180 23.3 180 26.6 180 30 C186.6 30 193.2 30 200 30 C200 33.3 200 36.6 200 40 C206.6 40 213.2 40 220 40 C220 43.3 220 46.6 220 50 C223.3 50 226.6 50 230 50 C230 53.3 230 56.6 230 60 C236.6 60 243.2 60 250 60 C250 63.3 250 66.6 250 70 C253.3 70 256.6 70 260 70 C260 73.3 260 76.6 260 80 C263.3 80 266.6 80 270 80 C270 83.3 270 86.6 270 90 C273.3 90 276.6 90 280 90 C280 93.3 280 96.6 280 100 C283.3 100 286.6 100 290 100 C290 103.3 290 106.6 290 110 C293.3 110 296.6 110 300 110 C300 113.3 300 116.6 300 120 C303.3 120 306.6 120 310 120 C310 123.3 310 126.6 310 130 C313.3 130 316.6 130 320 130 C320 136.6 320 143.2 320 150 C323.3 150 326.6 150 330 150 C330 159.9 330 169.8 330 180 C333.3 180 336.6 180 340 180 C340 196.5 340 213 340 230 C359.8 230 379.6 230 400 230 C400 233.3 400 236.6 400 240 C376.9 240 353.8 240 330 240 C330 243.3 330 246.6 330 250 C326.7 250 323.4 250 320 250 C320 253.3 320 256.6 320 260 C313.4 260 306.8 260 300 260 C300 266.6 300 273.2 300 280 C296.7 280 293.4 280 290 280 C290 256.9 290 233.8 290 210 C286.7 210 283.4 210 280 210 C280 186.9 280 163.8 280 140 C276.7 140 273.4 140 270 140 C270 136.7 270 133.4 270 130 C266.7 130 263.4 130 260 130 C260 123.4 260 116.8 260 110 C256.7 110 253.4 110 250 110 C250 106.7 250 103.4 250 100 C246.7 100 243.4 100 240 100 C240 96.7 240 93.4 240 90 C236.7 90 233.4 90 230 90 C230 86.7 230 83.4 230 80 C226.7 80 223.4 80 220 80 C220 76.7 220 73.4 220 70 C216.7 70 213.4 70 210 70 C210 66.7 210 63.4 210 60 C203.4 60 196.8 60 190 60 C190 56.7 190 53.4 190 50 C183.4 50 176.8 50 170 50 C170 46.7 170 43.4 170 40 C160.1 40 150.2 40 140 40 C140 36.7 140 33.4 140 30 C120.2 30 100.4 30 80 30 C80 26.7 80 23.4 80 20 C47 20 14 20 -20 20 C-20 16.7 -20 13.4 -20 10 C-13.4 10 -6.8 10 0 10 C0 6.7 0 3.4 0 0 Z " fill="#AABEC2" transform="translate(600,320)"/>
<path d="M0 0 C9.9 0 19.8 0 30 0 C30 3.3 30 6.6 30 10 C33.3 10 36.6 10 40 10 C40 13.3 40 16.6 40 20 C43.3 20 46.6 20 50 20 C50 23.3 50 26.6 50 30 C56.6 30 63.2 30 70 30 C70 33.3 70 36.6 70 40 C76.6 40 83.2 40 90 40 C90 43.3 90 46.6 90 50 C96.6 50 103.2 50 110 50 C110 53.3 110 56.6 110 60 C116.6 60 123.2 60 130 60 C130 63.3 130 66.6 130 70 C133.3 70 136.6 70 140 70 C140 73.3 140 76.6 140 80 C133.4 80 126.8 80 120 80 C120 96.5 120 113 120 130 C116.7 130 113.4 130 110 130 C110 133.3 110 136.6 110 140 C106.7 140 103.4 140 100 140 C100 143.3 100 146.6 100 150 C93.4 150 86.8 150 80 150 C80 153.3 80 156.6 80 160 C76.7 160 73.4 160 70 160 C70 143.5 70 127 70 110 C66.7 110 63.4 110 60 110 C60 106.7 60 103.4 60 100 C56.7 100 53.4 100 50 100 C50 96.7 50 93.4 50 90 C26.9 90 3.8 90 -20 90 C-20 93.3 -20 96.6 -20 100 C-23.3 100 -26.6 100 -30 100 C-30 70.3 -30 40.6 -30 10 C-20.1 10 -10.2 10 0 10 C0 6.7 0 3.4 0 0 Z " fill="#AABEC2" transform="translate(820,970)"/>
<path d="M0 0 C6.6 0 13.2 0 20 0 C20 3.3 20 6.6 20 10 C23.3 10 26.6 10 30 10 C30 13.3 30 16.6 30 20 C33.3 20 36.6 20 40 20 C40 23.3 40 26.6 40 30 C43.3 30 46.6 30 50 30 C50 33.3 50 36.6 50 40 C53.3 40 56.6 40 60 40 C60 46.6 60 53.2 60 60 C63.3 60 66.6 60 70 60 C70 99.6 70 139.2 70 180 C66.7 180 63.4 180 60 180 C60 189.9 60 199.8 60 210 C56.7 210 53.4 210 50 210 C50 223.2 50 236.4 50 250 C36.8 250 23.6 250 10 250 C10 246.7 10 243.4 10 240 C0.1 240 -9.8 240 -20 240 C-20 236.7 -20 233.4 -20 230 C-33.2 230 -46.4 230 -60 230 C-60 226.7 -60 223.4 -60 220 C-63.3 220 -66.6 220 -70 220 C-70 216.7 -70 213.4 -70 210 C-60.1 210 -50.2 210 -40 210 C-40 206.7 -40 203.4 -40 200 C-33.4 200 -26.8 200 -20 200 C-20 196.7 -20 193.4 -20 190 C-16.7 190 -13.4 190 -10 190 C-10 186.7 -10 183.4 -10 180 C-6.7 180 -3.4 180 0 180 C0 176.7 0 173.4 0 170 C3.3 170 6.6 170 10 170 C10 166.7 10 163.4 10 160 C13.3 160 16.6 160 20 160 C20 153.4 20 146.8 20 140 C23.3 140 26.6 140 30 140 C30 126.8 30 113.6 30 100 C33.3 100 36.6 100 40 100 C40 86.8 40 73.6 40 60 C36.7 60 33.4 60 30 60 C30 53.4 30 46.8 30 40 C26.7 40 23.4 40 20 40 C20 33.4 20 26.8 20 20 C16.7 20 13.4 20 10 20 C10 16.7 10 13.4 10 10 C6.7 10 3.4 10 0 10 C0 6.7 0 3.4 0 0 Z " fill="#5D2C2D" transform="translate(1020,80)"/>
<path d="M0 0 C3.3 0 6.6 0 10 0 C10 6.6 10 13.2 10 20 C13.3 20 16.6 20 20 20 C20 26.6 20 33.2 20 40 C23.3 40 26.6 40 30 40 C30 30.1 30 20.2 30 10 C36.6 10 43.2 10 50 10 C50 6.7 50 3.4 50 0 C63.2 0 76.4 0 90 0 C90 3.3 90 6.6 90 10 C93.3 10 96.6 10 100 10 C100 13.3 100 16.6 100 20 C103.3 20 106.6 20 110 20 C110 33.2 110 46.4 110 60 C106.7 60 103.4 60 100 60 C100 66.6 100 73.2 100 80 C106.6 80 113.2 80 120 80 C120 76.7 120 73.4 120 70 C126.6 70 133.2 70 140 70 C140 76.6 140 83.2 140 90 C136.7 90 133.4 90 130 90 C130 93.3 130 96.6 130 100 C133.3 100 136.6 100 140 100 C140 103.3 140 106.6 140 110 C130.1 110 120.2 110 110 110 C110 106.7 110 103.4 110 100 C103.4 100 96.8 100 90 100 C90 96.7 90 93.4 90 90 C83.4 90 76.8 90 70 90 C70 93.3 70 96.6 70 100 C73.3 100 76.6 100 80 100 C80 103.3 80 106.6 80 110 C83.3 110 86.6 110 90 110 C90 113.3 90 116.6 90 120 C93.3 120 96.6 120 100 120 C100 123.3 100 126.6 100 130 C93.4 130 86.8 130 80 130 C80 136.6 80 143.2 80 150 C76.7 150 73.4 150 70 150 C70 146.7 70 143.4 70 140 C66.7 140 63.4 140 60 140 C60 130.1 60 120.2 60 110 C53.4 110 46.8 110 40 110 C40 103.4 40 96.8 40 90 C36.7 90 33.4 90 30 90 C30 86.7 30 83.4 30 80 C20.1 80 10.2 80 0 80 C0 76.7 0 73.4 0 70 C-9.9 70 -19.8 70 -30 70 C-30 66.7 -30 63.4 -30 60 C-33.3 60 -36.6 60 -40 60 C-40 56.7 -40 53.4 -40 50 C-36.7 50 -33.4 50 -30 50 C-30 46.7 -30 43.4 -30 40 C-26.7 40 -23.4 40 -20 40 C-20 43.3 -20 46.6 -20 50 C-13.4 50 -6.8 50 0 50 C0 43.4 0 36.8 0 30 C-6.6 30 -13.2 30 -20 30 C-20 26.7 -20 23.4 -20 20 C-16.7 20 -13.4 20 -10 20 C-10 16.7 -10 13.4 -10 10 C-6.7 10 -3.4 10 0 10 C0 6.7 0 3.4 0 0 Z " fill="#F2F2DA" transform="translate(860,80)"/>
<path d="M0 0 C13.2 0 26.4 0 40 0 C40 42.9 40 85.8 40 130 C46.6 130 53.2 130 60 130 C60 87.1 60 44.2 60 0 C69.9 0 79.8 0 90 0 C90 6.6 90 13.2 90 20 C93.3 20 96.6 20 100 20 C100 56.3 100 92.6 100 130 C96.7 130 93.4 130 90 130 C90 136.6 90 143.2 90 150 C60.3 150 30.6 150 0 150 C0 100.5 0 51 0 0 Z " fill="#A35DD9" transform="translate(300,760)"/>
<path d="M0 0 C23.1 0 46.2 0 70 0 C70 6.6 70 13.2 70 20 C73.3 20 76.6 20 80 20 C80 62.9 80 105.8 80 150 C53.6 150 27.2 150 0 150 C0 100.5 0 51 0 0 Z " fill="#A35DD9" transform="translate(680,760)"/>
<path d="M0 0 C19.8 0 39.6 0 60 0 C60 3.3 60 6.6 60 10 C43.5 10 27 10 10 10 C10 29.8 10 49.6 10 70 C13.3 70 16.6 70 20 70 C20 76.6 20 83.2 20 90 C23.3 90 26.6 90 30 90 C30 96.6 30 103.2 30 110 C33.3 110 36.6 110 40 110 C40 116.6 40 123.2 40 130 C43.3 130 46.6 130 50 130 C50 133.3 50 136.6 50 140 C56.6 140 63.2 140 70 140 C70 143.3 70 146.6 70 150 C66.7 150 63.4 150 60 150 C60 153.3 60 156.6 60 160 C73.2 160 86.4 160 100 160 C100 169.9 100 179.8 100 190 C96.7 190 93.4 190 90 190 C90 193.3 90 196.6 90 200 C86.7 200 83.4 200 80 200 C80 206.6 80 213.2 80 220 C76.7 220 73.4 220 70 220 C70 223.3 70 226.6 70 230 C63.4 230 56.8 230 50 230 C50 233.3 50 236.6 50 240 C43.4 240 36.8 240 30 240 C30 243.3 30 246.6 30 250 C23.4 250 16.8 250 10 250 C10 243.4 10 236.8 10 230 C6.7 230 3.4 230 0 230 C0 154.1 0 78.2 0 0 Z " fill="#869FA9" transform="translate(980,710)"/>
<path d="M0 0 C13.2 0 26.4 0 40 0 C40 23.1 40 46.2 40 70 C46.6 70 53.2 70 60 70 C60 46.9 60 23.8 60 0 C66.6 0 73.2 0 80 0 C80 6.6 80 13.2 80 20 C83.3 20 86.6 20 90 20 C90 62.9 90 105.8 90 150 C83.4 150 76.8 150 70 150 C70 143.4 70 136.8 70 130 C66.7 130 63.4 130 60 130 C60 120.1 60 110.2 60 100 C53.4 100 46.8 100 40 100 C40 116.5 40 133 40 150 C26.8 150 13.6 150 0 150 C0 100.5 0 51 0 0 Z " fill="#A35DD9" transform="translate(100,760)"/>
<path d="M0 0 C23.1 0 46.2 0 70 0 C70 6.6 70 13.2 70 20 C73.3 20 76.6 20 80 20 C80 62.9 80 105.8 80 150 C73.4 150 66.8 150 60 150 C60 143.4 60 136.8 60 130 C56.7 130 53.4 130 50 130 C50 120.1 50 110.2 50 100 C43.4 100 36.8 100 30 100 C30 116.5 30 133 30 150 C20.1 150 10.2 150 0 150 C0 100.5 0 51 0 0 Z " fill="#A35DD9" transform="translate(210,760)"/>
<path d="M0 0 C13.2 0 26.4 0 40 0 C40 3.3 40 6.6 40 10 C46.6 10 53.2 10 60 10 C60 13.3 60 16.6 60 20 C66.6 20 73.2 20 80 20 C80 23.3 80 26.6 80 30 C83.3 30 86.6 30 90 30 C90 33.3 90 36.6 90 40 C93.3 40 96.6 40 100 40 C100 43.3 100 46.6 100 50 C103.3 50 106.6 50 110 50 C110 53.3 110 56.6 110 60 C113.3 60 116.6 60 120 60 C120 63.3 120 66.6 120 70 C123.3 70 126.6 70 130 70 C130 73.3 130 76.6 130 80 C133.3 80 136.6 80 140 80 C140 83.3 140 86.6 140 90 C143.3 90 146.6 90 150 90 C150 93.3 150 96.6 150 100 C156.6 100 163.2 100 170 100 C170 103.3 170 106.6 170 110 C173.3 110 176.6 110 180 110 C180 113.3 180 116.6 180 120 C183.3 120 186.6 120 190 120 C190 123.3 190 126.6 190 130 C193.3 130 196.6 130 200 130 C200 133.3 200 136.6 200 140 C206.6 140 213.2 140 220 140 C220 143.3 220 146.6 220 150 C223.3 150 226.6 150 230 150 C230 153.3 230 156.6 230 160 C236.6 160 243.2 160 250 160 C250 163.3 250 166.6 250 170 C263.2 170 276.4 170 290 170 C290 173.3 290 176.6 290 180 C299.9 180 309.8 180 320 180 C320 183.3 320 186.6 320 190 C329.9 190 339.8 190 350 190 C350 199.9 350 209.8 350 220 C340.1 220 330.2 220 320 220 C320 216.7 320 213.4 320 210 C310.1 210 300.2 210 290 210 C290 206.7 290 203.4 290 200 C280.1 200 270.2 200 260 200 C260 196.7 260 193.4 260 190 C250.1 190 240.2 190 230 190 C230 186.7 230 183.4 230 180 C223.4 180 216.8 180 210 180 C210 176.7 210 173.4 210 170 C203.4 170 196.8 170 190 170 C190 166.7 190 163.4 190 160 C186.7 160 183.4 160 180 160 C180 156.7 180 153.4 180 150 C176.7 150 173.4 150 170 150 C170 146.7 170 143.4 170 140 C166.7 140 163.4 140 160 140 C160 136.7 160 133.4 160 130 C156.7 130 153.4 130 150 130 C150 126.7 150 123.4 150 120 C146.7 120 143.4 120 140 120 C140 116.7 140 113.4 140 110 C136.7 110 133.4 110 130 110 C130 106.7 130 103.4 130 100 C126.7 100 123.4 100 120 100 C120 96.7 120 93.4 120 90 C116.7 90 113.4 90 110 90 C110 86.7 110 83.4 110 80 C106.7 80 103.4 80 100 80 C100 76.7 100 73.4 100 70 C96.7 70 93.4 70 90 70 C90 66.7 90 63.4 90 60 C86.7 60 83.4 60 80 60 C80 56.7 80 53.4 80 50 C76.7 50 73.4 50 70 50 C70 46.7 70 43.4 70 40 C63.4 40 56.8 40 50 40 C50 36.7 50 33.4 50 30 C46.7 30 43.4 30 40 30 C40 26.7 40 23.4 40 20 C30.1 20 20.2 20 10 20 C10 16.7 10 13.4 10 10 C6.7 10 3.4 10 0 10 C0 6.7 0 3.4 0 0 Z " fill="#FFB938" transform="translate(710,140)"/>
<path d="M0 0 C23.1 0 46.2 0 70 0 C70 6.6 70 13.2 70 20 C73.3 20 76.6 20 80 20 C80 62.9 80 105.8 80 150 C73.4 150 66.8 150 60 150 C60 143.4 60 136.8 60 130 C56.7 130 53.4 130 50 130 C50 100.3 50 70.6 50 40 C43.4 40 36.8 40 30 40 C30 76.3 30 112.6 30 150 C20.1 150 10.2 150 0 150 C0 100.5 0 51 0 0 Z " fill="#A35DD9" transform="translate(410,760)"/>
<path d="M0 0 C3.3 0 6.6 0 10 0 C10 3.3 10 6.6 10 10 C13.3 10 16.6 10 20 10 C20 13.3 20 16.6 20 20 C16.7 20 13.4 20 10 20 C10 23.3 10 26.6 10 30 C6.7 30 3.4 30 0 30 C0 33.3 0 36.6 0 40 C-3.3 40 -6.6 40 -10 40 C-10 43.3 -10 46.6 -10 50 C-13.3 50 -16.6 50 -20 50 C-20 53.3 -20 56.6 -20 60 C-23.3 60 -26.6 60 -30 60 C-30 63.3 -30 66.6 -30 70 C-36.6 70 -43.2 70 -50 70 C-50 73.3 -50 76.6 -50 80 C-66.5 80 -83 80 -100 80 C-100 76.7 -100 73.4 -100 70 C-106.6 70 -113.2 70 -120 70 C-120 66.7 -120 63.4 -120 60 C-123.3 60 -126.6 60 -130 60 C-130 56.7 -130 53.4 -130 50 C-133.3 50 -136.6 50 -140 50 C-140 46.7 -140 43.4 -140 40 C-143.3 40 -146.6 40 -150 40 C-150 30.1 -150 20.2 -150 10 C-100.5 10 -51 10 0 10 C0 6.7 0 3.4 0 0 Z " fill="#869FA9" transform="translate(690,1160)"/>
<path d="M0 0 C19.8 0 39.6 0 60 0 C60 6.6 60 13.2 60 20 C63.3 20 66.6 20 70 20 C70 26.6 70 33.2 70 40 C56.8 40 43.6 40 30 40 C30 49.9 30 59.8 30 70 C39.9 70 49.8 70 60 70 C60 79.9 60 89.8 60 100 C50.1 100 40.2 100 30 100 C30 109.9 30 119.8 30 130 C36.6 130 43.2 130 50 130 C50 123.4 50 116.8 50 110 C56.6 110 63.2 110 70 110 C70 123.2 70 136.4 70 150 C46.9 150 23.8 150 0 150 C0 100.5 0 51 0 0 Z " fill="#A35DD9" transform="translate(600,760)"/>
<path d="M0 0 C52.8 0 105.6 0 160 0 C160 3.3 160 6.6 160 10 C163.3 10 166.6 10 170 10 C170 13.3 170 16.6 170 20 C176.6 20 183.2 20 190 20 C190 23.3 190 26.6 190 30 C193.3 30 196.6 30 200 30 C200 33.3 200 36.6 200 40 C203.3 40 206.6 40 210 40 C210 43.3 210 46.6 210 50 C213.3 50 216.6 50 220 50 C220 53.3 220 56.6 220 60 C223.3 60 226.6 60 230 60 C230 63.3 230 66.6 230 70 C233.3 70 236.6 70 240 70 C240 76.6 240 83.2 240 90 C236.7 90 233.4 90 230 90 C230 86.7 230 83.4 230 80 C226.7 80 223.4 80 220 80 C220 76.7 220 73.4 220 70 C216.7 70 213.4 70 210 70 C210 66.7 210 63.4 210 60 C206.7 60 203.4 60 200 60 C200 56.7 200 53.4 200 50 C193.4 50 186.8 50 180 50 C180 46.7 180 43.4 180 40 C173.4 40 166.8 40 160 40 C160 36.7 160 33.4 160 30 C156.7 30 153.4 30 150 30 C150 26.7 150 23.4 150 20 C133.5 20 117 20 100 20 C100 16.7 100 13.4 100 10 C76.9 10 53.8 10 30 10 C30 13.3 30 16.6 30 20 C13.5 20 -3 20 -20 20 C-20 23.3 -20 26.6 -20 30 C-26.6 30 -33.2 30 -40 30 C-40 33.3 -40 36.6 -40 40 C-26.8 40 -13.6 40 0 40 C0 43.3 0 46.6 0 50 C3.3 50 6.6 50 10 50 C10 53.3 10 56.6 10 60 C6.7 60 3.4 60 0 60 C0 63.3 0 66.6 0 70 C-9.9 70 -19.8 70 -30 70 C-30 73.3 -30 76.6 -30 80 C-33.3 80 -36.6 80 -40 80 C-40 83.3 -40 86.6 -40 90 C-43.3 90 -46.6 90 -50 90 C-50 86.7 -50 83.4 -50 80 C-53.3 80 -56.6 80 -60 80 C-60 73.4 -60 66.8 -60 60 C-63.3 60 -66.6 60 -70 60 C-70 53.4 -70 46.8 -70 40 C-66.7 40 -63.4 40 -60 40 C-60 36.7 -60 33.4 -60 30 C-56.7 30 -53.4 30 -50 30 C-50 26.7 -50 23.4 -50 20 C-43.4 20 -36.8 20 -30 20 C-30 16.7 -30 13.4 -30 10 C-20.1 10 -10.2 10 0 10 C0 6.7 0 3.4 0 0 Z " fill="#AB5130" transform="translate(590,160)"/>
<path d="M0 0 C16.5 0 33 0 50 0 C50 3.3 50 6.6 50 10 C53.3 10 56.6 10 60 10 C60 13.3 60 16.6 60 20 C66.6 20 73.2 20 80 20 C80 23.3 80 26.6 80 30 C83.3 30 86.6 30 90 30 C90 33.3 90 36.6 90 40 C93.3 40 96.6 40 100 40 C100 49.9 100 59.8 100 70 C96.7 70 93.4 70 90 70 C90 73.3 90 76.6 90 80 C83.4 80 76.8 80 70 80 C70 76.7 70 73.4 70 70 C66.7 70 63.4 70 60 70 C60 66.7 60 63.4 60 60 C56.7 60 53.4 60 50 60 C50 56.7 50 53.4 50 50 C33.5 50 17 50 0 50 C0 53.3 0 56.6 0 60 C-3.3 60 -6.6 60 -10 60 C-10 63.3 -10 66.6 -10 70 C-13.3 70 -16.6 70 -20 70 C-20 73.3 -20 76.6 -20 80 C-26.6 80 -33.2 80 -40 80 C-40 76.7 -40 73.4 -40 70 C-43.3 70 -46.6 70 -50 70 C-50 63.4 -50 56.8 -50 50 C-46.7 50 -43.4 50 -40 50 C-40 43.4 -40 36.8 -40 30 C-36.7 30 -33.4 30 -30 30 C-30 26.7 -30 23.4 -30 20 C-26.7 20 -23.4 20 -20 20 C-20 16.7 -20 13.4 -20 10 C-13.4 10 -6.8 10 0 10 C0 6.7 0 3.4 0 0 Z " fill="#21181B" transform="translate(620,630)"/>
<path d="M0 0 C26.4 0 52.8 0 80 0 C80 6.6 80 13.2 80 20 C83.3 20 86.6 20 90 20 C90 26.6 90 33.2 90 40 C80.1 40 70.2 40 60 40 C60 76.3 60 112.6 60 150 C50.1 150 40.2 150 30 150 C30 113.7 30 77.4 30 40 C20.1 40 10.2 40 0 40 C0 26.8 0 13.6 0 0 Z " fill="#A35DD9" transform="translate(500,760)"/>
<path d="M0 0 C9.9 0 19.8 0 30 0 C30 3.3 30 6.6 30 10 C36.6 10 43.2 10 50 10 C50 13.3 50 16.6 50 20 C53.3 20 56.6 20 60 20 C60 23.3 60 26.6 60 30 C53.4 30 46.8 30 40 30 C40 46.5 40 63 40 80 C36.7 80 33.4 80 30 80 C30 83.3 30 86.6 30 90 C26.7 90 23.4 90 20 90 C20 93.3 20 96.6 20 100 C13.4 100 6.8 100 0 100 C0 103.3 0 106.6 0 110 C-3.3 110 -6.6 110 -10 110 C-10 93.5 -10 77 -10 60 C-13.3 60 -16.6 60 -20 60 C-20 56.7 -20 53.4 -20 50 C-23.3 50 -26.6 50 -30 50 C-30 46.7 -30 43.4 -30 40 C-39.9 40 -49.8 40 -60 40 C-60 36.7 -60 33.4 -60 30 C-46.8 30 -33.6 30 -20 30 C-20 26.7 -20 23.4 -20 20 C-16.7 20 -13.4 20 -10 20 C-10 16.7 -10 13.4 -10 10 C-6.7 10 -3.4 10 0 10 C0 6.7 0 3.4 0 0 Z " fill="#869FA9" transform="translate(900,1020)"/>
<path d="M0 0 C3.3 0 6.6 0 10 0 C10 3.3 10 6.6 10 10 C16.6 10 23.2 10 30 10 C30 13.3 30 16.6 30 20 C43.2 20 56.4 20 70 20 C70 23.3 70 26.6 70 30 C79.9 30 89.8 30 100 30 C100 33.3 100 36.6 100 40 C109.9 40 119.8 40 130 40 C130 49.9 130 59.8 130 70 C120.1 70 110.2 70 100 70 C100 66.7 100 63.4 100 60 C90.1 60 80.2 60 70 60 C70 56.7 70 53.4 70 50 C60.1 50 50.2 50 40 50 C40 46.7 40 43.4 40 40 C30.1 40 20.2 40 10 40 C10 36.7 10 33.4 10 30 C3.4 30 -3.2 30 -10 30 C-10 26.7 -10 23.4 -10 20 C-16.6 20 -23.2 20 -30 20 C-30 16.7 -30 13.4 -30 10 C-20.1 10 -10.2 10 0 10 C0 6.7 0 3.4 0 0 Z " fill="#E69B22" transform="translate(930,290)"/>
<path d="M0 0 C3.3 0 6.6 0 10 0 C10 3.3 10 6.6 10 10 C13.3 10 16.6 10 20 10 C20 13.3 20 16.6 20 20 C23.3 20 26.6 20 30 20 C30 23.3 30 26.6 30 30 C33.3 30 36.6 30 40 30 C40 36.6 40 43.2 40 50 C43.3 50 46.6 50 50 50 C50 59.9 50 69.8 50 80 C53.3 80 56.6 80 60 80 C60 96.5 60 113 60 130 C79.8 130 99.6 130 120 130 C120 133.3 120 136.6 120 140 C93.6 140 67.2 140 40 140 C40 120.2 40 100.4 40 80 C36.7 80 33.4 80 30 80 C30 73.4 30 66.8 30 60 C26.7 60 23.4 60 20 60 C20 50.1 20 40.2 20 30 C16.7 30 13.4 30 10 30 C10 26.7 10 23.4 10 20 C6.7 20 3.4 20 0 20 C0 13.4 0 6.8 0 0 Z " fill="#869FA9" transform="translate(880,420)"/>
<path d="M0 0 C3.3 0 6.6 0 10 0 C10 3.3 10 6.6 10 10 C16.6 10 23.2 10 30 10 C30 13.3 30 16.6 30 20 C36.6 20 43.2 20 50 20 C50 23.3 50 26.6 50 30 C56.6 30 63.2 30 70 30 C70 33.3 70 36.6 70 40 C73.3 40 76.6 40 80 40 C80 43.3 80 46.6 80 50 C83.3 50 86.6 50 90 50 C90 53.3 90 56.6 90 60 C96.6 60 103.2 60 110 60 C110 63.3 110 66.6 110 70 C113.3 70 116.6 70 120 70 C120 73.3 120 76.6 120 80 C123.3 80 126.6 80 130 80 C130 83.3 130 86.6 130 90 C123.4 90 116.8 90 110 90 C110 96.6 110 103.2 110 110 C106.7 110 103.4 110 100 110 C100 106.7 100 103.4 100 100 C96.7 100 93.4 100 90 100 C90 90.1 90 80.2 90 70 C83.4 70 76.8 70 70 70 C70 63.4 70 56.8 70 50 C66.7 50 63.4 50 60 50 C60 46.7 60 43.4 60 40 C50.1 40 40.2 40 30 40 C30 36.7 30 33.4 30 30 C20.1 30 10.2 30 0 30 C0 26.7 0 23.4 0 20 C-3.3 20 -6.6 20 -10 20 C-10 16.7 -10 13.4 -10 10 C-6.7 10 -3.4 10 0 10 C0 6.7 0 3.4 0 0 Z " fill="#F2F2DA" transform="translate(830,120)"/>
<path d="M0 0 C3.3 0 6.6 0 10 0 C10 26.4 10 52.8 10 80 C-13.1 80 -36.2 80 -60 80 C-60 83.3 -60 86.6 -60 90 C-63.3 90 -66.6 90 -70 90 C-70 80.1 -70 70.2 -70 60 C-60.1 60 -50.2 60 -40 60 C-40 56.7 -40 53.4 -40 50 C-33.4 50 -26.8 50 -20 50 C-20 46.7 -20 43.4 -20 40 C-16.7 40 -13.4 40 -10 40 C-10 36.7 -10 33.4 -10 30 C-6.7 30 -3.4 30 0 30 C0 20.1 0 10.2 0 0 Z " fill="#AABEC2" transform="translate(680,980)"/>
<path d="M0 0 C3.3 0 6.6 0 10 0 C10 29.7 10 59.4 10 90 C3.4 90 -3.2 90 -10 90 C-10 86.7 -10 83.4 -10 80 C-16.6 80 -23.2 80 -30 80 C-30 73.4 -30 66.8 -30 60 C-33.3 60 -36.6 60 -40 60 C-40 56.7 -40 53.4 -40 50 C-36.7 50 -33.4 50 -30 50 C-30 43.4 -30 36.8 -30 30 C-26.7 30 -23.4 30 -20 30 C-20 26.7 -20 23.4 -20 20 C-16.7 20 -13.4 20 -10 20 C-10 16.7 -10 13.4 -10 10 C-6.7 10 -3.4 10 0 10 C0 6.7 0 3.4 0 0 Z " fill="#AABEC2" transform="translate(930,870)"/>
<path d="M0 0 C19.8 0 39.6 0 60 0 C60 3.3 60 6.6 60 10 C43.5 10 27 10 10 10 C10 82.6 10 155.2 10 230 C6.7 230 3.4 230 0 230 C0 154.1 0 78.2 0 0 Z " fill="#F5FFE8" transform="translate(980,710)"/>
<path d="M0 0 C19.8 0 39.6 0 60 0 C60 75.9 60 151.8 60 230 C56.7 230 53.4 230 50 230 C50 157.4 50 84.8 50 10 C33.5 10 17 10 0 10 C0 6.7 0 3.4 0 0 Z " fill="#F5FFE8" transform="translate(890,710)"/>
<path d="M0 0 C3.3 0 6.6 0 10 0 C10 9.9 10 19.8 10 30 C6.7 30 3.4 30 0 30 C0 36.6 0 43.2 0 50 C-3.3 50 -6.6 50 -10 50 C-10 53.3 -10 56.6 -10 60 C-13.3 60 -16.6 60 -20 60 C-20 63.3 -20 66.6 -20 70 C-23.3 70 -26.6 70 -30 70 C-30 73.3 -30 76.6 -30 80 C-33.3 80 -36.6 80 -40 80 C-40 83.3 -40 86.6 -40 90 C-43.3 90 -46.6 90 -50 90 C-50 93.3 -50 96.6 -50 100 C-56.6 100 -63.2 100 -70 100 C-70 96.7 -70 93.4 -70 90 C-76.6 90 -83.2 90 -90 90 C-90 83.4 -90 76.8 -90 70 C-83.4 70 -76.8 70 -70 70 C-70 73.3 -70 76.6 -70 80 C-63.4 80 -56.8 80 -50 80 C-50 76.7 -50 73.4 -50 70 C-46.7 70 -43.4 70 -40 70 C-40 66.7 -40 63.4 -40 60 C-36.7 60 -33.4 60 -30 60 C-30 56.7 -30 53.4 -30 50 C-26.7 50 -23.4 50 -20 50 C-20 43.4 -20 36.8 -20 30 C-16.7 30 -13.4 30 -10 30 C-10 23.4 -10 16.8 -10 10 C-6.7 10 -3.4 10 0 10 C0 6.7 0 3.4 0 0 Z " fill="#21181B" transform="translate(1110,950)"/>
<path d="M0 0 C3.3 0 6.6 0 10 0 C10 9.9 10 19.8 10 30 C13.3 30 16.6 30 20 30 C20 39.9 20 49.8 20 60 C23.3 60 26.6 60 30 60 C30 66.6 30 73.2 30 80 C33.3 80 36.6 80 40 80 C40 86.6 40 93.2 40 100 C43.3 100 46.6 100 50 100 C50 106.6 50 113.2 50 120 C53.3 120 56.6 120 60 120 C60 123.3 60 126.6 60 130 C53.4 130 46.8 130 40 130 C40 126.7 40 123.4 40 120 C36.7 120 33.4 120 30 120 C30 113.4 30 106.8 30 100 C26.7 100 23.4 100 20 100 C20 93.4 20 86.8 20 80 C16.7 80 13.4 80 10 80 C10 73.4 10 66.8 10 60 C6.7 60 3.4 60 0 60 C0 40.2 0 20.4 0 0 Z " fill="#21181B" transform="translate(990,720)"/>
<path d="M0 0 C3.3 0 6.6 0 10 0 C10 3.3 10 6.6 10 10 C13.3 10 16.6 10 20 10 C20 16.6 20 23.2 20 30 C23.3 30 26.6 30 30 30 C30 72.9 30 115.8 30 160 C26.7 160 23.4 160 20 160 C20 123.7 20 87.4 20 50 C16.7 50 13.4 50 10 50 C10 46.7 10 43.4 10 40 C6.7 40 3.4 40 0 40 C0 26.8 0 13.6 0 0 Z " fill="#AABEC2" transform="translate(390,930)"/>
<path d="M0 0 C3.3 0 6.6 0 10 0 C10 6.6 10 13.2 10 20 C13.3 20 16.6 20 20 20 C20 26.6 20 33.2 20 40 C23.3 40 26.6 40 30 40 C30 49.9 30 59.8 30 70 C26.7 70 23.4 70 20 70 C20 76.6 20 83.2 20 90 C16.7 90 13.4 90 10 90 C10 96.6 10 103.2 10 110 C6.7 110 3.4 110 0 110 C0 73.7 0 37.4 0 0 Z " fill="#AABEC2" transform="translate(990,810)"/>
<path d="M0 0 C13.2 0 26.4 0 40 0 C40 3.3 40 6.6 40 10 C43.3 10 46.6 10 50 10 C50 13.3 50 16.6 50 20 C46.7 20 43.4 20 40 20 C40 23.3 40 26.6 40 30 C30.1 30 20.2 30 10 30 C10 33.3 10 36.6 10 40 C6.7 40 3.4 40 0 40 C0 43.3 0 46.6 0 50 C-3.3 50 -6.6 50 -10 50 C-10 46.7 -10 43.4 -10 40 C-13.3 40 -16.6 40 -20 40 C-20 33.4 -20 26.8 -20 20 C-16.7 20 -13.4 20 -10 20 C-10 16.7 -10 13.4 -10 10 C-6.7 10 -3.4 10 0 10 C0 6.7 0 3.4 0 0 Z " fill="#BF765B" transform="translate(550,200)"/>
<path d="M0 0 C3.3 0 6.6 0 10 0 C10 6.6 10 13.2 10 20 C6.7 20 3.4 20 0 20 C0 26.6 0 33.2 0 40 C-3.3 40 -6.6 40 -10 40 C-10 43.3 -10 46.6 -10 50 C-13.3 50 -16.6 50 -20 50 C-20 53.3 -20 56.6 -20 60 C-23.3 60 -26.6 60 -30 60 C-30 63.3 -30 66.6 -30 70 C-36.6 70 -43.2 70 -50 70 C-50 66.7 -50 63.4 -50 60 C-56.6 60 -63.2 60 -70 60 C-70 56.7 -70 53.4 -70 50 C-63.4 50 -56.8 50 -50 50 C-50 46.7 -50 43.4 -50 40 C-43.4 40 -36.8 40 -30 40 C-30 36.7 -30 33.4 -30 30 C-26.7 30 -23.4 30 -20 30 C-20 26.7 -20 23.4 -20 20 C-16.7 20 -13.4 20 -10 20 C-10 16.7 -10 13.4 -10 10 C-6.7 10 -3.4 10 0 10 C0 6.7 0 3.4 0 0 Z " fill="#869FA9" transform="translate(1090,960)"/>
<path d="M0 0 C6.6 0 13.2 0 20 0 C20 29.7 20 59.4 20 90 C13.4 90 6.8 90 0 90 C0 60.3 0 30.6 0 0 Z " fill="#21181B" transform="translate(710,800)"/>
<path d="M0 0 C6.6 0 13.2 0 20 0 C20 3.3 20 6.6 20 10 C23.3 10 26.6 10 30 10 C30 13.3 30 16.6 30 20 C33.3 20 36.6 20 40 20 C40 23.3 40 26.6 40 30 C43.3 30 46.6 30 50 30 C50 33.3 50 36.6 50 40 C53.3 40 56.6 40 60 40 C60 46.6 60 53.2 60 60 C63.3 60 66.6 60 70 60 C70 79.8 70 99.6 70 120 C66.7 120 63.4 120 60 120 C60 103.5 60 87 60 70 C56.7 70 53.4 70 50 70 C50 63.4 50 56.8 50 50 C46.7 50 43.4 50 40 50 C40 46.7 40 43.4 40 40 C36.7 40 33.4 40 30 40 C30 36.7 30 33.4 30 30 C26.7 30 23.4 30 20 30 C20 26.7 20 23.4 20 20 C16.7 20 13.4 20 10 20 C10 16.7 10 13.4 10 10 C6.7 10 3.4 10 0 10 C0 6.7 0 3.4 0 0 Z " fill="#AB5130" transform="translate(1100,390)"/>
<path d="M0 0 C52.8 0 105.6 0 160 0 C160 3.3 160 6.6 160 10 C107.2 10 54.4 10 0 10 C0 6.7 0 3.4 0 0 Z " fill="#C40C2E" transform="translate(710,1140)"/>
<path d="M0 0 C52.8 0 105.6 0 160 0 C160 3.3 160 6.6 160 10 C107.2 10 54.4 10 0 10 C0 6.7 0 3.4 0 0 Z " fill="#C40C2E" transform="translate(530,1140)"/>
<path d="M0 0 C49.5 0 99 0 150 0 C150 3.3 150 6.6 150 10 C100.5 10 51 10 0 10 C0 6.7 0 3.4 0 0 Z " fill="#C40C2E" transform="translate(330,1140)"/>
<path d="M0 0 C9.9 0 19.8 0 30 0 C30 23.1 30 46.2 30 70 C26.7 70 23.4 70 20 70 C20 63.4 20 56.8 20 50 C16.7 50 13.4 50 10 50 C10 36.8 10 23.6 10 10 C6.7 10 3.4 10 0 10 C0 6.7 0 3.4 0 0 Z " fill="#AABEC2" transform="translate(910,720)"/>
<path d="M0 0 C13.2 0 26.4 0 40 0 C40 6.6 40 13.2 40 20 C36.7 20 33.4 20 30 20 C30 26.6 30 33.2 30 40 C26.7 40 23.4 40 20 40 C20 36.7 20 33.4 20 30 C16.7 30 13.4 30 10 30 C10 26.7 10 23.4 10 20 C6.7 20 3.4 20 0 20 C0 13.4 0 6.8 0 0 Z " fill="#AABEC2" transform="translate(480,950)"/>
<path d="M0 0 C3.3 0 6.6 0 10 0 C10 6.6 10 13.2 10 20 C13.3 20 16.6 20 20 20 C20 29.9 20 39.8 20 50 C13.4 50 6.8 50 0 50 C0 43.4 0 36.8 0 30 C-6.6 30 -13.2 30 -20 30 C-20 26.7 -20 23.4 -20 20 C-16.7 20 -13.4 20 -10 20 C-10 16.7 -10 13.4 -10 10 C-6.7 10 -3.4 10 0 10 C0 6.7 0 3.4 0 0 Z " fill="#F2F2DA" transform="translate(860,80)"/>
<path d="M0 0 C29.7 0 59.4 0 90 0 C90 3.3 90 6.6 90 10 C60.3 10 30.6 10 0 10 C0 6.7 0 3.4 0 0 Z " fill="#4E278C" transform="translate(300,910)"/>
<path d="M0 0 C3.3 0 6.6 0 10 0 C10 3.3 10 6.6 10 10 C26.5 10 43 10 60 10 C60 13.3 60 16.6 60 20 C33.6 20 7.2 20 -20 20 C-20 16.7 -20 13.4 -20 10 C-13.4 10 -6.8 10 0 10 C0 6.7 0 3.4 0 0 Z " fill="#F5FFE8" transform="translate(1000,660)"/>
<path d="M0 0 C3.3 0 6.6 0 10 0 C10 3.3 10 6.6 10 10 C16.6 10 23.2 10 30 10 C30 13.3 30 16.6 30 20 C3.6 20 -22.8 20 -50 20 C-50 16.7 -50 13.4 -50 10 C-33.5 10 -17 10 0 10 C0 6.7 0 3.4 0 0 Z " fill="#F5FFE8" transform="translate(920,660)"/>
<path d="M0 0 C9.9 0 19.8 0 30 0 C30 9.9 30 19.8 30 30 C20.1 30 10.2 30 0 30 C0 20.1 0 10.2 0 0 Z " fill="#21181B" transform="translate(950,600)"/>
<path d="M0 0 C16.5 0 33 0 50 0 C50 3.3 50 6.6 50 10 C46.7 10 43.4 10 40 10 C40 13.3 40 16.6 40 20 C30.1 20 20.2 20 10 20 C10 16.7 10 13.4 10 10 C6.7 10 3.4 10 0 10 C0 6.7 0 3.4 0 0 Z " fill="#AABEC2" transform="translate(570,1170)"/>
<path d="M0 0 C9.9 0 19.8 0 30 0 C30 3.3 30 6.6 30 10 C33.3 10 36.6 10 40 10 C40 13.3 40 16.6 40 20 C23.5 20 7 20 -10 20 C-10 16.7 -10 13.4 -10 10 C-6.7 10 -3.4 10 0 10 C0 6.7 0 3.4 0 0 Z " fill="#AABEC2" transform="translate(710,940)"/>
<path d="M0 0 C26.4 0 52.8 0 80 0 C80 3.3 80 6.6 80 10 C53.6 10 27.2 10 0 10 C0 6.7 0 3.4 0 0 Z " fill="#4E278C" transform="translate(680,910)"/>
<path d="M0 0 C3.3 0 6.6 0 10 0 C10 3.3 10 6.6 10 10 C16.6 10 23.2 10 30 10 C30 13.3 30 16.6 30 20 C23.4 20 16.8 20 10 20 C10 33.2 10 46.4 10 60 C6.7 60 3.4 60 0 60 C0 40.2 0 20.4 0 0 Z " fill="#F5FFE8" transform="translate(1110,870)"/>
<path d="M0 0 C3.3 0 6.6 0 10 0 C10 19.8 10 39.6 10 60 C6.7 60 3.4 60 0 60 C0 46.8 0 33.6 0 20 C-6.6 20 -13.2 20 -20 20 C-20 16.7 -20 13.4 -20 10 C-13.4 10 -6.8 10 0 10 C0 6.7 0 3.4 0 0 Z " fill="#F5FFE8" transform="translate(810,870)"/>
<path d="M0 0 C16.5 0 33 0 50 0 C50 3.3 50 6.6 50 10 C56.6 10 63.2 10 70 10 C70 13.3 70 16.6 70 20 C60.1 20 50.2 20 40 20 C40 16.7 40 13.4 40 10 C26.8 10 13.6 10 0 10 C0 6.7 0 3.4 0 0 Z " fill="#AB5130" transform="translate(1030,370)"/>
<path d="M0 0 C23.1 0 46.2 0 70 0 C70 3.3 70 6.6 70 10 C46.9 10 23.8 10 0 10 C0 6.7 0 3.4 0 0 Z " fill="#4E278C" transform="translate(600,910)"/>
<path d="M0 0 C3.3 0 6.6 0 10 0 C10 23.1 10 46.2 10 70 C6.7 70 3.4 70 0 70 C0 46.9 0 23.8 0 0 Z " fill="#F5FFE8" transform="translate(1020,580)"/>
<path d="M0 0 C3.3 0 6.6 0 10 0 C10 23.1 10 46.2 10 70 C6.7 70 3.4 70 0 70 C0 46.9 0 23.8 0 0 Z " fill="#F5FFE8" transform="translate(900,580)"/>
<path d="M0 0 C23.1 0 46.2 0 70 0 C70 3.3 70 6.6 70 10 C46.9 10 23.8 10 0 10 C0 6.7 0 3.4 0 0 Z " fill="#F5FFE8" transform="translate(930,550)"/>
<path d="M0 0 C19.8 0 39.6 0 60 0 C60 3.3 60 6.6 60 10 C40.2 10 20.4 10 0 10 C0 6.7 0 3.4 0 0 Z " fill="#C40C2E" transform="translate(140,1140)"/>
<path d="M0 0 C13.2 0 26.4 0 40 0 C40 9.9 40 19.8 40 30 C36.7 30 33.4 30 30 30 C30 23.4 30 16.8 30 10 C20.1 10 10.2 10 0 10 C0 6.7 0 3.4 0 0 Z " fill="#F5FFE8" transform="translate(1040,870)"/>
<path d="M0 0 C13.2 0 26.4 0 40 0 C40 3.3 40 6.6 40 10 C30.1 10 20.2 10 10 10 C10 16.6 10 23.2 10 30 C6.7 30 3.4 30 0 30 C0 20.1 0 10.2 0 0 Z " fill="#F5FFE8" transform="translate(850,870)"/>
<path d="M0 0 C6.6 0 13.2 0 20 0 C20 9.9 20 19.8 20 30 C13.4 30 6.8 30 0 30 C0 20.1 0 10.2 0 0 Z " fill="#21181B" transform="translate(240,800)"/>
<path d="M0 0 C3.3 0 6.6 0 10 0 C10 19.8 10 39.6 10 60 C6.7 60 3.4 60 0 60 C0 40.2 0 20.4 0 0 Z " fill="#AB5130" transform="translate(500,250)"/>
<path d="M0 0 C3.3 0 6.6 0 10 0 C10 6.6 10 13.2 10 20 C13.3 20 16.6 20 20 20 C20 23.3 20 26.6 20 30 C13.4 30 6.8 30 0 30 C0 26.7 0 23.4 0 20 C-6.6 20 -13.2 20 -20 20 C-20 16.7 -20 13.4 -20 10 C-13.4 10 -6.8 10 0 10 C0 6.7 0 3.4 0 0 Z " fill="#869FA9" transform="translate(880,120)"/>
<path d="M0 0 C16.5 0 33 0 50 0 C50 3.3 50 6.6 50 10 C33.5 10 17 10 0 10 C0 6.7 0 3.4 0 0 Z " fill="#C40C2E" transform="translate(200,1090)"/>
<path d="M0 0 C9.9 0 19.8 0 30 0 C30 3.3 30 6.6 30 10 C23.4 10 16.8 10 10 10 C10 16.6 10 23.2 10 30 C6.7 30 3.4 30 0 30 C0 20.1 0 10.2 0 0 Z " fill="#FF7070" transform="translate(720,990)"/>
<path d="M0 0 C9.9 0 19.8 0 30 0 C30 3.3 30 6.6 30 10 C23.4 10 16.8 10 10 10 C10 16.6 10 23.2 10 30 C6.7 30 3.4 30 0 30 C0 20.1 0 10.2 0 0 Z " fill="#FF7070" transform="translate(540,990)"/>
<path d="M0 0 C9.9 0 19.8 0 30 0 C30 3.3 30 6.6 30 10 C23.4 10 16.8 10 10 10 C10 16.6 10 23.2 10 30 C6.7 30 3.4 30 0 30 C0 20.1 0 10.2 0 0 Z " fill="#FF7070" transform="translate(340,990)"/>
<path d="M0 0 C9.9 0 19.8 0 30 0 C30 3.3 30 6.6 30 10 C23.4 10 16.8 10 10 10 C10 16.6 10 23.2 10 30 C6.7 30 3.4 30 0 30 C0 20.1 0 10.2 0 0 Z " fill="#FF7070" transform="translate(150,990)"/>
<path d="M0 0 C3.3 0 6.6 0 10 0 C10 3.3 10 6.6 10 10 C13.3 10 16.6 10 20 10 C20 13.3 20 16.6 20 20 C16.7 20 13.4 20 10 20 C10 23.3 10 26.6 10 30 C6.7 30 3.4 30 0 30 C0 26.7 0 23.4 0 20 C-3.3 20 -6.6 20 -10 20 C-10 16.7 -10 13.4 -10 10 C-6.7 10 -3.4 10 0 10 C0 6.7 0 3.4 0 0 Z " fill="#FAD937" transform="translate(790,170)"/>
<path d="M0 0 C13.2 0 26.4 0 40 0 C40 3.3 40 6.6 40 10 C26.8 10 13.6 10 0 10 C0 6.7 0 3.4 0 0 Z " fill="#C40C2E" transform="translate(270,1140)"/>
<path d="M0 0 C3.3 0 6.6 0 10 0 C10 13.2 10 26.4 10 40 C6.7 40 3.4 40 0 40 C0 26.8 0 13.6 0 0 Z " fill="#869FA9" transform="translate(410,1050)"/>
<path d="M0 0 C13.2 0 26.4 0 40 0 C40 3.3 40 6.6 40 10 C26.8 10 13.6 10 0 10 C0 6.7 0 3.4 0 0 Z " fill="#4E278C" transform="translate(100,910)"/>
<path d="M0 0 C13.2 0 26.4 0 40 0 C40 3.3 40 6.6 40 10 C26.8 10 13.6 10 0 10 C0 6.7 0 3.4 0 0 Z " fill="#4E278C" transform="translate(630,800)"/>
<path d="M0 0 C3.3 0 6.6 0 10 0 C10 13.2 10 26.4 10 40 C6.7 40 3.4 40 0 40 C0 26.8 0 13.6 0 0 Z " fill="#F5FFE8" transform="translate(1120,780)"/>
<path d="M0 0 C3.3 0 6.6 0 10 0 C10 13.2 10 26.4 10 40 C6.7 40 3.4 40 0 40 C0 26.8 0 13.6 0 0 Z " fill="#F5FFE8" transform="translate(800,780)"/>
<path d="M0 0 C6.6 0 13.2 0 20 0 C20 6.6 20 13.2 20 20 C13.4 20 6.8 20 0 20 C0 13.4 0 6.8 0 0 Z " fill="#AABEC2" transform="translate(900,650)"/>
<path d="M0 0 C13.2 0 26.4 0 40 0 C40 3.3 40 6.6 40 10 C26.8 10 13.6 10 0 10 C0 6.7 0 3.4 0 0 Z " fill="#869FA9" transform="translate(720,330)"/>
<path d="M0 0 C6.6 0 13.2 0 20 0 C20 6.6 20 13.2 20 20 C13.4 20 6.8 20 0 20 C0 13.4 0 6.8 0 0 Z " fill="#21181B" transform="translate(930,120)"/>
<path d="M0 0 C6.6 0 13.2 0 20 0 C20 6.6 20 13.2 20 20 C13.4 20 6.8 20 0 20 C0 13.4 0 6.8 0 0 Z " fill="#21181B" transform="translate(900,100)"/>
<path d="M0 0 C3.3 0 6.6 0 10 0 C10 6.6 10 13.2 10 20 C3.4 20 -3.2 20 -10 20 C-10 16.7 -10 13.4 -10 10 C-6.7 10 -3.4 10 0 10 C0 6.7 0 3.4 0 0 Z " fill="#869FA9" transform="translate(1090,960)"/>
<path d="M0 0 C3.3 0 6.6 0 10 0 C10 3.3 10 6.6 10 10 C13.3 10 16.6 10 20 10 C20 13.3 20 16.6 20 20 C13.4 20 6.8 20 0 20 C0 13.4 0 6.8 0 0 Z " fill="#F5FFE8" transform="translate(990,940)"/>
<path d="M0 0 C3.3 0 6.6 0 10 0 C10 6.6 10 13.2 10 20 C3.4 20 -3.2 20 -10 20 C-10 16.7 -10 13.4 -10 10 C-6.7 10 -3.4 10 0 10 C0 6.7 0 3.4 0 0 Z " fill="#F5FFE8" transform="translate(930,940)"/>
<path d="M0 0 C3.3 0 6.6 0 10 0 C10 9.9 10 19.8 10 30 C6.7 30 3.4 30 0 30 C0 20.1 0 10.2 0 0 Z " fill="#F5FFE8" transform="translate(1100,930)"/>
<path d="M0 0 C3.3 0 6.6 0 10 0 C10 9.9 10 19.8 10 30 C6.7 30 3.4 30 0 30 C0 20.1 0 10.2 0 0 Z " fill="#F5FFE8" transform="translate(820,930)"/>
<path d="M0 0 C9.9 0 19.8 0 30 0 C30 3.3 30 6.6 30 10 C20.1 10 10.2 10 0 10 C0 6.7 0 3.4 0 0 Z " fill="#4E278C" transform="translate(530,910)"/>
<path d="M0 0 C9.9 0 19.8 0 30 0 C30 3.3 30 6.6 30 10 C20.1 10 10.2 10 0 10 C0 6.7 0 3.4 0 0 Z " fill="#4E278C" transform="translate(410,910)"/>
<path d="M0 0 C9.9 0 19.8 0 30 0 C30 3.3 30 6.6 30 10 C20.1 10 10.2 10 0 10 C0 6.7 0 3.4 0 0 Z " fill="#4E278C" transform="translate(210,910)"/>
<path d="M0 0 C6.6 0 13.2 0 20 0 C20 6.6 20 13.2 20 20 C16.7 20 13.4 20 10 20 C10 16.7 10 13.4 10 10 C6.7 10 3.4 10 0 10 C0 6.7 0 3.4 0 0 Z " fill="#21181B" transform="translate(1050,880)"/>
<path d="M0 0 C9.9 0 19.8 0 30 0 C30 3.3 30 6.6 30 10 C20.1 10 10.2 10 0 10 C0 6.7 0 3.4 0 0 Z " fill="#4E278C" transform="translate(630,860)"/>
<path d="M0 0 C3.3 0 6.6 0 10 0 C10 9.9 10 19.8 10 30 C6.7 30 3.4 30 0 30 C0 20.1 0 10.2 0 0 Z " fill="#F5FFE8" transform="translate(1140,850)"/>
<path d="M0 0 C3.3 0 6.6 0 10 0 C10 9.9 10 19.8 10 30 C6.7 30 3.4 30 0 30 C0 20.1 0 10.2 0 0 Z " fill="#F5FFE8" transform="translate(780,850)"/>
<path d="M0 0 C3.3 0 6.6 0 10 0 C10 9.9 10 19.8 10 30 C6.7 30 3.4 30 0 30 C0 20.1 0 10.2 0 0 Z " fill="#F5FFE8" transform="translate(1130,820)"/>
<path d="M0 0 C3.3 0 6.6 0 10 0 C10 9.9 10 19.8 10 30 C6.7 30 3.4 30 0 30 C0 20.1 0 10.2 0 0 Z " fill="#F5FFE8" transform="translate(790,820)"/>
<path d="M0 0 C9.9 0 19.8 0 30 0 C30 3.3 30 6.6 30 10 C20.1 10 10.2 10 0 10 C0 6.7 0 3.4 0 0 Z " fill="#4E278C" transform="translate(560,800)"/>
<path d="M0 0 C9.9 0 19.8 0 30 0 C30 3.3 30 6.6 30 10 C20.1 10 10.2 10 0 10 C0 6.7 0 3.4 0 0 Z " fill="#4E278C" transform="translate(500,800)"/>
<path d="M0 0 C6.6 0 13.2 0 20 0 C20 3.3 20 6.6 20 10 C16.7 10 13.4 10 10 10 C10 13.3 10 16.6 10 20 C6.7 20 3.4 20 0 20 C0 13.4 0 6.8 0 0 Z " fill="#CA7EF2" transform="translate(690,770)"/>
<path d="M0 0 C6.6 0 13.2 0 20 0 C20 3.3 20 6.6 20 10 C16.7 10 13.4 10 10 10 C10 13.3 10 16.6 10 20 C6.7 20 3.4 20 0 20 C0 13.4 0 6.8 0 0 Z " fill="#CA7EF2" transform="translate(610,770)"/>
<path d="M0 0 C6.6 0 13.2 0 20 0 C20 3.3 20 6.6 20 10 C16.7 10 13.4 10 10 10 C10 13.3 10 16.6 10 20 C6.7 20 3.4 20 0 20 C0 13.4 0 6.8 0 0 Z " fill="#CA7EF2" transform="translate(510,770)"/>
<path d="M0 0 C6.6 0 13.2 0 20 0 C20 3.3 20 6.6 20 10 C16.7 10 13.4 10 10 10 C10 13.3 10 16.6 10 20 C6.7 20 3.4 20 0 20 C0 13.4 0 6.8 0 0 Z " fill="#CA7EF2" transform="translate(420,770)"/>
<path d="M0 0 C6.6 0 13.2 0 20 0 C20 3.3 20 6.6 20 10 C16.7 10 13.4 10 10 10 C10 13.3 10 16.6 10 20 C6.7 20 3.4 20 0 20 C0 13.4 0 6.8 0 0 Z " fill="#CA7EF2" transform="translate(310,770)"/>
<path d="M0 0 C6.6 0 13.2 0 20 0 C20 3.3 20 6.6 20 10 C16.7 10 13.4 10 10 10 C10 13.3 10 16.6 10 20 C6.7 20 3.4 20 0 20 C0 13.4 0 6.8 0 0 Z " fill="#CA7EF2" transform="translate(220,770)"/>
<path d="M0 0 C6.6 0 13.2 0 20 0 C20 3.3 20 6.6 20 10 C16.7 10 13.4 10 10 10 C10 13.3 10 16.6 10 20 C6.7 20 3.4 20 0 20 C0 13.4 0 6.8 0 0 Z " fill="#CA7EF2" transform="translate(110,770)"/>
<path d="M0 0 C9.9 0 19.8 0 30 0 C30 3.3 30 6.6 30 10 C20.1 10 10.2 10 0 10 C0 6.7 0 3.4 0 0 Z " fill="#F5FFE8" transform="translate(950,630)"/>
<path d="M0 0 C3.3 0 6.6 0 10 0 C10 9.9 10 19.8 10 30 C6.7 30 3.4 30 0 30 C0 20.1 0 10.2 0 0 Z " fill="#F5FFE8" transform="translate(980,600)"/>
<path d="M0 0 C3.3 0 6.6 0 10 0 C10 9.9 10 19.8 10 30 C6.7 30 3.4 30 0 30 C0 20.1 0 10.2 0 0 Z " fill="#F5FFE8" transform="translate(940,600)"/>
<path d="M0 0 C9.9 0 19.8 0 30 0 C30 3.3 30 6.6 30 10 C20.1 10 10.2 10 0 10 C0 6.7 0 3.4 0 0 Z " fill="#F5FFE8" transform="translate(950,590)"/>
<path d="M0 0 C9.9 0 19.8 0 30 0 C30 3.3 30 6.6 30 10 C20.1 10 10.2 10 0 10 C0 6.7 0 3.4 0 0 Z " fill="#AB5130" transform="translate(1000,360)"/>
<path d="M0 0 C9.9 0 19.8 0 30 0 C30 3.3 30 6.6 30 10 C20.1 10 10.2 10 0 10 C0 6.7 0 3.4 0 0 Z " fill="#21181B" transform="translate(1000,350)"/>
<path d="M0 0 C9.9 0 19.8 0 30 0 C30 3.3 30 6.6 30 10 C20.1 10 10.2 10 0 10 C0 6.7 0 3.4 0 0 Z " fill="#AB5130" transform="translate(970,350)"/>
<path d="M0 0 C9.9 0 19.8 0 30 0 C30 3.3 30 6.6 30 10 C20.1 10 10.2 10 0 10 C0 6.7 0 3.4 0 0 Z " fill="#21181B" transform="translate(970,340)"/>
<path d="M0 0 C9.9 0 19.8 0 30 0 C30 3.3 30 6.6 30 10 C20.1 10 10.2 10 0 10 C0 6.7 0 3.4 0 0 Z " fill="#21181B" transform="translate(940,330)"/>
<path d="M0 0 C9.9 0 19.8 0 30 0 C30 3.3 30 6.6 30 10 C20.1 10 10.2 10 0 10 C0 6.7 0 3.4 0 0 Z " fill="#869FA9" transform="translate(690,320)"/>
<path d="M0 0 C3.3 0 6.6 0 10 0 C10 9.9 10 19.8 10 30 C6.7 30 3.4 30 0 30 C0 20.1 0 10.2 0 0 Z " fill="#AB5130" transform="translate(510,220)"/>
<path d="M0 0 C6.6 0 13.2 0 20 0 C20 3.3 20 6.6 20 10 C16.7 10 13.4 10 10 10 C10 13.3 10 16.6 10 20 C6.7 20 3.4 20 0 20 C0 13.4 0 6.8 0 0 Z " fill="#FAD937" transform="translate(800,190)"/>
<path d="M0 0 C9.9 0 19.8 0 30 0 C30 3.3 30 6.6 30 10 C20.1 10 10.2 10 0 10 C0 6.7 0 3.4 0 0 Z " fill="#21181B" transform="translate(720,160)"/>
<path d="M0 0 C6.6 0 13.2 0 20 0 C20 3.3 20 6.6 20 10 C13.4 10 6.8 10 0 10 C0 6.7 0 3.4 0 0 Z " fill="#C40C2E" transform="translate(480,1120)"/>
<path d="M0 0 C6.6 0 13.2 0 20 0 C20 3.3 20 6.6 20 10 C13.4 10 6.8 10 0 10 C0 6.7 0 3.4 0 0 Z " fill="#C40C2E" transform="translate(250,1120)"/>
<path d="M0 0 C6.6 0 13.2 0 20 0 C20 3.3 20 6.6 20 10 C13.4 10 6.8 10 0 10 C0 6.7 0 3.4 0 0 Z " fill="#F5FFE8" transform="translate(980,1030)"/>
<path d="M0 0 C6.6 0 13.2 0 20 0 C20 3.3 20 6.6 20 10 C13.4 10 6.8 10 0 10 C0 6.7 0 3.4 0 0 Z " fill="#F5FFE8" transform="translate(930,1030)"/>
<path d="M0 0 C6.6 0 13.2 0 20 0 C20 3.3 20 6.6 20 10 C13.4 10 6.8 10 0 10 C0 6.7 0 3.4 0 0 Z " fill="#F5FFE8" transform="translate(1000,1020)"/>
<path d="M0 0 C6.6 0 13.2 0 20 0 C20 3.3 20 6.6 20 10 C13.4 10 6.8 10 0 10 C0 6.7 0 3.4 0 0 Z " fill="#F5FFE8" transform="translate(910,1020)"/>
<path d="M0 0 C6.6 0 13.2 0 20 0 C20 3.3 20 6.6 20 10 C13.4 10 6.8 10 0 10 C0 6.7 0 3.4 0 0 Z " fill="#F5FFE8" transform="translate(1020,1010)"/>
<path d="M0 0 C6.6 0 13.2 0 20 0 C20 3.3 20 6.6 20 10 C13.4 10 6.8 10 0 10 C0 6.7 0 3.4 0 0 Z " fill="#F5FFE8" transform="translate(890,1010)"/>
<path d="M0 0 C6.6 0 13.2 0 20 0 C20 3.3 20 6.6 20 10 C13.4 10 6.8 10 0 10 C0 6.7 0 3.4 0 0 Z " fill="#F5FFE8" transform="translate(1040,1000)"/>
<path d="M0 0 C6.6 0 13.2 0 20 0 C20 3.3 20 6.6 20 10 C13.4 10 6.8 10 0 10 C0 6.7 0 3.4 0 0 Z " fill="#F5FFE8" transform="translate(870,1000)"/>
<path d="M0 0 C6.6 0 13.2 0 20 0 C20 3.3 20 6.6 20 10 C13.4 10 6.8 10 0 10 C0 6.7 0 3.4 0 0 Z " fill="#F5FFE8" transform="translate(1010,940)"/>
<path d="M0 0 C6.6 0 13.2 0 20 0 C20 3.3 20 6.6 20 10 C13.4 10 6.8 10 0 10 C0 6.7 0 3.4 0 0 Z " fill="#F5FFE8" transform="translate(900,940)"/>
<path d="M0 0 C6.6 0 13.2 0 20 0 C20 3.3 20 6.6 20 10 C13.4 10 6.8 10 0 10 C0 6.7 0 3.4 0 0 Z " fill="#F5FFE8" transform="translate(1030,930)"/>
<path d="M0 0 C6.6 0 13.2 0 20 0 C20 3.3 20 6.6 20 10 C13.4 10 6.8 10 0 10 C0 6.7 0 3.4 0 0 Z " fill="#F5FFE8" transform="translate(880,930)"/>
<path d="M0 0 C3.3 0 6.6 0 10 0 C10 6.6 10 13.2 10 20 C6.7 20 3.4 20 0 20 C0 13.4 0 6.8 0 0 Z " fill="#F5FFE8" transform="translate(1050,910)"/>
<path d="M0 0 C3.3 0 6.6 0 10 0 C10 6.6 10 13.2 10 20 C6.7 20 3.4 20 0 20 C0 13.4 0 6.8 0 0 Z " fill="#F5FFE8" transform="translate(870,910)"/>
<path d="M0 0 C6.6 0 13.2 0 20 0 C20 3.3 20 6.6 20 10 C13.4 10 6.8 10 0 10 C0 6.7 0 3.4 0 0 Z " fill="#4E278C" transform="translate(470,910)"/>
<path d="M0 0 C6.6 0 13.2 0 20 0 C20 3.3 20 6.6 20 10 C13.4 10 6.8 10 0 10 C0 6.7 0 3.4 0 0 Z " fill="#4E278C" transform="translate(270,910)"/>
<path d="M0 0 C6.6 0 13.2 0 20 0 C20 3.3 20 6.6 20 10 C13.4 10 6.8 10 0 10 C0 6.7 0 3.4 0 0 Z " fill="#4E278C" transform="translate(170,910)"/>
<path d="M0 0 C6.6 0 13.2 0 20 0 C20 3.3 20 6.6 20 10 C13.4 10 6.8 10 0 10 C0 6.7 0 3.4 0 0 Z " fill="#4E278C" transform="translate(240,860)"/>
<path d="M0 0 C6.6 0 13.2 0 20 0 C20 3.3 20 6.6 20 10 C13.4 10 6.8 10 0 10 C0 6.7 0 3.4 0 0 Z " fill="#4E278C" transform="translate(140,860)"/>
<path d="M0 0 C3.3 0 6.6 0 10 0 C10 6.6 10 13.2 10 20 C6.7 20 3.4 20 0 20 C0 13.4 0 6.8 0 0 Z " fill="#F5FFE8" transform="translate(1070,810)"/>
<path d="M0 0 C3.3 0 6.6 0 10 0 C10 6.6 10 13.2 10 20 C6.7 20 3.4 20 0 20 C0 13.4 0 6.8 0 0 Z " fill="#F5FFE8" transform="translate(850,810)"/>
<path d="M0 0 C6.6 0 13.2 0 20 0 C20 3.3 20 6.6 20 10 C13.4 10 6.8 10 0 10 C0 6.7 0 3.4 0 0 Z " fill="#4E278C" transform="translate(710,800)"/>
<path d="M0 0 C6.6 0 13.2 0 20 0 C20 3.3 20 6.6 20 10 C13.4 10 6.8 10 0 10 C0 6.7 0 3.4 0 0 Z " fill="#4E278C" transform="translate(440,800)"/>
<path d="M0 0 C6.6 0 13.2 0 20 0 C20 3.3 20 6.6 20 10 C13.4 10 6.8 10 0 10 C0 6.7 0 3.4 0 0 Z " fill="#4E278C" transform="translate(240,800)"/>
<path d="M0 0 C3.3 0 6.6 0 10 0 C10 6.6 10 13.2 10 20 C6.7 20 3.4 20 0 20 C0 13.4 0 6.8 0 0 Z " fill="#AABEC2" transform="translate(390,650)"/>
<path d="M0 0 C3.3 0 6.6 0 10 0 C10 6.6 10 13.2 10 20 C6.7 20 3.4 20 0 20 C0 13.4 0 6.8 0 0 Z " fill="#AABEC2" transform="translate(400,570)"/>
<path d="M0 0 C3.3 0 6.6 0 10 0 C10 6.6 10 13.2 10 20 C6.7 20 3.4 20 0 20 C0 13.4 0 6.8 0 0 Z " fill="#AABEC2" transform="translate(410,530)"/>
<path d="M0 0 C6.6 0 13.2 0 20 0 C20 3.3 20 6.6 20 10 C13.4 10 6.8 10 0 10 C0 6.7 0 3.4 0 0 Z " fill="#869FA9" transform="translate(760,340)"/>
<path d="M0 0 C6.6 0 13.2 0 20 0 C20 3.3 20 6.6 20 10 C13.4 10 6.8 10 0 10 C0 6.7 0 3.4 0 0 Z " fill="#21181B" transform="translate(920,320)"/>
<path d="M0 0 C6.6 0 13.2 0 20 0 C20 3.3 20 6.6 20 10 C13.4 10 6.8 10 0 10 C0 6.7 0 3.4 0 0 Z " fill="#21181B" transform="translate(900,310)"/>
<path d="M0 0 C3.3 0 6.6 0 10 0 C10 6.6 10 13.2 10 20 C6.7 20 3.4 20 0 20 C0 13.4 0 6.8 0 0 Z " fill="#AB5130" transform="translate(510,310)"/>
<path d="M0 0 C6.6 0 13.2 0 20 0 C20 3.3 20 6.6 20 10 C13.4 10 6.8 10 0 10 C0 6.7 0 3.4 0 0 Z " fill="#21181B" transform="translate(760,180)"/>
<path d="M0 0 C6.6 0 13.2 0 20 0 C20 3.3 20 6.6 20 10 C13.4 10 6.8 10 0 10 C0 6.7 0 3.4 0 0 Z " fill="#869FA9" transform="translate(810,140)"/>
<path d="M0 0 C3.3 0 6.6 0 10 0 C10 3.3 10 6.6 10 10 C6.7 10 3.4 10 0 10 C0 6.7 0 3.4 0 0 Z " fill="#F5FFE8" transform="translate(960,1050)"/>
<path d="M0 0 C3.3 0 6.6 0 10 0 C10 3.3 10 6.6 10 10 C6.7 10 3.4 10 0 10 C0 6.7 0 3.4 0 0 Z " fill="#F5FFE8" transform="translate(970,1040)"/>
<path d="M0 0 C3.3 0 6.6 0 10 0 C10 3.3 10 6.6 10 10 C6.7 10 3.4 10 0 10 C0 6.7 0 3.4 0 0 Z " fill="#F5FFE8" transform="translate(950,1040)"/>
<path d="M0 0 C3.3 0 6.6 0 10 0 C10 3.3 10 6.6 10 10 C6.7 10 3.4 10 0 10 C0 6.7 0 3.4 0 0 Z " fill="#F5FFE8" transform="translate(1060,990)"/>
<path d="M0 0 C3.3 0 6.6 0 10 0 C10 3.3 10 6.6 10 10 C6.7 10 3.4 10 0 10 C0 6.7 0 3.4 0 0 Z " fill="#F5FFE8" transform="translate(860,990)"/>
<path d="M0 0 C3.3 0 6.6 0 10 0 C10 3.3 10 6.6 10 10 C6.7 10 3.4 10 0 10 C0 6.7 0 3.4 0 0 Z " fill="#F5FFE8" transform="translate(1070,980)"/>
<path d="M0 0 C3.3 0 6.6 0 10 0 C10 3.3 10 6.6 10 10 C6.7 10 3.4 10 0 10 C0 6.7 0 3.4 0 0 Z " fill="#F5FFE8" transform="translate(850,980)"/>
<path d="M0 0 C3.3 0 6.6 0 10 0 C10 3.3 10 6.6 10 10 C6.7 10 3.4 10 0 10 C0 6.7 0 3.4 0 0 Z " fill="#F5FFE8" transform="translate(1080,970)"/>
<path d="M0 0 C3.3 0 6.6 0 10 0 C10 3.3 10 6.6 10 10 C6.7 10 3.4 10 0 10 C0 6.7 0 3.4 0 0 Z " fill="#F5FFE8" transform="translate(840,970)"/>
<path d="M0 0 C3.3 0 6.6 0 10 0 C10 3.3 10 6.6 10 10 C6.7 10 3.4 10 0 10 C0 6.7 0 3.4 0 0 Z " fill="#F5FFE8" transform="translate(1090,960)"/>
<path d="M0 0 C3.3 0 6.6 0 10 0 C10 3.3 10 6.6 10 10 C6.7 10 3.4 10 0 10 C0 6.7 0 3.4 0 0 Z " fill="#F5FFE8" transform="translate(830,960)"/>
<path d="M0 0 C3.3 0 6.6 0 10 0 C10 3.3 10 6.6 10 10 C6.7 10 3.4 10 0 10 C0 6.7 0 3.4 0 0 Z " fill="#AABEC2" transform="translate(690,960)"/>
<path d="M0 0 C3.3 0 6.6 0 10 0 C10 3.3 10 6.6 10 10 C6.7 10 3.4 10 0 10 C0 6.7 0 3.4 0 0 Z " fill="#F5FFE8" transform="translate(1060,900)"/>
<path d="M0 0 C3.3 0 6.6 0 10 0 C10 3.3 10 6.6 10 10 C6.7 10 3.4 10 0 10 C0 6.7 0 3.4 0 0 Z " fill="#F5FFE8" transform="translate(860,900)"/>
<path d="M0 0 C3.3 0 6.6 0 10 0 C10 3.3 10 6.6 10 10 C6.7 10 3.4 10 0 10 C0 6.7 0 3.4 0 0 Z " fill="#4E278C" transform="translate(460,890)"/>
<path d="M0 0 C3.3 0 6.6 0 10 0 C10 3.3 10 6.6 10 10 C6.7 10 3.4 10 0 10 C0 6.7 0 3.4 0 0 Z " fill="#4E278C" transform="translate(390,890)"/>
<path d="M0 0 C3.3 0 6.6 0 10 0 C10 3.3 10 6.6 10 10 C6.7 10 3.4 10 0 10 C0 6.7 0 3.4 0 0 Z " fill="#4E278C" transform="translate(260,890)"/>
<path d="M0 0 C3.3 0 6.6 0 10 0 C10 3.3 10 6.6 10 10 C6.7 10 3.4 10 0 10 C0 6.7 0 3.4 0 0 Z " fill="#4E278C" transform="translate(160,890)"/>
<path d="M0 0 C3.3 0 6.6 0 10 0 C10 3.3 10 6.6 10 10 C6.7 10 3.4 10 0 10 C0 6.7 0 3.4 0 0 Z " fill="#F5FFE8" transform="translate(1030,860)"/>
<path d="M0 0 C3.3 0 6.6 0 10 0 C10 3.3 10 6.6 10 10 C6.7 10 3.4 10 0 10 C0 6.7 0 3.4 0 0 Z " fill="#F5FFE8" transform="translate(890,860)"/>
<path d="M0 0 C3.3 0 6.6 0 10 0 C10 3.3 10 6.6 10 10 C6.7 10 3.4 10 0 10 C0 6.7 0 3.4 0 0 Z " fill="#F5FFE8" transform="translate(1040,850)"/>
<path d="M0 0 C3.3 0 6.6 0 10 0 C10 3.3 10 6.6 10 10 C6.7 10 3.4 10 0 10 C0 6.7 0 3.4 0 0 Z " fill="#F5FFE8" transform="translate(880,850)"/>
<path d="M0 0 C3.3 0 6.6 0 10 0 C10 3.3 10 6.6 10 10 C6.7 10 3.4 10 0 10 C0 6.7 0 3.4 0 0 Z " fill="#F5FFE8" transform="translate(1050,840)"/>
<path d="M0 0 C3.3 0 6.6 0 10 0 C10 3.3 10 6.6 10 10 C6.7 10 3.4 10 0 10 C0 6.7 0 3.4 0 0 Z " fill="#F5FFE8" transform="translate(870,840)"/>
<path d="M0 0 C3.3 0 6.6 0 10 0 C10 3.3 10 6.6 10 10 C6.7 10 3.4 10 0 10 C0 6.7 0 3.4 0 0 Z " fill="#F5FFE8" transform="translate(1060,830)"/>
<path d="M0 0 C3.3 0 6.6 0 10 0 C10 3.3 10 6.6 10 10 C6.7 10 3.4 10 0 10 C0 6.7 0 3.4 0 0 Z " fill="#F5FFE8" transform="translate(860,830)"/>
<path d="M0 0 C3.3 0 6.6 0 10 0 C10 3.3 10 6.6 10 10 C6.7 10 3.4 10 0 10 C0 6.7 0 3.4 0 0 Z " fill="#F5FFE8" transform="translate(1080,800)"/>
<path d="M0 0 C3.3 0 6.6 0 10 0 C10 3.3 10 6.6 10 10 C6.7 10 3.4 10 0 10 C0 6.7 0 3.4 0 0 Z " fill="#F5FFE8" transform="translate(840,800)"/>
<path d="M0 0 C3.3 0 6.6 0 10 0 C10 3.3 10 6.6 10 10 C6.7 10 3.4 10 0 10 C0 6.7 0 3.4 0 0 Z " fill="#F5FFE8" transform="translate(1090,790)"/>
<path d="M0 0 C3.3 0 6.6 0 10 0 C10 3.3 10 6.6 10 10 C6.7 10 3.4 10 0 10 C0 6.7 0 3.4 0 0 Z " fill="#F5FFE8" transform="translate(830,790)"/>
<path d="M0 0 C3.3 0 6.6 0 10 0 C10 3.3 10 6.6 10 10 C6.7 10 3.4 10 0 10 C0 6.7 0 3.4 0 0 Z " fill="#F5FFE8" transform="translate(1100,780)"/>
<path d="M0 0 C3.3 0 6.6 0 10 0 C10 3.3 10 6.6 10 10 C6.7 10 3.4 10 0 10 C0 6.7 0 3.4 0 0 Z " fill="#F5FFE8" transform="translate(820,780)"/>
<path d="M0 0 C3.3 0 6.6 0 10 0 C10 3.3 10 6.6 10 10 C6.7 10 3.4 10 0 10 C0 6.7 0 3.4 0 0 Z " fill="#F5FFE8" transform="translate(1110,770)"/>
<path d="M0 0 C3.3 0 6.6 0 10 0 C10 3.3 10 6.6 10 10 C6.7 10 3.4 10 0 10 C0 6.7 0 3.4 0 0 Z " fill="#F5FFE8" transform="translate(810,770)"/>
<path d="M0 0 C3.3 0 6.6 0 10 0 C10 3.3 10 6.6 10 10 C6.7 10 3.4 10 0 10 C0 6.7 0 3.4 0 0 Z " fill="#F5FFE8" transform="translate(1040,700)"/>
<path d="M0 0 C3.3 0 6.6 0 10 0 C10 3.3 10 6.6 10 10 C6.7 10 3.4 10 0 10 C0 6.7 0 3.4 0 0 Z " fill="#F5FFE8" transform="translate(880,700)"/>
<path d="M0 0 C3.3 0 6.6 0 10 0 C10 3.3 10 6.6 10 10 C6.7 10 3.4 10 0 10 C0 6.7 0 3.4 0 0 Z " fill="#F5FFE8" transform="translate(1050,690)"/>
<path d="M0 0 C3.3 0 6.6 0 10 0 C10 3.3 10 6.6 10 10 C6.7 10 3.4 10 0 10 C0 6.7 0 3.4 0 0 Z " fill="#F5FFE8" transform="translate(870,690)"/>
<path d="M0 0 C3.3 0 6.6 0 10 0 C10 3.3 10 6.6 10 10 C6.7 10 3.4 10 0 10 C0 6.7 0 3.4 0 0 Z " fill="#F5FFE8" transform="translate(1060,680)"/>
<path d="M0 0 C3.3 0 6.6 0 10 0 C10 3.3 10 6.6 10 10 C6.7 10 3.4 10 0 10 C0 6.7 0 3.4 0 0 Z " fill="#F5FFE8" transform="translate(860,680)"/>
<path d="M0 0 C3.3 0 6.6 0 10 0 C10 3.3 10 6.6 10 10 C6.7 10 3.4 10 0 10 C0 6.7 0 3.4 0 0 Z " fill="#F5FFE8" transform="translate(1010,650)"/>
<path d="M0 0 C3.3 0 6.6 0 10 0 C10 3.3 10 6.6 10 10 C6.7 10 3.4 10 0 10 C0 6.7 0 3.4 0 0 Z " fill="#F5FFE8" transform="translate(910,650)"/>
<path d="M0 0 C3.3 0 6.6 0 10 0 C10 3.3 10 6.6 10 10 C6.7 10 3.4 10 0 10 C0 6.7 0 3.4 0 0 Z " fill="#F5FFE8" transform="translate(1010,570)"/>
<path d="M0 0 C3.3 0 6.6 0 10 0 C10 3.3 10 6.6 10 10 C6.7 10 3.4 10 0 10 C0 6.7 0 3.4 0 0 Z " fill="#F5FFE8" transform="translate(910,570)"/>
<path d="M0 0 C3.3 0 6.6 0 10 0 C10 3.3 10 6.6 10 10 C6.7 10 3.4 10 0 10 C0 6.7 0 3.4 0 0 Z " fill="#F5FFE8" transform="translate(1000,560)"/>
<path d="M0 0 C3.3 0 6.6 0 10 0 C10 3.3 10 6.6 10 10 C6.7 10 3.4 10 0 10 C0 6.7 0 3.4 0 0 Z " fill="#F5FFE8" transform="translate(920,560)"/>
<path d="M0 0 C3.3 0 6.6 0 10 0 C10 3.3 10 6.6 10 10 C6.7 10 3.4 10 0 10 C0 6.7 0 3.4 0 0 Z " fill="#AABEC2" transform="translate(420,500)"/>
<path d="M0 0 C3.3 0 6.6 0 10 0 C10 3.3 10 6.6 10 10 C6.7 10 3.4 10 0 10 C0 6.7 0 3.4 0 0 Z " fill="#AABEC2" transform="translate(430,480)"/>
<path d="M0 0 C3.3 0 6.6 0 10 0 C10 3.3 10 6.6 10 10 C6.7 10 3.4 10 0 10 C0 6.7 0 3.4 0 0 Z " fill="#AABEC2" transform="translate(440,460)"/>
<path d="M0 0 C3.3 0 6.6 0 10 0 C10 3.3 10 6.6 10 10 C6.7 10 3.4 10 0 10 C0 6.7 0 3.4 0 0 Z " fill="#AABEC2" transform="translate(450,440)"/>
<path d="M0 0 C3.3 0 6.6 0 10 0 C10 3.3 10 6.6 10 10 C6.7 10 3.4 10 0 10 C0 6.7 0 3.4 0 0 Z " fill="#869FA9" transform="translate(870,410)"/>
<path d="M0 0 C3.3 0 6.6 0 10 0 C10 3.3 10 6.6 10 10 C6.7 10 3.4 10 0 10 C0 6.7 0 3.4 0 0 Z " fill="#869FA9" transform="translate(860,400)"/>
<path d="M0 0 C3.3 0 6.6 0 10 0 C10 3.3 10 6.6 10 10 C6.7 10 3.4 10 0 10 C0 6.7 0 3.4 0 0 Z " fill="#869FA9" transform="translate(850,390)"/>
<path d="M0 0 C3.3 0 6.6 0 10 0 C10 3.3 10 6.6 10 10 C6.7 10 3.4 10 0 10 C0 6.7 0 3.4 0 0 Z " fill="#869FA9" transform="translate(840,380)"/>
<path d="M0 0 C3.3 0 6.6 0 10 0 C10 3.3 10 6.6 10 10 C6.7 10 3.4 10 0 10 C0 6.7 0 3.4 0 0 Z " fill="#869FA9" transform="translate(820,370)"/>
<path d="M0 0 C3.3 0 6.6 0 10 0 C10 3.3 10 6.6 10 10 C6.7 10 3.4 10 0 10 C0 6.7 0 3.4 0 0 Z " fill="#AABEC2" transform="translate(520,370)"/>
<path d="M0 0 C3.3 0 6.6 0 10 0 C10 3.3 10 6.6 10 10 C6.7 10 3.4 10 0 10 C0 6.7 0 3.4 0 0 Z " fill="#869FA9" transform="translate(810,360)"/>
<path d="M0 0 C3.3 0 6.6 0 10 0 C10 3.3 10 6.6 10 10 C6.7 10 3.4 10 0 10 C0 6.7 0 3.4 0 0 Z " fill="#869FA9" transform="translate(790,350)"/>
<path d="M0 0 C3.3 0 6.6 0 10 0 C10 3.3 10 6.6 10 10 C6.7 10 3.4 10 0 10 C0 6.7 0 3.4 0 0 Z " fill="#AABEC2" transform="translate(540,350)"/>
<path d="M0 0 C3.3 0 6.6 0 10 0 C10 3.3 10 6.6 10 10 C6.7 10 3.4 10 0 10 C0 6.7 0 3.4 0 0 Z " fill="#AABEC2" transform="translate(560,340)"/>
<path d="M0 0 C3.3 0 6.6 0 10 0 C10 3.3 10 6.6 10 10 C6.7 10 3.4 10 0 10 C0 6.7 0 3.4 0 0 Z " fill="#21181B" transform="translate(890,300)"/>
<path d="M0 0 C3.3 0 6.6 0 10 0 C10 3.3 10 6.6 10 10 C6.7 10 3.4 10 0 10 C0 6.7 0 3.4 0 0 Z " fill="#21181B" transform="translate(880,290)"/>
<path d="M0 0 C3.3 0 6.6 0 10 0 C10 3.3 10 6.6 10 10 C6.7 10 3.4 10 0 10 C0 6.7 0 3.4 0 0 Z " fill="#21181B" transform="translate(870,280)"/>
<path d="M0 0 C3.3 0 6.6 0 10 0 C10 3.3 10 6.6 10 10 C6.7 10 3.4 10 0 10 C0 6.7 0 3.4 0 0 Z " fill="#21181B" transform="translate(860,270)"/>
<path d="M0 0 C3.3 0 6.6 0 10 0 C10 3.3 10 6.6 10 10 C6.7 10 3.4 10 0 10 C0 6.7 0 3.4 0 0 Z " fill="#21181B" transform="translate(850,260)"/>
<path d="M0 0 C3.3 0 6.6 0 10 0 C10 3.3 10 6.6 10 10 C6.7 10 3.4 10 0 10 C0 6.7 0 3.4 0 0 Z " fill="#21181B" transform="translate(840,250)"/>
<path d="M0 0 C3.3 0 6.6 0 10 0 C10 3.3 10 6.6 10 10 C6.7 10 3.4 10 0 10 C0 6.7 0 3.4 0 0 Z " fill="#21181B" transform="translate(830,240)"/>
<path d="M0 0 C3.3 0 6.6 0 10 0 C10 3.3 10 6.6 10 10 C6.7 10 3.4 10 0 10 C0 6.7 0 3.4 0 0 Z " fill="#AB5130" transform="translate(820,240)"/>
<path d="M0 0 C3.3 0 6.6 0 10 0 C10 3.3 10 6.6 10 10 C6.7 10 3.4 10 0 10 C0 6.7 0 3.4 0 0 Z " fill="#21181B" transform="translate(820,230)"/>
<path d="M0 0 C3.3 0 6.6 0 10 0 C10 3.3 10 6.6 10 10 C6.7 10 3.4 10 0 10 C0 6.7 0 3.4 0 0 Z " fill="#AB5130" transform="translate(810,230)"/>
<path d="M0 0 C3.3 0 6.6 0 10 0 C10 3.3 10 6.6 10 10 C6.7 10 3.4 10 0 10 C0 6.7 0 3.4 0 0 Z " fill="#21181B" transform="translate(810,220)"/>
<path d="M0 0 C3.3 0 6.6 0 10 0 C10 3.3 10 6.6 10 10 C6.7 10 3.4 10 0 10 C0 6.7 0 3.4 0 0 Z " fill="#AB5130" transform="translate(800,220)"/>
<path d="M0 0 C3.3 0 6.6 0 10 0 C10 3.3 10 6.6 10 10 C6.7 10 3.4 10 0 10 C0 6.7 0 3.4 0 0 Z " fill="#21181B" transform="translate(800,210)"/>
<path d="M0 0 C3.3 0 6.6 0 10 0 C10 3.3 10 6.6 10 10 C6.7 10 3.4 10 0 10 C0 6.7 0 3.4 0 0 Z " fill="#AB5130" transform="translate(790,210)"/>
<path d="M0 0 C3.3 0 6.6 0 10 0 C10 3.3 10 6.6 10 10 C6.7 10 3.4 10 0 10 C0 6.7 0 3.4 0 0 Z " fill="#7D3833" transform="translate(530,210)"/>
<path d="M0 0 C3.3 0 6.6 0 10 0 C10 3.3 10 6.6 10 10 C6.7 10 3.4 10 0 10 C0 6.7 0 3.4 0 0 Z " fill="#869FA9" transform="translate(930,200)"/>
<path d="M0 0 C3.3 0 6.6 0 10 0 C10 3.3 10 6.6 10 10 C6.7 10 3.4 10 0 10 C0 6.7 0 3.4 0 0 Z " fill="#21181B" transform="translate(790,200)"/>
<path d="M0 0 C3.3 0 6.6 0 10 0 C10 3.3 10 6.6 10 10 C6.7 10 3.4 10 0 10 C0 6.7 0 3.4 0 0 Z " fill="#7D3833" transform="translate(540,200)"/>
<path d="M0 0 C3.3 0 6.6 0 10 0 C10 3.3 10 6.6 10 10 C6.7 10 3.4 10 0 10 C0 6.7 0 3.4 0 0 Z " fill="#869FA9" transform="translate(910,190)"/>
<path d="M0 0 C3.3 0 6.6 0 10 0 C10 3.3 10 6.6 10 10 C6.7 10 3.4 10 0 10 C0 6.7 0 3.4 0 0 Z " fill="#FFFFFF" transform="translate(790,190)"/>
<path d="M0 0 C3.3 0 6.6 0 10 0 C10 3.3 10 6.6 10 10 C6.7 10 3.4 10 0 10 C0 6.7 0 3.4 0 0 Z " fill="#21181B" transform="translate(780,190)"/>
<path d="M0 0 C3.3 0 6.6 0 10 0 C10 3.3 10 6.6 10 10 C6.7 10 3.4 10 0 10 C0 6.7 0 3.4 0 0 Z " fill="#FFFFFF" transform="translate(800,180)"/>
<path d="M0 0 C3.3 0 6.6 0 10 0 C10 3.3 10 6.6 10 10 C6.7 10 3.4 10 0 10 C0 6.7 0 3.4 0 0 Z " fill="#869FA9" transform="translate(920,170)"/>
<path d="M0 0 C3.3 0 6.6 0 10 0 C10 3.3 10 6.6 10 10 C6.7 10 3.4 10 0 10 C0 6.7 0 3.4 0 0 Z " fill="#21181B" transform="translate(750,170)"/>
<path d="M0 0 C3.3 0 6.6 0 10 0 C10 3.3 10 6.6 10 10 C6.7 10 3.4 10 0 10 C0 6.7 0 3.4 0 0 Z " fill="#869FA9" transform="translate(930,160)"/>
<path d="M0 0 C3.3 0 6.6 0 10 0 C10 3.3 10 6.6 10 10 C6.7 10 3.4 10 0 10 C0 6.7 0 3.4 0 0 Z " fill="#F2F2DA" transform="translate(920,160)"/>
<path d="M0 0 C3.3 0 6.6 0 10 0 C10 3.3 10 6.6 10 10 C6.7 10 3.4 10 0 10 C0 6.7 0 3.4 0 0 Z " fill="#869FA9" transform="translate(910,160)"/>
<path d="M0 0 C3.3 0 6.6 0 10 0 C10 3.3 10 6.6 10 10 C6.7 10 3.4 10 0 10 C0 6.7 0 3.4 0 0 Z " fill="#869FA9" transform="translate(920,150)"/>
<path d="M0 0 C3.3 0 6.6 0 10 0 C10 3.3 10 6.6 10 10 C6.7 10 3.4 10 0 10 C0 6.7 0 3.4 0 0 Z " fill="#869FA9" transform="translate(900,150)"/>
<path d="M0 0 C3.3 0 6.6 0 10 0 C10 3.3 10 6.6 10 10 C6.7 10 3.4 10 0 10 C0 6.7 0 3.4 0 0 Z " fill="#869FA9" transform="translate(850,150)"/>
<path d="M0 0 C3.3 0 6.6 0 10 0 C10 3.3 10 6.6 10 10 C6.7 10 3.4 10 0 10 C0 6.7 0 3.4 0 0 Z " fill="#21181B" transform="translate(910,130)"/>
<path d="M0 0 C3.3 0 6.6 0 10 0 C10 3.3 10 6.6 10 10 C6.7 10 3.4 10 0 10 C0 6.7 0 3.4 0 0 Z " fill="#7D3833" transform="translate(860,130)"/>
<path d="M0 0 C3.3 0 6.6 0 10 0 C10 3.3 10 6.6 10 10 C6.7 10 3.4 10 0 10 C0 6.7 0 3.4 0 0 Z " fill="#5D2C2D" transform="translate(730,130)"/>
<path d="M0 0 C3.3 0 6.6 0 10 0 C10 3.3 10 6.6 10 10 C6.7 10 3.4 10 0 10 C0 6.7 0 3.4 0 0 Z " fill="#5D2C2D" transform="translate(740,120)"/>
<path d="M0 0 C3.3 0 6.6 0 10 0 C10 3.3 10 6.6 10 10 C6.7 10 3.4 10 0 10 C0 6.7 0 3.4 0 0 Z " fill="#5D2C2D" transform="translate(750,110)"/>
<path d="M0 0 C3.3 0 6.6 0 10 0 C10 3.3 10 6.6 10 10 C6.7 10 3.4 10 0 10 C0 6.7 0 3.4 0 0 Z " fill="#5D2C2D" transform="translate(760,100)"/>
</svg>
