<?xml version="1.0" encoding="UTF-8"?>
<svg version="1.1" xmlns="http://www.w3.org/2000/svg" width="1280" height="1280">
<path d="M0 0 C9.9 0 19.8 0 30 0 C30 3.3 30 6.6 30 10 C36.6 10 43.2 10 50 10 C50 13.3 50 16.6 50 20 C56.6 20 63.2 20 70 20 C70 23.3 70 26.6 70 30 C79.9 30 89.8 30 100 30 C100 33.3 100 36.6 100 40 C116.5 40 133 40 150 40 C150 43.3 150 46.6 150 50 C153.3 50 156.6 50 160 50 C160 53.3 160 56.6 160 60 C156.7 60 153.4 60 150 60 C150 63.3 150 66.6 150 70 C146.7 70 143.4 70 140 70 C140 73.3 140 76.6 140 80 C136.7 80 133.4 80 130 80 C130 83.3 130 86.6 130 90 C123.4 90 116.8 90 110 90 C110 93.3 110 96.6 110 100 C100.1 100 90.2 100 80 100 C80 103.3 80 106.6 80 110 C86.6 110 93.2 110 100 110 C100 113.3 100 116.6 100 120 C103.3 120 106.6 120 110 120 C110 123.3 110 126.6 110 130 C113.3 130 116.6 130 120 130 C120 133.3 120 136.6 120 140 C123.3 140 126.6 140 130 140 C130 143.3 130 146.6 130 150 C133.3 150 136.6 150 140 150 C140 156.6 140 163.2 140 170 C143.3 170 146.6 170 150 170 C150 193.1 150 216.2 150 240 C146.7 240 143.4 240 140 240 C140 282.9 140 325.8 140 370 C143.3 370 146.6 370 150 370 C150 379.9 150 389.8 150 400 C153.3 400 156.6 400 160 400 C160 406.6 160 413.2 160 420 C163.3 420 166.6 420 170 420 C170 426.6 170 433.2 170 440 C173.3 440 176.6 440 180 440 C180 443.3 180 446.6 180 450 C183.3 450 186.6 450 190 450 C190 456.6 190 463.2 190 470 C193.3 470 196.6 470 200 470 C200 476.6 200 483.2 200 490 C203.3 490 206.6 490 210 490 C210 496.6 210 503.2 210 510 C213.3 510 216.6 510 220 510 C220 516.6 220 523.2 220 530 C223.3 530 226.6 530 230 530 C230 536.6 230 543.2 230 550 C233.3 550 236.6 550 240 550 C240 559.9 240 569.8 240 580 C243.3 580 246.6 580 250 580 C250 593.2 250 606.4 250 620 C253.3 620 256.6 620 260 620 C260 692.6 260 765.2 260 840 C256.7 840 253.4 840 250 840 C250 849.9 250 859.8 250 870 C246.7 870 243.4 870 240 870 C240 876.6 240 883.2 240 890 C236.7 890 233.4 890 230 890 C230 896.6 230 903.2 230 910 C226.7 910 223.4 910 220 910 C220 916.6 220 923.2 220 930 C216.7 930 213.4 930 210 930 C210 936.6 210 943.2 210 950 C206.7 950 203.4 950 200 950 C200 956.6 200 963.2 200 970 C196.7 970 193.4 970 190 970 C190 976.6 190 983.2 190 990 C186.7 990 183.4 990 180 990 C180 996.6 180 1003.2 180 1010 C176.7 1010 173.4 1010 170 1010 C170 1013.3 170 1016.6 170 1020 C166.7 1020 163.4 1020 160 1020 C160 1023.3 160 1026.6 160 1030 C156.7 1030 153.4 1030 150 1030 C150 1033.3 150 1036.6 150 1040 C146.7 1040 143.4 1040 140 1040 C140 1043.3 140 1046.6 140 1050 C136.7 1050 133.4 1050 130 1050 C130 1053.3 130 1056.6 130 1060 C126.7 1060 123.4 1060 120 1060 C120 1063.3 120 1066.6 120 1070 C116.7 1070 113.4 1070 110 1070 C110 1073.3 110 1076.6 110 1080 C103.4 1080 96.8 1080 90 1080 C90 1083.3 90 1086.6 90 1090 C86.7 1090 83.4 1090 80 1090 C80 1093.3 80 1096.6 80 1100 C73.4 1100 66.8 1100 60 1100 C60 1103.3 60 1106.6 60 1110 C56.7 1110 53.4 1110 50 1110 C50 1113.3 50 1116.6 50 1120 C43.4 1120 36.8 1120 30 1120 C30 1123.3 30 1126.6 30 1130 C26.7 1130 23.4 1130 20 1130 C20 1133.3 20 1136.6 20 1140 C13.4 1140 6.8 1140 0 1140 C0 1143.3 0 1146.6 0 1150 C-9.9 1150 -19.8 1150 -30 1150 C-30 1153.3 -30 1156.6 -30 1160 C-39.9 1160 -49.8 1160 -60 1160 C-60 1163.3 -60 1166.6 -60 1170 C-69.9 1170 -79.8 1170 -90 1170 C-90 1173.3 -90 1176.6 -90 1180 C-103.2 1180 -116.4 1180 -130 1180 C-130 1183.3 -130 1186.6 -130 1190 C-199.3 1190 -268.6 1190 -340 1190 C-340 1186.7 -340 1183.4 -340 1180 C-353.2 1180 -366.4 1180 -380 1180 C-380 1176.7 -380 1173.4 -380 1170 C-389.9 1170 -399.8 1170 -410 1170 C-410 1166.7 -410 1163.4 -410 1160 C-416.6 1160 -423.2 1160 -430 1160 C-430 1156.7 -430 1153.4 -430 1150 C-436.6 1150 -443.2 1150 -450 1150 C-450 1146.7 -450 1143.4 -450 1140 C-456.6 1140 -463.2 1140 -470 1140 C-470 1136.7 -470 1133.4 -470 1130 C-476.6 1130 -483.2 1130 -490 1130 C-490 1126.7 -490 1123.4 -490 1120 C-496.6 1120 -503.2 1120 -510 1120 C-510 1116.7 -510 1113.4 -510 1110 C-513.3 1110 -516.6 1110 -520 1110 C-520 1106.7 -520 1103.4 -520 1100 C-523.3 1100 -526.6 1100 -530 1100 C-530 1096.7 -530 1093.4 -530 1090 C-533.3 1090 -536.6 1090 -540 1090 C-540 1086.7 -540 1083.4 -540 1080 C-543.3 1080 -546.6 1080 -550 1080 C-550 1076.7 -550 1073.4 -550 1070 C-553.3 1070 -556.6 1070 -560 1070 C-560 1066.7 -560 1063.4 -560 1060 C-563.3 1060 -566.6 1060 -570 1060 C-570 1056.7 -570 1053.4 -570 1050 C-573.3 1050 -576.6 1050 -580 1050 C-580 1046.7 -580 1043.4 -580 1040 C-583.3 1040 -586.6 1040 -590 1040 C-590 1033.4 -590 1026.8 -590 1020 C-593.3 1020 -596.6 1020 -600 1020 C-600 1016.7 -600 1013.4 -600 1010 C-603.3 1010 -606.6 1010 -610 1010 C-610 1003.4 -610 996.8 -610 990 C-619.9 990 -629.8 990 -640 990 C-640 986.7 -640 983.4 -640 980 C-643.3 980 -646.6 980 -650 980 C-650 976.7 -650 973.4 -650 970 C-653.3 970 -656.6 970 -660 970 C-660 966.7 -660 963.4 -660 960 C-669.9 960 -679.8 960 -690 960 C-690 963.3 -690 966.6 -690 970 C-693.3 970 -696.6 970 -700 970 C-700 973.3 -700 976.6 -700 980 C-703.3 980 -706.6 980 -710 980 C-710 983.3 -710 986.6 -710 990 C-726.5 990 -743 990 -760 990 C-760 986.7 -760 983.4 -760 980 C-763.3 980 -766.6 980 -770 980 C-770 976.7 -770 973.4 -770 970 C-773.3 970 -776.6 970 -780 970 C-780 966.7 -780 963.4 -780 960 C-783.3 960 -786.6 960 -790 960 C-790 956.7 -790 953.4 -790 950 C-793.3 950 -796.6 950 -800 950 C-800 940.1 -800 930.2 -800 920 C-796.7 920 -793.4 920 -790 920 C-790 913.4 -790 906.8 -790 900 C-786.7 900 -783.4 900 -780 900 C-780 863.7 -780 827.4 -780 790 C-783.3 790 -786.6 790 -790 790 C-790 786.7 -790 783.4 -790 780 C-793.3 780 -796.6 780 -800 780 C-800 773.4 -800 766.8 -800 760 C-796.7 760 -793.4 760 -790 760 C-790 756.7 -790 753.4 -790 750 C-793.3 750 -796.6 750 -800 750 C-800 743.4 -800 736.8 -800 730 C-796.7 730 -793.4 730 -790 730 C-790 726.7 -790 723.4 -790 720 C-786.7 720 -783.4 720 -780 720 C-780 713.4 -780 706.8 -780 700 C-783.3 700 -786.6 700 -790 700 C-790 696.7 -790 693.4 -790 690 C-793.3 690 -796.6 690 -800 690 C-800 680.1 -800 670.2 -800 660 C-796.7 660 -793.4 660 -790 660 C-790 633.6 -790 607.2 -790 580 C-793.3 580 -796.6 580 -800 580 C-800 573.4 -800 566.8 -800 560 C-796.7 560 -793.4 560 -790 560 C-790 556.7 -790 553.4 -790 550 C-793.3 550 -796.6 550 -800 550 C-800 546.7 -800 543.4 -800 540 C-796.7 540 -793.4 540 -790 540 C-790 536.7 -790 533.4 -790 530 C-786.7 530 -783.4 530 -780 530 C-780 526.7 -780 523.4 -780 520 C-776.7 520 -773.4 520 -770 520 C-770 513.4 -770 506.8 -770 500 C-773.3 500 -776.6 500 -780 500 C-780 496.7 -780 493.4 -780 490 C-783.3 490 -786.6 490 -790 490 C-790 486.7 -790 483.4 -790 480 C-793.3 480 -796.6 480 -800 480 C-800 476.7 -800 473.4 -800 470 C-803.3 470 -806.6 470 -810 470 C-810 453.5 -810 437 -810 420 C-806.7 420 -803.4 420 -800 420 C-800 416.7 -800 413.4 -800 410 C-796.7 410 -793.4 410 -790 410 C-790 403.4 -790 396.8 -790 390 C-793.3 390 -796.6 390 -800 390 C-800 383.4 -800 376.8 -800 370 C-803.3 370 -806.6 370 -810 370 C-810 346.9 -810 323.8 -810 300 C-806.7 300 -803.4 300 -800 300 C-800 296.7 -800 293.4 -800 290 C-796.7 290 -793.4 290 -790 290 C-790 286.7 -790 283.4 -790 280 C-786.7 280 -783.4 280 -780 280 C-780 276.7 -780 273.4 -780 270 C-776.7 270 -773.4 270 -770 270 C-770 266.7 -770 263.4 -770 260 C-766.7 260 -763.4 260 -760 260 C-760 256.7 -760 253.4 -760 250 C-756.7 250 -753.4 250 -750 250 C-750 246.7 -750 243.4 -750 240 C-746.7 240 -743.4 240 -740 240 C-740 236.7 -740 233.4 -740 230 C-707 230 -674 230 -640 230 C-640 233.3 -640 236.6 -640 240 C-636.7 240 -633.4 240 -630 240 C-630 243.3 -630 246.6 -630 250 C-626.7 250 -623.4 250 -620 250 C-620 253.3 -620 256.6 -620 260 C-613.4 260 -606.8 260 -600 260 C-600 256.7 -600 253.4 -600 250 C-596.7 250 -593.4 250 -590 250 C-590 246.7 -590 243.4 -590 240 C-586.7 240 -583.4 240 -580 240 C-580 236.7 -580 233.4 -580 230 C-530.5 230 -481 230 -430 230 C-430 233.3 -430 236.6 -430 240 C-426.7 240 -423.4 240 -420 240 C-420 243.3 -420 246.6 -420 250 C-416.7 250 -413.4 250 -410 250 C-410 253.3 -410 256.6 -410 260 C-406.7 260 -403.4 260 -400 260 C-400 263.3 -400 266.6 -400 270 C-396.7 270 -393.4 270 -390 270 C-390 273.3 -390 276.6 -390 280 C-386.7 280 -383.4 280 -380 280 C-380 276.7 -380 273.4 -380 270 C-376.7 270 -373.4 270 -370 270 C-370 266.7 -370 263.4 -370 260 C-366.7 260 -363.4 260 -360 260 C-360 256.7 -360 253.4 -360 250 C-356.7 250 -353.4 250 -350 250 C-350 246.7 -350 243.4 -350 240 C-346.7 240 -343.4 240 -340 240 C-340 236.7 -340 233.4 -340 230 C-320.2 230 -300.4 230 -280 230 C-280 233.3 -280 236.6 -280 240 C-276.7 240 -273.4 240 -270 240 C-270 243.3 -270 246.6 -270 250 C-266.7 250 -263.4 250 -260 250 C-260 253.3 -260 256.6 -260 260 C-256.7 260 -253.4 260 -250 260 C-250 263.3 -250 266.6 -250 270 C-246.7 270 -243.4 270 -240 270 C-240 273.3 -240 276.6 -240 280 C-236.7 280 -233.4 280 -230 280 C-230 283.3 -230 286.6 -230 290 C-226.7 290 -223.4 290 -220 290 C-220 293.3 -220 296.6 -220 300 C-216.7 300 -213.4 300 -210 300 C-210 306.6 -210 313.2 -210 320 C-206.7 320 -203.4 320 -200 320 C-200 326.6 -200 333.2 -200 340 C-196.7 340 -193.4 340 -190 340 C-190 336.7 -190 333.4 -190 330 C-186.7 330 -183.4 330 -180 330 C-180 326.7 -180 323.4 -180 320 C-176.7 320 -173.4 320 -170 320 C-170 316.7 -170 313.4 -170 310 C-166.7 310 -163.4 310 -160 310 C-160 306.7 -160 303.4 -160 300 C-156.7 300 -153.4 300 -150 300 C-150 293.4 -150 286.8 -150 280 C-146.7 280 -143.4 280 -140 280 C-140 273.4 -140 266.8 -140 260 C-136.7 260 -133.4 260 -130 260 C-130 250.1 -130 240.2 -130 230 C-126.7 230 -123.4 230 -120 230 C-120 223.4 -120 216.8 -120 210 C-116.7 210 -113.4 210 -110 210 C-110 200.1 -110 190.2 -110 180 C-106.7 180 -103.4 180 -100 180 C-100 170.1 -100 160.2 -100 150 C-96.7 150 -93.4 150 -90 150 C-90 143.4 -90 136.8 -90 130 C-86.7 130 -83.4 130 -80 130 C-80 123.4 -80 116.8 -80 110 C-76.7 110 -73.4 110 -70 110 C-70 106.7 -70 103.4 -70 100 C-66.7 100 -63.4 100 -60 100 C-60 96.7 -60 93.4 -60 90 C-56.7 90 -53.4 90 -50 90 C-50 83.4 -50 76.8 -50 70 C-46.7 70 -43.4 70 -40 70 C-40 63.4 -40 56.8 -40 50 C-36.7 50 -33.4 50 -30 50 C-30 43.4 -30 36.8 -30 30 C-26.7 30 -23.4 30 -20 30 C-20 26.7 -20 23.4 -20 20 C-16.7 20 -13.4 20 -10 20 C-10 16.7 -10 13.4 -10 10 C-6.7 10 -3.4 10 0 10 C0 6.7 0 3.4 0 0 Z " fill="#21181B" transform="translate(910,60)"/>
<path d="M0 0 C6.6 0 13.2 0 20 0 C20 9.9 20 19.8 20 30 C16.7 30 13.4 30 10 30 C10 46.5 10 63 10 80 C6.7 80 3.4 80 0 80 C0 89.9 0 99.8 0 110 C-3.3 110 -6.6 110 -10 110 C-10 119.9 -10 129.8 -10 140 C-13.3 140 -16.6 140 -20 140 C-20 146.6 -20 153.2 -20 160 C-23.3 160 -26.6 160 -30 160 C-30 166.6 -30 173.2 -30 180 C-33.3 180 -36.6 180 -40 180 C-40 189.9 -40 199.8 -40 210 C-43.3 210 -46.6 210 -50 210 C-50 246.3 -50 282.6 -50 320 C-46.7 320 -43.4 320 -40 320 C-40 329.9 -40 339.8 -40 350 C-36.7 350 -33.4 350 -30 350 C-30 356.6 -30 363.2 -30 370 C-26.7 370 -23.4 370 -20 370 C-20 376.6 -20 383.2 -20 390 C-16.7 390 -13.4 390 -10 390 C-10 393.3 -10 396.6 -10 400 C-6.7 400 -3.4 400 0 400 C0 403.3 0 406.6 0 410 C3.3 410 6.6 410 10 410 C10 413.3 10 416.6 10 420 C13.3 420 16.6 420 20 420 C20 423.3 20 426.6 20 430 C23.3 430 26.6 430 30 430 C30 433.3 30 436.6 30 440 C33.3 440 36.6 440 40 440 C40 443.3 40 446.6 40 450 C43.3 450 46.6 450 50 450 C50 453.3 50 456.6 50 460 C53.3 460 56.6 460 60 460 C60 463.3 60 466.6 60 470 C63.3 470 66.6 470 70 470 C70 473.3 70 476.6 70 480 C73.3 480 76.6 480 80 480 C80 486.6 80 493.2 80 500 C83.3 500 86.6 500 90 500 C90 539.6 90 579.2 90 620 C86.7 620 83.4 620 80 620 C80 629.9 80 639.8 80 650 C76.7 650 73.4 650 70 650 C70 656.6 70 663.2 70 670 C66.7 670 63.4 670 60 670 C60 676.6 60 683.2 60 690 C56.7 690 53.4 690 50 690 C50 676.8 50 663.6 50 650 C43.4 650 36.8 650 30 650 C30 640.1 30 630.2 30 620 C26.7 620 23.4 620 20 620 C20 613.4 20 606.8 20 600 C16.7 600 13.4 600 10 600 C10 583.5 10 567 10 550 C3.4 550 -3.2 550 -10 550 C-10 540.1 -10 530.2 -10 520 C-13.3 520 -16.6 520 -20 520 C-20 513.4 -20 506.8 -20 500 C-23.3 500 -26.6 500 -30 500 C-30 496.7 -30 493.4 -30 490 C-36.6 490 -43.2 490 -50 490 C-50 486.7 -50 483.4 -50 480 C-66.5 480 -83 480 -100 480 C-100 483.3 -100 486.6 -100 490 C-106.6 490 -113.2 490 -120 490 C-120 493.3 -120 496.6 -120 500 C-123.3 500 -126.6 500 -130 500 C-130 503.3 -130 506.6 -130 510 C-133.3 510 -136.6 510 -140 510 C-140 516.6 -140 523.2 -140 530 C-143.3 530 -146.6 530 -150 530 C-150 553.1 -150 576.2 -150 600 C-146.7 600 -143.4 600 -140 600 C-140 603.3 -140 606.6 -140 610 C-143.3 610 -146.6 610 -150 610 C-150 613.3 -150 616.6 -150 620 C-159.9 620 -169.8 620 -180 620 C-180 623.3 -180 626.6 -180 630 C-183.3 630 -186.6 630 -190 630 C-190 636.6 -190 643.2 -190 650 C-193.3 650 -196.6 650 -200 650 C-200 656.6 -200 663.2 -200 670 C-203.3 670 -206.6 670 -210 670 C-210 683.2 -210 696.4 -210 710 C-206.7 710 -203.4 710 -200 710 C-200 700.1 -200 690.2 -200 680 C-196.7 680 -193.4 680 -190 680 C-190 676.7 -190 673.4 -190 670 C-176.8 670 -163.6 670 -150 670 C-150 673.3 -150 676.6 -150 680 C-153.3 680 -156.6 680 -160 680 C-160 683.3 -160 686.6 -160 690 C-163.3 690 -166.6 690 -170 690 C-170 699.9 -170 709.8 -170 720 C-166.7 720 -163.4 720 -160 720 C-160 726.6 -160 733.2 -160 740 C-156.7 740 -153.4 740 -150 740 C-150 743.3 -150 746.6 -150 750 C-143.4 750 -136.8 750 -130 750 C-130 756.6 -130 763.2 -130 770 C-126.7 770 -123.4 770 -120 770 C-120 773.3 -120 776.6 -120 780 C-113.4 780 -106.8 780 -100 780 C-100 773.4 -100 766.8 -100 760 C-103.3 760 -106.6 760 -110 760 C-110 753.4 -110 746.8 -110 740 C-116.6 740 -123.2 740 -130 740 C-130 730.1 -130 720.2 -130 710 C-126.7 710 -123.4 710 -120 710 C-120 703.4 -120 696.8 -120 690 C-116.7 690 -113.4 690 -110 690 C-110 686.7 -110 683.4 -110 680 C-106.7 680 -103.4 680 -100 680 C-100 676.7 -100 673.4 -100 670 C-96.7 670 -93.4 670 -90 670 C-90 666.7 -90 663.4 -90 660 C-86.7 660 -83.4 660 -80 660 C-80 676.5 -80 693 -80 710 C-76.7 710 -73.4 710 -70 710 C-70 716.6 -70 723.2 -70 730 C-66.7 730 -63.4 730 -60 730 C-60 736.6 -60 743.2 -60 750 C-56.7 750 -53.4 750 -50 750 C-50 730.2 -50 710.4 -50 690 C-46.7 690 -43.4 690 -40 690 C-40 693.3 -40 696.6 -40 700 C-36.7 700 -33.4 700 -30 700 C-30 703.3 -30 706.6 -30 710 C-26.7 710 -23.4 710 -20 710 C-20 713.3 -20 716.6 -20 720 C-13.4 720 -6.8 720 0 720 C0 713.4 0 706.8 0 700 C-3.3 700 -6.6 700 -10 700 C-10 690.1 -10 680.2 -10 670 C-6.7 670 -3.4 670 0 670 C0 673.3 0 676.6 0 680 C3.3 680 6.6 680 10 680 C10 686.6 10 693.2 10 700 C13.3 700 16.6 700 20 700 C20 709.9 20 719.8 20 730 C23.3 730 26.6 730 30 730 C30 726.7 30 723.4 30 720 C33.3 720 36.6 720 40 720 C40 726.6 40 733.2 40 740 C36.7 740 33.4 740 30 740 C30 746.6 30 753.2 30 760 C26.7 760 23.4 760 20 760 C20 763.3 20 766.6 20 770 C16.7 770 13.4 770 10 770 C10 773.3 10 776.6 10 780 C6.7 780 3.4 780 0 780 C0 783.3 0 786.6 0 790 C-3.3 790 -6.6 790 -10 790 C-10 796.6 -10 803.2 -10 810 C-13.3 810 -16.6 810 -20 810 C-20 813.3 -20 816.6 -20 820 C-23.3 820 -26.6 820 -30 820 C-30 823.3 -30 826.6 -30 830 C-39.9 830 -49.8 830 -60 830 C-60 833.3 -60 836.6 -60 840 C-73.2 840 -86.4 840 -100 840 C-100 843.3 -100 846.6 -100 850 C-169.3 850 -238.6 850 -310 850 C-310 846.7 -310 843.4 -310 840 C-323.2 840 -336.4 840 -350 840 C-350 836.7 -350 833.4 -350 830 C-359.9 830 -369.8 830 -380 830 C-380 826.7 -380 823.4 -380 820 C-386.6 820 -393.2 820 -400 820 C-400 816.7 -400 813.4 -400 810 C-406.6 810 -413.2 810 -420 810 C-420 806.7 -420 803.4 -420 800 C-426.6 800 -433.2 800 -440 800 C-440 796.7 -440 793.4 -440 790 C-446.6 790 -453.2 790 -460 790 C-460 786.7 -460 783.4 -460 780 C-466.6 780 -473.2 780 -480 780 C-480 776.7 -480 773.4 -480 770 C-483.3 770 -486.6 770 -490 770 C-490 766.7 -490 763.4 -490 760 C-493.3 760 -496.6 760 -500 760 C-500 756.7 -500 753.4 -500 750 C-503.3 750 -506.6 750 -510 750 C-510 746.7 -510 743.4 -510 740 C-513.3 740 -516.6 740 -520 740 C-520 736.7 -520 733.4 -520 730 C-523.3 730 -526.6 730 -530 730 C-530 726.7 -530 723.4 -530 720 C-533.3 720 -536.6 720 -540 720 C-540 713.4 -540 706.8 -540 700 C-543.3 700 -546.6 700 -550 700 C-550 696.7 -550 693.4 -550 690 C-553.3 690 -556.6 690 -560 690 C-560 683.4 -560 676.8 -560 670 C-563.3 670 -566.6 670 -570 670 C-570 666.7 -570 663.4 -570 660 C-566.7 660 -563.4 660 -560 660 C-560 656.7 -560 653.4 -560 650 C-556.7 650 -553.4 650 -550 650 C-550 646.7 -550 643.4 -550 640 C-546.7 640 -543.4 640 -540 640 C-540 643.3 -540 646.6 -540 650 C-536.7 650 -533.4 650 -530 650 C-530 653.3 -530 656.6 -530 660 C-510.2 660 -490.4 660 -470 660 C-470 656.7 -470 653.4 -470 650 C-466.7 650 -463.4 650 -460 650 C-460 646.7 -460 643.4 -460 640 C-453.4 640 -446.8 640 -440 640 C-440 643.3 -440 646.6 -440 650 C-436.7 650 -433.4 650 -430 650 C-430 653.3 -430 656.6 -430 660 C-410.2 660 -390.4 660 -370 660 C-370 656.7 -370 653.4 -370 650 C-366.7 650 -363.4 650 -360 650 C-360 646.7 -360 643.4 -360 640 C-356.7 640 -353.4 640 -350 640 C-350 636.7 -350 633.4 -350 630 C-346.7 630 -343.4 630 -340 630 C-340 626.7 -340 623.4 -340 620 C-336.7 620 -333.4 620 -330 620 C-330 623.3 -330 626.6 -330 630 C-326.7 630 -323.4 630 -320 630 C-320 633.3 -320 636.6 -320 640 C-316.7 640 -313.4 640 -310 640 C-310 643.3 -310 646.6 -310 650 C-306.7 650 -303.4 650 -300 650 C-300 653.3 -300 656.6 -300 660 C-276.9 660 -253.8 660 -230 660 C-230 656.7 -230 653.4 -230 650 C-226.7 650 -223.4 650 -220 650 C-220 646.7 -220 643.4 -220 640 C-216.7 640 -213.4 640 -210 640 C-210 636.7 -210 633.4 -210 630 C-206.7 630 -203.4 630 -200 630 C-200 626.7 -200 623.4 -200 620 C-196.7 620 -193.4 620 -190 620 C-190 616.7 -190 613.4 -190 610 C-193.3 610 -196.6 610 -200 610 C-200 606.7 -200 603.4 -200 600 C-196.7 600 -193.4 600 -190 600 C-190 593.4 -190 586.8 -190 580 C-193.3 580 -196.6 580 -200 580 C-200 576.7 -200 573.4 -200 570 C-203.3 570 -206.6 570 -210 570 C-210 563.4 -210 556.8 -210 550 C-206.7 550 -203.4 550 -200 550 C-200 546.7 -200 543.4 -200 540 C-196.7 540 -193.4 540 -190 540 C-190 536.7 -190 533.4 -190 530 C-186.7 530 -183.4 530 -180 530 C-180 526.7 -180 523.4 -180 520 C-176.7 520 -173.4 520 -170 520 C-170 496.9 -170 473.8 -170 450 C-166.7 450 -163.4 450 -160 450 C-160 436.8 -160 423.6 -160 410 C-163.3 410 -166.6 410 -170 410 C-170 406.7 -170 403.4 -170 400 C-173.3 400 -176.6 400 -180 400 C-180 396.7 -180 393.4 -180 390 C-183.3 390 -186.6 390 -190 390 C-190 386.7 -190 383.4 -190 380 C-180.1 380 -170.2 380 -160 380 C-160 383.3 -160 386.6 -160 390 C-156.7 390 -153.4 390 -150 390 C-150 393.3 -150 396.6 -150 400 C-146.7 400 -143.4 400 -140 400 C-140 403.3 -140 406.6 -140 410 C-136.7 410 -133.4 410 -130 410 C-130 413.3 -130 416.6 -130 420 C-123.4 420 -116.8 420 -110 420 C-110 423.3 -110 426.6 -110 430 C-106.7 430 -103.4 430 -100 430 C-100 416.8 -100 403.6 -100 390 C-93.4 390 -86.8 390 -80 390 C-80 386.7 -80 383.4 -80 380 C-76.7 380 -73.4 380 -70 380 C-70 383.3 -70 386.6 -70 390 C-63.4 390 -56.8 390 -50 390 C-50 386.7 -50 383.4 -50 380 C-53.3 380 -56.6 380 -60 380 C-60 376.7 -60 373.4 -60 370 C-63.3 370 -66.6 370 -70 370 C-70 366.7 -70 363.4 -70 360 C-73.3 360 -76.6 360 -80 360 C-80 356.7 -80 353.4 -80 350 C-83.3 350 -86.6 350 -90 350 C-90 346.7 -90 343.4 -90 340 C-93.3 340 -96.6 340 -100 340 C-100 333.4 -100 326.8 -100 320 C-96.7 320 -93.4 320 -90 320 C-90 316.7 -90 313.4 -90 310 C-86.7 310 -83.4 310 -80 310 C-80 306.7 -80 303.4 -80 300 C-96.5 300 -113 300 -130 300 C-130 296.7 -130 293.4 -130 290 C-136.6 290 -143.2 290 -150 290 C-150 293.3 -150 296.6 -150 300 C-153.3 300 -156.6 300 -160 300 C-160 306.6 -160 313.2 -160 320 C-166.6 320 -173.2 320 -180 320 C-180 316.7 -180 313.4 -180 310 C-183.3 310 -186.6 310 -190 310 C-190 296.8 -190 283.6 -190 270 C-186.7 270 -183.4 270 -180 270 C-180 266.7 -180 263.4 -180 260 C-176.7 260 -173.4 260 -170 260 C-170 253.4 -170 246.8 -170 240 C-173.3 240 -176.6 240 -180 240 C-180 236.7 -180 233.4 -180 230 C-176.7 230 -173.4 230 -170 230 C-170 226.7 -170 223.4 -170 220 C-173.3 220 -176.6 220 -180 220 C-180 216.7 -180 213.4 -180 210 C-183.3 210 -186.6 210 -190 210 C-190 206.7 -190 203.4 -190 200 C-193.3 200 -196.6 200 -200 200 C-200 196.7 -200 193.4 -200 190 C-196.7 190 -193.4 190 -190 190 C-190 186.7 -190 183.4 -190 180 C-186.7 180 -183.4 180 -180 180 C-180 176.7 -180 173.4 -180 170 C-176.7 170 -173.4 170 -170 170 C-170 166.7 -170 163.4 -170 160 C-166.7 160 -163.4 160 -160 160 C-160 153.4 -160 146.8 -160 140 C-163.3 140 -166.6 140 -170 140 C-170 136.7 -170 133.4 -170 130 C-166.7 130 -163.4 130 -160 130 C-160 123.4 -160 116.8 -160 110 C-163.3 110 -166.6 110 -170 110 C-170 93.5 -170 77 -170 60 C-166.7 60 -163.4 60 -160 60 C-160 63.3 -160 66.6 -160 70 C-150.1 70 -140.2 70 -130 70 C-130 66.7 -130 63.4 -130 60 C-120.1 60 -110.2 60 -100 60 C-100 56.7 -100 53.4 -100 50 C-93.4 50 -86.8 50 -80 50 C-80 46.7 -80 43.4 -80 40 C-73.4 40 -66.8 40 -60 40 C-60 36.7 -60 33.4 -60 30 C-53.4 30 -46.8 30 -40 30 C-40 26.7 -40 23.4 -40 20 C-33.4 20 -26.8 20 -20 20 C-20 16.7 -20 13.4 -20 10 C-13.4 10 -6.8 10 0 10 C0 6.7 0 3.4 0 0 Z " fill="#015CB5" transform="translate(880,380)"/>
<path d="M0 0 C9.9 0 19.8 0 30 0 C30 3.3 30 6.6 30 10 C36.6 10 43.2 10 50 10 C50 13.3 50 16.6 50 20 C56.6 20 63.2 20 70 20 C70 23.3 70 26.6 70 30 C79.9 30 89.8 30 100 30 C100 33.3 100 36.6 100 40 C109.9 40 119.8 40 130 40 C130 43.3 130 46.6 130 50 C123.4 50 116.8 50 110 50 C110 53.3 110 56.6 110 60 C83.6 60 57.2 60 30 60 C30 63.3 30 66.6 30 70 C23.4 70 16.8 70 10 70 C10 73.3 10 76.6 10 80 C16.6 80 23.2 80 30 80 C30 83.3 30 86.6 30 90 C36.6 90 43.2 90 50 90 C50 93.3 50 96.6 50 100 C59.9 100 69.8 100 80 100 C80 103.3 80 106.6 80 110 C86.6 110 93.2 110 100 110 C100 113.3 100 116.6 100 120 C103.3 120 106.6 120 110 120 C110 123.3 110 126.6 110 130 C113.3 130 116.6 130 120 130 C120 136.6 120 143.2 120 150 C123.3 150 126.6 150 130 150 C130 173.1 130 196.2 130 220 C126.7 220 123.4 220 120 220 C120 262.9 120 305.8 120 350 C123.3 350 126.6 350 130 350 C130 359.9 130 369.8 130 380 C133.3 380 136.6 380 140 380 C140 386.6 140 393.2 140 400 C143.3 400 146.6 400 150 400 C150 406.6 150 413.2 150 420 C153.3 420 156.6 420 160 420 C160 446.4 160 472.8 160 500 C156.7 500 153.4 500 150 500 C150 516.5 150 533 150 550 C146.7 550 143.4 550 140 550 C140 559.9 140 569.8 140 580 C136.7 580 133.4 580 130 580 C130 593.2 130 606.4 130 620 C126.7 620 123.4 620 120 620 C120 626.6 120 633.2 120 640 C116.7 640 113.4 640 110 640 C110 649.9 110 659.8 110 670 C106.7 670 103.4 670 100 670 C100 676.6 100 683.2 100 690 C96.7 690 93.4 690 90 690 C90 693.3 90 696.6 90 700 C86.7 700 83.4 700 80 700 C80 706.6 80 713.2 80 720 C76.7 720 73.4 720 70 720 C70 726.6 70 733.2 70 740 C66.7 740 63.4 740 60 740 C60 743.3 60 746.6 60 750 C56.7 750 53.4 750 50 750 C50 753.3 50 756.6 50 760 C46.7 760 43.4 760 40 760 C40 756.7 40 753.4 40 750 C36.7 750 33.4 750 30 750 C30 746.7 30 743.4 30 740 C26.7 740 23.4 740 20 740 C20 736.7 20 733.4 20 730 C16.7 730 13.4 730 10 730 C10 726.7 10 723.4 10 720 C6.7 720 3.4 720 0 720 C0 716.7 0 713.4 0 710 C-3.3 710 -6.6 710 -10 710 C-10 706.7 -10 703.4 -10 700 C-13.3 700 -16.6 700 -20 700 C-20 696.7 -20 693.4 -20 690 C-23.3 690 -26.6 690 -30 690 C-30 683.4 -30 676.8 -30 670 C-33.3 670 -36.6 670 -40 670 C-40 663.4 -40 656.8 -40 650 C-43.3 650 -46.6 650 -50 650 C-50 640.1 -50 630.2 -50 620 C-53.3 620 -56.6 620 -60 620 C-60 583.7 -60 547.4 -60 510 C-56.7 510 -53.4 510 -50 510 C-50 500.1 -50 490.2 -50 480 C-46.7 480 -43.4 480 -40 480 C-40 473.4 -40 466.8 -40 460 C-36.7 460 -33.4 460 -30 460 C-30 453.4 -30 446.8 -30 440 C-26.7 440 -23.4 440 -20 440 C-20 430.1 -20 420.2 -20 410 C-16.7 410 -13.4 410 -10 410 C-10 403.4 -10 396.8 -10 390 C-6.7 390 -3.4 390 0 390 C0 366.9 0 343.8 0 320 C3.3 320 6.6 320 10 320 C10 306.8 10 293.6 10 280 C16.6 280 23.2 280 30 280 C30 276.7 30 273.4 30 270 C33.3 270 36.6 270 40 270 C40 266.7 40 263.4 40 260 C43.3 260 46.6 260 50 260 C50 256.7 50 253.4 50 250 C53.3 250 56.6 250 60 250 C60 246.7 60 243.4 60 240 C53.4 240 46.8 240 40 240 C40 243.3 40 246.6 40 250 C36.7 250 33.4 250 30 250 C30 253.3 30 256.6 30 260 C23.4 260 16.8 260 10 260 C10 263.3 10 266.6 10 270 C3.4 270 -3.2 270 -10 270 C-10 273.3 -10 276.6 -10 280 C-16.6 280 -23.2 280 -30 280 C-30 283.3 -30 286.6 -30 290 C-36.6 290 -43.2 290 -50 290 C-50 293.3 -50 296.6 -50 300 C-56.6 300 -63.2 300 -70 300 C-70 303.3 -70 306.6 -70 310 C-76.6 310 -83.2 310 -90 310 C-90 313.3 -90 316.6 -90 320 C-96.6 320 -103.2 320 -110 320 C-110 323.3 -110 326.6 -110 330 C-116.6 330 -123.2 330 -130 330 C-130 333.3 -130 336.6 -130 340 C-139.9 340 -149.8 340 -160 340 C-160 343.3 -160 346.6 -160 350 C-169.9 350 -179.8 350 -190 350 C-190 343.4 -190 336.8 -190 330 C-186.7 330 -183.4 330 -180 330 C-180 326.7 -180 323.4 -180 320 C-176.7 320 -173.4 320 -170 320 C-170 316.7 -170 313.4 -170 310 C-166.7 310 -163.4 310 -160 310 C-160 306.7 -160 303.4 -160 300 C-156.7 300 -153.4 300 -150 300 C-150 296.7 -150 293.4 -150 290 C-146.7 290 -143.4 290 -140 290 C-140 286.7 -140 283.4 -140 280 C-136.7 280 -133.4 280 -130 280 C-130 273.4 -130 266.8 -130 260 C-126.7 260 -123.4 260 -120 260 C-120 253.4 -120 246.8 -120 240 C-116.7 240 -113.4 240 -110 240 C-110 230.1 -110 220.2 -110 210 C-106.7 210 -103.4 210 -100 210 C-100 203.4 -100 196.8 -100 190 C-96.7 190 -93.4 190 -90 190 C-90 180.1 -90 170.2 -90 160 C-86.7 160 -83.4 160 -80 160 C-80 150.1 -80 140.2 -80 130 C-76.7 130 -73.4 130 -70 130 C-70 123.4 -70 116.8 -70 110 C-66.7 110 -63.4 110 -60 110 C-60 103.4 -60 96.8 -60 90 C-56.7 90 -53.4 90 -50 90 C-50 86.7 -50 83.4 -50 80 C-46.7 80 -43.4 80 -40 80 C-40 76.7 -40 73.4 -40 70 C-36.7 70 -33.4 70 -30 70 C-30 63.4 -30 56.8 -30 50 C-26.7 50 -23.4 50 -20 50 C-20 43.4 -20 36.8 -20 30 C-16.7 30 -13.4 30 -10 30 C-10 23.4 -10 16.8 -10 10 C-6.7 10 -3.4 10 0 10 C0 6.7 0 3.4 0 0 Z " fill="#FCDE00" transform="translate(910,80)"/>
<path d="M0 0 C3.3 0 6.6 0 10 0 C10 6.6 10 13.2 10 20 C13.3 20 16.6 20 20 20 C20 26.6 20 33.2 20 40 C23.3 40 26.6 40 30 40 C30 46.6 30 53.2 30 60 C33.3 60 36.6 60 40 60 C40 66.6 40 73.2 40 80 C43.3 80 46.6 80 50 80 C50 86.6 50 93.2 50 100 C53.3 100 56.6 100 60 100 C60 109.9 60 119.8 60 130 C63.3 130 66.6 130 70 130 C70 143.2 70 156.4 70 170 C73.3 170 76.6 170 80 170 C80 242.6 80 315.2 80 390 C76.7 390 73.4 390 70 390 C70 399.9 70 409.8 70 420 C66.7 420 63.4 420 60 420 C60 426.6 60 433.2 60 440 C56.7 440 53.4 440 50 440 C50 446.6 50 453.2 50 460 C46.7 460 43.4 460 40 460 C40 466.6 40 473.2 40 480 C36.7 480 33.4 480 30 480 C30 486.6 30 493.2 30 500 C26.7 500 23.4 500 20 500 C20 506.6 20 513.2 20 520 C16.7 520 13.4 520 10 520 C10 526.6 10 533.2 10 540 C6.7 540 3.4 540 0 540 C0 546.6 0 553.2 0 560 C-3.3 560 -6.6 560 -10 560 C-10 563.3 -10 566.6 -10 570 C-13.3 570 -16.6 570 -20 570 C-20 573.3 -20 576.6 -20 580 C-23.3 580 -26.6 580 -30 580 C-30 583.3 -30 586.6 -30 590 C-33.3 590 -36.6 590 -40 590 C-40 593.3 -40 596.6 -40 600 C-43.3 600 -46.6 600 -50 600 C-50 603.3 -50 606.6 -50 610 C-56.6 610 -63.2 610 -70 610 C-70 613.3 -70 616.6 -70 620 C-73.3 620 -76.6 620 -80 620 C-80 623.3 -80 626.6 -80 630 C-86.6 630 -93.2 630 -100 630 C-100 633.3 -100 636.6 -100 640 C-103.3 640 -106.6 640 -110 640 C-110 643.3 -110 646.6 -110 650 C-116.6 650 -123.2 650 -130 650 C-130 653.3 -130 656.6 -130 660 C-133.3 660 -136.6 660 -140 660 C-140 663.3 -140 666.6 -140 670 C-146.6 670 -153.2 670 -160 670 C-160 673.3 -160 676.6 -160 680 C-166.6 680 -173.2 680 -180 680 C-180 676.7 -180 673.4 -180 670 C-176.7 670 -173.4 670 -170 670 C-170 666.7 -170 663.4 -170 660 C-166.7 660 -163.4 660 -160 660 C-160 656.7 -160 653.4 -160 650 C-156.7 650 -153.4 650 -150 650 C-150 643.4 -150 636.8 -150 630 C-146.7 630 -143.4 630 -140 630 C-140 623.4 -140 616.8 -140 610 C-136.7 610 -133.4 610 -130 610 C-130 603.4 -130 596.8 -130 590 C-126.7 590 -123.4 590 -120 590 C-120 583.4 -120 576.8 -120 570 C-116.7 570 -113.4 570 -110 570 C-110 563.4 -110 556.8 -110 550 C-106.7 550 -103.4 550 -100 550 C-100 543.4 -100 536.8 -100 530 C-96.7 530 -93.4 530 -90 530 C-90 516.8 -90 503.6 -90 490 C-86.7 490 -83.4 490 -80 490 C-80 450.4 -80 410.8 -80 370 C-83.3 370 -86.6 370 -90 370 C-90 363.4 -90 356.8 -90 350 C-93.3 350 -96.6 350 -100 350 C-100 346.7 -100 343.4 -100 340 C-103.3 340 -106.6 340 -110 340 C-110 333.4 -110 326.8 -110 320 C-106.7 320 -103.4 320 -100 320 C-100 316.7 -100 313.4 -100 310 C-96.7 310 -93.4 310 -90 310 C-90 303.4 -90 296.8 -90 290 C-86.7 290 -83.4 290 -80 290 C-80 283.4 -80 276.8 -80 270 C-76.7 270 -73.4 270 -70 270 C-70 266.7 -70 263.4 -70 260 C-66.7 260 -63.4 260 -60 260 C-60 253.4 -60 246.8 -60 240 C-56.7 240 -53.4 240 -50 240 C-50 230.1 -50 220.2 -50 210 C-46.7 210 -43.4 210 -40 210 C-40 203.4 -40 196.8 -40 190 C-36.7 190 -33.4 190 -30 190 C-30 176.8 -30 163.6 -30 150 C-26.7 150 -23.4 150 -20 150 C-20 140.1 -20 130.2 -20 120 C-16.7 120 -13.4 120 -10 120 C-10 103.5 -10 87 -10 70 C-6.7 70 -3.4 70 0 70 C0 46.9 0 23.8 0 0 Z " fill="#0061FD" transform="translate(1070,510)"/>
<path d="M0 0 C9.9 0 19.8 0 30 0 C30 3.3 30 6.6 30 10 C36.6 10 43.2 10 50 10 C50 13.3 50 16.6 50 20 C56.6 20 63.2 20 70 20 C70 23.3 70 26.6 70 30 C79.9 30 89.8 30 100 30 C100 33.3 100 36.6 100 40 C109.9 40 119.8 40 130 40 C130 43.3 130 46.6 130 50 C123.4 50 116.8 50 110 50 C110 53.3 110 56.6 110 60 C83.6 60 57.2 60 30 60 C30 63.3 30 66.6 30 70 C23.4 70 16.8 70 10 70 C10 73.3 10 76.6 10 80 C16.6 80 23.2 80 30 80 C30 83.3 30 86.6 30 90 C36.6 90 43.2 90 50 90 C50 93.3 50 96.6 50 100 C59.9 100 69.8 100 80 100 C80 103.3 80 106.6 80 110 C86.6 110 93.2 110 100 110 C100 113.3 100 116.6 100 120 C103.3 120 106.6 120 110 120 C110 123.3 110 126.6 110 130 C113.3 130 116.6 130 120 130 C120 136.6 120 143.2 120 150 C123.3 150 126.6 150 130 150 C130 163.2 130 176.4 130 190 C126.7 190 123.4 190 120 190 C120 196.6 120 203.2 120 210 C116.7 210 113.4 210 110 210 C110 213.3 110 216.6 110 220 C106.7 220 103.4 220 100 220 C100 223.3 100 226.6 100 230 C96.7 230 93.4 230 90 230 C90 233.3 90 236.6 90 240 C86.7 240 83.4 240 80 240 C80 243.3 80 246.6 80 250 C76.7 250 73.4 250 70 250 C70 253.3 70 256.6 70 260 C66.7 260 63.4 260 60 260 C60 263.3 60 266.6 60 270 C56.7 270 53.4 270 50 270 C50 273.3 50 276.6 50 280 C46.7 280 43.4 280 40 280 C40 283.3 40 286.6 40 290 C36.7 290 33.4 290 30 290 C30 293.3 30 296.6 30 300 C26.7 300 23.4 300 20 300 C20 303.3 20 306.6 20 310 C16.7 310 13.4 310 10 310 C10 300.1 10 290.2 10 280 C16.6 280 23.2 280 30 280 C30 276.7 30 273.4 30 270 C33.3 270 36.6 270 40 270 C40 266.7 40 263.4 40 260 C43.3 260 46.6 260 50 260 C50 256.7 50 253.4 50 250 C53.3 250 56.6 250 60 250 C60 246.7 60 243.4 60 240 C53.4 240 46.8 240 40 240 C40 243.3 40 246.6 40 250 C36.7 250 33.4 250 30 250 C30 253.3 30 256.6 30 260 C23.4 260 16.8 260 10 260 C10 263.3 10 266.6 10 270 C3.4 270 -3.2 270 -10 270 C-10 273.3 -10 276.6 -10 280 C-16.6 280 -23.2 280 -30 280 C-30 283.3 -30 286.6 -30 290 C-36.6 290 -43.2 290 -50 290 C-50 293.3 -50 296.6 -50 300 C-56.6 300 -63.2 300 -70 300 C-70 303.3 -70 306.6 -70 310 C-76.6 310 -83.2 310 -90 310 C-90 313.3 -90 316.6 -90 320 C-96.6 320 -103.2 320 -110 320 C-110 323.3 -110 326.6 -110 330 C-116.6 330 -123.2 330 -130 330 C-130 333.3 -130 336.6 -130 340 C-139.9 340 -149.8 340 -160 340 C-160 343.3 -160 346.6 -160 350 C-169.9 350 -179.8 350 -190 350 C-190 343.4 -190 336.8 -190 330 C-186.7 330 -183.4 330 -180 330 C-180 326.7 -180 323.4 -180 320 C-176.7 320 -173.4 320 -170 320 C-170 316.7 -170 313.4 -170 310 C-166.7 310 -163.4 310 -160 310 C-160 306.7 -160 303.4 -160 300 C-156.7 300 -153.4 300 -150 300 C-150 296.7 -150 293.4 -150 290 C-146.7 290 -143.4 290 -140 290 C-140 286.7 -140 283.4 -140 280 C-136.7 280 -133.4 280 -130 280 C-130 273.4 -130 266.8 -130 260 C-126.7 260 -123.4 260 -120 260 C-120 253.4 -120 246.8 -120 240 C-116.7 240 -113.4 240 -110 240 C-110 230.1 -110 220.2 -110 210 C-106.7 210 -103.4 210 -100 210 C-100 203.4 -100 196.8 -100 190 C-96.7 190 -93.4 190 -90 190 C-90 180.1 -90 170.2 -90 160 C-86.7 160 -83.4 160 -80 160 C-80 150.1 -80 140.2 -80 130 C-76.7 130 -73.4 130 -70 130 C-70 123.4 -70 116.8 -70 110 C-66.7 110 -63.4 110 -60 110 C-60 103.4 -60 96.8 -60 90 C-56.7 90 -53.4 90 -50 90 C-50 86.7 -50 83.4 -50 80 C-46.7 80 -43.4 80 -40 80 C-40 76.7 -40 73.4 -40 70 C-36.7 70 -33.4 70 -30 70 C-30 63.4 -30 56.8 -30 50 C-26.7 50 -23.4 50 -20 50 C-20 43.4 -20 36.8 -20 30 C-16.7 30 -13.4 30 -10 30 C-10 23.4 -10 16.8 -10 10 C-6.7 10 -3.4 10 0 10 C0 6.7 0 3.4 0 0 Z " fill="#FB2701" transform="translate(910,80)"/>
<path d="M0 0 C6.6 0 13.2 0 20 0 C20 9.9 20 19.8 20 30 C16.7 30 13.4 30 10 30 C10 46.5 10 63 10 80 C6.7 80 3.4 80 0 80 C0 89.9 0 99.8 0 110 C-3.3 110 -6.6 110 -10 110 C-10 119.9 -10 129.8 -10 140 C-13.3 140 -16.6 140 -20 140 C-20 146.6 -20 153.2 -20 160 C-23.3 160 -26.6 160 -30 160 C-30 166.6 -30 173.2 -30 180 C-33.3 180 -36.6 180 -40 180 C-40 189.9 -40 199.8 -40 210 C-43.3 210 -46.6 210 -50 210 C-50 223.2 -50 236.4 -50 250 C-53.3 250 -56.6 250 -60 250 C-60 253.3 -60 256.6 -60 260 C-63.3 260 -66.6 260 -70 260 C-70 263.3 -70 266.6 -70 270 C-73.3 270 -76.6 270 -80 270 C-80 273.3 -80 276.6 -80 280 C-86.6 280 -93.2 280 -100 280 C-100 283.3 -100 286.6 -100 290 C-106.6 290 -113.2 290 -120 290 C-120 293.3 -120 296.6 -120 300 C-123.3 300 -126.6 300 -130 300 C-130 296.7 -130 293.4 -130 290 C-136.6 290 -143.2 290 -150 290 C-150 293.3 -150 296.6 -150 300 C-153.3 300 -156.6 300 -160 300 C-160 306.6 -160 313.2 -160 320 C-166.6 320 -173.2 320 -180 320 C-180 316.7 -180 313.4 -180 310 C-183.3 310 -186.6 310 -190 310 C-190 296.8 -190 283.6 -190 270 C-186.7 270 -183.4 270 -180 270 C-180 266.7 -180 263.4 -180 260 C-176.7 260 -173.4 260 -170 260 C-170 253.4 -170 246.8 -170 240 C-173.3 240 -176.6 240 -180 240 C-180 236.7 -180 233.4 -180 230 C-176.7 230 -173.4 230 -170 230 C-170 226.7 -170 223.4 -170 220 C-173.3 220 -176.6 220 -180 220 C-180 216.7 -180 213.4 -180 210 C-183.3 210 -186.6 210 -190 210 C-190 206.7 -190 203.4 -190 200 C-193.3 200 -196.6 200 -200 200 C-200 196.7 -200 193.4 -200 190 C-196.7 190 -193.4 190 -190 190 C-190 186.7 -190 183.4 -190 180 C-186.7 180 -183.4 180 -180 180 C-180 176.7 -180 173.4 -180 170 C-176.7 170 -173.4 170 -170 170 C-170 166.7 -170 163.4 -170 160 C-166.7 160 -163.4 160 -160 160 C-160 153.4 -160 146.8 -160 140 C-163.3 140 -166.6 140 -170 140 C-170 136.7 -170 133.4 -170 130 C-166.7 130 -163.4 130 -160 130 C-160 123.4 -160 116.8 -160 110 C-163.3 110 -166.6 110 -170 110 C-170 93.5 -170 77 -170 60 C-166.7 60 -163.4 60 -160 60 C-160 63.3 -160 66.6 -160 70 C-150.1 70 -140.2 70 -130 70 C-130 66.7 -130 63.4 -130 60 C-120.1 60 -110.2 60 -100 60 C-100 56.7 -100 53.4 -100 50 C-93.4 50 -86.8 50 -80 50 C-80 46.7 -80 43.4 -80 40 C-73.4 40 -66.8 40 -60 40 C-60 36.7 -60 33.4 -60 30 C-53.4 30 -46.8 30 -40 30 C-40 26.7 -40 23.4 -40 20 C-33.4 20 -26.8 20 -20 20 C-20 16.7 -20 13.4 -20 10 C-13.4 10 -6.8 10 0 10 C0 6.7 0 3.4 0 0 Z " fill="#11A2DB" transform="translate(880,380)"/>
<path d="M0 0 C16.5 0 33 0 50 0 C50 3.3 50 6.6 50 10 C56.6 10 63.2 10 70 10 C70 13.3 70 16.6 70 20 C73.3 20 76.6 20 80 20 C80 26.6 80 33.2 80 40 C83.3 40 86.6 40 90 40 C90 49.9 90 59.8 90 70 C96.6 70 103.2 70 110 70 C110 86.5 110 103 110 120 C113.3 120 116.6 120 120 120 C120 126.6 120 133.2 120 140 C123.3 140 126.6 140 130 140 C130 149.9 130 159.8 130 170 C133.3 170 136.6 170 140 170 C140 183.2 140 196.4 140 210 C136.7 210 133.4 210 130 210 C130 206.7 130 203.4 130 200 C126.7 200 123.4 200 120 200 C120 193.4 120 186.8 120 180 C116.7 180 113.4 180 110 180 C110 176.7 110 173.4 110 170 C106.7 170 103.4 170 100 170 C100 166.7 100 163.4 100 160 C96.7 160 93.4 160 90 160 C90 156.7 90 153.4 90 150 C86.7 150 83.4 150 80 150 C80 173.1 80 196.2 80 220 C73.4 220 66.8 220 60 220 C60 216.7 60 213.4 60 210 C56.7 210 53.4 210 50 210 C50 229.8 50 249.6 50 270 C46.7 270 43.4 270 40 270 C40 263.4 40 256.8 40 250 C36.7 250 33.4 250 30 250 C30 243.4 30 236.8 30 230 C26.7 230 23.4 230 20 230 C20 213.5 20 197 20 180 C16.7 180 13.4 180 10 180 C10 183.3 10 186.6 10 190 C6.7 190 3.4 190 0 190 C0 193.3 0 196.6 0 200 C-3.3 200 -6.6 200 -10 200 C-10 203.3 -10 206.6 -10 210 C-13.3 210 -16.6 210 -20 210 C-20 216.6 -20 223.2 -20 230 C-23.3 230 -26.6 230 -30 230 C-30 239.9 -30 249.8 -30 260 C-23.4 260 -16.8 260 -10 260 C-10 266.6 -10 273.2 -10 280 C-6.7 280 -3.4 280 0 280 C0 286.6 0 293.2 0 300 C-6.6 300 -13.2 300 -20 300 C-20 296.7 -20 293.4 -20 290 C-23.3 290 -26.6 290 -30 290 C-30 283.4 -30 276.8 -30 270 C-36.6 270 -43.2 270 -50 270 C-50 266.7 -50 263.4 -50 260 C-53.3 260 -56.6 260 -60 260 C-60 253.4 -60 246.8 -60 240 C-63.3 240 -66.6 240 -70 240 C-70 230.1 -70 220.2 -70 210 C-66.7 210 -63.4 210 -60 210 C-60 206.7 -60 203.4 -60 200 C-56.7 200 -53.4 200 -50 200 C-50 196.7 -50 193.4 -50 190 C-63.2 190 -76.4 190 -90 190 C-90 193.3 -90 196.6 -90 200 C-93.3 200 -96.6 200 -100 200 C-100 209.9 -100 219.8 -100 230 C-103.3 230 -106.6 230 -110 230 C-110 216.8 -110 203.6 -110 190 C-106.7 190 -103.4 190 -100 190 C-100 183.4 -100 176.8 -100 170 C-96.7 170 -93.4 170 -90 170 C-90 163.4 -90 156.8 -90 150 C-86.7 150 -83.4 150 -80 150 C-80 146.7 -80 143.4 -80 140 C-70.1 140 -60.2 140 -50 140 C-50 136.7 -50 133.4 -50 130 C-46.7 130 -43.4 130 -40 130 C-40 126.7 -40 123.4 -40 120 C-43.3 120 -46.6 120 -50 120 C-50 96.9 -50 73.8 -50 50 C-46.7 50 -43.4 50 -40 50 C-40 43.4 -40 36.8 -40 30 C-36.7 30 -33.4 30 -30 30 C-30 26.7 -30 23.4 -30 20 C-26.7 20 -23.4 20 -20 20 C-20 16.7 -20 13.4 -20 10 C-13.4 10 -6.8 10 0 10 C0 6.7 0 3.4 0 0 Z " fill="#FB2701" transform="translate(780,860)"/>
<path d="M0 0 C3.3 0 6.6 0 10 0 C10 6.6 10 13.2 10 20 C13.3 20 16.6 20 20 20 C20 26.6 20 33.2 20 40 C23.3 40 26.6 40 30 40 C30 66.4 30 92.8 30 120 C26.7 120 23.4 120 20 120 C20 136.5 20 153 20 170 C16.7 170 13.4 170 10 170 C10 179.9 10 189.8 10 200 C6.7 200 3.4 200 0 200 C0 213.2 0 226.4 0 240 C-3.3 240 -6.6 240 -10 240 C-10 246.6 -10 253.2 -10 260 C-13.3 260 -16.6 260 -20 260 C-20 269.9 -20 279.8 -20 290 C-23.3 290 -26.6 290 -30 290 C-30 296.6 -30 303.2 -30 310 C-33.3 310 -36.6 310 -40 310 C-40 313.3 -40 316.6 -40 320 C-43.3 320 -46.6 320 -50 320 C-50 326.6 -50 333.2 -50 340 C-53.3 340 -56.6 340 -60 340 C-60 346.6 -60 353.2 -60 360 C-63.3 360 -66.6 360 -70 360 C-70 363.3 -70 366.6 -70 370 C-73.3 370 -76.6 370 -80 370 C-80 373.3 -80 376.6 -80 380 C-83.3 380 -86.6 380 -90 380 C-90 376.7 -90 373.4 -90 370 C-93.3 370 -96.6 370 -100 370 C-100 366.7 -100 363.4 -100 360 C-103.3 360 -106.6 360 -110 360 C-110 356.7 -110 353.4 -110 350 C-113.3 350 -116.6 350 -120 350 C-120 346.7 -120 343.4 -120 340 C-123.3 340 -126.6 340 -130 340 C-130 336.7 -130 333.4 -130 330 C-133.3 330 -136.6 330 -140 330 C-140 326.7 -140 323.4 -140 320 C-143.3 320 -146.6 320 -150 320 C-150 316.7 -150 313.4 -150 310 C-153.3 310 -156.6 310 -160 310 C-160 303.4 -160 296.8 -160 290 C-156.7 290 -153.4 290 -150 290 C-150 286.7 -150 283.4 -150 280 C-146.7 280 -143.4 280 -140 280 C-140 276.7 -140 273.4 -140 270 C-136.7 270 -133.4 270 -130 270 C-130 266.7 -130 263.4 -130 260 C-126.7 260 -123.4 260 -120 260 C-120 256.7 -120 253.4 -120 250 C-116.7 250 -113.4 250 -110 250 C-110 246.7 -110 243.4 -110 240 C-106.7 240 -103.4 240 -100 240 C-100 236.7 -100 233.4 -100 230 C-96.7 230 -93.4 230 -90 230 C-90 226.7 -90 223.4 -90 220 C-86.7 220 -83.4 220 -80 220 C-80 213.4 -80 206.8 -80 200 C-76.7 200 -73.4 200 -70 200 C-70 196.7 -70 193.4 -70 190 C-66.7 190 -63.4 190 -60 190 C-60 183.4 -60 176.8 -60 170 C-56.7 170 -53.4 170 -50 170 C-50 163.4 -50 156.8 -50 150 C-46.7 150 -43.4 150 -40 150 C-40 143.4 -40 136.8 -40 130 C-36.7 130 -33.4 130 -30 130 C-30 123.4 -30 116.8 -30 110 C-26.7 110 -23.4 110 -20 110 C-20 103.4 -20 96.8 -20 90 C-16.7 90 -13.4 90 -10 90 C-10 80.1 -10 70.2 -10 60 C-6.7 60 -3.4 60 0 60 C0 40.2 0 20.4 0 0 Z " fill="#2BC300" transform="translate(1040,460)"/>
<path d="M0 0 C23.1 0 46.2 0 70 0 C70 13.2 70 26.4 70 40 C66.7 40 63.4 40 60 40 C60 73 60 106 60 140 C63.3 140 66.6 140 70 140 C70 130.1 70 120.2 70 110 C79.9 110 89.8 110 100 110 C100 119.9 100 129.8 100 140 C103.3 140 106.6 140 110 140 C110 110.3 110 80.6 110 50 C103.4 50 96.8 50 90 50 C90 43.4 90 36.8 90 30 C96.6 30 103.2 30 110 30 C110 26.7 110 23.4 110 20 C103.4 20 96.8 20 90 20 C90 13.4 90 6.8 90 0 C113.1 0 136.2 0 160 0 C160 13.2 160 26.4 160 40 C156.7 40 153.4 40 150 40 C150 82.9 150 125.8 150 170 C153.3 170 156.6 170 160 170 C160 176.6 160 183.2 160 190 C156.7 190 153.4 190 150 190 C150 193.3 150 196.6 150 200 C153.3 200 156.6 200 160 200 C160 206.6 160 213.2 160 220 C146.8 220 133.6 220 120 220 C120 216.7 120 213.4 120 210 C116.7 210 113.4 210 110 210 C110 206.7 110 203.4 110 200 C106.7 200 103.4 200 100 200 C100 196.7 100 193.4 100 190 C90.1 190 80.2 190 70 190 C70 193.3 70 196.6 70 200 C66.7 200 63.4 200 60 200 C60 203.3 60 206.6 60 210 C56.7 210 53.4 210 50 210 C50 213.3 50 216.6 50 220 C33.5 220 17 220 0 220 C0 210.1 0 200.2 0 190 C3.3 190 6.6 190 10 190 C10 183.4 10 176.8 10 170 C13.3 170 16.6 170 20 170 C20 130.4 20 90.8 20 50 C13.4 50 6.8 50 0 50 C0 43.4 0 36.8 0 30 C6.6 30 13.2 30 20 30 C20 26.7 20 23.4 20 20 C13.4 20 6.8 20 0 20 C0 13.4 0 6.8 0 0 Z " fill="#00C7FF" transform="translate(150,790)"/>
<path d="M0 0 C19.8 0 39.6 0 60 0 C60 3.3 60 6.6 60 10 C63.3 10 66.6 10 70 10 C70 13.3 70 16.6 70 20 C73.3 20 76.6 20 80 20 C80 23.3 80 26.6 80 30 C83.3 30 86.6 30 90 30 C90 36.6 90 43.2 90 50 C93.3 50 96.6 50 100 50 C100 86.3 100 122.6 100 160 C103.3 160 106.6 160 110 160 C110 166.6 110 173.2 110 180 C106.7 180 103.4 180 100 180 C100 183.3 100 186.6 100 190 C103.3 190 106.6 190 110 190 C110 196.6 110 203.2 110 210 C90.2 210 70.4 210 50 210 C50 200.1 50 190.2 50 180 C53.3 180 56.6 180 60 180 C60 163.5 60 147 60 130 C40.2 130 20.4 130 0 130 C0 139.9 0 149.8 0 160 C3.3 160 6.6 160 10 160 C10 166.6 10 173.2 10 180 C6.7 180 3.4 180 0 180 C0 183.3 0 186.6 0 190 C3.3 190 6.6 190 10 190 C10 196.6 10 203.2 10 210 C-9.8 210 -29.6 210 -50 210 C-50 200.1 -50 190.2 -50 180 C-46.7 180 -43.4 180 -40 180 C-40 137.1 -40 94.2 -40 50 C-36.7 50 -33.4 50 -30 50 C-30 43.4 -30 36.8 -30 30 C-26.7 30 -23.4 30 -20 30 C-20 26.7 -20 23.4 -20 20 C-16.7 20 -13.4 20 -10 20 C-10 16.7 -10 13.4 -10 10 C-6.7 10 -3.4 10 0 10 C0 6.7 0 3.4 0 0 Z " fill="#00C7FF" transform="translate(400,790)"/>
<path d="M0 0 C19.8 0 39.6 0 60 0 C60 3.3 60 6.6 60 10 C63.3 10 66.6 10 70 10 C70 13.3 70 16.6 70 20 C73.3 20 76.6 20 80 20 C80 23.3 80 26.6 80 30 C83.3 30 86.6 30 90 30 C90 36.6 90 43.2 90 50 C93.3 50 96.6 50 100 50 C100 86.3 100 122.6 100 160 C103.3 160 106.6 160 110 160 C110 166.6 110 173.2 110 180 C106.7 180 103.4 180 100 180 C100 183.3 100 186.6 100 190 C103.3 190 106.6 190 110 190 C110 196.6 110 203.2 110 210 C90.2 210 70.4 210 50 210 C50 200.1 50 190.2 50 180 C53.3 180 56.6 180 60 180 C60 163.5 60 147 60 130 C40.2 130 20.4 130 0 130 C0 139.9 0 149.8 0 160 C3.3 160 6.6 160 10 160 C10 166.6 10 173.2 10 180 C6.7 180 3.4 180 0 180 C0 183.3 0 186.6 0 190 C3.3 190 6.6 190 10 190 C10 196.6 10 203.2 10 210 C-9.8 210 -29.6 210 -50 210 C-50 200.1 -50 190.2 -50 180 C-46.7 180 -43.4 180 -40 180 C-40 137.1 -40 94.2 -40 50 C-36.7 50 -33.4 50 -30 50 C-30 43.4 -30 36.8 -30 30 C-26.7 30 -23.4 30 -20 30 C-20 26.7 -20 23.4 -20 20 C-16.7 20 -13.4 20 -10 20 C-10 16.7 -10 13.4 -10 10 C-6.7 10 -3.4 10 0 10 C0 6.7 0 3.4 0 0 Z " fill="#00C7FF" transform="translate(570,330)"/>
<path d="M0 0 C33 0 66 0 100 0 C100 6.6 100 13.2 100 20 C103.3 20 106.6 20 110 20 C110 23.3 110 26.6 110 30 C113.3 30 116.6 30 120 30 C120 39.9 120 49.8 120 60 C106.8 60 93.6 60 80 60 C80 50.1 80 40.2 80 30 C76.7 30 73.4 30 70 30 C70 36.6 70 43.2 70 50 C53.5 50 37 50 20 50 C20 53.3 20 56.6 20 60 C16.7 60 13.4 60 10 60 C10 63.3 10 66.6 10 70 C13.3 70 16.6 70 20 70 C20 73.3 20 76.6 20 80 C23.3 80 26.6 80 30 80 C30 83.3 30 86.6 30 90 C56.4 90 82.8 90 110 90 C110 93.3 110 96.6 110 100 C113.3 100 116.6 100 120 100 C120 103.3 120 106.6 120 110 C123.3 110 126.6 110 130 110 C130 133.1 130 156.2 130 180 C126.7 180 123.4 180 120 180 C120 183.3 120 186.6 120 190 C116.7 190 113.4 190 110 190 C110 193.3 110 196.6 110 200 C106.7 200 103.4 200 100 200 C100 203.3 100 206.6 100 210 C67 210 34 210 0 210 C0 206.7 0 203.4 0 200 C-9.9 200 -19.8 200 -30 200 C-30 183.5 -30 167 -30 150 C-16.8 150 -3.6 150 10 150 C10 153.3 10 156.6 10 160 C33.1 160 56.2 160 80 160 C80 146.8 80 133.6 80 120 C76.7 120 73.4 120 70 120 C70 123.3 70 126.6 70 130 C46.9 130 23.8 130 0 130 C0 126.7 0 123.4 0 120 C-6.6 120 -13.2 120 -20 120 C-20 113.4 -20 106.8 -20 100 C-23.3 100 -26.6 100 -30 100 C-30 76.9 -30 53.8 -30 30 C-26.7 30 -23.4 30 -20 30 C-20 26.7 -20 23.4 -20 20 C-16.7 20 -13.4 20 -10 20 C-10 16.7 -10 13.4 -10 10 C-6.7 10 -3.4 10 0 10 C0 6.7 0 3.4 0 0 Z " fill="#00C7FF" transform="translate(170,330)"/>
<path d="M0 0 C3.3 0 6.6 0 10 0 C10 9.9 10 19.8 10 30 C6.7 30 3.4 30 0 30 C0 63 0 96 0 130 C-3.3 130 -6.6 130 -10 130 C-10 136.6 -10 143.2 -10 150 C-13.3 150 -16.6 150 -20 150 C-20 153.3 -20 156.6 -20 160 C-23.3 160 -26.6 160 -30 160 C-30 166.6 -30 173.2 -30 180 C-33.3 180 -36.6 180 -40 180 C-40 186.6 -40 193.2 -40 200 C-43.3 200 -46.6 200 -50 200 C-50 203.3 -50 206.6 -50 210 C-53.3 210 -56.6 210 -60 210 C-60 216.6 -60 223.2 -60 230 C-63.3 230 -66.6 230 -70 230 C-70 236.6 -70 243.2 -70 250 C-73.3 250 -76.6 250 -80 250 C-80 253.3 -80 256.6 -80 260 C-83.3 260 -86.6 260 -90 260 C-90 263.3 -90 266.6 -90 270 C-93.3 270 -96.6 270 -100 270 C-100 276.6 -100 283.2 -100 290 C-103.3 290 -106.6 290 -110 290 C-110 293.3 -110 296.6 -110 300 C-113.3 300 -116.6 300 -120 300 C-120 303.3 -120 306.6 -120 310 C-123.3 310 -126.6 310 -130 310 C-130 316.6 -130 323.2 -130 330 C-133.3 330 -136.6 330 -140 330 C-140 333.3 -140 336.6 -140 340 C-143.3 340 -146.6 340 -150 340 C-150 343.3 -150 346.6 -150 350 C-153.3 350 -156.6 350 -160 350 C-160 353.3 -160 356.6 -160 360 C-163.3 360 -166.6 360 -170 360 C-170 363.3 -170 366.6 -170 370 C-173.3 370 -176.6 370 -180 370 C-180 353.5 -180 337 -180 320 C-176.7 320 -173.4 320 -170 320 C-170 310.1 -170 300.2 -170 290 C-166.7 290 -163.4 290 -160 290 C-160 283.4 -160 276.8 -160 270 C-156.7 270 -153.4 270 -150 270 C-150 263.4 -150 256.8 -150 250 C-146.7 250 -143.4 250 -140 250 C-140 240.1 -140 230.2 -140 220 C-136.7 220 -133.4 220 -130 220 C-130 213.4 -130 206.8 -130 200 C-126.7 200 -123.4 200 -120 200 C-120 176.9 -120 153.8 -120 130 C-116.7 130 -113.4 130 -110 130 C-110 126.7 -110 123.4 -110 120 C-106.7 120 -103.4 120 -100 120 C-100 116.7 -100 113.4 -100 110 C-96.7 110 -93.4 110 -90 110 C-90 106.7 -90 103.4 -90 100 C-86.7 100 -83.4 100 -80 100 C-80 96.7 -80 93.4 -80 90 C-76.7 90 -73.4 90 -70 90 C-70 86.7 -70 83.4 -70 80 C-66.7 80 -63.4 80 -60 80 C-60 76.7 -60 73.4 -60 70 C-56.7 70 -53.4 70 -50 70 C-50 66.7 -50 63.4 -50 60 C-46.7 60 -43.4 60 -40 60 C-40 56.7 -40 53.4 -40 50 C-36.7 50 -33.4 50 -30 50 C-30 46.7 -30 43.4 -30 40 C-26.7 40 -23.4 40 -20 40 C-20 36.7 -20 33.4 -20 30 C-16.7 30 -13.4 30 -10 30 C-10 26.7 -10 23.4 -10 20 C-6.7 20 -3.4 20 0 20 C0 13.4 0 6.8 0 0 Z " fill="#FB8D00" transform="translate(1030,270)"/>
<path d="M0 0 C49.5 0 99 0 150 0 C150 6.6 150 13.2 150 20 C146.7 20 143.4 20 140 20 C140 23.3 140 26.6 140 30 C143.3 30 146.6 30 150 30 C150 39.9 150 49.8 150 60 C136.8 60 123.6 60 110 60 C110 50.1 110 40.2 110 30 C106.7 30 103.4 30 100 30 C100 36.6 100 43.2 100 50 C83.5 50 67 50 50 50 C50 63.2 50 76.4 50 90 C73.1 90 96.2 90 120 90 C120 99.9 120 109.8 120 120 C113.4 120 106.8 120 100 120 C100 123.3 100 126.6 100 130 C96.7 130 93.4 130 90 130 C90 133.3 90 136.6 90 140 C76.8 140 63.6 140 50 140 C50 149.9 50 159.8 50 170 C69.8 170 89.6 170 110 170 C110 163.4 110 156.8 110 150 C123.2 150 136.4 150 150 150 C150 159.9 150 169.8 150 180 C146.7 180 143.4 180 140 180 C140 183.3 140 186.6 140 190 C143.3 190 146.6 190 150 190 C150 196.6 150 203.2 150 210 C100.5 210 51 210 0 210 C0 200.1 0 190.2 0 180 C3.3 180 6.6 180 10 180 C10 137.1 10 94.2 10 50 C6.7 50 3.4 50 0 50 C0 43.4 0 36.8 0 30 C3.3 30 6.6 30 10 30 C10 26.7 10 23.4 10 20 C6.7 20 3.4 20 0 20 C0 13.4 0 6.8 0 0 Z " fill="#00C7FF" transform="translate(330,330)"/>
<path d="M0 0 C3.3 0 6.6 0 10 0 C10 26.4 10 52.8 10 80 C6.7 80 3.4 80 0 80 C0 89.9 0 99.8 0 110 C-3.3 110 -6.6 110 -10 110 C-10 116.6 -10 123.2 -10 130 C-13.3 130 -16.6 130 -20 130 C-20 136.6 -20 143.2 -20 150 C-23.3 150 -26.6 150 -30 150 C-30 156.6 -30 163.2 -30 170 C-33.3 170 -36.6 170 -40 170 C-40 176.6 -40 183.2 -40 190 C-43.3 190 -46.6 190 -50 190 C-50 196.6 -50 203.2 -50 210 C-53.3 210 -56.6 210 -60 210 C-60 216.6 -60 223.2 -60 230 C-63.3 230 -66.6 230 -70 230 C-70 236.6 -70 243.2 -70 250 C-73.3 250 -76.6 250 -80 250 C-80 253.3 -80 256.6 -80 260 C-83.3 260 -86.6 260 -90 260 C-90 263.3 -90 266.6 -90 270 C-93.3 270 -96.6 270 -100 270 C-100 273.3 -100 276.6 -100 280 C-103.3 280 -106.6 280 -110 280 C-110 283.3 -110 286.6 -110 290 C-113.3 290 -116.6 290 -120 290 C-120 293.3 -120 296.6 -120 300 C-126.6 300 -133.2 300 -140 300 C-140 303.3 -140 306.6 -140 310 C-143.3 310 -146.6 310 -150 310 C-150 313.3 -150 316.6 -150 320 C-156.6 320 -163.2 320 -170 320 C-170 323.3 -170 326.6 -170 330 C-173.3 330 -176.6 330 -180 330 C-180 333.3 -180 336.6 -180 340 C-186.6 340 -193.2 340 -200 340 C-200 343.3 -200 346.6 -200 350 C-203.3 350 -206.6 350 -210 350 C-210 353.3 -210 356.6 -210 360 C-216.6 360 -223.2 360 -230 360 C-230 363.3 -230 366.6 -230 370 C-236.6 370 -243.2 370 -250 370 C-250 366.7 -250 363.4 -250 360 C-246.7 360 -243.4 360 -240 360 C-240 356.7 -240 353.4 -240 350 C-236.7 350 -233.4 350 -230 350 C-230 346.7 -230 343.4 -230 340 C-226.7 340 -223.4 340 -220 340 C-220 333.4 -220 326.8 -220 320 C-216.7 320 -213.4 320 -210 320 C-210 313.4 -210 306.8 -210 300 C-206.7 300 -203.4 300 -200 300 C-200 293.4 -200 286.8 -200 280 C-196.7 280 -193.4 280 -190 280 C-190 273.4 -190 266.8 -190 260 C-186.7 260 -183.4 260 -180 260 C-180 253.4 -180 246.8 -180 240 C-176.7 240 -173.4 240 -170 240 C-170 233.4 -170 226.8 -170 220 C-166.7 220 -163.4 220 -160 220 C-160 213.4 -160 206.8 -160 200 C-156.7 200 -153.4 200 -150 200 C-150 196.7 -150 193.4 -150 190 C-143.4 190 -136.8 190 -130 190 C-130 186.7 -130 183.4 -130 180 C-126.7 180 -123.4 180 -120 180 C-120 176.7 -120 173.4 -120 170 C-113.4 170 -106.8 170 -100 170 C-100 166.7 -100 163.4 -100 160 C-96.7 160 -93.4 160 -90 160 C-90 156.7 -90 153.4 -90 150 C-86.7 150 -83.4 150 -80 150 C-80 146.7 -80 143.4 -80 140 C-76.7 140 -73.4 140 -70 140 C-70 136.7 -70 133.4 -70 130 C-66.7 130 -63.4 130 -60 130 C-60 126.7 -60 123.4 -60 120 C-56.7 120 -53.4 120 -50 120 C-50 113.4 -50 106.8 -50 100 C-46.7 100 -43.4 100 -40 100 C-40 96.7 -40 93.4 -40 90 C-36.7 90 -33.4 90 -30 90 C-30 83.4 -30 76.8 -30 70 C-26.7 70 -23.4 70 -20 70 C-20 63.4 -20 56.8 -20 50 C-16.7 50 -13.4 50 -10 50 C-10 43.4 -10 36.8 -10 30 C-6.7 30 -3.4 30 0 30 C0 20.1 0 10.2 0 0 Z " fill="#8400B4" transform="translate(1140,820)"/>
<path d="M0 0 C3.3 0 6.6 0 10 0 C10 13.2 10 26.4 10 40 C13.3 40 16.6 40 20 40 C20 86.2 20 132.4 20 180 C16.7 180 13.4 180 10 180 C10 189.9 10 199.8 10 210 C6.7 210 3.4 210 0 210 C0 216.6 0 223.2 0 230 C-3.3 230 -6.6 230 -10 230 C-10 236.6 -10 243.2 -10 250 C-13.3 250 -16.6 250 -20 250 C-20 256.6 -20 263.2 -20 270 C-23.3 270 -26.6 270 -30 270 C-30 273.3 -30 276.6 -30 280 C-33.3 280 -36.6 280 -40 280 C-40 286.6 -40 293.2 -40 300 C-43.3 300 -46.6 300 -50 300 C-50 303.3 -50 306.6 -50 310 C-53.3 310 -56.6 310 -60 310 C-60 313.3 -60 316.6 -60 320 C-63.3 320 -66.6 320 -70 320 C-70 323.3 -70 326.6 -70 330 C-73.3 330 -76.6 330 -80 330 C-80 333.3 -80 336.6 -80 340 C-83.3 340 -86.6 340 -90 340 C-90 343.3 -90 346.6 -90 350 C-96.6 350 -103.2 350 -110 350 C-110 353.3 -110 356.6 -110 360 C-113.3 360 -116.6 360 -120 360 C-120 363.3 -120 366.6 -120 370 C-126.6 370 -133.2 370 -140 370 C-140 373.3 -140 376.6 -140 380 C-143.3 380 -146.6 380 -150 380 C-150 373.4 -150 366.8 -150 360 C-146.7 360 -143.4 360 -140 360 C-140 336.9 -140 313.8 -140 290 C-136.7 290 -133.4 290 -130 290 C-130 286.7 -130 283.4 -130 280 C-126.7 280 -123.4 280 -120 280 C-120 276.7 -120 273.4 -120 270 C-116.7 270 -113.4 270 -110 270 C-110 266.7 -110 263.4 -110 260 C-106.7 260 -103.4 260 -100 260 C-100 256.7 -100 253.4 -100 250 C-96.7 250 -93.4 250 -90 250 C-90 246.7 -90 243.4 -90 240 C-86.7 240 -83.4 240 -80 240 C-80 236.7 -80 233.4 -80 230 C-76.7 230 -73.4 230 -70 230 C-70 226.7 -70 223.4 -70 220 C-66.7 220 -63.4 220 -60 220 C-60 216.7 -60 213.4 -60 210 C-56.7 210 -53.4 210 -50 210 C-50 203.4 -50 196.8 -50 190 C-46.7 190 -43.4 190 -40 190 C-40 183.4 -40 176.8 -40 170 C-36.7 170 -33.4 170 -30 170 C-30 160.1 -30 150.2 -30 140 C-26.7 140 -23.4 140 -20 140 C-20 130.1 -20 120.2 -20 110 C-16.7 110 -13.4 110 -10 110 C-10 96.8 -10 83.6 -10 70 C-6.7 70 -3.4 70 0 70 C0 46.9 0 23.8 0 0 Z " fill="#0059AD" transform="translate(1130,640)"/>
<path d="M0 0 C23.1 0 46.2 0 70 0 C70 13.2 70 26.4 70 40 C66.7 40 63.4 40 60 40 C60 59.8 60 79.6 60 100 C63.3 100 66.6 100 70 100 C70 103.3 70 106.6 70 110 C76.6 110 83.2 110 90 110 C90 106.7 90 103.4 90 100 C93.3 100 96.6 100 100 100 C100 83.5 100 67 100 50 C93.4 50 86.8 50 80 50 C80 43.4 80 36.8 80 30 C86.6 30 93.2 30 100 30 C100 26.7 100 23.4 100 20 C93.4 20 86.8 20 80 20 C80 13.4 80 6.8 80 0 C103.1 0 126.2 0 150 0 C150 13.2 150 26.4 150 40 C146.7 40 143.4 40 140 40 C140 63.1 140 86.2 140 110 C136.7 110 133.4 110 130 110 C130 113.3 130 116.6 130 120 C126.7 120 123.4 120 120 120 C120 123.3 120 126.6 120 130 C116.7 130 113.4 130 110 130 C110 133.3 110 136.6 110 140 C106.7 140 103.4 140 100 140 C100 149.9 100 159.8 100 170 C106.6 170 113.2 170 120 170 C120 176.6 120 183.2 120 190 C116.7 190 113.4 190 110 190 C110 193.3 110 196.6 110 200 C113.3 200 116.6 200 120 200 C120 203.3 120 206.6 120 210 C96.9 210 73.8 210 50 210 C50 200.1 50 190.2 50 180 C53.3 180 56.6 180 60 180 C60 166.8 60 153.6 60 140 C56.7 140 53.4 140 50 140 C50 136.7 50 133.4 50 130 C46.7 130 43.4 130 40 130 C40 126.7 40 123.4 40 120 C36.7 120 33.4 120 30 120 C30 116.7 30 113.4 30 110 C26.7 110 23.4 110 20 110 C20 90.2 20 70.4 20 50 C13.4 50 6.8 50 0 50 C0 43.4 0 36.8 0 30 C6.6 30 13.2 30 20 30 C20 26.7 20 23.4 20 20 C13.4 20 6.8 20 0 20 C0 13.4 0 6.8 0 0 Z " fill="#00C7FF" transform="translate(530,790)"/>
<path d="M0 0 C26.4 0 52.8 0 80 0 C80 3.3 80 6.6 80 10 C83.3 10 86.6 10 90 10 C90 13.3 90 16.6 90 20 C93.3 20 96.6 20 100 20 C100 23.3 100 26.6 100 30 C103.3 30 106.6 30 110 30 C110 43.2 110 56.4 110 70 C106.7 70 103.4 70 100 70 C100 73.3 100 76.6 100 80 C96.7 80 93.4 80 90 80 C90 83.3 90 86.6 90 90 C93.3 90 96.6 90 100 90 C100 93.3 100 96.6 100 100 C103.3 100 106.6 100 110 100 C110 103.3 110 106.6 110 110 C113.3 110 116.6 110 120 110 C120 116.6 120 123.2 120 130 C116.7 130 113.4 130 110 130 C110 133.3 110 136.6 110 140 C113.3 140 116.6 140 120 140 C120 143.3 120 146.6 120 150 C103.5 150 87 150 70 150 C70 140.1 70 130.2 70 120 C73.3 120 76.6 120 80 120 C80 116.7 80 113.4 80 110 C76.7 110 73.4 110 70 110 C70 106.7 70 103.4 70 100 C60.1 100 50.2 100 40 100 C40 103.3 40 106.6 40 110 C43.3 110 46.6 110 50 110 C50 116.6 50 123.2 50 130 C46.7 130 43.4 130 40 130 C40 133.3 40 136.6 40 140 C43.3 140 46.6 140 50 140 C50 143.3 50 146.6 50 150 C33.5 150 17 150 0 150 C0 140.1 0 130.2 0 120 C3.3 120 6.6 120 10 120 C10 93.6 10 67.2 10 40 C6.7 40 3.4 40 0 40 C0 33.4 0 26.8 0 20 C3.3 20 6.6 20 10 20 C10 16.7 10 13.4 10 10 C6.7 10 3.4 10 0 10 C0 6.7 0 3.4 0 0 Z " fill="#00C7FF" transform="translate(150,600)"/>
<path d="M0 0 C13.2 0 26.4 0 40 0 C40 3.3 40 6.6 40 10 C43.3 10 46.6 10 50 10 C50 13.3 50 16.6 50 20 C53.3 20 56.6 20 60 20 C60 23.3 60 26.6 60 30 C63.3 30 66.6 30 70 30 C70 56.4 70 82.8 70 110 C73.3 110 76.6 110 80 110 C80 116.6 80 123.2 80 130 C76.7 130 73.4 130 70 130 C70 133.3 70 136.6 70 140 C73.3 140 76.6 140 80 140 C80 143.3 80 146.6 80 150 C63.5 150 47 150 30 150 C30 140.1 30 130.2 30 120 C33.3 120 36.6 120 40 120 C40 110.1 40 100.2 40 90 C26.8 90 13.6 90 0 90 C0 96.6 0 103.2 0 110 C3.3 110 6.6 110 10 110 C10 116.6 10 123.2 10 130 C6.7 130 3.4 130 0 130 C0 133.3 0 136.6 0 140 C3.3 140 6.6 140 10 140 C10 143.3 10 146.6 10 150 C-6.5 150 -23 150 -40 150 C-40 140.1 -40 130.2 -40 120 C-36.7 120 -33.4 120 -30 120 C-30 90.3 -30 60.6 -30 30 C-26.7 30 -23.4 30 -20 30 C-20 26.7 -20 23.4 -20 20 C-16.7 20 -13.4 20 -10 20 C-10 16.7 -10 13.4 -10 10 C-6.7 10 -3.4 10 0 10 C0 6.7 0 3.4 0 0 Z " fill="#00C7FF" transform="translate(330,600)"/>
<path d="M0 0 C3.3 0 6.6 0 10 0 C10 6.6 10 13.2 10 20 C13.3 20 16.6 20 20 20 C20 26.6 20 33.2 20 40 C23.3 40 26.6 40 30 40 C30 43.3 30 46.6 30 50 C33.3 50 36.6 50 40 50 C40 56.6 40 63.2 40 70 C43.3 70 46.6 70 50 70 C50 73.3 50 76.6 50 80 C53.3 80 56.6 80 60 80 C60 83.3 60 86.6 60 90 C63.3 90 66.6 90 70 90 C70 93.3 70 96.6 70 100 C73.3 100 76.6 100 80 100 C80 103.3 80 106.6 80 110 C86.6 110 93.2 110 100 110 C100 113.3 100 116.6 100 120 C106.6 120 113.2 120 120 120 C120 123.3 120 126.6 120 130 C126.6 130 133.2 130 140 130 C140 133.3 140 136.6 140 140 C146.6 140 153.2 140 160 140 C160 143.3 160 146.6 160 150 C166.6 150 173.2 150 180 150 C180 153.3 180 156.6 180 160 C189.9 160 199.8 160 210 160 C210 163.3 210 166.6 210 170 C223.2 170 236.4 170 250 170 C250 173.3 250 176.6 250 180 C319.3 180 388.6 180 460 180 C460 176.7 460 173.4 460 170 C476.5 170 493 170 510 170 C510 166.7 510 163.4 510 160 C519.9 160 529.8 160 540 160 C540 163.3 540 166.6 540 170 C536.7 170 533.4 170 530 170 C530 173.3 530 176.6 530 180 C520.1 180 510.2 180 500 180 C500 183.3 500 186.6 500 190 C486.8 190 473.6 190 460 190 C460 193.3 460 196.6 460 200 C390.7 200 321.4 200 250 200 C250 196.7 250 193.4 250 190 C236.8 190 223.6 190 210 190 C210 186.7 210 183.4 210 180 C200.1 180 190.2 180 180 180 C180 176.7 180 173.4 180 170 C173.4 170 166.8 170 160 170 C160 166.7 160 163.4 160 160 C153.4 160 146.8 160 140 160 C140 156.7 140 153.4 140 150 C133.4 150 126.8 150 120 150 C120 146.7 120 143.4 120 140 C113.4 140 106.8 140 100 140 C100 136.7 100 133.4 100 130 C93.4 130 86.8 130 80 130 C80 126.7 80 123.4 80 120 C76.7 120 73.4 120 70 120 C70 116.7 70 113.4 70 110 C66.7 110 63.4 110 60 110 C60 106.7 60 103.4 60 100 C56.7 100 53.4 100 50 100 C50 96.7 50 93.4 50 90 C46.7 90 43.4 90 40 90 C40 86.7 40 83.4 40 80 C36.7 80 33.4 80 30 80 C30 76.7 30 73.4 30 70 C26.7 70 23.4 70 20 70 C20 63.4 20 56.8 20 50 C16.7 50 13.4 50 10 50 C10 46.7 10 43.4 10 40 C6.7 40 3.4 40 0 40 C0 33.4 0 26.8 0 20 C-3.3 20 -6.6 20 -10 20 C-10 16.7 -10 13.4 -10 10 C-6.7 10 -3.4 10 0 10 C0 6.7 0 3.4 0 0 Z " fill="#B2E3F2" transform="translate(320,1030)"/>
<path d="M0 0 C33 0 66 0 100 0 C100 3.3 100 6.6 100 10 C96.7 10 93.4 10 90 10 C90 13.3 90 16.6 90 20 C93.3 20 96.6 20 100 20 C100 26.6 100 33.2 100 40 C90.1 40 80.2 40 70 40 C70 36.7 70 33.4 70 30 C60.1 30 50.2 30 40 30 C40 39.9 40 49.8 40 60 C53.2 60 66.4 60 80 60 C80 66.6 80 73.2 80 80 C76.7 80 73.4 80 70 80 C70 83.3 70 86.6 70 90 C60.1 90 50.2 90 40 90 C40 96.6 40 103.2 40 110 C49.9 110 59.8 110 70 110 C70 106.7 70 103.4 70 100 C79.9 100 89.8 100 100 100 C100 109.9 100 119.8 100 130 C96.7 130 93.4 130 90 130 C90 133.3 90 136.6 90 140 C93.3 140 96.6 140 100 140 C100 143.3 100 146.6 100 150 C67 150 34 150 0 150 C0 143.4 0 136.8 0 130 C3.3 130 6.6 130 10 130 C10 97 10 64 10 30 C6.7 30 3.4 30 0 30 C0 26.7 0 23.4 0 20 C3.3 20 6.6 20 10 20 C10 16.7 10 13.4 10 10 C6.7 10 3.4 10 0 10 C0 6.7 0 3.4 0 0 Z " fill="#00C7FF" transform="translate(570,600)"/>
<path d="M0 0 C23.1 0 46.2 0 70 0 C70 3.3 70 6.6 70 10 C73.3 10 76.6 10 80 10 C80 16.6 80 23.2 80 30 C56.9 30 33.8 30 10 30 C10 33.3 10 36.6 10 40 C6.7 40 3.4 40 0 40 C0 56.5 0 73 0 90 C3.3 90 6.6 90 10 90 C10 93.3 10 96.6 10 100 C13.3 100 16.6 100 20 100 C20 103.3 20 106.6 20 110 C26.6 110 33.2 110 40 110 C40 106.7 40 103.4 40 100 C46.6 100 53.2 100 60 100 C60 93.4 60 86.8 60 80 C69.9 80 79.8 80 90 80 C90 89.9 90 99.8 90 110 C86.7 110 83.4 110 80 110 C80 113.3 80 116.6 80 120 C76.7 120 73.4 120 70 120 C70 123.3 70 126.6 70 130 C63.4 130 56.8 130 50 130 C50 133.3 50 136.6 50 140 C36.8 140 23.6 140 10 140 C10 136.7 10 133.4 10 130 C3.4 130 -3.2 130 -10 130 C-10 126.7 -10 123.4 -10 120 C-13.3 120 -16.6 120 -20 120 C-20 113.4 -20 106.8 -20 100 C-23.3 100 -26.6 100 -30 100 C-30 76.9 -30 53.8 -30 30 C-26.7 30 -23.4 30 -20 30 C-20 26.7 -20 23.4 -20 20 C-16.7 20 -13.4 20 -10 20 C-10 16.7 -10 13.4 -10 10 C-6.7 10 -3.4 10 0 10 C0 6.7 0 3.4 0 0 Z " fill="#00C7FF" transform="translate(460,600)"/>
<path d="M0 0 C6.6 0 13.2 0 20 0 C20 3.3 20 6.6 20 10 C36.5 10 53 10 70 10 C70 13.3 70 16.6 70 20 C66.7 20 63.4 20 60 20 C60 23.3 60 26.6 60 30 C56.7 30 53.4 30 50 30 C50 36.6 50 43.2 50 50 C53.3 50 56.6 50 60 50 C60 53.3 60 56.6 60 60 C63.3 60 66.6 60 70 60 C70 63.3 70 66.6 70 70 C73.3 70 76.6 70 80 70 C80 73.3 80 76.6 80 80 C83.3 80 86.6 80 90 80 C90 83.3 90 86.6 90 90 C93.3 90 96.6 90 100 90 C100 93.3 100 96.6 100 100 C93.4 100 86.8 100 80 100 C80 96.7 80 93.4 80 90 C76.7 90 73.4 90 70 90 C70 93.3 70 96.6 70 100 C63.4 100 56.8 100 50 100 C50 113.2 50 126.4 50 140 C46.7 140 43.4 140 40 140 C40 136.7 40 133.4 40 130 C33.4 130 26.8 130 20 130 C20 126.7 20 123.4 20 120 C16.7 120 13.4 120 10 120 C10 116.7 10 113.4 10 110 C6.7 110 3.4 110 0 110 C0 106.7 0 103.4 0 100 C-3.3 100 -6.6 100 -10 100 C-10 90.1 -10 80.2 -10 70 C-3.4 70 3.2 70 10 70 C10 63.4 10 56.8 10 50 C3.4 50 -3.2 50 -10 50 C-10 36.8 -10 23.6 -10 10 C-6.7 10 -3.4 10 0 10 C0 6.7 0 3.4 0 0 Z " fill="#FFB938" transform="translate(730,670)"/>
<path d="M0 0 C3.3 0 6.6 0 10 0 C10 3.3 10 6.6 10 10 C13.3 10 16.6 10 20 10 C20 13.3 20 16.6 20 20 C23.3 20 26.6 20 30 20 C30 23.3 30 26.6 30 30 C33.3 30 36.6 30 40 30 C40 36.6 40 43.2 40 50 C43.3 50 46.6 50 50 50 C50 56.6 50 63.2 50 70 C43.4 70 36.8 70 30 70 C30 63.4 30 56.8 30 50 C26.7 50 23.4 50 20 50 C20 46.7 20 43.4 20 40 C16.7 40 13.4 40 10 40 C10 49.9 10 59.8 10 70 C13.3 70 16.6 70 20 70 C20 76.6 20 83.2 20 90 C13.4 90 6.8 90 0 90 C0 86.7 0 83.4 0 80 C-3.3 80 -6.6 80 -10 80 C-10 76.7 -10 73.4 -10 70 C-6.7 70 -3.4 70 0 70 C0 46.9 0 23.8 0 0 Z " fill="#BF0200" transform="translate(860,1010)"/>
<path d="M0 0 C9.9 0 19.8 0 30 0 C30 3.3 30 6.6 30 10 C36.6 10 43.2 10 50 10 C50 13.3 50 16.6 50 20 C53.3 20 56.6 20 60 20 C60 23.3 60 26.6 60 30 C63.3 30 66.6 30 70 30 C70 36.6 70 43.2 70 50 C73.3 50 76.6 50 80 50 C80 63.2 80 76.4 80 90 C73.4 90 66.8 90 60 90 C60 80.1 60 70.2 60 60 C56.7 60 53.4 60 50 60 C50 53.4 50 46.8 50 40 C46.7 40 43.4 40 40 40 C40 36.7 40 33.4 40 30 C36.7 30 33.4 30 30 30 C30 26.7 30 23.4 30 20 C26.7 20 23.4 20 20 20 C20 16.7 20 13.4 20 10 C13.4 10 6.8 10 0 10 C0 6.7 0 3.4 0 0 Z " fill="#BF0200" transform="translate(960,180)"/>
<path d="M0 0 C9.9 0 19.8 0 30 0 C30 3.3 30 6.6 30 10 C33.3 10 36.6 10 40 10 C40 16.6 40 23.2 40 30 C33.4 30 26.8 30 20 30 C20 43.2 20 56.4 20 70 C16.7 70 13.4 70 10 70 C10 66.7 10 63.4 10 60 C3.4 60 -3.2 60 -10 60 C-10 56.7 -10 53.4 -10 50 C-13.3 50 -16.6 50 -20 50 C-20 46.7 -20 43.4 -20 40 C-13.4 40 -6.8 40 0 40 C0 43.3 0 46.6 0 50 C3.3 50 6.6 50 10 50 C10 43.4 10 36.8 10 30 C6.7 30 3.4 30 0 30 C0 26.7 0 23.4 0 20 C-3.3 20 -6.6 20 -10 20 C-10 16.7 -10 13.4 -10 10 C-6.7 10 -3.4 10 0 10 C0 6.7 0 3.4 0 0 Z " fill="#D09203" transform="translate(760,740)"/>
<path d="M0 0 C6.6 0 13.2 0 20 0 C20 3.3 20 6.6 20 10 C23.3 10 26.6 10 30 10 C30 23.2 30 36.4 30 50 C26.7 50 23.4 50 20 50 C20 53.3 20 56.6 20 60 C13.4 60 6.8 60 0 60 C0 56.7 0 53.4 0 50 C-3.3 50 -6.6 50 -10 50 C-10 36.8 -10 23.6 -10 10 C-6.7 10 -3.4 10 0 10 C0 6.7 0 3.4 0 0 Z " fill="#21181B" transform="translate(860,250)"/>
<path d="M0 0 C13.2 0 26.4 0 40 0 C40 3.3 40 6.6 40 10 C36.7 10 33.4 10 30 10 C30 16.6 30 23.2 30 30 C26.7 30 23.4 30 20 30 C20 39.9 20 49.8 20 60 C23.3 60 26.6 60 30 60 C30 69.9 30 79.8 30 90 C26.7 90 23.4 90 20 90 C20 86.7 20 83.4 20 80 C16.7 80 13.4 80 10 80 C10 73.4 10 66.8 10 60 C6.7 60 3.4 60 0 60 C0 50.1 0 40.2 0 30 C3.3 30 6.6 30 10 30 C10 26.7 10 23.4 10 20 C13.3 20 16.6 20 20 20 C20 16.7 20 13.4 20 10 C13.4 10 6.8 10 0 10 C0 6.7 0 3.4 0 0 Z " fill="#BF0200" transform="translate(710,1040)"/>
<path d="M0 0 C6.6 0 13.2 0 20 0 C20 3.3 20 6.6 20 10 C23.3 10 26.6 10 30 10 C30 13.3 30 16.6 30 20 C33.3 20 36.6 20 40 20 C40 26.6 40 33.2 40 40 C20.2 40 0.4 40 -20 40 C-20 33.4 -20 26.8 -20 20 C-16.7 20 -13.4 20 -10 20 C-10 16.7 -10 13.4 -10 10 C-6.7 10 -3.4 10 0 10 C0 6.7 0 3.4 0 0 Z " fill="#21181B" transform="translate(420,840)"/>
<path d="M0 0 C6.6 0 13.2 0 20 0 C20 3.3 20 6.6 20 10 C23.3 10 26.6 10 30 10 C30 13.3 30 16.6 30 20 C33.3 20 36.6 20 40 20 C40 26.6 40 33.2 40 40 C20.2 40 0.4 40 -20 40 C-20 33.4 -20 26.8 -20 20 C-16.7 20 -13.4 20 -10 20 C-10 16.7 -10 13.4 -10 10 C-6.7 10 -3.4 10 0 10 C0 6.7 0 3.4 0 0 Z " fill="#21181B" transform="translate(590,380)"/>
<path d="M0 0 C13.2 0 26.4 0 40 0 C40 13.2 40 26.4 40 40 C26.8 40 13.6 40 0 40 C0 26.8 0 13.6 0 0 Z " fill="#11A2DB" transform="translate(850,810)"/>
<path d="M0 0 C13.2 0 26.4 0 40 0 C40 13.2 40 26.4 40 40 C26.8 40 13.6 40 0 40 C0 26.8 0 13.6 0 0 Z " fill="#B2E3F2" transform="translate(740,480)"/>
<path d="M0 0 C13.2 0 26.4 0 40 0 C40 13.2 40 26.4 40 40 C26.8 40 13.6 40 0 40 C0 26.8 0 13.6 0 0 Z " fill="#B2E3F2" transform="translate(810,430)"/>
<path d="M0 0 C3.3 0 6.6 0 10 0 C10 13.2 10 26.4 10 40 C6.7 40 3.4 40 0 40 C0 43.3 0 46.6 0 50 C-3.3 50 -6.6 50 -10 50 C-10 53.3 -10 56.6 -10 60 C-13.3 60 -16.6 60 -20 60 C-20 63.3 -20 66.6 -20 70 C-23.3 70 -26.6 70 -30 70 C-30 73.3 -30 76.6 -30 80 C-33.3 80 -36.6 80 -40 80 C-40 83.3 -40 86.6 -40 90 C-43.3 90 -46.6 90 -50 90 C-50 80.1 -50 70.2 -50 60 C-43.4 60 -36.8 60 -30 60 C-30 56.7 -30 53.4 -30 50 C-26.7 50 -23.4 50 -20 50 C-20 46.7 -20 43.4 -20 40 C-16.7 40 -13.4 40 -10 40 C-10 36.7 -10 33.4 -10 30 C-6.7 30 -3.4 30 0 30 C0 26.7 0 23.4 0 20 C-3.3 20 -6.6 20 -10 20 C-10 16.7 -10 13.4 -10 10 C-6.7 10 -3.4 10 0 10 C0 6.7 0 3.4 0 0 Z " fill="#BF0200" transform="translate(970,300)"/>
<path d="M0 0 C9.9 0 19.8 0 30 0 C30 3.3 30 6.6 30 10 C33.3 10 36.6 10 40 10 C40 16.6 40 23.2 40 30 C36.7 30 33.4 30 30 30 C30 33.3 30 36.6 30 40 C23.4 40 16.8 40 10 40 C10 43.3 10 46.6 10 50 C6.7 50 3.4 50 0 50 C0 33.5 0 17 0 0 Z " fill="#21181B" transform="translate(190,630)"/>
<path d="M0 0 C13.2 0 26.4 0 40 0 C40 13.2 40 26.4 40 40 C36.7 40 33.4 40 30 40 C30 36.7 30 33.4 30 30 C20.1 30 10.2 30 0 30 C0 20.1 0 10.2 0 0 Z " fill="#21181B" transform="translate(330,630)"/>
<path d="M0 0 C6.6 0 13.2 0 20 0 C20 3.3 20 6.6 20 10 C23.3 10 26.6 10 30 10 C30 16.6 30 23.2 30 30 C26.7 30 23.4 30 20 30 C20 33.3 20 36.6 20 40 C13.4 40 6.8 40 0 40 C0 36.7 0 33.4 0 30 C-3.3 30 -6.6 30 -10 30 C-10 23.4 -10 16.8 -10 10 C-6.7 10 -3.4 10 0 10 C0 6.7 0 3.4 0 0 Z " fill="#21181B" transform="translate(830,940)"/>
<path d="M0 0 C6.6 0 13.2 0 20 0 C20 3.3 20 6.6 20 10 C23.3 10 26.6 10 30 10 C30 16.6 30 23.2 30 30 C26.7 30 23.4 30 20 30 C20 33.3 20 36.6 20 40 C13.4 40 6.8 40 0 40 C0 36.7 0 33.4 0 30 C-3.3 30 -6.6 30 -10 30 C-10 23.4 -10 16.8 -10 10 C-6.7 10 -3.4 10 0 10 C0 6.7 0 3.4 0 0 Z " fill="#21181B" transform="translate(760,940)"/>
<path d="M0 0 C3.3 0 6.6 0 10 0 C10 3.3 10 6.6 10 10 C13.3 10 16.6 10 20 10 C20 13.3 20 16.6 20 20 C16.7 20 13.4 20 10 20 C10 29.9 10 39.8 10 50 C13.3 50 16.6 50 20 50 C20 56.6 20 63.2 20 70 C13.4 70 6.8 70 0 70 C0 66.7 0 63.4 0 60 C-3.3 60 -6.6 60 -10 60 C-10 56.7 -10 53.4 -10 50 C-6.7 50 -3.4 50 0 50 C0 33.5 0 17 0 0 Z " fill="#21181B" transform="translate(860,1030)"/>
<path d="M0 0 C3.3 0 6.6 0 10 0 C10 3.3 10 6.6 10 10 C16.6 10 23.2 10 30 10 C30 19.9 30 29.8 30 40 C26.7 40 23.4 40 20 40 C20 36.7 20 33.4 20 30 C16.7 30 13.4 30 10 30 C10 36.6 10 43.2 10 50 C6.7 50 3.4 50 0 50 C0 33.5 0 17 0 0 Z " fill="#21181B" transform="translate(820,1040)"/>
<path d="M0 0 C3.3 0 6.6 0 10 0 C10 16.5 10 33 10 50 C13.3 50 16.6 50 20 50 C20 53.3 20 56.6 20 60 C6.8 60 -6.4 60 -20 60 C-20 56.7 -20 53.4 -20 50 C-16.7 50 -13.4 50 -10 50 C-10 46.7 -10 43.4 -10 40 C-6.7 40 -3.4 40 0 40 C0 26.8 0 13.6 0 0 Z " fill="#BF0200" transform="translate(880,930)"/>
<path d="M0 0 C3.3 0 6.6 0 10 0 C10 23.1 10 46.2 10 70 C13.3 70 16.6 70 20 70 C20 73.3 20 76.6 20 80 C16.7 80 13.4 80 10 80 C10 83.3 10 86.6 10 90 C6.7 90 3.4 90 0 90 C0 60.3 0 30.6 0 0 Z " fill="#21181B" transform="translate(720,910)"/>
<path d="M0 0 C9.9 0 19.8 0 30 0 C30 9.9 30 19.8 30 30 C20.1 30 10.2 30 0 30 C0 20.1 0 10.2 0 0 Z " fill="#B2E3F2" transform="translate(600,1150)"/>
<path d="M0 0 C3.3 0 6.6 0 10 0 C10 19.8 10 39.6 10 60 C6.7 60 3.4 60 0 60 C0 63.3 0 66.6 0 70 C-3.3 70 -6.6 70 -10 70 C-10 60.1 -10 50.2 -10 40 C-6.7 40 -3.4 40 0 40 C0 26.8 0 13.6 0 0 Z " fill="#21181B" transform="translate(830,1090)"/>
<path d="M0 0 C3.3 0 6.6 0 10 0 C10 13.2 10 26.4 10 40 C13.3 40 16.6 40 20 40 C20 46.6 20 53.2 20 60 C16.7 60 13.4 60 10 60 C10 63.3 10 66.6 10 70 C6.7 70 3.4 70 0 70 C0 46.9 0 23.8 0 0 Z " fill="#21181B" transform="translate(660,1050)"/>
<path d="M0 0 C9.9 0 19.8 0 30 0 C30 9.9 30 19.8 30 30 C20.1 30 10.2 30 0 30 C0 20.1 0 10.2 0 0 Z " fill="#11A2DB" transform="translate(930,960)"/>
<path d="M0 0 C9.9 0 19.8 0 30 0 C30 9.9 30 19.8 30 30 C20.1 30 10.2 30 0 30 C0 20.1 0 10.2 0 0 Z " fill="#11A2DB" transform="translate(910,890)"/>
<path d="M0 0 C9.9 0 19.8 0 30 0 C30 9.9 30 19.8 30 30 C20.1 30 10.2 30 0 30 C0 20.1 0 10.2 0 0 Z " fill="#11A2DB" transform="translate(720,840)"/>
<path d="M0 0 C9.9 0 19.8 0 30 0 C30 6.6 30 13.2 30 20 C23.4 20 16.8 20 10 20 C10 26.6 10 33.2 10 40 C6.7 40 3.4 40 0 40 C0 33.4 0 26.8 0 20 C-3.3 20 -6.6 20 -10 20 C-10 16.7 -10 13.4 -10 10 C-6.7 10 -3.4 10 0 10 C0 6.7 0 3.4 0 0 Z " fill="#FFB938" transform="translate(710,720)"/>
<path d="M0 0 C3.3 0 6.6 0 10 0 C10 6.6 10 13.2 10 20 C13.3 20 16.6 20 20 20 C20 26.6 20 33.2 20 40 C13.4 40 6.8 40 0 40 C0 36.7 0 33.4 0 30 C-3.3 30 -6.6 30 -10 30 C-10 26.7 -10 23.4 -10 20 C-6.7 20 -3.4 20 0 20 C0 13.4 0 6.8 0 0 Z " fill="#BF0200" transform="translate(760,1120)"/>
<path d="M0 0 C6.6 0 13.2 0 20 0 C20 3.3 20 6.6 20 10 C16.7 10 13.4 10 10 10 C10 23.2 10 36.4 10 50 C3.4 50 -3.2 50 -10 50 C-10 46.7 -10 43.4 -10 40 C-6.7 40 -3.4 40 0 40 C0 26.8 0 13.6 0 0 Z " fill="#21181B" transform="translate(780,770)"/>
<path d="M0 0 C6.6 0 13.2 0 20 0 C20 3.3 20 6.6 20 10 C23.3 10 26.6 10 30 10 C30 13.3 30 16.6 30 20 C20.1 20 10.2 20 0 20 C0 23.3 0 26.6 0 30 C-3.3 30 -6.6 30 -10 30 C-10 23.4 -10 16.8 -10 10 C-6.7 10 -3.4 10 0 10 C0 6.7 0 3.4 0 0 Z " fill="#D09203" transform="translate(730,670)"/>
<path d="M0 0 C3.3 0 6.6 0 10 0 C10 13.2 10 26.4 10 40 C6.7 40 3.4 40 0 40 C0 43.3 0 46.6 0 50 C-3.3 50 -6.6 50 -10 50 C-10 43.4 -10 36.8 -10 30 C-6.7 30 -3.4 30 0 30 C0 26.7 0 23.4 0 20 C-3.3 20 -6.6 20 -10 20 C-10 16.7 -10 13.4 -10 10 C-6.7 10 -3.4 10 0 10 C0 6.7 0 3.4 0 0 Z " fill="#BF0200" transform="translate(970,300)"/>
<path d="M0 0 C3.3 0 6.6 0 10 0 C10 16.5 10 33 10 50 C6.7 50 3.4 50 0 50 C0 40.1 0 30.2 0 20 C-3.3 20 -6.6 20 -10 20 C-10 16.7 -10 13.4 -10 10 C-6.7 10 -3.4 10 0 10 C0 6.7 0 3.4 0 0 Z " fill="#21181B" transform="translate(790,1040)"/>
<path d="M0 0 C16.5 0 33 0 50 0 C50 6.6 50 13.2 50 20 C46.7 20 43.4 20 40 20 C40 16.7 40 13.4 40 10 C26.8 10 13.6 10 0 10 C0 6.7 0 3.4 0 0 Z " fill="#21181B" transform="translate(760,670)"/>
<path d="M0 0 C6.6 0 13.2 0 20 0 C20 9.9 20 19.8 20 30 C16.7 30 13.4 30 10 30 C10 26.7 10 23.4 10 20 C6.7 20 3.4 20 0 20 C0 13.4 0 6.8 0 0 Z " fill="#BF0200" transform="translate(720,1100)"/>
<path d="M0 0 C13.2 0 26.4 0 40 0 C40 3.3 40 6.6 40 10 C36.7 10 33.4 10 30 10 C30 13.3 30 16.6 30 20 C26.7 20 23.4 20 20 20 C20 16.7 20 13.4 20 10 C13.4 10 6.8 10 0 10 C0 6.7 0 3.4 0 0 Z " fill="#21181B" transform="translate(710,1040)"/>
<path d="M0 0 C3.3 0 6.6 0 10 0 C10 16.5 10 33 10 50 C6.7 50 3.4 50 0 50 C0 33.5 0 17 0 0 Z " fill="#21181B" transform="translate(880,930)"/>
<path d="M0 0 C16.5 0 33 0 50 0 C50 3.3 50 6.6 50 10 C33.5 10 17 10 0 10 C0 6.7 0 3.4 0 0 Z " fill="#21181B" transform="translate(780,850)"/>
<path d="M0 0 C9.9 0 19.8 0 30 0 C30 3.3 30 6.6 30 10 C26.7 10 23.4 10 20 10 C20 13.3 20 16.6 20 20 C13.4 20 6.8 20 0 20 C0 13.4 0 6.8 0 0 Z " fill="#BF0200" transform="translate(760,370)"/>
<path d="M0 0 C6.6 0 13.2 0 20 0 C20 6.6 20 13.2 20 20 C13.4 20 6.8 20 0 20 C0 13.4 0 6.8 0 0 Z " fill="#B2E3F2" transform="translate(570,1120)"/>
<path d="M0 0 C3.3 0 6.6 0 10 0 C10 9.9 10 19.8 10 30 C6.7 30 3.4 30 0 30 C0 26.7 0 23.4 0 20 C-3.3 20 -6.6 20 -10 20 C-10 16.7 -10 13.4 -10 10 C-6.7 10 -3.4 10 0 10 C0 6.7 0 3.4 0 0 Z " fill="#BF0200" transform="translate(750,1020)"/>
<path d="M0 0 C6.6 0 13.2 0 20 0 C20 3.3 20 6.6 20 10 C16.7 10 13.4 10 10 10 C10 13.3 10 16.6 10 20 C3.4 20 -3.2 20 -10 20 C-10 16.7 -10 13.4 -10 10 C-6.7 10 -3.4 10 0 10 C0 6.7 0 3.4 0 0 Z " fill="#BF0200" transform="translate(700,1000)"/>
<path d="M0 0 C3.3 0 6.6 0 10 0 C10 6.6 10 13.2 10 20 C0.1 20 -9.8 20 -20 20 C-20 16.7 -20 13.4 -20 10 C-13.4 10 -6.8 10 0 10 C0 6.7 0 3.4 0 0 Z " fill="#21181B" transform="translate(830,760)"/>
<path d="M0 0 C6.6 0 13.2 0 20 0 C20 6.6 20 13.2 20 20 C13.4 20 6.8 20 0 20 C0 13.4 0 6.8 0 0 Z " fill="#21181B" transform="translate(720,720)"/>
<path d="M0 0 C3.3 0 6.6 0 10 0 C10 6.6 10 13.2 10 20 C3.4 20 -3.2 20 -10 20 C-10 16.7 -10 13.4 -10 10 C-6.7 10 -3.4 10 0 10 C0 6.7 0 3.4 0 0 Z " fill="#21181B" transform="translate(770,1140)"/>
<path d="M0 0 C3.3 0 6.6 0 10 0 C10 9.9 10 19.8 10 30 C6.7 30 3.4 30 0 30 C0 20.1 0 10.2 0 0 Z " fill="#21181B" transform="translate(750,1090)"/>
<path d="M0 0 C3.3 0 6.6 0 10 0 C10 6.6 10 13.2 10 20 C3.4 20 -3.2 20 -10 20 C-10 16.7 -10 13.4 -10 10 C-6.7 10 -3.4 10 0 10 C0 6.7 0 3.4 0 0 Z " fill="#21181B" transform="translate(870,1080)"/>
<path d="M0 0 C3.3 0 6.6 0 10 0 C10 9.9 10 19.8 10 30 C6.7 30 3.4 30 0 30 C0 20.1 0 10.2 0 0 Z " fill="#21181B" transform="translate(710,1070)"/>
<path d="M0 0 C3.3 0 6.6 0 10 0 C10 9.9 10 19.8 10 30 C6.7 30 3.4 30 0 30 C0 20.1 0 10.2 0 0 Z " fill="#21181B" transform="translate(680,1060)"/>
<path d="M0 0 C3.3 0 6.6 0 10 0 C10 9.9 10 19.8 10 30 C6.7 30 3.4 30 0 30 C0 20.1 0 10.2 0 0 Z " fill="#BF0200" transform="translate(840,1050)"/>
<path d="M0 0 C3.3 0 6.6 0 10 0 C10 9.9 10 19.8 10 30 C6.7 30 3.4 30 0 30 C0 20.1 0 10.2 0 0 Z " fill="#21181B" transform="translate(910,1000)"/>
<path d="M0 0 C3.3 0 6.6 0 10 0 C10 9.9 10 19.8 10 30 C6.7 30 3.4 30 0 30 C0 20.1 0 10.2 0 0 Z " fill="#21181B" transform="translate(870,900)"/>
<path d="M0 0 C6.6 0 13.2 0 20 0 C20 3.3 20 6.6 20 10 C16.7 10 13.4 10 10 10 C10 13.3 10 16.6 10 20 C6.7 20 3.4 20 0 20 C0 13.4 0 6.8 0 0 Z " fill="#FB2701" transform="translate(960,330)"/>
<path d="M0 0 C3.3 0 6.6 0 10 0 C10 6.6 10 13.2 10 20 C6.7 20 3.4 20 0 20 C0 13.4 0 6.8 0 0 Z " fill="#21181B" transform="translate(760,1120)"/>
<path d="M0 0 C3.3 0 6.6 0 10 0 C10 6.6 10 13.2 10 20 C6.7 20 3.4 20 0 20 C0 13.4 0 6.8 0 0 Z " fill="#21181B" transform="translate(810,1110)"/>
<path d="M0 0 C3.3 0 6.6 0 10 0 C10 6.6 10 13.2 10 20 C6.7 20 3.4 20 0 20 C0 13.4 0 6.8 0 0 Z " fill="#21181B" transform="translate(720,1100)"/>
<path d="M0 0 C3.3 0 6.6 0 10 0 C10 6.6 10 13.2 10 20 C6.7 20 3.4 20 0 20 C0 13.4 0 6.8 0 0 Z " fill="#21181B" transform="translate(800,1090)"/>
<path d="M0 0 C6.6 0 13.2 0 20 0 C20 3.3 20 6.6 20 10 C13.4 10 6.8 10 0 10 C0 6.7 0 3.4 0 0 Z " fill="#BF0200" transform="translate(850,1080)"/>
<path d="M0 0 C3.3 0 6.6 0 10 0 C10 6.6 10 13.2 10 20 C6.7 20 3.4 20 0 20 C0 13.4 0 6.8 0 0 Z " fill="#BF0200" transform="translate(800,1070)"/>
<path d="M0 0 C3.3 0 6.6 0 10 0 C10 6.6 10 13.2 10 20 C6.7 20 3.4 20 0 20 C0 13.4 0 6.8 0 0 Z " fill="#21181B" transform="translate(760,1070)"/>
<path d="M0 0 C3.3 0 6.6 0 10 0 C10 6.6 10 13.2 10 20 C6.7 20 3.4 20 0 20 C0 13.4 0 6.8 0 0 Z " fill="#BF0200" transform="translate(670,1070)"/>
<path d="M0 0 C3.3 0 6.6 0 10 0 C10 6.6 10 13.2 10 20 C6.7 20 3.4 20 0 20 C0 13.4 0 6.8 0 0 Z " fill="#BF0200" transform="translate(900,1060)"/>
<path d="M0 0 C3.3 0 6.6 0 10 0 C10 6.6 10 13.2 10 20 C6.7 20 3.4 20 0 20 C0 13.4 0 6.8 0 0 Z " fill="#21181B" transform="translate(890,1060)"/>
<path d="M0 0 C6.6 0 13.2 0 20 0 C20 3.3 20 6.6 20 10 C13.4 10 6.8 10 0 10 C0 6.7 0 3.4 0 0 Z " fill="#BF0200" transform="translate(720,1060)"/>
<path d="M0 0 C6.6 0 13.2 0 20 0 C20 3.3 20 6.6 20 10 C13.4 10 6.8 10 0 10 C0 6.7 0 3.4 0 0 Z " fill="#21181B" transform="translate(690,1050)"/>
<path d="M0 0 C6.6 0 13.2 0 20 0 C20 3.3 20 6.6 20 10 C13.4 10 6.8 10 0 10 C0 6.7 0 3.4 0 0 Z " fill="#BF0200" transform="translate(690,1040)"/>
<path d="M0 0 C3.3 0 6.6 0 10 0 C10 6.6 10 13.2 10 20 C6.7 20 3.4 20 0 20 C0 13.4 0 6.8 0 0 Z " fill="#21181B" transform="translate(670,1030)"/>
<path d="M0 0 C3.3 0 6.6 0 10 0 C10 6.6 10 13.2 10 20 C6.7 20 3.4 20 0 20 C0 13.4 0 6.8 0 0 Z " fill="#BF0200" transform="translate(820,1020)"/>
<path d="M0 0 C6.6 0 13.2 0 20 0 C20 3.3 20 6.6 20 10 C13.4 10 6.8 10 0 10 C0 6.7 0 3.4 0 0 Z " fill="#21181B" transform="translate(700,1000)"/>
<path d="M0 0 C3.3 0 6.6 0 10 0 C10 6.6 10 13.2 10 20 C6.7 20 3.4 20 0 20 C0 13.4 0 6.8 0 0 Z " fill="#BF0200" transform="translate(730,960)"/>
<path d="M0 0 C3.3 0 6.6 0 10 0 C10 6.6 10 13.2 10 20 C6.7 20 3.4 20 0 20 C0 13.4 0 6.8 0 0 Z " fill="#015CB5" transform="translate(540,930)"/>
<path d="M0 0 C3.3 0 6.6 0 10 0 C10 6.6 10 13.2 10 20 C6.7 20 3.4 20 0 20 C0 13.4 0 6.8 0 0 Z " fill="#21181B" transform="translate(730,890)"/>
<path d="M0 0 C3.3 0 6.6 0 10 0 C10 6.6 10 13.2 10 20 C6.7 20 3.4 20 0 20 C0 13.4 0 6.8 0 0 Z " fill="#21181B" transform="translate(860,880)"/>
<path d="M0 0 C6.6 0 13.2 0 20 0 C20 3.3 20 6.6 20 10 C13.4 10 6.8 10 0 10 C0 6.7 0 3.4 0 0 Z " fill="#21181B" transform="translate(830,860)"/>
<path d="M0 0 C6.6 0 13.2 0 20 0 C20 3.3 20 6.6 20 10 C13.4 10 6.8 10 0 10 C0 6.7 0 3.4 0 0 Z " fill="#21181B" transform="translate(760,860)"/>
<path d="M0 0 C6.6 0 13.2 0 20 0 C20 3.3 20 6.6 20 10 C13.4 10 6.8 10 0 10 C0 6.7 0 3.4 0 0 Z " fill="#21181B" transform="translate(750,800)"/>
<path d="M0 0 C3.3 0 6.6 0 10 0 C10 6.6 10 13.2 10 20 C6.7 20 3.4 20 0 20 C0 13.4 0 6.8 0 0 Z " fill="#D09203" transform="translate(710,740)"/>
<path d="M0 0 C3.3 0 6.6 0 10 0 C10 6.6 10 13.2 10 20 C6.7 20 3.4 20 0 20 C0 13.4 0 6.8 0 0 Z " fill="#21181B" transform="translate(780,700)"/>
<path d="M0 0 C3.3 0 6.6 0 10 0 C10 6.6 10 13.2 10 20 C6.7 20 3.4 20 0 20 C0 13.4 0 6.8 0 0 Z " fill="#21181B" transform="translate(720,680)"/>
<path d="M0 0 C6.6 0 13.2 0 20 0 C20 3.3 20 6.6 20 10 C13.4 10 6.8 10 0 10 C0 6.7 0 3.4 0 0 Z " fill="#21181B" transform="translate(730,670)"/>
<path d="M0 0 C6.6 0 13.2 0 20 0 C20 3.3 20 6.6 20 10 C13.4 10 6.8 10 0 10 C0 6.7 0 3.4 0 0 Z " fill="#BF0200" transform="translate(940,170)"/>
<path d="M0 0 C6.6 0 13.2 0 20 0 C20 3.3 20 6.6 20 10 C13.4 10 6.8 10 0 10 C0 6.7 0 3.4 0 0 Z " fill="#BF0200" transform="translate(920,160)"/>
<path d="M0 0 C6.6 0 13.2 0 20 0 C20 3.3 20 6.6 20 10 C13.4 10 6.8 10 0 10 C0 6.7 0 3.4 0 0 Z " fill="#BF0200" transform="translate(920,140)"/>
<path d="M0 0 C6.6 0 13.2 0 20 0 C20 3.3 20 6.6 20 10 C13.4 10 6.8 10 0 10 C0 6.7 0 3.4 0 0 Z " fill="#BF0200" transform="translate(1000,130)"/>
<path d="M0 0 C6.6 0 13.2 0 20 0 C20 3.3 20 6.6 20 10 C13.4 10 6.8 10 0 10 C0 6.7 0 3.4 0 0 Z " fill="#BF0200" transform="translate(1020,120)"/>
<path d="M0 0 C6.6 0 13.2 0 20 0 C20 3.3 20 6.6 20 10 C13.4 10 6.8 10 0 10 C0 6.7 0 3.4 0 0 Z " fill="#BF0200" transform="translate(990,110)"/>
<path d="M0 0 C6.6 0 13.2 0 20 0 C20 3.3 20 6.6 20 10 C13.4 10 6.8 10 0 10 C0 6.7 0 3.4 0 0 Z " fill="#BF0200" transform="translate(920,80)"/>
<path d="M0 0 C3.3 0 6.6 0 10 0 C10 3.3 10 6.6 10 10 C6.7 10 3.4 10 0 10 C0 6.7 0 3.4 0 0 Z " fill="#B2E3F2" transform="translate(860,1180)"/>
<path d="M0 0 C3.3 0 6.6 0 10 0 C10 3.3 10 6.6 10 10 C6.7 10 3.4 10 0 10 C0 6.7 0 3.4 0 0 Z " fill="#21181B" transform="translate(750,1140)"/>
<path d="M0 0 C3.3 0 6.6 0 10 0 C10 3.3 10 6.6 10 10 C6.7 10 3.4 10 0 10 C0 6.7 0 3.4 0 0 Z " fill="#21181B" transform="translate(740,1130)"/>
<path d="M0 0 C3.3 0 6.6 0 10 0 C10 3.3 10 6.6 10 10 C6.7 10 3.4 10 0 10 C0 6.7 0 3.4 0 0 Z " fill="#BF0200" transform="translate(820,1120)"/>
<path d="M0 0 C3.3 0 6.6 0 10 0 C10 3.3 10 6.6 10 10 C6.7 10 3.4 10 0 10 C0 6.7 0 3.4 0 0 Z " fill="#21181B" transform="translate(730,1120)"/>
<path d="M0 0 C3.3 0 6.6 0 10 0 C10 3.3 10 6.6 10 10 C6.7 10 3.4 10 0 10 C0 6.7 0 3.4 0 0 Z " fill="#BF0200" transform="translate(810,1100)"/>
<path d="M0 0 C3.3 0 6.6 0 10 0 C10 3.3 10 6.6 10 10 C6.7 10 3.4 10 0 10 C0 6.7 0 3.4 0 0 Z " fill="#015CB5" transform="translate(920,1080)"/>
<path d="M0 0 C3.3 0 6.6 0 10 0 C10 3.3 10 6.6 10 10 C6.7 10 3.4 10 0 10 C0 6.7 0 3.4 0 0 Z " fill="#21181B" transform="translate(850,1080)"/>
<path d="M0 0 C3.3 0 6.6 0 10 0 C10 3.3 10 6.6 10 10 C6.7 10 3.4 10 0 10 C0 6.7 0 3.4 0 0 Z " fill="#21181B" transform="translate(840,1070)"/>
<path d="M0 0 C3.3 0 6.6 0 10 0 C10 3.3 10 6.6 10 10 C6.7 10 3.4 10 0 10 C0 6.7 0 3.4 0 0 Z " fill="#21181B" transform="translate(770,1060)"/>
<path d="M0 0 C3.3 0 6.6 0 10 0 C10 3.3 10 6.6 10 10 C6.7 10 3.4 10 0 10 C0 6.7 0 3.4 0 0 Z " fill="#21181B" transform="translate(720,1060)"/>
<path d="M0 0 C3.3 0 6.6 0 10 0 C10 3.3 10 6.6 10 10 C6.7 10 3.4 10 0 10 C0 6.7 0 3.4 0 0 Z " fill="#21181B" transform="translate(880,1050)"/>
<path d="M0 0 C3.3 0 6.6 0 10 0 C10 3.3 10 6.6 10 10 C6.7 10 3.4 10 0 10 C0 6.7 0 3.4 0 0 Z " fill="#BF0200" transform="translate(740,1050)"/>
<path d="M0 0 C3.3 0 6.6 0 10 0 C10 3.3 10 6.6 10 10 C6.7 10 3.4 10 0 10 C0 6.7 0 3.4 0 0 Z " fill="#BF0200" transform="translate(680,1050)"/>
<path d="M0 0 C3.3 0 6.6 0 10 0 C10 3.3 10 6.6 10 10 C6.7 10 3.4 10 0 10 C0 6.7 0 3.4 0 0 Z " fill="#BF0200" transform="translate(830,1040)"/>
<path d="M0 0 C3.3 0 6.6 0 10 0 C10 3.3 10 6.6 10 10 C6.7 10 3.4 10 0 10 C0 6.7 0 3.4 0 0 Z " fill="#21181B" transform="translate(680,1020)"/>
<path d="M0 0 C3.3 0 6.6 0 10 0 C10 3.3 10 6.6 10 10 C6.7 10 3.4 10 0 10 C0 6.7 0 3.4 0 0 Z " fill="#21181B" transform="translate(690,1010)"/>
<path d="M0 0 C3.3 0 6.6 0 10 0 C10 3.3 10 6.6 10 10 C6.7 10 3.4 10 0 10 C0 6.7 0 3.4 0 0 Z " fill="#BF0200" transform="translate(800,1000)"/>
<path d="M0 0 C3.3 0 6.6 0 10 0 C10 3.3 10 6.6 10 10 C6.7 10 3.4 10 0 10 C0 6.7 0 3.4 0 0 Z " fill="#21181B" transform="translate(900,990)"/>
<path d="M0 0 C3.3 0 6.6 0 10 0 C10 3.3 10 6.6 10 10 C6.7 10 3.4 10 0 10 C0 6.7 0 3.4 0 0 Z " fill="#BF0200" transform="translate(730,990)"/>
<path d="M0 0 C3.3 0 6.6 0 10 0 C10 3.3 10 6.6 10 10 C6.7 10 3.4 10 0 10 C0 6.7 0 3.4 0 0 Z " fill="#21181B" transform="translate(890,980)"/>
<path d="M0 0 C3.3 0 6.6 0 10 0 C10 3.3 10 6.6 10 10 C6.7 10 3.4 10 0 10 C0 6.7 0 3.4 0 0 Z " fill="#BF0200" transform="translate(740,980)"/>
<path d="M0 0 C3.3 0 6.6 0 10 0 C10 3.3 10 6.6 10 10 C6.7 10 3.4 10 0 10 C0 6.7 0 3.4 0 0 Z " fill="#BF0200" transform="translate(840,910)"/>
<path d="M0 0 C3.3 0 6.6 0 10 0 C10 3.3 10 6.6 10 10 C6.7 10 3.4 10 0 10 C0 6.7 0 3.4 0 0 Z " fill="#BF0200" transform="translate(770,900)"/>
<path d="M0 0 C3.3 0 6.6 0 10 0 C10 3.3 10 6.6 10 10 C6.7 10 3.4 10 0 10 C0 6.7 0 3.4 0 0 Z " fill="#21181B" transform="translate(740,880)"/>
<path d="M0 0 C3.3 0 6.6 0 10 0 C10 3.3 10 6.6 10 10 C6.7 10 3.4 10 0 10 C0 6.7 0 3.4 0 0 Z " fill="#21181B" transform="translate(850,870)"/>
<path d="M0 0 C3.3 0 6.6 0 10 0 C10 3.3 10 6.6 10 10 C6.7 10 3.4 10 0 10 C0 6.7 0 3.4 0 0 Z " fill="#21181B" transform="translate(750,870)"/>
<path d="M0 0 C3.3 0 6.6 0 10 0 C10 3.3 10 6.6 10 10 C6.7 10 3.4 10 0 10 C0 6.7 0 3.4 0 0 Z " fill="#21181B" transform="translate(740,790)"/>
<path d="M0 0 C3.3 0 6.6 0 10 0 C10 3.3 10 6.6 10 10 C6.7 10 3.4 10 0 10 C0 6.7 0 3.4 0 0 Z " fill="#21181B" transform="translate(730,780)"/>
<path d="M0 0 C3.3 0 6.6 0 10 0 C10 3.3 10 6.6 10 10 C6.7 10 3.4 10 0 10 C0 6.7 0 3.4 0 0 Z " fill="#D09203" transform="translate(730,770)"/>
<path d="M0 0 C3.3 0 6.6 0 10 0 C10 3.3 10 6.6 10 10 C6.7 10 3.4 10 0 10 C0 6.7 0 3.4 0 0 Z " fill="#21181B" transform="translate(720,770)"/>
<path d="M0 0 C3.3 0 6.6 0 10 0 C10 3.3 10 6.6 10 10 C6.7 10 3.4 10 0 10 C0 6.7 0 3.4 0 0 Z " fill="#D09203" transform="translate(810,760)"/>
<path d="M0 0 C3.3 0 6.6 0 10 0 C10 3.3 10 6.6 10 10 C6.7 10 3.4 10 0 10 C0 6.7 0 3.4 0 0 Z " fill="#21181B" transform="translate(800,760)"/>
<path d="M0 0 C3.3 0 6.6 0 10 0 C10 3.3 10 6.6 10 10 C6.7 10 3.4 10 0 10 C0 6.7 0 3.4 0 0 Z " fill="#FFB938" transform="translate(770,760)"/>
<path d="M0 0 C3.3 0 6.6 0 10 0 C10 3.3 10 6.6 10 10 C6.7 10 3.4 10 0 10 C0 6.7 0 3.4 0 0 Z " fill="#D09203" transform="translate(720,760)"/>
<path d="M0 0 C3.3 0 6.6 0 10 0 C10 3.3 10 6.6 10 10 C6.7 10 3.4 10 0 10 C0 6.7 0 3.4 0 0 Z " fill="#21181B" transform="translate(710,760)"/>
<path d="M0 0 C3.3 0 6.6 0 10 0 C10 3.3 10 6.6 10 10 C6.7 10 3.4 10 0 10 C0 6.7 0 3.4 0 0 Z " fill="#21181B" transform="translate(820,750)"/>
<path d="M0 0 C3.3 0 6.6 0 10 0 C10 3.3 10 6.6 10 10 C6.7 10 3.4 10 0 10 C0 6.7 0 3.4 0 0 Z " fill="#21181B" transform="translate(810,740)"/>
<path d="M0 0 C3.3 0 6.6 0 10 0 C10 3.3 10 6.6 10 10 C6.7 10 3.4 10 0 10 C0 6.7 0 3.4 0 0 Z " fill="#21181B" transform="translate(800,730)"/>
<path d="M0 0 C3.3 0 6.6 0 10 0 C10 3.3 10 6.6 10 10 C6.7 10 3.4 10 0 10 C0 6.7 0 3.4 0 0 Z " fill="#D09203" transform="translate(700,730)"/>
<path d="M0 0 C3.3 0 6.6 0 10 0 C10 3.3 10 6.6 10 10 C6.7 10 3.4 10 0 10 C0 6.7 0 3.4 0 0 Z " fill="#21181B" transform="translate(790,720)"/>
<path d="M0 0 C3.3 0 6.6 0 10 0 C10 3.3 10 6.6 10 10 C6.7 10 3.4 10 0 10 C0 6.7 0 3.4 0 0 Z " fill="#D09203" transform="translate(780,720)"/>
<path d="M0 0 C3.3 0 6.6 0 10 0 C10 3.3 10 6.6 10 10 C6.7 10 3.4 10 0 10 C0 6.7 0 3.4 0 0 Z " fill="#D09203" transform="translate(710,720)"/>
<path d="M0 0 C3.3 0 6.6 0 10 0 C10 3.3 10 6.6 10 10 C6.7 10 3.4 10 0 10 C0 6.7 0 3.4 0 0 Z " fill="#D09203" transform="translate(720,700)"/>
<path d="M0 0 C3.3 0 6.6 0 10 0 C10 3.3 10 6.6 10 10 C6.7 10 3.4 10 0 10 C0 6.7 0 3.4 0 0 Z " fill="#21181B" transform="translate(790,690)"/>
<path d="M0 0 C3.3 0 6.6 0 10 0 C10 3.3 10 6.6 10 10 C6.7 10 3.4 10 0 10 C0 6.7 0 3.4 0 0 Z " fill="#21181B" transform="translate(750,680)"/>
<path d="M0 0 C3.3 0 6.6 0 10 0 C10 3.3 10 6.6 10 10 C6.7 10 3.4 10 0 10 C0 6.7 0 3.4 0 0 Z " fill="#FB2701" transform="translate(760,370)"/>
<path d="M0 0 C3.3 0 6.6 0 10 0 C10 3.3 10 6.6 10 10 C6.7 10 3.4 10 0 10 C0 6.7 0 3.4 0 0 Z " fill="#FB2701" transform="translate(960,340)"/>
<path d="M0 0 C3.3 0 6.6 0 10 0 C10 3.3 10 6.6 10 10 C6.7 10 3.4 10 0 10 C0 6.7 0 3.4 0 0 Z " fill="#BF0200" transform="translate(960,330)"/>
<path d="M0 0 C3.3 0 6.6 0 10 0 C10 3.3 10 6.6 10 10 C6.7 10 3.4 10 0 10 C0 6.7 0 3.4 0 0 Z " fill="#F58122" transform="translate(1020,290)"/>
<path d="M0 0 C3.3 0 6.6 0 10 0 C10 3.3 10 6.6 10 10 C6.7 10 3.4 10 0 10 C0 6.7 0 3.4 0 0 Z " fill="#BF0200" transform="translate(990,280)"/>
<path d="M0 0 C3.3 0 6.6 0 10 0 C10 3.3 10 6.6 10 10 C6.7 10 3.4 10 0 10 C0 6.7 0 3.4 0 0 Z " fill="#BF0200" transform="translate(1000,270)"/>
<path d="M0 0 C3.3 0 6.6 0 10 0 C10 3.3 10 6.6 10 10 C6.7 10 3.4 10 0 10 C0 6.7 0 3.4 0 0 Z " fill="#BF0200" transform="translate(940,250)"/>
<path d="M0 0 C3.3 0 6.6 0 10 0 C10 3.3 10 6.6 10 10 C6.7 10 3.4 10 0 10 C0 6.7 0 3.4 0 0 Z " fill="#BF0200" transform="translate(920,250)"/>
<path d="M0 0 C3.3 0 6.6 0 10 0 C10 3.3 10 6.6 10 10 C6.7 10 3.4 10 0 10 C0 6.7 0 3.4 0 0 Z " fill="#BF0200" transform="translate(950,240)"/>
<path d="M0 0 C3.3 0 6.6 0 10 0 C10 3.3 10 6.6 10 10 C6.7 10 3.4 10 0 10 C0 6.7 0 3.4 0 0 Z " fill="#BF0200" transform="translate(930,240)"/>
<path d="M0 0 C3.3 0 6.6 0 10 0 C10 3.3 10 6.6 10 10 C6.7 10 3.4 10 0 10 C0 6.7 0 3.4 0 0 Z " fill="#BF0200" transform="translate(910,240)"/>
<path d="M0 0 C3.3 0 6.6 0 10 0 C10 3.3 10 6.6 10 10 C6.7 10 3.4 10 0 10 C0 6.7 0 3.4 0 0 Z " fill="#BF0200" transform="translate(940,230)"/>
<path d="M0 0 C3.3 0 6.6 0 10 0 C10 3.3 10 6.6 10 10 C6.7 10 3.4 10 0 10 C0 6.7 0 3.4 0 0 Z " fill="#BF0200" transform="translate(920,230)"/>
<path d="M0 0 C3.3 0 6.6 0 10 0 C10 3.3 10 6.6 10 10 C6.7 10 3.4 10 0 10 C0 6.7 0 3.4 0 0 Z " fill="#BF0200" transform="translate(910,150)"/>
<path d="M0 0 C3.3 0 6.6 0 10 0 C10 3.3 10 6.6 10 10 C6.7 10 3.4 10 0 10 C0 6.7 0 3.4 0 0 Z " fill="#BF0200" transform="translate(970,100)"/>
<path d="M0 0 C3.3 0 6.6 0 10 0 C10 3.3 10 6.6 10 10 C6.7 10 3.4 10 0 10 C0 6.7 0 3.4 0 0 Z " fill="#BF0200" transform="translate(950,90)"/>
</svg>
